%TF.GenerationSoftware,KiCad,Pcbnew,7.0.7*%
%TF.CreationDate,2023-10-17T22:58:22+09:00*%
%TF.ProjectId,ALU,414c552e-6b69-4636-9164-5f7063625858,rev?*%
%TF.SameCoordinates,Original*%
%TF.FileFunction,Copper,L2,Bot*%
%TF.FilePolarity,Positive*%
%FSLAX46Y46*%
G04 Gerber Fmt 4.6, Leading zero omitted, Abs format (unit mm)*
G04 Created by KiCad (PCBNEW 7.0.7) date 2023-10-17 22:58:22*
%MOMM*%
%LPD*%
G01*
G04 APERTURE LIST*
%TA.AperFunction,ComponentPad*%
%ADD10R,1.600000X1.600000*%
%TD*%
%TA.AperFunction,ComponentPad*%
%ADD11O,1.600000X1.600000*%
%TD*%
%TA.AperFunction,ComponentPad*%
%ADD12C,1.600000*%
%TD*%
%TA.AperFunction,ComponentPad*%
%ADD13R,1.800000X1.800000*%
%TD*%
%TA.AperFunction,ComponentPad*%
%ADD14C,1.800000*%
%TD*%
%TA.AperFunction,ComponentPad*%
%ADD15R,1.700000X1.700000*%
%TD*%
%TA.AperFunction,ComponentPad*%
%ADD16O,1.700000X1.700000*%
%TD*%
%TA.AperFunction,ViaPad*%
%ADD17C,0.800000*%
%TD*%
%TA.AperFunction,Conductor*%
%ADD18C,0.250000*%
%TD*%
G04 APERTURE END LIST*
D10*
%TO.P,U4,1*%
%TO.N,A4*%
X139710000Y-68580000D03*
D11*
%TO.P,U4,2*%
%TO.N,Net-(U3-Pad10)*%
X139710000Y-71120000D03*
%TO.P,U4,3*%
%TO.N,AA4*%
X139710000Y-73660000D03*
%TO.P,U4,4*%
%TO.N,A4*%
X139710000Y-76200000D03*
%TO.P,U4,5*%
%TO.N,A{slash}L*%
X139710000Y-78740000D03*
%TO.P,U4,6*%
%TO.N,LA4*%
X139710000Y-81280000D03*
%TO.P,U4,7,GND*%
%TO.N,GND*%
X139710000Y-83820000D03*
%TO.P,U4,8*%
%TO.N,AA5*%
X147330000Y-83820000D03*
%TO.P,U4,9*%
%TO.N,A5*%
X147330000Y-81280000D03*
%TO.P,U4,10*%
%TO.N,Net-(U3-Pad12)*%
X147330000Y-78740000D03*
%TO.P,U4,11*%
%TO.N,LA5*%
X147330000Y-76200000D03*
%TO.P,U4,12*%
%TO.N,A5*%
X147330000Y-73660000D03*
%TO.P,U4,13*%
%TO.N,A{slash}L*%
X147330000Y-71120000D03*
%TO.P,U4,14,Vcc*%
%TO.N,+5V*%
X147330000Y-68580000D03*
%TD*%
D10*
%TO.P,U9,1*%
%TO.N,AB4*%
X33660000Y-35560000D03*
D11*
%TO.P,U9,2*%
%TO.N,Net-(U2A-CIN)*%
X33660000Y-38100000D03*
%TO.P,U9,3*%
%TO.N,Net-(U5A-B0)*%
X33660000Y-40640000D03*
%TO.P,U9,4*%
%TO.N,AB5*%
X33660000Y-43180000D03*
%TO.P,U9,5*%
%TO.N,Net-(U2A-CIN)*%
X33660000Y-45720000D03*
%TO.P,U9,6*%
%TO.N,Net-(U5A-B1)*%
X33660000Y-48260000D03*
%TO.P,U9,7,GND*%
%TO.N,GND*%
X33660000Y-50800000D03*
%TO.P,U9,8*%
%TO.N,Net-(U14-Pad1)*%
X41280000Y-50800000D03*
%TO.P,U9,9*%
%TO.N,Net-(U5A-B0)*%
X41280000Y-48260000D03*
%TO.P,U9,10*%
%TO.N,AA4*%
X41280000Y-45720000D03*
%TO.P,U9,11*%
%TO.N,OF*%
X41280000Y-43180000D03*
%TO.P,U9,12*%
%TO.N,Net-(U5A-S2)*%
X41280000Y-40640000D03*
%TO.P,U9,13*%
%TO.N,Net-(U16-Pad3)*%
X41280000Y-38100000D03*
%TO.P,U9,14,Vcc*%
%TO.N,+5V*%
X41280000Y-35560000D03*
%TD*%
D10*
%TO.P,U12,1*%
%TO.N,B4*%
X83830000Y-68580000D03*
D11*
%TO.P,U12,2*%
%TO.N,Net-(U12-Pad2)*%
X83830000Y-71120000D03*
%TO.P,U12,3*%
%TO.N,AB4*%
X83830000Y-73660000D03*
%TO.P,U12,4*%
%TO.N,B4*%
X83830000Y-76200000D03*
%TO.P,U12,5*%
%TO.N,A{slash}L*%
X83830000Y-78740000D03*
%TO.P,U12,6*%
%TO.N,LB4*%
X83830000Y-81280000D03*
%TO.P,U12,7,GND*%
%TO.N,GND*%
X83830000Y-83820000D03*
%TO.P,U12,8*%
%TO.N,AB5*%
X91450000Y-83820000D03*
%TO.P,U12,9*%
%TO.N,B5*%
X91450000Y-81280000D03*
%TO.P,U12,10*%
%TO.N,Net-(U12-Pad10)*%
X91450000Y-78740000D03*
%TO.P,U12,11*%
%TO.N,LB5*%
X91450000Y-76200000D03*
%TO.P,U12,12*%
%TO.N,B5*%
X91450000Y-73660000D03*
%TO.P,U12,13*%
%TO.N,A{slash}L*%
X91450000Y-71120000D03*
%TO.P,U12,14,Vcc*%
%TO.N,+5V*%
X91450000Y-68580000D03*
%TD*%
D10*
%TO.P,U10,1*%
%TO.N,B0*%
X111770000Y-35555000D03*
D11*
%TO.P,U10,2*%
%TO.N,Net-(U10-Pad2)*%
X111770000Y-38095000D03*
%TO.P,U10,3*%
%TO.N,AB0*%
X111770000Y-40635000D03*
%TO.P,U10,4*%
%TO.N,B0*%
X111770000Y-43175000D03*
%TO.P,U10,5*%
%TO.N,A{slash}L*%
X111770000Y-45715000D03*
%TO.P,U10,6*%
%TO.N,LB0*%
X111770000Y-48255000D03*
%TO.P,U10,7,GND*%
%TO.N,GND*%
X111770000Y-50795000D03*
%TO.P,U10,8*%
%TO.N,AB1*%
X119390000Y-50795000D03*
%TO.P,U10,9*%
%TO.N,B1*%
X119390000Y-48255000D03*
%TO.P,U10,10*%
%TO.N,Net-(U10-Pad10)*%
X119390000Y-45715000D03*
%TO.P,U10,11*%
%TO.N,LB1*%
X119390000Y-43175000D03*
%TO.P,U10,12*%
%TO.N,B1*%
X119390000Y-40635000D03*
%TO.P,U10,13*%
%TO.N,A{slash}L*%
X119390000Y-38095000D03*
%TO.P,U10,14,Vcc*%
%TO.N,+5V*%
X119390000Y-35555000D03*
%TD*%
D12*
%TO.P,C5,1*%
%TO.N,+5V*%
X88910000Y-55626000D03*
%TO.P,C5,2*%
%TO.N,GND*%
X86410000Y-55626000D03*
%TD*%
D10*
%TO.P,U24,1,~{R}*%
%TO.N,CLR*%
X58440000Y-162580000D03*
D11*
%TO.P,U24,2,D*%
%TO.N,SF*%
X55900000Y-162580000D03*
%TO.P,U24,3,CP*%
%TO.N,CLK*%
X53360000Y-162580000D03*
%TO.P,U24,4,~{S}*%
%TO.N,+5V*%
X50820000Y-162580000D03*
%TO.P,U24,5,Q*%
%TO.N,SFR*%
X48280000Y-162580000D03*
%TO.P,U24,6,~{Q}*%
%TO.N,unconnected-(U24A-~{Q}-Pad6)*%
X45740000Y-162580000D03*
%TO.P,U24,7,GND*%
%TO.N,GND*%
X43200000Y-162580000D03*
%TO.P,U24,8,~{Q}*%
%TO.N,unconnected-(U24B-~{Q}-Pad8)*%
X43200000Y-170200000D03*
%TO.P,U24,9,Q*%
%TO.N,unconnected-(U24B-Q-Pad9)*%
X45740000Y-170200000D03*
%TO.P,U24,10,~{S}*%
%TO.N,GND*%
X48280000Y-170200000D03*
%TO.P,U24,11,CP*%
X50820000Y-170200000D03*
%TO.P,U24,12,D*%
X53360000Y-170200000D03*
%TO.P,U24,13,~{R}*%
X55900000Y-170200000D03*
%TO.P,U24,14,Vcc*%
%TO.N,+5V*%
X58440000Y-170200000D03*
%TD*%
D12*
%TO.P,C18,1*%
%TO.N,+5V*%
X38100000Y-129545000D03*
%TO.P,C18,2*%
%TO.N,GND*%
X35600000Y-129545000D03*
%TD*%
D10*
%TO.P,U5,1,S1*%
%TO.N,AY5*%
X120015000Y-111125000D03*
D11*
%TO.P,U5,2,B1*%
%TO.N,Net-(U5A-B1)*%
X117475000Y-111125000D03*
%TO.P,U5,3,A1*%
%TO.N,AA5*%
X114935000Y-111125000D03*
%TO.P,U5,4,S0*%
%TO.N,AY4*%
X112395000Y-111125000D03*
%TO.P,U5,5,A0*%
%TO.N,AA4*%
X109855000Y-111125000D03*
%TO.P,U5,6,B0*%
%TO.N,Net-(U5A-B0)*%
X107315000Y-111125000D03*
%TO.P,U5,7,CIN*%
%TO.N,Net-(U2A-COUT)*%
X104775000Y-111125000D03*
%TO.P,U5,8,GND*%
%TO.N,GND*%
X102235000Y-111125000D03*
%TO.P,U5,9,COUT*%
%TO.N,unconnected-(U5A-COUT-Pad9)*%
X102235000Y-118745000D03*
%TO.P,U5,10,S3*%
%TO.N,unconnected-(U5A-S3-Pad10)*%
X104775000Y-118745000D03*
%TO.P,U5,11,B3*%
%TO.N,GND*%
X107315000Y-118745000D03*
%TO.P,U5,12,A3*%
X109855000Y-118745000D03*
%TO.P,U5,13,S2*%
%TO.N,Net-(U5A-S2)*%
X112395000Y-118745000D03*
%TO.P,U5,14,A2*%
%TO.N,GND*%
X114935000Y-118745000D03*
%TO.P,U5,15,B2*%
X117475000Y-118745000D03*
%TO.P,U5,16,Vcc*%
%TO.N,+5V*%
X120015000Y-118745000D03*
%TD*%
D12*
%TO.P,C17,1*%
%TO.N,+5V*%
X128900000Y-142435000D03*
%TO.P,C17,2*%
%TO.N,GND*%
X128900000Y-139935000D03*
%TD*%
D10*
%TO.P,U7,1*%
%TO.N,AB0*%
X59060000Y-35560000D03*
D11*
%TO.P,U7,2*%
%TO.N,Net-(U2A-CIN)*%
X59060000Y-38100000D03*
%TO.P,U7,3*%
%TO.N,Net-(U2A-B0)*%
X59060000Y-40640000D03*
%TO.P,U7,4*%
%TO.N,AB1*%
X59060000Y-43180000D03*
%TO.P,U7,5*%
%TO.N,Net-(U2A-CIN)*%
X59060000Y-45720000D03*
%TO.P,U7,6*%
%TO.N,Net-(U2A-B1)*%
X59060000Y-48260000D03*
%TO.P,U7,7,GND*%
%TO.N,GND*%
X59060000Y-50800000D03*
%TO.P,U7,8*%
%TO.N,Net-(U2A-B2)*%
X66680000Y-50800000D03*
%TO.P,U7,9*%
%TO.N,AB2*%
X66680000Y-48260000D03*
%TO.P,U7,10*%
%TO.N,Net-(U2A-CIN)*%
X66680000Y-45720000D03*
%TO.P,U7,11*%
%TO.N,Net-(U2A-B3)*%
X66680000Y-43180000D03*
%TO.P,U7,12*%
%TO.N,AB3*%
X66680000Y-40640000D03*
%TO.P,U7,13*%
%TO.N,Net-(U2A-CIN)*%
X66680000Y-38100000D03*
%TO.P,U7,14,Vcc*%
%TO.N,+5V*%
X66680000Y-35560000D03*
%TD*%
D10*
%TO.P,U15,1*%
%TO.N,Net-(U14-Pad11)*%
X117480000Y-162570000D03*
D11*
%TO.P,U15,2*%
%TO.N,Net-(U13-Pad13)*%
X114940000Y-162570000D03*
%TO.P,U15,3*%
%TO.N,ZF*%
X112400000Y-162570000D03*
%TO.P,U15,4*%
%TO.N,GND*%
X109860000Y-162570000D03*
%TO.P,U15,5*%
X107320000Y-162570000D03*
%TO.P,U15,6*%
%TO.N,unconnected-(U15-Pad6)*%
X104780000Y-162570000D03*
%TO.P,U15,7,GND*%
%TO.N,GND*%
X102240000Y-162570000D03*
%TO.P,U15,8*%
%TO.N,SF*%
X102240000Y-170190000D03*
%TO.P,U15,9*%
%TO.N,AY5*%
X104780000Y-170190000D03*
%TO.P,U15,10*%
%TO.N,Net-(U13-Pad13)*%
X107320000Y-170190000D03*
%TO.P,U15,11*%
%TO.N,Net-(U2A-CIN)*%
X109860000Y-170190000D03*
%TO.P,U15,12*%
%TO.N,Net-(U15-Pad12)*%
X112400000Y-170190000D03*
%TO.P,U15,13*%
%TO.N,+{slash}-*%
X114940000Y-170190000D03*
%TO.P,U15,14,Vcc*%
%TO.N,+5V*%
X117480000Y-170190000D03*
%TD*%
D12*
%TO.P,C11,1*%
%TO.N,+5V*%
X144790000Y-55626000D03*
%TO.P,C11,2*%
%TO.N,GND*%
X142290000Y-55626000D03*
%TD*%
%TO.P,R3,1*%
%TO.N,ZFR*%
X56515000Y-186690000D03*
D11*
%TO.P,R3,2*%
%TO.N,Net-(D3-A)*%
X56515000Y-196850000D03*
%TD*%
D10*
%TO.P,U1,1*%
%TO.N,A2*%
X168920000Y-68575000D03*
D11*
%TO.P,U1,2*%
%TO.N,Net-(U1-Pad2)*%
X168920000Y-71115000D03*
%TO.P,U1,3*%
%TO.N,AA2*%
X168920000Y-73655000D03*
%TO.P,U1,4*%
%TO.N,A2*%
X168920000Y-76195000D03*
%TO.P,U1,5*%
%TO.N,A{slash}L*%
X168920000Y-78735000D03*
%TO.P,U1,6*%
%TO.N,LA2*%
X168920000Y-81275000D03*
%TO.P,U1,7,GND*%
%TO.N,GND*%
X168920000Y-83815000D03*
%TO.P,U1,8*%
%TO.N,AA3*%
X176540000Y-83815000D03*
%TO.P,U1,9*%
%TO.N,A3*%
X176540000Y-81275000D03*
%TO.P,U1,10*%
%TO.N,Net-(U1-Pad10)*%
X176540000Y-78735000D03*
%TO.P,U1,11*%
%TO.N,LA3*%
X176540000Y-76195000D03*
%TO.P,U1,12*%
%TO.N,A3*%
X176540000Y-73655000D03*
%TO.P,U1,13*%
%TO.N,A{slash}L*%
X176540000Y-71115000D03*
%TO.P,U1,14,Vcc*%
%TO.N,+5V*%
X176540000Y-68575000D03*
%TD*%
D10*
%TO.P,U11,1*%
%TO.N,B2*%
X111760000Y-68580000D03*
D11*
%TO.P,U11,2*%
%TO.N,Net-(U11-Pad2)*%
X111760000Y-71120000D03*
%TO.P,U11,3*%
%TO.N,AB2*%
X111760000Y-73660000D03*
%TO.P,U11,4*%
%TO.N,B2*%
X111760000Y-76200000D03*
%TO.P,U11,5*%
%TO.N,A{slash}L*%
X111760000Y-78740000D03*
%TO.P,U11,6*%
%TO.N,LB2*%
X111760000Y-81280000D03*
%TO.P,U11,7,GND*%
%TO.N,GND*%
X111760000Y-83820000D03*
%TO.P,U11,8*%
%TO.N,AB3*%
X119380000Y-83820000D03*
%TO.P,U11,9*%
%TO.N,B3*%
X119380000Y-81280000D03*
%TO.P,U11,10*%
%TO.N,Net-(U11-Pad10)*%
X119380000Y-78740000D03*
%TO.P,U11,11*%
%TO.N,LB3*%
X119380000Y-76200000D03*
%TO.P,U11,12*%
%TO.N,B3*%
X119380000Y-73660000D03*
%TO.P,U11,13*%
%TO.N,A{slash}L*%
X119380000Y-71120000D03*
%TO.P,U11,14,Vcc*%
%TO.N,+5V*%
X119380000Y-68580000D03*
%TD*%
D12*
%TO.P,R2,1*%
%TO.N,OFR*%
X50038000Y-186690000D03*
D11*
%TO.P,R2,2*%
%TO.N,Net-(D2-A)*%
X50038000Y-196850000D03*
%TD*%
D12*
%TO.P,C21,1*%
%TO.N,+5V*%
X128910000Y-167250000D03*
%TO.P,C21,2*%
%TO.N,GND*%
X128910000Y-164750000D03*
%TD*%
D10*
%TO.P,U16,1*%
%TO.N,Net-(U14-Pad3)*%
X149230000Y-162570000D03*
D11*
%TO.P,U16,2*%
%TO.N,Net-(U14-Pad6)*%
X146690000Y-162570000D03*
%TO.P,U16,3*%
%TO.N,Net-(U16-Pad3)*%
X144150000Y-162570000D03*
%TO.P,U16,4*%
%TO.N,AY0*%
X141610000Y-162570000D03*
%TO.P,U16,5*%
%TO.N,LY0*%
X139070000Y-162570000D03*
%TO.P,U16,6*%
%TO.N,Y0*%
X136530000Y-162570000D03*
%TO.P,U16,7,GND*%
%TO.N,GND*%
X133990000Y-162570000D03*
%TO.P,U16,8*%
%TO.N,Y1*%
X133990000Y-170190000D03*
%TO.P,U16,9*%
%TO.N,AY1*%
X136530000Y-170190000D03*
%TO.P,U16,10*%
%TO.N,LY1*%
X139070000Y-170190000D03*
%TO.P,U16,11*%
%TO.N,Y2*%
X141610000Y-170190000D03*
%TO.P,U16,12*%
%TO.N,AY2*%
X144150000Y-170190000D03*
%TO.P,U16,13*%
%TO.N,LY2*%
X146690000Y-170190000D03*
%TO.P,U16,14,Vcc*%
%TO.N,+5V*%
X149230000Y-170190000D03*
%TD*%
D12*
%TO.P,C14,1*%
%TO.N,+5V*%
X38055000Y-88900000D03*
%TO.P,C14,2*%
%TO.N,GND*%
X35555000Y-88900000D03*
%TD*%
D13*
%TO.P,D3,1,K*%
%TO.N,GND*%
X56515000Y-202438000D03*
D14*
%TO.P,D3,2,A*%
%TO.N,Net-(D3-A)*%
X56515000Y-199898000D03*
%TD*%
D12*
%TO.P,C12,1*%
%TO.N,+5V*%
X174000000Y-55621000D03*
%TO.P,C12,2*%
%TO.N,GND*%
X171500000Y-55621000D03*
%TD*%
D10*
%TO.P,U21,1*%
%TO.N,Net-(U18-Pad3)*%
X59095000Y-109200000D03*
D11*
%TO.P,U21,2*%
%TO.N,A{slash}L*%
X59095000Y-111740000D03*
%TO.P,U21,3*%
%TO.N,LY4*%
X59095000Y-114280000D03*
%TO.P,U21,4*%
%TO.N,Net-(U18-Pad6)*%
X59095000Y-116820000D03*
%TO.P,U21,5*%
%TO.N,A{slash}L*%
X59095000Y-119360000D03*
%TO.P,U21,6*%
%TO.N,LY5*%
X59095000Y-121900000D03*
%TO.P,U21,7,GND*%
%TO.N,GND*%
X59095000Y-124440000D03*
%TO.P,U21,8*%
%TO.N,unconnected-(U21-Pad8)*%
X66715000Y-124440000D03*
%TO.P,U21,9*%
%TO.N,GND*%
X66715000Y-121900000D03*
%TO.P,U21,10*%
X66715000Y-119360000D03*
%TO.P,U21,11*%
%TO.N,unconnected-(U21-Pad11)*%
X66715000Y-116820000D03*
%TO.P,U21,12*%
%TO.N,GND*%
X66715000Y-114280000D03*
%TO.P,U21,13*%
X66715000Y-111740000D03*
%TO.P,U21,14,Vcc*%
%TO.N,+5V*%
X66715000Y-109200000D03*
%TD*%
D12*
%TO.P,C10,1*%
%TO.N,+5V*%
X97155000Y-116205000D03*
%TO.P,C10,2*%
%TO.N,GND*%
X97155000Y-113705000D03*
%TD*%
%TO.P,C9,1*%
%TO.N,+5V*%
X128905000Y-116205000D03*
%TO.P,C9,2*%
%TO.N,GND*%
X128905000Y-113705000D03*
%TD*%
%TO.P,C2,1*%
%TO.N,+5V*%
X88900000Y-88905000D03*
%TO.P,C2,2*%
%TO.N,GND*%
X86400000Y-88905000D03*
%TD*%
D10*
%TO.P,U14,1*%
%TO.N,Net-(U14-Pad1)*%
X117475000Y-188595000D03*
D11*
%TO.P,U14,2*%
%TO.N,Net-(U2A-COUT)*%
X114935000Y-188595000D03*
%TO.P,U14,3*%
%TO.N,Net-(U14-Pad3)*%
X112395000Y-188595000D03*
%TO.P,U14,4*%
%TO.N,Net-(U5A-B0)*%
X109855000Y-188595000D03*
%TO.P,U14,5*%
%TO.N,AA4*%
X107315000Y-188595000D03*
%TO.P,U14,6*%
%TO.N,Net-(U14-Pad6)*%
X104775000Y-188595000D03*
%TO.P,U14,7,GND*%
%TO.N,GND*%
X102235000Y-188595000D03*
%TO.P,U14,8*%
%TO.N,Net-(U14-Pad12)*%
X102235000Y-196215000D03*
%TO.P,U14,9*%
%TO.N,Net-(U13-Pad1)*%
X104775000Y-196215000D03*
%TO.P,U14,10*%
%TO.N,Net-(U13-Pad4)*%
X107315000Y-196215000D03*
%TO.P,U14,11*%
%TO.N,Net-(U14-Pad11)*%
X109855000Y-196215000D03*
%TO.P,U14,12*%
%TO.N,Net-(U14-Pad12)*%
X112395000Y-196215000D03*
%TO.P,U14,13*%
%TO.N,Net-(U13-Pad10)*%
X114935000Y-196215000D03*
%TO.P,U14,14,Vcc*%
%TO.N,+5V*%
X117475000Y-196215000D03*
%TD*%
D12*
%TO.P,C20,1*%
%TO.N,+5V*%
X97155000Y-193635000D03*
%TO.P,C20,2*%
%TO.N,GND*%
X97155000Y-191135000D03*
%TD*%
%TO.P,C3,1*%
%TO.N,+5V*%
X116840000Y-88900000D03*
%TO.P,C3,2*%
%TO.N,GND*%
X114340000Y-88900000D03*
%TD*%
D10*
%TO.P,U23,1,~{R}*%
%TO.N,CLR*%
X58420000Y-137795000D03*
D11*
%TO.P,U23,2,D*%
%TO.N,ZF*%
X55880000Y-137795000D03*
%TO.P,U23,3,CP*%
%TO.N,CLK*%
X53340000Y-137795000D03*
%TO.P,U23,4,~{S}*%
%TO.N,+5V*%
X50800000Y-137795000D03*
%TO.P,U23,5,Q*%
%TO.N,ZFR*%
X48260000Y-137795000D03*
%TO.P,U23,6,~{Q}*%
%TO.N,unconnected-(U23A-~{Q}-Pad6)*%
X45720000Y-137795000D03*
%TO.P,U23,7,GND*%
%TO.N,GND*%
X43180000Y-137795000D03*
%TO.P,U23,8,~{Q}*%
%TO.N,unconnected-(U23B-~{Q}-Pad8)*%
X43180000Y-145415000D03*
%TO.P,U23,9,Q*%
%TO.N,OFR*%
X45720000Y-145415000D03*
%TO.P,U23,10,~{S}*%
%TO.N,+5V*%
X48260000Y-145415000D03*
%TO.P,U23,11,CP*%
%TO.N,CLK*%
X50800000Y-145415000D03*
%TO.P,U23,12,D*%
%TO.N,OF*%
X53340000Y-145415000D03*
%TO.P,U23,13,~{R}*%
%TO.N,CLR*%
X55880000Y-145415000D03*
%TO.P,U23,14,Vcc*%
%TO.N,+5V*%
X58420000Y-145415000D03*
%TD*%
D12*
%TO.P,C23,1*%
%TO.N,+5V*%
X38095000Y-142865000D03*
%TO.P,C23,2*%
%TO.N,GND*%
X38095000Y-140365000D03*
%TD*%
D10*
%TO.P,U3,1*%
%TO.N,A{slash}L*%
X139710000Y-35560000D03*
D11*
%TO.P,U3,2*%
%TO.N,Net-(U3-Pad2)*%
X139710000Y-38100000D03*
%TO.P,U3,3*%
%TO.N,A{slash}L*%
X139710000Y-40640000D03*
%TO.P,U3,4*%
%TO.N,Net-(U3-Pad4)*%
X139710000Y-43180000D03*
%TO.P,U3,5*%
%TO.N,A{slash}L*%
X139710000Y-45720000D03*
%TO.P,U3,6*%
%TO.N,Net-(U1-Pad2)*%
X139710000Y-48260000D03*
%TO.P,U3,7,GND*%
%TO.N,GND*%
X139710000Y-50800000D03*
%TO.P,U3,8*%
%TO.N,Net-(U1-Pad10)*%
X147330000Y-50800000D03*
%TO.P,U3,9*%
%TO.N,A{slash}L*%
X147330000Y-48260000D03*
%TO.P,U3,10*%
%TO.N,Net-(U3-Pad10)*%
X147330000Y-45720000D03*
%TO.P,U3,11*%
%TO.N,A{slash}L*%
X147330000Y-43180000D03*
%TO.P,U3,12*%
%TO.N,Net-(U3-Pad12)*%
X147330000Y-40640000D03*
%TO.P,U3,13*%
%TO.N,A{slash}L*%
X147330000Y-38100000D03*
%TO.P,U3,14,Vcc*%
%TO.N,+5V*%
X147330000Y-35560000D03*
%TD*%
D12*
%TO.P,C6,1*%
%TO.N,+5V*%
X144780000Y-88905000D03*
%TO.P,C6,2*%
%TO.N,GND*%
X142280000Y-88905000D03*
%TD*%
%TO.P,C8,1*%
%TO.N,+5V*%
X116840000Y-55626000D03*
%TO.P,C8,2*%
%TO.N,GND*%
X114340000Y-55626000D03*
%TD*%
%TO.P,C15,1*%
%TO.N,+5V*%
X97155000Y-142875000D03*
%TO.P,C15,2*%
%TO.N,GND*%
X97155000Y-140375000D03*
%TD*%
%TO.P,R1,1*%
%TO.N,SFR*%
X43688000Y-186695000D03*
D11*
%TO.P,R1,2*%
%TO.N,Net-(D1-A)*%
X43688000Y-196855000D03*
%TD*%
D10*
%TO.P,U19,1*%
%TO.N,AY3*%
X149225000Y-137795000D03*
D11*
%TO.P,U19,2*%
%TO.N,LY3*%
X146685000Y-137795000D03*
%TO.P,U19,3*%
%TO.N,Y3*%
X144145000Y-137795000D03*
%TO.P,U19,4*%
%TO.N,AY4*%
X141605000Y-137795000D03*
%TO.P,U19,5*%
%TO.N,LY4*%
X139065000Y-137795000D03*
%TO.P,U19,6*%
%TO.N,Y4*%
X136525000Y-137795000D03*
%TO.P,U19,7,GND*%
%TO.N,GND*%
X133985000Y-137795000D03*
%TO.P,U19,8*%
%TO.N,Y5*%
X133985000Y-145415000D03*
%TO.P,U19,9*%
%TO.N,AY5*%
X136525000Y-145415000D03*
%TO.P,U19,10*%
%TO.N,LY5*%
X139065000Y-145415000D03*
%TO.P,U19,11*%
%TO.N,unconnected-(U19-Pad11)*%
X141605000Y-145415000D03*
%TO.P,U19,12*%
%TO.N,GND*%
X144145000Y-145415000D03*
%TO.P,U19,13*%
X146685000Y-145415000D03*
%TO.P,U19,14,Vcc*%
%TO.N,+5V*%
X149225000Y-145415000D03*
%TD*%
D12*
%TO.P,C4,1*%
%TO.N,+5V*%
X64130000Y-55631000D03*
%TO.P,C4,2*%
%TO.N,GND*%
X61630000Y-55631000D03*
%TD*%
D10*
%TO.P,U13,1*%
%TO.N,Net-(U13-Pad1)*%
X117480000Y-137805000D03*
D11*
%TO.P,U13,2*%
%TO.N,Y0*%
X114940000Y-137805000D03*
%TO.P,U13,3*%
%TO.N,Y1*%
X112400000Y-137805000D03*
%TO.P,U13,4*%
%TO.N,Net-(U13-Pad4)*%
X109860000Y-137805000D03*
%TO.P,U13,5*%
%TO.N,Y2*%
X107320000Y-137805000D03*
%TO.P,U13,6*%
%TO.N,Y3*%
X104780000Y-137805000D03*
%TO.P,U13,7,GND*%
%TO.N,GND*%
X102240000Y-137805000D03*
%TO.P,U13,8*%
%TO.N,Y4*%
X102240000Y-145425000D03*
%TO.P,U13,9*%
%TO.N,Y5*%
X104780000Y-145425000D03*
%TO.P,U13,10*%
%TO.N,Net-(U13-Pad10)*%
X107320000Y-145425000D03*
%TO.P,U13,11*%
%TO.N,OF*%
X109860000Y-145425000D03*
%TO.P,U13,12*%
X112400000Y-145425000D03*
%TO.P,U13,13*%
%TO.N,Net-(U13-Pad13)*%
X114940000Y-145425000D03*
%TO.P,U13,14,Vcc*%
%TO.N,+5V*%
X117480000Y-145425000D03*
%TD*%
D10*
%TO.P,U20,1*%
%TO.N,Net-(U17-Pad3)*%
X33020000Y-109220000D03*
D11*
%TO.P,U20,2*%
%TO.N,A{slash}L*%
X33020000Y-111760000D03*
%TO.P,U20,3*%
%TO.N,LY0*%
X33020000Y-114300000D03*
%TO.P,U20,4*%
%TO.N,Net-(U17-Pad6)*%
X33020000Y-116840000D03*
%TO.P,U20,5*%
%TO.N,A{slash}L*%
X33020000Y-119380000D03*
%TO.P,U20,6*%
%TO.N,LY1*%
X33020000Y-121920000D03*
%TO.P,U20,7,GND*%
%TO.N,GND*%
X33020000Y-124460000D03*
%TO.P,U20,8*%
%TO.N,LY2*%
X40640000Y-124460000D03*
%TO.P,U20,9*%
%TO.N,Net-(U17-Pad8)*%
X40640000Y-121920000D03*
%TO.P,U20,10*%
%TO.N,A{slash}L*%
X40640000Y-119380000D03*
%TO.P,U20,11*%
%TO.N,LY3*%
X40640000Y-116840000D03*
%TO.P,U20,12*%
%TO.N,Net-(U17-Pad11)*%
X40640000Y-114300000D03*
%TO.P,U20,13*%
%TO.N,A{slash}L*%
X40640000Y-111760000D03*
%TO.P,U20,14,Vcc*%
%TO.N,+5V*%
X40640000Y-109220000D03*
%TD*%
D10*
%TO.P,U18,1*%
%TO.N,LA4*%
X59065000Y-68575000D03*
D11*
%TO.P,U18,2*%
%TO.N,LB4*%
X59065000Y-71115000D03*
%TO.P,U18,3*%
%TO.N,Net-(U18-Pad3)*%
X59065000Y-73655000D03*
%TO.P,U18,4*%
%TO.N,LA5*%
X59065000Y-76195000D03*
%TO.P,U18,5*%
%TO.N,LB5*%
X59065000Y-78735000D03*
%TO.P,U18,6*%
%TO.N,Net-(U18-Pad6)*%
X59065000Y-81275000D03*
%TO.P,U18,7,GND*%
%TO.N,GND*%
X59065000Y-83815000D03*
%TO.P,U18,8*%
%TO.N,Net-(U15-Pad12)*%
X66685000Y-83815000D03*
%TO.P,U18,9*%
%TO.N,A{slash}L*%
X66685000Y-81275000D03*
%TO.P,U18,10*%
X66685000Y-78735000D03*
%TO.P,U18,11*%
%TO.N,unconnected-(U18-Pad11)*%
X66685000Y-76195000D03*
%TO.P,U18,12*%
%TO.N,GND*%
X66685000Y-73655000D03*
%TO.P,U18,13*%
X66685000Y-71115000D03*
%TO.P,U18,14,Vcc*%
%TO.N,+5V*%
X66685000Y-68575000D03*
%TD*%
D10*
%TO.P,U8,1*%
%TO.N,A{slash}L*%
X83840000Y-35555000D03*
D11*
%TO.P,U8,2*%
%TO.N,Net-(U10-Pad2)*%
X83840000Y-38095000D03*
%TO.P,U8,3*%
%TO.N,A{slash}L*%
X83840000Y-40635000D03*
%TO.P,U8,4*%
%TO.N,Net-(U10-Pad10)*%
X83840000Y-43175000D03*
%TO.P,U8,5*%
%TO.N,A{slash}L*%
X83840000Y-45715000D03*
%TO.P,U8,6*%
%TO.N,Net-(U11-Pad2)*%
X83840000Y-48255000D03*
%TO.P,U8,7,GND*%
%TO.N,GND*%
X83840000Y-50795000D03*
%TO.P,U8,8*%
%TO.N,Net-(U11-Pad10)*%
X91460000Y-50795000D03*
%TO.P,U8,9*%
%TO.N,A{slash}L*%
X91460000Y-48255000D03*
%TO.P,U8,10*%
%TO.N,Net-(U12-Pad2)*%
X91460000Y-45715000D03*
%TO.P,U8,11*%
%TO.N,A{slash}L*%
X91460000Y-43175000D03*
%TO.P,U8,12*%
%TO.N,Net-(U12-Pad10)*%
X91460000Y-40635000D03*
%TO.P,U8,13*%
%TO.N,A{slash}L*%
X91460000Y-38095000D03*
%TO.P,U8,14,Vcc*%
%TO.N,+5V*%
X91460000Y-35555000D03*
%TD*%
D15*
%TO.P,J1,1,Pin_1*%
%TO.N,A0*%
X199644000Y-35560000D03*
D16*
%TO.P,J1,2,Pin_2*%
%TO.N,A1*%
X202184000Y-35560000D03*
%TO.P,J1,3,Pin_3*%
%TO.N,A2*%
X199644000Y-38100000D03*
%TO.P,J1,4,Pin_4*%
%TO.N,A3*%
X202184000Y-38100000D03*
%TO.P,J1,5,Pin_5*%
%TO.N,A4*%
X199644000Y-40640000D03*
%TO.P,J1,6,Pin_6*%
%TO.N,A5*%
X202184000Y-40640000D03*
%TO.P,J1,7,Pin_7*%
%TO.N,B0*%
X199644000Y-43180000D03*
%TO.P,J1,8,Pin_8*%
%TO.N,B1*%
X202184000Y-43180000D03*
%TO.P,J1,9,Pin_9*%
%TO.N,B2*%
X199644000Y-45720000D03*
%TO.P,J1,10,Pin_10*%
%TO.N,B3*%
X202184000Y-45720000D03*
%TO.P,J1,11,Pin_11*%
%TO.N,B4*%
X199644000Y-48260000D03*
%TO.P,J1,12,Pin_12*%
%TO.N,B5*%
X202184000Y-48260000D03*
%TO.P,J1,13,Pin_13*%
%TO.N,+{slash}-*%
X199644000Y-50800000D03*
%TO.P,J1,14,Pin_14*%
%TO.N,A{slash}L*%
X202184000Y-50800000D03*
%TO.P,J1,15,Pin_15*%
%TO.N,CLR*%
X199644000Y-53340000D03*
%TO.P,J1,16,Pin_16*%
%TO.N,CLK*%
X202184000Y-53340000D03*
%TO.P,J1,17,Pin_17*%
%TO.N,+5V*%
X199644000Y-55880000D03*
%TO.P,J1,18,Pin_18*%
%TO.N,GND*%
X202184000Y-55880000D03*
%TO.P,J1,19,Pin_19*%
%TO.N,unconnected-(J1-Pin_19-Pad19)*%
X199644000Y-58420000D03*
%TO.P,J1,20,Pin_20*%
%TO.N,unconnected-(J1-Pin_20-Pad20)*%
X202184000Y-58420000D03*
%TO.P,J1,21,Pin_21*%
%TO.N,unconnected-(J1-Pin_21-Pad21)*%
X199644000Y-60960000D03*
%TO.P,J1,22,Pin_22*%
%TO.N,unconnected-(J1-Pin_22-Pad22)*%
X202184000Y-60960000D03*
%TO.P,J1,23,Pin_23*%
%TO.N,unconnected-(J1-Pin_23-Pad23)*%
X199644000Y-63500000D03*
%TO.P,J1,24,Pin_24*%
%TO.N,unconnected-(J1-Pin_24-Pad24)*%
X202184000Y-63500000D03*
%TO.P,J1,25,Pin_25*%
%TO.N,unconnected-(J1-Pin_25-Pad25)*%
X199644000Y-66040000D03*
%TO.P,J1,26,Pin_26*%
%TO.N,unconnected-(J1-Pin_26-Pad26)*%
X202184000Y-66040000D03*
%TO.P,J1,27,Pin_27*%
%TO.N,unconnected-(J1-Pin_27-Pad27)*%
X199644000Y-68580000D03*
%TO.P,J1,28,Pin_28*%
%TO.N,unconnected-(J1-Pin_28-Pad28)*%
X202184000Y-68580000D03*
%TO.P,J1,29,Pin_29*%
%TO.N,unconnected-(J1-Pin_29-Pad29)*%
X199644000Y-71120000D03*
%TO.P,J1,30,Pin_30*%
%TO.N,unconnected-(J1-Pin_30-Pad30)*%
X202184000Y-71120000D03*
%TO.P,J1,31,Pin_31*%
%TO.N,unconnected-(J1-Pin_31-Pad31)*%
X199644000Y-73660000D03*
%TO.P,J1,32,Pin_32*%
%TO.N,unconnected-(J1-Pin_32-Pad32)*%
X202184000Y-73660000D03*
%TO.P,J1,33,Pin_33*%
%TO.N,unconnected-(J1-Pin_33-Pad33)*%
X199644000Y-76200000D03*
%TO.P,J1,34,Pin_34*%
%TO.N,unconnected-(J1-Pin_34-Pad34)*%
X202184000Y-76200000D03*
%TD*%
D12*
%TO.P,C1,1*%
%TO.N,+5V*%
X38730000Y-55631000D03*
%TO.P,C1,2*%
%TO.N,GND*%
X36230000Y-55631000D03*
%TD*%
%TO.P,C16,1*%
%TO.N,+5V*%
X97160000Y-167610000D03*
%TO.P,C16,2*%
%TO.N,GND*%
X97160000Y-165110000D03*
%TD*%
D13*
%TO.P,D1,1,K*%
%TO.N,GND*%
X43688000Y-202443000D03*
D14*
%TO.P,D1,2,A*%
%TO.N,Net-(D1-A)*%
X43688000Y-199903000D03*
%TD*%
D12*
%TO.P,C19,1*%
%TO.N,+5V*%
X64135000Y-129520000D03*
%TO.P,C19,2*%
%TO.N,GND*%
X61635000Y-129520000D03*
%TD*%
D10*
%TO.P,U17,1*%
%TO.N,LA0*%
X33025000Y-68580000D03*
D11*
%TO.P,U17,2*%
%TO.N,LB0*%
X33025000Y-71120000D03*
%TO.P,U17,3*%
%TO.N,Net-(U17-Pad3)*%
X33025000Y-73660000D03*
%TO.P,U17,4*%
%TO.N,LA1*%
X33025000Y-76200000D03*
%TO.P,U17,5*%
%TO.N,LB1*%
X33025000Y-78740000D03*
%TO.P,U17,6*%
%TO.N,Net-(U17-Pad6)*%
X33025000Y-81280000D03*
%TO.P,U17,7,GND*%
%TO.N,GND*%
X33025000Y-83820000D03*
%TO.P,U17,8*%
%TO.N,Net-(U17-Pad8)*%
X40645000Y-83820000D03*
%TO.P,U17,9*%
%TO.N,LA2*%
X40645000Y-81280000D03*
%TO.P,U17,10*%
%TO.N,LB2*%
X40645000Y-78740000D03*
%TO.P,U17,11*%
%TO.N,Net-(U17-Pad11)*%
X40645000Y-76200000D03*
%TO.P,U17,12*%
%TO.N,LA3*%
X40645000Y-73660000D03*
%TO.P,U17,13*%
%TO.N,LB3*%
X40645000Y-71120000D03*
%TO.P,U17,14,Vcc*%
%TO.N,+5V*%
X40645000Y-68580000D03*
%TD*%
D10*
%TO.P,U6,1*%
%TO.N,A0*%
X168920000Y-35555000D03*
D11*
%TO.P,U6,2*%
%TO.N,Net-(U3-Pad2)*%
X168920000Y-38095000D03*
%TO.P,U6,3*%
%TO.N,AA0*%
X168920000Y-40635000D03*
%TO.P,U6,4*%
%TO.N,A0*%
X168920000Y-43175000D03*
%TO.P,U6,5*%
%TO.N,A{slash}L*%
X168920000Y-45715000D03*
%TO.P,U6,6*%
%TO.N,LA0*%
X168920000Y-48255000D03*
%TO.P,U6,7,GND*%
%TO.N,GND*%
X168920000Y-50795000D03*
%TO.P,U6,8*%
%TO.N,AA1*%
X176540000Y-50795000D03*
%TO.P,U6,9*%
%TO.N,A1*%
X176540000Y-48255000D03*
%TO.P,U6,10*%
%TO.N,Net-(U3-Pad4)*%
X176540000Y-45715000D03*
%TO.P,U6,11*%
%TO.N,LA1*%
X176540000Y-43175000D03*
%TO.P,U6,12*%
%TO.N,A1*%
X176540000Y-40635000D03*
%TO.P,U6,13*%
%TO.N,A{slash}L*%
X176540000Y-38095000D03*
%TO.P,U6,14,Vcc*%
%TO.N,+5V*%
X176540000Y-35555000D03*
%TD*%
D12*
%TO.P,C7,1*%
%TO.N,+5V*%
X173990000Y-88900000D03*
%TO.P,C7,2*%
%TO.N,GND*%
X171490000Y-88900000D03*
%TD*%
%TO.P,C13,1*%
%TO.N,+5V*%
X64135000Y-88895000D03*
%TO.P,C13,2*%
%TO.N,GND*%
X61635000Y-88895000D03*
%TD*%
%TO.P,C22,1*%
%TO.N,+5V*%
X38120000Y-167620000D03*
%TO.P,C22,2*%
%TO.N,GND*%
X38120000Y-165120000D03*
%TD*%
D10*
%TO.P,U2,1,S1*%
%TO.N,AY1*%
X151765000Y-111125000D03*
D11*
%TO.P,U2,2,B1*%
%TO.N,Net-(U2A-B1)*%
X149225000Y-111125000D03*
%TO.P,U2,3,A1*%
%TO.N,AA1*%
X146685000Y-111125000D03*
%TO.P,U2,4,S0*%
%TO.N,AY0*%
X144145000Y-111125000D03*
%TO.P,U2,5,A0*%
%TO.N,AA0*%
X141605000Y-111125000D03*
%TO.P,U2,6,B0*%
%TO.N,Net-(U2A-B0)*%
X139065000Y-111125000D03*
%TO.P,U2,7,CIN*%
%TO.N,Net-(U2A-CIN)*%
X136525000Y-111125000D03*
%TO.P,U2,8,GND*%
%TO.N,GND*%
X133985000Y-111125000D03*
%TO.P,U2,9,COUT*%
%TO.N,Net-(U2A-COUT)*%
X133985000Y-118745000D03*
%TO.P,U2,10,S3*%
%TO.N,AY3*%
X136525000Y-118745000D03*
%TO.P,U2,11,B3*%
%TO.N,Net-(U2A-B3)*%
X139065000Y-118745000D03*
%TO.P,U2,12,A3*%
%TO.N,AA3*%
X141605000Y-118745000D03*
%TO.P,U2,13,S2*%
%TO.N,AY2*%
X144145000Y-118745000D03*
%TO.P,U2,14,A2*%
%TO.N,AA2*%
X146685000Y-118745000D03*
%TO.P,U2,15,B2*%
%TO.N,Net-(U2A-B2)*%
X149225000Y-118745000D03*
%TO.P,U2,16,Vcc*%
%TO.N,+5V*%
X151765000Y-118745000D03*
%TD*%
D13*
%TO.P,D2,1,K*%
%TO.N,GND*%
X50038000Y-202438000D03*
D14*
%TO.P,D2,2,A*%
%TO.N,Net-(D2-A)*%
X50038000Y-199898000D03*
%TD*%
D15*
%TO.P,J2,1,Pin_1*%
%TO.N,Y0*%
X199644000Y-101854000D03*
D16*
%TO.P,J2,2,Pin_2*%
%TO.N,Y1*%
X202184000Y-101854000D03*
%TO.P,J2,3,Pin_3*%
%TO.N,Y2*%
X199644000Y-104394000D03*
%TO.P,J2,4,Pin_4*%
%TO.N,Y3*%
X202184000Y-104394000D03*
%TO.P,J2,5,Pin_5*%
%TO.N,Y4*%
X199644000Y-106934000D03*
%TO.P,J2,6,Pin_6*%
%TO.N,Y5*%
X202184000Y-106934000D03*
%TO.P,J2,7,Pin_7*%
%TO.N,ZFR*%
X199644000Y-109474000D03*
%TO.P,J2,8,Pin_8*%
%TO.N,OFR*%
X202184000Y-109474000D03*
%TO.P,J2,9,Pin_9*%
%TO.N,SFR*%
X199644000Y-112014000D03*
%TO.P,J2,10,Pin_10*%
%TO.N,unconnected-(J2-Pin_10-Pad10)*%
X202184000Y-112014000D03*
%TO.P,J2,11,Pin_11*%
%TO.N,unconnected-(J2-Pin_11-Pad11)*%
X199644000Y-114554000D03*
%TO.P,J2,12,Pin_12*%
%TO.N,unconnected-(J2-Pin_12-Pad12)*%
X202184000Y-114554000D03*
%TO.P,J2,13,Pin_13*%
%TO.N,unconnected-(J2-Pin_13-Pad13)*%
X199644000Y-117094000D03*
%TO.P,J2,14,Pin_14*%
%TO.N,unconnected-(J2-Pin_14-Pad14)*%
X202184000Y-117094000D03*
%TO.P,J2,15,Pin_15*%
%TO.N,unconnected-(J2-Pin_15-Pad15)*%
X199644000Y-119634000D03*
%TO.P,J2,16,Pin_16*%
%TO.N,unconnected-(J2-Pin_16-Pad16)*%
X202184000Y-119634000D03*
%TO.P,J2,17,Pin_17*%
%TO.N,unconnected-(J2-Pin_17-Pad17)*%
X199644000Y-122174000D03*
%TO.P,J2,18,Pin_18*%
%TO.N,unconnected-(J2-Pin_18-Pad18)*%
X202184000Y-122174000D03*
%TO.P,J2,19,Pin_19*%
%TO.N,unconnected-(J2-Pin_19-Pad19)*%
X199644000Y-124714000D03*
%TO.P,J2,20,Pin_20*%
%TO.N,unconnected-(J2-Pin_20-Pad20)*%
X202184000Y-124714000D03*
%TO.P,J2,21,Pin_21*%
%TO.N,unconnected-(J2-Pin_21-Pad21)*%
X199644000Y-127254000D03*
%TO.P,J2,22,Pin_22*%
%TO.N,unconnected-(J2-Pin_22-Pad22)*%
X202184000Y-127254000D03*
%TO.P,J2,23,Pin_23*%
%TO.N,unconnected-(J2-Pin_23-Pad23)*%
X199644000Y-129794000D03*
%TO.P,J2,24,Pin_24*%
%TO.N,unconnected-(J2-Pin_24-Pad24)*%
X202184000Y-129794000D03*
%TO.P,J2,25,Pin_25*%
%TO.N,unconnected-(J2-Pin_25-Pad25)*%
X199644000Y-132334000D03*
%TO.P,J2,26,Pin_26*%
%TO.N,unconnected-(J2-Pin_26-Pad26)*%
X202184000Y-132334000D03*
%TO.P,J2,27,Pin_27*%
%TO.N,unconnected-(J2-Pin_27-Pad27)*%
X199644000Y-134874000D03*
%TO.P,J2,28,Pin_28*%
%TO.N,unconnected-(J2-Pin_28-Pad28)*%
X202184000Y-134874000D03*
%TO.P,J2,29,Pin_29*%
%TO.N,unconnected-(J2-Pin_29-Pad29)*%
X199644000Y-137414000D03*
%TO.P,J2,30,Pin_30*%
%TO.N,unconnected-(J2-Pin_30-Pad30)*%
X202184000Y-137414000D03*
%TO.P,J2,31,Pin_31*%
%TO.N,unconnected-(J2-Pin_31-Pad31)*%
X199644000Y-139954000D03*
%TO.P,J2,32,Pin_32*%
%TO.N,unconnected-(J2-Pin_32-Pad32)*%
X202184000Y-139954000D03*
%TO.P,J2,33,Pin_33*%
%TO.N,unconnected-(J2-Pin_33-Pad33)*%
X199644000Y-142494000D03*
%TO.P,J2,34,Pin_34*%
%TO.N,unconnected-(J2-Pin_34-Pad34)*%
X202184000Y-142494000D03*
%TD*%
D17*
%TO.N,GND*%
X173223000Y-57089800D03*
%TO.N,B1*%
X163758800Y-35092600D03*
%TO.N,B2*%
X121595400Y-72390000D03*
%TO.N,B4*%
X184463100Y-60423000D03*
X86369300Y-68866600D03*
%TO.N,B5*%
X187081700Y-61494500D03*
%TO.N,+{slash}-*%
X152543500Y-153645200D03*
%TO.N,A{slash}L*%
X189409500Y-49530000D03*
X113723600Y-71120000D03*
X65527000Y-104887600D03*
%TO.N,CLR*%
X191902900Y-66260900D03*
X59706400Y-143399300D03*
%TO.N,CLK*%
X195280700Y-61842600D03*
%TO.N,Y0*%
X127992000Y-133600600D03*
%TO.N,Y1*%
X127507900Y-132621100D03*
%TO.N,Y2*%
X150835400Y-132319900D03*
%TO.N,AA2*%
X155934200Y-108802300D03*
%TO.N,LA2*%
X52858200Y-89146700D03*
%TO.N,Net-(U1-Pad10)*%
X155840000Y-82042000D03*
%TO.N,LA3*%
X53233100Y-86618100D03*
%TO.N,Net-(U2A-B1)*%
X149282900Y-72992600D03*
%TO.N,AA1*%
X167257500Y-58225000D03*
%TO.N,AY0*%
X145326600Y-116957700D03*
%TO.N,AA0*%
X149407000Y-105099200D03*
%TO.N,Net-(U2A-B0)*%
X94334700Y-64680400D03*
%TO.N,Net-(U2A-CIN)*%
X122263700Y-164432200D03*
X90993400Y-109641200D03*
%TO.N,Net-(U2A-COUT)*%
X121765300Y-180621900D03*
%TO.N,AY3*%
X145772000Y-122714500D03*
%TO.N,Net-(U2A-B3)*%
X110261400Y-113898900D03*
%TO.N,Net-(U2A-B2)*%
X108071500Y-117338900D03*
%TO.N,Net-(U3-Pad2)*%
X160822200Y-36993400D03*
%TO.N,Net-(U3-Pad10)*%
X143746000Y-46318100D03*
%TO.N,AA4*%
X65090300Y-71303500D03*
X93098200Y-120550700D03*
X128248500Y-105118700D03*
%TO.N,LA4*%
X57318500Y-88529300D03*
%TO.N,AA5*%
X115847300Y-107732300D03*
%TO.N,LA5*%
X62885000Y-93286400D03*
X145827800Y-83307000D03*
%TO.N,AY5*%
X121945700Y-156766200D03*
X125121600Y-138045800D03*
%TO.N,AY4*%
X124348300Y-136021700D03*
%TO.N,Net-(U5A-B0)*%
X89576200Y-104443600D03*
X34869500Y-47189200D03*
X53869100Y-91547800D03*
X121211500Y-176111600D03*
%TO.N,Net-(U5A-S2)*%
X65067500Y-48664500D03*
%TO.N,LA1*%
X31609600Y-44464000D03*
%TO.N,AB2*%
X80109000Y-70670700D03*
%TO.N,AB3*%
X95994500Y-53103800D03*
%TO.N,Net-(U11-Pad10)*%
X97662700Y-53416500D03*
%TO.N,Net-(U12-Pad2)*%
X87781600Y-46722100D03*
%TO.N,OF*%
X109860000Y-148712100D03*
X62020300Y-144104200D03*
%TO.N,Net-(U16-Pad3)*%
X92213900Y-159805700D03*
%TO.N,LB0*%
X97240600Y-40929000D03*
%TO.N,LB2*%
X52230100Y-86186000D03*
%TO.N,LB3*%
X117574000Y-72819400D03*
%TO.N,LB4*%
X63283000Y-78065500D03*
%TO.N,LB5*%
X61518300Y-78735000D03*
%TO.N,Net-(U13-Pad10)*%
X114935000Y-191572700D03*
%TO.N,Net-(U13-Pad13)*%
X114940000Y-164461100D03*
%TO.N,ZF*%
X97561700Y-146725000D03*
%TO.N,Net-(U15-Pad12)*%
X92763400Y-156734800D03*
X104740300Y-168338300D03*
%TO.N,LY0*%
X138027700Y-155429300D03*
%TO.N,LY1*%
X127693100Y-154895000D03*
%TO.N,LY2*%
X84328000Y-171450000D03*
%TO.N,LY3*%
X60416500Y-137590300D03*
%TO.N,LY4*%
X92015200Y-139860400D03*
X69545200Y-116625200D03*
%TO.N,LY5*%
X135191300Y-146750700D03*
X89172700Y-140238400D03*
%TD*%
D18*
%TO.N,+5V*%
X117480000Y-170190000D02*
X118606900Y-170190000D01*
X68960000Y-69723100D02*
X89180000Y-69723100D01*
X196347000Y-55880000D02*
X199644000Y-55880000D01*
X57039609Y-132504400D02*
X61150600Y-132504400D01*
X174000000Y-55621000D02*
X196088000Y-55621000D01*
X120516900Y-35555000D02*
X121648800Y-36686900D01*
X52130009Y-137414000D02*
X57039609Y-132504400D01*
X119390000Y-35555000D02*
X120516900Y-35555000D01*
X121648800Y-36686900D02*
X145076200Y-36686900D01*
X61150600Y-132504400D02*
X64135000Y-129520000D01*
X145076200Y-36686900D02*
X146203100Y-35560000D01*
X119380000Y-68580000D02*
X118253100Y-68580000D01*
X51181000Y-137414000D02*
X52130009Y-137414000D01*
X196088000Y-55621000D02*
X196347000Y-55880000D01*
X118606900Y-170190000D02*
X121546900Y-167250000D01*
X120015000Y-118745000D02*
X121141900Y-118745000D01*
X66685000Y-68575000D02*
X67811900Y-68575000D01*
X91450000Y-68580000D02*
X90323100Y-68580000D01*
X67811900Y-68575000D02*
X68960000Y-69723100D01*
X50800000Y-137795000D02*
X51181000Y-137414000D01*
X109697800Y-68580100D02*
X110824600Y-69706900D01*
X109697800Y-68580000D02*
X109697800Y-68580100D01*
X92576900Y-68580000D02*
X109697800Y-68580000D01*
X128900000Y-142435000D02*
X121596900Y-142435000D01*
X123681900Y-116205000D02*
X121141900Y-118745000D01*
X117480000Y-145425000D02*
X118606900Y-145425000D01*
X110824600Y-69706900D02*
X117126200Y-69706900D01*
X89180000Y-69723100D02*
X90323100Y-68580000D01*
X147330000Y-35560000D02*
X146203100Y-35560000D01*
X91450000Y-68580000D02*
X92576900Y-68580000D01*
X128905000Y-116205000D02*
X123681900Y-116205000D01*
X121596900Y-142435000D02*
X118606900Y-145425000D01*
X121546900Y-167250000D02*
X128910000Y-167250000D01*
X117126200Y-69706900D02*
X118253100Y-68580000D01*
%TO.N,GND*%
X139710000Y-50800000D02*
X138583100Y-50800000D01*
X107315000Y-119301100D02*
X107315000Y-131603100D01*
X105239491Y-161438500D02*
X106370991Y-162570000D01*
X143018100Y-145234400D02*
X143018100Y-145415000D01*
X83840000Y-50795000D02*
X82713100Y-50795000D01*
X109860000Y-162570000D02*
X110806300Y-162570000D01*
X57484009Y-124440000D02*
X59095000Y-124440000D01*
X134888400Y-137795000D02*
X136675400Y-139582000D01*
X202184000Y-55880000D02*
X200974200Y-57089800D01*
X117475000Y-118745000D02*
X118237000Y-118745000D01*
X136408100Y-85995000D02*
X117245000Y-85995000D01*
X107315000Y-131603100D02*
X102240000Y-136678100D01*
X106370991Y-162570000D02*
X107320000Y-162570000D01*
X106951300Y-54486800D02*
X110643100Y-50795000D01*
X138583100Y-83820000D02*
X136408100Y-85995000D01*
X60221900Y-124440000D02*
X62761800Y-121900100D01*
X59060000Y-50800000D02*
X57933100Y-50800000D01*
X65558100Y-73655000D02*
X60191900Y-79021200D01*
X43180000Y-137795000D02*
X44129009Y-137795000D01*
X139710000Y-83820000D02*
X138583100Y-83820000D01*
X66685000Y-71115000D02*
X66685000Y-70495000D01*
X43200000Y-162580000D02*
X43200000Y-161453100D01*
X107315000Y-118745000D02*
X107315000Y-119301100D01*
X61630000Y-65440000D02*
X61630000Y-55631000D01*
X80161000Y-53347100D02*
X63913900Y-53347100D01*
X118237000Y-118745000D02*
X123277000Y-113705000D01*
X127856900Y-163696900D02*
X128910000Y-164750000D01*
X44919900Y-202438000D02*
X50038000Y-202438000D01*
X39934100Y-51926900D02*
X36230000Y-55631000D01*
X63591500Y-86938500D02*
X61635000Y-88895000D01*
X62761800Y-121900100D02*
X65588100Y-121900100D01*
X33025000Y-83820000D02*
X34151900Y-83820000D01*
X142290000Y-55626000D02*
X144109800Y-53806200D01*
X82703100Y-83820000D02*
X79584700Y-86938400D01*
X107315000Y-117331900D02*
X107315000Y-118745000D01*
X48280000Y-170200000D02*
X48280000Y-169073100D01*
X168920000Y-50795000D02*
X167793100Y-50795000D01*
X48280000Y-169073100D02*
X43200000Y-163993100D01*
X59065000Y-82969900D02*
X59346800Y-82688100D01*
X82713100Y-50795000D02*
X80161000Y-53347100D01*
X117245000Y-85995000D02*
X114340000Y-88900000D01*
X59095000Y-124440000D02*
X60221900Y-124440000D01*
X57933100Y-50800000D02*
X56806200Y-51926900D01*
X60191900Y-81843000D02*
X59346800Y-82688100D01*
X114340000Y-55626000D02*
X115529800Y-54436200D01*
X136675400Y-139582000D02*
X137365700Y-139582000D01*
X63591500Y-86938400D02*
X63591500Y-86938500D01*
X60191900Y-79021200D02*
X60191900Y-81843000D01*
X107315000Y-118745000D02*
X109855000Y-118745000D01*
X86410000Y-55626000D02*
X87549200Y-54486800D01*
X34151900Y-83820000D02*
X35283800Y-82688100D01*
X102240000Y-137805000D02*
X102240000Y-136678100D01*
X137365700Y-139582000D02*
X143018100Y-145234400D01*
X43688000Y-202443000D02*
X44914900Y-202443000D01*
X110633100Y-83820000D02*
X106683500Y-87769600D01*
X111770000Y-50795000D02*
X110643100Y-50795000D01*
X103085200Y-162570000D02*
X104216700Y-161438500D01*
X111760000Y-83820000D02*
X110633100Y-83820000D01*
X66685000Y-73655000D02*
X65558100Y-73655000D01*
X110806300Y-162570000D02*
X111933200Y-163696900D01*
X144109800Y-53806200D02*
X164781900Y-53806200D01*
X87535400Y-87769600D02*
X86400000Y-88905000D01*
X134946900Y-54436200D02*
X138583100Y-50800000D01*
X87549200Y-54486800D02*
X106951300Y-54486800D01*
X123277000Y-113705000D02*
X128905000Y-113705000D01*
X56806200Y-51926900D02*
X39934100Y-51926900D01*
X59065000Y-83815000D02*
X59065000Y-82969900D01*
X50820000Y-170200000D02*
X53360000Y-170200000D01*
X200974200Y-57089800D02*
X173223000Y-57089800D01*
X39246600Y-157499700D02*
X43200000Y-161453100D01*
X143018100Y-145415000D02*
X144145000Y-145415000D01*
X83830000Y-83820000D02*
X82703100Y-83820000D01*
X44129009Y-137795000D02*
X57484009Y-124440000D01*
X35283800Y-82688100D02*
X59346800Y-82688100D01*
X66685000Y-70495000D02*
X61630000Y-65440000D01*
X43200000Y-163993100D02*
X43200000Y-162580000D01*
X111933200Y-163696900D02*
X127856900Y-163696900D01*
X102240000Y-162570000D02*
X103085200Y-162570000D01*
X44914900Y-202443000D02*
X44919900Y-202438000D01*
X164781900Y-53806200D02*
X167793100Y-50795000D01*
X63913900Y-53347100D02*
X61630000Y-55631000D01*
X38095000Y-140365000D02*
X39246600Y-141516600D01*
X102235000Y-111125000D02*
X102235000Y-112251900D01*
X133985000Y-137795000D02*
X134888400Y-137795000D01*
X39246600Y-141516600D02*
X39246600Y-157499700D01*
X65588100Y-121900100D02*
X65588100Y-121900000D01*
X106683500Y-87769600D02*
X87535400Y-87769600D01*
X115529800Y-54436200D02*
X134946900Y-54436200D01*
X104216700Y-161438500D02*
X105239491Y-161438500D01*
X102235000Y-112251900D02*
X107315000Y-117331900D01*
X66715000Y-121900000D02*
X65588100Y-121900000D01*
X79584700Y-86938400D02*
X63591500Y-86938400D01*
%TO.N,A0*%
X168920000Y-43175000D02*
X168920000Y-42281600D01*
X168920000Y-35555000D02*
X170046900Y-35555000D01*
X171173800Y-36681900D02*
X170046900Y-35555000D01*
X168920000Y-42281600D02*
X171173800Y-40027800D01*
X198654300Y-35560000D02*
X197532400Y-36681900D01*
X199644000Y-35560000D02*
X198654300Y-35560000D01*
X171173800Y-40027800D02*
X171173800Y-36681900D01*
X197532400Y-36681900D02*
X171173800Y-36681900D01*
%TO.N,A1*%
X199086600Y-36736900D02*
X195188500Y-40635000D01*
X202184000Y-35560000D02*
X201007100Y-36736900D01*
X195188500Y-40635000D02*
X176540000Y-40635000D01*
X201007100Y-36736900D02*
X199086600Y-36736900D01*
%TO.N,A2*%
X168920000Y-60305000D02*
X168920000Y-68575000D01*
X172750000Y-56475000D02*
X168920000Y-60305000D01*
X172750000Y-55221700D02*
X172750000Y-56475000D01*
X173516100Y-54455600D02*
X172750000Y-55221700D01*
X199644000Y-38235300D02*
X183423700Y-54455600D01*
X199644000Y-38100000D02*
X199644000Y-38235300D01*
X183423700Y-54455600D02*
X173516100Y-54455600D01*
%TO.N,A5*%
X169744900Y-72385000D02*
X182439900Y-59690000D01*
X202689800Y-57056900D02*
X203387200Y-56359500D01*
X200907100Y-58854300D02*
X200907100Y-58017900D01*
X147330000Y-73660000D02*
X148456900Y-73660000D01*
X182439900Y-59690000D02*
X200071400Y-59690000D01*
X200907100Y-58017900D02*
X201868100Y-57056900D01*
X202184000Y-41449100D02*
X202184000Y-40640000D01*
X201868100Y-57056900D02*
X202689800Y-57056900D01*
X148456900Y-73660000D02*
X148516400Y-73719500D01*
X200071400Y-59690000D02*
X200907100Y-58854300D01*
X203387200Y-42652300D02*
X202184000Y-41449100D01*
X148516400Y-73719500D02*
X149664600Y-73719500D01*
X150999100Y-72385000D02*
X169744900Y-72385000D01*
X149664600Y-73719500D02*
X150999100Y-72385000D01*
X203387200Y-56359500D02*
X203387200Y-42652300D01*
%TO.N,B0*%
X199644000Y-43180000D02*
X200152000Y-42672000D01*
X200819000Y-40326000D02*
X201775000Y-39370000D01*
X200130701Y-42650701D02*
X200130701Y-41815000D01*
X200130701Y-41815000D02*
X200819000Y-41126701D01*
X203363000Y-38607200D02*
X203363000Y-34999300D01*
X201775000Y-39370000D02*
X202600200Y-39370000D01*
X202600200Y-39370000D02*
X203363000Y-38607200D01*
X203363000Y-34999300D02*
X201842200Y-33478500D01*
X201842200Y-33478500D02*
X114973400Y-33478500D01*
X200819000Y-41126701D02*
X200819000Y-40326000D01*
X112896900Y-35555000D02*
X111770000Y-35555000D01*
X114973400Y-33478500D02*
X112896900Y-35555000D01*
X200152000Y-42672000D02*
X200130701Y-42650701D01*
%TO.N,B1*%
X121643800Y-39508100D02*
X159343300Y-39508100D01*
X120516900Y-40635000D02*
X121643800Y-39508100D01*
X119390000Y-40635000D02*
X120516900Y-40635000D01*
X159343300Y-39508100D02*
X163758800Y-35092600D01*
%TO.N,B2*%
X112886900Y-76200000D02*
X115221400Y-76200000D01*
X119031300Y-72390000D02*
X121595400Y-72390000D01*
X119031300Y-72390100D02*
X119031300Y-72390000D01*
X115221400Y-76200000D02*
X119031300Y-72390100D01*
X111760000Y-76200000D02*
X112886900Y-76200000D01*
%TO.N,B4*%
X119846800Y-67453100D02*
X87782800Y-67453100D01*
X170484700Y-72323900D02*
X170484700Y-73691800D01*
X127235100Y-74841400D02*
X119846800Y-67453100D01*
X169335100Y-74841400D02*
X127235100Y-74841400D01*
X87782800Y-67453100D02*
X86369300Y-68866600D01*
X170484700Y-73691800D02*
X169335100Y-74841400D01*
X86369300Y-68866600D02*
X86082700Y-68580000D01*
X182385600Y-60423000D02*
X170484700Y-72323900D01*
X184463100Y-60423000D02*
X182385600Y-60423000D01*
X86082700Y-68580000D02*
X84956900Y-68580000D01*
X83830000Y-68580000D02*
X84956900Y-68580000D01*
%TO.N,B5*%
X187081700Y-61494500D02*
X181991000Y-61494500D01*
X171447100Y-72038400D02*
X171447100Y-75309800D01*
X91450000Y-81280000D02*
X92576900Y-81280000D01*
X171447100Y-75309800D02*
X169213000Y-77543900D01*
X96313000Y-77543900D02*
X92576900Y-81280000D01*
X181991000Y-61494500D02*
X171447100Y-72038400D01*
X169213000Y-77543900D02*
X96313000Y-77543900D01*
%TO.N,+{slash}-*%
X152543500Y-153645200D02*
X146070500Y-160118200D01*
X115889009Y-170190000D02*
X114940000Y-170190000D01*
X130686900Y-164575100D02*
X129262000Y-166000000D01*
X134668300Y-160118200D02*
X130686900Y-164099600D01*
X129262000Y-166000000D02*
X120079009Y-166000000D01*
X120079009Y-166000000D02*
X115889009Y-170190000D01*
X146070500Y-160118200D02*
X134668300Y-160118200D01*
X130686900Y-164099600D02*
X130686900Y-164575100D01*
%TO.N,A{slash}L*%
X138583100Y-35560000D02*
X139710000Y-35560000D01*
X140836900Y-45720000D02*
X143376900Y-48260000D01*
X59095000Y-111740000D02*
X59095000Y-111319600D01*
X112886900Y-78740000D02*
X114077500Y-79930600D01*
X59095000Y-111319600D02*
X65527000Y-104887600D01*
X38107200Y-111760000D02*
X33020000Y-111760000D01*
X82698100Y-78735000D02*
X82703100Y-78740000D01*
X118253100Y-71120000D02*
X113723600Y-71120000D01*
X110633100Y-78740000D02*
X106962600Y-82410500D01*
X40640000Y-111760000D02*
X40640000Y-111994000D01*
X41183500Y-119360000D02*
X59095000Y-119360000D01*
X176540000Y-38988400D02*
X176540000Y-38095000D01*
X40640000Y-119380000D02*
X39490600Y-118230600D01*
X66685000Y-78735000D02*
X82698100Y-78735000D01*
X143376900Y-48260000D02*
X146203100Y-48260000D01*
X39490600Y-118230600D02*
X39490600Y-113143400D01*
X119390000Y-38095000D02*
X118243600Y-36948600D01*
X40640000Y-118816500D02*
X41183500Y-119360000D01*
X118243600Y-35107700D02*
X118923500Y-34427800D01*
X112307400Y-78740000D02*
X111760000Y-78740000D01*
X108103100Y-43175000D02*
X91460000Y-43175000D01*
X118923500Y-34427800D02*
X137450900Y-34427800D01*
X119380000Y-71120000D02*
X118253100Y-71120000D01*
X202184000Y-50800000D02*
X200914000Y-49530000D01*
X111760000Y-78740000D02*
X110633100Y-78740000D01*
X110643100Y-45715000D02*
X108103100Y-43175000D01*
X147330000Y-48260000D02*
X146203100Y-48260000D01*
X106962600Y-82410500D02*
X88627400Y-82410500D01*
X83830000Y-78740000D02*
X82703100Y-78740000D01*
X83830000Y-78740000D02*
X84956900Y-78740000D01*
X83840000Y-40635000D02*
X84966900Y-40635000D01*
X169813400Y-45715000D02*
X176540000Y-38988400D01*
X200914000Y-49530000D02*
X189409500Y-49530000D01*
X137450900Y-34427800D02*
X138583100Y-35560000D01*
X40640000Y-119380000D02*
X40640000Y-118816500D01*
X114077500Y-79930600D02*
X137392500Y-79930600D01*
X39490600Y-113143400D02*
X38107200Y-111760000D01*
X88627400Y-82410500D02*
X84956900Y-78740000D01*
X139710000Y-45720000D02*
X140836900Y-45720000D01*
X91460000Y-43175000D02*
X87506900Y-43175000D01*
X137392500Y-79930600D02*
X138583100Y-78740000D01*
X139710000Y-78740000D02*
X138583100Y-78740000D01*
X87506900Y-43175000D02*
X84966900Y-40635000D01*
X168920000Y-45715000D02*
X169813400Y-45715000D01*
X112307400Y-78740000D02*
X112886900Y-78740000D01*
X40640000Y-111994000D02*
X39490600Y-113143400D01*
X118243600Y-36948600D02*
X118243600Y-35107700D01*
X176540000Y-71115000D02*
X168920000Y-78735000D01*
X111770000Y-45715000D02*
X110643100Y-45715000D01*
%TO.N,CLR*%
X55880000Y-145415000D02*
X56769000Y-145415000D01*
X59505300Y-137414000D02*
X88008200Y-108911100D01*
X56900400Y-145288000D02*
X58789100Y-143399300D01*
X126461900Y-103939900D02*
X152525600Y-103939900D01*
X173920500Y-82545000D02*
X176902200Y-82545000D01*
X58801000Y-137414000D02*
X59505300Y-137414000D01*
X58420000Y-137795000D02*
X58801000Y-137414000D01*
X56769000Y-145415000D02*
X56896000Y-145288000D01*
X191902900Y-67544300D02*
X191902900Y-66260900D01*
X58789100Y-143399300D02*
X59706400Y-143399300D01*
X88008200Y-108911100D02*
X121490700Y-108911100D01*
X176902200Y-82545000D02*
X191902900Y-67544300D01*
X152525600Y-103939900D02*
X173920500Y-82545000D01*
X121490700Y-108911100D02*
X126461900Y-103939900D01*
X56896000Y-145288000D02*
X56900400Y-145288000D01*
%TO.N,CLK*%
X85814800Y-108459200D02*
X65273200Y-129000800D01*
X56104600Y-128356000D02*
X64628400Y-128356000D01*
X175633000Y-80005000D02*
X165606100Y-90031900D01*
X44548100Y-143897700D02*
X46990000Y-141455800D01*
X59129000Y-136124400D02*
X65273200Y-129980200D01*
X48691891Y-146574100D02*
X45235700Y-146574100D01*
X44548100Y-145886500D02*
X44548100Y-143897700D01*
X65273200Y-129980200D02*
X65273200Y-129000800D01*
X49850991Y-145415000D02*
X48691891Y-146574100D01*
X46990000Y-141455800D02*
X46990000Y-137470600D01*
X55899600Y-136124400D02*
X59129000Y-136124400D01*
X64628400Y-128356000D02*
X65273200Y-129000800D01*
X53340000Y-137795000D02*
X54229000Y-137795000D01*
X50800000Y-145415000D02*
X49850991Y-145415000D01*
X195280700Y-61842600D02*
X177118300Y-80005000D01*
X121303500Y-108459200D02*
X85814800Y-108459200D01*
X54229000Y-137795000D02*
X55899600Y-136124400D01*
X139730800Y-90031900D02*
X121303500Y-108459200D01*
X177118300Y-80005000D02*
X175633000Y-80005000D01*
X45235700Y-146574100D02*
X44548100Y-145886500D01*
X165606100Y-90031900D02*
X139730800Y-90031900D01*
X46990000Y-137470600D02*
X56104600Y-128356000D01*
%TO.N,Y0*%
X114940000Y-137569800D02*
X114940000Y-137805000D01*
X141807200Y-133600600D02*
X127992000Y-133600600D01*
X118909200Y-133600600D02*
X114940000Y-137569800D01*
X173553800Y-101854000D02*
X141807200Y-133600600D01*
X127992000Y-133600600D02*
X118909200Y-133600600D01*
X198467100Y-101854000D02*
X173553800Y-101854000D01*
X199644000Y-101854000D02*
X198467100Y-101854000D01*
%TO.N,Y1*%
X113333100Y-137805000D02*
X118517000Y-132621100D01*
X174103700Y-100664900D02*
X142147500Y-132621100D01*
X142147500Y-132621100D02*
X127507900Y-132621100D01*
X200627100Y-100664900D02*
X174103700Y-100664900D01*
X112400000Y-137805000D02*
X113333100Y-137805000D01*
X201816200Y-101854000D02*
X200627100Y-100664900D01*
X202184000Y-101854000D02*
X201816200Y-101854000D01*
X118517000Y-132621100D02*
X127507900Y-132621100D01*
%TO.N,Y2*%
X118828800Y-134384400D02*
X148770900Y-134384400D01*
X116074300Y-137138900D02*
X118828800Y-134384400D01*
X115470400Y-138936300D02*
X116074300Y-138332400D01*
X199644000Y-104394000D02*
X178761300Y-104394000D01*
X178761300Y-104394000D02*
X150835400Y-132319900D01*
X148770900Y-134384400D02*
X150835400Y-132319900D01*
X108165200Y-137805000D02*
X109296500Y-138936300D01*
X116074300Y-138332400D02*
X116074300Y-137138900D01*
X107320000Y-137805000D02*
X108165200Y-137805000D01*
X109296500Y-138936300D02*
X115470400Y-138936300D01*
%TO.N,Y3*%
X107259600Y-139391100D02*
X118880900Y-139391100D01*
X104780000Y-137805000D02*
X105673500Y-137805000D01*
X178664000Y-105570900D02*
X148344900Y-135890000D01*
X201375000Y-104394000D02*
X200198100Y-105570900D01*
X105673500Y-137805000D02*
X107259600Y-139391100D01*
X144923100Y-135890000D02*
X144145000Y-136668100D01*
X200198100Y-105570900D02*
X178664000Y-105570900D01*
X142313200Y-134836300D02*
X144145000Y-136668100D01*
X123435700Y-134836300D02*
X142313200Y-134836300D01*
X144145000Y-137795000D02*
X144145000Y-136668100D01*
X148344900Y-135890000D02*
X144923100Y-135890000D01*
X202184000Y-104394000D02*
X201375000Y-104394000D01*
X118880900Y-139391100D02*
X123435700Y-134836300D01*
%TO.N,Y4*%
X102240000Y-145425000D02*
X103189009Y-145425000D01*
X147955000Y-138135700D02*
X147955000Y-137001300D01*
X135384400Y-136654400D02*
X136525000Y-137795000D01*
X178022300Y-106934000D02*
X199644000Y-106934000D01*
X147955000Y-137001300D02*
X178022300Y-106934000D01*
X146645100Y-139445600D02*
X147955000Y-138135700D01*
X125462800Y-136654400D02*
X135384400Y-136654400D01*
X139124609Y-139445600D02*
X146645100Y-139445600D01*
X136906000Y-138176000D02*
X137855009Y-138176000D01*
X136525000Y-137795000D02*
X136906000Y-138176000D01*
X117819100Y-144298100D02*
X125462800Y-136654400D01*
X137855009Y-138176000D02*
X139124609Y-139445600D01*
X104315909Y-144298100D02*
X117819100Y-144298100D01*
X103189009Y-145425000D02*
X104315909Y-144298100D01*
%TO.N,Y5*%
X136050700Y-146576500D02*
X135111900Y-145637700D01*
X131721200Y-146551900D02*
X132858100Y-145415000D01*
X135111900Y-145637700D02*
X135111900Y-145415000D01*
X145342700Y-145112500D02*
X145342700Y-145864600D01*
X105625100Y-145425000D02*
X106752000Y-146551900D01*
X106752000Y-146551900D02*
X131721200Y-146551900D01*
X200501000Y-108109000D02*
X182346200Y-108109000D01*
X182346200Y-108109000D02*
X145342700Y-145112500D01*
X202184000Y-106934000D02*
X201168000Y-107950000D01*
X201168000Y-107950000D02*
X200660000Y-107950000D01*
X104780000Y-145425000D02*
X105625100Y-145425000D01*
X144630800Y-146576500D02*
X136050700Y-146576500D01*
X200660000Y-107950000D02*
X200501000Y-108109000D01*
X145342700Y-145864600D02*
X144630800Y-146576500D01*
X135111900Y-145415000D02*
X133985000Y-145415000D01*
X132858100Y-145415000D02*
X133985000Y-145415000D01*
%TO.N,ZFR*%
X62874700Y-141582800D02*
X68800400Y-147508500D01*
X52939000Y-141582800D02*
X62874700Y-141582800D01*
X186759700Y-109474000D02*
X199644000Y-109474000D01*
X49151200Y-137795000D02*
X52939000Y-141582800D01*
X48260000Y-137795000D02*
X49151200Y-137795000D01*
X68800400Y-147508500D02*
X148725200Y-147508500D01*
X148725200Y-147508500D02*
X186759700Y-109474000D01*
%TO.N,OFR*%
X46565200Y-145415000D02*
X45720000Y-145415000D01*
X197218000Y-110744000D02*
X159988600Y-147973400D01*
X200052800Y-110744000D02*
X197218000Y-110744000D01*
X201322800Y-109474000D02*
X200052800Y-110744000D01*
X202184000Y-109474000D02*
X201322800Y-109474000D01*
X68626100Y-147973400D02*
X62873200Y-142220500D01*
X62873200Y-142220500D02*
X49759700Y-142220500D01*
X49759700Y-142220500D02*
X46565200Y-145415000D01*
X159988600Y-147973400D02*
X68626100Y-147973400D01*
%TO.N,SFR*%
X49470600Y-164897500D02*
X48280000Y-163706900D01*
X48280000Y-162580000D02*
X48280000Y-163706900D01*
X142925700Y-152634500D02*
X138715200Y-156845000D01*
X49470600Y-180912400D02*
X49470600Y-164897500D01*
X55755800Y-155997600D02*
X49193400Y-162560000D01*
X199644000Y-112014000D02*
X198467100Y-112014000D01*
X43688000Y-186695000D02*
X49470600Y-180912400D01*
X128001000Y-155997600D02*
X55755800Y-155997600D01*
X128848400Y-156845000D02*
X128001000Y-155997600D01*
X138715200Y-156845000D02*
X128848400Y-156845000D01*
X48300000Y-162560000D02*
X48280000Y-162580000D01*
X49193400Y-162560000D02*
X48300000Y-162560000D01*
X198467100Y-112014000D02*
X157846600Y-152634500D01*
X157846600Y-152634500D02*
X142925700Y-152634500D01*
%TO.N,Net-(U1-Pad2)*%
X140836900Y-55780300D02*
X156171600Y-71115000D01*
X139710000Y-48260000D02*
X139710000Y-49105100D01*
X139710000Y-49105100D02*
X140836900Y-50232000D01*
X156171600Y-71115000D02*
X168920000Y-71115000D01*
X140836900Y-50232000D02*
X140836900Y-55780300D01*
%TO.N,AA2*%
X152890000Y-112250000D02*
X155934200Y-109205800D01*
X147320000Y-118110000D02*
X147320000Y-117258300D01*
X155934200Y-109205800D02*
X155934200Y-108802300D01*
X152328300Y-112250000D02*
X152890000Y-112250000D01*
X146685000Y-118745000D02*
X147320000Y-118110000D01*
X147320000Y-117258300D02*
X152328300Y-112250000D01*
%TO.N,LA2*%
X143644000Y-82550000D02*
X153727300Y-82550000D01*
X134246300Y-91947700D02*
X143644000Y-82550000D01*
X52858200Y-89146700D02*
X55659200Y-91947700D01*
X153727300Y-82550000D02*
X155002300Y-81275000D01*
X55659200Y-91947700D02*
X134246300Y-91947700D01*
X155002300Y-81275000D02*
X168920000Y-81275000D01*
%TO.N,AA3*%
X176540000Y-83815000D02*
X176535000Y-83815000D01*
X175895000Y-85353400D02*
X172616900Y-88631500D01*
X171956800Y-90026900D02*
X170775600Y-90026900D01*
X175895000Y-84455000D02*
X175895000Y-85353400D01*
X172616900Y-88631500D02*
X172616900Y-89366800D01*
X150625700Y-110176800D02*
X150625700Y-112722700D01*
X144909100Y-117587300D02*
X143607900Y-117587300D01*
X143607900Y-117587300D02*
X142450200Y-118745000D01*
X142450200Y-118745000D02*
X141605000Y-118745000D01*
X145010800Y-117689000D02*
X144909100Y-117587300D01*
X150625700Y-112722700D02*
X145659400Y-117689000D01*
X176535000Y-83815000D02*
X175895000Y-84455000D01*
X170775600Y-90026900D02*
X150625700Y-110176800D01*
X145659400Y-117689000D02*
X145010800Y-117689000D01*
X172616900Y-89366800D02*
X171956800Y-90026900D01*
%TO.N,Net-(U1-Pad10)*%
X155840000Y-82042000D02*
X156265800Y-82467800D01*
X156265800Y-82467800D02*
X171479250Y-82467800D01*
X171479250Y-82467800D02*
X175212050Y-78735000D01*
X175212050Y-78735000D02*
X176540000Y-78735000D01*
%TO.N,LA3*%
X172725000Y-80005000D02*
X176535000Y-76195000D01*
X53233100Y-86618100D02*
X58073500Y-91458500D01*
X176535000Y-76195000D02*
X176540000Y-76195000D01*
X145275500Y-80005000D02*
X172725000Y-80005000D01*
X58073500Y-91458500D02*
X133822000Y-91458500D01*
X133822000Y-91458500D02*
X145275500Y-80005000D01*
%TO.N,Net-(U2A-B1)*%
X148680300Y-72390000D02*
X149282900Y-72992600D01*
X84327500Y-49632700D02*
X85002500Y-50307700D01*
X85002500Y-52332900D02*
X84796400Y-52539000D01*
X61559600Y-49632700D02*
X84327500Y-49632700D01*
X85002500Y-50307700D02*
X85002500Y-52332900D01*
X94496700Y-65973000D02*
X121240600Y-65973000D01*
X84796400Y-56272700D02*
X94496700Y-65973000D01*
X84796400Y-52539000D02*
X84796400Y-56272700D01*
X127657600Y-72390000D02*
X148680300Y-72390000D01*
X121240600Y-65973000D02*
X127657600Y-72390000D01*
X59060000Y-48260000D02*
X60186900Y-48260000D01*
X60186900Y-48260000D02*
X61559600Y-49632700D01*
%TO.N,AA1*%
X174687500Y-50795000D02*
X167257500Y-58225000D01*
X176540000Y-50795000D02*
X174687500Y-50795000D01*
%TO.N,AY0*%
X145326600Y-113433500D02*
X145326600Y-116957700D01*
X144145000Y-112251900D02*
X145326600Y-113433500D01*
X144145000Y-111125000D02*
X144145000Y-112251900D01*
%TO.N,AA0*%
X148476000Y-105099200D02*
X149407000Y-105099200D01*
X142450200Y-111125000D02*
X148476000Y-105099200D01*
X141605000Y-111125000D02*
X142450200Y-111125000D01*
%TO.N,Net-(U2A-B0)*%
X85491300Y-48307100D02*
X84169200Y-46985000D01*
X94334700Y-64680400D02*
X93862300Y-64680400D01*
X93862300Y-64680400D02*
X85279800Y-56097900D01*
X84169200Y-46985000D02*
X75998000Y-46985000D01*
X75998000Y-46985000D02*
X70923000Y-41910000D01*
X59060000Y-40640000D02*
X60186900Y-40640000D01*
X70923000Y-41910000D02*
X61456900Y-41910000D01*
X61456900Y-41910000D02*
X60186900Y-40640000D01*
X85279800Y-55045000D02*
X85491300Y-54833500D01*
X85279800Y-56097900D02*
X85279800Y-55045000D01*
X85491300Y-54833500D02*
X85491300Y-48307100D01*
%TO.N,Net-(U2A-CIN)*%
X135398100Y-110893900D02*
X128896000Y-104391800D01*
X59060000Y-45720000D02*
X66680000Y-45720000D01*
X136525000Y-111125000D02*
X135398100Y-111125000D01*
X135398100Y-111125000D02*
X135398100Y-110893900D01*
X122976400Y-109362900D02*
X122976400Y-109363000D01*
X59060000Y-38100000D02*
X66680000Y-38100000D01*
X109860000Y-170190000D02*
X110764100Y-170190000D01*
X127947500Y-104391800D02*
X122976400Y-109362900D01*
X128896000Y-104391800D02*
X127947500Y-104391800D01*
X122976400Y-109363000D02*
X91271600Y-109363000D01*
X110764100Y-170190000D02*
X116521900Y-164432200D01*
X91271600Y-109363000D02*
X90993400Y-109641200D01*
X116521900Y-164432200D02*
X122263700Y-164432200D01*
%TO.N,Net-(U2A-COUT)*%
X105901900Y-111125000D02*
X105901900Y-111358500D01*
X109169200Y-114625800D02*
X112429800Y-114625800D01*
X114935000Y-188595000D02*
X114935000Y-187468100D01*
X121765300Y-180637800D02*
X114935000Y-187468100D01*
X116205000Y-119140800D02*
X116979700Y-119915500D01*
X116979700Y-119915500D02*
X131687600Y-119915500D01*
X131687600Y-119915500D02*
X132858100Y-118745000D01*
X133985000Y-118745000D02*
X132858100Y-118745000D01*
X116205000Y-118401000D02*
X116205000Y-119140800D01*
X112429800Y-114625800D02*
X116205000Y-118401000D01*
X121765300Y-180621900D02*
X121765300Y-180637800D01*
X105901900Y-111358500D02*
X109169200Y-114625800D01*
X104775000Y-111125000D02*
X105901900Y-111125000D01*
%TO.N,AY3*%
X141339700Y-122714500D02*
X145772000Y-122714500D01*
X136525000Y-118745000D02*
X137370200Y-118745000D01*
X137370200Y-118745000D02*
X141339700Y-122714500D01*
%TO.N,Net-(U2A-B3)*%
X111624300Y-112536000D02*
X110261400Y-113898900D01*
X132856000Y-112536000D02*
X111624300Y-112536000D01*
X139065000Y-118745000D02*
X132856000Y-112536000D01*
%TO.N,Net-(U2A-B2)*%
X117991500Y-123441400D02*
X113808100Y-119258000D01*
X146175700Y-123441400D02*
X117991500Y-123441400D01*
X112676600Y-117338900D02*
X108071500Y-117338900D01*
X113808100Y-118470400D02*
X112676600Y-117338900D01*
X113808100Y-119258000D02*
X113808100Y-118470400D01*
X149225000Y-119871900D02*
X149225000Y-120392100D01*
X149225000Y-118745000D02*
X149225000Y-119871900D01*
X149225000Y-120392100D02*
X146175700Y-123441400D01*
%TO.N,Net-(U3-Pad2)*%
X146126700Y-36965200D02*
X160794000Y-36965200D01*
X144991900Y-38100000D02*
X146126700Y-36965200D01*
X139710000Y-38100000D02*
X144991900Y-38100000D01*
X160794000Y-36965200D02*
X160822200Y-36993400D01*
%TO.N,Net-(U3-Pad4)*%
X139710000Y-43180000D02*
X140836900Y-43180000D01*
X175413100Y-45715000D02*
X171743100Y-49385000D01*
X149769400Y-44450000D02*
X142106900Y-44450000D01*
X142106900Y-44450000D02*
X140836900Y-43180000D01*
X171743100Y-49385000D02*
X154704400Y-49385000D01*
X154704400Y-49385000D02*
X149769400Y-44450000D01*
X176540000Y-45715000D02*
X175413100Y-45715000D01*
%TO.N,Net-(U3-Pad10)*%
X143746000Y-46318100D02*
X145605000Y-46318100D01*
X146203100Y-45720000D02*
X147330000Y-45720000D01*
X145605000Y-46318100D02*
X146203100Y-45720000D01*
%TO.N,AA4*%
X46144500Y-49457600D02*
X42406900Y-45720000D01*
X60186900Y-66400100D02*
X60186900Y-50283200D01*
X93098200Y-118655200D02*
X96921500Y-114831900D01*
X101079600Y-111374100D02*
X101079600Y-110676900D01*
X101763000Y-109993500D02*
X109287000Y-109993500D01*
X123369100Y-109998100D02*
X128248500Y-105118700D01*
X110418500Y-111125000D02*
X111545400Y-109998100D01*
X60186900Y-50283200D02*
X59361300Y-49457600D01*
X65090300Y-71303500D02*
X60186900Y-66400100D01*
X93098200Y-120550700D02*
X93098200Y-118655200D01*
X96921500Y-114831900D02*
X97621800Y-114831900D01*
X111545400Y-109998100D02*
X123369100Y-109998100D01*
X109287000Y-109993500D02*
X110418500Y-111125000D01*
X109855000Y-111125000D02*
X110418500Y-111125000D01*
X101079600Y-110676900D02*
X101763000Y-109993500D01*
X97621800Y-114831900D02*
X101079600Y-111374100D01*
X41280000Y-45720000D02*
X42406900Y-45720000D01*
X59361300Y-49457600D02*
X46144500Y-49457600D01*
%TO.N,LA4*%
X59760100Y-90970900D02*
X57318500Y-88529300D01*
X138583100Y-81280000D02*
X137240700Y-82622400D01*
X139710000Y-81280000D02*
X138583100Y-81280000D01*
X137240700Y-82622400D02*
X115753700Y-82622400D01*
X107405200Y-90970900D02*
X59760100Y-90970900D01*
X115753700Y-82622400D02*
X107405200Y-90970900D01*
%TO.N,AA5*%
X146240000Y-84910000D02*
X147330000Y-83820000D01*
X120376800Y-107732300D02*
X143199100Y-84910000D01*
X115847300Y-107732300D02*
X120376800Y-107732300D01*
X143199100Y-84910000D02*
X146240000Y-84910000D01*
%TO.N,LA5*%
X62885000Y-93286400D02*
X133769800Y-93286400D01*
X143749200Y-83307000D02*
X145827800Y-83307000D01*
X133769800Y-93286400D02*
X143749200Y-83307000D01*
%TO.N,AY5*%
X129155800Y-138045800D02*
X125121600Y-138045800D01*
X136525000Y-145415000D02*
X129155800Y-138045800D01*
X114066200Y-156766200D02*
X121945700Y-156766200D01*
X104780000Y-170190000D02*
X108590000Y-166380000D01*
X108590000Y-162242400D02*
X114066200Y-156766200D01*
X108590000Y-166380000D02*
X108590000Y-162242400D01*
%TO.N,AY4*%
X124623200Y-135746800D02*
X138607791Y-135746800D01*
X138607791Y-135746800D02*
X140655991Y-137795000D01*
X140655991Y-137795000D02*
X141605000Y-137795000D01*
X124348300Y-136021700D02*
X124623200Y-135746800D01*
%TO.N,Net-(U5A-B0)*%
X109855000Y-188595000D02*
X109855000Y-187468100D01*
X40153100Y-48260000D02*
X39082300Y-47189200D01*
X66764900Y-104443600D02*
X89576200Y-104443600D01*
X39082300Y-47189200D02*
X34869500Y-47189200D01*
X41280000Y-48260000D02*
X40153100Y-48260000D01*
X53869100Y-91547800D02*
X66764900Y-104443600D01*
X109855000Y-187468100D02*
X121211500Y-176111600D01*
%TO.N,Net-(U5A-S2)*%
X41280000Y-40640000D02*
X42406900Y-40640000D01*
X63393000Y-46990000D02*
X65067500Y-48664500D01*
X42406900Y-40640000D02*
X48756900Y-46990000D01*
X48756900Y-46990000D02*
X63393000Y-46990000D01*
%TO.N,LA0*%
X33025000Y-66045000D02*
X32525700Y-65545700D01*
X91136300Y-41905000D02*
X161443100Y-41905000D01*
X37962900Y-42359600D02*
X40824100Y-39498400D01*
X161443100Y-41905000D02*
X167793100Y-48255000D01*
X32525700Y-65545700D02*
X32525700Y-47738800D01*
X34035700Y-46990000D02*
X37962900Y-43062800D01*
X167793100Y-48255000D02*
X168920000Y-48255000D01*
X40824100Y-39498400D02*
X88729700Y-39498400D01*
X32525700Y-47738800D02*
X33274500Y-46990000D01*
X33025000Y-68580000D02*
X33025000Y-66045000D01*
X37962900Y-43062800D02*
X37962900Y-42359600D01*
X33274500Y-46990000D02*
X34035700Y-46990000D01*
X88729700Y-39498400D02*
X91136300Y-41905000D01*
%TO.N,LA1*%
X33999700Y-41910000D02*
X33267200Y-41910000D01*
X34796700Y-41113000D02*
X33999700Y-41910000D01*
X115409000Y-36752700D02*
X110716900Y-36752700D01*
X110716900Y-36752700D02*
X107889600Y-33925400D01*
X107889600Y-33925400D02*
X41268100Y-33925400D01*
X118187300Y-33974400D02*
X115409000Y-36752700D01*
X33267200Y-41910000D02*
X31609600Y-43567600D01*
X176540000Y-43175000D02*
X175413100Y-43175000D01*
X164707500Y-43102000D02*
X164707500Y-34967100D01*
X164707500Y-34967100D02*
X163714800Y-33974400D01*
X31609600Y-43567600D02*
X31609600Y-44464000D01*
X41268100Y-33925400D02*
X34796700Y-40396800D01*
X175413100Y-43175000D02*
X171746000Y-46842100D01*
X168447600Y-46842100D02*
X164707500Y-43102000D01*
X163714800Y-33974400D02*
X118187300Y-33974400D01*
X171746000Y-46842100D02*
X168447600Y-46842100D01*
X34796700Y-40396800D02*
X34796700Y-41113000D01*
%TO.N,AB0*%
X104435800Y-34427700D02*
X110643100Y-40635000D01*
X111770000Y-40635000D02*
X110643100Y-40635000D01*
X61319200Y-34427700D02*
X104435800Y-34427700D01*
X60186900Y-35560000D02*
X61319200Y-34427700D01*
X59060000Y-35560000D02*
X60186900Y-35560000D01*
%TO.N,AB2*%
X81720700Y-72282400D02*
X109255500Y-72282400D01*
X111760000Y-73660000D02*
X110633100Y-73660000D01*
X80109000Y-70670700D02*
X81720700Y-72282400D01*
X109255500Y-72282400D02*
X110633100Y-73660000D01*
%TO.N,AB3*%
X85602500Y-45850500D02*
X84197000Y-44445000D01*
X92173200Y-53103800D02*
X85602500Y-46533100D01*
X78393900Y-44445000D02*
X74588900Y-40640000D01*
X74588900Y-40640000D02*
X66680000Y-40640000D01*
X85602500Y-46533100D02*
X85602500Y-45850500D01*
X84197000Y-44445000D02*
X78393900Y-44445000D01*
X95994500Y-53103800D02*
X92173200Y-53103800D01*
%TO.N,Net-(U10-Pad10)*%
X98655500Y-46901600D02*
X96264800Y-44510900D01*
X117076500Y-46901600D02*
X98655500Y-46901600D01*
X96264800Y-44510900D02*
X86302800Y-44510900D01*
X118263100Y-45715000D02*
X117076500Y-46901600D01*
X86302800Y-44510900D02*
X84966900Y-43175000D01*
X83840000Y-43175000D02*
X84966900Y-43175000D01*
X119390000Y-45715000D02*
X118263100Y-45715000D01*
%TO.N,Net-(U11-Pad10)*%
X95041200Y-50795000D02*
X97662700Y-53416500D01*
X91460000Y-50795000D02*
X95041200Y-50795000D01*
%TO.N,Net-(U12-Pad2)*%
X89326000Y-46722100D02*
X87781600Y-46722100D01*
X90333100Y-45715000D02*
X89326000Y-46722100D01*
X91460000Y-45715000D02*
X90333100Y-45715000D01*
%TO.N,AB5*%
X90323100Y-83820000D02*
X89196200Y-84946900D01*
X91450000Y-83820000D02*
X90323100Y-83820000D01*
X31401800Y-45703500D02*
X33660000Y-43445300D01*
X61158600Y-90037600D02*
X56489100Y-85368100D01*
X32909300Y-85368100D02*
X31401800Y-83860600D01*
X78294500Y-90037600D02*
X61158600Y-90037600D01*
X33660000Y-43445300D02*
X33660000Y-43180000D01*
X89196200Y-84946900D02*
X83385200Y-84946900D01*
X56489100Y-85368100D02*
X32909300Y-85368100D01*
X31401800Y-83860600D02*
X31401800Y-45703500D01*
X83385200Y-84946900D02*
X78294500Y-90037600D01*
%TO.N,OF*%
X66628200Y-148712100D02*
X62020300Y-144104200D01*
X109860000Y-148712100D02*
X66628200Y-148712100D01*
X54185200Y-145415000D02*
X56927800Y-142672400D01*
X56927800Y-142672400D02*
X60588500Y-142672400D01*
X53340000Y-145415000D02*
X54185200Y-145415000D01*
X60588500Y-142672400D02*
X62020300Y-144104200D01*
%TO.N,Net-(U16-Pad3)*%
X103484000Y-170514700D02*
X103484000Y-169779900D01*
X134366200Y-164258500D02*
X129346600Y-169278100D01*
X142461500Y-164258500D02*
X134366200Y-164258500D01*
X129346600Y-169278100D02*
X121642500Y-169278100D01*
X121642500Y-169278100D02*
X119587700Y-171332900D01*
X103484000Y-169779900D02*
X93509800Y-159805700D01*
X93509800Y-159805700D02*
X92213900Y-159805700D01*
X119587700Y-171332900D02*
X104302200Y-171332900D01*
X104302200Y-171332900D02*
X103484000Y-170514700D01*
X144150000Y-162570000D02*
X142461500Y-164258500D01*
%TO.N,LB0*%
X93274600Y-36963000D02*
X97240600Y-40929000D01*
X31892100Y-69992100D02*
X31892100Y-45852300D01*
X31892100Y-45852300D02*
X33173200Y-44571200D01*
X40745100Y-36963000D02*
X93274600Y-36963000D01*
X32009000Y-70104000D02*
X32004000Y-70104000D01*
X32004000Y-70104000D02*
X31892100Y-69992100D01*
X33173200Y-44571200D02*
X33909900Y-44571200D01*
X33909900Y-44571200D02*
X35330100Y-43151000D01*
X35330100Y-43151000D02*
X35330100Y-42378000D01*
X35330100Y-42378000D02*
X40745100Y-36963000D01*
X33025000Y-71120000D02*
X32009000Y-70104000D01*
%TO.N,LB2*%
X60698800Y-90506700D02*
X82364500Y-90506700D01*
X104995100Y-86918000D02*
X110633100Y-81280000D01*
X85953200Y-86918000D02*
X104995100Y-86918000D01*
X82364500Y-90506700D02*
X85953200Y-86918000D01*
X111760000Y-81280000D02*
X110633100Y-81280000D01*
X52230100Y-86186000D02*
X52524900Y-85891200D01*
X56083300Y-85891200D02*
X60698800Y-90506700D01*
X52524900Y-85891200D02*
X56083300Y-85891200D01*
%TO.N,LB3*%
X66883800Y-72246900D02*
X69471900Y-74835000D01*
X69471900Y-74835000D02*
X115558400Y-74835000D01*
X40645000Y-71120000D02*
X41771900Y-71120000D01*
X115558400Y-74835000D02*
X117574000Y-72819400D01*
X41771900Y-71120000D02*
X42898800Y-72246900D01*
X42898800Y-72246900D02*
X66883800Y-72246900D01*
%TO.N,LB4*%
X65222500Y-80005000D02*
X81428100Y-80005000D01*
X63283000Y-78065500D02*
X65222500Y-80005000D01*
X83830000Y-81280000D02*
X82703100Y-81280000D01*
X81428100Y-80005000D02*
X82703100Y-81280000D01*
%TO.N,LB5*%
X62912800Y-77340500D02*
X61518300Y-78735000D01*
X89182600Y-77340500D02*
X62912800Y-77340500D01*
X90323100Y-76200000D02*
X89182600Y-77340500D01*
X91450000Y-76200000D02*
X90323100Y-76200000D01*
%TO.N,Net-(U13-Pad10)*%
X114935000Y-191572700D02*
X114935000Y-196215000D01*
%TO.N,Net-(U13-Pad13)*%
X107320000Y-170190000D02*
X108215100Y-170190000D01*
X113944000Y-164461100D02*
X114940000Y-164461100D01*
X108215100Y-170190000D02*
X113944000Y-164461100D01*
%TO.N,Net-(U14-Pad3)*%
X148482400Y-162570000D02*
X149230000Y-162570000D01*
X142362700Y-168689700D02*
X148482400Y-162570000D01*
X112395000Y-188595000D02*
X132300300Y-168689700D01*
X132300300Y-168689700D02*
X142362700Y-168689700D01*
%TO.N,Net-(U14-Pad6)*%
X131605700Y-168078500D02*
X140232491Y-168078500D01*
X104775000Y-188595000D02*
X105410000Y-188595000D01*
X129496400Y-170187800D02*
X131605700Y-168078500D01*
X140232491Y-168078500D02*
X145740991Y-162570000D01*
X105410000Y-188595000D02*
X123817200Y-170187800D01*
X145740991Y-162570000D02*
X146690000Y-162570000D01*
X123817200Y-170187800D02*
X129496400Y-170187800D01*
%TO.N,Net-(U14-Pad12)*%
X103362500Y-197342500D02*
X111267500Y-197342500D01*
X102235000Y-196215000D02*
X103362500Y-197342500D01*
X111267500Y-197342500D02*
X112395000Y-196215000D01*
%TO.N,ZF*%
X83825700Y-146725000D02*
X97561700Y-146725000D01*
X57006900Y-138921900D02*
X76022600Y-138921900D01*
X76022600Y-138921900D02*
X83825700Y-146725000D01*
X55880000Y-137795000D02*
X57006900Y-138921900D01*
%TO.N,SF*%
X55900000Y-162580000D02*
X56312400Y-162580000D01*
X63922400Y-170190000D02*
X102240000Y-170190000D01*
X56312400Y-162580000D02*
X63922400Y-170190000D01*
%TO.N,Net-(U15-Pad12)*%
X93136900Y-156734900D02*
X92763400Y-156734900D01*
X104740300Y-168338300D02*
X93136900Y-156734900D01*
X92763400Y-156734900D02*
X92763400Y-156734800D01*
%TO.N,LY0*%
X41095000Y-128604300D02*
X41095000Y-144945500D01*
X33020000Y-114300000D02*
X33020000Y-115249009D01*
X34434600Y-121943900D02*
X41095000Y-128604300D01*
X132767300Y-150168900D02*
X138027700Y-155429300D01*
X41095000Y-144945500D02*
X46318400Y-150168900D01*
X34434600Y-116663609D02*
X34434600Y-121943900D01*
X33020000Y-115249009D02*
X34434600Y-116663609D01*
X46318400Y-150168900D02*
X132767300Y-150168900D01*
%TO.N,LY1*%
X127693100Y-154895000D02*
X50372500Y-154895000D01*
X33020000Y-122869009D02*
X33020000Y-121920000D01*
X50372500Y-154895000D02*
X40643100Y-145165600D01*
X40643100Y-130492109D02*
X33020000Y-122869009D01*
X40643100Y-145165600D02*
X40643100Y-130492109D01*
%TO.N,LY2*%
X84328000Y-171450000D02*
X84328000Y-172281700D01*
X145563100Y-170190000D02*
X146690000Y-170190000D01*
X145563100Y-170471700D02*
X145563100Y-170190000D01*
X126303500Y-189731300D02*
X145563100Y-170471700D01*
X84328000Y-172281700D02*
X101777600Y-189731300D01*
X101777600Y-189731300D02*
X126303500Y-189731300D01*
%TO.N,LY3*%
X123622900Y-135288200D02*
X119014200Y-139896900D01*
X146685000Y-137795000D02*
X145558100Y-137795000D01*
X102163600Y-139896900D02*
X99857000Y-137590300D01*
X119014200Y-139896900D02*
X102163600Y-139896900D01*
X145558100Y-138076700D02*
X144678500Y-138956300D01*
X142875000Y-138185600D02*
X142875000Y-137426000D01*
X142875000Y-137426000D02*
X140737200Y-135288200D01*
X144678500Y-138956300D02*
X143645700Y-138956300D01*
X143645700Y-138956300D02*
X142875000Y-138185600D01*
X145558100Y-137795000D02*
X145558100Y-138076700D01*
X99857000Y-137590300D02*
X60416500Y-137590300D01*
X140737200Y-135288200D02*
X123622900Y-135288200D01*
%TO.N,LY4*%
X139065000Y-137795000D02*
X137472500Y-136202500D01*
X61491900Y-115550000D02*
X60221900Y-114280000D01*
X119954200Y-141523900D02*
X93678700Y-141523900D01*
X125275600Y-136202500D02*
X119954200Y-141523900D01*
X68470000Y-115550000D02*
X61491900Y-115550000D01*
X59095000Y-114280000D02*
X60221900Y-114280000D01*
X137472500Y-136202500D02*
X125275600Y-136202500D01*
X93678700Y-141523900D02*
X92015200Y-139860400D01*
X69545200Y-116625200D02*
X68470000Y-115550000D01*
%TO.N,LY5*%
X93077600Y-144143300D02*
X89172700Y-140238400D01*
X134897400Y-147044600D02*
X100900400Y-147044600D01*
X100900400Y-147044600D02*
X97999100Y-144143300D01*
X97999100Y-144143300D02*
X93077600Y-144143300D01*
X135191300Y-146750700D02*
X134897400Y-147044600D01*
%TD*%
M02*
