M48
; DRILL file {KiCad 7.0.7} date Tue Oct 17 22:58:30 2023
; FORMAT={-:-/ absolute / inch / decimal}
; #@! TF.CreationDate,2023-10-17T22:58:30+09:00
; #@! TF.GenerationSoftware,Kicad,Pcbnew,7.0.7
; #@! TF.FileFunction,Plated,1,2,PTH
FMAT,2
INCH
; #@! TA.AperFunction,Plated,PTH,ViaDrill
T1C0.0157
; #@! TA.AperFunction,Plated,PTH,ComponentDrill
T2C0.0315
; #@! TA.AperFunction,Plated,PTH,ComponentDrill
T3C0.0354
; #@! TA.AperFunction,Plated,PTH,ComponentDrill
T4C0.0394
%
G90
G05
T1
X1.2445Y-1.7506
X1.3728Y-1.8578
X2.0563Y-3.3931
X2.081Y-3.5097
X2.0958Y-3.4102
X2.1208Y-3.6042
X2.2566Y-3.4854
X2.3506Y-5.6456
X2.3786Y-5.4169
X2.422Y-3.0998
X2.4417Y-5.6734
X2.4758Y-3.6727
X2.4915Y-3.0734
X2.5617Y-1.9159
X2.5626Y-2.8072
X2.5798Y-4.1294
X2.738Y-4.5915
X3.1539Y-2.7823
X3.32Y-6.75
X3.4004Y-2.7113
X3.456Y-1.8395
X3.5107Y-5.5212
X3.5266Y-4.112
X3.5824Y-4.3166
X3.6226Y-5.5063
X3.6305Y-6.2916
X3.6521Y-6.1707
X3.6653Y-4.7461
X3.714Y-2.5465
X3.7793Y-2.0907
X3.8284Y-1.6114
X3.841Y-5.7766
X3.845Y-2.103
X4.1236Y-6.6275
X4.2548Y-4.6196
X4.3252Y-5.8548
X4.341Y-4.4842
X4.4773Y-2.8
X4.525Y-7.5422
X4.5252Y-6.4748
X4.5609Y-4.2414
X4.6289Y-2.8669
X4.7721Y-6.9335
X4.7872Y-2.85
X4.7939Y-7.1111
X4.801Y-6.1719
X4.8135Y-6.4737
X4.8956Y-5.3552
X4.926Y-5.4349
X5.02Y-5.2213
X5.0273Y-6.0982
X5.0391Y-5.2599
X5.0492Y-4.1385
X5.3225Y-5.7776
X5.4342Y-6.1193
X5.6593Y-1.8235
X5.7215Y-4.6046
X5.7391Y-4.8313
X5.7413Y-3.2798
X5.8773Y-2.8737
X5.8822Y-4.1378
X5.9384Y-5.2094
X6.0056Y-6.049
X6.1354Y-3.23
X6.1391Y-4.2836
X6.3316Y-1.4564
X6.4472Y-1.3816
X6.5849Y-2.2923
X6.8198Y-2.2476
X7.2623Y-2.3789
X7.3654Y-2.421
X7.4571Y-1.95
X7.5552Y-2.6087
X7.6882Y-2.4347
T2
X1.3Y-4.3
X1.3Y-4.4
X1.3Y-4.5
X1.3Y-4.6
X1.3Y-4.7
X1.3Y-4.8
X1.3Y-4.9
X1.3002Y-2.7
X1.3002Y-2.8
X1.3002Y-2.9
X1.3002Y-3.0
X1.3002Y-3.1
X1.3002Y-3.2
X1.3002Y-3.3
X1.3252Y-1.4
X1.3252Y-1.5
X1.3252Y-1.6
X1.3252Y-1.7
X1.3252Y-1.8
X1.3252Y-1.9
X1.3252Y-2.0
X1.3998Y-3.5
X1.4016Y-5.1002
X1.4264Y-2.1902
X1.4982Y-3.5
X1.4998Y-5.5262
X1.4998Y-5.6246
X1.5Y-5.1002
X1.5008Y-6.5008
X1.5008Y-6.5992
X1.5248Y-2.1902
X1.6Y-4.3
X1.6Y-4.4
X1.6Y-4.5
X1.6Y-4.6
X1.6Y-4.7
X1.6Y-4.8
X1.6Y-4.9
X1.6002Y-2.7
X1.6002Y-2.8
X1.6002Y-2.9
X1.6002Y-3.0
X1.6002Y-3.1
X1.6002Y-3.2
X1.6002Y-3.3
X1.6252Y-1.4
X1.6252Y-1.5
X1.6252Y-1.6
X1.6252Y-1.7
X1.6252Y-1.8
X1.6252Y-1.9
X1.6252Y-2.0
X1.7Y-5.425
X1.7Y-5.725
X1.7008Y-6.4008
X1.7008Y-6.7008
X1.72Y-7.3502
X1.72Y-7.7502
X1.8Y-5.425
X1.8Y-5.725
X1.8008Y-6.4008
X1.8008Y-6.7008
X1.9Y-5.425
X1.9Y-5.725
X1.9008Y-6.4008
X1.9008Y-6.7008
X1.97Y-7.35
X1.97Y-7.75
X2.0Y-5.425
X2.0Y-5.725
X2.0008Y-6.4008
X2.0008Y-6.7008
X2.1Y-5.425
X2.1Y-5.725
X2.1008Y-6.4008
X2.1008Y-6.7008
X2.2Y-5.425
X2.2Y-5.725
X2.2008Y-6.4008
X2.2008Y-6.7008
X2.225Y-7.35
X2.225Y-7.75
X2.3Y-5.425
X2.3Y-5.725
X2.3008Y-6.4008
X2.3008Y-6.7008
X2.3252Y-1.4
X2.3252Y-1.5
X2.3252Y-1.6
X2.3252Y-1.7
X2.3252Y-1.8
X2.3252Y-1.9
X2.3252Y-2.0
X2.3254Y-2.6998
X2.3254Y-2.7998
X2.3254Y-2.8998
X2.3254Y-2.9998
X2.3254Y-3.0998
X2.3254Y-3.1998
X2.3254Y-3.2998
X2.3266Y-4.2992
X2.3266Y-4.3992
X2.3266Y-4.4992
X2.3266Y-4.5992
X2.3266Y-4.6992
X2.3266Y-4.7992
X2.3266Y-4.8992
X2.4264Y-2.1902
X2.4266Y-3.4998
X2.4266Y-5.0992
X2.5248Y-2.1902
X2.525Y-3.4998
X2.525Y-5.0992
X2.6252Y-1.4
X2.6252Y-1.5
X2.6252Y-1.6
X2.6252Y-1.7
X2.6252Y-1.8
X2.6252Y-1.9
X2.6252Y-2.0
X2.6254Y-2.6998
X2.6254Y-2.7998
X2.6254Y-2.8998
X2.6254Y-2.9998
X2.6254Y-3.0998
X2.6254Y-3.1998
X2.6254Y-3.2998
X2.6266Y-4.2992
X2.6266Y-4.3992
X2.6266Y-4.4992
X2.6266Y-4.5992
X2.6266Y-4.6992
X2.6266Y-4.7992
X2.6266Y-4.8992
X3.3004Y-2.7
X3.3004Y-2.8
X3.3004Y-2.9
X3.3004Y-3.0
X3.3004Y-3.1
X3.3004Y-3.2
X3.3004Y-3.3
X3.3008Y-1.3998
X3.3008Y-1.4998
X3.3008Y-1.5998
X3.3008Y-1.6998
X3.3008Y-1.7998
X3.3008Y-1.8998
X3.3008Y-1.9998
X3.4016Y-3.5002
X3.402Y-2.19
X3.5Y-3.5002
X3.5004Y-2.19
X3.6004Y-2.7
X3.6004Y-2.8
X3.6004Y-2.9
X3.6004Y-3.0
X3.6004Y-3.1
X3.6004Y-3.2
X3.6004Y-3.3
X3.6008Y-1.3998
X3.6008Y-1.4998
X3.6008Y-1.5998
X3.6008Y-1.6998
X3.6008Y-1.7998
X3.6008Y-1.8998
X3.6008Y-1.9998
X3.825Y-4.4766
X3.825Y-4.575
X3.825Y-5.5266
X3.825Y-5.625
X3.825Y-7.525
X3.825Y-7.6234
X3.8252Y-6.5004
X3.8252Y-6.5988
X4.025Y-4.375
X4.025Y-4.675
X4.025Y-7.425
X4.025Y-7.725
X4.0252Y-5.4254
X4.0252Y-5.7254
X4.0252Y-6.4004
X4.0252Y-6.7004
X4.125Y-4.375
X4.125Y-4.675
X4.125Y-7.425
X4.125Y-7.725
X4.1252Y-5.4254
X4.1252Y-5.7254
X4.1252Y-6.4004
X4.1252Y-6.7004
X4.225Y-4.375
X4.225Y-4.675
X4.225Y-7.425
X4.225Y-7.725
X4.2252Y-5.4254
X4.2252Y-5.7254
X4.2252Y-6.4004
X4.2252Y-6.7004
X4.325Y-4.375
X4.325Y-4.675
X4.325Y-7.425
X4.325Y-7.725
X4.3252Y-5.4254
X4.3252Y-5.7254
X4.3252Y-6.4004
X4.3252Y-6.7004
X4.4Y-2.7
X4.4Y-2.8
X4.4Y-2.9
X4.4Y-3.0
X4.4Y-3.1
X4.4Y-3.2
X4.4Y-3.3
X4.4004Y-1.3998
X4.4004Y-1.4998
X4.4004Y-1.5998
X4.4004Y-1.6998
X4.4004Y-1.7998
X4.4004Y-1.8998
X4.4004Y-1.9998
X4.425Y-4.375
X4.425Y-4.675
X4.425Y-7.425
X4.425Y-7.725
X4.4252Y-5.4254
X4.4252Y-5.7254
X4.4252Y-6.4004
X4.4252Y-6.7004
X4.5016Y-2.19
X4.5016Y-3.5
X4.525Y-4.375
X4.525Y-4.675
X4.525Y-7.425
X4.525Y-7.725
X4.5252Y-5.4254
X4.5252Y-5.7254
X4.5252Y-6.4004
X4.5252Y-6.7004
X4.6Y-2.19
X4.6Y-3.5
X4.625Y-4.375
X4.625Y-4.675
X4.625Y-7.425
X4.625Y-7.725
X4.6252Y-5.4254
X4.6252Y-5.7254
X4.6252Y-6.4004
X4.6252Y-6.7004
X4.7Y-2.7
X4.7Y-2.8
X4.7Y-2.9
X4.7Y-3.0
X4.7Y-3.1
X4.7Y-3.2
X4.7Y-3.3
X4.7004Y-1.3998
X4.7004Y-1.4998
X4.7004Y-1.5998
X4.7004Y-1.6998
X4.7004Y-1.7998
X4.7004Y-1.8998
X4.7004Y-1.9998
X4.725Y-4.375
X4.725Y-4.675
X5.0748Y-5.5093
X5.0748Y-5.6077
X5.075Y-4.4766
X5.075Y-4.575
X5.0752Y-6.4862
X5.0752Y-6.5846
X5.275Y-4.375
X5.275Y-4.675
X5.275Y-5.425
X5.275Y-5.725
X5.2752Y-6.4004
X5.2752Y-6.7004
X5.375Y-4.375
X5.375Y-4.675
X5.375Y-5.425
X5.375Y-5.725
X5.3752Y-6.4004
X5.3752Y-6.7004
X5.475Y-4.375
X5.475Y-4.675
X5.475Y-5.425
X5.475Y-5.725
X5.4752Y-6.4004
X5.4752Y-6.7004
X5.5004Y-1.4
X5.5004Y-1.5
X5.5004Y-1.6
X5.5004Y-1.7
X5.5004Y-1.8
X5.5004Y-1.9
X5.5004Y-2.0
X5.5004Y-2.7
X5.5004Y-2.8
X5.5004Y-2.9
X5.5004Y-3.0
X5.5004Y-3.1
X5.5004Y-3.2
X5.5004Y-3.3
X5.575Y-4.375
X5.575Y-4.675
X5.575Y-5.425
X5.575Y-5.725
X5.5752Y-6.4004
X5.5752Y-6.7004
X5.6016Y-3.5002
X5.602Y-2.19
X5.675Y-4.375
X5.675Y-4.675
X5.675Y-5.425
X5.675Y-5.725
X5.6752Y-6.4004
X5.6752Y-6.7004
X5.7Y-3.5002
X5.7004Y-2.19
X5.775Y-4.375
X5.775Y-4.675
X5.775Y-5.425
X5.775Y-5.725
X5.7752Y-6.4004
X5.7752Y-6.7004
X5.8004Y-1.4
X5.8004Y-1.5
X5.8004Y-1.6
X5.8004Y-1.7
X5.8004Y-1.8
X5.8004Y-1.9
X5.8004Y-2.0
X5.8004Y-2.7
X5.8004Y-2.8
X5.8004Y-2.9
X5.8004Y-3.0
X5.8004Y-3.1
X5.8004Y-3.2
X5.8004Y-3.3
X5.875Y-4.375
X5.875Y-4.675
X5.875Y-5.425
X5.875Y-5.725
X5.8752Y-6.4004
X5.8752Y-6.7004
X5.975Y-4.375
X5.975Y-4.675
X6.6504Y-1.3998
X6.6504Y-1.4998
X6.6504Y-1.5998
X6.6504Y-1.6998
X6.6504Y-1.7998
X6.6504Y-1.8998
X6.6504Y-1.9998
X6.6504Y-2.6998
X6.6504Y-2.7998
X6.6504Y-2.8998
X6.6504Y-2.9998
X6.6504Y-3.0998
X6.6504Y-3.1998
X6.6504Y-3.2998
X6.7516Y-3.5
X6.752Y-2.1898
X6.85Y-3.5
X6.8504Y-2.1898
X6.9504Y-1.3998
X6.9504Y-1.4998
X6.9504Y-1.5998
X6.9504Y-1.6998
X6.9504Y-1.7998
X6.9504Y-1.8998
X6.9504Y-1.9998
X6.9504Y-2.6998
X6.9504Y-2.7998
X6.9504Y-2.8998
X6.9504Y-2.9998
X6.9504Y-3.0998
X6.9504Y-3.1998
X6.9504Y-3.2998
T3
X1.72Y-7.8702
X1.72Y-7.9702
X1.97Y-7.87
X1.97Y-7.97
X2.225Y-7.87
X2.225Y-7.97
T4
X7.86Y-1.4
X7.86Y-1.5
X7.86Y-1.6
X7.86Y-1.7
X7.86Y-1.8
X7.86Y-1.9
X7.86Y-2.0
X7.86Y-2.1
X7.86Y-2.2
X7.86Y-2.3
X7.86Y-2.4
X7.86Y-2.5
X7.86Y-2.6
X7.86Y-2.7
X7.86Y-2.8
X7.86Y-2.9
X7.86Y-3.0
X7.86Y-4.01
X7.86Y-4.11
X7.86Y-4.21
X7.86Y-4.31
X7.86Y-4.41
X7.86Y-4.51
X7.86Y-4.61
X7.86Y-4.71
X7.86Y-4.81
X7.86Y-4.91
X7.86Y-5.01
X7.86Y-5.11
X7.86Y-5.21
X7.86Y-5.31
X7.86Y-5.41
X7.86Y-5.51
X7.86Y-5.61
X7.96Y-1.4
X7.96Y-1.5
X7.96Y-1.6
X7.96Y-1.7
X7.96Y-1.8
X7.96Y-1.9
X7.96Y-2.0
X7.96Y-2.1
X7.96Y-2.2
X7.96Y-2.3
X7.96Y-2.4
X7.96Y-2.5
X7.96Y-2.6
X7.96Y-2.7
X7.96Y-2.8
X7.96Y-2.9
X7.96Y-3.0
X7.96Y-4.01
X7.96Y-4.11
X7.96Y-4.21
X7.96Y-4.31
X7.96Y-4.41
X7.96Y-4.51
X7.96Y-4.61
X7.96Y-4.71
X7.96Y-4.81
X7.96Y-4.91
X7.96Y-5.01
X7.96Y-5.11
X7.96Y-5.21
X7.96Y-5.31
X7.96Y-5.41
X7.96Y-5.51
X7.96Y-5.61
T0
M30
