%TF.GenerationSoftware,KiCad,Pcbnew,7.0.7*%
%TF.CreationDate,2023-10-17T22:58:23+09:00*%
%TF.ProjectId,ALU,414c552e-6b69-4636-9164-5f7063625858,rev?*%
%TF.SameCoordinates,Original*%
%TF.FileFunction,Soldermask,Bot*%
%TF.FilePolarity,Negative*%
%FSLAX46Y46*%
G04 Gerber Fmt 4.6, Leading zero omitted, Abs format (unit mm)*
G04 Created by KiCad (PCBNEW 7.0.7) date 2023-10-17 22:58:23*
%MOMM*%
%LPD*%
G01*
G04 APERTURE LIST*
%ADD10R,1.600000X1.600000*%
%ADD11O,1.600000X1.600000*%
%ADD12C,1.600000*%
%ADD13C,3.200000*%
%ADD14R,1.800000X1.800000*%
%ADD15C,1.800000*%
%ADD16R,1.700000X1.700000*%
%ADD17O,1.700000X1.700000*%
G04 APERTURE END LIST*
D10*
%TO.C,U4*%
X139710000Y-68580000D03*
D11*
X139710000Y-71120000D03*
X139710000Y-73660000D03*
X139710000Y-76200000D03*
X139710000Y-78740000D03*
X139710000Y-81280000D03*
X139710000Y-83820000D03*
X147330000Y-83820000D03*
X147330000Y-81280000D03*
X147330000Y-78740000D03*
X147330000Y-76200000D03*
X147330000Y-73660000D03*
X147330000Y-71120000D03*
X147330000Y-68580000D03*
%TD*%
D10*
%TO.C,U9*%
X33660000Y-35560000D03*
D11*
X33660000Y-38100000D03*
X33660000Y-40640000D03*
X33660000Y-43180000D03*
X33660000Y-45720000D03*
X33660000Y-48260000D03*
X33660000Y-50800000D03*
X41280000Y-50800000D03*
X41280000Y-48260000D03*
X41280000Y-45720000D03*
X41280000Y-43180000D03*
X41280000Y-40640000D03*
X41280000Y-38100000D03*
X41280000Y-35560000D03*
%TD*%
D10*
%TO.C,U12*%
X83830000Y-68580000D03*
D11*
X83830000Y-71120000D03*
X83830000Y-73660000D03*
X83830000Y-76200000D03*
X83830000Y-78740000D03*
X83830000Y-81280000D03*
X83830000Y-83820000D03*
X91450000Y-83820000D03*
X91450000Y-81280000D03*
X91450000Y-78740000D03*
X91450000Y-76200000D03*
X91450000Y-73660000D03*
X91450000Y-71120000D03*
X91450000Y-68580000D03*
%TD*%
D10*
%TO.C,U10*%
X111770000Y-35555000D03*
D11*
X111770000Y-38095000D03*
X111770000Y-40635000D03*
X111770000Y-43175000D03*
X111770000Y-45715000D03*
X111770000Y-48255000D03*
X111770000Y-50795000D03*
X119390000Y-50795000D03*
X119390000Y-48255000D03*
X119390000Y-45715000D03*
X119390000Y-43175000D03*
X119390000Y-40635000D03*
X119390000Y-38095000D03*
X119390000Y-35555000D03*
%TD*%
D12*
%TO.C,C5*%
X88910000Y-55626000D03*
X86410000Y-55626000D03*
%TD*%
D10*
%TO.C,U24*%
X58440000Y-162580000D03*
D11*
X55900000Y-162580000D03*
X53360000Y-162580000D03*
X50820000Y-162580000D03*
X48280000Y-162580000D03*
X45740000Y-162580000D03*
X43200000Y-162580000D03*
X43200000Y-170200000D03*
X45740000Y-170200000D03*
X48280000Y-170200000D03*
X50820000Y-170200000D03*
X53360000Y-170200000D03*
X55900000Y-170200000D03*
X58440000Y-170200000D03*
%TD*%
D12*
%TO.C,C18*%
X38100000Y-129545000D03*
X35600000Y-129545000D03*
%TD*%
D10*
%TO.C,U5*%
X120015000Y-111125000D03*
D11*
X117475000Y-111125000D03*
X114935000Y-111125000D03*
X112395000Y-111125000D03*
X109855000Y-111125000D03*
X107315000Y-111125000D03*
X104775000Y-111125000D03*
X102235000Y-111125000D03*
X102235000Y-118745000D03*
X104775000Y-118745000D03*
X107315000Y-118745000D03*
X109855000Y-118745000D03*
X112395000Y-118745000D03*
X114935000Y-118745000D03*
X117475000Y-118745000D03*
X120015000Y-118745000D03*
%TD*%
D12*
%TO.C,C17*%
X128900000Y-142435000D03*
X128900000Y-139935000D03*
%TD*%
D10*
%TO.C,U7*%
X59060000Y-35560000D03*
D11*
X59060000Y-38100000D03*
X59060000Y-40640000D03*
X59060000Y-43180000D03*
X59060000Y-45720000D03*
X59060000Y-48260000D03*
X59060000Y-50800000D03*
X66680000Y-50800000D03*
X66680000Y-48260000D03*
X66680000Y-45720000D03*
X66680000Y-43180000D03*
X66680000Y-40640000D03*
X66680000Y-38100000D03*
X66680000Y-35560000D03*
%TD*%
D10*
%TO.C,U15*%
X117480000Y-162570000D03*
D11*
X114940000Y-162570000D03*
X112400000Y-162570000D03*
X109860000Y-162570000D03*
X107320000Y-162570000D03*
X104780000Y-162570000D03*
X102240000Y-162570000D03*
X102240000Y-170190000D03*
X104780000Y-170190000D03*
X107320000Y-170190000D03*
X109860000Y-170190000D03*
X112400000Y-170190000D03*
X114940000Y-170190000D03*
X117480000Y-170190000D03*
%TD*%
D12*
%TO.C,C11*%
X144790000Y-55626000D03*
X142290000Y-55626000D03*
%TD*%
%TO.C,R3*%
X56515000Y-186690000D03*
D11*
X56515000Y-196850000D03*
%TD*%
D10*
%TO.C,U1*%
X168920000Y-68575000D03*
D11*
X168920000Y-71115000D03*
X168920000Y-73655000D03*
X168920000Y-76195000D03*
X168920000Y-78735000D03*
X168920000Y-81275000D03*
X168920000Y-83815000D03*
X176540000Y-83815000D03*
X176540000Y-81275000D03*
X176540000Y-78735000D03*
X176540000Y-76195000D03*
X176540000Y-73655000D03*
X176540000Y-71115000D03*
X176540000Y-68575000D03*
%TD*%
D10*
%TO.C,U11*%
X111760000Y-68580000D03*
D11*
X111760000Y-71120000D03*
X111760000Y-73660000D03*
X111760000Y-76200000D03*
X111760000Y-78740000D03*
X111760000Y-81280000D03*
X111760000Y-83820000D03*
X119380000Y-83820000D03*
X119380000Y-81280000D03*
X119380000Y-78740000D03*
X119380000Y-76200000D03*
X119380000Y-73660000D03*
X119380000Y-71120000D03*
X119380000Y-68580000D03*
%TD*%
D12*
%TO.C,R2*%
X50038000Y-186690000D03*
D11*
X50038000Y-196850000D03*
%TD*%
D13*
%TO.C,H1*%
X19050000Y-19050000D03*
%TD*%
D12*
%TO.C,C21*%
X128910000Y-167250000D03*
X128910000Y-164750000D03*
%TD*%
D10*
%TO.C,U16*%
X149230000Y-162570000D03*
D11*
X146690000Y-162570000D03*
X144150000Y-162570000D03*
X141610000Y-162570000D03*
X139070000Y-162570000D03*
X136530000Y-162570000D03*
X133990000Y-162570000D03*
X133990000Y-170190000D03*
X136530000Y-170190000D03*
X139070000Y-170190000D03*
X141610000Y-170190000D03*
X144150000Y-170190000D03*
X146690000Y-170190000D03*
X149230000Y-170190000D03*
%TD*%
D12*
%TO.C,C14*%
X38055000Y-88900000D03*
X35555000Y-88900000D03*
%TD*%
D14*
%TO.C,D3*%
X56515000Y-202438000D03*
D15*
X56515000Y-199898000D03*
%TD*%
D12*
%TO.C,C12*%
X174000000Y-55621000D03*
X171500000Y-55621000D03*
%TD*%
D10*
%TO.C,U21*%
X59095000Y-109200000D03*
D11*
X59095000Y-111740000D03*
X59095000Y-114280000D03*
X59095000Y-116820000D03*
X59095000Y-119360000D03*
X59095000Y-121900000D03*
X59095000Y-124440000D03*
X66715000Y-124440000D03*
X66715000Y-121900000D03*
X66715000Y-119360000D03*
X66715000Y-116820000D03*
X66715000Y-114280000D03*
X66715000Y-111740000D03*
X66715000Y-109200000D03*
%TD*%
D12*
%TO.C,C10*%
X97155000Y-116205000D03*
X97155000Y-113705000D03*
%TD*%
%TO.C,C9*%
X128905000Y-116205000D03*
X128905000Y-113705000D03*
%TD*%
%TO.C,C2*%
X88900000Y-88905000D03*
X86400000Y-88905000D03*
%TD*%
D10*
%TO.C,U14*%
X117475000Y-188595000D03*
D11*
X114935000Y-188595000D03*
X112395000Y-188595000D03*
X109855000Y-188595000D03*
X107315000Y-188595000D03*
X104775000Y-188595000D03*
X102235000Y-188595000D03*
X102235000Y-196215000D03*
X104775000Y-196215000D03*
X107315000Y-196215000D03*
X109855000Y-196215000D03*
X112395000Y-196215000D03*
X114935000Y-196215000D03*
X117475000Y-196215000D03*
%TD*%
D13*
%TO.C,H4*%
X206375000Y-206375000D03*
%TD*%
D12*
%TO.C,C20*%
X97155000Y-193635000D03*
X97155000Y-191135000D03*
%TD*%
%TO.C,C3*%
X116840000Y-88900000D03*
X114340000Y-88900000D03*
%TD*%
D10*
%TO.C,U23*%
X58420000Y-137795000D03*
D11*
X55880000Y-137795000D03*
X53340000Y-137795000D03*
X50800000Y-137795000D03*
X48260000Y-137795000D03*
X45720000Y-137795000D03*
X43180000Y-137795000D03*
X43180000Y-145415000D03*
X45720000Y-145415000D03*
X48260000Y-145415000D03*
X50800000Y-145415000D03*
X53340000Y-145415000D03*
X55880000Y-145415000D03*
X58420000Y-145415000D03*
%TD*%
D12*
%TO.C,C23*%
X38095000Y-142865000D03*
X38095000Y-140365000D03*
%TD*%
D10*
%TO.C,U3*%
X139710000Y-35560000D03*
D11*
X139710000Y-38100000D03*
X139710000Y-40640000D03*
X139710000Y-43180000D03*
X139710000Y-45720000D03*
X139710000Y-48260000D03*
X139710000Y-50800000D03*
X147330000Y-50800000D03*
X147330000Y-48260000D03*
X147330000Y-45720000D03*
X147330000Y-43180000D03*
X147330000Y-40640000D03*
X147330000Y-38100000D03*
X147330000Y-35560000D03*
%TD*%
D12*
%TO.C,C6*%
X144780000Y-88905000D03*
X142280000Y-88905000D03*
%TD*%
%TO.C,C8*%
X116840000Y-55626000D03*
X114340000Y-55626000D03*
%TD*%
%TO.C,C15*%
X97155000Y-142875000D03*
X97155000Y-140375000D03*
%TD*%
%TO.C,R1*%
X43688000Y-186695000D03*
D11*
X43688000Y-196855000D03*
%TD*%
D10*
%TO.C,U19*%
X149225000Y-137795000D03*
D11*
X146685000Y-137795000D03*
X144145000Y-137795000D03*
X141605000Y-137795000D03*
X139065000Y-137795000D03*
X136525000Y-137795000D03*
X133985000Y-137795000D03*
X133985000Y-145415000D03*
X136525000Y-145415000D03*
X139065000Y-145415000D03*
X141605000Y-145415000D03*
X144145000Y-145415000D03*
X146685000Y-145415000D03*
X149225000Y-145415000D03*
%TD*%
D12*
%TO.C,C4*%
X64130000Y-55631000D03*
X61630000Y-55631000D03*
%TD*%
D10*
%TO.C,U13*%
X117480000Y-137805000D03*
D11*
X114940000Y-137805000D03*
X112400000Y-137805000D03*
X109860000Y-137805000D03*
X107320000Y-137805000D03*
X104780000Y-137805000D03*
X102240000Y-137805000D03*
X102240000Y-145425000D03*
X104780000Y-145425000D03*
X107320000Y-145425000D03*
X109860000Y-145425000D03*
X112400000Y-145425000D03*
X114940000Y-145425000D03*
X117480000Y-145425000D03*
%TD*%
D10*
%TO.C,U20*%
X33020000Y-109220000D03*
D11*
X33020000Y-111760000D03*
X33020000Y-114300000D03*
X33020000Y-116840000D03*
X33020000Y-119380000D03*
X33020000Y-121920000D03*
X33020000Y-124460000D03*
X40640000Y-124460000D03*
X40640000Y-121920000D03*
X40640000Y-119380000D03*
X40640000Y-116840000D03*
X40640000Y-114300000D03*
X40640000Y-111760000D03*
X40640000Y-109220000D03*
%TD*%
D10*
%TO.C,U18*%
X59065000Y-68575000D03*
D11*
X59065000Y-71115000D03*
X59065000Y-73655000D03*
X59065000Y-76195000D03*
X59065000Y-78735000D03*
X59065000Y-81275000D03*
X59065000Y-83815000D03*
X66685000Y-83815000D03*
X66685000Y-81275000D03*
X66685000Y-78735000D03*
X66685000Y-76195000D03*
X66685000Y-73655000D03*
X66685000Y-71115000D03*
X66685000Y-68575000D03*
%TD*%
D13*
%TO.C,H3*%
X19075400Y-206349600D03*
%TD*%
D10*
%TO.C,U8*%
X83840000Y-35555000D03*
D11*
X83840000Y-38095000D03*
X83840000Y-40635000D03*
X83840000Y-43175000D03*
X83840000Y-45715000D03*
X83840000Y-48255000D03*
X83840000Y-50795000D03*
X91460000Y-50795000D03*
X91460000Y-48255000D03*
X91460000Y-45715000D03*
X91460000Y-43175000D03*
X91460000Y-40635000D03*
X91460000Y-38095000D03*
X91460000Y-35555000D03*
%TD*%
D16*
%TO.C,J1*%
X199644000Y-35560000D03*
D17*
X202184000Y-35560000D03*
X199644000Y-38100000D03*
X202184000Y-38100000D03*
X199644000Y-40640000D03*
X202184000Y-40640000D03*
X199644000Y-43180000D03*
X202184000Y-43180000D03*
X199644000Y-45720000D03*
X202184000Y-45720000D03*
X199644000Y-48260000D03*
X202184000Y-48260000D03*
X199644000Y-50800000D03*
X202184000Y-50800000D03*
X199644000Y-53340000D03*
X202184000Y-53340000D03*
X199644000Y-55880000D03*
X202184000Y-55880000D03*
X199644000Y-58420000D03*
X202184000Y-58420000D03*
X199644000Y-60960000D03*
X202184000Y-60960000D03*
X199644000Y-63500000D03*
X202184000Y-63500000D03*
X199644000Y-66040000D03*
X202184000Y-66040000D03*
X199644000Y-68580000D03*
X202184000Y-68580000D03*
X199644000Y-71120000D03*
X202184000Y-71120000D03*
X199644000Y-73660000D03*
X202184000Y-73660000D03*
X199644000Y-76200000D03*
X202184000Y-76200000D03*
%TD*%
D13*
%TO.C,H2*%
X206375000Y-19050000D03*
%TD*%
D12*
%TO.C,C1*%
X38730000Y-55631000D03*
X36230000Y-55631000D03*
%TD*%
%TO.C,C16*%
X97160000Y-167610000D03*
X97160000Y-165110000D03*
%TD*%
D14*
%TO.C,D1*%
X43688000Y-202443000D03*
D15*
X43688000Y-199903000D03*
%TD*%
D12*
%TO.C,C19*%
X64135000Y-129520000D03*
X61635000Y-129520000D03*
%TD*%
D10*
%TO.C,U17*%
X33025000Y-68580000D03*
D11*
X33025000Y-71120000D03*
X33025000Y-73660000D03*
X33025000Y-76200000D03*
X33025000Y-78740000D03*
X33025000Y-81280000D03*
X33025000Y-83820000D03*
X40645000Y-83820000D03*
X40645000Y-81280000D03*
X40645000Y-78740000D03*
X40645000Y-76200000D03*
X40645000Y-73660000D03*
X40645000Y-71120000D03*
X40645000Y-68580000D03*
%TD*%
D10*
%TO.C,U6*%
X168920000Y-35555000D03*
D11*
X168920000Y-38095000D03*
X168920000Y-40635000D03*
X168920000Y-43175000D03*
X168920000Y-45715000D03*
X168920000Y-48255000D03*
X168920000Y-50795000D03*
X176540000Y-50795000D03*
X176540000Y-48255000D03*
X176540000Y-45715000D03*
X176540000Y-43175000D03*
X176540000Y-40635000D03*
X176540000Y-38095000D03*
X176540000Y-35555000D03*
%TD*%
D12*
%TO.C,C7*%
X173990000Y-88900000D03*
X171490000Y-88900000D03*
%TD*%
%TO.C,C13*%
X64135000Y-88895000D03*
X61635000Y-88895000D03*
%TD*%
%TO.C,C22*%
X38120000Y-167620000D03*
X38120000Y-165120000D03*
%TD*%
D10*
%TO.C,U2*%
X151765000Y-111125000D03*
D11*
X149225000Y-111125000D03*
X146685000Y-111125000D03*
X144145000Y-111125000D03*
X141605000Y-111125000D03*
X139065000Y-111125000D03*
X136525000Y-111125000D03*
X133985000Y-111125000D03*
X133985000Y-118745000D03*
X136525000Y-118745000D03*
X139065000Y-118745000D03*
X141605000Y-118745000D03*
X144145000Y-118745000D03*
X146685000Y-118745000D03*
X149225000Y-118745000D03*
X151765000Y-118745000D03*
%TD*%
D14*
%TO.C,D2*%
X50038000Y-202438000D03*
D15*
X50038000Y-199898000D03*
%TD*%
D16*
%TO.C,J2*%
X199644000Y-101854000D03*
D17*
X202184000Y-101854000D03*
X199644000Y-104394000D03*
X202184000Y-104394000D03*
X199644000Y-106934000D03*
X202184000Y-106934000D03*
X199644000Y-109474000D03*
X202184000Y-109474000D03*
X199644000Y-112014000D03*
X202184000Y-112014000D03*
X199644000Y-114554000D03*
X202184000Y-114554000D03*
X199644000Y-117094000D03*
X202184000Y-117094000D03*
X199644000Y-119634000D03*
X202184000Y-119634000D03*
X199644000Y-122174000D03*
X202184000Y-122174000D03*
X199644000Y-124714000D03*
X202184000Y-124714000D03*
X199644000Y-127254000D03*
X202184000Y-127254000D03*
X199644000Y-129794000D03*
X202184000Y-129794000D03*
X199644000Y-132334000D03*
X202184000Y-132334000D03*
X199644000Y-134874000D03*
X202184000Y-134874000D03*
X199644000Y-137414000D03*
X202184000Y-137414000D03*
X199644000Y-139954000D03*
X202184000Y-139954000D03*
X199644000Y-142494000D03*
X202184000Y-142494000D03*
%TD*%
M02*
