M48
; DRILL file {KiCad 7.0.7} date Wed Oct 25 17:19:34 2023
; FORMAT={-:-/ absolute / inch / decimal}
; #@! TF.CreationDate,2023-10-25T17:19:34+09:00
; #@! TF.GenerationSoftware,Kicad,Pcbnew,7.0.7
; #@! TF.FileFunction,Plated,1,2,PTH
FMAT,2
INCH
; #@! TA.AperFunction,Plated,PTH,ViaDrill
T1C0.0157
; #@! TA.AperFunction,Plated,PTH,ComponentDrill
T2C0.0315
; #@! TA.AperFunction,Plated,PTH,ComponentDrill
T3C0.0354
; #@! TA.AperFunction,Plated,PTH,ComponentDrill
T4C0.0394
%
G90
G05
T1
X10.65Y-4.25
X10.65Y-6.075
X10.6535Y-7.85
X10.7Y-4.35
X10.7Y-6.15
X10.7Y-7.95
X10.75Y-4.45
X10.75Y-6.25
X10.75Y-8.05
X10.8Y-4.55
X10.8Y-6.325
X10.8Y-8.15
X10.85Y-4.75
X10.85Y-6.575
X10.85Y-8.225
X10.9Y-4.85
X10.9Y-6.65
X10.9Y-8.325
X10.95Y-4.925
X10.95Y-6.725
X10.95Y-8.425
X11.0Y-5.0
X11.0Y-6.8
X11.0Y-8.525
X11.05Y-5.05
X11.05Y-6.875
X11.05Y-7.6
X11.05Y-8.65
X11.1Y-5.15
X11.1Y-6.975
X11.1Y-7.675
X11.1Y-8.75
X11.15Y-5.275
X11.15Y-7.075
X11.15Y-7.7
X11.15Y-8.85
X11.275Y-7.575
X11.3Y-7.475
X11.325Y-7.525
X11.425Y-4.2
X11.425Y-6.0
X11.5Y-4.1
X11.5Y-5.875
X11.5Y-7.675
X13.2Y-5.75
X14.325Y-7.625
X14.35Y-7.575
X14.375Y-6.85
X14.375Y-7.4597
X14.375Y-7.525
X14.45Y-6.75
X14.6Y-5.75
X14.925Y-3.975
X14.925Y-5.8
X15.025Y-5.75
X15.1215Y-5.4
X15.2Y-7.2
X15.25Y-6.025
X15.45Y-5.4
X15.475Y-7.1
X15.5Y-5.45
X15.5Y-6.75
X15.6Y-6.55
X15.65Y-6.75
X15.775Y-6.55
X15.875Y-7.225
X16.05Y-5.125
X16.075Y-6.55
X16.1Y-6.675
X16.125Y-6.925
X16.15Y-6.801
X16.175Y-5.6
X16.2Y-6.75
X16.3035Y-5.825
X16.325Y-6.1
X16.325Y-6.875
X16.325Y-7.2
X16.375Y-6.0
X16.425Y-5.9
X16.425Y-7.1
X16.5Y-7.0
X16.875Y-3.8737
X17.175Y-7.35
X17.525Y-4.675
X17.6Y-4.625
X17.65Y-4.6
X17.675Y-4.825
X17.7Y-4.575
X17.725Y-4.75
X17.7285Y-4.525
X17.75Y-4.475
X17.775Y-4.725
X17.775Y-5.7
X17.825Y-4.7
X17.875Y-4.675
X17.925Y-4.65
X18.1Y-3.075
T2
X11.248Y-9.239
X11.25Y-3.854
X11.25Y-5.654
X11.25Y-7.44
X11.298Y-2.304
X11.298Y-2.404
X11.298Y-2.504
X11.298Y-2.604
X11.298Y-2.704
X11.298Y-2.804
X11.298Y-2.954
X11.298Y-3.054
X11.298Y-3.154
X11.298Y-3.254
X11.298Y-3.354
X11.298Y-3.454
X11.298Y-3.554
X11.298Y-3.654
X11.298Y-5.89
X11.298Y-5.99
X11.298Y-6.09
X11.298Y-6.19
X11.298Y-6.29
X11.298Y-6.39
X11.298Y-6.54
X11.298Y-6.64
X11.298Y-6.74
X11.298Y-6.84
X11.298Y-6.94
X11.298Y-7.04
X11.298Y-7.14
X11.298Y-7.24
X11.298Y-7.689
X11.298Y-7.789
X11.298Y-7.889
X11.298Y-7.989
X11.298Y-8.089
X11.298Y-8.189
X11.298Y-8.339
X11.298Y-8.439
X11.298Y-8.539
X11.298Y-8.639
X11.298Y-8.739
X11.298Y-8.839
X11.298Y-8.939
X11.298Y-9.039
X11.2984Y-4.104
X11.2984Y-4.204
X11.2984Y-4.304
X11.2984Y-4.404
X11.2984Y-4.504
X11.2984Y-4.604
X11.2988Y-4.754
X11.2988Y-4.854
X11.2988Y-4.954
X11.2988Y-5.054
X11.2988Y-5.154
X11.2988Y-5.254
X11.2988Y-5.354
X11.2988Y-5.454
X11.598Y-2.304
X11.598Y-2.404
X11.598Y-2.504
X11.598Y-2.604
X11.598Y-2.704
X11.598Y-2.804
X11.598Y-2.954
X11.598Y-3.054
X11.598Y-3.154
X11.598Y-3.254
X11.598Y-3.354
X11.598Y-3.454
X11.598Y-3.554
X11.598Y-3.654
X11.598Y-5.89
X11.598Y-5.99
X11.598Y-6.09
X11.598Y-6.19
X11.598Y-6.29
X11.598Y-6.39
X11.598Y-6.54
X11.598Y-6.64
X11.598Y-6.74
X11.598Y-6.84
X11.598Y-6.94
X11.598Y-7.04
X11.598Y-7.14
X11.598Y-7.24
X11.598Y-7.689
X11.598Y-7.789
X11.598Y-7.889
X11.598Y-7.989
X11.598Y-8.089
X11.598Y-8.189
X11.598Y-8.339
X11.598Y-8.439
X11.598Y-8.539
X11.598Y-8.639
X11.598Y-8.739
X11.598Y-8.839
X11.598Y-8.939
X11.598Y-9.039
X11.5984Y-4.104
X11.5984Y-4.204
X11.5984Y-4.304
X11.5984Y-4.404
X11.5984Y-4.504
X11.5984Y-4.604
X11.5988Y-4.754
X11.5988Y-4.854
X11.5988Y-4.954
X11.5988Y-5.054
X11.5988Y-5.154
X11.5988Y-5.254
X11.5988Y-5.354
X11.5988Y-5.454
X11.648Y-9.239
X11.65Y-3.854
X11.65Y-5.654
X11.65Y-7.44
X11.7216Y-8.8414
X11.7216Y-8.9413
X11.7216Y-9.0403
X11.7221Y-8.19
X11.7221Y-8.6409
X11.7225Y-8.7414
X11.7227Y-8.5409
X11.723Y-5.89
X11.723Y-5.99
X11.723Y-6.09
X11.723Y-6.19
X11.723Y-6.29
X11.723Y-6.39
X11.723Y-6.54
X11.723Y-6.64
X11.723Y-6.74
X11.723Y-6.84
X11.723Y-6.94
X11.723Y-7.04
X11.723Y-7.14
X11.723Y-7.24
X11.723Y-7.69
X11.723Y-7.79
X11.723Y-7.89
X11.723Y-7.99
X11.723Y-8.09
X11.723Y-8.4414
X11.7233Y-8.3404
X11.7234Y-2.304
X11.7234Y-2.404
X11.7234Y-2.504
X11.7234Y-2.604
X11.7234Y-2.704
X11.7234Y-2.804
X11.7234Y-2.954
X11.7234Y-3.054
X11.7234Y-3.154
X11.7234Y-3.254
X11.7234Y-3.354
X11.7234Y-3.454
X11.7234Y-3.554
X11.7234Y-3.654
X11.7234Y-4.104
X11.7234Y-4.204
X11.7234Y-4.304
X11.7234Y-4.404
X11.7234Y-4.504
X11.7234Y-4.604
X11.7234Y-4.754
X11.7234Y-4.854
X11.7234Y-4.954
X11.7234Y-5.054
X11.7234Y-5.154
X11.7234Y-5.254
X11.7234Y-5.354
X11.7234Y-5.454
X12.0216Y-8.8414
X12.0216Y-8.9413
X12.0216Y-9.0403
X12.0221Y-8.19
X12.0221Y-8.6409
X12.0225Y-8.7414
X12.0227Y-8.5409
X12.023Y-5.89
X12.023Y-5.99
X12.023Y-6.09
X12.023Y-6.19
X12.023Y-6.29
X12.023Y-6.39
X12.023Y-6.54
X12.023Y-6.64
X12.023Y-6.74
X12.023Y-6.84
X12.023Y-6.94
X12.023Y-7.04
X12.023Y-7.14
X12.023Y-7.24
X12.023Y-7.69
X12.023Y-7.79
X12.023Y-7.89
X12.023Y-7.99
X12.023Y-8.09
X12.023Y-8.4414
X12.0233Y-8.3404
X12.0234Y-2.304
X12.0234Y-2.404
X12.0234Y-2.504
X12.0234Y-2.604
X12.0234Y-2.704
X12.0234Y-2.804
X12.0234Y-2.954
X12.0234Y-3.054
X12.0234Y-3.154
X12.0234Y-3.254
X12.0234Y-3.354
X12.0234Y-3.454
X12.0234Y-3.554
X12.0234Y-3.654
X12.0234Y-4.104
X12.0234Y-4.204
X12.0234Y-4.304
X12.0234Y-4.404
X12.0234Y-4.504
X12.0234Y-4.604
X12.0234Y-4.754
X12.0234Y-4.854
X12.0234Y-4.954
X12.0234Y-5.054
X12.0234Y-5.154
X12.0234Y-5.254
X12.0234Y-5.354
X12.0234Y-5.454
X12.25Y-7.44
X12.25Y-9.239
X12.2502Y-3.85
X12.2506Y-5.654
X12.2992Y-6.5404
X12.2992Y-6.6404
X12.2992Y-6.7404
X12.2992Y-6.8404
X12.2992Y-6.9404
X12.2992Y-7.0404
X12.2992Y-7.1404
X12.2992Y-7.2404
X12.2996Y-5.89
X12.2996Y-5.99
X12.2996Y-6.09
X12.2996Y-6.19
X12.2996Y-6.29
X12.2996Y-6.39
X12.3Y-2.304
X12.3Y-2.404
X12.3Y-2.504
X12.3Y-2.604
X12.3Y-2.704
X12.3Y-2.804
X12.3Y-7.689
X12.3Y-7.789
X12.3Y-7.889
X12.3Y-7.989
X12.3Y-8.089
X12.3Y-8.189
X12.3Y-8.339
X12.3Y-8.439
X12.3Y-8.539
X12.3Y-8.639
X12.3Y-8.739
X12.3Y-8.839
X12.3Y-8.939
X12.3Y-9.039
X12.3004Y-2.954
X12.3004Y-3.054
X12.3004Y-3.154
X12.3004Y-3.254
X12.3004Y-3.354
X12.3004Y-3.454
X12.3004Y-3.554
X12.3004Y-3.654
X12.3004Y-4.104
X12.3004Y-4.204
X12.3004Y-4.304
X12.3004Y-4.404
X12.3004Y-4.504
X12.3004Y-4.604
X12.3004Y-4.754
X12.3004Y-4.854
X12.3004Y-4.954
X12.3004Y-5.054
X12.3004Y-5.154
X12.3004Y-5.254
X12.3004Y-5.354
X12.3004Y-5.454
X12.5992Y-6.5404
X12.5992Y-6.6404
X12.5992Y-6.7404
X12.5992Y-6.8404
X12.5992Y-6.9404
X12.5992Y-7.0404
X12.5992Y-7.1404
X12.5992Y-7.2404
X12.5996Y-5.89
X12.5996Y-5.99
X12.5996Y-6.09
X12.5996Y-6.19
X12.5996Y-6.29
X12.5996Y-6.39
X12.6Y-2.304
X12.6Y-2.404
X12.6Y-2.504
X12.6Y-2.604
X12.6Y-2.704
X12.6Y-2.804
X12.6Y-7.689
X12.6Y-7.789
X12.6Y-7.889
X12.6Y-7.989
X12.6Y-8.089
X12.6Y-8.189
X12.6Y-8.339
X12.6Y-8.439
X12.6Y-8.539
X12.6Y-8.639
X12.6Y-8.739
X12.6Y-8.839
X12.6Y-8.939
X12.6Y-9.039
X12.6004Y-2.954
X12.6004Y-3.054
X12.6004Y-3.154
X12.6004Y-3.254
X12.6004Y-3.354
X12.6004Y-3.454
X12.6004Y-3.554
X12.6004Y-3.654
X12.6004Y-4.104
X12.6004Y-4.204
X12.6004Y-4.304
X12.6004Y-4.404
X12.6004Y-4.504
X12.6004Y-4.604
X12.6004Y-4.754
X12.6004Y-4.854
X12.6004Y-4.954
X12.6004Y-5.054
X12.6004Y-5.154
X12.6004Y-5.254
X12.6004Y-5.354
X12.6004Y-5.454
X12.65Y-7.44
X12.65Y-9.239
X12.6502Y-3.85
X12.6506Y-5.654
X12.725Y-5.89
X12.725Y-5.99
X12.725Y-6.09
X12.725Y-6.19
X12.725Y-6.29
X12.725Y-6.39
X12.725Y-6.54
X12.725Y-6.64
X12.725Y-6.74
X12.725Y-6.84
X12.725Y-6.94
X12.725Y-7.04
X12.725Y-7.14
X12.725Y-7.24
X12.725Y-7.689
X12.725Y-7.789
X12.725Y-7.889
X12.725Y-7.989
X12.725Y-8.089
X12.725Y-8.189
X12.725Y-8.339
X12.725Y-8.439
X12.725Y-8.539
X12.725Y-8.639
X12.725Y-8.739
X12.725Y-8.839
X12.725Y-8.939
X12.725Y-9.039
X12.7254Y-2.304
X12.7254Y-2.404
X12.7254Y-2.504
X12.7254Y-2.604
X12.7254Y-2.704
X12.7254Y-2.804
X12.7254Y-2.954
X12.7254Y-3.054
X12.7254Y-3.154
X12.7254Y-3.254
X12.7254Y-3.354
X12.7254Y-3.454
X12.7254Y-3.554
X12.7254Y-3.654
X12.7254Y-4.104
X12.7254Y-4.204
X12.7254Y-4.304
X12.7254Y-4.404
X12.7254Y-4.504
X12.7254Y-4.604
X12.7254Y-4.754
X12.7254Y-4.854
X12.7254Y-4.954
X12.7254Y-5.054
X12.7254Y-5.154
X12.7254Y-5.254
X12.7254Y-5.354
X12.7254Y-5.454
X13.025Y-5.89
X13.025Y-5.99
X13.025Y-6.09
X13.025Y-6.19
X13.025Y-6.29
X13.025Y-6.39
X13.025Y-6.54
X13.025Y-6.64
X13.025Y-6.74
X13.025Y-6.84
X13.025Y-6.94
X13.025Y-7.04
X13.025Y-7.14
X13.025Y-7.24
X13.025Y-7.689
X13.025Y-7.789
X13.025Y-7.889
X13.025Y-7.989
X13.025Y-8.089
X13.025Y-8.189
X13.025Y-8.339
X13.025Y-8.439
X13.025Y-8.539
X13.025Y-8.639
X13.025Y-8.739
X13.025Y-8.839
X13.025Y-8.939
X13.025Y-9.039
X13.0254Y-2.304
X13.0254Y-2.404
X13.0254Y-2.504
X13.0254Y-2.604
X13.0254Y-2.704
X13.0254Y-2.804
X13.0254Y-2.954
X13.0254Y-3.054
X13.0254Y-3.154
X13.0254Y-3.254
X13.0254Y-3.354
X13.0254Y-3.454
X13.0254Y-3.554
X13.0254Y-3.654
X13.0254Y-4.104
X13.0254Y-4.204
X13.0254Y-4.304
X13.0254Y-4.404
X13.0254Y-4.504
X13.0254Y-4.604
X13.0254Y-4.754
X13.0254Y-4.854
X13.0254Y-4.954
X13.0254Y-5.054
X13.0254Y-5.154
X13.0254Y-5.254
X13.0254Y-5.354
X13.0254Y-5.454
X13.2496Y-7.44
X13.2496Y-9.239
X13.25Y-3.85
X13.25Y-5.654
X13.2996Y-5.89
X13.2996Y-5.99
X13.2996Y-6.09
X13.2996Y-6.19
X13.2996Y-6.29
X13.2996Y-6.39
X13.2996Y-6.54
X13.2996Y-6.64
X13.2996Y-6.74
X13.2996Y-6.84
X13.2996Y-6.94
X13.2996Y-7.04
X13.2996Y-7.14
X13.2996Y-7.24
X13.2996Y-7.689
X13.2996Y-7.789
X13.2996Y-7.889
X13.2996Y-7.989
X13.2996Y-8.089
X13.2996Y-8.189
X13.2996Y-8.339
X13.2996Y-8.439
X13.2996Y-8.539
X13.2996Y-8.639
X13.2996Y-8.739
X13.2996Y-8.839
X13.2996Y-8.939
X13.2996Y-9.039
X13.3Y-2.304
X13.3Y-2.404
X13.3Y-2.504
X13.3Y-2.604
X13.3Y-2.704
X13.3Y-2.804
X13.3Y-2.954
X13.3Y-3.054
X13.3Y-3.154
X13.3Y-3.254
X13.3Y-3.354
X13.3Y-3.454
X13.3Y-3.554
X13.3Y-3.654
X13.3Y-4.104
X13.3Y-4.204
X13.3Y-4.304
X13.3Y-4.404
X13.3Y-4.504
X13.3Y-4.604
X13.3Y-4.754
X13.3Y-4.854
X13.3Y-4.954
X13.3Y-5.054
X13.3Y-5.154
X13.3Y-5.254
X13.3Y-5.354
X13.3Y-5.454
X13.5996Y-5.89
X13.5996Y-5.99
X13.5996Y-6.09
X13.5996Y-6.19
X13.5996Y-6.29
X13.5996Y-6.39
X13.5996Y-6.54
X13.5996Y-6.64
X13.5996Y-6.74
X13.5996Y-6.84
X13.5996Y-6.94
X13.5996Y-7.04
X13.5996Y-7.14
X13.5996Y-7.24
X13.5996Y-7.689
X13.5996Y-7.789
X13.5996Y-7.889
X13.5996Y-7.989
X13.5996Y-8.089
X13.5996Y-8.189
X13.5996Y-8.339
X13.5996Y-8.439
X13.5996Y-8.539
X13.5996Y-8.639
X13.5996Y-8.739
X13.5996Y-8.839
X13.5996Y-8.939
X13.5996Y-9.039
X13.6Y-2.304
X13.6Y-2.404
X13.6Y-2.504
X13.6Y-2.604
X13.6Y-2.704
X13.6Y-2.804
X13.6Y-2.954
X13.6Y-3.054
X13.6Y-3.154
X13.6Y-3.254
X13.6Y-3.354
X13.6Y-3.454
X13.6Y-3.554
X13.6Y-3.654
X13.6Y-4.104
X13.6Y-4.204
X13.6Y-4.304
X13.6Y-4.404
X13.6Y-4.504
X13.6Y-4.604
X13.6Y-4.754
X13.6Y-4.854
X13.6Y-4.954
X13.6Y-5.054
X13.6Y-5.154
X13.6Y-5.254
X13.6Y-5.354
X13.6Y-5.454
X13.6496Y-7.44
X13.6496Y-9.239
X13.65Y-3.85
X13.65Y-5.654
X13.7241Y-7.6886
X13.7241Y-7.7886
X13.7241Y-7.8886
X13.7241Y-7.9886
X13.7241Y-8.0886
X13.7241Y-8.1886
X13.7246Y-5.89
X13.7246Y-5.99
X13.7246Y-6.09
X13.7246Y-6.19
X13.7246Y-6.29
X13.7246Y-6.39
X13.7246Y-6.54
X13.7246Y-6.64
X13.7246Y-6.74
X13.7246Y-6.84
X13.7246Y-6.94
X13.7246Y-7.04
X13.7246Y-7.14
X13.7246Y-7.24
X13.7246Y-8.839
X13.7247Y-8.4397
X13.7247Y-8.5397
X13.7247Y-8.6397
X13.7247Y-8.7397
X13.7247Y-8.9397
X13.7247Y-9.0397
X13.725Y-2.304
X13.725Y-2.404
X13.725Y-2.504
X13.725Y-2.604
X13.725Y-2.704
X13.725Y-2.804
X13.725Y-2.954
X13.725Y-3.054
X13.725Y-3.154
X13.725Y-3.254
X13.725Y-3.354
X13.725Y-3.454
X13.725Y-3.554
X13.725Y-3.654
X13.725Y-4.104
X13.725Y-4.204
X13.725Y-4.304
X13.725Y-4.404
X13.725Y-4.504
X13.725Y-4.604
X13.725Y-4.754
X13.725Y-4.854
X13.725Y-4.954
X13.725Y-5.054
X13.725Y-5.154
X13.725Y-5.254
X13.725Y-5.354
X13.725Y-5.454
X13.7255Y-8.3397
X14.0241Y-7.6886
X14.0241Y-7.7886
X14.0241Y-7.8886
X14.0241Y-7.9886
X14.0241Y-8.0886
X14.0241Y-8.1886
X14.0246Y-5.89
X14.0246Y-5.99
X14.0246Y-6.09
X14.0246Y-6.19
X14.0246Y-6.29
X14.0246Y-6.39
X14.0246Y-6.54
X14.0246Y-6.64
X14.0246Y-6.74
X14.0246Y-6.84
X14.0246Y-6.94
X14.0246Y-7.04
X14.0246Y-7.14
X14.0246Y-7.24
X14.0246Y-8.839
X14.0247Y-8.4397
X14.0247Y-8.5397
X14.0247Y-8.6397
X14.0247Y-8.7397
X14.0247Y-8.9397
X14.0247Y-9.0397
X14.025Y-2.304
X14.025Y-2.404
X14.025Y-2.504
X14.025Y-2.604
X14.025Y-2.704
X14.025Y-2.804
X14.025Y-2.954
X14.025Y-3.054
X14.025Y-3.154
X14.025Y-3.254
X14.025Y-3.354
X14.025Y-3.454
X14.025Y-3.554
X14.025Y-3.654
X14.025Y-4.104
X14.025Y-4.204
X14.025Y-4.304
X14.025Y-4.404
X14.025Y-4.504
X14.025Y-4.604
X14.025Y-4.754
X14.025Y-4.854
X14.025Y-4.954
X14.025Y-5.054
X14.025Y-5.154
X14.025Y-5.254
X14.025Y-5.354
X14.025Y-5.454
X14.0255Y-8.3397
X14.2492Y-7.44
X14.2492Y-9.239
X14.2496Y-5.654
X14.25Y-3.854
X14.2992Y-4.104
X14.2992Y-4.204
X14.2992Y-4.304
X14.2992Y-4.404
X14.2992Y-4.504
X14.2992Y-4.604
X14.2992Y-5.89
X14.2992Y-5.99
X14.2992Y-6.09
X14.2992Y-6.19
X14.2992Y-6.29
X14.2992Y-6.39
X14.2992Y-6.54
X14.2992Y-6.64
X14.2992Y-6.74
X14.2992Y-6.84
X14.2992Y-6.94
X14.2992Y-7.04
X14.2992Y-7.14
X14.2992Y-7.24
X14.2992Y-7.689
X14.2992Y-7.789
X14.2992Y-7.889
X14.2992Y-7.989
X14.2992Y-8.089
X14.2992Y-8.189
X14.2992Y-8.3394
X14.2992Y-8.4394
X14.2992Y-8.5394
X14.2992Y-8.6394
X14.2992Y-8.7394
X14.2992Y-8.8394
X14.2992Y-8.9394
X14.2992Y-9.0394
X14.2996Y-2.304
X14.2996Y-2.404
X14.2996Y-2.504
X14.2996Y-2.604
X14.2996Y-2.704
X14.2996Y-2.804
X14.2996Y-2.9544
X14.2996Y-3.0544
X14.2996Y-3.1544
X14.2996Y-3.2544
X14.2996Y-3.3544
X14.2996Y-3.4544
X14.2996Y-3.5544
X14.2996Y-3.6544
X14.2996Y-4.754
X14.2996Y-4.854
X14.2996Y-4.954
X14.2996Y-5.054
X14.2996Y-5.154
X14.2996Y-5.254
X14.2996Y-5.354
X14.2996Y-5.454
X14.5992Y-4.104
X14.5992Y-4.204
X14.5992Y-4.304
X14.5992Y-4.404
X14.5992Y-4.504
X14.5992Y-4.604
X14.5992Y-5.89
X14.5992Y-5.99
X14.5992Y-6.09
X14.5992Y-6.19
X14.5992Y-6.29
X14.5992Y-6.39
X14.5992Y-6.54
X14.5992Y-6.64
X14.5992Y-6.74
X14.5992Y-6.84
X14.5992Y-6.94
X14.5992Y-7.04
X14.5992Y-7.14
X14.5992Y-7.24
X14.5992Y-7.689
X14.5992Y-7.789
X14.5992Y-7.889
X14.5992Y-7.989
X14.5992Y-8.089
X14.5992Y-8.189
X14.5992Y-8.3394
X14.5992Y-8.4394
X14.5992Y-8.5394
X14.5992Y-8.6394
X14.5992Y-8.7394
X14.5992Y-8.8394
X14.5992Y-8.9394
X14.5992Y-9.0394
X14.5996Y-2.304
X14.5996Y-2.404
X14.5996Y-2.504
X14.5996Y-2.604
X14.5996Y-2.704
X14.5996Y-2.804
X14.5996Y-2.9544
X14.5996Y-3.0544
X14.5996Y-3.1544
X14.5996Y-3.2544
X14.5996Y-3.3544
X14.5996Y-3.4544
X14.5996Y-3.5544
X14.5996Y-3.6544
X14.5996Y-4.754
X14.5996Y-4.854
X14.5996Y-4.954
X14.5996Y-5.054
X14.5996Y-5.154
X14.5996Y-5.254
X14.5996Y-5.354
X14.5996Y-5.454
X14.6492Y-7.44
X14.6492Y-9.239
X14.6496Y-5.654
X14.65Y-3.854
X14.7242Y-5.89
X14.7242Y-5.99
X14.7242Y-6.09
X14.7242Y-6.19
X14.7242Y-6.29
X14.7242Y-6.39
X14.7242Y-6.54
X14.7242Y-6.64
X14.7242Y-6.74
X14.7242Y-6.84
X14.7242Y-6.94
X14.7242Y-7.04
X14.7242Y-7.14
X14.7242Y-7.24
X14.7242Y-7.689
X14.7242Y-7.789
X14.7242Y-7.889
X14.7242Y-7.989
X14.7242Y-8.089
X14.7242Y-8.189
X14.7242Y-8.339
X14.7242Y-8.439
X14.7242Y-8.539
X14.7242Y-8.639
X14.7242Y-8.739
X14.7242Y-8.839
X14.7242Y-8.939
X14.7242Y-9.039
X14.7246Y-2.304
X14.7246Y-2.404
X14.7246Y-2.504
X14.7246Y-2.604
X14.7246Y-2.704
X14.7246Y-2.804
X14.7246Y-2.954
X14.7246Y-3.054
X14.7246Y-3.154
X14.7246Y-3.254
X14.7246Y-3.354
X14.7246Y-3.454
X14.7246Y-3.554
X14.7246Y-3.654
X14.7246Y-4.104
X14.7246Y-4.204
X14.7246Y-4.304
X14.7246Y-4.404
X14.7246Y-4.504
X14.7246Y-4.604
X14.7246Y-4.754
X14.7246Y-4.854
X14.7246Y-4.954
X14.7246Y-5.054
X14.7246Y-5.154
X14.7246Y-5.254
X14.7246Y-5.354
X14.7246Y-5.454
X15.0242Y-5.89
X15.0242Y-5.99
X15.0242Y-6.09
X15.0242Y-6.19
X15.0242Y-6.29
X15.0242Y-6.39
X15.0242Y-6.54
X15.0242Y-6.64
X15.0242Y-6.74
X15.0242Y-6.84
X15.0242Y-6.94
X15.0242Y-7.04
X15.0242Y-7.14
X15.0242Y-7.24
X15.0242Y-7.689
X15.0242Y-7.789
X15.0242Y-7.889
X15.0242Y-7.989
X15.0242Y-8.089
X15.0242Y-8.189
X15.0242Y-8.339
X15.0242Y-8.439
X15.0242Y-8.539
X15.0242Y-8.639
X15.0242Y-8.739
X15.0242Y-8.839
X15.0242Y-8.939
X15.0242Y-9.039
X15.0246Y-2.304
X15.0246Y-2.404
X15.0246Y-2.504
X15.0246Y-2.604
X15.0246Y-2.704
X15.0246Y-2.804
X15.0246Y-2.954
X15.0246Y-3.054
X15.0246Y-3.154
X15.0246Y-3.254
X15.0246Y-3.354
X15.0246Y-3.454
X15.0246Y-3.554
X15.0246Y-3.654
X15.0246Y-4.104
X15.0246Y-4.204
X15.0246Y-4.304
X15.0246Y-4.404
X15.0246Y-4.504
X15.0246Y-4.604
X15.0246Y-4.754
X15.0246Y-4.854
X15.0246Y-4.954
X15.0246Y-5.054
X15.0246Y-5.154
X15.0246Y-5.254
X15.0246Y-5.354
X15.0246Y-5.454
X15.7Y-5.4
X15.7Y-5.5
X15.7Y-5.6
X15.7Y-5.7
X15.7Y-5.8
X15.7Y-5.9
X15.7Y-6.0
X15.7Y-6.1
X15.7004Y-6.4996
X15.7004Y-6.5996
X15.7004Y-6.6996
X15.7004Y-6.7996
X15.7004Y-6.8996
X15.7004Y-6.9996
X15.7004Y-7.0996
X15.7004Y-7.1996
X15.7904Y-5.2206
X15.7904Y-6.3202
X15.8888Y-5.2206
X15.8888Y-6.3202
X16.0Y-5.4
X16.0Y-5.5
X16.0Y-5.6
X16.0Y-5.7
X16.0Y-5.8
X16.0Y-5.9
X16.0Y-6.0
X16.0Y-6.1
X16.0004Y-6.4996
X16.0004Y-6.5996
X16.0004Y-6.6996
X16.0004Y-6.7996
X16.0004Y-6.8996
X16.0004Y-6.9996
X16.0004Y-7.0996
X16.0004Y-7.1996
X16.125Y-7.925
X16.125Y-8.0234
X16.3Y-7.825
X16.3Y-8.125
X16.4Y-7.825
X16.4Y-8.125
X16.5Y-7.825
X16.5Y-8.125
X16.6Y-7.825
X16.6Y-8.125
X16.7Y-7.825
X16.7Y-8.125
X16.8Y-7.825
X16.8Y-8.125
X16.9Y-7.825
X16.9Y-8.125
X17.1Y-7.925
X17.1Y-8.0234
X17.275Y-7.825
X17.275Y-8.125
X17.375Y-7.825
X17.375Y-8.125
X17.475Y-7.825
X17.475Y-8.125
X17.575Y-7.825
X17.575Y-8.125
X17.675Y-7.825
X17.675Y-8.125
X17.775Y-7.825
X17.775Y-8.125
X17.875Y-7.825
X17.875Y-8.125
T3
X11.7482Y-9.239
X11.75Y-3.854
X11.75Y-7.44
X11.7502Y-5.654
X11.8482Y-9.239
X11.85Y-3.854
X11.85Y-7.44
X11.8502Y-5.654
X12.75Y-7.44
X12.7502Y-3.85
X12.7502Y-9.239
X12.7504Y-5.654
X12.85Y-7.44
X12.8502Y-3.85
X12.8502Y-9.239
X12.8504Y-5.654
X13.75Y-3.854
X13.75Y-7.44
X13.75Y-9.239
X13.7504Y-5.654
X13.85Y-3.854
X13.85Y-7.44
X13.85Y-9.239
X13.8504Y-5.654
X14.7492Y-7.44
X14.7492Y-9.239
X14.7496Y-5.654
X14.75Y-3.854
X14.8492Y-7.44
X14.8492Y-9.239
X14.8496Y-5.654
X14.85Y-3.854
T4
X17.905Y-2.756
X17.905Y-2.856
X17.905Y-2.956
X17.905Y-3.056
X17.905Y-3.156
X17.905Y-3.256
X17.905Y-3.356
X17.905Y-3.456
X17.905Y-3.556
X17.905Y-3.656
X17.905Y-3.756
X17.905Y-3.856
X17.905Y-3.956
X17.905Y-4.056
X17.905Y-4.156
X17.905Y-4.256
X17.905Y-4.356
X17.906Y-5.368
X17.906Y-5.468
X17.906Y-5.568
X17.906Y-5.668
X17.906Y-5.768
X17.906Y-5.868
X17.906Y-5.968
X17.906Y-6.068
X17.906Y-6.168
X17.906Y-6.268
X17.906Y-6.368
X17.906Y-6.468
X17.906Y-6.568
X17.906Y-6.668
X17.906Y-6.768
X17.906Y-6.868
X17.906Y-6.968
X18.005Y-2.756
X18.005Y-2.856
X18.005Y-2.956
X18.005Y-3.056
X18.005Y-3.156
X18.005Y-3.256
X18.005Y-3.356
X18.005Y-3.456
X18.005Y-3.556
X18.005Y-3.656
X18.005Y-3.756
X18.005Y-3.856
X18.005Y-3.956
X18.005Y-4.056
X18.005Y-4.156
X18.005Y-4.256
X18.005Y-4.356
X18.006Y-5.368
X18.006Y-5.468
X18.006Y-5.568
X18.006Y-5.668
X18.006Y-5.768
X18.006Y-5.868
X18.006Y-5.968
X18.006Y-6.068
X18.006Y-6.168
X18.006Y-6.268
X18.006Y-6.368
X18.006Y-6.468
X18.006Y-6.568
X18.006Y-6.668
X18.006Y-6.768
X18.006Y-6.868
X18.006Y-6.968
T0
M30
