%TF.GenerationSoftware,KiCad,Pcbnew,7.0.7*%
%TF.CreationDate,2023-10-25T17:19:31+09:00*%
%TF.ProjectId,rom2_,726f6d32-5f2e-46b6-9963-61645f706362,rev?*%
%TF.SameCoordinates,Original*%
%TF.FileFunction,Copper,L1,Top*%
%TF.FilePolarity,Positive*%
%FSLAX46Y46*%
G04 Gerber Fmt 4.6, Leading zero omitted, Abs format (unit mm)*
G04 Created by KiCad (PCBNEW 7.0.7) date 2023-10-25 17:19:31*
%MOMM*%
%LPD*%
G01*
G04 APERTURE LIST*
%TA.AperFunction,ComponentPad*%
%ADD10R,1.600000X1.600000*%
%TD*%
%TA.AperFunction,ComponentPad*%
%ADD11O,1.600000X1.600000*%
%TD*%
%TA.AperFunction,ComponentPad*%
%ADD12R,1.800000X1.800000*%
%TD*%
%TA.AperFunction,ComponentPad*%
%ADD13C,1.800000*%
%TD*%
%TA.AperFunction,ComponentPad*%
%ADD14C,1.600000*%
%TD*%
%TA.AperFunction,ComponentPad*%
%ADD15R,1.700000X1.700000*%
%TD*%
%TA.AperFunction,ComponentPad*%
%ADD16O,1.700000X1.700000*%
%TD*%
%TA.AperFunction,ViaPad*%
%ADD17C,0.800000*%
%TD*%
%TA.AperFunction,Conductor*%
%ADD18C,0.250000*%
%TD*%
%TA.AperFunction,Conductor*%
%ADD19C,0.750000*%
%TD*%
G04 APERTURE END LIST*
D10*
%TO.P,SW4,1*%
%TO.N,Net-(D20-A)*%
X345430000Y-208000600D03*
D11*
%TO.P,SW4,2*%
%TO.N,Net-(D22-A)*%
X345430000Y-205460600D03*
%TO.P,SW4,3*%
%TO.N,Net-(D24-A)*%
X345430000Y-202920600D03*
%TO.P,SW4,4*%
%TO.N,Net-(D26-A)*%
X345430000Y-200380600D03*
%TO.P,SW4,5*%
%TO.N,Net-(D28-A)*%
X345430000Y-197840600D03*
%TO.P,SW4,6*%
%TO.N,Net-(D30-A)*%
X345430000Y-195300600D03*
%TO.P,SW4,7*%
%TO.N,2Im0*%
X337810000Y-195300600D03*
%TO.P,SW4,8*%
%TO.N,2Im1*%
X337810000Y-197840600D03*
%TO.P,SW4,9*%
%TO.N,2Im2*%
X337810000Y-200380600D03*
%TO.P,SW4,10*%
%TO.N,2Im3*%
X337810000Y-202920600D03*
%TO.P,SW4,11*%
%TO.N,2Im4*%
X337810000Y-205460600D03*
%TO.P,SW4,12*%
%TO.N,2Im5*%
X337810000Y-208000600D03*
%TD*%
D12*
%TO.P,D1,1,K*%
%TO.N,Net-(D1-K)*%
X300944200Y-234670600D03*
D13*
%TO.P,D1,2,A*%
%TO.N,Net-(D1-A)*%
X298404200Y-234670600D03*
%TD*%
D14*
%TO.P,R10,1*%
%TO.N,+5V*%
X361930000Y-234670600D03*
D11*
%TO.P,R10,2*%
%TO.N,Net-(D122-A)*%
X372090000Y-234670600D03*
%TD*%
D10*
%TO.P,D203,1,K*%
%TO.N,Net-(D181-K)*%
X381625000Y-111861600D03*
D11*
%TO.P,D203,2,A*%
%TO.N,Net-(D203-A)*%
X374005000Y-111861600D03*
%TD*%
D10*
%TO.P,D231,1,K*%
%TO.N,Net-(D211-K)*%
X381625000Y-68681600D03*
D11*
%TO.P,D231,2,A*%
%TO.N,Net-(D231-A)*%
X374005000Y-68681600D03*
%TD*%
D10*
%TO.P,D171,1,K*%
%TO.N,Net-(D151-K)*%
X330835000Y-159766000D03*
D11*
%TO.P,D171,2,A*%
%TO.N,Net-(D171-A)*%
X323215000Y-159766000D03*
%TD*%
D15*
%TO.P,J1,1,Pin_1*%
%TO.N,2oc3*%
X454812400Y-136347200D03*
D16*
%TO.P,J1,2,Pin_2*%
%TO.N,2oc2*%
X457352400Y-136347200D03*
%TO.P,J1,3,Pin_3*%
%TO.N,2oc1*%
X454812400Y-138887200D03*
%TO.P,J1,4,Pin_4*%
%TO.N,2oc0*%
X457352400Y-138887200D03*
%TO.P,J1,5,Pin_5*%
%TO.N,2ol3*%
X454812400Y-141427200D03*
%TO.P,J1,6,Pin_6*%
%TO.N,2ol2*%
X457352400Y-141427200D03*
%TO.P,J1,7,Pin_7*%
%TO.N,2ol1*%
X454812400Y-143967200D03*
%TO.P,J1,8,Pin_8*%
%TO.N,2ol0*%
X457352400Y-143967200D03*
%TO.P,J1,9,Pin_9*%
%TO.N,2Im5*%
X454812400Y-146507200D03*
%TO.P,J1,10,Pin_10*%
%TO.N,2Im4*%
X457352400Y-146507200D03*
%TO.P,J1,11,Pin_11*%
%TO.N,2Im3*%
X454812400Y-149047200D03*
%TO.P,J1,12,Pin_12*%
%TO.N,2Im2*%
X457352400Y-149047200D03*
%TO.P,J1,13,Pin_13*%
%TO.N,2Im1*%
X454812400Y-151587200D03*
%TO.P,J1,14,Pin_14*%
%TO.N,2Im0*%
X457352400Y-151587200D03*
%TO.P,J1,15,Pin_15*%
%TO.N,unconnected-(J1-Pin_15-Pad15)*%
X454812400Y-154127200D03*
%TO.P,J1,16,Pin_16*%
%TO.N,unconnected-(J1-Pin_16-Pad16)*%
X457352400Y-154127200D03*
%TO.P,J1,17,Pin_17*%
%TO.N,unconnected-(J1-Pin_17-Pad17)*%
X454812400Y-156667200D03*
%TO.P,J1,18,Pin_18*%
%TO.N,unconnected-(J1-Pin_18-Pad18)*%
X457352400Y-156667200D03*
%TO.P,J1,19,Pin_19*%
%TO.N,unconnected-(J1-Pin_19-Pad19)*%
X454812400Y-159207200D03*
%TO.P,J1,20,Pin_20*%
%TO.N,unconnected-(J1-Pin_20-Pad20)*%
X457352400Y-159207200D03*
%TO.P,J1,21,Pin_21*%
%TO.N,unconnected-(J1-Pin_21-Pad21)*%
X454812400Y-161747200D03*
%TO.P,J1,22,Pin_22*%
%TO.N,unconnected-(J1-Pin_22-Pad22)*%
X457352400Y-161747200D03*
%TO.P,J1,23,Pin_23*%
%TO.N,unconnected-(J1-Pin_23-Pad23)*%
X454812400Y-164287200D03*
%TO.P,J1,24,Pin_24*%
%TO.N,unconnected-(J1-Pin_24-Pad24)*%
X457352400Y-164287200D03*
%TO.P,J1,25,Pin_25*%
%TO.N,unconnected-(J1-Pin_25-Pad25)*%
X454812400Y-166827200D03*
%TO.P,J1,26,Pin_26*%
%TO.N,unconnected-(J1-Pin_26-Pad26)*%
X457352400Y-166827200D03*
%TO.P,J1,27,Pin_27*%
%TO.N,unconnected-(J1-Pin_27-Pad27)*%
X454812400Y-169367200D03*
%TO.P,J1,28,Pin_28*%
%TO.N,unconnected-(J1-Pin_28-Pad28)*%
X457352400Y-169367200D03*
%TO.P,J1,29,Pin_29*%
%TO.N,unconnected-(J1-Pin_29-Pad29)*%
X454812400Y-171907200D03*
%TO.P,J1,30,Pin_30*%
%TO.N,unconnected-(J1-Pin_30-Pad30)*%
X457352400Y-171907200D03*
%TO.P,J1,31,Pin_31*%
%TO.N,unconnected-(J1-Pin_31-Pad31)*%
X454812400Y-174447200D03*
%TO.P,J1,32,Pin_32*%
%TO.N,unconnected-(J1-Pin_32-Pad32)*%
X457352400Y-174447200D03*
%TO.P,J1,33,Pin_33*%
%TO.N,unconnected-(J1-Pin_33-Pad33)*%
X454812400Y-176987200D03*
%TO.P,J1,34,Pin_34*%
%TO.N,unconnected-(J1-Pin_34-Pad34)*%
X457352400Y-176987200D03*
%TD*%
D10*
%TO.P,D14,1,K*%
%TO.N,Net-(D10-K)*%
X356227231Y-216909136D03*
D11*
%TO.P,D14,2,A*%
%TO.N,Net-(D14-A)*%
X348607231Y-216909136D03*
%TD*%
D10*
%TO.P,SW6,1*%
%TO.N,Net-(D34-A)*%
X345430000Y-183896000D03*
D11*
%TO.P,SW6,2*%
%TO.N,Net-(D36-A)*%
X345430000Y-181356000D03*
%TO.P,SW6,3*%
%TO.N,Net-(D38-A)*%
X345430000Y-178816000D03*
%TO.P,SW6,4*%
%TO.N,Net-(D40-A)*%
X345430000Y-176276000D03*
%TO.P,SW6,5*%
%TO.N,Net-(D42-A)*%
X345430000Y-173736000D03*
%TO.P,SW6,6*%
%TO.N,Net-(D44-A)*%
X345430000Y-171196000D03*
%TO.P,SW6,7*%
%TO.N,Net-(D46-A)*%
X345430000Y-168656000D03*
%TO.P,SW6,8*%
%TO.N,Net-(D48-A)*%
X345430000Y-166116000D03*
%TO.P,SW6,9*%
%TO.N,2ol0*%
X337810000Y-166116000D03*
%TO.P,SW6,10*%
%TO.N,2ol1*%
X337810000Y-168656000D03*
%TO.P,SW6,11*%
%TO.N,2ol2*%
X337810000Y-171196000D03*
%TO.P,SW6,12*%
%TO.N,2ol3*%
X337810000Y-173736000D03*
%TO.P,SW6,13*%
%TO.N,2oc0*%
X337810000Y-176276000D03*
%TO.P,SW6,14*%
%TO.N,2oc1*%
X337810000Y-178816000D03*
%TO.P,SW6,15*%
%TO.N,2oc2*%
X337810000Y-181356000D03*
%TO.P,SW6,16*%
%TO.N,2oc3*%
X337810000Y-183896000D03*
%TD*%
D10*
%TO.P,D59,1,K*%
%TO.N,Net-(D31-K)*%
X305384200Y-149606000D03*
D11*
%TO.P,D59,2,A*%
%TO.N,Net-(D59-A)*%
X297764200Y-149606000D03*
%TD*%
D10*
%TO.P,D46,1,K*%
%TO.N,Net-(D32-K)*%
X356225000Y-168656000D03*
D11*
%TO.P,D46,2,A*%
%TO.N,Net-(D46-A)*%
X348605000Y-168656000D03*
%TD*%
D10*
%TO.P,D50,1,K*%
%TO.N,Net-(D32-K)*%
X356225000Y-162306000D03*
D11*
%TO.P,D50,2,A*%
%TO.N,Net-(D50-A)*%
X348605000Y-162306000D03*
%TD*%
D10*
%TO.P,D202,1,K*%
%TO.N,Net-(D182-K)*%
X330845000Y-114401600D03*
D11*
%TO.P,D202,2,A*%
%TO.N,Net-(D202-A)*%
X323225000Y-114401600D03*
%TD*%
D10*
%TO.P,D145,1,K*%
%TO.N,Net-(D121-K)*%
X330835000Y-200380600D03*
D11*
%TO.P,D145,2,A*%
%TO.N,Net-(D145-A)*%
X323215000Y-200380600D03*
%TD*%
D10*
%TO.P,D22,1,K*%
%TO.N,Net-(D10-K)*%
X356213363Y-205449923D03*
D11*
%TO.P,D22,2,A*%
%TO.N,Net-(D22-A)*%
X348593363Y-205449923D03*
%TD*%
D10*
%TO.P,D156,1,K*%
%TO.N,Net-(D152-K)*%
X381615000Y-181356000D03*
D11*
%TO.P,D156,2,A*%
%TO.N,Net-(D156-A)*%
X373995000Y-181356000D03*
%TD*%
D10*
%TO.P,D77,1,K*%
%TO.N,Net-(D61-K)*%
X305394200Y-120751600D03*
D11*
%TO.P,D77,2,A*%
%TO.N,Net-(D77-A)*%
X297774200Y-120751600D03*
%TD*%
D10*
%TO.P,U1,1*%
%TO.N,pc3*%
X429260000Y-198755000D03*
D11*
%TO.P,U1,2*%
%TO.N,Net-(U1-Pad2)*%
X426720000Y-198755000D03*
%TO.P,U1,3*%
%TO.N,GND*%
X424180000Y-198755000D03*
%TO.P,U1,4*%
%TO.N,unconnected-(U1-Pad4)*%
X421640000Y-198755000D03*
%TO.P,U1,5*%
%TO.N,GND*%
X419100000Y-198755000D03*
%TO.P,U1,6*%
%TO.N,unconnected-(U1-Pad6)*%
X416560000Y-198755000D03*
%TO.P,U1,7,GND*%
%TO.N,GND*%
X414020000Y-198755000D03*
%TO.P,U1,8*%
%TO.N,unconnected-(U1-Pad8)*%
X414020000Y-206375000D03*
%TO.P,U1,9*%
%TO.N,GND*%
X416560000Y-206375000D03*
%TO.P,U1,10*%
%TO.N,unconnected-(U1-Pad10)*%
X419100000Y-206375000D03*
%TO.P,U1,11*%
%TO.N,GND*%
X421640000Y-206375000D03*
%TO.P,U1,12*%
%TO.N,unconnected-(U1-Pad12)*%
X424180000Y-206375000D03*
%TO.P,U1,13*%
%TO.N,GND*%
X426720000Y-206375000D03*
%TO.P,U1,14,Vcc*%
%TO.N,+5V*%
X429260000Y-206375000D03*
%TD*%
D10*
%TO.P,SW2,1*%
%TO.N,Net-(D4-A)*%
X345430000Y-229590600D03*
D11*
%TO.P,SW2,2*%
%TO.N,Net-(D6-A)*%
X345430000Y-227050600D03*
%TO.P,SW2,3*%
%TO.N,Net-(D8-A)*%
X345430000Y-224510600D03*
%TO.P,SW2,4*%
%TO.N,Net-(D10-A)*%
X345430000Y-221970600D03*
%TO.P,SW2,5*%
%TO.N,Net-(D12-A)*%
X345430000Y-219430600D03*
%TO.P,SW2,6*%
%TO.N,Net-(D14-A)*%
X345430000Y-216890600D03*
%TO.P,SW2,7*%
%TO.N,Net-(D16-A)*%
X345430000Y-214350600D03*
%TO.P,SW2,8*%
%TO.N,Net-(D18-A)*%
X345430000Y-211810600D03*
%TO.P,SW2,9*%
%TO.N,2ol0*%
X337810000Y-211810600D03*
%TO.P,SW2,10*%
%TO.N,2ol1*%
X337810000Y-214350600D03*
%TO.P,SW2,11*%
%TO.N,2ol2*%
X337810000Y-216890600D03*
%TO.P,SW2,12*%
%TO.N,2ol3*%
X337810000Y-219430600D03*
%TO.P,SW2,13*%
%TO.N,2oc0*%
X337810000Y-221970600D03*
%TO.P,SW2,14*%
%TO.N,2oc1*%
X337810000Y-224510600D03*
%TO.P,SW2,15*%
%TO.N,2oc2*%
X337810000Y-227050600D03*
%TO.P,SW2,16*%
%TO.N,2oc3*%
X337810000Y-229590600D03*
%TD*%
D14*
%TO.P,R2,1*%
%TO.N,+5V*%
X336540000Y-234670600D03*
D11*
%TO.P,R2,2*%
%TO.N,Net-(D2-A)*%
X346700000Y-234670600D03*
%TD*%
D14*
%TO.P,R5,1*%
%TO.N,+5V*%
X285750000Y-143611600D03*
D11*
%TO.P,R5,2*%
%TO.N,Net-(D61-A)*%
X295910000Y-143611600D03*
%TD*%
D12*
%TO.P,D32,1,K*%
%TO.N,Net-(D32-K)*%
X351790000Y-188976000D03*
D13*
%TO.P,D32,2,A*%
%TO.N,Net-(D32-A)*%
X349250000Y-188976000D03*
%TD*%
D10*
%TO.P,D98,1,K*%
%TO.N,Net-(D100-K)*%
X356235000Y-87731600D03*
D11*
%TO.P,D98,2,A*%
%TO.N,Net-(D98-A)*%
X348615000Y-87731600D03*
%TD*%
D14*
%TO.P,C4,1*%
%TO.N,+5V*%
X434340000Y-203795000D03*
%TO.P,C4,2*%
%TO.N,GND*%
X434340000Y-201295000D03*
%TD*%
D10*
%TO.P,D72,1,K*%
%TO.N,Net-(D62-K)*%
X356235000Y-128371600D03*
D11*
%TO.P,D72,2,A*%
%TO.N,Net-(D72-A)*%
X348615000Y-128371600D03*
%TD*%
D12*
%TO.P,D92,1,K*%
%TO.N,Net-(D100-K)*%
X351790000Y-97891600D03*
D13*
%TO.P,D92,2,A*%
%TO.N,Net-(D92-A)*%
X349250000Y-97891600D03*
%TD*%
D10*
%TO.P,D101,1,K*%
%TO.N,Net-(D101-K)*%
X305394200Y-82651600D03*
D11*
%TO.P,D101,2,A*%
%TO.N,Net-(D101-A)*%
X297774200Y-82651600D03*
%TD*%
D10*
%TO.P,D105,1,K*%
%TO.N,Net-(D101-K)*%
X305394200Y-77571600D03*
D11*
%TO.P,D105,2,A*%
%TO.N,Net-(D105-A)*%
X297774200Y-77571600D03*
%TD*%
D10*
%TO.P,D177,1,K*%
%TO.N,Net-(D151-K)*%
X330835000Y-152146000D03*
D11*
%TO.P,D177,2,A*%
%TO.N,Net-(D177-A)*%
X323215000Y-152146000D03*
%TD*%
D10*
%TO.P,SW18,1*%
%TO.N,Net-(D124-A)*%
X370820000Y-229600600D03*
D11*
%TO.P,SW18,2*%
%TO.N,Net-(D126-A)*%
X370820000Y-227060600D03*
%TO.P,SW18,3*%
%TO.N,Net-(D128-A)*%
X370820000Y-224520600D03*
%TO.P,SW18,4*%
%TO.N,Net-(D130-A)*%
X370820000Y-221980600D03*
%TO.P,SW18,5*%
%TO.N,Net-(D132-A)*%
X370820000Y-219440600D03*
%TO.P,SW18,6*%
%TO.N,Net-(D134-A)*%
X370820000Y-216900600D03*
%TO.P,SW18,7*%
%TO.N,Net-(D136-A)*%
X370820000Y-214360600D03*
%TO.P,SW18,8*%
%TO.N,Net-(D138-A)*%
X370820000Y-211820600D03*
%TO.P,SW18,9*%
%TO.N,2ol0*%
X363200000Y-211820600D03*
%TO.P,SW18,10*%
%TO.N,2ol1*%
X363200000Y-214360600D03*
%TO.P,SW18,11*%
%TO.N,2ol2*%
X363200000Y-216900600D03*
%TO.P,SW18,12*%
%TO.N,2ol3*%
X363200000Y-219440600D03*
%TO.P,SW18,13*%
%TO.N,2oc0*%
X363200000Y-221980600D03*
%TO.P,SW18,14*%
%TO.N,2oc1*%
X363200000Y-224520600D03*
%TO.P,SW18,15*%
%TO.N,2oc2*%
X363200000Y-227060600D03*
%TO.P,SW18,16*%
%TO.N,2oc3*%
X363200000Y-229600600D03*
%TD*%
D12*
%TO.P,D152,1,K*%
%TO.N,Net-(D152-K)*%
X377170000Y-188976000D03*
D13*
%TO.P,D152,2,A*%
%TO.N,Net-(D152-A)*%
X374630000Y-188976000D03*
%TD*%
D10*
%TO.P,D134,1,K*%
%TO.N,Net-(D122-K)*%
X381615000Y-216890600D03*
D11*
%TO.P,D134,2,A*%
%TO.N,Net-(D134-A)*%
X373995000Y-216890600D03*
%TD*%
D10*
%TO.P,D114,1,K*%
%TO.N,Net-(D100-K)*%
X356235000Y-66141600D03*
D11*
%TO.P,D114,2,A*%
%TO.N,Net-(D114-A)*%
X348615000Y-66141600D03*
%TD*%
D10*
%TO.P,D186,1,K*%
%TO.N,Net-(D182-K)*%
X330845000Y-135991600D03*
D11*
%TO.P,D186,2,A*%
%TO.N,Net-(D186-A)*%
X323225000Y-135991600D03*
%TD*%
D10*
%TO.P,D214,1,K*%
%TO.N,Net-(D212-K)*%
X330845000Y-92811600D03*
D11*
%TO.P,D214,2,A*%
%TO.N,Net-(D214-A)*%
X323225000Y-92811600D03*
%TD*%
D10*
%TO.P,D210,1,K*%
%TO.N,Net-(D182-K)*%
X330845000Y-104241600D03*
D11*
%TO.P,D210,2,A*%
%TO.N,Net-(D210-A)*%
X323225000Y-104241600D03*
%TD*%
D12*
%TO.P,D2,1,K*%
%TO.N,Net-(D10-K)*%
X351790000Y-234670600D03*
D13*
%TO.P,D2,2,A*%
%TO.N,Net-(D2-A)*%
X349250000Y-234670600D03*
%TD*%
D10*
%TO.P,D10,1,K*%
%TO.N,Net-(D10-K)*%
X356227231Y-221989136D03*
D11*
%TO.P,D10,2,A*%
%TO.N,Net-(D10-A)*%
X348607231Y-221989136D03*
%TD*%
D10*
%TO.P,SW28,1*%
%TO.N,Net-(D200-A)*%
X320050000Y-116941600D03*
D11*
%TO.P,SW28,2*%
%TO.N,Net-(D202-A)*%
X320050000Y-114401600D03*
%TO.P,SW28,3*%
%TO.N,Net-(D204-A)*%
X320050000Y-111861600D03*
%TO.P,SW28,4*%
%TO.N,Net-(D206-A)*%
X320050000Y-109321600D03*
%TO.P,SW28,5*%
%TO.N,Net-(D208-A)*%
X320050000Y-106781600D03*
%TO.P,SW28,6*%
%TO.N,Net-(D210-A)*%
X320050000Y-104241600D03*
%TO.P,SW28,7*%
%TO.N,2Im0*%
X312430000Y-104241600D03*
%TO.P,SW28,8*%
%TO.N,2Im1*%
X312430000Y-106781600D03*
%TO.P,SW28,9*%
%TO.N,2Im2*%
X312430000Y-109321600D03*
%TO.P,SW28,10*%
%TO.N,2Im3*%
X312430000Y-111861600D03*
%TO.P,SW28,11*%
%TO.N,2Im4*%
X312430000Y-114401600D03*
%TO.P,SW28,12*%
%TO.N,2Im5*%
X312430000Y-116941600D03*
%TD*%
D10*
%TO.P,D111,1,K*%
%TO.N,Net-(D101-K)*%
X305394200Y-68681600D03*
D11*
%TO.P,D111,2,A*%
%TO.N,Net-(D111-A)*%
X297774200Y-68681600D03*
%TD*%
D14*
%TO.P,R12,1*%
%TO.N,+5V*%
X361930000Y-188976000D03*
D11*
%TO.P,R12,2*%
%TO.N,Net-(D152-A)*%
X372090000Y-188976000D03*
%TD*%
D10*
%TO.P,SW26,1*%
%TO.N,Net-(D184-A)*%
X320050000Y-138531600D03*
D11*
%TO.P,SW26,2*%
%TO.N,Net-(D186-A)*%
X320050000Y-135991600D03*
%TO.P,SW26,3*%
%TO.N,Net-(D188-A)*%
X320050000Y-133451600D03*
%TO.P,SW26,4*%
%TO.N,Net-(D190-A)*%
X320050000Y-130911600D03*
%TO.P,SW26,5*%
%TO.N,Net-(D192-A)*%
X320050000Y-128371600D03*
%TO.P,SW26,6*%
%TO.N,Net-(D194-A)*%
X320050000Y-125831600D03*
%TO.P,SW26,7*%
%TO.N,Net-(D196-A)*%
X320050000Y-123291600D03*
%TO.P,SW26,8*%
%TO.N,Net-(D198-A)*%
X320050000Y-120751600D03*
%TO.P,SW26,9*%
%TO.N,2ol0*%
X312430000Y-120751600D03*
%TO.P,SW26,10*%
%TO.N,2ol1*%
X312430000Y-123291600D03*
%TO.P,SW26,11*%
%TO.N,2ol2*%
X312430000Y-125831600D03*
%TO.P,SW26,12*%
%TO.N,2ol3*%
X312430000Y-128371600D03*
%TO.P,SW26,13*%
%TO.N,2oc0*%
X312430000Y-130911600D03*
%TO.P,SW26,14*%
%TO.N,2oc1*%
X312430000Y-133451600D03*
%TO.P,SW26,15*%
%TO.N,2oc2*%
X312430000Y-135991600D03*
%TO.P,SW26,16*%
%TO.N,2oc3*%
X312430000Y-138531600D03*
%TD*%
D10*
%TO.P,D168,1,K*%
%TO.N,Net-(D152-K)*%
X381615000Y-166116000D03*
D11*
%TO.P,D168,2,A*%
%TO.N,Net-(D168-A)*%
X373995000Y-166116000D03*
%TD*%
D12*
%TO.P,D62,1,K*%
%TO.N,Net-(D62-K)*%
X351800000Y-143611600D03*
D13*
%TO.P,D62,2,A*%
%TO.N,Net-(D62-A)*%
X349260000Y-143611600D03*
%TD*%
D10*
%TO.P,SW20,1*%
%TO.N,Net-(D140-A)*%
X370820000Y-208000600D03*
D11*
%TO.P,SW20,2*%
%TO.N,Net-(D142-A)*%
X370820000Y-205460600D03*
%TO.P,SW20,3*%
%TO.N,Net-(D144-A)*%
X370820000Y-202920600D03*
%TO.P,SW20,4*%
%TO.N,Net-(D146-A)*%
X370820000Y-200380600D03*
%TO.P,SW20,5*%
%TO.N,Net-(D148-A)*%
X370820000Y-197840600D03*
%TO.P,SW20,6*%
%TO.N,Net-(D150-A)*%
X370820000Y-195300600D03*
%TO.P,SW20,7*%
%TO.N,2Im0*%
X363200000Y-195300600D03*
%TO.P,SW20,8*%
%TO.N,2Im1*%
X363200000Y-197840600D03*
%TO.P,SW20,9*%
%TO.N,2Im2*%
X363200000Y-200380600D03*
%TO.P,SW20,10*%
%TO.N,2Im3*%
X363200000Y-202920600D03*
%TO.P,SW20,11*%
%TO.N,2Im4*%
X363200000Y-205460600D03*
%TO.P,SW20,12*%
%TO.N,2Im5*%
X363200000Y-208000600D03*
%TD*%
D10*
%TO.P,D7,1,K*%
%TO.N,Net-(D1-K)*%
X305348058Y-224572396D03*
D11*
%TO.P,D7,2,A*%
%TO.N,Net-(D7-A)*%
X297728058Y-224572396D03*
%TD*%
D10*
%TO.P,D184,1,K*%
%TO.N,Net-(D182-K)*%
X330845000Y-138531600D03*
D11*
%TO.P,D184,2,A*%
%TO.N,Net-(D184-A)*%
X323225000Y-138531600D03*
%TD*%
D10*
%TO.P,D238,1,K*%
%TO.N,Net-(D212-K)*%
X330845000Y-61061600D03*
D11*
%TO.P,D238,2,A*%
%TO.N,Net-(D238-A)*%
X323225000Y-61061600D03*
%TD*%
D10*
%TO.P,D123,1,K*%
%TO.N,Net-(D121-K)*%
X330835000Y-229590600D03*
D11*
%TO.P,D123,2,A*%
%TO.N,Net-(D123-A)*%
X323215000Y-229590600D03*
%TD*%
D10*
%TO.P,D44,1,K*%
%TO.N,Net-(D32-K)*%
X356225000Y-171196000D03*
D11*
%TO.P,D44,2,A*%
%TO.N,Net-(D44-A)*%
X348605000Y-171196000D03*
%TD*%
D14*
%TO.P,R16,1*%
%TO.N,+5V*%
X311155000Y-97790000D03*
D11*
%TO.P,R16,2*%
%TO.N,Net-(D212-A)*%
X321315000Y-97790000D03*
%TD*%
D12*
%TO.P,D182,1,K*%
%TO.N,Net-(D182-K)*%
X326400000Y-143611600D03*
D13*
%TO.P,D182,2,A*%
%TO.N,Net-(D182-A)*%
X323860000Y-143611600D03*
%TD*%
D12*
%TO.P,D211,1,K*%
%TO.N,Net-(D211-K)*%
X377190000Y-97891600D03*
D13*
%TO.P,D211,2,A*%
%TO.N,Net-(D211-A)*%
X374650000Y-97891600D03*
%TD*%
D10*
%TO.P,D149,1,K*%
%TO.N,Net-(D121-K)*%
X330835000Y-195300600D03*
D11*
%TO.P,D149,2,A*%
%TO.N,Net-(D149-A)*%
X323215000Y-195300600D03*
%TD*%
D12*
%TO.P,D121,1,K*%
%TO.N,Net-(D121-K)*%
X326395000Y-234670600D03*
D13*
%TO.P,D121,2,A*%
%TO.N,Net-(D121-A)*%
X323855000Y-234670600D03*
%TD*%
D14*
%TO.P,C1,1*%
%TO.N,+5V*%
X401076000Y-160533400D03*
%TO.P,C1,2*%
%TO.N,GND*%
X403576000Y-160533400D03*
%TD*%
D10*
%TO.P,SW32,1*%
%TO.N,Net-(D230-A)*%
X320040000Y-71221600D03*
D11*
%TO.P,SW32,2*%
%TO.N,Net-(D232-A)*%
X320040000Y-68681600D03*
%TO.P,SW32,3*%
%TO.N,Net-(D234-A)*%
X320040000Y-66141600D03*
%TO.P,SW32,4*%
%TO.N,Net-(D236-A)*%
X320040000Y-63601600D03*
%TO.P,SW32,5*%
%TO.N,Net-(D238-A)*%
X320040000Y-61061600D03*
%TO.P,SW32,6*%
%TO.N,Net-(D240-A)*%
X320040000Y-58521600D03*
%TO.P,SW32,7*%
%TO.N,2Im0*%
X312420000Y-58521600D03*
%TO.P,SW32,8*%
%TO.N,2Im1*%
X312420000Y-61061600D03*
%TO.P,SW32,9*%
%TO.N,2Im2*%
X312420000Y-63601600D03*
%TO.P,SW32,10*%
%TO.N,2Im3*%
X312420000Y-66141600D03*
%TO.P,SW32,11*%
%TO.N,2Im4*%
X312420000Y-68681600D03*
%TO.P,SW32,12*%
%TO.N,2Im5*%
X312420000Y-71221600D03*
%TD*%
D10*
%TO.P,D16,1,K*%
%TO.N,Net-(D10-K)*%
X356227231Y-214369136D03*
D11*
%TO.P,D16,2,A*%
%TO.N,Net-(D16-A)*%
X348607231Y-214369136D03*
%TD*%
D10*
%TO.P,U3,1,A0*%
%TO.N,pc0*%
X406400000Y-154940000D03*
D11*
%TO.P,U3,2,A1*%
%TO.N,pc1*%
X406400000Y-152400000D03*
%TO.P,U3,3,A2*%
%TO.N,pc2*%
X406400000Y-149860000D03*
%TO.P,U3,4,~{E0}*%
%TO.N,GND*%
X406400000Y-147320000D03*
%TO.P,U3,5,~{E1}*%
X406400000Y-144780000D03*
%TO.P,U3,6,E2*%
%TO.N,Net-(U3-E2)*%
X406400000Y-142240000D03*
%TO.P,U3,7,~{Y7}*%
%TO.N,Net-(D212-K)*%
X406400000Y-139700000D03*
%TO.P,U3,8,GND*%
%TO.N,GND*%
X406400000Y-137160000D03*
%TO.P,U3,9,~{Y6}*%
%TO.N,Net-(D182-K)*%
X398780000Y-137160000D03*
%TO.P,U3,10,~{Y5}*%
%TO.N,Net-(D151-K)*%
X398780000Y-139700000D03*
%TO.P,U3,11,~{Y4}*%
%TO.N,Net-(D121-K)*%
X398780000Y-142240000D03*
%TO.P,U3,12,~{Y3}*%
%TO.N,Net-(D101-K)*%
X398780000Y-144780000D03*
%TO.P,U3,13,~{Y2}*%
%TO.N,Net-(D61-K)*%
X398780000Y-147320000D03*
%TO.P,U3,14,~{Y1}*%
%TO.N,Net-(D31-K)*%
X398780000Y-149860000D03*
%TO.P,U3,15,~{Y0}*%
%TO.N,Net-(D1-K)*%
X398780000Y-152400000D03*
%TO.P,U3,16,VCC*%
%TO.N,+5V*%
X398780000Y-154940000D03*
%TD*%
D10*
%TO.P,D52,1,K*%
%TO.N,Net-(D32-K)*%
X356225000Y-159766000D03*
D11*
%TO.P,D52,2,A*%
%TO.N,Net-(D52-A)*%
X348605000Y-159766000D03*
%TD*%
D10*
%TO.P,D196,1,K*%
%TO.N,Net-(D182-K)*%
X330845000Y-123291600D03*
D11*
%TO.P,D196,2,A*%
%TO.N,Net-(D196-A)*%
X323225000Y-123291600D03*
%TD*%
D10*
%TO.P,D221,1,K*%
%TO.N,Net-(D211-K)*%
X381625000Y-82651600D03*
D11*
%TO.P,D221,2,A*%
%TO.N,Net-(D221-A)*%
X374005000Y-82651600D03*
%TD*%
D10*
%TO.P,SW12,1*%
%TO.N,Net-(D80-A)*%
X345440000Y-116941600D03*
D11*
%TO.P,SW12,2*%
%TO.N,Net-(D82-A)*%
X345440000Y-114401600D03*
%TO.P,SW12,3*%
%TO.N,Net-(D84-A)*%
X345440000Y-111861600D03*
%TO.P,SW12,4*%
%TO.N,Net-(D86-A)*%
X345440000Y-109321600D03*
%TO.P,SW12,5*%
%TO.N,Net-(D88-A)*%
X345440000Y-106781600D03*
%TO.P,SW12,6*%
%TO.N,Net-(D90-A)*%
X345440000Y-104241600D03*
%TO.P,SW12,7*%
%TO.N,2Im0*%
X337820000Y-104241600D03*
%TO.P,SW12,8*%
%TO.N,2Im1*%
X337820000Y-106781600D03*
%TO.P,SW12,9*%
%TO.N,2Im2*%
X337820000Y-109321600D03*
%TO.P,SW12,10*%
%TO.N,2Im3*%
X337820000Y-111861600D03*
%TO.P,SW12,11*%
%TO.N,2Im4*%
X337820000Y-114401600D03*
%TO.P,SW12,12*%
%TO.N,2Im5*%
X337820000Y-116941600D03*
%TD*%
D10*
%TO.P,D224,1,K*%
%TO.N,Net-(D212-K)*%
X330845000Y-80111600D03*
D11*
%TO.P,D224,2,A*%
%TO.N,Net-(D224-A)*%
X323225000Y-80111600D03*
%TD*%
D10*
%TO.P,D135,1,K*%
%TO.N,Net-(D121-K)*%
X330835000Y-214350600D03*
D11*
%TO.P,D135,2,A*%
%TO.N,Net-(D135-A)*%
X323215000Y-214350600D03*
%TD*%
D10*
%TO.P,D86,1,K*%
%TO.N,Net-(D62-K)*%
X356235000Y-109321600D03*
D11*
%TO.P,D86,2,A*%
%TO.N,Net-(D86-A)*%
X348615000Y-109321600D03*
%TD*%
D10*
%TO.P,SW27,1*%
%TO.N,Net-(D199-A)*%
X370820000Y-116941600D03*
D11*
%TO.P,SW27,2*%
%TO.N,Net-(D201-A)*%
X370820000Y-114401600D03*
%TO.P,SW27,3*%
%TO.N,Net-(D203-A)*%
X370820000Y-111861600D03*
%TO.P,SW27,4*%
%TO.N,Net-(D205-A)*%
X370820000Y-109321600D03*
%TO.P,SW27,5*%
%TO.N,Net-(D207-A)*%
X370820000Y-106781600D03*
%TO.P,SW27,6*%
%TO.N,Net-(D209-A)*%
X370820000Y-104241600D03*
%TO.P,SW27,7*%
%TO.N,2Im0*%
X363200000Y-104241600D03*
%TO.P,SW27,8*%
%TO.N,2Im1*%
X363200000Y-106781600D03*
%TO.P,SW27,9*%
%TO.N,2Im2*%
X363200000Y-109321600D03*
%TO.P,SW27,10*%
%TO.N,2Im3*%
X363200000Y-111861600D03*
%TO.P,SW27,11*%
%TO.N,2Im4*%
X363200000Y-114401600D03*
%TO.P,SW27,12*%
%TO.N,2Im5*%
X363200000Y-116941600D03*
%TD*%
D10*
%TO.P,D130,1,K*%
%TO.N,Net-(D122-K)*%
X381615000Y-221970600D03*
D11*
%TO.P,D130,2,A*%
%TO.N,Net-(D130-A)*%
X373995000Y-221970600D03*
%TD*%
D10*
%TO.P,D3,1,K*%
%TO.N,Net-(D1-K)*%
X305348058Y-229622529D03*
D11*
%TO.P,D3,2,A*%
%TO.N,Net-(D3-A)*%
X297728058Y-229622529D03*
%TD*%
D10*
%TO.P,D223,1,K*%
%TO.N,Net-(D211-K)*%
X381625000Y-80111600D03*
D11*
%TO.P,D223,2,A*%
%TO.N,Net-(D223-A)*%
X374005000Y-80111600D03*
%TD*%
D10*
%TO.P,D131,1,K*%
%TO.N,Net-(D121-K)*%
X330835000Y-219430600D03*
D11*
%TO.P,D131,2,A*%
%TO.N,Net-(D131-A)*%
X323215000Y-219430600D03*
%TD*%
D10*
%TO.P,D76,1,K*%
%TO.N,Net-(D62-K)*%
X356235000Y-123291600D03*
D11*
%TO.P,D76,2,A*%
%TO.N,Net-(D76-A)*%
X348615000Y-123291600D03*
%TD*%
D10*
%TO.P,D154,1,K*%
%TO.N,Net-(D152-K)*%
X381615000Y-183896000D03*
D11*
%TO.P,D154,2,A*%
%TO.N,Net-(D154-A)*%
X373995000Y-183896000D03*
%TD*%
D10*
%TO.P,SW16,1*%
%TO.N,Net-(D110-A)*%
X345440000Y-71221600D03*
D11*
%TO.P,SW16,2*%
%TO.N,Net-(D112-A)*%
X345440000Y-68681600D03*
%TO.P,SW16,3*%
%TO.N,Net-(D114-A)*%
X345440000Y-66141600D03*
%TO.P,SW16,4*%
%TO.N,Net-(D116-A)*%
X345440000Y-63601600D03*
%TO.P,SW16,5*%
%TO.N,Net-(D118-A)*%
X345440000Y-61061600D03*
%TO.P,SW16,6*%
%TO.N,Net-(D120-A)*%
X345440000Y-58521600D03*
%TO.P,SW16,7*%
%TO.N,2Im0*%
X337820000Y-58521600D03*
%TO.P,SW16,8*%
%TO.N,2Im1*%
X337820000Y-61061600D03*
%TO.P,SW16,9*%
%TO.N,2Im2*%
X337820000Y-63601600D03*
%TO.P,SW16,10*%
%TO.N,2Im3*%
X337820000Y-66141600D03*
%TO.P,SW16,11*%
%TO.N,2Im4*%
X337820000Y-68681600D03*
%TO.P,SW16,12*%
%TO.N,2Im5*%
X337820000Y-71221600D03*
%TD*%
D10*
%TO.P,D90,1,K*%
%TO.N,Net-(D62-K)*%
X356235000Y-104241600D03*
D11*
%TO.P,D90,2,A*%
%TO.N,Net-(D90-A)*%
X348615000Y-104241600D03*
%TD*%
D10*
%TO.P,D139,1,K*%
%TO.N,Net-(D121-K)*%
X330835000Y-208000600D03*
D11*
%TO.P,D139,2,A*%
%TO.N,Net-(D139-A)*%
X323215000Y-208000600D03*
%TD*%
D10*
%TO.P,D158,1,K*%
%TO.N,Net-(D152-K)*%
X381615000Y-178816000D03*
D11*
%TO.P,D158,2,A*%
%TO.N,Net-(D158-A)*%
X373995000Y-178816000D03*
%TD*%
D10*
%TO.P,D88,1,K*%
%TO.N,Net-(D62-K)*%
X356235000Y-106781600D03*
D11*
%TO.P,D88,2,A*%
%TO.N,Net-(D88-A)*%
X348615000Y-106781600D03*
%TD*%
D10*
%TO.P,D124,1,K*%
%TO.N,Net-(D122-K)*%
X381615000Y-229590600D03*
D11*
%TO.P,D124,2,A*%
%TO.N,Net-(D124-A)*%
X373995000Y-229590600D03*
%TD*%
D10*
%TO.P,D199,1,K*%
%TO.N,Net-(D181-K)*%
X381625000Y-116941600D03*
D11*
%TO.P,D199,2,A*%
%TO.N,Net-(D199-A)*%
X374005000Y-116941600D03*
%TD*%
D10*
%TO.P,D197,1,K*%
%TO.N,Net-(D181-K)*%
X381625000Y-120751600D03*
D11*
%TO.P,D197,2,A*%
%TO.N,Net-(D197-A)*%
X374005000Y-120751600D03*
%TD*%
D10*
%TO.P,D175,1,K*%
%TO.N,Net-(D151-K)*%
X330835000Y-154686000D03*
D11*
%TO.P,D175,2,A*%
%TO.N,Net-(D175-A)*%
X323215000Y-154686000D03*
%TD*%
D10*
%TO.P,SW24,1*%
%TO.N,Net-(D170-A)*%
X370820000Y-162306000D03*
D11*
%TO.P,SW24,2*%
%TO.N,Net-(D172-A)*%
X370820000Y-159766000D03*
%TO.P,SW24,3*%
%TO.N,Net-(D174-A)*%
X370820000Y-157226000D03*
%TO.P,SW24,4*%
%TO.N,Net-(D176-A)*%
X370820000Y-154686000D03*
%TO.P,SW24,5*%
%TO.N,Net-(D178-A)*%
X370820000Y-152146000D03*
%TO.P,SW24,6*%
%TO.N,Net-(D180-A)*%
X370820000Y-149606000D03*
%TO.P,SW24,7*%
%TO.N,2Im0*%
X363200000Y-149606000D03*
%TO.P,SW24,8*%
%TO.N,2Im1*%
X363200000Y-152146000D03*
%TO.P,SW24,9*%
%TO.N,2Im2*%
X363200000Y-154686000D03*
%TO.P,SW24,10*%
%TO.N,2Im3*%
X363200000Y-157226000D03*
%TO.P,SW24,11*%
%TO.N,2Im4*%
X363200000Y-159766000D03*
%TO.P,SW24,12*%
%TO.N,2Im5*%
X363200000Y-162306000D03*
%TD*%
D10*
%TO.P,D144,1,K*%
%TO.N,Net-(D122-K)*%
X381615000Y-202920600D03*
D11*
%TO.P,D144,2,A*%
%TO.N,Net-(D144-A)*%
X373995000Y-202920600D03*
%TD*%
D10*
%TO.P,D96,1,K*%
%TO.N,Net-(D100-K)*%
X356235000Y-90271600D03*
D11*
%TO.P,D96,2,A*%
%TO.N,Net-(D96-A)*%
X348615000Y-90271600D03*
%TD*%
D10*
%TO.P,D102,1,K*%
%TO.N,Net-(D100-K)*%
X356235000Y-82651600D03*
D11*
%TO.P,D102,2,A*%
%TO.N,Net-(D102-A)*%
X348615000Y-82651600D03*
%TD*%
D10*
%TO.P,D208,1,K*%
%TO.N,Net-(D182-K)*%
X330845000Y-106781600D03*
D11*
%TO.P,D208,2,A*%
%TO.N,Net-(D208-A)*%
X323225000Y-106781600D03*
%TD*%
D14*
%TO.P,R11,1*%
%TO.N,+5V*%
X311150000Y-188976000D03*
D11*
%TO.P,R11,2*%
%TO.N,Net-(D151-A)*%
X321310000Y-188976000D03*
%TD*%
D10*
%TO.P,D95,1,K*%
%TO.N,Net-(D101-K)*%
X305394200Y-90271600D03*
D11*
%TO.P,D95,2,A*%
%TO.N,Net-(D95-A)*%
X297774200Y-90271600D03*
%TD*%
D10*
%TO.P,D85,1,K*%
%TO.N,Net-(D61-K)*%
X305394200Y-109321600D03*
D11*
%TO.P,D85,2,A*%
%TO.N,Net-(D85-A)*%
X297774200Y-109321600D03*
%TD*%
D10*
%TO.P,D160,1,K*%
%TO.N,Net-(D152-K)*%
X381615000Y-176276000D03*
D11*
%TO.P,D160,2,A*%
%TO.N,Net-(D160-A)*%
X373995000Y-176276000D03*
%TD*%
D10*
%TO.P,SW23,1*%
%TO.N,Net-(D169-A)*%
X320030000Y-162306000D03*
D11*
%TO.P,SW23,2*%
%TO.N,Net-(D171-A)*%
X320030000Y-159766000D03*
%TO.P,SW23,3*%
%TO.N,Net-(D173-A)*%
X320030000Y-157226000D03*
%TO.P,SW23,4*%
%TO.N,Net-(D175-A)*%
X320030000Y-154686000D03*
%TO.P,SW23,5*%
%TO.N,Net-(D177-A)*%
X320030000Y-152146000D03*
%TO.P,SW23,6*%
%TO.N,Net-(D179-A)*%
X320030000Y-149606000D03*
%TO.P,SW23,7*%
%TO.N,2Im0*%
X312410000Y-149606000D03*
%TO.P,SW23,8*%
%TO.N,2Im1*%
X312410000Y-152146000D03*
%TO.P,SW23,9*%
%TO.N,2Im2*%
X312410000Y-154686000D03*
%TO.P,SW23,10*%
%TO.N,2Im3*%
X312410000Y-157226000D03*
%TO.P,SW23,11*%
%TO.N,2Im4*%
X312410000Y-159766000D03*
%TO.P,SW23,12*%
%TO.N,2Im5*%
X312410000Y-162306000D03*
%TD*%
D10*
%TO.P,D21,1,K*%
%TO.N,Net-(D1-K)*%
X305384200Y-205486000D03*
D11*
%TO.P,D21,2,A*%
%TO.N,Net-(D21-A)*%
X297764200Y-205486000D03*
%TD*%
D10*
%TO.P,D70,1,K*%
%TO.N,Net-(D62-K)*%
X356235000Y-130911600D03*
D11*
%TO.P,D70,2,A*%
%TO.N,Net-(D70-A)*%
X348615000Y-130911600D03*
%TD*%
D10*
%TO.P,D220,1,K*%
%TO.N,Net-(D212-K)*%
X330845000Y-85191600D03*
D11*
%TO.P,D220,2,A*%
%TO.N,Net-(D220-A)*%
X323225000Y-85191600D03*
%TD*%
D10*
%TO.P,D218,1,K*%
%TO.N,Net-(D212-K)*%
X330845000Y-87731600D03*
D11*
%TO.P,D218,2,A*%
%TO.N,Net-(D218-A)*%
X323225000Y-87731600D03*
%TD*%
D10*
%TO.P,SW1,1*%
%TO.N,Net-(D3-A)*%
X294589200Y-229590600D03*
D11*
%TO.P,SW1,2*%
%TO.N,Net-(D5-A)*%
X294589200Y-227050600D03*
%TO.P,SW1,3*%
%TO.N,Net-(D7-A)*%
X294589200Y-224510600D03*
%TO.P,SW1,4*%
%TO.N,Net-(D9-A)*%
X294589200Y-221970600D03*
%TO.P,SW1,5*%
%TO.N,Net-(D11-A)*%
X294589200Y-219430600D03*
%TO.P,SW1,6*%
%TO.N,Net-(D13-A)*%
X294589200Y-216890600D03*
%TO.P,SW1,7*%
%TO.N,Net-(D15-A)*%
X294589200Y-214350600D03*
%TO.P,SW1,8*%
%TO.N,Net-(D17-A)*%
X294589200Y-211810600D03*
%TO.P,SW1,9*%
%TO.N,2ol0*%
X286969200Y-211810600D03*
%TO.P,SW1,10*%
%TO.N,2ol1*%
X286969200Y-214350600D03*
%TO.P,SW1,11*%
%TO.N,2ol2*%
X286969200Y-216890600D03*
%TO.P,SW1,12*%
%TO.N,2ol3*%
X286969200Y-219430600D03*
%TO.P,SW1,13*%
%TO.N,2oc0*%
X286969200Y-221970600D03*
%TO.P,SW1,14*%
%TO.N,2oc1*%
X286969200Y-224510600D03*
%TO.P,SW1,15*%
%TO.N,2oc2*%
X286969200Y-227050600D03*
%TO.P,SW1,16*%
%TO.N,2oc3*%
X286969200Y-229590600D03*
%TD*%
D10*
%TO.P,D213,1,K*%
%TO.N,Net-(D211-K)*%
X381625000Y-92811600D03*
D11*
%TO.P,D213,2,A*%
%TO.N,Net-(D213-A)*%
X374005000Y-92811600D03*
%TD*%
D12*
%TO.P,D61,1,K*%
%TO.N,Net-(D61-K)*%
X300995000Y-143611600D03*
D13*
%TO.P,D61,2,A*%
%TO.N,Net-(D61-A)*%
X298455000Y-143611600D03*
%TD*%
D10*
%TO.P,D69,1,K*%
%TO.N,Net-(D61-K)*%
X305394200Y-130911600D03*
D11*
%TO.P,D69,2,A*%
%TO.N,Net-(D69-A)*%
X297774200Y-130911600D03*
%TD*%
D10*
%TO.P,D5,1,K*%
%TO.N,Net-(D1-K)*%
X305348058Y-227109103D03*
D11*
%TO.P,D5,2,A*%
%TO.N,Net-(D5-A)*%
X297728058Y-227109103D03*
%TD*%
D10*
%TO.P,D94,1,K*%
%TO.N,Net-(D100-K)*%
X356235000Y-92811600D03*
D11*
%TO.P,D94,2,A*%
%TO.N,Net-(D94-A)*%
X348615000Y-92811600D03*
%TD*%
D10*
%TO.P,SW17,1*%
%TO.N,Net-(D123-A)*%
X320040000Y-229590600D03*
D11*
%TO.P,SW17,2*%
%TO.N,Net-(D125-A)*%
X320040000Y-227050600D03*
%TO.P,SW17,3*%
%TO.N,Net-(D127-A)*%
X320040000Y-224510600D03*
%TO.P,SW17,4*%
%TO.N,Net-(D129-A)*%
X320040000Y-221970600D03*
%TO.P,SW17,5*%
%TO.N,Net-(D131-A)*%
X320040000Y-219430600D03*
%TO.P,SW17,6*%
%TO.N,Net-(D133-A)*%
X320040000Y-216890600D03*
%TO.P,SW17,7*%
%TO.N,Net-(D135-A)*%
X320040000Y-214350600D03*
%TO.P,SW17,8*%
%TO.N,Net-(D137-A)*%
X320040000Y-211810600D03*
%TO.P,SW17,9*%
%TO.N,2ol0*%
X312420000Y-211810600D03*
%TO.P,SW17,10*%
%TO.N,2ol1*%
X312420000Y-214350600D03*
%TO.P,SW17,11*%
%TO.N,2ol2*%
X312420000Y-216890600D03*
%TO.P,SW17,12*%
%TO.N,2ol3*%
X312420000Y-219430600D03*
%TO.P,SW17,13*%
%TO.N,2oc0*%
X312420000Y-221970600D03*
%TO.P,SW17,14*%
%TO.N,2oc1*%
X312420000Y-224510600D03*
%TO.P,SW17,15*%
%TO.N,2oc2*%
X312420000Y-227050600D03*
%TO.P,SW17,16*%
%TO.N,2oc3*%
X312420000Y-229590600D03*
%TD*%
D10*
%TO.P,D204,1,K*%
%TO.N,Net-(D182-K)*%
X330845000Y-111861600D03*
D11*
%TO.P,D204,2,A*%
%TO.N,Net-(D204-A)*%
X323225000Y-111861600D03*
%TD*%
D10*
%TO.P,SW25,1*%
%TO.N,Net-(D183-A)*%
X370830000Y-138531600D03*
D11*
%TO.P,SW25,2*%
%TO.N,Net-(D185-A)*%
X370830000Y-135991600D03*
%TO.P,SW25,3*%
%TO.N,Net-(D187-A)*%
X370830000Y-133451600D03*
%TO.P,SW25,4*%
%TO.N,Net-(D189-A)*%
X370830000Y-130911600D03*
%TO.P,SW25,5*%
%TO.N,Net-(D191-A)*%
X370830000Y-128371600D03*
%TO.P,SW25,6*%
%TO.N,Net-(D193-A)*%
X370830000Y-125831600D03*
%TO.P,SW25,7*%
%TO.N,Net-(D195-A)*%
X370830000Y-123291600D03*
%TO.P,SW25,8*%
%TO.N,Net-(D197-A)*%
X370830000Y-120751600D03*
%TO.P,SW25,9*%
%TO.N,2ol0*%
X363210000Y-120751600D03*
%TO.P,SW25,10*%
%TO.N,2ol1*%
X363210000Y-123291600D03*
%TO.P,SW25,11*%
%TO.N,2ol2*%
X363210000Y-125831600D03*
%TO.P,SW25,12*%
%TO.N,2ol3*%
X363210000Y-128371600D03*
%TO.P,SW25,13*%
%TO.N,2oc0*%
X363210000Y-130911600D03*
%TO.P,SW25,14*%
%TO.N,2oc1*%
X363210000Y-133451600D03*
%TO.P,SW25,15*%
%TO.N,2oc2*%
X363210000Y-135991600D03*
%TO.P,SW25,16*%
%TO.N,2oc3*%
X363210000Y-138531600D03*
%TD*%
D10*
%TO.P,D74,1,K*%
%TO.N,Net-(D62-K)*%
X356235000Y-125831600D03*
D11*
%TO.P,D74,2,A*%
%TO.N,Net-(D74-A)*%
X348615000Y-125831600D03*
%TD*%
D10*
%TO.P,D191,1,K*%
%TO.N,Net-(D181-K)*%
X381625000Y-128371600D03*
D11*
%TO.P,D191,2,A*%
%TO.N,Net-(D191-A)*%
X374005000Y-128371600D03*
%TD*%
D10*
%TO.P,D73,1,K*%
%TO.N,Net-(D61-K)*%
X305394200Y-125831600D03*
D11*
%TO.P,D73,2,A*%
%TO.N,Net-(D73-A)*%
X297774200Y-125831600D03*
%TD*%
D14*
%TO.P,C2,1*%
%TO.N,+5V*%
X401076000Y-132603400D03*
%TO.P,C2,2*%
%TO.N,GND*%
X403576000Y-132603400D03*
%TD*%
D10*
%TO.P,D194,1,K*%
%TO.N,Net-(D182-K)*%
X330845000Y-125831600D03*
D11*
%TO.P,D194,2,A*%
%TO.N,Net-(D194-A)*%
X323225000Y-125831600D03*
%TD*%
D10*
%TO.P,D165,1,K*%
%TO.N,Net-(D151-K)*%
X330835000Y-168656000D03*
D11*
%TO.P,D165,2,A*%
%TO.N,Net-(D165-A)*%
X323215000Y-168656000D03*
%TD*%
D10*
%TO.P,D26,1,K*%
%TO.N,Net-(D10-K)*%
X356213363Y-200369923D03*
D11*
%TO.P,D26,2,A*%
%TO.N,Net-(D26-A)*%
X348593363Y-200369923D03*
%TD*%
D10*
%TO.P,D63,1,K*%
%TO.N,Net-(D61-K)*%
X305394200Y-138531600D03*
D11*
%TO.P,D63,2,A*%
%TO.N,Net-(D63-A)*%
X297774200Y-138531600D03*
%TD*%
D10*
%TO.P,D236,1,K*%
%TO.N,Net-(D212-K)*%
X330845000Y-63601600D03*
D11*
%TO.P,D236,2,A*%
%TO.N,Net-(D236-A)*%
X323225000Y-63601600D03*
%TD*%
D10*
%TO.P,D128,1,K*%
%TO.N,Net-(D122-K)*%
X381615000Y-224510600D03*
D11*
%TO.P,D128,2,A*%
%TO.N,Net-(D128-A)*%
X373995000Y-224510600D03*
%TD*%
D10*
%TO.P,D187,1,K*%
%TO.N,Net-(D181-K)*%
X381625000Y-133451600D03*
D11*
%TO.P,D187,2,A*%
%TO.N,Net-(D187-A)*%
X374005000Y-133451600D03*
%TD*%
D10*
%TO.P,D163,1,K*%
%TO.N,Net-(D151-K)*%
X330835000Y-171196000D03*
D11*
%TO.P,D163,2,A*%
%TO.N,Net-(D163-A)*%
X323215000Y-171196000D03*
%TD*%
D10*
%TO.P,D40,1,K*%
%TO.N,Net-(D32-K)*%
X356225000Y-176276000D03*
D11*
%TO.P,D40,2,A*%
%TO.N,Net-(D40-A)*%
X348605000Y-176276000D03*
%TD*%
D14*
%TO.P,R4,1*%
%TO.N,+5V*%
X336540000Y-188976000D03*
D11*
%TO.P,R4,2*%
%TO.N,Net-(D32-A)*%
X346700000Y-188976000D03*
%TD*%
D10*
%TO.P,D206,1,K*%
%TO.N,Net-(D182-K)*%
X330845000Y-109321600D03*
D11*
%TO.P,D206,2,A*%
%TO.N,Net-(D206-A)*%
X323225000Y-109321600D03*
%TD*%
D10*
%TO.P,D54,1,K*%
%TO.N,Net-(D32-K)*%
X356225000Y-157226000D03*
D11*
%TO.P,D54,2,A*%
%TO.N,Net-(D54-A)*%
X348605000Y-157226000D03*
%TD*%
D10*
%TO.P,D138,1,K*%
%TO.N,Net-(D122-K)*%
X381615000Y-211810600D03*
D11*
%TO.P,D138,2,A*%
%TO.N,Net-(D138-A)*%
X373995000Y-211810600D03*
%TD*%
D10*
%TO.P,D117,1,K*%
%TO.N,Net-(D101-K)*%
X305394200Y-61061600D03*
D11*
%TO.P,D117,2,A*%
%TO.N,Net-(D117-A)*%
X297774200Y-61061600D03*
%TD*%
D10*
%TO.P,D141,1,K*%
%TO.N,Net-(D121-K)*%
X330835000Y-205460600D03*
D11*
%TO.P,D141,2,A*%
%TO.N,Net-(D141-A)*%
X323215000Y-205460600D03*
%TD*%
D10*
%TO.P,D215,1,K*%
%TO.N,Net-(D211-K)*%
X381625000Y-90271600D03*
D11*
%TO.P,D215,2,A*%
%TO.N,Net-(D215-A)*%
X374005000Y-90271600D03*
%TD*%
D10*
%TO.P,D109,1,K*%
%TO.N,Net-(D101-K)*%
X305394200Y-71221600D03*
D11*
%TO.P,D109,2,A*%
%TO.N,Net-(D109-A)*%
X297774200Y-71221600D03*
%TD*%
D12*
%TO.P,D122,1,K*%
%TO.N,Net-(D122-K)*%
X377170000Y-234670600D03*
D13*
%TO.P,D122,2,A*%
%TO.N,Net-(D122-A)*%
X374630000Y-234670600D03*
%TD*%
D10*
%TO.P,D228,1,K*%
%TO.N,Net-(D212-K)*%
X330845000Y-75031600D03*
D11*
%TO.P,D228,2,A*%
%TO.N,Net-(D228-A)*%
X323225000Y-75031600D03*
%TD*%
D10*
%TO.P,D28,1,K*%
%TO.N,Net-(D10-K)*%
X356213363Y-197829923D03*
D11*
%TO.P,D28,2,A*%
%TO.N,Net-(D28-A)*%
X348593363Y-197829923D03*
%TD*%
D10*
%TO.P,D43,1,K*%
%TO.N,Net-(D31-K)*%
X305384200Y-171196000D03*
D11*
%TO.P,D43,2,A*%
%TO.N,Net-(D43-A)*%
X297764200Y-171196000D03*
%TD*%
D10*
%TO.P,D79,1,K*%
%TO.N,Net-(D61-K)*%
X305394200Y-116941600D03*
D11*
%TO.P,D79,2,A*%
%TO.N,Net-(D79-A)*%
X297774200Y-116941600D03*
%TD*%
D14*
%TO.P,R3,1*%
%TO.N,+5V*%
X285750000Y-188976000D03*
D11*
%TO.P,R3,2*%
%TO.N,Net-(D31-A)*%
X295910000Y-188976000D03*
%TD*%
D10*
%TO.P,D148,1,K*%
%TO.N,Net-(D122-K)*%
X381615000Y-197840600D03*
D11*
%TO.P,D148,2,A*%
%TO.N,Net-(D148-A)*%
X373995000Y-197840600D03*
%TD*%
D10*
%TO.P,D183,1,K*%
%TO.N,Net-(D181-K)*%
X381625000Y-138531600D03*
D11*
%TO.P,D183,2,A*%
%TO.N,Net-(D183-A)*%
X374005000Y-138531600D03*
%TD*%
D10*
%TO.P,D71,1,K*%
%TO.N,Net-(D61-K)*%
X305394200Y-128371600D03*
D11*
%TO.P,D71,2,A*%
%TO.N,Net-(D71-A)*%
X297774200Y-128371600D03*
%TD*%
D14*
%TO.P,R7,1*%
%TO.N,+5V*%
X285750000Y-97891600D03*
D11*
%TO.P,R7,2*%
%TO.N,Net-(D91-A)*%
X295910000Y-97891600D03*
%TD*%
D10*
%TO.P,D97,1,K*%
%TO.N,Net-(D101-K)*%
X305394200Y-87731600D03*
D11*
%TO.P,D97,2,A*%
%TO.N,Net-(D97-A)*%
X297774200Y-87731600D03*
%TD*%
D10*
%TO.P,SW21,1*%
%TO.N,Net-(D153-A)*%
X320020000Y-183906000D03*
D11*
%TO.P,SW21,2*%
%TO.N,Net-(D155-A)*%
X320020000Y-181366000D03*
%TO.P,SW21,3*%
%TO.N,Net-(D157-A)*%
X320020000Y-178826000D03*
%TO.P,SW21,4*%
%TO.N,Net-(D159-A)*%
X320020000Y-176286000D03*
%TO.P,SW21,5*%
%TO.N,Net-(D161-A)*%
X320020000Y-173746000D03*
%TO.P,SW21,6*%
%TO.N,Net-(D163-A)*%
X320020000Y-171206000D03*
%TO.P,SW21,7*%
%TO.N,Net-(D165-A)*%
X320020000Y-168666000D03*
%TO.P,SW21,8*%
%TO.N,Net-(D167-A)*%
X320020000Y-166126000D03*
%TO.P,SW21,9*%
%TO.N,2ol0*%
X312400000Y-166126000D03*
%TO.P,SW21,10*%
%TO.N,2ol1*%
X312400000Y-168666000D03*
%TO.P,SW21,11*%
%TO.N,2ol2*%
X312400000Y-171206000D03*
%TO.P,SW21,12*%
%TO.N,2ol3*%
X312400000Y-173746000D03*
%TO.P,SW21,13*%
%TO.N,2oc0*%
X312400000Y-176286000D03*
%TO.P,SW21,14*%
%TO.N,2oc1*%
X312400000Y-178826000D03*
%TO.P,SW21,15*%
%TO.N,2oc2*%
X312400000Y-181366000D03*
%TO.P,SW21,16*%
%TO.N,2oc3*%
X312400000Y-183906000D03*
%TD*%
D10*
%TO.P,D162,1,K*%
%TO.N,Net-(D152-K)*%
X381615000Y-173736000D03*
D11*
%TO.P,D162,2,A*%
%TO.N,Net-(D162-A)*%
X373995000Y-173736000D03*
%TD*%
D10*
%TO.P,SW22,1*%
%TO.N,Net-(D154-A)*%
X370820000Y-183896000D03*
D11*
%TO.P,SW22,2*%
%TO.N,Net-(D156-A)*%
X370820000Y-181356000D03*
%TO.P,SW22,3*%
%TO.N,Net-(D158-A)*%
X370820000Y-178816000D03*
%TO.P,SW22,4*%
%TO.N,Net-(D160-A)*%
X370820000Y-176276000D03*
%TO.P,SW22,5*%
%TO.N,Net-(D162-A)*%
X370820000Y-173736000D03*
%TO.P,SW22,6*%
%TO.N,Net-(D164-A)*%
X370820000Y-171196000D03*
%TO.P,SW22,7*%
%TO.N,Net-(D166-A)*%
X370820000Y-168656000D03*
%TO.P,SW22,8*%
%TO.N,Net-(D168-A)*%
X370820000Y-166116000D03*
%TO.P,SW22,9*%
%TO.N,2ol0*%
X363200000Y-166116000D03*
%TO.P,SW22,10*%
%TO.N,2ol1*%
X363200000Y-168656000D03*
%TO.P,SW22,11*%
%TO.N,2ol2*%
X363200000Y-171196000D03*
%TO.P,SW22,12*%
%TO.N,2ol3*%
X363200000Y-173736000D03*
%TO.P,SW22,13*%
%TO.N,2oc0*%
X363200000Y-176276000D03*
%TO.P,SW22,14*%
%TO.N,2oc1*%
X363200000Y-178816000D03*
%TO.P,SW22,15*%
%TO.N,2oc2*%
X363200000Y-181356000D03*
%TO.P,SW22,16*%
%TO.N,2oc3*%
X363200000Y-183896000D03*
%TD*%
D10*
%TO.P,D205,1,K*%
%TO.N,Net-(D181-K)*%
X381625000Y-109321600D03*
D11*
%TO.P,D205,2,A*%
%TO.N,Net-(D205-A)*%
X374005000Y-109321600D03*
%TD*%
D10*
%TO.P,D42,1,K*%
%TO.N,Net-(D32-K)*%
X356225000Y-173736000D03*
D11*
%TO.P,D42,2,A*%
%TO.N,Net-(D42-A)*%
X348605000Y-173736000D03*
%TD*%
D10*
%TO.P,D192,1,K*%
%TO.N,Net-(D182-K)*%
X330845000Y-128371600D03*
D11*
%TO.P,D192,2,A*%
%TO.N,Net-(D192-A)*%
X323225000Y-128371600D03*
%TD*%
D10*
%TO.P,U4,1,A0*%
%TO.N,pc0*%
X406410000Y-182870000D03*
D11*
%TO.P,U4,2,A1*%
%TO.N,pc1*%
X406410000Y-180330000D03*
%TO.P,U4,3,A2*%
%TO.N,pc2*%
X406410000Y-177790000D03*
%TO.P,U4,4,~{E0}*%
%TO.N,GND*%
X406410000Y-175250000D03*
%TO.P,U4,5,~{E1}*%
X406410000Y-172710000D03*
%TO.P,U4,6,E2*%
%TO.N,Net-(U4-E2)*%
X406410000Y-170170000D03*
%TO.P,U4,7,~{Y7}*%
%TO.N,Net-(D211-K)*%
X406410000Y-167630000D03*
%TO.P,U4,8,GND*%
%TO.N,GND*%
X406410000Y-165090000D03*
%TO.P,U4,9,~{Y6}*%
%TO.N,Net-(D181-K)*%
X398790000Y-165090000D03*
%TO.P,U4,10,~{Y5}*%
%TO.N,Net-(D152-K)*%
X398790000Y-167630000D03*
%TO.P,U4,11,~{Y4}*%
%TO.N,Net-(D122-K)*%
X398790000Y-170170000D03*
%TO.P,U4,12,~{Y3}*%
%TO.N,Net-(D100-K)*%
X398790000Y-172710000D03*
%TO.P,U4,13,~{Y2}*%
%TO.N,Net-(D62-K)*%
X398790000Y-175250000D03*
%TO.P,U4,14,~{Y1}*%
%TO.N,Net-(D32-K)*%
X398790000Y-177790000D03*
%TO.P,U4,15,~{Y0}*%
%TO.N,Net-(D10-K)*%
X398790000Y-180330000D03*
%TO.P,U4,16,VCC*%
%TO.N,+5V*%
X398790000Y-182870000D03*
%TD*%
D10*
%TO.P,D104,1,K*%
%TO.N,Net-(D100-K)*%
X356235000Y-80111600D03*
D11*
%TO.P,D104,2,A*%
%TO.N,Net-(D104-A)*%
X348615000Y-80111600D03*
%TD*%
D10*
%TO.P,D84,1,K*%
%TO.N,Net-(D62-K)*%
X356235000Y-111861600D03*
D11*
%TO.P,D84,2,A*%
%TO.N,Net-(D84-A)*%
X348615000Y-111861600D03*
%TD*%
D10*
%TO.P,D60,1,K*%
%TO.N,Net-(D32-K)*%
X356225000Y-149606000D03*
D11*
%TO.P,D60,2,A*%
%TO.N,Net-(D60-A)*%
X348605000Y-149606000D03*
%TD*%
D10*
%TO.P,D125,1,K*%
%TO.N,Net-(D121-K)*%
X330835000Y-227050600D03*
D11*
%TO.P,D125,2,A*%
%TO.N,Net-(D125-A)*%
X323215000Y-227050600D03*
%TD*%
D10*
%TO.P,D237,1,K*%
%TO.N,Net-(D211-K)*%
X381625000Y-61061600D03*
D11*
%TO.P,D237,2,A*%
%TO.N,Net-(D237-A)*%
X374005000Y-61061600D03*
%TD*%
D10*
%TO.P,D209,1,K*%
%TO.N,Net-(D181-K)*%
X381625000Y-104241600D03*
D11*
%TO.P,D209,2,A*%
%TO.N,Net-(D209-A)*%
X374005000Y-104241600D03*
%TD*%
D10*
%TO.P,D136,1,K*%
%TO.N,Net-(D122-K)*%
X381615000Y-214350600D03*
D11*
%TO.P,D136,2,A*%
%TO.N,Net-(D136-A)*%
X373995000Y-214350600D03*
%TD*%
D10*
%TO.P,D11,1,K*%
%TO.N,Net-(D1-K)*%
X305362400Y-219479542D03*
D11*
%TO.P,D11,2,A*%
%TO.N,Net-(D11-A)*%
X297742400Y-219479542D03*
%TD*%
D10*
%TO.P,D53,1,K*%
%TO.N,Net-(D31-K)*%
X305384200Y-157226000D03*
D11*
%TO.P,D53,2,A*%
%TO.N,Net-(D53-A)*%
X297764200Y-157226000D03*
%TD*%
D10*
%TO.P,D49,1,K*%
%TO.N,Net-(D31-K)*%
X305384200Y-162306000D03*
D11*
%TO.P,D49,2,A*%
%TO.N,Net-(D49-A)*%
X297764200Y-162306000D03*
%TD*%
D10*
%TO.P,D30,1,K*%
%TO.N,Net-(D10-K)*%
X356213363Y-195289923D03*
D11*
%TO.P,D30,2,A*%
%TO.N,Net-(D30-A)*%
X348593363Y-195289923D03*
%TD*%
D10*
%TO.P,D100,1,K*%
%TO.N,Net-(D100-K)*%
X356235000Y-85191600D03*
D11*
%TO.P,D100,2,A*%
%TO.N,Net-(D100-A)*%
X348615000Y-85191600D03*
%TD*%
D10*
%TO.P,D235,1,K*%
%TO.N,Net-(D211-K)*%
X381625000Y-63601600D03*
D11*
%TO.P,D235,2,A*%
%TO.N,Net-(D235-A)*%
X374005000Y-63601600D03*
%TD*%
D12*
%TO.P,D181,1,K*%
%TO.N,Net-(D181-K)*%
X377180000Y-143611600D03*
D13*
%TO.P,D181,2,A*%
%TO.N,Net-(D181-A)*%
X374640000Y-143611600D03*
%TD*%
D10*
%TO.P,SW7,1*%
%TO.N,Net-(D49-A)*%
X294589200Y-162306000D03*
D11*
%TO.P,SW7,2*%
%TO.N,Net-(D51-A)*%
X294589200Y-159766000D03*
%TO.P,SW7,3*%
%TO.N,Net-(D53-A)*%
X294589200Y-157226000D03*
%TO.P,SW7,4*%
%TO.N,Net-(D55-A)*%
X294589200Y-154686000D03*
%TO.P,SW7,5*%
%TO.N,Net-(D57-A)*%
X294589200Y-152146000D03*
%TO.P,SW7,6*%
%TO.N,Net-(D59-A)*%
X294589200Y-149606000D03*
%TO.P,SW7,7*%
%TO.N,2Im0*%
X286969200Y-149606000D03*
%TO.P,SW7,8*%
%TO.N,2Im1*%
X286969200Y-152146000D03*
%TO.P,SW7,9*%
%TO.N,2Im2*%
X286969200Y-154686000D03*
%TO.P,SW7,10*%
%TO.N,2Im3*%
X286969200Y-157226000D03*
%TO.P,SW7,11*%
%TO.N,2Im4*%
X286969200Y-159766000D03*
%TO.P,SW7,12*%
%TO.N,2Im5*%
X286969200Y-162306000D03*
%TD*%
D10*
%TO.P,D234,1,K*%
%TO.N,Net-(D212-K)*%
X330845000Y-66141600D03*
D11*
%TO.P,D234,2,A*%
%TO.N,Net-(D234-A)*%
X323225000Y-66141600D03*
%TD*%
D10*
%TO.P,D229,1,K*%
%TO.N,Net-(D211-K)*%
X381625000Y-71221600D03*
D11*
%TO.P,D229,2,A*%
%TO.N,Net-(D229-A)*%
X374005000Y-71221600D03*
%TD*%
D10*
%TO.P,D159,1,K*%
%TO.N,Net-(D151-K)*%
X330835000Y-176276000D03*
D11*
%TO.P,D159,2,A*%
%TO.N,Net-(D159-A)*%
X323215000Y-176276000D03*
%TD*%
D10*
%TO.P,D166,1,K*%
%TO.N,Net-(D152-K)*%
X381615000Y-168656000D03*
D11*
%TO.P,D166,2,A*%
%TO.N,Net-(D166-A)*%
X373995000Y-168656000D03*
%TD*%
D10*
%TO.P,D18,1,K*%
%TO.N,Net-(D10-K)*%
X356248000Y-211829136D03*
D11*
%TO.P,D18,2,A*%
%TO.N,Net-(D18-A)*%
X348628000Y-211829136D03*
%TD*%
D10*
%TO.P,U2,1*%
%TO.N,Net-(U1-Pad2)*%
X454025000Y-198755000D03*
D11*
%TO.P,U2,2*%
%TO.N,pc4*%
X451485000Y-198755000D03*
%TO.P,U2,3*%
%TO.N,Net-(U3-E2)*%
X448945000Y-198755000D03*
%TO.P,U2,4*%
%TO.N,pc4*%
X446405000Y-198755000D03*
%TO.P,U2,5*%
%TO.N,pc3*%
X443865000Y-198755000D03*
%TO.P,U2,6*%
%TO.N,Net-(U4-E2)*%
X441325000Y-198755000D03*
%TO.P,U2,7,GND*%
%TO.N,GND*%
X438785000Y-198755000D03*
%TO.P,U2,8*%
%TO.N,unconnected-(U2-Pad8)*%
X438785000Y-206375000D03*
%TO.P,U2,9*%
%TO.N,GND*%
X441325000Y-206375000D03*
%TO.P,U2,10*%
X443865000Y-206375000D03*
%TO.P,U2,11*%
%TO.N,unconnected-(U2-Pad11)*%
X446405000Y-206375000D03*
%TO.P,U2,12*%
%TO.N,GND*%
X448945000Y-206375000D03*
%TO.P,U2,13*%
X451485000Y-206375000D03*
%TO.P,U2,14,Vcc*%
%TO.N,+5V*%
X454025000Y-206375000D03*
%TD*%
D10*
%TO.P,D112,1,K*%
%TO.N,Net-(D100-K)*%
X356235000Y-68681600D03*
D11*
%TO.P,D112,2,A*%
%TO.N,Net-(D112-A)*%
X348615000Y-68681600D03*
%TD*%
D10*
%TO.P,D106,1,K*%
%TO.N,Net-(D100-K)*%
X356235000Y-77571600D03*
D11*
%TO.P,D106,2,A*%
%TO.N,Net-(D106-A)*%
X348615000Y-77571600D03*
%TD*%
D10*
%TO.P,D240,1,K*%
%TO.N,Net-(D212-K)*%
X330845000Y-58521600D03*
D11*
%TO.P,D240,2,A*%
%TO.N,Net-(D240-A)*%
X323225000Y-58521600D03*
%TD*%
D10*
%TO.P,D193,1,K*%
%TO.N,Net-(D181-K)*%
X381625000Y-125831600D03*
D11*
%TO.P,D193,2,A*%
%TO.N,Net-(D193-A)*%
X374005000Y-125831600D03*
%TD*%
D12*
%TO.P,D151,1,K*%
%TO.N,Net-(D151-K)*%
X326390000Y-188976000D03*
D13*
%TO.P,D151,2,A*%
%TO.N,Net-(D151-A)*%
X323850000Y-188976000D03*
%TD*%
D10*
%TO.P,D119,1,K*%
%TO.N,Net-(D101-K)*%
X305394200Y-58521600D03*
D11*
%TO.P,D119,2,A*%
%TO.N,Net-(D119-A)*%
X297774200Y-58521600D03*
%TD*%
D10*
%TO.P,D161,1,K*%
%TO.N,Net-(D151-K)*%
X330835000Y-173736000D03*
D11*
%TO.P,D161,2,A*%
%TO.N,Net-(D161-A)*%
X323215000Y-173736000D03*
%TD*%
D10*
%TO.P,D108,1,K*%
%TO.N,Net-(D100-K)*%
X356235000Y-75031600D03*
D11*
%TO.P,D108,2,A*%
%TO.N,Net-(D108-A)*%
X348615000Y-75031600D03*
%TD*%
D10*
%TO.P,D143,1,K*%
%TO.N,Net-(D121-K)*%
X330835000Y-202920600D03*
D11*
%TO.P,D143,2,A*%
%TO.N,Net-(D143-A)*%
X323215000Y-202920600D03*
%TD*%
D10*
%TO.P,D216,1,K*%
%TO.N,Net-(D212-K)*%
X330845000Y-90271600D03*
D11*
%TO.P,D216,2,A*%
%TO.N,Net-(D216-A)*%
X323225000Y-90271600D03*
%TD*%
D10*
%TO.P,D68,1,K*%
%TO.N,Net-(D62-K)*%
X356235000Y-133451600D03*
D11*
%TO.P,D68,2,A*%
%TO.N,Net-(D68-A)*%
X348615000Y-133451600D03*
%TD*%
D10*
%TO.P,D65,1,K*%
%TO.N,Net-(D61-K)*%
X305394200Y-135991600D03*
D11*
%TO.P,D65,2,A*%
%TO.N,Net-(D65-A)*%
X297774200Y-135991600D03*
%TD*%
D10*
%TO.P,D17,1,K*%
%TO.N,Net-(D1-K)*%
X305391084Y-211845200D03*
D11*
%TO.P,D17,2,A*%
%TO.N,Net-(D17-A)*%
X297771084Y-211845200D03*
%TD*%
D10*
%TO.P,D133,1,K*%
%TO.N,Net-(D121-K)*%
X330835000Y-216890600D03*
D11*
%TO.P,D133,2,A*%
%TO.N,Net-(D133-A)*%
X323215000Y-216890600D03*
%TD*%
D10*
%TO.P,D13,1,K*%
%TO.N,Net-(D1-K)*%
X305376742Y-216939542D03*
D11*
%TO.P,D13,2,A*%
%TO.N,Net-(D13-A)*%
X297756742Y-216939542D03*
%TD*%
D10*
%TO.P,D113,1,K*%
%TO.N,Net-(D101-K)*%
X305394200Y-66141600D03*
D11*
%TO.P,D113,2,A*%
%TO.N,Net-(D113-A)*%
X297774200Y-66141600D03*
%TD*%
D10*
%TO.P,D185,1,K*%
%TO.N,Net-(D181-K)*%
X381625000Y-135991600D03*
D11*
%TO.P,D185,2,A*%
%TO.N,Net-(D185-A)*%
X374005000Y-135991600D03*
%TD*%
D10*
%TO.P,D120,1,K*%
%TO.N,Net-(D100-K)*%
X356235000Y-58521600D03*
D11*
%TO.P,D120,2,A*%
%TO.N,Net-(D120-A)*%
X348615000Y-58521600D03*
%TD*%
D10*
%TO.P,SW30,1*%
%TO.N,Net-(D214-A)*%
X320050000Y-92811600D03*
D11*
%TO.P,SW30,2*%
%TO.N,Net-(D216-A)*%
X320050000Y-90271600D03*
%TO.P,SW30,3*%
%TO.N,Net-(D218-A)*%
X320050000Y-87731600D03*
%TO.P,SW30,4*%
%TO.N,Net-(D220-A)*%
X320050000Y-85191600D03*
%TO.P,SW30,5*%
%TO.N,Net-(D222-A)*%
X320050000Y-82651600D03*
%TO.P,SW30,6*%
%TO.N,Net-(D224-A)*%
X320050000Y-80111600D03*
%TO.P,SW30,7*%
%TO.N,Net-(D226-A)*%
X320050000Y-77571600D03*
%TO.P,SW30,8*%
%TO.N,Net-(D228-A)*%
X320050000Y-75031600D03*
%TO.P,SW30,9*%
%TO.N,2ol0*%
X312430000Y-75031600D03*
%TO.P,SW30,10*%
%TO.N,2ol1*%
X312430000Y-77571600D03*
%TO.P,SW30,11*%
%TO.N,2ol2*%
X312430000Y-80111600D03*
%TO.P,SW30,12*%
%TO.N,2ol3*%
X312430000Y-82651600D03*
%TO.P,SW30,13*%
%TO.N,2oc0*%
X312430000Y-85191600D03*
%TO.P,SW30,14*%
%TO.N,2oc1*%
X312430000Y-87731600D03*
%TO.P,SW30,15*%
%TO.N,2oc2*%
X312430000Y-90271600D03*
%TO.P,SW30,16*%
%TO.N,2oc3*%
X312430000Y-92811600D03*
%TD*%
D10*
%TO.P,D78,1,K*%
%TO.N,Net-(D62-K)*%
X356235000Y-120751600D03*
D11*
%TO.P,D78,2,A*%
%TO.N,Net-(D78-A)*%
X348615000Y-120751600D03*
%TD*%
D14*
%TO.P,R9,1*%
%TO.N,+5V*%
X311150000Y-234670600D03*
D11*
%TO.P,R9,2*%
%TO.N,Net-(D121-A)*%
X321310000Y-234670600D03*
%TD*%
D10*
%TO.P,D27,1,K*%
%TO.N,Net-(D1-K)*%
X305384200Y-197866000D03*
D11*
%TO.P,D27,2,A*%
%TO.N,Net-(D27-A)*%
X297764200Y-197866000D03*
%TD*%
D10*
%TO.P,D190,1,K*%
%TO.N,Net-(D182-K)*%
X330845000Y-130911600D03*
D11*
%TO.P,D190,2,A*%
%TO.N,Net-(D190-A)*%
X323225000Y-130911600D03*
%TD*%
D10*
%TO.P,D225,1,K*%
%TO.N,Net-(D211-K)*%
X381625000Y-77571600D03*
D11*
%TO.P,D225,2,A*%
%TO.N,Net-(D225-A)*%
X374005000Y-77571600D03*
%TD*%
D10*
%TO.P,SW3,1*%
%TO.N,Net-(D19-A)*%
X294589200Y-208000600D03*
D11*
%TO.P,SW3,2*%
%TO.N,Net-(D21-A)*%
X294589200Y-205460600D03*
%TO.P,SW3,3*%
%TO.N,Net-(D23-A)*%
X294589200Y-202920600D03*
%TO.P,SW3,4*%
%TO.N,Net-(D25-A)*%
X294589200Y-200380600D03*
%TO.P,SW3,5*%
%TO.N,Net-(D27-A)*%
X294589200Y-197840600D03*
%TO.P,SW3,6*%
%TO.N,Net-(D29-A)*%
X294589200Y-195300600D03*
%TO.P,SW3,7*%
%TO.N,2Im0*%
X286969200Y-195300600D03*
%TO.P,SW3,8*%
%TO.N,2Im1*%
X286969200Y-197840600D03*
%TO.P,SW3,9*%
%TO.N,2Im2*%
X286969200Y-200380600D03*
%TO.P,SW3,10*%
%TO.N,2Im3*%
X286969200Y-202920600D03*
%TO.P,SW3,11*%
%TO.N,2Im4*%
X286969200Y-205460600D03*
%TO.P,SW3,12*%
%TO.N,2Im5*%
X286969200Y-208000600D03*
%TD*%
D10*
%TO.P,D174,1,K*%
%TO.N,Net-(D152-K)*%
X381615000Y-157226000D03*
D11*
%TO.P,D174,2,A*%
%TO.N,Net-(D174-A)*%
X373995000Y-157226000D03*
%TD*%
D10*
%TO.P,D172,1,K*%
%TO.N,Net-(D152-K)*%
X381615000Y-159766000D03*
D11*
%TO.P,D172,2,A*%
%TO.N,Net-(D172-A)*%
X373995000Y-159766000D03*
%TD*%
D10*
%TO.P,D201,1,K*%
%TO.N,Net-(D181-K)*%
X381625000Y-114401600D03*
D11*
%TO.P,D201,2,A*%
%TO.N,Net-(D201-A)*%
X374005000Y-114401600D03*
%TD*%
D12*
%TO.P,D31,1,K*%
%TO.N,Net-(D31-K)*%
X300990000Y-188976000D03*
D13*
%TO.P,D31,2,A*%
%TO.N,Net-(D31-A)*%
X298450000Y-188976000D03*
%TD*%
D10*
%TO.P,D58,1,K*%
%TO.N,Net-(D32-K)*%
X356225000Y-152146000D03*
D11*
%TO.P,D58,2,A*%
%TO.N,Net-(D58-A)*%
X348605000Y-152146000D03*
%TD*%
D10*
%TO.P,D164,1,K*%
%TO.N,Net-(D152-K)*%
X381615000Y-171196000D03*
D11*
%TO.P,D164,2,A*%
%TO.N,Net-(D164-A)*%
X373995000Y-171196000D03*
%TD*%
D14*
%TO.P,R13,1*%
%TO.N,+5V*%
X361940000Y-143611600D03*
D11*
%TO.P,R13,2*%
%TO.N,Net-(D181-A)*%
X372100000Y-143611600D03*
%TD*%
D10*
%TO.P,SW13,1*%
%TO.N,Net-(D93-A)*%
X294589200Y-92811600D03*
D11*
%TO.P,SW13,2*%
%TO.N,Net-(D95-A)*%
X294589200Y-90271600D03*
%TO.P,SW13,3*%
%TO.N,Net-(D97-A)*%
X294589200Y-87731600D03*
%TO.P,SW13,4*%
%TO.N,Net-(D99-A)*%
X294589200Y-85191600D03*
%TO.P,SW13,5*%
%TO.N,Net-(D101-A)*%
X294589200Y-82651600D03*
%TO.P,SW13,6*%
%TO.N,Net-(D103-A)*%
X294589200Y-80111600D03*
%TO.P,SW13,7*%
%TO.N,Net-(D105-A)*%
X294589200Y-77571600D03*
%TO.P,SW13,8*%
%TO.N,Net-(D107-A)*%
X294589200Y-75031600D03*
%TO.P,SW13,9*%
%TO.N,2ol0*%
X286969200Y-75031600D03*
%TO.P,SW13,10*%
%TO.N,2ol1*%
X286969200Y-77571600D03*
%TO.P,SW13,11*%
%TO.N,2ol2*%
X286969200Y-80111600D03*
%TO.P,SW13,12*%
%TO.N,2ol3*%
X286969200Y-82651600D03*
%TO.P,SW13,13*%
%TO.N,2oc0*%
X286969200Y-85191600D03*
%TO.P,SW13,14*%
%TO.N,2oc1*%
X286969200Y-87731600D03*
%TO.P,SW13,15*%
%TO.N,2oc2*%
X286969200Y-90271600D03*
%TO.P,SW13,16*%
%TO.N,2oc3*%
X286969200Y-92811600D03*
%TD*%
D10*
%TO.P,D222,1,K*%
%TO.N,Net-(D212-K)*%
X330845000Y-82651600D03*
D11*
%TO.P,D222,2,A*%
%TO.N,Net-(D222-A)*%
X323225000Y-82651600D03*
%TD*%
D10*
%TO.P,SW5,1*%
%TO.N,Net-(D33-A)*%
X294589200Y-183896000D03*
D11*
%TO.P,SW5,2*%
%TO.N,Net-(D35-A)*%
X294589200Y-181356000D03*
%TO.P,SW5,3*%
%TO.N,Net-(D37-A)*%
X294589200Y-178816000D03*
%TO.P,SW5,4*%
%TO.N,Net-(D39-A)*%
X294589200Y-176276000D03*
%TO.P,SW5,5*%
%TO.N,Net-(D41-A)*%
X294589200Y-173736000D03*
%TO.P,SW5,6*%
%TO.N,Net-(D43-A)*%
X294589200Y-171196000D03*
%TO.P,SW5,7*%
%TO.N,Net-(D45-A)*%
X294589200Y-168656000D03*
%TO.P,SW5,8*%
%TO.N,Net-(D47-A)*%
X294589200Y-166116000D03*
%TO.P,SW5,9*%
%TO.N,2ol0*%
X286969200Y-166116000D03*
%TO.P,SW5,10*%
%TO.N,2ol1*%
X286969200Y-168656000D03*
%TO.P,SW5,11*%
%TO.N,2ol2*%
X286969200Y-171196000D03*
%TO.P,SW5,12*%
%TO.N,2ol3*%
X286969200Y-173736000D03*
%TO.P,SW5,13*%
%TO.N,2oc0*%
X286969200Y-176276000D03*
%TO.P,SW5,14*%
%TO.N,2oc1*%
X286969200Y-178816000D03*
%TO.P,SW5,15*%
%TO.N,2oc2*%
X286969200Y-181356000D03*
%TO.P,SW5,16*%
%TO.N,2oc3*%
X286969200Y-183896000D03*
%TD*%
D10*
%TO.P,D51,1,K*%
%TO.N,Net-(D31-K)*%
X305384200Y-159766000D03*
D11*
%TO.P,D51,2,A*%
%TO.N,Net-(D51-A)*%
X297764200Y-159766000D03*
%TD*%
D10*
%TO.P,D230,1,K*%
%TO.N,Net-(D212-K)*%
X330845000Y-71221600D03*
D11*
%TO.P,D230,2,A*%
%TO.N,Net-(D230-A)*%
X323225000Y-71221600D03*
%TD*%
D10*
%TO.P,D153,1,K*%
%TO.N,Net-(D151-K)*%
X330835000Y-183896000D03*
D11*
%TO.P,D153,2,A*%
%TO.N,Net-(D153-A)*%
X323215000Y-183896000D03*
%TD*%
D15*
%TO.P,J2,1,Pin_1*%
%TO.N,pc0*%
X454787000Y-70002400D03*
D16*
%TO.P,J2,2,Pin_2*%
%TO.N,pc1*%
X457327000Y-70002400D03*
%TO.P,J2,3,Pin_3*%
%TO.N,pc2*%
X454787000Y-72542400D03*
%TO.P,J2,4,Pin_4*%
%TO.N,pc3*%
X457327000Y-72542400D03*
%TO.P,J2,5,Pin_5*%
%TO.N,pc4*%
X454787000Y-75082400D03*
%TO.P,J2,6,Pin_6*%
%TO.N,unconnected-(J2-Pin_6-Pad6)*%
X457327000Y-75082400D03*
%TO.P,J2,7,Pin_7*%
%TO.N,+5V*%
X454787000Y-77622400D03*
%TO.P,J2,8,Pin_8*%
%TO.N,GND*%
X457327000Y-77622400D03*
%TO.P,J2,9,Pin_9*%
%TO.N,unconnected-(J2-Pin_9-Pad9)*%
X454787000Y-80162400D03*
%TO.P,J2,10,Pin_10*%
%TO.N,unconnected-(J2-Pin_10-Pad10)*%
X457327000Y-80162400D03*
%TO.P,J2,11,Pin_11*%
%TO.N,unconnected-(J2-Pin_11-Pad11)*%
X454787000Y-82702400D03*
%TO.P,J2,12,Pin_12*%
%TO.N,unconnected-(J2-Pin_12-Pad12)*%
X457327000Y-82702400D03*
%TO.P,J2,13,Pin_13*%
%TO.N,unconnected-(J2-Pin_13-Pad13)*%
X454787000Y-85242400D03*
%TO.P,J2,14,Pin_14*%
%TO.N,unconnected-(J2-Pin_14-Pad14)*%
X457327000Y-85242400D03*
%TO.P,J2,15,Pin_15*%
%TO.N,unconnected-(J2-Pin_15-Pad15)*%
X454787000Y-87782400D03*
%TO.P,J2,16,Pin_16*%
%TO.N,unconnected-(J2-Pin_16-Pad16)*%
X457327000Y-87782400D03*
%TO.P,J2,17,Pin_17*%
%TO.N,unconnected-(J2-Pin_17-Pad17)*%
X454787000Y-90322400D03*
%TO.P,J2,18,Pin_18*%
%TO.N,unconnected-(J2-Pin_18-Pad18)*%
X457327000Y-90322400D03*
%TO.P,J2,19,Pin_19*%
%TO.N,unconnected-(J2-Pin_19-Pad19)*%
X454787000Y-92862400D03*
%TO.P,J2,20,Pin_20*%
%TO.N,unconnected-(J2-Pin_20-Pad20)*%
X457327000Y-92862400D03*
%TO.P,J2,21,Pin_21*%
%TO.N,unconnected-(J2-Pin_21-Pad21)*%
X454787000Y-95402400D03*
%TO.P,J2,22,Pin_22*%
%TO.N,unconnected-(J2-Pin_22-Pad22)*%
X457327000Y-95402400D03*
%TO.P,J2,23,Pin_23*%
%TO.N,unconnected-(J2-Pin_23-Pad23)*%
X454787000Y-97942400D03*
%TO.P,J2,24,Pin_24*%
%TO.N,unconnected-(J2-Pin_24-Pad24)*%
X457327000Y-97942400D03*
%TO.P,J2,25,Pin_25*%
%TO.N,unconnected-(J2-Pin_25-Pad25)*%
X454787000Y-100482400D03*
%TO.P,J2,26,Pin_26*%
%TO.N,unconnected-(J2-Pin_26-Pad26)*%
X457327000Y-100482400D03*
%TO.P,J2,27,Pin_27*%
%TO.N,unconnected-(J2-Pin_27-Pad27)*%
X454787000Y-103022400D03*
%TO.P,J2,28,Pin_28*%
%TO.N,unconnected-(J2-Pin_28-Pad28)*%
X457327000Y-103022400D03*
%TO.P,J2,29,Pin_29*%
%TO.N,unconnected-(J2-Pin_29-Pad29)*%
X454787000Y-105562400D03*
%TO.P,J2,30,Pin_30*%
%TO.N,unconnected-(J2-Pin_30-Pad30)*%
X457327000Y-105562400D03*
%TO.P,J2,31,Pin_31*%
%TO.N,unconnected-(J2-Pin_31-Pad31)*%
X454787000Y-108102400D03*
%TO.P,J2,32,Pin_32*%
%TO.N,unconnected-(J2-Pin_32-Pad32)*%
X457327000Y-108102400D03*
%TO.P,J2,33,Pin_33*%
%TO.N,unconnected-(J2-Pin_33-Pad33)*%
X454787000Y-110642400D03*
%TO.P,J2,34,Pin_34*%
%TO.N,unconnected-(J2-Pin_34-Pad34)*%
X457327000Y-110642400D03*
%TD*%
D10*
%TO.P,D180,1,K*%
%TO.N,Net-(D152-K)*%
X381615000Y-149606000D03*
D11*
%TO.P,D180,2,A*%
%TO.N,Net-(D180-A)*%
X373995000Y-149606000D03*
%TD*%
D10*
%TO.P,D36,1,K*%
%TO.N,Net-(D32-K)*%
X356225000Y-181356000D03*
D11*
%TO.P,D36,2,A*%
%TO.N,Net-(D36-A)*%
X348605000Y-181356000D03*
%TD*%
D10*
%TO.P,D12,1,K*%
%TO.N,Net-(D10-K)*%
X356227231Y-219449136D03*
D11*
%TO.P,D12,2,A*%
%TO.N,Net-(D12-A)*%
X348607231Y-219449136D03*
%TD*%
D10*
%TO.P,D39,1,K*%
%TO.N,Net-(D31-K)*%
X305384200Y-176276000D03*
D11*
%TO.P,D39,2,A*%
%TO.N,Net-(D39-A)*%
X297764200Y-176276000D03*
%TD*%
D10*
%TO.P,D87,1,K*%
%TO.N,Net-(D61-K)*%
X305394200Y-106781600D03*
D11*
%TO.P,D87,2,A*%
%TO.N,Net-(D87-A)*%
X297774200Y-106781600D03*
%TD*%
D10*
%TO.P,D118,1,K*%
%TO.N,Net-(D100-K)*%
X356235000Y-61061600D03*
D11*
%TO.P,D118,2,A*%
%TO.N,Net-(D118-A)*%
X348615000Y-61061600D03*
%TD*%
D10*
%TO.P,D80,1,K*%
%TO.N,Net-(D62-K)*%
X356235000Y-116941600D03*
D11*
%TO.P,D80,2,A*%
%TO.N,Net-(D80-A)*%
X348615000Y-116941600D03*
%TD*%
D12*
%TO.P,D91,1,K*%
%TO.N,Net-(D101-K)*%
X300990000Y-97891600D03*
D13*
%TO.P,D91,2,A*%
%TO.N,Net-(D91-A)*%
X298450000Y-97891600D03*
%TD*%
D10*
%TO.P,D15,1,K*%
%TO.N,Net-(D1-K)*%
X305384200Y-214412396D03*
D11*
%TO.P,D15,2,A*%
%TO.N,Net-(D15-A)*%
X297764200Y-214412396D03*
%TD*%
D10*
%TO.P,D198,1,K*%
%TO.N,Net-(D182-K)*%
X330845000Y-120751600D03*
D11*
%TO.P,D198,2,A*%
%TO.N,Net-(D198-A)*%
X323225000Y-120751600D03*
%TD*%
D10*
%TO.P,D116,1,K*%
%TO.N,Net-(D100-K)*%
X356235000Y-63601600D03*
D11*
%TO.P,D116,2,A*%
%TO.N,Net-(D116-A)*%
X348615000Y-63601600D03*
%TD*%
D10*
%TO.P,D83,1,K*%
%TO.N,Net-(D61-K)*%
X305394200Y-111861600D03*
D11*
%TO.P,D83,2,A*%
%TO.N,Net-(D83-A)*%
X297774200Y-111861600D03*
%TD*%
D10*
%TO.P,D155,1,K*%
%TO.N,Net-(D151-K)*%
X330835000Y-181356000D03*
D11*
%TO.P,D155,2,A*%
%TO.N,Net-(D155-A)*%
X323215000Y-181356000D03*
%TD*%
D10*
%TO.P,D23,1,K*%
%TO.N,Net-(D1-K)*%
X305384200Y-202946000D03*
D11*
%TO.P,D23,2,A*%
%TO.N,Net-(D23-A)*%
X297764200Y-202946000D03*
%TD*%
D10*
%TO.P,D178,1,K*%
%TO.N,Net-(D152-K)*%
X381615000Y-152146000D03*
D11*
%TO.P,D178,2,A*%
%TO.N,Net-(D178-A)*%
X373995000Y-152146000D03*
%TD*%
D10*
%TO.P,D75,1,K*%
%TO.N,Net-(D61-K)*%
X305394200Y-123291600D03*
D11*
%TO.P,D75,2,A*%
%TO.N,Net-(D75-A)*%
X297774200Y-123291600D03*
%TD*%
D10*
%TO.P,SW19,1*%
%TO.N,Net-(D139-A)*%
X320040000Y-208000600D03*
D11*
%TO.P,SW19,2*%
%TO.N,Net-(D141-A)*%
X320040000Y-205460600D03*
%TO.P,SW19,3*%
%TO.N,Net-(D143-A)*%
X320040000Y-202920600D03*
%TO.P,SW19,4*%
%TO.N,Net-(D145-A)*%
X320040000Y-200380600D03*
%TO.P,SW19,5*%
%TO.N,Net-(D147-A)*%
X320040000Y-197840600D03*
%TO.P,SW19,6*%
%TO.N,Net-(D149-A)*%
X320040000Y-195300600D03*
%TO.P,SW19,7*%
%TO.N,2Im0*%
X312420000Y-195300600D03*
%TO.P,SW19,8*%
%TO.N,2Im1*%
X312420000Y-197840600D03*
%TO.P,SW19,9*%
%TO.N,2Im2*%
X312420000Y-200380600D03*
%TO.P,SW19,10*%
%TO.N,2Im3*%
X312420000Y-202920600D03*
%TO.P,SW19,11*%
%TO.N,2Im4*%
X312420000Y-205460600D03*
%TO.P,SW19,12*%
%TO.N,2Im5*%
X312420000Y-208000600D03*
%TD*%
D10*
%TO.P,D126,1,K*%
%TO.N,Net-(D122-K)*%
X381615000Y-227050600D03*
D11*
%TO.P,D126,2,A*%
%TO.N,Net-(D126-A)*%
X373995000Y-227050600D03*
%TD*%
D10*
%TO.P,D19,1,K*%
%TO.N,Net-(D1-K)*%
X305361200Y-208026000D03*
D11*
%TO.P,D19,2,A*%
%TO.N,Net-(D19-A)*%
X297741200Y-208026000D03*
%TD*%
D10*
%TO.P,D48,1,K*%
%TO.N,Net-(D32-K)*%
X356225000Y-166116000D03*
D11*
%TO.P,D48,2,A*%
%TO.N,Net-(D48-A)*%
X348605000Y-166116000D03*
%TD*%
D10*
%TO.P,SW14,1*%
%TO.N,Net-(D94-A)*%
X345440000Y-92811600D03*
D11*
%TO.P,SW14,2*%
%TO.N,Net-(D96-A)*%
X345440000Y-90271600D03*
%TO.P,SW14,3*%
%TO.N,Net-(D98-A)*%
X345440000Y-87731600D03*
%TO.P,SW14,4*%
%TO.N,Net-(D100-A)*%
X345440000Y-85191600D03*
%TO.P,SW14,5*%
%TO.N,Net-(D102-A)*%
X345440000Y-82651600D03*
%TO.P,SW14,6*%
%TO.N,Net-(D104-A)*%
X345440000Y-80111600D03*
%TO.P,SW14,7*%
%TO.N,Net-(D106-A)*%
X345440000Y-77571600D03*
%TO.P,SW14,8*%
%TO.N,Net-(D108-A)*%
X345440000Y-75031600D03*
%TO.P,SW14,9*%
%TO.N,2ol0*%
X337820000Y-75031600D03*
%TO.P,SW14,10*%
%TO.N,2ol1*%
X337820000Y-77571600D03*
%TO.P,SW14,11*%
%TO.N,2ol2*%
X337820000Y-80111600D03*
%TO.P,SW14,12*%
%TO.N,2ol3*%
X337820000Y-82651600D03*
%TO.P,SW14,13*%
%TO.N,2oc0*%
X337820000Y-85191600D03*
%TO.P,SW14,14*%
%TO.N,2oc1*%
X337820000Y-87731600D03*
%TO.P,SW14,15*%
%TO.N,2oc2*%
X337820000Y-90271600D03*
%TO.P,SW14,16*%
%TO.N,2oc3*%
X337820000Y-92811600D03*
%TD*%
D10*
%TO.P,D89,1,K*%
%TO.N,Net-(D61-K)*%
X305394200Y-104241600D03*
D11*
%TO.P,D89,2,A*%
%TO.N,Net-(D89-A)*%
X297774200Y-104241600D03*
%TD*%
D10*
%TO.P,D217,1,K*%
%TO.N,Net-(D211-K)*%
X381625000Y-87731600D03*
D11*
%TO.P,D217,2,A*%
%TO.N,Net-(D217-A)*%
X374005000Y-87731600D03*
%TD*%
D10*
%TO.P,D207,1,K*%
%TO.N,Net-(D181-K)*%
X381625000Y-106781600D03*
D11*
%TO.P,D207,2,A*%
%TO.N,Net-(D207-A)*%
X374005000Y-106781600D03*
%TD*%
D14*
%TO.P,R8,1*%
%TO.N,+5V*%
X336550000Y-97790000D03*
D11*
%TO.P,R8,2*%
%TO.N,Net-(D92-A)*%
X346710000Y-97790000D03*
%TD*%
D10*
%TO.P,D38,1,K*%
%TO.N,Net-(D32-K)*%
X356225000Y-178816000D03*
D11*
%TO.P,D38,2,A*%
%TO.N,Net-(D38-A)*%
X348605000Y-178816000D03*
%TD*%
D10*
%TO.P,D81,1,K*%
%TO.N,Net-(D61-K)*%
X305394200Y-114401600D03*
D11*
%TO.P,D81,2,A*%
%TO.N,Net-(D81-A)*%
X297774200Y-114401600D03*
%TD*%
D10*
%TO.P,D170,1,K*%
%TO.N,Net-(D152-K)*%
X381615000Y-162306000D03*
D11*
%TO.P,D170,2,A*%
%TO.N,Net-(D170-A)*%
X373995000Y-162306000D03*
%TD*%
D10*
%TO.P,D232,1,K*%
%TO.N,Net-(D212-K)*%
X330845000Y-68681600D03*
D11*
%TO.P,D232,2,A*%
%TO.N,Net-(D232-A)*%
X323225000Y-68681600D03*
%TD*%
D10*
%TO.P,SW11,1*%
%TO.N,Net-(D79-A)*%
X294599200Y-116941600D03*
D11*
%TO.P,SW11,2*%
%TO.N,Net-(D81-A)*%
X294599200Y-114401600D03*
%TO.P,SW11,3*%
%TO.N,Net-(D83-A)*%
X294599200Y-111861600D03*
%TO.P,SW11,4*%
%TO.N,Net-(D85-A)*%
X294599200Y-109321600D03*
%TO.P,SW11,5*%
%TO.N,Net-(D87-A)*%
X294599200Y-106781600D03*
%TO.P,SW11,6*%
%TO.N,Net-(D89-A)*%
X294599200Y-104241600D03*
%TO.P,SW11,7*%
%TO.N,2Im0*%
X286979200Y-104241600D03*
%TO.P,SW11,8*%
%TO.N,2Im1*%
X286979200Y-106781600D03*
%TO.P,SW11,9*%
%TO.N,2Im2*%
X286979200Y-109321600D03*
%TO.P,SW11,10*%
%TO.N,2Im3*%
X286979200Y-111861600D03*
%TO.P,SW11,11*%
%TO.N,2Im4*%
X286979200Y-114401600D03*
%TO.P,SW11,12*%
%TO.N,2Im5*%
X286979200Y-116941600D03*
%TD*%
D10*
%TO.P,D239,1,K*%
%TO.N,Net-(D211-K)*%
X381625000Y-58521600D03*
D11*
%TO.P,D239,2,A*%
%TO.N,Net-(D239-A)*%
X374005000Y-58521600D03*
%TD*%
D10*
%TO.P,D45,1,K*%
%TO.N,Net-(D31-K)*%
X305384200Y-168656000D03*
D11*
%TO.P,D45,2,A*%
%TO.N,Net-(D45-A)*%
X297764200Y-168656000D03*
%TD*%
D10*
%TO.P,D150,1,K*%
%TO.N,Net-(D122-K)*%
X381615000Y-195300600D03*
D11*
%TO.P,D150,2,A*%
%TO.N,Net-(D150-A)*%
X373995000Y-195300600D03*
%TD*%
D14*
%TO.P,C3,1*%
%TO.N,+5V*%
X409575000Y-203795000D03*
%TO.P,C3,2*%
%TO.N,GND*%
X409575000Y-201295000D03*
%TD*%
D10*
%TO.P,D67,1,K*%
%TO.N,Net-(D61-K)*%
X305394200Y-133451600D03*
D11*
%TO.P,D67,2,A*%
%TO.N,Net-(D67-A)*%
X297774200Y-133451600D03*
%TD*%
D10*
%TO.P,D132,1,K*%
%TO.N,Net-(D122-K)*%
X381615000Y-219430600D03*
D11*
%TO.P,D132,2,A*%
%TO.N,Net-(D132-A)*%
X373995000Y-219430600D03*
%TD*%
D10*
%TO.P,D20,1,K*%
%TO.N,Net-(D10-K)*%
X356213363Y-207989923D03*
D11*
%TO.P,D20,2,A*%
%TO.N,Net-(D20-A)*%
X348593363Y-207989923D03*
%TD*%
D10*
%TO.P,D227,1,K*%
%TO.N,Net-(D211-K)*%
X381625000Y-75031600D03*
D11*
%TO.P,D227,2,A*%
%TO.N,Net-(D227-A)*%
X374005000Y-75031600D03*
%TD*%
D10*
%TO.P,D179,1,K*%
%TO.N,Net-(D151-K)*%
X330835000Y-149606000D03*
D11*
%TO.P,D179,2,A*%
%TO.N,Net-(D179-A)*%
X323215000Y-149606000D03*
%TD*%
D10*
%TO.P,D167,1,K*%
%TO.N,Net-(D151-K)*%
X330835000Y-166116000D03*
D11*
%TO.P,D167,2,A*%
%TO.N,Net-(D167-A)*%
X323215000Y-166116000D03*
%TD*%
D10*
%TO.P,D142,1,K*%
%TO.N,Net-(D122-K)*%
X381615000Y-205460600D03*
D11*
%TO.P,D142,2,A*%
%TO.N,Net-(D142-A)*%
X373995000Y-205460600D03*
%TD*%
D10*
%TO.P,D33,1,K*%
%TO.N,Net-(D31-K)*%
X305384200Y-183896000D03*
D11*
%TO.P,D33,2,A*%
%TO.N,Net-(D33-A)*%
X297764200Y-183896000D03*
%TD*%
D10*
%TO.P,D189,1,K*%
%TO.N,Net-(D181-K)*%
X381625000Y-130911600D03*
D11*
%TO.P,D189,2,A*%
%TO.N,Net-(D189-A)*%
X374005000Y-130911600D03*
%TD*%
D10*
%TO.P,D137,1,K*%
%TO.N,Net-(D121-K)*%
X330835000Y-211810600D03*
D11*
%TO.P,D137,2,A*%
%TO.N,Net-(D137-A)*%
X323215000Y-211810600D03*
%TD*%
D10*
%TO.P,D140,1,K*%
%TO.N,Net-(D122-K)*%
X381615000Y-208000600D03*
D11*
%TO.P,D140,2,A*%
%TO.N,Net-(D140-A)*%
X373995000Y-208000600D03*
%TD*%
D10*
%TO.P,D25,1,K*%
%TO.N,Net-(D1-K)*%
X305384200Y-200406000D03*
D11*
%TO.P,D25,2,A*%
%TO.N,Net-(D25-A)*%
X297764200Y-200406000D03*
%TD*%
D10*
%TO.P,D8,1,K*%
%TO.N,Net-(D10-K)*%
X356225000Y-224510600D03*
D11*
%TO.P,D8,2,A*%
%TO.N,Net-(D8-A)*%
X348605000Y-224510600D03*
%TD*%
D10*
%TO.P,D4,1,K*%
%TO.N,Net-(D10-K)*%
X356227231Y-229609136D03*
D11*
%TO.P,D4,2,A*%
%TO.N,Net-(D4-A)*%
X348607231Y-229609136D03*
%TD*%
D10*
%TO.P,D226,1,K*%
%TO.N,Net-(D212-K)*%
X330845000Y-77571600D03*
D11*
%TO.P,D226,2,A*%
%TO.N,Net-(D226-A)*%
X323225000Y-77571600D03*
%TD*%
D10*
%TO.P,D127,1,K*%
%TO.N,Net-(D121-K)*%
X330835000Y-224510600D03*
D11*
%TO.P,D127,2,A*%
%TO.N,Net-(D127-A)*%
X323215000Y-224510600D03*
%TD*%
D10*
%TO.P,D176,1,K*%
%TO.N,Net-(D152-K)*%
X381615000Y-154686000D03*
D11*
%TO.P,D176,2,A*%
%TO.N,Net-(D176-A)*%
X373995000Y-154686000D03*
%TD*%
D10*
%TO.P,D66,1,K*%
%TO.N,Net-(D62-K)*%
X356235000Y-135991600D03*
D11*
%TO.P,D66,2,A*%
%TO.N,Net-(D66-A)*%
X348615000Y-135991600D03*
%TD*%
D10*
%TO.P,D195,1,K*%
%TO.N,Net-(D181-K)*%
X381625000Y-123291600D03*
D11*
%TO.P,D195,2,A*%
%TO.N,Net-(D195-A)*%
X374005000Y-123291600D03*
%TD*%
D10*
%TO.P,D34,1,K*%
%TO.N,Net-(D32-K)*%
X356225000Y-183896000D03*
D11*
%TO.P,D34,2,A*%
%TO.N,Net-(D34-A)*%
X348605000Y-183896000D03*
%TD*%
D14*
%TO.P,R15,1*%
%TO.N,+5V*%
X361950000Y-97891600D03*
D11*
%TO.P,R15,2*%
%TO.N,Net-(D211-A)*%
X372110000Y-97891600D03*
%TD*%
D10*
%TO.P,D157,1,K*%
%TO.N,Net-(D151-K)*%
X330835000Y-178816000D03*
D11*
%TO.P,D157,2,A*%
%TO.N,Net-(D157-A)*%
X323215000Y-178816000D03*
%TD*%
D10*
%TO.P,D129,1,K*%
%TO.N,Net-(D121-K)*%
X330835000Y-221970600D03*
D11*
%TO.P,D129,2,A*%
%TO.N,Net-(D129-A)*%
X323215000Y-221970600D03*
%TD*%
D10*
%TO.P,D55,1,K*%
%TO.N,Net-(D31-K)*%
X305384200Y-154686000D03*
D11*
%TO.P,D55,2,A*%
%TO.N,Net-(D55-A)*%
X297764200Y-154686000D03*
%TD*%
D10*
%TO.P,D57,1,K*%
%TO.N,Net-(D31-K)*%
X305384200Y-152146000D03*
D11*
%TO.P,D57,2,A*%
%TO.N,Net-(D57-A)*%
X297764200Y-152146000D03*
%TD*%
D10*
%TO.P,SW9,1*%
%TO.N,Net-(D63-A)*%
X294609200Y-138531600D03*
D11*
%TO.P,SW9,2*%
%TO.N,Net-(D65-A)*%
X294609200Y-135991600D03*
%TO.P,SW9,3*%
%TO.N,Net-(D67-A)*%
X294609200Y-133451600D03*
%TO.P,SW9,4*%
%TO.N,Net-(D69-A)*%
X294609200Y-130911600D03*
%TO.P,SW9,5*%
%TO.N,Net-(D71-A)*%
X294609200Y-128371600D03*
%TO.P,SW9,6*%
%TO.N,Net-(D73-A)*%
X294609200Y-125831600D03*
%TO.P,SW9,7*%
%TO.N,Net-(D75-A)*%
X294609200Y-123291600D03*
%TO.P,SW9,8*%
%TO.N,Net-(D77-A)*%
X294609200Y-120751600D03*
%TO.P,SW9,9*%
%TO.N,2ol0*%
X286989200Y-120751600D03*
%TO.P,SW9,10*%
%TO.N,2ol1*%
X286989200Y-123291600D03*
%TO.P,SW9,11*%
%TO.N,2ol2*%
X286989200Y-125831600D03*
%TO.P,SW9,12*%
%TO.N,2ol3*%
X286989200Y-128371600D03*
%TO.P,SW9,13*%
%TO.N,2oc0*%
X286989200Y-130911600D03*
%TO.P,SW9,14*%
%TO.N,2oc1*%
X286989200Y-133451600D03*
%TO.P,SW9,15*%
%TO.N,2oc2*%
X286989200Y-135991600D03*
%TO.P,SW9,16*%
%TO.N,2oc3*%
X286989200Y-138531600D03*
%TD*%
D10*
%TO.P,D107,1,K*%
%TO.N,Net-(D101-K)*%
X305394200Y-75031600D03*
D11*
%TO.P,D107,2,A*%
%TO.N,Net-(D107-A)*%
X297774200Y-75031600D03*
%TD*%
D10*
%TO.P,D93,1,K*%
%TO.N,Net-(D101-K)*%
X305394200Y-92811600D03*
D11*
%TO.P,D93,2,A*%
%TO.N,Net-(D93-A)*%
X297774200Y-92811600D03*
%TD*%
D10*
%TO.P,D37,1,K*%
%TO.N,Net-(D31-K)*%
X305384200Y-178816000D03*
D11*
%TO.P,D37,2,A*%
%TO.N,Net-(D37-A)*%
X297764200Y-178816000D03*
%TD*%
D14*
%TO.P,R1,1*%
%TO.N,+5V*%
X285699200Y-234670600D03*
D11*
%TO.P,R1,2*%
%TO.N,Net-(D1-A)*%
X295859200Y-234670600D03*
%TD*%
D10*
%TO.P,SW31,1*%
%TO.N,Net-(D229-A)*%
X370830000Y-71221600D03*
D11*
%TO.P,SW31,2*%
%TO.N,Net-(D231-A)*%
X370830000Y-68681600D03*
%TO.P,SW31,3*%
%TO.N,Net-(D233-A)*%
X370830000Y-66141600D03*
%TO.P,SW31,4*%
%TO.N,Net-(D235-A)*%
X370830000Y-63601600D03*
%TO.P,SW31,5*%
%TO.N,Net-(D237-A)*%
X370830000Y-61061600D03*
%TO.P,SW31,6*%
%TO.N,Net-(D239-A)*%
X370830000Y-58521600D03*
%TO.P,SW31,7*%
%TO.N,2Im0*%
X363210000Y-58521600D03*
%TO.P,SW31,8*%
%TO.N,2Im1*%
X363210000Y-61061600D03*
%TO.P,SW31,9*%
%TO.N,2Im2*%
X363210000Y-63601600D03*
%TO.P,SW31,10*%
%TO.N,2Im3*%
X363210000Y-66141600D03*
%TO.P,SW31,11*%
%TO.N,2Im4*%
X363210000Y-68681600D03*
%TO.P,SW31,12*%
%TO.N,2Im5*%
X363210000Y-71221600D03*
%TD*%
D10*
%TO.P,D169,1,K*%
%TO.N,Net-(D151-K)*%
X330835000Y-162306000D03*
D11*
%TO.P,D169,2,A*%
%TO.N,Net-(D169-A)*%
X323215000Y-162306000D03*
%TD*%
D10*
%TO.P,D99,1,K*%
%TO.N,Net-(D101-K)*%
X305394200Y-85191600D03*
D11*
%TO.P,D99,2,A*%
%TO.N,Net-(D99-A)*%
X297774200Y-85191600D03*
%TD*%
D10*
%TO.P,SW29,1*%
%TO.N,Net-(D213-A)*%
X370830000Y-92821600D03*
D11*
%TO.P,SW29,2*%
%TO.N,Net-(D215-A)*%
X370830000Y-90281600D03*
%TO.P,SW29,3*%
%TO.N,Net-(D217-A)*%
X370830000Y-87741600D03*
%TO.P,SW29,4*%
%TO.N,Net-(D219-A)*%
X370830000Y-85201600D03*
%TO.P,SW29,5*%
%TO.N,Net-(D221-A)*%
X370830000Y-82661600D03*
%TO.P,SW29,6*%
%TO.N,Net-(D223-A)*%
X370830000Y-80121600D03*
%TO.P,SW29,7*%
%TO.N,Net-(D225-A)*%
X370830000Y-77581600D03*
%TO.P,SW29,8*%
%TO.N,Net-(D227-A)*%
X370830000Y-75041600D03*
%TO.P,SW29,9*%
%TO.N,2ol0*%
X363210000Y-75041600D03*
%TO.P,SW29,10*%
%TO.N,2ol1*%
X363210000Y-77581600D03*
%TO.P,SW29,11*%
%TO.N,2ol2*%
X363210000Y-80121600D03*
%TO.P,SW29,12*%
%TO.N,2ol3*%
X363210000Y-82661600D03*
%TO.P,SW29,13*%
%TO.N,2oc0*%
X363210000Y-85201600D03*
%TO.P,SW29,14*%
%TO.N,2oc1*%
X363210000Y-87741600D03*
%TO.P,SW29,15*%
%TO.N,2oc2*%
X363210000Y-90281600D03*
%TO.P,SW29,16*%
%TO.N,2oc3*%
X363210000Y-92821600D03*
%TD*%
D12*
%TO.P,D212,1,K*%
%TO.N,Net-(D212-K)*%
X326395000Y-97790000D03*
D13*
%TO.P,D212,2,A*%
%TO.N,Net-(D212-A)*%
X323855000Y-97790000D03*
%TD*%
D10*
%TO.P,D146,1,K*%
%TO.N,Net-(D122-K)*%
X381615000Y-200380600D03*
D11*
%TO.P,D146,2,A*%
%TO.N,Net-(D146-A)*%
X373995000Y-200380600D03*
%TD*%
D10*
%TO.P,D188,1,K*%
%TO.N,Net-(D182-K)*%
X330845000Y-133451600D03*
D11*
%TO.P,D188,2,A*%
%TO.N,Net-(D188-A)*%
X323225000Y-133451600D03*
%TD*%
D10*
%TO.P,D6,1,K*%
%TO.N,Net-(D10-K)*%
X356227231Y-227069136D03*
D11*
%TO.P,D6,2,A*%
%TO.N,Net-(D6-A)*%
X348607231Y-227069136D03*
%TD*%
D10*
%TO.P,D173,1,K*%
%TO.N,Net-(D151-K)*%
X330835000Y-157226000D03*
D11*
%TO.P,D173,2,A*%
%TO.N,Net-(D173-A)*%
X323215000Y-157226000D03*
%TD*%
D10*
%TO.P,D64,1,K*%
%TO.N,Net-(D62-K)*%
X356235000Y-138531600D03*
D11*
%TO.P,D64,2,A*%
%TO.N,Net-(D64-A)*%
X348615000Y-138531600D03*
%TD*%
D10*
%TO.P,D41,1,K*%
%TO.N,Net-(D31-K)*%
X305384200Y-173736000D03*
D11*
%TO.P,D41,2,A*%
%TO.N,Net-(D41-A)*%
X297764200Y-173736000D03*
%TD*%
D10*
%TO.P,D29,1,K*%
%TO.N,Net-(D1-K)*%
X305384200Y-195326000D03*
D11*
%TO.P,D29,2,A*%
%TO.N,Net-(D29-A)*%
X297764200Y-195326000D03*
%TD*%
D10*
%TO.P,SW10,1*%
%TO.N,Net-(D64-A)*%
X345440000Y-138531600D03*
D11*
%TO.P,SW10,2*%
%TO.N,Net-(D66-A)*%
X345440000Y-135991600D03*
%TO.P,SW10,3*%
%TO.N,Net-(D68-A)*%
X345440000Y-133451600D03*
%TO.P,SW10,4*%
%TO.N,Net-(D70-A)*%
X345440000Y-130911600D03*
%TO.P,SW10,5*%
%TO.N,Net-(D72-A)*%
X345440000Y-128371600D03*
%TO.P,SW10,6*%
%TO.N,Net-(D74-A)*%
X345440000Y-125831600D03*
%TO.P,SW10,7*%
%TO.N,Net-(D76-A)*%
X345440000Y-123291600D03*
%TO.P,SW10,8*%
%TO.N,Net-(D78-A)*%
X345440000Y-120751600D03*
%TO.P,SW10,9*%
%TO.N,2ol0*%
X337820000Y-120751600D03*
%TO.P,SW10,10*%
%TO.N,2ol1*%
X337820000Y-123291600D03*
%TO.P,SW10,11*%
%TO.N,2ol2*%
X337820000Y-125831600D03*
%TO.P,SW10,12*%
%TO.N,2ol3*%
X337820000Y-128371600D03*
%TO.P,SW10,13*%
%TO.N,2oc0*%
X337820000Y-130911600D03*
%TO.P,SW10,14*%
%TO.N,2oc1*%
X337820000Y-133451600D03*
%TO.P,SW10,15*%
%TO.N,2oc2*%
X337820000Y-135991600D03*
%TO.P,SW10,16*%
%TO.N,2oc3*%
X337820000Y-138531600D03*
%TD*%
D10*
%TO.P,D24,1,K*%
%TO.N,Net-(D10-K)*%
X356213363Y-202909923D03*
D11*
%TO.P,D24,2,A*%
%TO.N,Net-(D24-A)*%
X348593363Y-202909923D03*
%TD*%
D10*
%TO.P,D147,1,K*%
%TO.N,Net-(D121-K)*%
X330835000Y-197840600D03*
D11*
%TO.P,D147,2,A*%
%TO.N,Net-(D147-A)*%
X323215000Y-197840600D03*
%TD*%
D10*
%TO.P,D56,1,K*%
%TO.N,Net-(D32-K)*%
X356225000Y-154686000D03*
D11*
%TO.P,D56,2,A*%
%TO.N,Net-(D56-A)*%
X348605000Y-154686000D03*
%TD*%
D14*
%TO.P,R6,1*%
%TO.N,+5V*%
X336550000Y-143611600D03*
D11*
%TO.P,R6,2*%
%TO.N,Net-(D62-A)*%
X346710000Y-143611600D03*
%TD*%
D14*
%TO.P,R14,1*%
%TO.N,+5V*%
X311165000Y-143611600D03*
D11*
%TO.P,R14,2*%
%TO.N,Net-(D182-A)*%
X321325000Y-143611600D03*
%TD*%
D10*
%TO.P,D9,1,K*%
%TO.N,Net-(D1-K)*%
X305371059Y-222032396D03*
D11*
%TO.P,D9,2,A*%
%TO.N,Net-(D9-A)*%
X297751059Y-222032396D03*
%TD*%
D10*
%TO.P,D115,1,K*%
%TO.N,Net-(D101-K)*%
X305394200Y-63601600D03*
D11*
%TO.P,D115,2,A*%
%TO.N,Net-(D115-A)*%
X297774200Y-63601600D03*
%TD*%
D10*
%TO.P,D219,1,K*%
%TO.N,Net-(D211-K)*%
X381625000Y-85191600D03*
D11*
%TO.P,D219,2,A*%
%TO.N,Net-(D219-A)*%
X374005000Y-85191600D03*
%TD*%
D10*
%TO.P,D35,1,K*%
%TO.N,Net-(D31-K)*%
X305384200Y-181356000D03*
D11*
%TO.P,D35,2,A*%
%TO.N,Net-(D35-A)*%
X297764200Y-181356000D03*
%TD*%
D10*
%TO.P,SW8,1*%
%TO.N,Net-(D50-A)*%
X345430000Y-162306000D03*
D11*
%TO.P,SW8,2*%
%TO.N,Net-(D52-A)*%
X345430000Y-159766000D03*
%TO.P,SW8,3*%
%TO.N,Net-(D54-A)*%
X345430000Y-157226000D03*
%TO.P,SW8,4*%
%TO.N,Net-(D56-A)*%
X345430000Y-154686000D03*
%TO.P,SW8,5*%
%TO.N,Net-(D58-A)*%
X345430000Y-152146000D03*
%TO.P,SW8,6*%
%TO.N,Net-(D60-A)*%
X345430000Y-149606000D03*
%TO.P,SW8,7*%
%TO.N,2Im0*%
X337810000Y-149606000D03*
%TO.P,SW8,8*%
%TO.N,2Im1*%
X337810000Y-152146000D03*
%TO.P,SW8,9*%
%TO.N,2Im2*%
X337810000Y-154686000D03*
%TO.P,SW8,10*%
%TO.N,2Im3*%
X337810000Y-157226000D03*
%TO.P,SW8,11*%
%TO.N,2Im4*%
X337810000Y-159766000D03*
%TO.P,SW8,12*%
%TO.N,2Im5*%
X337810000Y-162306000D03*
%TD*%
D10*
%TO.P,D110,1,K*%
%TO.N,Net-(D100-K)*%
X356235000Y-71221600D03*
D11*
%TO.P,D110,2,A*%
%TO.N,Net-(D110-A)*%
X348615000Y-71221600D03*
%TD*%
D10*
%TO.P,D233,1,K*%
%TO.N,Net-(D211-K)*%
X381625000Y-66141600D03*
D11*
%TO.P,D233,2,A*%
%TO.N,Net-(D233-A)*%
X374005000Y-66141600D03*
%TD*%
D10*
%TO.P,D82,1,K*%
%TO.N,Net-(D62-K)*%
X356235000Y-114401600D03*
D11*
%TO.P,D82,2,A*%
%TO.N,Net-(D82-A)*%
X348615000Y-114401600D03*
%TD*%
D10*
%TO.P,D200,1,K*%
%TO.N,Net-(D182-K)*%
X330845000Y-116941600D03*
D11*
%TO.P,D200,2,A*%
%TO.N,Net-(D200-A)*%
X323225000Y-116941600D03*
%TD*%
D10*
%TO.P,SW15,1*%
%TO.N,Net-(D109-A)*%
X294589200Y-71221600D03*
D11*
%TO.P,SW15,2*%
%TO.N,Net-(D111-A)*%
X294589200Y-68681600D03*
%TO.P,SW15,3*%
%TO.N,Net-(D113-A)*%
X294589200Y-66141600D03*
%TO.P,SW15,4*%
%TO.N,Net-(D115-A)*%
X294589200Y-63601600D03*
%TO.P,SW15,5*%
%TO.N,Net-(D117-A)*%
X294589200Y-61061600D03*
%TO.P,SW15,6*%
%TO.N,Net-(D119-A)*%
X294589200Y-58521600D03*
%TO.P,SW15,7*%
%TO.N,2Im0*%
X286969200Y-58521600D03*
%TO.P,SW15,8*%
%TO.N,2Im1*%
X286969200Y-61061600D03*
%TO.P,SW15,9*%
%TO.N,2Im2*%
X286969200Y-63601600D03*
%TO.P,SW15,10*%
%TO.N,2Im3*%
X286969200Y-66141600D03*
%TO.P,SW15,11*%
%TO.N,2Im4*%
X286969200Y-68681600D03*
%TO.P,SW15,12*%
%TO.N,2Im5*%
X286969200Y-71221600D03*
%TD*%
D10*
%TO.P,D103,1,K*%
%TO.N,Net-(D101-K)*%
X305394200Y-80111600D03*
D11*
%TO.P,D103,2,A*%
%TO.N,Net-(D103-A)*%
X297774200Y-80111600D03*
%TD*%
D10*
%TO.P,D47,1,K*%
%TO.N,Net-(D31-K)*%
X305384200Y-166116000D03*
D11*
%TO.P,D47,2,A*%
%TO.N,Net-(D47-A)*%
X297764200Y-166116000D03*
%TD*%
D17*
%TO.N,+5V*%
X403225000Y-183515000D03*
%TO.N,GND*%
X459740000Y-78105000D03*
X410210000Y-172745400D03*
X409575000Y-175895000D03*
X408940000Y-169545000D03*
X410845000Y-142240000D03*
%TO.N,Net-(D31-K)*%
X386080000Y-182880000D03*
%TO.N,Net-(D61-K)*%
X387350000Y-153035000D03*
X379095000Y-147320000D03*
%TO.N,Net-(D101-K)*%
X379095000Y-100965000D03*
X393700000Y-138430000D03*
%TO.N,Net-(D121-K)*%
X393065000Y-180340000D03*
%TO.N,Net-(D151-K)*%
X335280000Y-146050000D03*
X370840000Y-146050000D03*
%TO.N,Net-(D181-K)*%
X381635000Y-146050000D03*
%TO.N,Net-(D182-K)*%
X384085500Y-137160000D03*
X392430000Y-137160000D03*
%TO.N,Net-(D212-K)*%
X407670000Y-130175000D03*
%TO.N,2oc3*%
X363855000Y-193675000D03*
%TO.N,2oc2*%
X283210000Y-195580000D03*
X283210000Y-133985000D03*
X283210000Y-179705000D03*
X286385000Y-192405000D03*
X364490000Y-192405000D03*
X283210000Y-224790000D03*
%TO.N,2oc1*%
X287655000Y-191135000D03*
X281940000Y-194945000D03*
X281940000Y-177165000D03*
X281940000Y-222250000D03*
X281940000Y-130810000D03*
X365125000Y-191135000D03*
%TO.N,2oc0*%
X280670000Y-219710000D03*
X280670000Y-174625000D03*
X280670000Y-193040000D03*
X365125000Y-189476500D03*
X280670000Y-128270000D03*
X287020000Y-189865000D03*
%TO.N,2ol3*%
X279400000Y-216535000D03*
X279400000Y-127000000D03*
X279400000Y-172720000D03*
X365125000Y-173990000D03*
%TO.N,2ol2*%
X451485000Y-144780000D03*
X367030000Y-171450000D03*
X278130000Y-125095000D03*
X278130000Y-170815000D03*
X278130000Y-213995000D03*
%TO.N,2ol1*%
X276860000Y-123190000D03*
X393700000Y-171450000D03*
X411480000Y-171450000D03*
X276860000Y-211455000D03*
X397510000Y-171450000D03*
X276860000Y-168910000D03*
%TO.N,2ol0*%
X275590000Y-208915000D03*
X408305000Y-166370000D03*
X400685000Y-166370000D03*
X275590000Y-167005000D03*
X396240000Y-166370000D03*
X275590000Y-120650000D03*
%TO.N,2Im5*%
X448945000Y-122555000D03*
X274320000Y-160655000D03*
X274320000Y-207010000D03*
X445135000Y-118745000D03*
X274320000Y-115570000D03*
%TO.N,2Im4*%
X273050000Y-113030000D03*
X447040000Y-117475000D03*
X273050000Y-158750000D03*
X450215000Y-120650000D03*
X273050000Y-204470000D03*
%TO.N,2Im3*%
X451485000Y-120015000D03*
X271780000Y-156210000D03*
X448310000Y-116840000D03*
X271780000Y-110490000D03*
X271780000Y-201930000D03*
%TO.N,2Im2*%
X270510000Y-154305000D03*
X449580000Y-116205000D03*
X452755000Y-119380000D03*
X270510000Y-107950000D03*
X270599500Y-199390000D03*
%TO.N,2Im1*%
X454025000Y-118745000D03*
X290195000Y-106680000D03*
X290195000Y-152400000D03*
X450304500Y-114935000D03*
%TO.N,2Im0*%
X292100000Y-149225000D03*
X292100000Y-194945000D03*
X292100000Y-104140000D03*
X455295000Y-118110000D03*
X450850000Y-113665000D03*
%TO.N,pc0*%
X414655000Y-182880000D03*
X414655000Y-154940000D03*
%TO.N,pc1*%
X417195000Y-180340000D03*
X415925000Y-152400000D03*
%TO.N,pc2*%
X417195000Y-149860000D03*
X419100000Y-177800000D03*
%TO.N,pc4*%
X414655000Y-174625000D03*
X428625000Y-98392100D03*
X414109500Y-147955000D03*
%TO.N,Net-(U3-E2)*%
X436245000Y-186690000D03*
%TD*%
D18*
%TO.N,+5V*%
X401076000Y-132603400D02*
X401076000Y-152644000D01*
X426680000Y-203795000D02*
X429260000Y-206375000D01*
X401751000Y-179909000D02*
X398790000Y-182870000D01*
X451445000Y-203795000D02*
X454025000Y-206375000D01*
X401751000Y-161208400D02*
X401751000Y-179909000D01*
X401076000Y-160533400D02*
X401751000Y-161208400D01*
X285750000Y-97891600D02*
X286975000Y-96666600D01*
X401076000Y-152644000D02*
X398780000Y-154940000D01*
X403225000Y-197445000D02*
X409575000Y-203795000D01*
X409575000Y-203795000D02*
X426680000Y-203795000D01*
X286975000Y-96666600D02*
X310031600Y-96666600D01*
X310031600Y-96666600D02*
X311155000Y-97790000D01*
X403225000Y-183515000D02*
X403225000Y-197445000D01*
X434340000Y-203795000D02*
X451445000Y-203795000D01*
D19*
%TO.N,GND*%
X459257400Y-77622400D02*
X459740000Y-78105000D01*
X408940000Y-171475400D02*
X410210000Y-172745400D01*
X408305000Y-144780000D02*
X410845000Y-142240000D01*
X457327000Y-77622400D02*
X459257400Y-77622400D01*
X408940000Y-169545000D02*
X408940000Y-171475400D01*
X409575000Y-174625000D02*
X409575000Y-175895000D01*
X406410000Y-172710000D02*
X407660000Y-172710000D01*
X407660000Y-172710000D02*
X409575000Y-174625000D01*
X406400000Y-144780000D02*
X408305000Y-144780000D01*
D18*
%TO.N,Net-(D1-K)*%
X303763600Y-237490000D02*
X376800600Y-237490000D01*
X376800600Y-237490000D02*
X402201000Y-212089600D01*
X402201000Y-212089600D02*
X402201000Y-157726000D01*
X300944200Y-234670600D02*
X303763600Y-237490000D01*
X399094009Y-156845000D02*
X397655000Y-155405991D01*
X402201000Y-157726000D02*
X401320000Y-156845000D01*
X397655000Y-153525000D02*
X398780000Y-152400000D01*
X401320000Y-156845000D02*
X399094009Y-156845000D01*
X397655000Y-155405991D02*
X397655000Y-153525000D01*
%TO.N,Net-(D10-K)*%
X382740000Y-196380000D02*
X382740000Y-230715600D01*
X353415600Y-233045000D02*
X351790000Y-234670600D01*
X382740000Y-230715600D02*
X380410600Y-233045000D01*
X398790000Y-180330000D02*
X382740000Y-196380000D01*
X380410600Y-233045000D02*
X353415600Y-233045000D01*
%TO.N,Net-(D3-A)*%
X294621129Y-229622529D02*
X294589200Y-229590600D01*
X297728058Y-229622529D02*
X294621129Y-229622529D01*
%TO.N,Net-(D4-A)*%
X348607231Y-229609136D02*
X345448536Y-229609136D01*
X345448536Y-229609136D02*
X345430000Y-229590600D01*
%TO.N,Net-(D5-A)*%
X297728058Y-227109103D02*
X294647703Y-227109103D01*
X294647703Y-227109103D02*
X294589200Y-227050600D01*
%TO.N,Net-(D6-A)*%
X345430000Y-227050600D02*
X348588695Y-227050600D01*
X348588695Y-227050600D02*
X348607231Y-227069136D01*
%TO.N,Net-(D7-A)*%
X297666262Y-224510600D02*
X297728058Y-224572396D01*
X294589200Y-224510600D02*
X297666262Y-224510600D01*
%TO.N,Net-(D8-A)*%
X348605000Y-224510600D02*
X345430000Y-224510600D01*
%TO.N,Net-(D9-A)*%
X297751059Y-222032396D02*
X294650996Y-222032396D01*
X294650996Y-222032396D02*
X294589200Y-221970600D01*
%TO.N,Net-(D10-A)*%
X348588695Y-221970600D02*
X348607231Y-221989136D01*
X345430000Y-221970600D02*
X348588695Y-221970600D01*
%TO.N,Net-(D11-A)*%
X297693458Y-219430600D02*
X297742400Y-219479542D01*
X294589200Y-219430600D02*
X297693458Y-219430600D01*
%TO.N,Net-(D12-A)*%
X345448536Y-219449136D02*
X345430000Y-219430600D01*
X348607231Y-219449136D02*
X345448536Y-219449136D01*
%TO.N,Net-(D13-A)*%
X297756742Y-216939542D02*
X294638142Y-216939542D01*
X294638142Y-216939542D02*
X294589200Y-216890600D01*
%TO.N,Net-(D14-A)*%
X345430000Y-216890600D02*
X348588695Y-216890600D01*
X348588695Y-216890600D02*
X348607231Y-216909136D01*
%TO.N,Net-(D15-A)*%
X297702404Y-214350600D02*
X297764200Y-214412396D01*
X294589200Y-214350600D02*
X297702404Y-214350600D01*
%TO.N,Net-(D16-A)*%
X348607231Y-214369136D02*
X345448536Y-214369136D01*
X345448536Y-214369136D02*
X345430000Y-214350600D01*
%TO.N,Net-(D17-A)*%
X294589200Y-211810600D02*
X297736484Y-211810600D01*
X297736484Y-211810600D02*
X297771084Y-211845200D01*
%TO.N,Net-(D18-A)*%
X348609464Y-211810600D02*
X348628000Y-211829136D01*
X345430000Y-211810600D02*
X348609464Y-211810600D01*
%TO.N,Net-(D19-A)*%
X297715800Y-208000600D02*
X297741200Y-208026000D01*
X294589200Y-208000600D02*
X297715800Y-208000600D01*
%TO.N,Net-(D20-A)*%
X345430000Y-208000600D02*
X348582686Y-208000600D01*
X348582686Y-208000600D02*
X348593363Y-207989923D01*
%TO.N,Net-(D21-A)*%
X294614600Y-205486000D02*
X294589200Y-205460600D01*
X297764200Y-205486000D02*
X294614600Y-205486000D01*
%TO.N,Net-(D22-A)*%
X348593363Y-205449923D02*
X345440677Y-205449923D01*
X345440677Y-205449923D02*
X345430000Y-205460600D01*
%TO.N,Net-(D23-A)*%
X297738800Y-202920600D02*
X297764200Y-202946000D01*
X294589200Y-202920600D02*
X297738800Y-202920600D01*
%TO.N,Net-(D24-A)*%
X345440677Y-202909923D02*
X345430000Y-202920600D01*
X348593363Y-202909923D02*
X345440677Y-202909923D01*
%TO.N,Net-(D25-A)*%
X294589200Y-200380600D02*
X297738800Y-200380600D01*
X297738800Y-200380600D02*
X297764200Y-200406000D01*
%TO.N,Net-(D26-A)*%
X348582686Y-200380600D02*
X348593363Y-200369923D01*
X345430000Y-200380600D02*
X348582686Y-200380600D01*
%TO.N,Net-(D27-A)*%
X297764200Y-197866000D02*
X294614600Y-197866000D01*
X294614600Y-197866000D02*
X294589200Y-197840600D01*
%TO.N,Net-(D28-A)*%
X348593363Y-197829923D02*
X345440677Y-197829923D01*
X345440677Y-197829923D02*
X345430000Y-197840600D01*
%TO.N,Net-(D29-A)*%
X297545181Y-195300596D02*
X297764200Y-195519615D01*
X294589200Y-195300600D02*
X297738800Y-195300600D01*
X297738800Y-195300600D02*
X297764200Y-195326000D01*
%TO.N,Net-(D30-A)*%
X348582686Y-195300600D02*
X348593363Y-195289923D01*
X345430000Y-195300600D02*
X348582686Y-195300600D01*
%TO.N,Net-(D31-K)*%
X300990000Y-188976000D02*
X302215000Y-190201000D01*
X302215000Y-190201000D02*
X378759000Y-190201000D01*
X378759000Y-190201000D02*
X386080000Y-182880000D01*
%TO.N,Net-(D32-K)*%
X382669000Y-185021000D02*
X357350000Y-185021000D01*
X389900000Y-177790000D02*
X382669000Y-185021000D01*
X398790000Y-177790000D02*
X389900000Y-177790000D01*
X357350000Y-185021000D02*
X356225000Y-183896000D01*
%TO.N,Net-(D33-A)*%
X297764200Y-183896000D02*
X294589200Y-183896000D01*
%TO.N,Net-(D34-A)*%
X345430000Y-183896000D02*
X348605000Y-183896000D01*
%TO.N,Net-(D35-A)*%
X294589200Y-181356000D02*
X297764200Y-181356000D01*
%TO.N,Net-(D36-A)*%
X348605000Y-181356000D02*
X345430000Y-181356000D01*
%TO.N,Net-(D37-A)*%
X297764200Y-178816000D02*
X294589200Y-178816000D01*
%TO.N,Net-(D38-A)*%
X345430000Y-178816000D02*
X348605000Y-178816000D01*
%TO.N,Net-(D39-A)*%
X294589200Y-176276000D02*
X297764200Y-176276000D01*
%TO.N,Net-(D40-A)*%
X345430000Y-176276000D02*
X348605000Y-176276000D01*
%TO.N,Net-(D41-A)*%
X297764200Y-173736000D02*
X294589200Y-173736000D01*
%TO.N,Net-(D42-A)*%
X348605000Y-173736000D02*
X345430000Y-173736000D01*
%TO.N,Net-(D43-A)*%
X294589200Y-171196000D02*
X297764200Y-171196000D01*
%TO.N,Net-(D44-A)*%
X345430000Y-171196000D02*
X348605000Y-171196000D01*
%TO.N,Net-(D45-A)*%
X297764200Y-168656000D02*
X294589200Y-168656000D01*
%TO.N,Net-(D46-A)*%
X348605000Y-168656000D02*
X345430000Y-168656000D01*
%TO.N,Net-(D47-A)*%
X294589200Y-166116000D02*
X297764200Y-166116000D01*
%TO.N,Net-(D48-A)*%
X345430000Y-166116000D02*
X348605000Y-166116000D01*
%TO.N,Net-(D49-A)*%
X297764200Y-162306000D02*
X294589200Y-162306000D01*
%TO.N,Net-(D50-A)*%
X348605000Y-162306000D02*
X345430000Y-162306000D01*
%TO.N,Net-(D51-A)*%
X294589200Y-159766000D02*
X297764200Y-159766000D01*
%TO.N,Net-(D52-A)*%
X345430000Y-159766000D02*
X348605000Y-159766000D01*
%TO.N,Net-(D53-A)*%
X297764200Y-157226000D02*
X294589200Y-157226000D01*
%TO.N,Net-(D54-A)*%
X345430000Y-157226000D02*
X348605000Y-157226000D01*
%TO.N,Net-(D55-A)*%
X294589200Y-154686000D02*
X297764200Y-154686000D01*
%TO.N,Net-(D56-A)*%
X348605000Y-154686000D02*
X345430000Y-154686000D01*
%TO.N,Net-(D57-A)*%
X297764200Y-152146000D02*
X294589200Y-152146000D01*
%TO.N,Net-(D58-A)*%
X345430000Y-152146000D02*
X348605000Y-152146000D01*
%TO.N,Net-(D59-A)*%
X294589200Y-149606000D02*
X297764200Y-149606000D01*
%TO.N,Net-(D60-A)*%
X348605000Y-149606000D02*
X345430000Y-149606000D01*
%TO.N,Net-(D61-K)*%
X300995000Y-143611600D02*
X304703400Y-147320000D01*
X393065000Y-153035000D02*
X398780000Y-147320000D01*
X304703400Y-147320000D02*
X379095000Y-147320000D01*
X387350000Y-153035000D02*
X393065000Y-153035000D01*
%TO.N,Net-(D62-K)*%
X383540000Y-170180000D02*
X383540000Y-149281000D01*
X379095600Y-144836600D02*
X353025000Y-144836600D01*
X353025000Y-144836600D02*
X351800000Y-143611600D01*
X387485000Y-174125000D02*
X383540000Y-170180000D01*
X397665000Y-174125000D02*
X387485000Y-174125000D01*
X383540000Y-149281000D02*
X379095600Y-144836600D01*
X398790000Y-175250000D02*
X397665000Y-174125000D01*
%TO.N,Net-(D63-A)*%
X294609200Y-138531600D02*
X297774200Y-138531600D01*
%TO.N,Net-(D64-A)*%
X345440000Y-138531600D02*
X348615000Y-138531600D01*
%TO.N,Net-(D65-A)*%
X297774200Y-135991600D02*
X294609200Y-135991600D01*
%TO.N,Net-(D66-A)*%
X348615000Y-135991600D02*
X345440000Y-135991600D01*
%TO.N,Net-(D67-A)*%
X294609200Y-133451600D02*
X297774200Y-133451600D01*
%TO.N,Net-(D68-A)*%
X345440000Y-133451600D02*
X348615000Y-133451600D01*
%TO.N,Net-(D69-A)*%
X297774200Y-130911600D02*
X294609200Y-130911600D01*
%TO.N,Net-(D70-A)*%
X348615000Y-130911600D02*
X345440000Y-130911600D01*
%TO.N,Net-(D71-A)*%
X294609200Y-128371600D02*
X297774200Y-128371600D01*
%TO.N,Net-(D72-A)*%
X345440000Y-128371600D02*
X348615000Y-128371600D01*
%TO.N,Net-(D73-A)*%
X297774200Y-125831600D02*
X294609200Y-125831600D01*
%TO.N,Net-(D74-A)*%
X348615000Y-125831600D02*
X345440000Y-125831600D01*
%TO.N,Net-(D75-A)*%
X294609200Y-123291600D02*
X297774200Y-123291600D01*
%TO.N,Net-(D76-A)*%
X345440000Y-123291600D02*
X348615000Y-123291600D01*
%TO.N,Net-(D77-A)*%
X297774200Y-120751600D02*
X294609200Y-120751600D01*
%TO.N,Net-(D78-A)*%
X348615000Y-120751600D02*
X345440000Y-120751600D01*
%TO.N,Net-(D79-A)*%
X294599200Y-116941600D02*
X297774200Y-116941600D01*
%TO.N,Net-(D80-A)*%
X345440000Y-116941600D02*
X348615000Y-116941600D01*
%TO.N,Net-(D81-A)*%
X294599200Y-114401600D02*
X297774200Y-114401600D01*
%TO.N,Net-(D82-A)*%
X348615000Y-114401600D02*
X345440000Y-114401600D01*
%TO.N,Net-(D83-A)*%
X297774200Y-111861600D02*
X294599200Y-111861600D01*
%TO.N,Net-(D84-A)*%
X345440000Y-111861600D02*
X348615000Y-111861600D01*
%TO.N,Net-(D85-A)*%
X294599200Y-109321600D02*
X297774200Y-109321600D01*
%TO.N,Net-(D86-A)*%
X348615000Y-109321600D02*
X345440000Y-109321600D01*
%TO.N,Net-(D87-A)*%
X297774200Y-106781600D02*
X294599200Y-106781600D01*
%TO.N,Net-(D88-A)*%
X345440000Y-106781600D02*
X348615000Y-106781600D01*
%TO.N,Net-(D89-A)*%
X294599200Y-104241600D02*
X297774200Y-104241600D01*
%TO.N,Net-(D90-A)*%
X345440000Y-104241600D02*
X348615000Y-104241600D01*
%TO.N,Net-(D101-K)*%
X393700000Y-138430000D02*
X393700000Y-139700000D01*
X376098400Y-100965000D02*
X379095000Y-100965000D01*
X300990000Y-100330000D02*
X301625000Y-100965000D01*
X300990000Y-97891600D02*
X300990000Y-100330000D01*
X301625000Y-100965000D02*
X376098400Y-100965000D01*
X393700000Y-139700000D02*
X398780000Y-144780000D01*
%TO.N,Net-(D100-K)*%
X353593400Y-99695000D02*
X351790000Y-97891600D01*
X398790000Y-172710000D02*
X387975000Y-172710000D01*
X384810000Y-105176600D02*
X379328400Y-99695000D01*
X379328400Y-99695000D02*
X353593400Y-99695000D01*
X387975000Y-172710000D02*
X384810000Y-169545000D01*
X384810000Y-169545000D02*
X384810000Y-105176600D01*
%TO.N,Net-(D93-A)*%
X297774200Y-92811600D02*
X294589200Y-92811600D01*
%TO.N,Net-(D94-A)*%
X348615000Y-92811600D02*
X345440000Y-92811600D01*
%TO.N,Net-(D95-A)*%
X294589200Y-90271600D02*
X297774200Y-90271600D01*
%TO.N,Net-(D96-A)*%
X345440000Y-90271600D02*
X348615000Y-90271600D01*
%TO.N,Net-(D97-A)*%
X297774200Y-87731600D02*
X294589200Y-87731600D01*
%TO.N,Net-(D98-A)*%
X345440000Y-87731600D02*
X348615000Y-87731600D01*
%TO.N,Net-(D99-A)*%
X294589200Y-85191600D02*
X297774200Y-85191600D01*
%TO.N,Net-(D100-A)*%
X348615000Y-85191600D02*
X345440000Y-85191600D01*
%TO.N,Net-(D101-A)*%
X297774200Y-82651600D02*
X294589200Y-82651600D01*
%TO.N,Net-(D102-A)*%
X345440000Y-82651600D02*
X348615000Y-82651600D01*
%TO.N,Net-(D103-A)*%
X294589200Y-80111600D02*
X297774200Y-80111600D01*
%TO.N,Net-(D104-A)*%
X348615000Y-80111600D02*
X345440000Y-80111600D01*
%TO.N,Net-(D105-A)*%
X297774200Y-77571600D02*
X294589200Y-77571600D01*
%TO.N,Net-(D106-A)*%
X345440000Y-77571600D02*
X348615000Y-77571600D01*
%TO.N,Net-(D107-A)*%
X294589200Y-75031600D02*
X297774200Y-75031600D01*
%TO.N,Net-(D108-A)*%
X345440000Y-75031600D02*
X348615000Y-75031600D01*
%TO.N,Net-(D109-A)*%
X294589200Y-71221600D02*
X297774200Y-71221600D01*
%TO.N,Net-(D110-A)*%
X348615000Y-71221600D02*
X345440000Y-71221600D01*
%TO.N,Net-(D111-A)*%
X297774200Y-68681600D02*
X294589200Y-68681600D01*
%TO.N,Net-(D112-A)*%
X345440000Y-68681600D02*
X348615000Y-68681600D01*
%TO.N,Net-(D113-A)*%
X294589200Y-66141600D02*
X297774200Y-66141600D01*
%TO.N,Net-(D114-A)*%
X348615000Y-66141600D02*
X345440000Y-66141600D01*
%TO.N,Net-(D115-A)*%
X297774200Y-63601600D02*
X294589200Y-63601600D01*
%TO.N,Net-(D116-A)*%
X345440000Y-63601600D02*
X348615000Y-63601600D01*
%TO.N,Net-(D117-A)*%
X294589200Y-61061600D02*
X297774200Y-61061600D01*
%TO.N,Net-(D118-A)*%
X348615000Y-61061600D02*
X345440000Y-61061600D01*
%TO.N,Net-(D119-A)*%
X294589200Y-58521600D02*
X297774200Y-58521600D01*
%TO.N,Net-(D120-A)*%
X345440000Y-58521600D02*
X348615000Y-58521600D01*
%TO.N,Net-(D121-K)*%
X380490000Y-200660000D02*
X380490000Y-192915000D01*
X367445000Y-209125600D02*
X369695000Y-206875600D01*
X374274400Y-206875600D02*
X380490000Y-200660000D01*
X380490000Y-192915000D02*
X393065000Y-180340000D01*
X330835000Y-208000600D02*
X331960000Y-209125600D01*
X331960000Y-209125600D02*
X367445000Y-209125600D01*
X369695000Y-206875600D02*
X374274400Y-206875600D01*
%TO.N,Net-(D122-K)*%
X399255991Y-178915000D02*
X398000600Y-178915000D01*
X399915000Y-171295000D02*
X399915000Y-178255991D01*
X381615000Y-229590600D02*
X381615000Y-195300600D01*
X398000600Y-178915000D02*
X381615000Y-195300600D01*
X399915000Y-178255991D02*
X399255991Y-178915000D01*
X398790000Y-170170000D02*
X399915000Y-171295000D01*
%TO.N,Net-(D123-A)*%
X320040000Y-229590600D02*
X323215000Y-229590600D01*
%TO.N,Net-(D124-A)*%
X373985000Y-229600600D02*
X373995000Y-229590600D01*
X370820000Y-229600600D02*
X373985000Y-229600600D01*
%TO.N,Net-(D125-A)*%
X323215000Y-227050600D02*
X320040000Y-227050600D01*
%TO.N,Net-(D126-A)*%
X370830000Y-227050600D02*
X370820000Y-227060600D01*
X373995000Y-227050600D02*
X370830000Y-227050600D01*
%TO.N,Net-(D127-A)*%
X320040000Y-224510600D02*
X323215000Y-224510600D01*
%TO.N,Net-(D128-A)*%
X370820000Y-224520600D02*
X373985000Y-224520600D01*
X373985000Y-224520600D02*
X373995000Y-224510600D01*
%TO.N,Net-(D129-A)*%
X323215000Y-221970600D02*
X320040000Y-221970600D01*
%TO.N,Net-(D130-A)*%
X370830000Y-221970600D02*
X370820000Y-221980600D01*
X373995000Y-221970600D02*
X370830000Y-221970600D01*
%TO.N,Net-(D131-A)*%
X320040000Y-219430600D02*
X323215000Y-219430600D01*
%TO.N,Net-(D132-A)*%
X370820000Y-219440600D02*
X373985000Y-219440600D01*
X373985000Y-219440600D02*
X373995000Y-219430600D01*
%TO.N,Net-(D133-A)*%
X323215000Y-216890600D02*
X320040000Y-216890600D01*
%TO.N,Net-(D134-A)*%
X373995000Y-216890600D02*
X370830000Y-216890600D01*
X370830000Y-216890600D02*
X370820000Y-216900600D01*
%TO.N,Net-(D135-A)*%
X320040000Y-214350600D02*
X323215000Y-214350600D01*
%TO.N,Net-(D136-A)*%
X370820000Y-214360600D02*
X373985000Y-214360600D01*
X373985000Y-214360600D02*
X373995000Y-214350600D01*
%TO.N,Net-(D137-A)*%
X323215000Y-211810600D02*
X320040000Y-211810600D01*
%TO.N,Net-(D138-A)*%
X373995000Y-211810600D02*
X370830000Y-211810600D01*
X370830000Y-211810600D02*
X370820000Y-211820600D01*
%TO.N,Net-(D139-A)*%
X320040000Y-208000600D02*
X323215000Y-208000600D01*
%TO.N,Net-(D140-A)*%
X370820000Y-208000600D02*
X373995000Y-208000600D01*
%TO.N,Net-(D141-A)*%
X323215000Y-205460600D02*
X320040000Y-205460600D01*
%TO.N,Net-(D142-A)*%
X373995000Y-205460600D02*
X370820000Y-205460600D01*
%TO.N,Net-(D143-A)*%
X320040000Y-202920600D02*
X323215000Y-202920600D01*
%TO.N,Net-(D144-A)*%
X370820000Y-202920600D02*
X373995000Y-202920600D01*
%TO.N,Net-(D145-A)*%
X323215000Y-200380600D02*
X320040000Y-200380600D01*
%TO.N,Net-(D146-A)*%
X373995000Y-200380600D02*
X370820000Y-200380600D01*
%TO.N,Net-(D147-A)*%
X320040000Y-197840600D02*
X323215000Y-197840600D01*
%TO.N,Net-(D148-A)*%
X370820000Y-197840600D02*
X373995000Y-197840600D01*
%TO.N,Net-(D149-A)*%
X323215000Y-195300600D02*
X320040000Y-195300600D01*
%TO.N,Net-(D150-A)*%
X373995000Y-195300600D02*
X370820000Y-195300600D01*
%TO.N,Net-(D151-K)*%
X335825500Y-146050000D02*
X335280000Y-146050000D01*
X370840000Y-146050000D02*
X335825500Y-146050000D01*
%TO.N,Net-(D152-K)*%
X381615000Y-149606000D02*
X381615000Y-183896000D01*
%TO.N,Net-(D153-A)*%
X323205000Y-183906000D02*
X323215000Y-183896000D01*
X320020000Y-183906000D02*
X323205000Y-183906000D01*
%TO.N,Net-(D154-A)*%
X370820000Y-183896000D02*
X373995000Y-183896000D01*
%TO.N,Net-(D155-A)*%
X323215000Y-181356000D02*
X320030000Y-181356000D01*
X320030000Y-181356000D02*
X320020000Y-181366000D01*
%TO.N,Net-(D156-A)*%
X373995000Y-181356000D02*
X370820000Y-181356000D01*
%TO.N,Net-(D157-A)*%
X320020000Y-178826000D02*
X323205000Y-178826000D01*
X323205000Y-178826000D02*
X323215000Y-178816000D01*
%TO.N,Net-(D158-A)*%
X370820000Y-178816000D02*
X373995000Y-178816000D01*
%TO.N,Net-(D159-A)*%
X323215000Y-176276000D02*
X320030000Y-176276000D01*
X320030000Y-176276000D02*
X320020000Y-176286000D01*
%TO.N,Net-(D160-A)*%
X373995000Y-176276000D02*
X370820000Y-176276000D01*
%TO.N,Net-(D161-A)*%
X320020000Y-173746000D02*
X323205000Y-173746000D01*
X323205000Y-173746000D02*
X323215000Y-173736000D01*
%TO.N,Net-(D162-A)*%
X370820000Y-173736000D02*
X373995000Y-173736000D01*
%TO.N,Net-(D163-A)*%
X320030000Y-171196000D02*
X320020000Y-171206000D01*
X323215000Y-171196000D02*
X320030000Y-171196000D01*
%TO.N,Net-(D164-A)*%
X373995000Y-171196000D02*
X370820000Y-171196000D01*
%TO.N,Net-(D165-A)*%
X320020000Y-168666000D02*
X323205000Y-168666000D01*
X323205000Y-168666000D02*
X323215000Y-168656000D01*
%TO.N,Net-(D166-A)*%
X370820000Y-168656000D02*
X373995000Y-168656000D01*
%TO.N,Net-(D167-A)*%
X323215000Y-166116000D02*
X320030000Y-166116000D01*
X320030000Y-166116000D02*
X320020000Y-166126000D01*
%TO.N,Net-(D168-A)*%
X373995000Y-166116000D02*
X370820000Y-166116000D01*
%TO.N,Net-(D169-A)*%
X320030000Y-162306000D02*
X323215000Y-162306000D01*
%TO.N,Net-(D170-A)*%
X370820000Y-162306000D02*
X373995000Y-162306000D01*
%TO.N,Net-(D171-A)*%
X323215000Y-159766000D02*
X320030000Y-159766000D01*
%TO.N,Net-(D172-A)*%
X373995000Y-159766000D02*
X370820000Y-159766000D01*
%TO.N,Net-(D173-A)*%
X320030000Y-157226000D02*
X323215000Y-157226000D01*
%TO.N,Net-(D174-A)*%
X370820000Y-157226000D02*
X373995000Y-157226000D01*
%TO.N,Net-(D175-A)*%
X323215000Y-154686000D02*
X320030000Y-154686000D01*
%TO.N,Net-(D176-A)*%
X370820000Y-154686000D02*
X373995000Y-154686000D01*
%TO.N,Net-(D177-A)*%
X320030000Y-152146000D02*
X323215000Y-152146000D01*
%TO.N,Net-(D178-A)*%
X373995000Y-152146000D02*
X370820000Y-152146000D01*
%TO.N,Net-(D179-A)*%
X323215000Y-149606000D02*
X320030000Y-149606000D01*
%TO.N,Net-(D180-A)*%
X370820000Y-149606000D02*
X373995000Y-149606000D01*
%TO.N,Net-(D181-K)*%
X381635000Y-146050000D02*
X381625000Y-146040000D01*
X381625000Y-146040000D02*
X381625000Y-138531600D01*
%TO.N,Net-(D182-K)*%
X380746600Y-137160000D02*
X384085500Y-137160000D01*
X329041600Y-140970000D02*
X376936600Y-140970000D01*
X326400000Y-143611600D02*
X329041600Y-140970000D01*
X376936600Y-140970000D02*
X380746600Y-137160000D01*
X398780000Y-137160000D02*
X392430000Y-137160000D01*
%TO.N,Net-(D183-A)*%
X370830000Y-138531600D02*
X374005000Y-138531600D01*
%TO.N,Net-(D184-A)*%
X320050000Y-138531600D02*
X323225000Y-138531600D01*
%TO.N,Net-(D185-A)*%
X374005000Y-135991600D02*
X370830000Y-135991600D01*
%TO.N,Net-(D186-A)*%
X323225000Y-135991600D02*
X320050000Y-135991600D01*
%TO.N,Net-(D187-A)*%
X370830000Y-133451600D02*
X374005000Y-133451600D01*
%TO.N,Net-(D188-A)*%
X320050000Y-133451600D02*
X323225000Y-133451600D01*
%TO.N,Net-(D189-A)*%
X370830000Y-130911600D02*
X374005000Y-130911600D01*
%TO.N,Net-(D190-A)*%
X320050000Y-130911600D02*
X323225000Y-130911600D01*
%TO.N,Net-(D191-A)*%
X370830000Y-128371600D02*
X374005000Y-128371600D01*
%TO.N,Net-(D192-A)*%
X323225000Y-128371600D02*
X320050000Y-128371600D01*
%TO.N,Net-(D193-A)*%
X370830000Y-125831600D02*
X374005000Y-125831600D01*
%TO.N,Net-(D194-A)*%
X320050000Y-125831600D02*
X323225000Y-125831600D01*
%TO.N,Net-(D195-A)*%
X374005000Y-123291600D02*
X370830000Y-123291600D01*
%TO.N,Net-(D196-A)*%
X323225000Y-123291600D02*
X320050000Y-123291600D01*
%TO.N,Net-(D197-A)*%
X370830000Y-120751600D02*
X374005000Y-120751600D01*
%TO.N,Net-(D198-A)*%
X320050000Y-120751600D02*
X323225000Y-120751600D01*
%TO.N,Net-(D199-A)*%
X370820000Y-116941600D02*
X374005000Y-116941600D01*
%TO.N,Net-(D200-A)*%
X323225000Y-116941600D02*
X320050000Y-116941600D01*
%TO.N,Net-(D201-A)*%
X374005000Y-114401600D02*
X370820000Y-114401600D01*
%TO.N,Net-(D202-A)*%
X320050000Y-114401600D02*
X323225000Y-114401600D01*
%TO.N,Net-(D203-A)*%
X370820000Y-111861600D02*
X374005000Y-111861600D01*
%TO.N,Net-(D204-A)*%
X323225000Y-111861600D02*
X320050000Y-111861600D01*
%TO.N,Net-(D205-A)*%
X374005000Y-109321600D02*
X370820000Y-109321600D01*
%TO.N,Net-(D206-A)*%
X320050000Y-109321600D02*
X323225000Y-109321600D01*
%TO.N,Net-(D207-A)*%
X370820000Y-106781600D02*
X374005000Y-106781600D01*
%TO.N,Net-(D208-A)*%
X323225000Y-106781600D02*
X320050000Y-106781600D01*
%TO.N,Net-(D209-A)*%
X374005000Y-104241600D02*
X370820000Y-104241600D01*
%TO.N,Net-(D210-A)*%
X320050000Y-104241600D02*
X323225000Y-104241600D01*
%TO.N,Net-(D211-K)*%
X381625000Y-92811600D02*
X381625000Y-58521600D01*
X405275000Y-166495000D02*
X405275000Y-123970000D01*
X379196600Y-97891600D02*
X377190000Y-97891600D01*
X406410000Y-167630000D02*
X405275000Y-166495000D01*
X405275000Y-123970000D02*
X379196600Y-97891600D01*
%TO.N,Net-(D212-K)*%
X328935000Y-95250000D02*
X326395000Y-97790000D01*
X407670000Y-124460000D02*
X378460000Y-95250000D01*
X378460000Y-95250000D02*
X328935000Y-95250000D01*
X407670000Y-130175000D02*
X407670000Y-124460000D01*
%TO.N,Net-(D213-A)*%
X373995000Y-92821600D02*
X374005000Y-92811600D01*
X370830000Y-92821600D02*
X373995000Y-92821600D01*
%TO.N,Net-(D214-A)*%
X323225000Y-92811600D02*
X320050000Y-92811600D01*
%TO.N,Net-(D215-A)*%
X374005000Y-90271600D02*
X370840000Y-90271600D01*
X370840000Y-90271600D02*
X370830000Y-90281600D01*
%TO.N,Net-(D216-A)*%
X320050000Y-90271600D02*
X323225000Y-90271600D01*
%TO.N,Net-(D217-A)*%
X370830000Y-87741600D02*
X373995000Y-87741600D01*
X373995000Y-87741600D02*
X374005000Y-87731600D01*
%TO.N,Net-(D218-A)*%
X320050000Y-87731600D02*
X323225000Y-87731600D01*
%TO.N,Net-(D219-A)*%
X374005000Y-85191600D02*
X370840000Y-85191600D01*
X370840000Y-85191600D02*
X370830000Y-85201600D01*
%TO.N,Net-(D220-A)*%
X323225000Y-85191600D02*
X320050000Y-85191600D01*
%TO.N,Net-(D221-A)*%
X373995000Y-82661600D02*
X374005000Y-82651600D01*
X370830000Y-82661600D02*
X373995000Y-82661600D01*
%TO.N,Net-(D222-A)*%
X320050000Y-82651600D02*
X323225000Y-82651600D01*
%TO.N,Net-(D223-A)*%
X374005000Y-80111600D02*
X370840000Y-80111600D01*
X370840000Y-80111600D02*
X370830000Y-80121600D01*
%TO.N,Net-(D224-A)*%
X323225000Y-80111600D02*
X320050000Y-80111600D01*
%TO.N,Net-(D225-A)*%
X373995000Y-77581600D02*
X374005000Y-77571600D01*
X370830000Y-77581600D02*
X373995000Y-77581600D01*
%TO.N,Net-(D226-A)*%
X320050000Y-77571600D02*
X323225000Y-77571600D01*
%TO.N,Net-(D227-A)*%
X370830000Y-75041600D02*
X373995000Y-75041600D01*
X373995000Y-75041600D02*
X374005000Y-75031600D01*
%TO.N,Net-(D228-A)*%
X323225000Y-75031600D02*
X320050000Y-75031600D01*
%TO.N,Net-(D229-A)*%
X374005000Y-71221600D02*
X370830000Y-71221600D01*
%TO.N,Net-(D230-A)*%
X320040000Y-71221600D02*
X323225000Y-71221600D01*
%TO.N,Net-(D231-A)*%
X370830000Y-68681600D02*
X374005000Y-68681600D01*
%TO.N,Net-(D232-A)*%
X323225000Y-68681600D02*
X320040000Y-68681600D01*
%TO.N,Net-(D233-A)*%
X374005000Y-66141600D02*
X370830000Y-66141600D01*
%TO.N,Net-(D234-A)*%
X320040000Y-66141600D02*
X323225000Y-66141600D01*
%TO.N,Net-(D235-A)*%
X370830000Y-63601600D02*
X374005000Y-63601600D01*
%TO.N,Net-(D236-A)*%
X320040000Y-63601600D02*
X323225000Y-63601600D01*
%TO.N,Net-(D237-A)*%
X374005000Y-61061600D02*
X370830000Y-61061600D01*
%TO.N,Net-(D238-A)*%
X323225000Y-61061600D02*
X320040000Y-61061600D01*
%TO.N,Net-(D239-A)*%
X370830000Y-58521600D02*
X374005000Y-58521600D01*
%TO.N,Net-(D240-A)*%
X320040000Y-58521600D02*
X323225000Y-58521600D01*
%TO.N,2oc3*%
X362075000Y-91686600D02*
X338945000Y-91686600D01*
X362065000Y-228465600D02*
X363200000Y-229600600D01*
X286969200Y-92811600D02*
X284480000Y-95300800D01*
X312430000Y-138531600D02*
X313555000Y-137406600D01*
X284480000Y-136022400D02*
X286989200Y-138531600D01*
X313555000Y-137406600D02*
X336695000Y-137406600D01*
X284480000Y-95300800D02*
X284480000Y-136022400D01*
X288360800Y-137160000D02*
X311058400Y-137160000D01*
X286969200Y-183896000D02*
X288094200Y-182771000D01*
X336695000Y-137406600D02*
X337820000Y-138531600D01*
X337810000Y-229590600D02*
X338935000Y-228465600D01*
X336695000Y-91686600D02*
X313555000Y-91686600D01*
X311295000Y-228465600D02*
X312420000Y-229590600D01*
X362075000Y-182771000D02*
X363200000Y-183896000D01*
X284480000Y-136022400D02*
X284480000Y-181406800D01*
X312420000Y-229590600D02*
X313545000Y-228465600D01*
X288094200Y-182771000D02*
X311265000Y-182771000D01*
X312430000Y-92811600D02*
X311305000Y-91686600D01*
X284480000Y-181406800D02*
X286969200Y-183896000D01*
X338935000Y-182771000D02*
X362075000Y-182771000D01*
X312400000Y-183906000D02*
X313535000Y-182771000D01*
X338935000Y-228465600D02*
X362065000Y-228465600D01*
X311305000Y-91686600D02*
X288094200Y-91686600D01*
X338945000Y-91686600D02*
X337820000Y-92811600D01*
X284480000Y-227101400D02*
X286969200Y-229590600D01*
X362085000Y-137406600D02*
X363210000Y-138531600D01*
X337820000Y-92811600D02*
X336695000Y-91686600D01*
X337810000Y-183896000D02*
X338935000Y-182771000D01*
X288094200Y-228465600D02*
X311295000Y-228465600D01*
X286969200Y-229590600D02*
X288094200Y-228465600D01*
X363855000Y-193675000D02*
X285750000Y-193675000D01*
X284480000Y-181406800D02*
X284480000Y-194945000D01*
X336685000Y-182771000D02*
X337810000Y-183896000D01*
X313535000Y-182771000D02*
X336685000Y-182771000D01*
X313555000Y-91686600D02*
X312430000Y-92811600D01*
X363210000Y-92821600D02*
X362075000Y-91686600D01*
X313545000Y-228465600D02*
X336685000Y-228465600D01*
X285750000Y-193675000D02*
X284480000Y-194945000D01*
X338945000Y-137406600D02*
X362085000Y-137406600D01*
X337820000Y-138531600D02*
X338945000Y-137406600D01*
X336685000Y-228465600D02*
X337810000Y-229590600D01*
X311058400Y-137160000D02*
X312430000Y-138531600D01*
X311265000Y-182771000D02*
X312400000Y-183906000D01*
X288094200Y-91686600D02*
X286969200Y-92811600D01*
X286989200Y-138531600D02*
X288360800Y-137160000D01*
X284480000Y-194945000D02*
X284480000Y-227101400D01*
%TO.N,2oc2*%
X312420000Y-227050600D02*
X311295000Y-225925600D01*
X337820000Y-90271600D02*
X338945000Y-89146600D01*
X338935000Y-225925600D02*
X337810000Y-227050600D01*
X311305000Y-89146600D02*
X312430000Y-90271600D01*
X283210000Y-133985000D02*
X283210000Y-179705000D01*
X336695000Y-134866600D02*
X337820000Y-135991600D01*
X313555000Y-89146600D02*
X336695000Y-89146600D01*
X288114200Y-134866600D02*
X311305000Y-134866600D01*
X288094200Y-225925600D02*
X286969200Y-227050600D01*
X363200000Y-227060600D02*
X362065000Y-225925600D01*
X311305000Y-134866600D02*
X312430000Y-135991600D01*
X288094200Y-89146600D02*
X311305000Y-89146600D01*
X336695000Y-89146600D02*
X337820000Y-90271600D01*
X312430000Y-90271600D02*
X313555000Y-89146600D01*
X311295000Y-225925600D02*
X288094200Y-225925600D01*
X286969200Y-90271600D02*
X283210000Y-94030800D01*
X311265000Y-180231000D02*
X288094200Y-180231000D01*
X312400000Y-181366000D02*
X311265000Y-180231000D01*
X362065000Y-225925600D02*
X338935000Y-225925600D01*
X338945000Y-134866600D02*
X362085000Y-134866600D01*
X338945000Y-89146600D02*
X362075000Y-89146600D01*
X283210000Y-94030800D02*
X283210000Y-133985000D01*
X362075000Y-180231000D02*
X338935000Y-180231000D01*
X313535000Y-180231000D02*
X312400000Y-181366000D01*
X362085000Y-134866600D02*
X363210000Y-135991600D01*
X337810000Y-181356000D02*
X336685000Y-180231000D01*
X283210000Y-179705000D02*
X283210000Y-195580000D01*
X338935000Y-180231000D02*
X337810000Y-181356000D01*
X286989200Y-135991600D02*
X288114200Y-134866600D01*
X362075000Y-89146600D02*
X363210000Y-90281600D01*
X336685000Y-225925600D02*
X313545000Y-225925600D01*
X363200000Y-181356000D02*
X362075000Y-180231000D01*
X364490000Y-192405000D02*
X286385000Y-192405000D01*
X313555000Y-134866600D02*
X336695000Y-134866600D01*
X283210000Y-195580000D02*
X283210000Y-224790000D01*
X337820000Y-135991600D02*
X338945000Y-134866600D01*
X337810000Y-227050600D02*
X336685000Y-225925600D01*
X336685000Y-180231000D02*
X313535000Y-180231000D01*
X313545000Y-225925600D02*
X312420000Y-227050600D01*
X288094200Y-180231000D02*
X286969200Y-181356000D01*
X286969200Y-90271600D02*
X288094200Y-89146600D01*
X312430000Y-135991600D02*
X313555000Y-134866600D01*
%TO.N,2oc1*%
X336695000Y-86606600D02*
X313555000Y-86606600D01*
X281940000Y-177165000D02*
X281940000Y-130810000D01*
X288094200Y-223385600D02*
X311295000Y-223385600D01*
X281940000Y-92760800D02*
X286969200Y-87731600D01*
X336695000Y-132326600D02*
X313555000Y-132326600D01*
X363200000Y-178816000D02*
X362075000Y-177691000D01*
X362065000Y-223385600D02*
X363200000Y-224520600D01*
X312420000Y-224510600D02*
X313545000Y-223385600D01*
X338935000Y-223385600D02*
X362065000Y-223385600D01*
X338935000Y-177691000D02*
X337810000Y-178816000D01*
X313555000Y-86606600D02*
X312430000Y-87731600D01*
X281940000Y-194945000D02*
X281940000Y-177165000D01*
X313525000Y-177701000D02*
X320576000Y-177701000D01*
X312430000Y-87731600D02*
X311305000Y-86606600D01*
X362075000Y-177691000D02*
X338935000Y-177691000D01*
X286969200Y-178816000D02*
X288094200Y-177691000D01*
X363210000Y-87741600D02*
X362075000Y-86606600D01*
X363210000Y-133451600D02*
X362085000Y-132326600D01*
X311305000Y-132326600D02*
X288114200Y-132326600D01*
X337820000Y-133451600D02*
X336695000Y-132326600D01*
X336685000Y-223385600D02*
X337810000Y-224510600D01*
X365125000Y-191135000D02*
X287655000Y-191135000D01*
X311305000Y-86606600D02*
X288094200Y-86606600D01*
X288114200Y-132326600D02*
X286989200Y-133451600D01*
X338945000Y-132326600D02*
X337820000Y-133451600D01*
X281940000Y-222250000D02*
X281940000Y-194945000D01*
X338945000Y-86606600D02*
X337820000Y-87731600D01*
X320586000Y-177691000D02*
X336685000Y-177691000D01*
X312400000Y-178826000D02*
X313525000Y-177701000D01*
X281940000Y-130810000D02*
X281940000Y-92760800D01*
X313555000Y-132326600D02*
X312430000Y-133451600D01*
X312430000Y-133451600D02*
X311305000Y-132326600D01*
X337820000Y-87731600D02*
X336695000Y-86606600D01*
X313545000Y-223385600D02*
X336685000Y-223385600D01*
X288094200Y-177691000D02*
X311265000Y-177691000D01*
X362075000Y-86606600D02*
X338945000Y-86606600D01*
X362085000Y-132326600D02*
X338945000Y-132326600D01*
X320576000Y-177701000D02*
X320586000Y-177691000D01*
X311295000Y-223385600D02*
X312420000Y-224510600D01*
X286969200Y-224510600D02*
X288094200Y-223385600D01*
X288094200Y-86606600D02*
X286969200Y-87731600D01*
X311265000Y-177691000D02*
X312400000Y-178826000D01*
X336685000Y-177691000D02*
X337810000Y-178816000D01*
X337810000Y-224510600D02*
X338935000Y-223385600D01*
%TO.N,2oc0*%
X363399500Y-187751000D02*
X289134000Y-187751000D01*
X286989200Y-130911600D02*
X288114200Y-129786600D01*
X288094200Y-84066600D02*
X311305000Y-84066600D01*
X338945000Y-84066600D02*
X362075000Y-84066600D01*
X313545000Y-220845600D02*
X336685000Y-220845600D01*
X336695000Y-84066600D02*
X337820000Y-85191600D01*
X337810000Y-176276000D02*
X336405000Y-174871000D01*
X362075000Y-175151000D02*
X363200000Y-176276000D01*
X312430000Y-130911600D02*
X313555000Y-129786600D01*
X312420000Y-221970600D02*
X311295000Y-220845600D01*
X337810000Y-176276000D02*
X338935000Y-175151000D01*
X337820000Y-130911600D02*
X338945000Y-129786600D01*
X312400000Y-176286000D02*
X311265000Y-175151000D01*
X280670000Y-193040000D02*
X280670000Y-219710000D01*
X289134000Y-187751000D02*
X287020000Y-189865000D01*
X286969200Y-85191600D02*
X288094200Y-84066600D01*
X363200000Y-221980600D02*
X362065000Y-220845600D01*
X312430000Y-85191600D02*
X313555000Y-84066600D01*
X288114200Y-129786600D02*
X311305000Y-129786600D01*
X362065000Y-220845600D02*
X338935000Y-220845600D01*
X336405000Y-174871000D02*
X313815000Y-174871000D01*
X313555000Y-129786600D02*
X336695000Y-129786600D01*
X280670000Y-91490800D02*
X280670000Y-128270000D01*
X313555000Y-84066600D02*
X336695000Y-84066600D01*
X336695000Y-129786600D02*
X337820000Y-130911600D01*
X280670000Y-128270000D02*
X280670000Y-174625000D01*
X311305000Y-84066600D02*
X312430000Y-85191600D01*
X336685000Y-220845600D02*
X337810000Y-221970600D01*
X311305000Y-129786600D02*
X312430000Y-130911600D01*
X338935000Y-220845600D02*
X337810000Y-221970600D01*
X312420000Y-221970600D02*
X313545000Y-220845600D01*
X365125000Y-189476500D02*
X363399500Y-187751000D01*
X311265000Y-175151000D02*
X288094200Y-175151000D01*
X313815000Y-174871000D02*
X312400000Y-176286000D01*
X338935000Y-175151000D02*
X362075000Y-175151000D01*
X288094200Y-175151000D02*
X286969200Y-176276000D01*
X280670000Y-174625000D02*
X280670000Y-193040000D01*
X337820000Y-85191600D02*
X338945000Y-84066600D01*
X286969200Y-85191600D02*
X280670000Y-91490800D01*
X288094200Y-220845600D02*
X286969200Y-221970600D01*
X311295000Y-220845600D02*
X288094200Y-220845600D01*
X362085000Y-129786600D02*
X363210000Y-130911600D01*
X362075000Y-84066600D02*
X363210000Y-85201600D01*
X338945000Y-129786600D02*
X362085000Y-129786600D01*
%TO.N,2ol3*%
X365125000Y-173990000D02*
X363454000Y-173990000D01*
X288094200Y-81526600D02*
X286969200Y-82651600D01*
X279400000Y-216535000D02*
X279400000Y-172720000D01*
X363200000Y-173736000D02*
X362075000Y-172611000D01*
X312430000Y-128371600D02*
X311305000Y-127246600D01*
X311305000Y-127246600D02*
X288114200Y-127246600D01*
X279400000Y-90220800D02*
X286969200Y-82651600D01*
X286969200Y-173736000D02*
X288094200Y-172611000D01*
X337820000Y-82651600D02*
X336695000Y-81526600D01*
X336685000Y-218305600D02*
X337810000Y-219430600D01*
X338935000Y-218305600D02*
X362065000Y-218305600D01*
X339235000Y-81236600D02*
X337820000Y-82651600D01*
X311305000Y-81526600D02*
X288094200Y-81526600D01*
X279400000Y-172720000D02*
X279400000Y-127000000D01*
X312420000Y-219430600D02*
X313545000Y-218305600D01*
X363454000Y-173990000D02*
X363200000Y-173736000D01*
X339235000Y-126956600D02*
X337820000Y-128371600D01*
X336685000Y-172611000D02*
X337810000Y-173736000D01*
X288114200Y-127246600D02*
X286989200Y-128371600D01*
X312430000Y-82651600D02*
X311305000Y-81526600D01*
X337810000Y-219430600D02*
X338935000Y-218305600D01*
X338935000Y-172611000D02*
X337810000Y-173736000D01*
X286969200Y-219430600D02*
X288094200Y-218305600D01*
X361785000Y-81236600D02*
X339235000Y-81236600D01*
X288094200Y-218305600D02*
X311295000Y-218305600D01*
X313555000Y-81526600D02*
X312430000Y-82651600D01*
X279400000Y-127000000D02*
X279400000Y-90220800D01*
X361795000Y-126956600D02*
X339235000Y-126956600D01*
X336695000Y-127246600D02*
X313555000Y-127246600D01*
X313545000Y-218305600D02*
X336685000Y-218305600D01*
X311265000Y-172611000D02*
X312400000Y-173746000D01*
X313555000Y-127246600D02*
X312430000Y-128371600D01*
X336695000Y-81526600D02*
X313555000Y-81526600D01*
X362065000Y-218305600D02*
X363200000Y-219440600D01*
X363210000Y-82661600D02*
X361785000Y-81236600D01*
X312400000Y-173746000D02*
X313535000Y-172611000D01*
X313535000Y-172611000D02*
X336685000Y-172611000D01*
X337820000Y-128371600D02*
X336695000Y-127246600D01*
X288094200Y-172611000D02*
X311265000Y-172611000D01*
X311295000Y-218305600D02*
X312420000Y-219430600D01*
X363210000Y-128371600D02*
X361795000Y-126956600D01*
X362075000Y-172611000D02*
X338935000Y-172611000D01*
%TO.N,2ol2*%
X337810000Y-171196000D02*
X336685000Y-170071000D01*
X311305000Y-78986600D02*
X312430000Y-80111600D01*
X278130000Y-88950800D02*
X286969200Y-80111600D01*
X312400000Y-171206000D02*
X311265000Y-170071000D01*
X336685000Y-170071000D02*
X313535000Y-170071000D01*
X453472800Y-142792200D02*
X455987400Y-142792200D01*
X362075000Y-78986600D02*
X363210000Y-80121600D01*
X311305000Y-124706600D02*
X312430000Y-125831600D01*
X455987400Y-142792200D02*
X457352400Y-141427200D01*
X313545000Y-215765600D02*
X312420000Y-216890600D01*
X337810000Y-171196000D02*
X338935000Y-170071000D01*
X312430000Y-80111600D02*
X313555000Y-78986600D01*
X361793536Y-215494136D02*
X363200000Y-216900600D01*
X362075000Y-170071000D02*
X363200000Y-171196000D01*
X362085000Y-124706600D02*
X363210000Y-125831600D01*
X288094200Y-170071000D02*
X286969200Y-171196000D01*
X288094200Y-78986600D02*
X311305000Y-78986600D01*
X286969200Y-80111600D02*
X288094200Y-78986600D01*
X311343942Y-215814542D02*
X304251742Y-215814542D01*
X278130000Y-213995000D02*
X278130000Y-170815000D01*
X338935000Y-170071000D02*
X362075000Y-170071000D01*
X339206464Y-215494136D02*
X361793536Y-215494136D01*
X313555000Y-124706600D02*
X336695000Y-124706600D01*
X278130000Y-125095000D02*
X278130000Y-88950800D01*
X313535000Y-170071000D02*
X312400000Y-171206000D01*
X288094200Y-215765600D02*
X286969200Y-216890600D01*
X337820000Y-80111600D02*
X338945000Y-78986600D01*
X366776000Y-171196000D02*
X367030000Y-171450000D01*
X312420000Y-216890600D02*
X311343942Y-215814542D01*
X336695000Y-78986600D02*
X337820000Y-80111600D01*
X312430000Y-125831600D02*
X313555000Y-124706600D01*
X286989200Y-125831600D02*
X288114200Y-124706600D01*
X338945000Y-78986600D02*
X362075000Y-78986600D01*
X336685000Y-215765600D02*
X313545000Y-215765600D01*
X311265000Y-170071000D02*
X288094200Y-170071000D01*
X363200000Y-171196000D02*
X366776000Y-171196000D01*
X337820000Y-125831600D02*
X338945000Y-124706600D01*
X451485000Y-144780000D02*
X453472800Y-142792200D01*
X278130000Y-170815000D02*
X278130000Y-125095000D01*
X337810000Y-216890600D02*
X339206464Y-215494136D01*
X313555000Y-78986600D02*
X336695000Y-78986600D01*
X337810000Y-216890600D02*
X336685000Y-215765600D01*
X336695000Y-124706600D02*
X337820000Y-125831600D01*
X304202800Y-215765600D02*
X288094200Y-215765600D01*
X338945000Y-124706600D02*
X362085000Y-124706600D01*
X288114200Y-124706600D02*
X311305000Y-124706600D01*
X304251742Y-215814542D02*
X304202800Y-215765600D01*
%TO.N,2ol1*%
X288094200Y-167531000D02*
X311265000Y-167531000D01*
X312420000Y-214350600D02*
X313545000Y-213225600D01*
X313535000Y-167531000D02*
X336685000Y-167531000D01*
X363210000Y-123291600D02*
X362085000Y-122166600D01*
X286969200Y-214350600D02*
X288094200Y-213225600D01*
X288094200Y-213225600D02*
X311295000Y-213225600D01*
X312400000Y-168666000D02*
X313535000Y-167531000D01*
X336685000Y-213225600D02*
X337810000Y-214350600D01*
X311015000Y-76156600D02*
X312430000Y-77571600D01*
X311265000Y-167531000D02*
X312400000Y-168666000D01*
X311295000Y-213225600D02*
X312420000Y-214350600D01*
X362075000Y-167531000D02*
X338935000Y-167531000D01*
X427329600Y-171450000D02*
X454812400Y-143967200D01*
X276860000Y-87680800D02*
X286969200Y-77571600D01*
X313555000Y-122166600D02*
X312430000Y-123291600D01*
X286969200Y-77571600D02*
X288384200Y-76156600D01*
X313545000Y-213225600D02*
X336685000Y-213225600D01*
X286969200Y-168656000D02*
X288094200Y-167531000D01*
X363200000Y-214360600D02*
X362065000Y-213225600D01*
X288384200Y-76156600D02*
X311015000Y-76156600D01*
X276860000Y-123190000D02*
X276860000Y-87680800D01*
X336685000Y-167531000D02*
X337810000Y-168656000D01*
X276860000Y-211455000D02*
X276860000Y-168910000D01*
X411480000Y-171450000D02*
X427329600Y-171450000D01*
X337820000Y-123291600D02*
X336695000Y-122166600D01*
X336695000Y-76446600D02*
X313555000Y-76446600D01*
X311305000Y-122166600D02*
X288114200Y-122166600D01*
X288114200Y-122166600D02*
X286989200Y-123291600D01*
X338945000Y-122166600D02*
X337820000Y-123291600D01*
X338935000Y-213225600D02*
X337810000Y-214350600D01*
X276860000Y-168910000D02*
X276860000Y-123190000D01*
X338935000Y-167531000D02*
X337810000Y-168656000D01*
X393700000Y-171450000D02*
X397510000Y-171450000D01*
X362085000Y-122166600D02*
X338945000Y-122166600D01*
X363210000Y-77581600D02*
X361785000Y-76156600D01*
X361785000Y-76156600D02*
X339235000Y-76156600D01*
X339235000Y-76156600D02*
X337820000Y-77571600D01*
X313555000Y-76446600D02*
X312430000Y-77571600D01*
X312430000Y-123291600D02*
X311305000Y-122166600D01*
X336695000Y-122166600D02*
X313555000Y-122166600D01*
X363200000Y-168656000D02*
X362075000Y-167531000D01*
X337820000Y-77571600D02*
X336695000Y-76446600D01*
X362065000Y-213225600D02*
X338935000Y-213225600D01*
%TO.N,2ol0*%
X311295000Y-210685600D02*
X312420000Y-211810600D01*
X336695000Y-73906600D02*
X337820000Y-75031600D01*
X362085000Y-119626600D02*
X363210000Y-120751600D01*
X411179695Y-172175000D02*
X427265000Y-172175000D01*
X336685000Y-210685600D02*
X337810000Y-211810600D01*
X336685000Y-164991000D02*
X337810000Y-166116000D01*
X362075000Y-73906600D02*
X363210000Y-75041600D01*
X288094200Y-164991000D02*
X311265000Y-164991000D01*
X311265000Y-164991000D02*
X312400000Y-166126000D01*
X313555000Y-73906600D02*
X336695000Y-73906600D01*
X312430000Y-120751600D02*
X313555000Y-119626600D01*
X362075000Y-164991000D02*
X363200000Y-166116000D01*
X336695000Y-119626600D02*
X337820000Y-120751600D01*
X396240000Y-166370000D02*
X400685000Y-166370000D01*
X338945000Y-73906600D02*
X362075000Y-73906600D01*
X410755000Y-171750305D02*
X411179695Y-172175000D01*
X338945000Y-119626600D02*
X362085000Y-119626600D01*
X288094200Y-210685600D02*
X311295000Y-210685600D01*
X337810000Y-211810600D02*
X338935000Y-210685600D01*
X337820000Y-120751600D02*
X338945000Y-119626600D01*
X275590000Y-120650000D02*
X275590000Y-167005000D01*
X454297800Y-145142200D02*
X456177400Y-145142200D01*
X275590000Y-167005000D02*
X275590000Y-208915000D01*
X337820000Y-75031600D02*
X338945000Y-73906600D01*
X312420000Y-211810600D02*
X313545000Y-210685600D01*
X312400000Y-166126000D02*
X313535000Y-164991000D01*
X313555000Y-119626600D02*
X336695000Y-119626600D01*
X286989200Y-120751600D02*
X288114200Y-119626600D01*
X311305000Y-73906600D02*
X312430000Y-75031600D01*
X338935000Y-210685600D02*
X362065000Y-210685600D01*
X313545000Y-210685600D02*
X336685000Y-210685600D01*
X427265000Y-172175000D02*
X454297800Y-145142200D01*
X338935000Y-164991000D02*
X362075000Y-164991000D01*
X410755000Y-168820000D02*
X410755000Y-171750305D01*
X337810000Y-166116000D02*
X338935000Y-164991000D01*
X311305000Y-119626600D02*
X312430000Y-120751600D01*
X286969200Y-75031600D02*
X275590000Y-86410800D01*
X286969200Y-166116000D02*
X288094200Y-164991000D01*
X362065000Y-210685600D02*
X363200000Y-211820600D01*
X288114200Y-119626600D02*
X311305000Y-119626600D01*
X408305000Y-166370000D02*
X410755000Y-168820000D01*
X312430000Y-75031600D02*
X313555000Y-73906600D01*
X275590000Y-86410800D02*
X275590000Y-120650000D01*
X313535000Y-164991000D02*
X336685000Y-164991000D01*
X456177400Y-145142200D02*
X457352400Y-143967200D01*
X288094200Y-73906600D02*
X311305000Y-73906600D01*
X286969200Y-211810600D02*
X288094200Y-210685600D01*
X286969200Y-75031600D02*
X288094200Y-73906600D01*
%TO.N,2Im5*%
X370364009Y-57396600D02*
X388654805Y-57396600D01*
X311305000Y-115816600D02*
X312430000Y-116941600D01*
X286969200Y-71221600D02*
X274320000Y-83870800D01*
X311285000Y-161181000D02*
X312410000Y-162306000D01*
X368300000Y-59460609D02*
X370364009Y-57396600D01*
X312420000Y-208000600D02*
X313545000Y-206875600D01*
X336685000Y-206875600D02*
X337810000Y-208000600D01*
X286969200Y-71221600D02*
X288094200Y-70096600D01*
X312430000Y-116941600D02*
X313555000Y-115816600D01*
X311295000Y-70096600D02*
X312420000Y-71221600D01*
X338935000Y-206875600D02*
X346555000Y-206875600D01*
X338945000Y-115816600D02*
X362075000Y-115816600D01*
X368300000Y-66131600D02*
X368300000Y-59460609D01*
X313535000Y-161181000D02*
X336685000Y-161181000D01*
X363210000Y-71221600D02*
X368300000Y-66131600D01*
X336685000Y-161181000D02*
X337810000Y-162306000D01*
X312410000Y-162306000D02*
X313535000Y-161181000D01*
X338945000Y-70096600D02*
X362085000Y-70096600D01*
X448945000Y-122556396D02*
X457834302Y-131445698D01*
X336695000Y-115816600D02*
X337820000Y-116941600D01*
X346555000Y-206875600D02*
X346565677Y-206864923D01*
X286969200Y-162306000D02*
X288094200Y-161181000D01*
X339225000Y-160891000D02*
X361785000Y-160891000D01*
X362075000Y-115816600D02*
X363200000Y-116941600D01*
X288094200Y-161181000D02*
X311285000Y-161181000D01*
X288104200Y-115816600D02*
X311305000Y-115816600D01*
X337810000Y-162306000D02*
X339225000Y-160891000D01*
X274320000Y-160655000D02*
X274320000Y-207010000D01*
X458527400Y-144722600D02*
X458527400Y-132137400D01*
X388654805Y-57396600D02*
X445135000Y-113876795D01*
X362085000Y-70096600D02*
X363210000Y-71221600D01*
X448945000Y-122555000D02*
X448945000Y-122556396D01*
X274320000Y-115570000D02*
X274320000Y-160655000D01*
X288094200Y-206875600D02*
X311295000Y-206875600D01*
X346565677Y-206864923D02*
X362064323Y-206864923D01*
X274320000Y-83870800D02*
X274320000Y-115570000D01*
X361785000Y-160891000D02*
X363200000Y-162306000D01*
X313555000Y-115816600D02*
X336695000Y-115816600D01*
X311295000Y-206875600D02*
X312420000Y-208000600D01*
X286969200Y-208000600D02*
X288094200Y-206875600D01*
X337820000Y-116941600D02*
X338945000Y-115816600D01*
X313791600Y-69850000D02*
X336448400Y-69850000D01*
X454812400Y-146507200D02*
X455690699Y-146507200D01*
X362064323Y-206864923D02*
X363200000Y-208000600D01*
X337810000Y-208000600D02*
X338935000Y-206875600D01*
X445135000Y-113876795D02*
X445135000Y-118745000D01*
X336448400Y-69850000D02*
X337820000Y-71221600D01*
X456865699Y-145332200D02*
X457917800Y-145332200D01*
X337820000Y-71221600D02*
X338945000Y-70096600D01*
X458527400Y-132137400D02*
X457835000Y-131445000D01*
X312420000Y-71221600D02*
X313791600Y-69850000D01*
X286979200Y-116941600D02*
X288104200Y-115816600D01*
X313545000Y-206875600D02*
X336685000Y-206875600D01*
X457917800Y-145332200D02*
X458527400Y-144722600D01*
X288094200Y-70096600D02*
X311295000Y-70096600D01*
X455690699Y-146507200D02*
X456865699Y-145332200D01*
%TO.N,2Im4*%
X286969200Y-68681600D02*
X273050000Y-82600800D01*
X336695000Y-67556600D02*
X337820000Y-68681600D01*
X362085000Y-67556600D02*
X363210000Y-68681600D01*
X313555000Y-113276600D02*
X312430000Y-114401600D01*
X313545000Y-67556600D02*
X336695000Y-67556600D01*
X362064323Y-204324923D02*
X338945677Y-204324923D01*
X369138400Y-56946600D02*
X367665000Y-58420000D01*
X450215000Y-120650000D02*
X450215000Y-122555000D01*
X313535000Y-158641000D02*
X312410000Y-159766000D01*
X337810000Y-159766000D02*
X336685000Y-158641000D01*
X338945677Y-204324923D02*
X337810000Y-205460600D01*
X273050000Y-82600800D02*
X273050000Y-113030000D01*
X362075000Y-113276600D02*
X338945000Y-113276600D01*
X313545000Y-204335600D02*
X312420000Y-205460600D01*
X336685000Y-158641000D02*
X313535000Y-158641000D01*
X367665000Y-64226600D02*
X363210000Y-68681600D01*
X311005000Y-67266600D02*
X312420000Y-68681600D01*
X338935000Y-158641000D02*
X337810000Y-159766000D01*
X362075000Y-158641000D02*
X338935000Y-158641000D01*
X367665000Y-58420000D02*
X367665000Y-64226600D01*
X286979200Y-114401600D02*
X288104200Y-113276600D01*
X450215000Y-122555000D02*
X459740000Y-132080000D01*
X447040000Y-114845000D02*
X389141600Y-56946600D01*
X337810000Y-205460600D02*
X336685000Y-204335600D01*
X459740000Y-145321681D02*
X458554481Y-146507200D01*
X288094200Y-158641000D02*
X286969200Y-159766000D01*
X338945000Y-113276600D02*
X337820000Y-114401600D01*
X337820000Y-68681600D02*
X338945000Y-67556600D01*
X458554481Y-146507200D02*
X457352400Y-146507200D01*
X336695000Y-113276600D02*
X313555000Y-113276600D01*
X311295000Y-204310196D02*
X288094200Y-204310196D01*
X363200000Y-205460600D02*
X362064323Y-204324923D01*
X312410000Y-159766000D02*
X311285000Y-158641000D01*
X286969200Y-68681600D02*
X288384200Y-67266600D01*
X337820000Y-114401600D02*
X336695000Y-113276600D01*
X338945000Y-67556600D02*
X362085000Y-67556600D01*
X288094200Y-204335600D02*
X286969200Y-205460600D01*
X363200000Y-114401600D02*
X362075000Y-113276600D01*
X311305000Y-113276600D02*
X312430000Y-114401600D01*
X459740000Y-132080000D02*
X459740000Y-145321681D01*
X273050000Y-158750000D02*
X273050000Y-204470000D01*
X312420000Y-68681600D02*
X313545000Y-67556600D01*
X312420000Y-205460600D02*
X311295000Y-204335600D01*
X336685000Y-204335600D02*
X313545000Y-204335600D01*
X288104200Y-113276600D02*
X311305000Y-113276600D01*
X288384200Y-67266600D02*
X311005000Y-67266600D01*
X273050000Y-113030000D02*
X273050000Y-158750000D01*
X447040000Y-117475000D02*
X447040000Y-114845000D01*
X389141600Y-56946600D02*
X369138400Y-56946600D01*
X363200000Y-159766000D02*
X362075000Y-158641000D01*
X311285000Y-158641000D02*
X288094200Y-158641000D01*
%TO.N,2Im3*%
X286969200Y-66141600D02*
X271780000Y-81330800D01*
X286969200Y-202920600D02*
X288094200Y-201795600D01*
X336685000Y-156101000D02*
X337810000Y-157226000D01*
X337820000Y-66141600D02*
X336695000Y-65016600D01*
X337820000Y-111861600D02*
X338945000Y-110736600D01*
X368952004Y-56496600D02*
X389871600Y-56496600D01*
X337810000Y-157226000D02*
X338935000Y-156101000D01*
X460375000Y-145415000D02*
X457917800Y-147872200D01*
X286979200Y-111861600D02*
X288104200Y-110736600D01*
X313545000Y-201795600D02*
X336685000Y-201795600D01*
X363210000Y-66141600D02*
X362085000Y-65016600D01*
X311295000Y-65016600D02*
X288094200Y-65016600D01*
X288094200Y-156101000D02*
X311285000Y-156101000D01*
X288094200Y-65016600D02*
X286969200Y-66141600D01*
X311295000Y-201795600D02*
X312420000Y-202920600D01*
X288094200Y-201770196D02*
X311295000Y-201770196D01*
X362075000Y-110736600D02*
X363200000Y-111861600D01*
X336685000Y-201795600D02*
X337810000Y-202920600D01*
X336695000Y-110736600D02*
X337820000Y-111861600D01*
X271780000Y-156210000D02*
X271780000Y-201930000D01*
X312430000Y-111861600D02*
X313555000Y-110736600D01*
X311285000Y-156101000D02*
X312410000Y-157226000D01*
X451485000Y-120015000D02*
X451485000Y-122555000D01*
X455987400Y-147872200D02*
X454812400Y-149047200D01*
X271780000Y-110490000D02*
X271780000Y-156210000D01*
X312410000Y-157226000D02*
X313535000Y-156101000D01*
X448310000Y-114935000D02*
X448310000Y-116840000D01*
X362085000Y-65016600D02*
X338945000Y-65016600D01*
X336695000Y-65016600D02*
X313545000Y-65016600D01*
X362075000Y-156101000D02*
X363200000Y-157226000D01*
X338945000Y-110736600D02*
X362075000Y-110736600D01*
X457917800Y-147872200D02*
X455987400Y-147872200D01*
X451485000Y-122555000D02*
X460375000Y-131445000D01*
X337810000Y-202920600D02*
X338945677Y-201784923D01*
X338945000Y-65016600D02*
X337820000Y-66141600D01*
X286969200Y-157226000D02*
X288094200Y-156101000D01*
X338935000Y-156101000D02*
X362075000Y-156101000D01*
X367215000Y-58233604D02*
X368952004Y-56496600D01*
X313555000Y-110736600D02*
X336695000Y-110736600D01*
X312420000Y-202920600D02*
X313545000Y-201795600D01*
X288104200Y-110736600D02*
X311305000Y-110736600D01*
X362064323Y-201784923D02*
X363200000Y-202920600D01*
X389871600Y-56496600D02*
X448310000Y-114935000D01*
X312420000Y-66141600D02*
X311295000Y-65016600D01*
X313535000Y-156101000D02*
X336685000Y-156101000D01*
X313545000Y-65016600D02*
X312420000Y-66141600D01*
X271780000Y-81330800D02*
X271780000Y-110490000D01*
X311305000Y-110736600D02*
X312430000Y-111861600D01*
X367215000Y-62136600D02*
X367215000Y-58233604D01*
X363210000Y-66141600D02*
X367215000Y-62136600D01*
X460375000Y-131445000D02*
X460375000Y-145415000D01*
X338945677Y-201784923D02*
X362064323Y-201784923D01*
%TO.N,2Im2*%
X270510000Y-199300500D02*
X270510000Y-154305000D01*
X270599500Y-199390000D02*
X270510000Y-199300500D01*
X452755000Y-122555000D02*
X461010000Y-130810000D01*
X363210000Y-63601600D02*
X364758400Y-63601600D01*
X270510000Y-80060800D02*
X286969200Y-63601600D01*
X337810000Y-200380600D02*
X338945677Y-199244923D01*
X313545000Y-199255600D02*
X336685000Y-199255600D01*
X286969200Y-63601600D02*
X288094200Y-62476600D01*
X362075000Y-153561000D02*
X338935000Y-153561000D01*
X311295000Y-199255600D02*
X312420000Y-200380600D01*
X286979200Y-109321600D02*
X288104200Y-108196600D01*
X362064323Y-199244923D02*
X363200000Y-200380600D01*
X338945000Y-62476600D02*
X362085000Y-62476600D01*
X312420000Y-200380600D02*
X313545000Y-199255600D01*
X288094200Y-153561000D02*
X286969200Y-154686000D01*
X368932208Y-55880000D02*
X368935000Y-55880000D01*
X311295000Y-62476600D02*
X312420000Y-63601600D01*
X313545000Y-62476600D02*
X336695000Y-62476600D01*
X338935000Y-153561000D02*
X337810000Y-154686000D01*
X362075000Y-108196600D02*
X363200000Y-109321600D01*
X270510000Y-154305000D02*
X270510000Y-107950000D01*
X449580000Y-114935000D02*
X449580000Y-116205000D01*
X312410000Y-154686000D02*
X311285000Y-153561000D01*
X288094200Y-62476600D02*
X311295000Y-62476600D01*
X286969200Y-200380600D02*
X288094200Y-199255600D01*
X337820000Y-63601600D02*
X338945000Y-62476600D01*
X288104200Y-108196600D02*
X311305000Y-108196600D01*
X452755000Y-119380000D02*
X452755000Y-122555000D01*
X312420000Y-63601600D02*
X313545000Y-62476600D01*
X312430000Y-109321600D02*
X313555000Y-108196600D01*
X363200000Y-154686000D02*
X362075000Y-153561000D01*
X337820000Y-109321600D02*
X338945000Y-108196600D01*
X336695000Y-62476600D02*
X337820000Y-63601600D01*
X364758400Y-63601600D02*
X366765000Y-61595000D01*
X313535000Y-153561000D02*
X312410000Y-154686000D01*
X368935000Y-55880000D02*
X390525000Y-55880000D01*
X313555000Y-108196600D02*
X336695000Y-108196600D01*
X366765000Y-61595000D02*
X366765000Y-58047208D01*
X311305000Y-108196600D02*
X312430000Y-109321600D01*
X336685000Y-153561000D02*
X313535000Y-153561000D01*
X390525000Y-55880000D02*
X449580000Y-114935000D01*
X366765000Y-58047208D02*
X368932208Y-55880000D01*
X338945677Y-199244923D02*
X362064323Y-199244923D01*
X461010000Y-146591681D02*
X458554481Y-149047200D01*
X336685000Y-199255600D02*
X337810000Y-200380600D01*
X338945000Y-108196600D02*
X362075000Y-108196600D01*
X288094200Y-199230196D02*
X311295000Y-199230196D01*
X270510000Y-107950000D02*
X270510000Y-80060800D01*
X458554481Y-149047200D02*
X457352400Y-149047200D01*
X461010000Y-130810000D02*
X461010000Y-146591681D01*
X336695000Y-108196600D02*
X337820000Y-109321600D01*
X311285000Y-153561000D02*
X288094200Y-153561000D01*
X362085000Y-62476600D02*
X363210000Y-63601600D01*
X337810000Y-154686000D02*
X336685000Y-153561000D01*
%TO.N,2Im1*%
X362085000Y-59936600D02*
X338945000Y-59936600D01*
X313555000Y-105656600D02*
X312430000Y-106781600D01*
X312410000Y-152146000D02*
X313535000Y-151021000D01*
X366315000Y-60325000D02*
X365578400Y-61061600D01*
X288094200Y-196715600D02*
X286969200Y-197840600D01*
X313545000Y-196715600D02*
X312420000Y-197840600D01*
X289941000Y-152146000D02*
X286969200Y-152146000D01*
X455987400Y-150412200D02*
X454812400Y-151587200D01*
X338945677Y-196704923D02*
X337810000Y-197840600D01*
X311295000Y-196690196D02*
X288094200Y-196690196D01*
X461645000Y-146593077D02*
X457825877Y-150412200D01*
X312420000Y-197840600D02*
X311295000Y-196715600D01*
X311285000Y-151021000D02*
X312410000Y-152146000D01*
X461645000Y-130175000D02*
X461645000Y-146593077D01*
X362075000Y-151021000D02*
X363200000Y-152146000D01*
X313535000Y-151021000D02*
X336685000Y-151021000D01*
X363200000Y-197840600D02*
X362064323Y-196704923D01*
X365578400Y-61061600D02*
X363210000Y-61061600D01*
X363210000Y-61061600D02*
X362085000Y-59936600D01*
X337820000Y-106781600D02*
X336695000Y-105656600D01*
X457825877Y-150412200D02*
X455987400Y-150412200D01*
X311305000Y-105656600D02*
X288104200Y-105656600D01*
X337810000Y-197840600D02*
X336685000Y-196715600D01*
X312420000Y-61061600D02*
X311295000Y-59936600D01*
X288094200Y-151021000D02*
X311285000Y-151021000D01*
X336685000Y-196715600D02*
X313545000Y-196715600D01*
X337820000Y-61061600D02*
X336695000Y-59936600D01*
X311295000Y-59936600D02*
X288094200Y-59936600D01*
X366315000Y-57860812D02*
X366315000Y-60325000D01*
X336695000Y-59936600D02*
X313545000Y-59936600D01*
X450304500Y-114935000D02*
X450304500Y-114389500D01*
X362064323Y-196704923D02*
X338945677Y-196704923D01*
X338935000Y-151021000D02*
X362075000Y-151021000D01*
X286969200Y-152146000D02*
X288094200Y-151021000D01*
X336685000Y-151021000D02*
X337810000Y-152146000D01*
X288094200Y-59936600D02*
X286969200Y-61061600D01*
X454025000Y-122555000D02*
X461645000Y-130175000D01*
X450304500Y-114389500D02*
X391160000Y-55245000D01*
X391160000Y-55245000D02*
X368930812Y-55245000D01*
X363200000Y-106781600D02*
X362075000Y-105656600D01*
X288104200Y-105656600D02*
X286979200Y-106781600D01*
X338945000Y-105656600D02*
X337820000Y-106781600D01*
X290195000Y-106680000D02*
X290093400Y-106781600D01*
X368930812Y-55245000D02*
X366315000Y-57860812D01*
X362075000Y-105656600D02*
X338945000Y-105656600D01*
X290093400Y-106781600D02*
X286979200Y-106781600D01*
X313545000Y-59936600D02*
X312420000Y-61061600D01*
X337810000Y-152146000D02*
X338935000Y-151021000D01*
X312430000Y-106781600D02*
X311305000Y-105656600D01*
X336695000Y-105656600D02*
X313555000Y-105656600D01*
X454025000Y-118745000D02*
X454025000Y-122555000D01*
X338945000Y-59936600D02*
X337820000Y-61061600D01*
X290195000Y-152400000D02*
X289941000Y-152146000D01*
%TO.N,2Im0*%
X336695000Y-57396600D02*
X337820000Y-58521600D01*
X311295000Y-57396600D02*
X312420000Y-58521600D01*
X292100000Y-104140000D02*
X291998400Y-104241600D01*
X312410000Y-149606000D02*
X311285000Y-148481000D01*
X455295000Y-121920000D02*
X462280000Y-128905000D01*
X337820000Y-104241600D02*
X338945000Y-103116600D01*
X288094200Y-57396600D02*
X311295000Y-57396600D01*
X362075000Y-103116600D02*
X363200000Y-104241600D01*
X336685000Y-148481000D02*
X313535000Y-148481000D01*
X292100000Y-149225000D02*
X291719000Y-149606000D01*
X313555000Y-103116600D02*
X336695000Y-103116600D01*
X312420000Y-195300600D02*
X313545000Y-194175600D01*
X291744400Y-195300600D02*
X286969200Y-195300600D01*
X337820000Y-58521600D02*
X338945000Y-57396600D01*
X288104200Y-103116600D02*
X311305000Y-103116600D01*
X391795000Y-54610000D02*
X450850000Y-113665000D01*
X312420000Y-58521600D02*
X313545000Y-57396600D01*
X462280000Y-146594473D02*
X456112273Y-152762200D01*
X313535000Y-148481000D02*
X312410000Y-149606000D01*
X291998400Y-104241600D02*
X286979200Y-104241600D01*
X336685000Y-194175600D02*
X337810000Y-195300600D01*
X311305000Y-103116600D02*
X312430000Y-104241600D01*
X456177400Y-152762200D02*
X457352400Y-151587200D01*
X313545000Y-194175600D02*
X336685000Y-194175600D01*
X337810000Y-195300600D02*
X338945677Y-194164923D01*
X291719000Y-149606000D02*
X286969200Y-149606000D01*
X311285000Y-148481000D02*
X288094200Y-148481000D01*
X338945677Y-194164923D02*
X362064323Y-194164923D01*
X362064323Y-194164923D02*
X363200000Y-195300600D01*
X286969200Y-195300600D02*
X288094200Y-194175600D01*
X338945000Y-103116600D02*
X362075000Y-103116600D01*
X367121600Y-54610000D02*
X391795000Y-54610000D01*
X313545000Y-57396600D02*
X336695000Y-57396600D01*
X462280000Y-128905000D02*
X462280000Y-146594473D01*
X311295000Y-194175600D02*
X312420000Y-195300600D01*
X456112273Y-152762200D02*
X456177400Y-152762200D01*
X363210000Y-58521600D02*
X367121600Y-54610000D01*
X455295000Y-118110000D02*
X455295000Y-121920000D01*
X292100000Y-194945000D02*
X291744400Y-195300600D01*
X288094200Y-194150196D02*
X311295000Y-194150196D01*
X286979200Y-104241600D02*
X288104200Y-103116600D01*
X286969200Y-58521600D02*
X288094200Y-57396600D01*
X363200000Y-149606000D02*
X362075000Y-148481000D01*
X338935000Y-148481000D02*
X337810000Y-149606000D01*
X362085000Y-57396600D02*
X363210000Y-58521600D01*
X338945000Y-57396600D02*
X362085000Y-57396600D01*
X288094200Y-148481000D02*
X286969200Y-149606000D01*
X312430000Y-104241600D02*
X313555000Y-103116600D01*
X336695000Y-103116600D02*
X337820000Y-104241600D01*
X337810000Y-149606000D02*
X336685000Y-148481000D01*
X362075000Y-148481000D02*
X338935000Y-148481000D01*
%TO.N,pc0*%
X406410000Y-182870000D02*
X414655000Y-182880000D01*
X455962000Y-113633000D02*
X414655000Y-154940000D01*
X414655000Y-182880000D02*
X414655000Y-182870000D01*
X406400000Y-154940000D02*
X414655000Y-154940000D01*
X454787000Y-70002400D02*
X455962000Y-71177400D01*
X455962000Y-71177400D02*
X455962000Y-113633000D01*
%TO.N,pc1*%
X416470000Y-180340000D02*
X417195000Y-180340000D01*
X414655000Y-180340000D02*
X416470000Y-180340000D01*
X414020000Y-152400000D02*
X415925000Y-152400000D01*
X406400000Y-152400000D02*
X414020000Y-152400000D01*
X406410000Y-180330000D02*
X414645000Y-180330000D01*
X414645000Y-180330000D02*
X414655000Y-180340000D01*
%TO.N,pc2*%
X406400000Y-149860000D02*
X417195000Y-149860000D01*
X453612000Y-73717400D02*
X453612000Y-113443000D01*
X414655000Y-177800000D02*
X414645000Y-177790000D01*
X406410000Y-177790000D02*
X414645000Y-177790000D01*
X454787000Y-72542400D02*
X453612000Y-73717400D01*
X453612000Y-113443000D02*
X417195000Y-149860000D01*
X414655000Y-177800000D02*
X419100000Y-177800000D01*
%TO.N,pc4*%
X422275000Y-174625000D02*
X446405000Y-198755000D01*
X414655000Y-174625000D02*
X422275000Y-174625000D01*
X418497900Y-98392100D02*
X414020000Y-102870000D01*
X414020000Y-102870000D02*
X414109500Y-102959500D01*
X414109500Y-102959500D02*
X414109500Y-147955000D01*
X428625000Y-98392100D02*
X418497900Y-98392100D01*
%TO.N,Net-(U1-Pad2)*%
X450215000Y-202565000D02*
X454025000Y-198755000D01*
X426720000Y-198755000D02*
X430530000Y-202565000D01*
X430530000Y-202565000D02*
X450215000Y-202565000D01*
%TO.N,Net-(U3-E2)*%
X436880000Y-186690000D02*
X436245000Y-186690000D01*
X448945000Y-198755000D02*
X436880000Y-186690000D01*
%TO.N,Net-(U4-E2)*%
X405765000Y-195580000D02*
X438150000Y-195580000D01*
X406410000Y-170170000D02*
X405285000Y-171295000D01*
X405285000Y-195100000D02*
X405765000Y-195580000D01*
X405285000Y-171295000D02*
X405285000Y-195100000D01*
X438150000Y-195580000D02*
X441325000Y-198755000D01*
%TD*%
M02*
