M48
; DRILL file {KiCad 7.0.7} date Tue Oct 17 23:07:57 2023
; FORMAT={-:-/ absolute / inch / decimal}
; #@! TF.CreationDate,2023-10-17T23:07:57+09:00
; #@! TF.GenerationSoftware,Kicad,Pcbnew,7.0.7
; #@! TF.FileFunction,Plated,1,2,PTH
FMAT,2
INCH
; #@! TA.AperFunction,Plated,PTH,ViaDrill
T1C0.0157
; #@! TA.AperFunction,Plated,PTH,ComponentDrill
T2C0.0315
; #@! TA.AperFunction,Plated,PTH,ComponentDrill
T3C0.0354
; #@! TA.AperFunction,Plated,PTH,ComponentDrill
T4C0.0394
%
G90
G05
T1
X7.55Y-6.58
X7.68Y-6.74
X7.74Y-1.77
X7.74Y-1.91
X7.9269Y-3.0125
X7.9387Y-4.8162
X8.1Y-3.85
X8.2201Y-4.1021
X8.3813Y-4.3124
X8.4114Y-5.825
X9.1174Y-3.075
X9.425Y-7.6629
X9.75Y-6.025
X9.9Y-2.3194
X10.1196Y-2.8239
X10.175Y-3.375
X10.1859Y-4.6742
X10.2063Y-2.8746
X10.3036Y-1.6996
X10.325Y-5.15
X10.3251Y-5.3218
X10.375Y-5.7
X10.3775Y-4.478
X10.7482Y-2.1965
X10.9676Y-3.75
X10.9961Y-2.1728
X10.9961Y-4.725
X11.1007Y-4.725
X11.1206Y-1.8751
X11.1617Y-2.5563
X11.2788Y-5.4771
X11.5461Y-5.2139
X11.5563Y-4.1815
X11.5814Y-3.9955
X11.6212Y-3.9973
X11.7092Y-5.8709
X11.7317Y-6.1396
X11.7503Y-4.037
X11.825Y-4.8
X11.8754Y-3.7869
X11.8934Y-3.1906
X11.9493Y-3.4996
X12.0Y-2.525
X12.025Y-3.8202
X12.125Y-1.7539
X12.1333Y-6.1246
X12.175Y-6.8
X12.2198Y-3.9665
X12.2205Y-6.163
X12.2837Y-1.1443
X12.3Y-5.95
X12.3018Y-3.8018
X12.3103Y-3.975
X12.3207Y-2.6495
X12.3207Y-3.0297
X12.325Y-1.425
X12.3448Y-4.225
X12.3735Y-3.2692
X12.3901Y-5.5567
X12.4408Y-2.475
X12.5087Y-4.8
X12.5423Y-5.209
X12.6044Y-1.5138
X12.675Y-6.1471
X12.6782Y-3.1198
X12.7713Y-6.1514
X12.7746Y-4.2846
X12.8717Y-6.1409
X12.8902Y-3.5053
X12.975Y-2.8724
X13.0234Y-1.6679
X13.0246Y-3.8487
X13.0788Y-3.7231
X13.1Y-2.2466
X13.1037Y-2.6366
X13.1228Y-1.4817
X13.252Y-3.0427
X13.3046Y-3.775
X13.347Y-3.975
X13.4031Y-6.2455
X13.4404Y-2.7048
X13.4532Y-2.3011
X13.4534Y-4.781
X13.4551Y-4.3752
X13.5225Y-4.4344
X13.5542Y-2.7071
X13.5595Y-2.993
X13.5595Y-3.0777
X13.5595Y-3.1234
X13.56Y-4.6481
X13.575Y-2.95
X13.6081Y-2.2044
X13.625Y-2.65
X13.6345Y-3.8762
X13.6376Y-3.069
X13.6488Y-4.55
X13.65Y-2.725
X13.6555Y-3.2977
X13.6696Y-3.2169
X13.6726Y-3.9662
X13.6737Y-4.0669
X13.6774Y-4.9778
X13.7Y-6.3369
X13.7115Y-6.4974
X13.7248Y-2.571
X13.7249Y-2.35
X13.7623Y-2.6731
X13.7716Y-4.9273
X13.775Y-4.339
X13.7821Y-2.575
X13.7949Y-3.8467
X13.7967Y-5.1417
X13.8965Y-2.5
X13.8965Y-2.5772
X13.9001Y-4.4502
X13.9046Y-4.7858
X13.9072Y-4.4028
X13.9535Y-3.5775
X13.9999Y-2.7246
X14.0Y-2.8796
X14.007Y-2.66
X14.0079Y-2.4579
X14.0301Y-5.1006
X14.0604Y-3.0329
X14.075Y-1.05
X14.2563Y-6.4916
X14.2577Y-1.1923
X14.35Y-2.5
X14.375Y-7.525
T2
X6.9Y-1.9
X6.9Y-2.15
X6.9Y-2.4
X6.9Y-2.65
X6.9Y-2.9
X6.9Y-3.15
X6.9Y-3.5496
X6.9Y-4.3246
X6.9Y-4.5746
X6.9Y-4.8246
X6.9Y-5.0746
X6.9Y-5.3246
X6.9Y-5.5746
X6.948Y-6.7512
X6.948Y-7.0012
X6.948Y-7.2512
X6.948Y-7.5012
X6.948Y-7.7512
X6.948Y-8.0012
X7.275Y-1.125
X7.3Y-1.9
X7.3Y-2.15
X7.3Y-2.4
X7.3Y-2.65
X7.3Y-2.9
X7.3Y-3.15
X7.3Y-3.5496
X7.3Y-4.3246
X7.3Y-4.5746
X7.3Y-4.8246
X7.3Y-5.0746
X7.3Y-5.3246
X7.3Y-5.5746
X7.348Y-6.7512
X7.348Y-7.0012
X7.348Y-7.2512
X7.348Y-7.5012
X7.348Y-7.7512
X7.348Y-8.0012
X7.448Y-5.9762
X7.675Y-1.125
X7.848Y-5.9762
X7.873Y-6.1762
X7.873Y-6.2762
X7.873Y-6.3762
X7.873Y-6.4762
X7.873Y-6.5762
X7.873Y-6.6762
X7.873Y-6.7762
X7.873Y-6.8762
X7.873Y-7.3262
X7.873Y-7.4262
X7.873Y-7.5262
X7.873Y-7.6262
X7.873Y-7.7262
X7.873Y-7.8262
X7.873Y-7.9262
X7.873Y-8.0262
X7.8746Y-1.3254
X7.8746Y-1.4254
X7.8746Y-1.5254
X7.8746Y-1.6254
X7.8746Y-1.7254
X7.8746Y-1.8254
X7.8746Y-1.9254
X7.8746Y-2.0254
X7.8746Y-3.75
X7.8746Y-3.85
X7.8746Y-3.95
X7.8746Y-4.05
X7.8746Y-4.15
X7.8746Y-4.25
X7.8746Y-4.35
X7.8746Y-4.45
X7.8746Y-4.9
X7.8746Y-5.0
X7.8746Y-5.1
X7.8746Y-5.2
X7.8746Y-5.3
X7.8746Y-5.4
X7.8746Y-5.5
X7.8746Y-5.6
X7.875Y-2.475
X7.875Y-2.575
X7.875Y-2.675
X7.875Y-2.775
X7.875Y-2.875
X7.875Y-2.975
X7.875Y-3.075
X7.875Y-3.175
X7.9734Y-5.9758
X7.975Y-2.275
X7.975Y-7.1258
X7.9754Y-3.55
X7.9762Y-4.7
X7.9766Y-1.125
X8.0719Y-5.9758
X8.0734Y-2.275
X8.0734Y-7.1258
X8.0738Y-3.55
X8.0746Y-4.7
X8.075Y-1.125
X8.173Y-6.1762
X8.173Y-6.2762
X8.173Y-6.3762
X8.173Y-6.4762
X8.173Y-6.5762
X8.173Y-6.6762
X8.173Y-6.7762
X8.173Y-6.8762
X8.173Y-7.3262
X8.173Y-7.4262
X8.173Y-7.5262
X8.173Y-7.6262
X8.173Y-7.7262
X8.173Y-7.8262
X8.173Y-7.9262
X8.173Y-8.0262
X8.1746Y-1.3254
X8.1746Y-1.4254
X8.1746Y-1.5254
X8.1746Y-1.6254
X8.1746Y-1.7254
X8.1746Y-1.8254
X8.1746Y-1.9254
X8.1746Y-2.0254
X8.1746Y-3.75
X8.1746Y-3.85
X8.1746Y-3.95
X8.1746Y-4.05
X8.1746Y-4.15
X8.1746Y-4.25
X8.1746Y-4.35
X8.1746Y-4.45
X8.1746Y-4.9
X8.1746Y-5.0
X8.1746Y-5.1
X8.1746Y-5.2
X8.1746Y-5.3
X8.1746Y-5.4
X8.1746Y-5.5
X8.1746Y-5.6
X8.175Y-2.475
X8.175Y-2.575
X8.175Y-2.675
X8.175Y-2.775
X8.175Y-2.875
X8.175Y-2.975
X8.175Y-3.075
X8.175Y-3.175
X8.55Y-7.325
X8.55Y-7.4234
X8.55Y-7.55
X8.55Y-7.95
X8.65Y-6.4508
X8.65Y-6.5492
X8.75Y-7.225
X8.75Y-7.525
X8.85Y-6.3504
X8.85Y-6.6504
X8.85Y-7.225
X8.85Y-7.525
X8.95Y-6.3504
X8.95Y-6.6504
X8.95Y-7.225
X8.95Y-7.525
X9.05Y-6.3504
X9.05Y-6.6504
X9.05Y-7.225
X9.05Y-7.525
X9.15Y-6.3504
X9.15Y-6.6504
X9.15Y-7.225
X9.15Y-7.525
X9.1754Y-1.8996
X9.1754Y-2.1496
X9.1754Y-2.3996
X9.1754Y-2.6496
X9.1754Y-2.8996
X9.1754Y-3.1496
X9.1754Y-3.5496
X9.1754Y-4.3246
X9.1754Y-4.5746
X9.1754Y-4.8246
X9.1754Y-5.0746
X9.1754Y-5.3246
X9.1754Y-5.5746
X9.1756Y-1.125
X9.25Y-6.3504
X9.25Y-6.6504
X9.25Y-7.225
X9.25Y-7.525
X9.325Y-8.0502
X9.325Y-8.4502
X9.35Y-6.3504
X9.35Y-6.6504
X9.35Y-7.225
X9.35Y-7.525
X9.45Y-6.3504
X9.45Y-6.6504
X9.45Y-7.225
X9.45Y-7.525
X9.575Y-8.0502
X9.575Y-8.4502
X9.5754Y-1.8996
X9.5754Y-2.1496
X9.5754Y-2.3996
X9.5754Y-2.6496
X9.5754Y-2.8996
X9.5754Y-3.1496
X9.5754Y-3.5496
X9.5754Y-4.3246
X9.5754Y-4.5746
X9.5754Y-4.8246
X9.5754Y-5.0746
X9.5754Y-5.3246
X9.5754Y-5.5746
X9.5756Y-1.125
X9.6998Y-6.4512
X9.6998Y-6.5496
X9.7Y-7.325
X9.7Y-7.4234
X9.825Y-8.0502
X9.825Y-8.4502
X9.9Y-6.35
X9.9Y-6.65
X9.9Y-7.225
X9.9Y-7.525
X10.0Y-6.35
X10.0Y-6.65
X10.0Y-7.225
X10.0Y-7.525
X10.075Y-8.0502
X10.075Y-8.4502
X10.1Y-6.35
X10.1Y-6.65
X10.1Y-7.225
X10.1Y-7.525
X10.15Y-1.325
X10.15Y-1.425
X10.15Y-1.525
X10.15Y-1.625
X10.15Y-1.725
X10.15Y-1.825
X10.15Y-1.925
X10.15Y-2.025
X10.1504Y-2.4746
X10.1504Y-2.5746
X10.1504Y-2.6746
X10.1504Y-2.7746
X10.1504Y-2.8746
X10.1504Y-2.9746
X10.1504Y-3.0746
X10.1504Y-3.1746
X10.1504Y-3.7496
X10.1504Y-3.8496
X10.1504Y-3.9496
X10.1504Y-4.0496
X10.1504Y-4.1496
X10.1504Y-4.2496
X10.1504Y-4.3496
X10.1504Y-4.4496
X10.1504Y-4.8996
X10.1504Y-4.9996
X10.1504Y-5.0996
X10.1504Y-5.1996
X10.1504Y-5.2996
X10.1504Y-5.3996
X10.1504Y-5.4996
X10.1504Y-5.5996
X10.2Y-6.35
X10.2Y-6.65
X10.2Y-7.225
X10.2Y-7.525
X10.25Y-4.7
X10.2504Y-3.5496
X10.2516Y-1.125
X10.252Y-2.2746
X10.3Y-6.35
X10.3Y-6.65
X10.3Y-7.225
X10.3Y-7.525
X10.325Y-8.0502
X10.325Y-8.4502
X10.3484Y-4.7
X10.3488Y-3.5496
X10.35Y-1.125
X10.3504Y-2.2746
X10.4Y-6.35
X10.4Y-6.65
X10.4Y-7.225
X10.4Y-7.525
X10.45Y-1.325
X10.45Y-1.425
X10.45Y-1.525
X10.45Y-1.625
X10.45Y-1.725
X10.45Y-1.825
X10.45Y-1.925
X10.45Y-2.025
X10.4504Y-2.4746
X10.4504Y-2.5746
X10.4504Y-2.6746
X10.4504Y-2.7746
X10.4504Y-2.8746
X10.4504Y-2.9746
X10.4504Y-3.0746
X10.4504Y-3.1746
X10.4504Y-3.7496
X10.4504Y-3.8496
X10.4504Y-3.9496
X10.4504Y-4.0496
X10.4504Y-4.1496
X10.4504Y-4.2496
X10.4504Y-4.3496
X10.4504Y-4.4496
X10.4504Y-4.8996
X10.4504Y-4.9996
X10.4504Y-5.0996
X10.4504Y-5.1996
X10.4504Y-5.2996
X10.4504Y-5.3996
X10.4504Y-5.4996
X10.4504Y-5.5996
X10.5Y-6.35
X10.5Y-6.65
X10.5Y-7.225
X10.5Y-7.525
X10.575Y-8.0502
X10.575Y-8.4502
X10.6Y-7.225
X10.6Y-7.525
X11.05Y-8.1496
X11.05Y-8.4496
X11.15Y-8.1496
X11.15Y-8.4496
X11.25Y-8.1496
X11.25Y-8.4496
X11.275Y-1.2016
X11.275Y-1.3
X11.275Y-4.2262
X11.275Y-4.3246
X11.275Y-5.1463
X11.275Y-5.2447
X11.2758Y-2.1266
X11.2758Y-2.225
X11.2758Y-3.0516
X11.2758Y-3.15
X11.2758Y-6.0762
X11.2758Y-6.1746
X11.35Y-8.1496
X11.35Y-8.4496
X11.45Y-8.1496
X11.45Y-8.4496
X11.475Y-1.1
X11.475Y-1.4
X11.4754Y-4.125
X11.4754Y-4.425
X11.4754Y-5.0451
X11.4754Y-5.3451
X11.4758Y-2.025
X11.4758Y-2.325
X11.4758Y-2.95
X11.4758Y-3.25
X11.4762Y-5.975
X11.4762Y-6.275
X11.55Y-8.1496
X11.55Y-8.4496
X11.575Y-1.1
X11.575Y-1.4
X11.5754Y-4.125
X11.5754Y-4.425
X11.5754Y-5.0451
X11.5754Y-5.3451
X11.5758Y-2.025
X11.5758Y-2.325
X11.5758Y-2.95
X11.5758Y-3.25
X11.5762Y-5.975
X11.5762Y-6.275
X11.675Y-1.1
X11.675Y-1.4
X11.6754Y-4.125
X11.6754Y-4.425
X11.6754Y-5.0451
X11.6754Y-5.3451
X11.6758Y-2.025
X11.6758Y-2.325
X11.6758Y-2.95
X11.6758Y-3.25
X11.6762Y-5.975
X11.6762Y-6.275
X11.775Y-1.1
X11.775Y-1.4
X11.7754Y-4.125
X11.7754Y-4.425
X11.7754Y-5.0451
X11.7754Y-5.3451
X11.7758Y-2.025
X11.7758Y-2.325
X11.7758Y-2.95
X11.7758Y-3.25
X11.7762Y-5.975
X11.7762Y-6.275
X11.875Y-1.1
X11.875Y-1.4
X11.8754Y-4.125
X11.8754Y-4.425
X11.8754Y-5.0451
X11.8754Y-5.3451
X11.8758Y-2.025
X11.8758Y-2.325
X11.8758Y-2.95
X11.8758Y-3.25
X11.8762Y-5.975
X11.8762Y-6.275
X11.975Y-1.1
X11.975Y-1.4
X11.9754Y-4.125
X11.9754Y-4.425
X11.9754Y-5.0451
X11.9754Y-5.3451
X11.9758Y-2.025
X11.9758Y-2.325
X11.9758Y-2.95
X11.9758Y-3.25
X11.9762Y-5.975
X11.9762Y-6.275
X12.0Y-7.34
X12.0Y-7.53
X12.0Y-7.72
X12.0Y-7.91
X12.0Y-8.1
X12.0Y-8.29
X12.075Y-1.1
X12.075Y-1.4
X12.0754Y-4.125
X12.0754Y-4.425
X12.0754Y-5.0451
X12.0754Y-5.3451
X12.0758Y-2.025
X12.0758Y-2.325
X12.0758Y-2.95
X12.0758Y-3.25
X12.0762Y-5.975
X12.0762Y-6.275
X12.175Y-1.1
X12.175Y-1.4
X12.1754Y-4.125
X12.1754Y-4.425
X12.1754Y-5.0451
X12.1754Y-5.3451
X12.1758Y-2.025
X12.1758Y-2.325
X12.1758Y-2.95
X12.1758Y-3.25
X12.1762Y-5.975
X12.1762Y-6.275
X12.4Y-7.34
X12.4Y-7.53
X12.4Y-7.72
X12.4Y-7.91
X12.4Y-8.1
X12.4Y-8.29
X12.4242Y-1.2
X12.4242Y-1.2984
X12.4242Y-2.1185
X12.4242Y-2.2169
X12.4242Y-4.225
X12.4242Y-4.3234
X12.4242Y-5.1467
X12.4242Y-5.2451
X12.4246Y-6.0831
X12.4246Y-6.1815
X12.425Y-3.05
X12.425Y-3.1484
X12.6242Y-1.0984
X12.6242Y-1.3984
X12.6246Y-4.125
X12.6246Y-4.425
X12.6246Y-5.0455
X12.6246Y-5.3455
X12.625Y-2.9484
X12.625Y-3.2484
X12.625Y-5.975
X12.625Y-6.275
X12.6254Y-2.0234
X12.6254Y-2.3234
X12.7242Y-1.0984
X12.7242Y-1.3984
X12.7246Y-4.125
X12.7246Y-4.425
X12.7246Y-5.0455
X12.7246Y-5.3455
X12.725Y-2.9484
X12.725Y-3.2484
X12.725Y-5.975
X12.725Y-6.275
X12.7254Y-2.0234
X12.7254Y-2.3234
X12.8242Y-1.0984
X12.8242Y-1.3984
X12.8246Y-4.125
X12.8246Y-4.425
X12.8246Y-5.0455
X12.8246Y-5.3455
X12.825Y-2.9484
X12.825Y-3.2484
X12.825Y-5.975
X12.825Y-6.275
X12.8254Y-2.0234
X12.8254Y-2.3234
X12.9242Y-1.0984
X12.9242Y-1.3984
X12.9246Y-4.125
X12.9246Y-4.425
X12.9246Y-5.0455
X12.9246Y-5.3455
X12.925Y-2.9484
X12.925Y-3.2484
X12.925Y-5.975
X12.925Y-6.275
X12.9254Y-2.0234
X12.9254Y-2.3234
X13.0242Y-1.0984
X13.0242Y-1.3984
X13.0246Y-4.125
X13.0246Y-4.425
X13.0246Y-5.0455
X13.0246Y-5.3455
X13.025Y-2.9484
X13.025Y-3.2484
X13.025Y-5.975
X13.025Y-6.275
X13.0254Y-2.0234
X13.0254Y-2.3234
X13.1242Y-1.0984
X13.1242Y-1.3984
X13.1246Y-4.125
X13.1246Y-4.425
X13.1246Y-5.0455
X13.1246Y-5.3455
X13.125Y-2.9484
X13.125Y-3.2484
X13.125Y-5.975
X13.125Y-6.275
X13.1254Y-2.0234
X13.1254Y-2.3234
X13.2242Y-1.0984
X13.2242Y-1.3984
X13.2246Y-4.125
X13.2246Y-4.425
X13.2246Y-5.0455
X13.2246Y-5.3455
X13.225Y-2.9484
X13.225Y-3.2484
X13.225Y-5.975
X13.225Y-6.275
X13.2254Y-2.0234
X13.2254Y-2.3234
X13.3242Y-1.0984
X13.3242Y-1.3984
X13.3246Y-4.125
X13.3246Y-4.425
X13.3246Y-5.0455
X13.3246Y-5.3455
X13.325Y-2.9484
X13.325Y-3.2484
X13.325Y-5.975
X13.325Y-6.275
X13.3254Y-2.0234
X13.3254Y-2.3234
X14.075Y-6.425
X14.075Y-6.7
X14.075Y-6.95
X14.075Y-7.4
X14.075Y-7.65
X14.075Y-7.9
X14.475Y-6.425
X14.475Y-6.7
X14.475Y-6.95
X14.475Y-7.4
X14.475Y-7.65
X14.475Y-7.9
T3
X6.9Y-1.35
X6.9Y-3.7746
X7.0Y-1.35
X7.0Y-3.7746
X7.448Y-6.7512
X7.448Y-7.0012
X7.448Y-7.2512
X7.448Y-7.5012
X7.448Y-7.7512
X7.448Y-8.0012
X7.4482Y-6.2012
X7.4498Y-4.3246
X7.4498Y-4.5746
X7.4498Y-4.8246
X7.45Y-5.0746
X7.45Y-5.3246
X7.45Y-5.5746
X7.4502Y-1.9
X7.4502Y-2.15
X7.4502Y-2.4
X7.4502Y-2.65
X7.4502Y-2.9
X7.4502Y-3.15
X7.548Y-6.7512
X7.548Y-7.0012
X7.548Y-7.2512
X7.548Y-7.5012
X7.548Y-7.7512
X7.548Y-8.0012
X7.5482Y-6.2012
X7.5498Y-4.3246
X7.5498Y-4.5746
X7.5498Y-4.8246
X7.55Y-5.0746
X7.55Y-5.3246
X7.55Y-5.5746
X7.5502Y-1.9
X7.5502Y-2.15
X7.5502Y-2.4
X7.5502Y-2.65
X7.5502Y-2.9
X7.5502Y-3.15
X8.775Y-7.8498
X8.775Y-7.9498
X9.1756Y-1.35
X9.1756Y-3.7746
X9.2756Y-1.35
X9.2756Y-3.7746
X9.325Y-7.8502
X9.325Y-7.9502
X9.575Y-7.8502
X9.575Y-7.9502
X9.7252Y-4.3246
X9.7252Y-4.5746
X9.7252Y-4.8246
X9.7252Y-5.0746
X9.7252Y-5.3246
X9.7252Y-5.5746
X9.7258Y-1.9
X9.7258Y-2.15
X9.7258Y-2.4
X9.7258Y-2.65
X9.7258Y-2.9
X9.7258Y-3.15
X9.825Y-7.8502
X9.825Y-7.9502
X9.8252Y-4.3246
X9.8252Y-4.5746
X9.8252Y-4.8246
X9.8252Y-5.0746
X9.8252Y-5.3246
X9.8252Y-5.5746
X9.8258Y-1.9
X9.8258Y-2.15
X9.8258Y-2.4
X9.8258Y-2.65
X9.8258Y-2.9
X9.8258Y-3.15
X10.075Y-7.8502
X10.075Y-7.9502
X10.325Y-7.8502
X10.325Y-7.9502
X10.575Y-7.8502
X10.575Y-7.9502
X13.6955Y-7.4
X13.7Y-6.437
X13.7Y-6.6935
X13.7Y-6.937
X13.7Y-7.65
X13.7Y-7.9
X13.7955Y-7.4
X13.8Y-6.437
X13.8Y-6.6935
X13.8Y-6.937
X13.8Y-7.65
X13.8Y-7.9
T4
X14.107Y-1.6
X14.107Y-1.7
X14.107Y-1.8
X14.107Y-1.9
X14.107Y-2.0
X14.107Y-2.1
X14.107Y-2.2
X14.107Y-2.3
X14.107Y-2.4
X14.107Y-2.5
X14.107Y-2.6
X14.107Y-2.7
X14.107Y-2.8
X14.107Y-2.9
X14.107Y-3.0
X14.107Y-3.1
X14.107Y-3.2
X14.109Y-4.209
X14.109Y-4.309
X14.109Y-4.409
X14.109Y-4.509
X14.109Y-4.609
X14.109Y-4.709
X14.109Y-4.809
X14.109Y-4.909
X14.109Y-5.009
X14.109Y-5.109
X14.109Y-5.209
X14.109Y-5.309
X14.109Y-5.409
X14.109Y-5.509
X14.109Y-5.609
X14.109Y-5.709
X14.109Y-5.809
X14.207Y-1.6
X14.207Y-1.7
X14.207Y-1.8
X14.207Y-1.9
X14.207Y-2.0
X14.207Y-2.1
X14.207Y-2.2
X14.207Y-2.3
X14.207Y-2.4
X14.207Y-2.5
X14.207Y-2.6
X14.207Y-2.7
X14.207Y-2.8
X14.207Y-2.9
X14.207Y-3.0
X14.207Y-3.1
X14.207Y-3.2
X14.209Y-4.209
X14.209Y-4.309
X14.209Y-4.409
X14.209Y-4.509
X14.209Y-4.609
X14.209Y-4.709
X14.209Y-4.809
X14.209Y-4.909
X14.209Y-5.009
X14.209Y-5.109
X14.209Y-5.209
X14.209Y-5.309
X14.209Y-5.409
X14.209Y-5.509
X14.209Y-5.609
X14.209Y-5.709
X14.209Y-5.809
T0
M30
