%TF.GenerationSoftware,KiCad,Pcbnew,7.0.7*%
%TF.CreationDate,2023-10-17T23:07:55+09:00*%
%TF.ProjectId,data,64617461-2e6b-4696-9361-645f70636258,rev?*%
%TF.SameCoordinates,Original*%
%TF.FileFunction,Copper,L1,Top*%
%TF.FilePolarity,Positive*%
%FSLAX46Y46*%
G04 Gerber Fmt 4.6, Leading zero omitted, Abs format (unit mm)*
G04 Created by KiCad (PCBNEW 7.0.7) date 2023-10-17 23:07:55*
%MOMM*%
%LPD*%
G01*
G04 APERTURE LIST*
%TA.AperFunction,ComponentPad*%
%ADD10R,1.800000X1.800000*%
%TD*%
%TA.AperFunction,ComponentPad*%
%ADD11C,1.800000*%
%TD*%
%TA.AperFunction,ComponentPad*%
%ADD12R,1.600000X1.600000*%
%TD*%
%TA.AperFunction,ComponentPad*%
%ADD13O,1.600000X1.600000*%
%TD*%
%TA.AperFunction,ComponentPad*%
%ADD14C,1.600000*%
%TD*%
%TA.AperFunction,ComponentPad*%
%ADD15R,1.700000X1.700000*%
%TD*%
%TA.AperFunction,ComponentPad*%
%ADD16O,1.700000X1.700000*%
%TD*%
%TA.AperFunction,ViaPad*%
%ADD17C,0.800000*%
%TD*%
%TA.AperFunction,Conductor*%
%ADD18C,0.250000*%
%TD*%
G04 APERTURE END LIST*
D10*
%TO.P,D28,1,K*%
%TO.N,Net-(D28-K)*%
X189235000Y-67310000D03*
D11*
%TO.P,D28,2,A*%
%TO.N,R02*%
X191775000Y-67310000D03*
%TD*%
D12*
%TO.P,U26,1*%
%TO.N,pc5*%
X266700000Y-161290000D03*
D13*
%TO.P,U26,2*%
%TO.N,Net-(U25-Pad2)*%
X264160000Y-161290000D03*
%TO.P,U26,3*%
%TO.N,GND*%
X261620000Y-161290000D03*
%TO.P,U26,4*%
%TO.N,unconnected-(U26-Pad4)*%
X259080000Y-161290000D03*
%TO.P,U26,5*%
%TO.N,GND*%
X256540000Y-161290000D03*
%TO.P,U26,6*%
%TO.N,unconnected-(U26-Pad6)*%
X254000000Y-161290000D03*
%TO.P,U26,7,GND*%
%TO.N,GND*%
X251460000Y-161290000D03*
%TO.P,U26,8*%
%TO.N,unconnected-(U26-Pad8)*%
X251460000Y-168910000D03*
%TO.P,U26,9*%
%TO.N,GND*%
X254000000Y-168910000D03*
%TO.P,U26,10*%
%TO.N,unconnected-(U26-Pad10)*%
X256540000Y-168910000D03*
%TO.P,U26,11*%
%TO.N,GND*%
X259080000Y-168910000D03*
%TO.P,U26,12*%
%TO.N,unconnected-(U26-Pad12)*%
X261620000Y-168910000D03*
%TO.P,U26,13*%
%TO.N,GND*%
X264160000Y-168910000D03*
%TO.P,U26,14,Vcc*%
%TO.N,+5V*%
X266700000Y-168910000D03*
%TD*%
D14*
%TO.P,C21,1*%
%TO.N,+5V*%
X315575000Y-32980000D03*
%TO.P,C21,2*%
%TO.N,GND*%
X315575000Y-30480000D03*
%TD*%
%TO.P,R5,1*%
%TO.N,Net-(D35-K)*%
X262255000Y-204475000D03*
D13*
%TO.P,R5,2*%
%TO.N,GND*%
X262255000Y-214635000D03*
%TD*%
D14*
%TO.P,R8,1*%
%TO.N,Net-(D2-K)*%
X186640000Y-177830000D03*
D13*
%TO.P,R8,2*%
%TO.N,GND*%
X176480000Y-177830000D03*
%TD*%
D12*
%TO.P,U1,1,~{CLR}*%
%TO.N,CLR*%
X207645000Y-80645000D03*
D13*
%TO.P,U1,2,CLK*%
%TO.N,CLK*%
X207645000Y-78105000D03*
%TO.P,U1,3,P0*%
%TO.N,Y0*%
X207645000Y-75565000D03*
%TO.P,U1,4,P1*%
%TO.N,Y1*%
X207645000Y-73025000D03*
%TO.P,U1,5,P2*%
%TO.N,Y2*%
X207645000Y-70485000D03*
%TO.P,U1,6,P3*%
%TO.N,Y3*%
X207645000Y-67945000D03*
%TO.P,U1,7,ENP*%
%TO.N,GND*%
X207645000Y-65405000D03*
%TO.P,U1,8,GND*%
X207645000Y-62865000D03*
%TO.P,U1,9,~{LOAD}*%
%TO.N,LD0*%
X200025000Y-62865000D03*
%TO.P,U1,10,ENT*%
%TO.N,GND*%
X200025000Y-65405000D03*
%TO.P,U1,11,Q3*%
%TO.N,R03*%
X200025000Y-67945000D03*
%TO.P,U1,12,Q2*%
%TO.N,R02*%
X200025000Y-70485000D03*
%TO.P,U1,13,Q1*%
%TO.N,R01*%
X200025000Y-73025000D03*
%TO.P,U1,14,Q0*%
%TO.N,R00*%
X200025000Y-75565000D03*
%TO.P,U1,15,CO*%
%TO.N,unconnected-(U1A-CO-Pad15)*%
X200025000Y-78105000D03*
%TO.P,U1,16,Vcc*%
%TO.N,+5V*%
X200025000Y-80645000D03*
%TD*%
D10*
%TO.P,D3,1,K*%
%TO.N,Net-(D3-K)*%
X189180000Y-184180000D03*
D11*
%TO.P,D3,2,A*%
%TO.N,Net-(D3-A)*%
X191720000Y-184180000D03*
%TD*%
D10*
%TO.P,D30,1,K*%
%TO.N,Net-(D30-K)*%
X189235000Y-80010000D03*
D11*
%TO.P,D30,2,A*%
%TO.N,R00*%
X191775000Y-80010000D03*
%TD*%
D14*
%TO.P,C4,1*%
%TO.N,+5V*%
X202575000Y-90170000D03*
%TO.P,C4,2*%
%TO.N,GND*%
X205075000Y-90170000D03*
%TD*%
%TO.P,R29,1*%
%TO.N,Net-(D23-K)*%
X185420000Y-135245000D03*
D13*
%TO.P,R29,2*%
%TO.N,GND*%
X175260000Y-135245000D03*
%TD*%
D14*
%TO.P,C12,1*%
%TO.N,+5V*%
X217170000Y-188555000D03*
%TO.P,C12,2*%
%TO.N,GND*%
X217170000Y-186055000D03*
%TD*%
%TO.P,C22,1*%
%TO.N,+5V*%
X286385000Y-133215000D03*
%TO.P,C22,2*%
%TO.N,GND*%
X286385000Y-130715000D03*
%TD*%
D10*
%TO.P,D2,1,K*%
%TO.N,Net-(D2-K)*%
X189180000Y-177830000D03*
D11*
%TO.P,D2,2,A*%
%TO.N,Net-(D2-A)*%
X191720000Y-177830000D03*
%TD*%
D12*
%TO.P,U8,1,~{CLR}*%
%TO.N,CLR*%
X265440000Y-113020000D03*
D13*
%TO.P,U8,2,CLK*%
%TO.N,CLK*%
X265440000Y-110480000D03*
%TO.P,U8,3,P0*%
%TO.N,Y4*%
X265440000Y-107940000D03*
%TO.P,U8,4,P1*%
%TO.N,Y5*%
X265440000Y-105400000D03*
%TO.P,U8,5,P2*%
%TO.N,unconnected-(U8A-P2-Pad5)*%
X265440000Y-102860000D03*
%TO.P,U8,6,P3*%
%TO.N,unconnected-(U8A-P3-Pad6)*%
X265440000Y-100320000D03*
%TO.P,U8,7,ENP*%
%TO.N,GND*%
X265440000Y-97780000D03*
%TO.P,U8,8,GND*%
X265440000Y-95240000D03*
%TO.P,U8,9,~{LOAD}*%
%TO.N,LD3*%
X257820000Y-95240000D03*
%TO.P,U8,10,ENT*%
%TO.N,GND*%
X257820000Y-97780000D03*
%TO.P,U8,11,Q3*%
%TO.N,unconnected-(U8A-Q3-Pad11)*%
X257820000Y-100320000D03*
%TO.P,U8,12,Q2*%
%TO.N,unconnected-(U8A-Q2-Pad12)*%
X257820000Y-102860000D03*
%TO.P,U8,13,Q1*%
%TO.N,R35*%
X257820000Y-105400000D03*
%TO.P,U8,14,Q0*%
%TO.N,R34*%
X257820000Y-107940000D03*
%TO.P,U8,15,CO*%
%TO.N,unconnected-(U8A-CO-Pad15)*%
X257820000Y-110480000D03*
%TO.P,U8,16,Vcc*%
%TO.N,+5V*%
X257820000Y-113020000D03*
%TD*%
D12*
%TO.P,U15,1,I3*%
%TO.N,R32*%
X338455000Y-74890000D03*
D13*
%TO.P,U15,2,I2*%
%TO.N,R22*%
X335915000Y-74890000D03*
%TO.P,U15,3,I1*%
%TO.N,R12*%
X333375000Y-74890000D03*
%TO.P,U15,4,I0*%
%TO.N,R02*%
X330835000Y-74890000D03*
%TO.P,U15,5,Y*%
%TO.N,A2*%
X328295000Y-74890000D03*
%TO.P,U15,6,~{Y}*%
%TO.N,unconnected-(U15A-~{Y}-Pad6)*%
X325755000Y-74890000D03*
%TO.P,U15,7,~{E}*%
%TO.N,GND*%
X323215000Y-74890000D03*
%TO.P,U15,8,GND*%
X320675000Y-74890000D03*
%TO.P,U15,9,S2*%
%TO.N,sela2*%
X320675000Y-82510000D03*
%TO.P,U15,10,S1*%
%TO.N,sela1*%
X323215000Y-82510000D03*
%TO.P,U15,11,S0*%
%TO.N,sela0*%
X325755000Y-82510000D03*
%TO.P,U15,12,I7*%
%TO.N,unconnected-(U15A-I7-Pad12)*%
X328295000Y-82510000D03*
%TO.P,U15,13,I6*%
%TO.N,GND*%
X330835000Y-82510000D03*
%TO.P,U15,14,I5*%
%TO.N,Im2*%
X333375000Y-82510000D03*
%TO.P,U15,15,I4*%
%TO.N,Ip2*%
X335915000Y-82510000D03*
%TO.P,U15,16,Vcc*%
%TO.N,+5V*%
X338455000Y-82510000D03*
%TD*%
%TO.P,U7,16,Vcc*%
%TO.N,+5V*%
X257820000Y-142230000D03*
%TO.P,U7,15,CO*%
%TO.N,unconnected-(U7A-CO-Pad15)*%
X257820000Y-139690000D03*
%TO.P,U7,14,Q0*%
%TO.N,R30*%
X257820000Y-137150000D03*
%TO.P,U7,13,Q1*%
%TO.N,R31*%
X257820000Y-134610000D03*
%TO.P,U7,12,Q2*%
%TO.N,R32*%
X257820000Y-132070000D03*
%TO.P,U7,11,Q3*%
%TO.N,R33*%
X257820000Y-129530000D03*
%TO.P,U7,10,ENT*%
%TO.N,GND*%
X257820000Y-126990000D03*
%TO.P,U7,9,~{LOAD}*%
%TO.N,LD3*%
X257820000Y-124450000D03*
%TO.P,U7,8,GND*%
%TO.N,GND*%
X265440000Y-124450000D03*
%TO.P,U7,7,ENP*%
X265440000Y-126990000D03*
%TO.P,U7,6,P3*%
%TO.N,Y3*%
X265440000Y-129530000D03*
%TO.P,U7,5,P2*%
%TO.N,Y2*%
X265440000Y-132070000D03*
%TO.P,U7,4,P1*%
%TO.N,Y1*%
X265440000Y-134610000D03*
%TO.P,U7,3,P0*%
%TO.N,Y0*%
X265440000Y-137150000D03*
%TO.P,U7,2,CLK*%
%TO.N,CLK*%
X265440000Y-139690000D03*
D12*
%TO.P,U7,1,~{CLR}*%
%TO.N,CLR*%
X265440000Y-142230000D03*
%TD*%
D14*
%TO.P,C14,1*%
%TO.N,+5V*%
X219710000Y-166350000D03*
%TO.P,C14,2*%
%TO.N,GND*%
X219710000Y-163850000D03*
%TD*%
D10*
%TO.P,D19,1,K*%
%TO.N,Net-(D19-K)*%
X189225000Y-109845000D03*
D11*
%TO.P,D19,2,A*%
%TO.N,R15*%
X191765000Y-109845000D03*
%TD*%
D12*
%TO.P,U17,1,I3*%
%TO.N,R34*%
X309265000Y-51435000D03*
D13*
%TO.P,U17,2,I2*%
%TO.N,R24*%
X306725000Y-51435000D03*
%TO.P,U17,3,I1*%
%TO.N,R14*%
X304185000Y-51435000D03*
%TO.P,U17,4,I0*%
%TO.N,R04*%
X301645000Y-51435000D03*
%TO.P,U17,5,Y*%
%TO.N,A4*%
X299105000Y-51435000D03*
%TO.P,U17,6,~{Y}*%
%TO.N,unconnected-(U17A-~{Y}-Pad6)*%
X296565000Y-51435000D03*
%TO.P,U17,7,~{E}*%
%TO.N,GND*%
X294025000Y-51435000D03*
%TO.P,U17,8,GND*%
X291485000Y-51435000D03*
%TO.P,U17,9,S2*%
%TO.N,sela2*%
X291485000Y-59055000D03*
%TO.P,U17,10,S1*%
%TO.N,sela1*%
X294025000Y-59055000D03*
%TO.P,U17,11,S0*%
%TO.N,sela0*%
X296565000Y-59055000D03*
%TO.P,U17,12,I7*%
%TO.N,unconnected-(U17A-I7-Pad12)*%
X299105000Y-59055000D03*
%TO.P,U17,13,I6*%
%TO.N,GND*%
X301645000Y-59055000D03*
%TO.P,U17,14,I5*%
%TO.N,Im4*%
X304185000Y-59055000D03*
%TO.P,U17,15,I4*%
%TO.N,Ip4*%
X306725000Y-59055000D03*
%TO.P,U17,16,Vcc*%
%TO.N,+5V*%
X309265000Y-59055000D03*
%TD*%
D14*
%TO.P,C5,1*%
%TO.N,+5V*%
X260400000Y-57775000D03*
%TO.P,C5,2*%
%TO.N,GND*%
X262900000Y-57775000D03*
%TD*%
%TO.P,R48,1*%
%TO.N,+5V*%
X217170000Y-191770000D03*
D13*
%TO.P,R48,2*%
%TO.N,Net-(D42-A)*%
X217170000Y-201930000D03*
%TD*%
D12*
%TO.P,U14,1,I3*%
%TO.N,R31*%
X338465000Y-51395000D03*
D13*
%TO.P,U14,2,I2*%
%TO.N,R21*%
X335925000Y-51395000D03*
%TO.P,U14,3,I1*%
%TO.N,R11*%
X333385000Y-51395000D03*
%TO.P,U14,4,I0*%
%TO.N,R01*%
X330845000Y-51395000D03*
%TO.P,U14,5,Y*%
%TO.N,A1*%
X328305000Y-51395000D03*
%TO.P,U14,6,~{Y}*%
%TO.N,unconnected-(U14A-~{Y}-Pad6)*%
X325765000Y-51395000D03*
%TO.P,U14,7,~{E}*%
%TO.N,GND*%
X323225000Y-51395000D03*
%TO.P,U14,8,GND*%
X320685000Y-51395000D03*
%TO.P,U14,9,S2*%
%TO.N,sela2*%
X320685000Y-59015000D03*
%TO.P,U14,10,S1*%
%TO.N,sela1*%
X323225000Y-59015000D03*
%TO.P,U14,11,S0*%
%TO.N,sela0*%
X325765000Y-59015000D03*
%TO.P,U14,12,I7*%
%TO.N,unconnected-(U14A-I7-Pad12)*%
X328305000Y-59015000D03*
%TO.P,U14,13,I6*%
%TO.N,GND*%
X330845000Y-59015000D03*
%TO.P,U14,14,I5*%
%TO.N,Im1*%
X333385000Y-59015000D03*
%TO.P,U14,15,I4*%
%TO.N,Ip1*%
X335925000Y-59015000D03*
%TO.P,U14,16,Vcc*%
%TO.N,+5V*%
X338465000Y-59015000D03*
%TD*%
D14*
%TO.P,C1,1*%
%TO.N,+5V*%
X202565000Y-57785000D03*
%TO.P,C1,2*%
%TO.N,GND*%
X205065000Y-57785000D03*
%TD*%
%TO.P,R10,1*%
%TO.N,Net-(D4-K)*%
X186640000Y-190530000D03*
D13*
%TO.P,R10,2*%
%TO.N,GND*%
X176480000Y-190530000D03*
%TD*%
D14*
%TO.P,C11,1*%
%TO.N,+5V*%
X246380000Y-188555000D03*
%TO.P,C11,2*%
%TO.N,GND*%
X246380000Y-186055000D03*
%TD*%
D10*
%TO.P,D27,1,K*%
%TO.N,Net-(D27-K)*%
X189235000Y-60960000D03*
D11*
%TO.P,D27,2,A*%
%TO.N,R03*%
X191775000Y-60960000D03*
%TD*%
D14*
%TO.P,R24,1*%
%TO.N,Net-(D18-K)*%
X243215000Y-80000000D03*
D13*
%TO.P,R24,2*%
%TO.N,GND*%
X233055000Y-80000000D03*
%TD*%
D10*
%TO.P,D4,1,K*%
%TO.N,Net-(D4-K)*%
X189180000Y-190530000D03*
D11*
%TO.P,D4,2,A*%
%TO.N,Net-(D4-A)*%
X191720000Y-190530000D03*
%TD*%
D14*
%TO.P,C26,1*%
%TO.N,+5V*%
X315575000Y-109815000D03*
%TO.P,C26,2*%
%TO.N,GND*%
X315575000Y-107315000D03*
%TD*%
%TO.P,R51,1*%
%TO.N,Net-(D45-K)*%
X357505000Y-163195000D03*
D13*
%TO.P,R51,2*%
%TO.N,GND*%
X367665000Y-163195000D03*
%TD*%
D10*
%TO.P,D16,1,K*%
%TO.N,Net-(D16-K)*%
X247035000Y-67310000D03*
D11*
%TO.P,D16,2,A*%
%TO.N,R22*%
X249575000Y-67310000D03*
%TD*%
D12*
%TO.P,U2,1,~{CLR}*%
%TO.N,CLR*%
X207635000Y-51445000D03*
D13*
%TO.P,U2,2,CLK*%
%TO.N,CLK*%
X207635000Y-48905000D03*
%TO.P,U2,3,P0*%
%TO.N,Y4*%
X207635000Y-46365000D03*
%TO.P,U2,4,P1*%
%TO.N,Y5*%
X207635000Y-43825000D03*
%TO.P,U2,5,P2*%
%TO.N,unconnected-(U2A-P2-Pad5)*%
X207635000Y-41285000D03*
%TO.P,U2,6,P3*%
%TO.N,unconnected-(U2A-P3-Pad6)*%
X207635000Y-38745000D03*
%TO.P,U2,7,ENP*%
%TO.N,GND*%
X207635000Y-36205000D03*
%TO.P,U2,8,GND*%
X207635000Y-33665000D03*
%TO.P,U2,9,~{LOAD}*%
%TO.N,LD0*%
X200015000Y-33665000D03*
%TO.P,U2,10,ENT*%
%TO.N,GND*%
X200015000Y-36205000D03*
%TO.P,U2,11,Q3*%
%TO.N,unconnected-(U2A-Q3-Pad11)*%
X200015000Y-38745000D03*
%TO.P,U2,12,Q2*%
%TO.N,unconnected-(U2A-Q2-Pad12)*%
X200015000Y-41285000D03*
%TO.P,U2,13,Q1*%
%TO.N,R05*%
X200015000Y-43825000D03*
%TO.P,U2,14,Q0*%
%TO.N,R04*%
X200015000Y-46365000D03*
%TO.P,U2,15,CO*%
%TO.N,unconnected-(U2A-CO-Pad15)*%
X200015000Y-48905000D03*
%TO.P,U2,16,Vcc*%
%TO.N,+5V*%
X200015000Y-51445000D03*
%TD*%
D14*
%TO.P,R32,1*%
%TO.N,Net-(D26-K)*%
X185420000Y-54610000D03*
D13*
%TO.P,R32,2*%
%TO.N,GND*%
X175260000Y-54610000D03*
%TD*%
D12*
%TO.P,U12,1,~{CLR}*%
%TO.N,Net-(U12A-~{CLR})*%
X240030000Y-183515000D03*
D13*
%TO.P,U12,2,CLK*%
%TO.N,CLK*%
X237490000Y-183515000D03*
%TO.P,U12,3,P0*%
%TO.N,Y4*%
X234950000Y-183515000D03*
%TO.P,U12,4,P1*%
%TO.N,Y5*%
X232410000Y-183515000D03*
%TO.P,U12,5,P2*%
%TO.N,unconnected-(U12A-P2-Pad5)*%
X229870000Y-183515000D03*
%TO.P,U12,6,P3*%
%TO.N,unconnected-(U12A-P3-Pad6)*%
X227330000Y-183515000D03*
%TO.P,U12,7,ENP*%
%TO.N,Net-(U11A-CO)*%
X224790000Y-183515000D03*
%TO.P,U12,8,GND*%
%TO.N,GND*%
X222250000Y-183515000D03*
%TO.P,U12,9,~{LOAD}*%
%TO.N,LDpc*%
X222250000Y-191135000D03*
%TO.P,U12,10,ENT*%
%TO.N,Net-(U11A-CO)*%
X224790000Y-191135000D03*
%TO.P,U12,11,Q3*%
%TO.N,unconnected-(U12A-Q3-Pad11)*%
X227330000Y-191135000D03*
%TO.P,U12,12,Q2*%
%TO.N,unconnected-(U12A-Q2-Pad12)*%
X229870000Y-191135000D03*
%TO.P,U12,13,Q1*%
%TO.N,pc5*%
X232410000Y-191135000D03*
%TO.P,U12,14,Q0*%
%TO.N,pc4*%
X234950000Y-191135000D03*
%TO.P,U12,15,CO*%
%TO.N,unconnected-(U12A-CO-Pad15)*%
X237490000Y-191135000D03*
%TO.P,U12,16,Vcc*%
%TO.N,+5V*%
X240030000Y-191135000D03*
%TD*%
D10*
%TO.P,D47,1,K*%
%TO.N,Net-(D47-K)*%
X350520000Y-194310000D03*
D11*
%TO.P,D47,2,A*%
%TO.N,selb1*%
X347980000Y-194310000D03*
%TD*%
D14*
%TO.P,R40,1*%
%TO.N,Ip2*%
X304800000Y-200914000D03*
D13*
%TO.P,R40,2*%
%TO.N,GND*%
X314960000Y-200914000D03*
%TD*%
D14*
%TO.P,R18,1*%
%TO.N,Net-(D12-K)*%
X243215000Y-141595000D03*
D13*
%TO.P,R18,2*%
%TO.N,GND*%
X233055000Y-141595000D03*
%TD*%
D10*
%TO.P,D25,1,K*%
%TO.N,Net-(D25-K)*%
X189235000Y-48260000D03*
D11*
%TO.P,D25,2,A*%
%TO.N,R05*%
X191775000Y-48260000D03*
%TD*%
D14*
%TO.P,R7,1*%
%TO.N,Net-(D1-K)*%
X186640000Y-171480000D03*
D13*
%TO.P,R7,2*%
%TO.N,GND*%
X176480000Y-171480000D03*
%TD*%
D12*
%TO.P,U24,1,I3*%
%TO.N,R35*%
X309275000Y-151765000D03*
D13*
%TO.P,U24,2,I2*%
%TO.N,R25*%
X306735000Y-151765000D03*
%TO.P,U24,3,I1*%
%TO.N,R15*%
X304195000Y-151765000D03*
%TO.P,U24,4,I0*%
%TO.N,R05*%
X301655000Y-151765000D03*
%TO.P,U24,5,Y*%
%TO.N,B5*%
X299115000Y-151765000D03*
%TO.P,U24,6,~{Y}*%
%TO.N,unconnected-(U24A-~{Y}-Pad6)*%
X296575000Y-151765000D03*
%TO.P,U24,7,~{E}*%
%TO.N,GND*%
X294035000Y-151765000D03*
%TO.P,U24,8,GND*%
X291495000Y-151765000D03*
%TO.P,U24,9,S2*%
%TO.N,selb2*%
X291495000Y-159385000D03*
%TO.P,U24,10,S1*%
%TO.N,selb1*%
X294035000Y-159385000D03*
%TO.P,U24,11,S0*%
%TO.N,selb0*%
X296575000Y-159385000D03*
%TO.P,U24,12,I7*%
%TO.N,unconnected-(U24A-I7-Pad12)*%
X299115000Y-159385000D03*
%TO.P,U24,13,I6*%
%TO.N,GND*%
X301655000Y-159385000D03*
%TO.P,U24,14,I5*%
%TO.N,Im5*%
X304195000Y-159385000D03*
%TO.P,U24,15,I4*%
%TO.N,Ip5*%
X306735000Y-159385000D03*
%TO.P,U24,16,Vcc*%
%TO.N,+5V*%
X309275000Y-159385000D03*
%TD*%
D14*
%TO.P,R19,1*%
%TO.N,Net-(D13-K)*%
X243215000Y-48250000D03*
D13*
%TO.P,R19,2*%
%TO.N,GND*%
X233055000Y-48250000D03*
%TD*%
D10*
%TO.P,D15,1,K*%
%TO.N,Net-(D15-K)*%
X247035000Y-60960000D03*
D11*
%TO.P,D15,2,A*%
%TO.N,R23*%
X249575000Y-60960000D03*
%TD*%
D14*
%TO.P,C2,1*%
%TO.N,+5V*%
X202605000Y-28575000D03*
%TO.P,C2,2*%
%TO.N,GND*%
X205105000Y-28575000D03*
%TD*%
%TO.P,C9,1*%
%TO.N,+5V*%
X202565000Y-180995000D03*
%TO.P,C9,2*%
%TO.N,GND*%
X205065000Y-180995000D03*
%TD*%
D10*
%TO.P,D31,1,K*%
%TO.N,Net-(D31-K)*%
X236855000Y-201935000D03*
D11*
%TO.P,D31,2,A*%
%TO.N,pc5*%
X236855000Y-199395000D03*
%TD*%
D14*
%TO.P,R31,1*%
%TO.N,Net-(D25-K)*%
X185420000Y-48260000D03*
D13*
%TO.P,R31,2*%
%TO.N,GND*%
X175260000Y-48260000D03*
%TD*%
D10*
%TO.P,D45,1,K*%
%TO.N,Net-(D45-K)*%
X350520000Y-163500000D03*
D11*
%TO.P,D45,2,A*%
%TO.N,sela0*%
X347980000Y-163500000D03*
%TD*%
D14*
%TO.P,C15,1*%
%TO.N,+5V*%
X286405000Y-156835000D03*
%TO.P,C15,2*%
%TO.N,GND*%
X286405000Y-154335000D03*
%TD*%
D12*
%TO.P,U23,1,I3*%
%TO.N,R34*%
X309255000Y-128145000D03*
D13*
%TO.P,U23,2,I2*%
%TO.N,R24*%
X306715000Y-128145000D03*
%TO.P,U23,3,I1*%
%TO.N,R14*%
X304175000Y-128145000D03*
%TO.P,U23,4,I0*%
%TO.N,R04*%
X301635000Y-128145000D03*
%TO.P,U23,5,Y*%
%TO.N,B4*%
X299095000Y-128145000D03*
%TO.P,U23,6,~{Y}*%
%TO.N,unconnected-(U23A-~{Y}-Pad6)*%
X296555000Y-128145000D03*
%TO.P,U23,7,~{E}*%
%TO.N,GND*%
X294015000Y-128145000D03*
%TO.P,U23,8,GND*%
X291475000Y-128145000D03*
%TO.P,U23,9,S2*%
%TO.N,selb2*%
X291475000Y-135765000D03*
%TO.P,U23,10,S1*%
%TO.N,selb1*%
X294015000Y-135765000D03*
%TO.P,U23,11,S0*%
%TO.N,selb0*%
X296555000Y-135765000D03*
%TO.P,U23,12,I7*%
%TO.N,unconnected-(U23A-I7-Pad12)*%
X299095000Y-135765000D03*
%TO.P,U23,13,I6*%
%TO.N,GND*%
X301635000Y-135765000D03*
%TO.P,U23,14,I5*%
%TO.N,Im4*%
X304175000Y-135765000D03*
%TO.P,U23,15,I4*%
%TO.N,Ip4*%
X306715000Y-135765000D03*
%TO.P,U23,16,Vcc*%
%TO.N,+5V*%
X309255000Y-135765000D03*
%TD*%
D14*
%TO.P,R41,1*%
%TO.N,Ip1*%
X304800000Y-205740000D03*
D13*
%TO.P,R41,2*%
%TO.N,GND*%
X314960000Y-205740000D03*
%TD*%
D10*
%TO.P,D24,1,K*%
%TO.N,Net-(D24-K)*%
X189230000Y-141595000D03*
D11*
%TO.P,D24,2,A*%
%TO.N,R10*%
X191770000Y-141595000D03*
%TD*%
D10*
%TO.P,D13,1,K*%
%TO.N,Net-(D13-K)*%
X247035000Y-48260000D03*
D11*
%TO.P,D13,2,A*%
%TO.N,R25*%
X249575000Y-48260000D03*
%TD*%
D14*
%TO.P,R3,1*%
%TO.N,Net-(D33-K)*%
X249555000Y-204475000D03*
D13*
%TO.P,R3,2*%
%TO.N,GND*%
X249555000Y-214635000D03*
%TD*%
D14*
%TO.P,R45,1*%
%TO.N,+5V*%
X243220000Y-28575000D03*
D13*
%TO.P,R45,2*%
%TO.N,Net-(D39-A)*%
X233060000Y-28575000D03*
%TD*%
D14*
%TO.P,C6,1*%
%TO.N,+5V*%
X260390000Y-28575000D03*
%TO.P,C6,2*%
%TO.N,GND*%
X262890000Y-28575000D03*
%TD*%
%TO.P,R28,1*%
%TO.N,Net-(D22-K)*%
X185420000Y-128895000D03*
D13*
%TO.P,R28,2*%
%TO.N,GND*%
X175260000Y-128895000D03*
%TD*%
D14*
%TO.P,R21,1*%
%TO.N,Net-(D15-K)*%
X243215000Y-60950000D03*
D13*
%TO.P,R21,2*%
%TO.N,GND*%
X233055000Y-60950000D03*
%TD*%
D12*
%TO.P,U19,1,I3*%
%TO.N,R30*%
X338445000Y-104775000D03*
D13*
%TO.P,U19,2,I2*%
%TO.N,R20*%
X335905000Y-104775000D03*
%TO.P,U19,3,I1*%
%TO.N,R10*%
X333365000Y-104775000D03*
%TO.P,U19,4,I0*%
%TO.N,R00*%
X330825000Y-104775000D03*
%TO.P,U19,5,Y*%
%TO.N,B0*%
X328285000Y-104775000D03*
%TO.P,U19,6,~{Y}*%
%TO.N,unconnected-(U19A-~{Y}-Pad6)*%
X325745000Y-104775000D03*
%TO.P,U19,7,~{E}*%
%TO.N,GND*%
X323205000Y-104775000D03*
%TO.P,U19,8,GND*%
X320665000Y-104775000D03*
%TO.P,U19,9,S2*%
%TO.N,selb2*%
X320665000Y-112395000D03*
%TO.P,U19,10,S1*%
%TO.N,selb1*%
X323205000Y-112395000D03*
%TO.P,U19,11,S0*%
%TO.N,selb0*%
X325745000Y-112395000D03*
%TO.P,U19,12,I7*%
%TO.N,unconnected-(U19A-I7-Pad12)*%
X328285000Y-112395000D03*
%TO.P,U19,13,I6*%
%TO.N,GND*%
X330825000Y-112395000D03*
%TO.P,U19,14,I5*%
%TO.N,Im0*%
X333365000Y-112395000D03*
%TO.P,U19,15,I4*%
%TO.N,Ip0*%
X335905000Y-112395000D03*
%TO.P,U19,16,Vcc*%
%TO.N,+5V*%
X338445000Y-112395000D03*
%TD*%
D10*
%TO.P,D20,1,K*%
%TO.N,Net-(D20-K)*%
X189225000Y-116195000D03*
D11*
%TO.P,D20,2,A*%
%TO.N,R14*%
X191765000Y-116195000D03*
%TD*%
D14*
%TO.P,R22,1*%
%TO.N,Net-(D16-K)*%
X243215000Y-67300000D03*
D13*
%TO.P,R22,2*%
%TO.N,GND*%
X233055000Y-67300000D03*
%TD*%
D10*
%TO.P,D5,1,K*%
%TO.N,Net-(D5-K)*%
X189180000Y-196880000D03*
D11*
%TO.P,D5,2,A*%
%TO.N,Net-(D5-A)*%
X191720000Y-196880000D03*
%TD*%
D15*
%TO.P,J2,1,Pin_1*%
%TO.N,A0*%
X358368600Y-106908600D03*
D16*
%TO.P,J2,2,Pin_2*%
%TO.N,A1*%
X360908600Y-106908600D03*
%TO.P,J2,3,Pin_3*%
%TO.N,A2*%
X358368600Y-109448600D03*
%TO.P,J2,4,Pin_4*%
%TO.N,A3*%
X360908600Y-109448600D03*
%TO.P,J2,5,Pin_5*%
%TO.N,A4*%
X358368600Y-111988600D03*
%TO.P,J2,6,Pin_6*%
%TO.N,A5*%
X360908600Y-111988600D03*
%TO.P,J2,7,Pin_7*%
%TO.N,B0*%
X358368600Y-114528600D03*
%TO.P,J2,8,Pin_8*%
%TO.N,B1*%
X360908600Y-114528600D03*
%TO.P,J2,9,Pin_9*%
%TO.N,B2*%
X358368600Y-117068600D03*
%TO.P,J2,10,Pin_10*%
%TO.N,B3*%
X360908600Y-117068600D03*
%TO.P,J2,11,Pin_11*%
%TO.N,B4*%
X358368600Y-119608600D03*
%TO.P,J2,12,Pin_12*%
%TO.N,B5*%
X360908600Y-119608600D03*
%TO.P,J2,13,Pin_13*%
%TO.N,pc0*%
X358368600Y-122148600D03*
%TO.P,J2,14,Pin_14*%
%TO.N,pc1*%
X360908600Y-122148600D03*
%TO.P,J2,15,Pin_15*%
%TO.N,pc2*%
X358368600Y-124688600D03*
%TO.P,J2,16,Pin_16*%
%TO.N,pc3*%
X360908600Y-124688600D03*
%TO.P,J2,17,Pin_17*%
%TO.N,pc4*%
X358368600Y-127228600D03*
%TO.P,J2,18,Pin_18*%
%TO.N,pc5*%
X360908600Y-127228600D03*
%TO.P,J2,19,Pin_19*%
%TO.N,unconnected-(J2-Pin_19-Pad19)*%
X358368600Y-129768600D03*
%TO.P,J2,20,Pin_20*%
%TO.N,unconnected-(J2-Pin_20-Pad20)*%
X360908600Y-129768600D03*
%TO.P,J2,21,Pin_21*%
%TO.N,unconnected-(J2-Pin_21-Pad21)*%
X358368600Y-132308600D03*
%TO.P,J2,22,Pin_22*%
%TO.N,unconnected-(J2-Pin_22-Pad22)*%
X360908600Y-132308600D03*
%TO.P,J2,23,Pin_23*%
%TO.N,unconnected-(J2-Pin_23-Pad23)*%
X358368600Y-134848600D03*
%TO.P,J2,24,Pin_24*%
%TO.N,unconnected-(J2-Pin_24-Pad24)*%
X360908600Y-134848600D03*
%TO.P,J2,25,Pin_25*%
%TO.N,unconnected-(J2-Pin_25-Pad25)*%
X358368600Y-137388600D03*
%TO.P,J2,26,Pin_26*%
%TO.N,unconnected-(J2-Pin_26-Pad26)*%
X360908600Y-137388600D03*
%TO.P,J2,27,Pin_27*%
%TO.N,unconnected-(J2-Pin_27-Pad27)*%
X358368600Y-139928600D03*
%TO.P,J2,28,Pin_28*%
%TO.N,unconnected-(J2-Pin_28-Pad28)*%
X360908600Y-139928600D03*
%TO.P,J2,29,Pin_29*%
%TO.N,unconnected-(J2-Pin_29-Pad29)*%
X358368600Y-142468600D03*
%TO.P,J2,30,Pin_30*%
%TO.N,unconnected-(J2-Pin_30-Pad30)*%
X360908600Y-142468600D03*
%TO.P,J2,31,Pin_31*%
%TO.N,unconnected-(J2-Pin_31-Pad31)*%
X358368600Y-145008600D03*
%TO.P,J2,32,Pin_32*%
%TO.N,unconnected-(J2-Pin_32-Pad32)*%
X360908600Y-145008600D03*
%TO.P,J2,33,Pin_33*%
%TO.N,unconnected-(J2-Pin_33-Pad33)*%
X358368600Y-147548600D03*
%TO.P,J2,34,Pin_34*%
%TO.N,unconnected-(J2-Pin_34-Pad34)*%
X360908600Y-147548600D03*
%TD*%
D10*
%TO.P,D23,1,K*%
%TO.N,Net-(D23-K)*%
X189230000Y-135245000D03*
D11*
%TO.P,D23,2,A*%
%TO.N,R11*%
X191770000Y-135245000D03*
%TD*%
D14*
%TO.P,R44,1*%
%TO.N,+5V*%
X185420000Y-90160000D03*
D13*
%TO.P,R44,2*%
%TO.N,Net-(D38-A)*%
X175260000Y-90160000D03*
%TD*%
D12*
%TO.P,U25,1*%
%TO.N,CLR*%
X240030000Y-161300000D03*
D13*
%TO.P,U25,2*%
%TO.N,Net-(U25-Pad2)*%
X237490000Y-161300000D03*
%TO.P,U25,3*%
%TO.N,Net-(U12A-~{CLR})*%
X234950000Y-161300000D03*
%TO.P,U25,4*%
%TO.N,GND*%
X232410000Y-161300000D03*
%TO.P,U25,5*%
X229870000Y-161300000D03*
%TO.P,U25,6*%
%TO.N,unconnected-(U25-Pad6)*%
X227330000Y-161300000D03*
%TO.P,U25,7,GND*%
%TO.N,GND*%
X224790000Y-161300000D03*
%TO.P,U25,8*%
%TO.N,unconnected-(U25-Pad8)*%
X224790000Y-168920000D03*
%TO.P,U25,9*%
%TO.N,GND*%
X227330000Y-168920000D03*
%TO.P,U25,10*%
X229870000Y-168920000D03*
%TO.P,U25,11*%
%TO.N,unconnected-(U25-Pad11)*%
X232410000Y-168920000D03*
%TO.P,U25,12*%
%TO.N,GND*%
X234950000Y-168920000D03*
%TO.P,U25,13*%
X237490000Y-168920000D03*
%TO.P,U25,14,Vcc*%
%TO.N,+5V*%
X240030000Y-168920000D03*
%TD*%
D12*
%TO.P,U11,1,~{CLR}*%
%TO.N,CLR*%
X269240000Y-183515000D03*
D13*
%TO.P,U11,2,CLK*%
%TO.N,CLK*%
X266700000Y-183515000D03*
%TO.P,U11,3,P0*%
%TO.N,Y0*%
X264160000Y-183515000D03*
%TO.P,U11,4,P1*%
%TO.N,Y1*%
X261620000Y-183515000D03*
%TO.P,U11,5,P2*%
%TO.N,Y2*%
X259080000Y-183515000D03*
%TO.P,U11,6,P3*%
%TO.N,Y3*%
X256540000Y-183515000D03*
%TO.P,U11,7,ENP*%
%TO.N,+5V*%
X254000000Y-183515000D03*
%TO.P,U11,8,GND*%
%TO.N,GND*%
X251460000Y-183515000D03*
%TO.P,U11,9,~{LOAD}*%
%TO.N,LDpc*%
X251460000Y-191135000D03*
%TO.P,U11,10,ENT*%
%TO.N,+5V*%
X254000000Y-191135000D03*
%TO.P,U11,11,Q3*%
%TO.N,pc3*%
X256540000Y-191135000D03*
%TO.P,U11,12,Q2*%
%TO.N,pc2*%
X259080000Y-191135000D03*
%TO.P,U11,13,Q1*%
%TO.N,pc1*%
X261620000Y-191135000D03*
%TO.P,U11,14,Q0*%
%TO.N,pc0*%
X264160000Y-191135000D03*
%TO.P,U11,15,CO*%
%TO.N,Net-(U11A-CO)*%
X266700000Y-191135000D03*
%TO.P,U11,16,Vcc*%
%TO.N,+5V*%
X269240000Y-191135000D03*
%TD*%
D12*
%TO.P,U9,1,~{CLR}*%
%TO.N,CLR*%
X207595000Y-203865000D03*
D13*
%TO.P,U9,2,CLK*%
%TO.N,CLK*%
X207595000Y-201325000D03*
%TO.P,U9,3,P0*%
%TO.N,Y0*%
X207595000Y-198785000D03*
%TO.P,U9,4,P1*%
%TO.N,Y1*%
X207595000Y-196245000D03*
%TO.P,U9,5,P2*%
%TO.N,Y2*%
X207595000Y-193705000D03*
%TO.P,U9,6,P3*%
%TO.N,Y3*%
X207595000Y-191165000D03*
%TO.P,U9,7,ENP*%
%TO.N,GND*%
X207595000Y-188625000D03*
%TO.P,U9,8,GND*%
X207595000Y-186085000D03*
%TO.P,U9,9,~{LOAD}*%
%TO.N,LDo*%
X199975000Y-186085000D03*
%TO.P,U9,10,ENT*%
%TO.N,GND*%
X199975000Y-188625000D03*
%TO.P,U9,11,Q3*%
%TO.N,Net-(D3-A)*%
X199975000Y-191165000D03*
%TO.P,U9,12,Q2*%
%TO.N,Net-(D4-A)*%
X199975000Y-193705000D03*
%TO.P,U9,13,Q1*%
%TO.N,Net-(D5-A)*%
X199975000Y-196245000D03*
%TO.P,U9,14,Q0*%
%TO.N,Net-(D6-A)*%
X199975000Y-198785000D03*
%TO.P,U9,15,CO*%
%TO.N,unconnected-(U9A-CO-Pad15)*%
X199975000Y-201325000D03*
%TO.P,U9,16,Vcc*%
%TO.N,+5V*%
X199975000Y-203865000D03*
%TD*%
D14*
%TO.P,C19,1*%
%TO.N,+5V*%
X315595000Y-79970000D03*
%TO.P,C19,2*%
%TO.N,GND*%
X315595000Y-77470000D03*
%TD*%
D10*
%TO.P,D38,1,K*%
%TO.N,LD1*%
X177800000Y-95875000D03*
D11*
%TO.P,D38,2,A*%
%TO.N,Net-(D38-A)*%
X175260000Y-95875000D03*
%TD*%
D14*
%TO.P,C25,1*%
%TO.N,+5V*%
X315575000Y-133225000D03*
%TO.P,C25,2*%
%TO.N,GND*%
X315575000Y-130725000D03*
%TD*%
D10*
%TO.P,D39,1,K*%
%TO.N,LD2*%
X235600000Y-34290000D03*
D11*
%TO.P,D39,2,A*%
%TO.N,Net-(D39-A)*%
X233060000Y-34290000D03*
%TD*%
D12*
%TO.P,U10,1,~{CLR}*%
%TO.N,CLR*%
X207595000Y-174655000D03*
D13*
%TO.P,U10,2,CLK*%
%TO.N,CLK*%
X207595000Y-172115000D03*
%TO.P,U10,3,P0*%
%TO.N,Y4*%
X207595000Y-169575000D03*
%TO.P,U10,4,P1*%
%TO.N,Y5*%
X207595000Y-167035000D03*
%TO.P,U10,5,P2*%
%TO.N,unconnected-(U10A-P2-Pad5)*%
X207595000Y-164495000D03*
%TO.P,U10,6,P3*%
%TO.N,unconnected-(U10A-P3-Pad6)*%
X207595000Y-161955000D03*
%TO.P,U10,7,ENP*%
%TO.N,GND*%
X207595000Y-159415000D03*
%TO.P,U10,8,GND*%
X207595000Y-156875000D03*
%TO.P,U10,9,~{LOAD}*%
%TO.N,LDo*%
X199975000Y-156875000D03*
%TO.P,U10,10,ENT*%
%TO.N,GND*%
X199975000Y-159415000D03*
%TO.P,U10,11,Q3*%
%TO.N,unconnected-(U10A-Q3-Pad11)*%
X199975000Y-161955000D03*
%TO.P,U10,12,Q2*%
%TO.N,unconnected-(U10A-Q2-Pad12)*%
X199975000Y-164495000D03*
%TO.P,U10,13,Q1*%
%TO.N,Net-(D1-A)*%
X199975000Y-167035000D03*
%TO.P,U10,14,Q0*%
%TO.N,Net-(D2-A)*%
X199975000Y-169575000D03*
%TO.P,U10,15,CO*%
%TO.N,unconnected-(U10A-CO-Pad15)*%
X199975000Y-172115000D03*
%TO.P,U10,16,Vcc*%
%TO.N,+5V*%
X199975000Y-174655000D03*
%TD*%
D14*
%TO.P,C24,1*%
%TO.N,+5V*%
X315585000Y-157010000D03*
%TO.P,C24,2*%
%TO.N,GND*%
X315585000Y-154510000D03*
%TD*%
D12*
%TO.P,U18,1,I3*%
%TO.N,R35*%
X309265000Y-74930000D03*
D13*
%TO.P,U18,2,I2*%
%TO.N,R25*%
X306725000Y-74930000D03*
%TO.P,U18,3,I1*%
%TO.N,R15*%
X304185000Y-74930000D03*
%TO.P,U18,4,I0*%
%TO.N,R05*%
X301645000Y-74930000D03*
%TO.P,U18,5,Y*%
%TO.N,A5*%
X299105000Y-74930000D03*
%TO.P,U18,6,~{Y}*%
%TO.N,unconnected-(U18A-~{Y}-Pad6)*%
X296565000Y-74930000D03*
%TO.P,U18,7,~{E}*%
%TO.N,GND*%
X294025000Y-74930000D03*
%TO.P,U18,8,GND*%
X291485000Y-74930000D03*
%TO.P,U18,9,S2*%
%TO.N,sela2*%
X291485000Y-82550000D03*
%TO.P,U18,10,S1*%
%TO.N,sela1*%
X294025000Y-82550000D03*
%TO.P,U18,11,S0*%
%TO.N,sela0*%
X296565000Y-82550000D03*
%TO.P,U18,12,I7*%
%TO.N,unconnected-(U18A-I7-Pad12)*%
X299105000Y-82550000D03*
%TO.P,U18,13,I6*%
%TO.N,GND*%
X301645000Y-82550000D03*
%TO.P,U18,14,I5*%
%TO.N,Im5*%
X304185000Y-82550000D03*
%TO.P,U18,15,I4*%
%TO.N,Ip5*%
X306725000Y-82550000D03*
%TO.P,U18,16,Vcc*%
%TO.N,+5V*%
X309265000Y-82550000D03*
%TD*%
D14*
%TO.P,R33,1*%
%TO.N,Net-(D27-K)*%
X185420000Y-60960000D03*
D13*
%TO.P,R33,2*%
%TO.N,GND*%
X175260000Y-60960000D03*
%TD*%
D14*
%TO.P,R38,1*%
%TO.N,Ip4*%
X304800000Y-191262000D03*
D13*
%TO.P,R38,2*%
%TO.N,GND*%
X314960000Y-191262000D03*
%TD*%
D10*
%TO.P,D11,1,K*%
%TO.N,Net-(D11-K)*%
X247020000Y-135245000D03*
D11*
%TO.P,D11,2,A*%
%TO.N,R31*%
X249560000Y-135245000D03*
%TD*%
D14*
%TO.P,R11,1*%
%TO.N,Net-(D5-K)*%
X186640000Y-196880000D03*
D13*
%TO.P,R11,2*%
%TO.N,GND*%
X176480000Y-196880000D03*
%TD*%
D14*
%TO.P,C10,1*%
%TO.N,+5V*%
X202525000Y-151785000D03*
%TO.P,C10,2*%
%TO.N,GND*%
X205025000Y-151785000D03*
%TD*%
%TO.P,R36,1*%
%TO.N,Net-(D30-K)*%
X185420000Y-80010000D03*
D13*
%TO.P,R36,2*%
%TO.N,GND*%
X175260000Y-80010000D03*
%TD*%
D14*
%TO.P,R47,1*%
%TO.N,+5V*%
X199340000Y-151795000D03*
D13*
%TO.P,R47,2*%
%TO.N,Net-(D41-A)*%
X189180000Y-151795000D03*
%TD*%
D10*
%TO.P,D33,1,K*%
%TO.N,Net-(D33-K)*%
X249555000Y-201935000D03*
D11*
%TO.P,D33,2,A*%
%TO.N,pc3*%
X249555000Y-199395000D03*
%TD*%
D12*
%TO.P,U20,1,I3*%
%TO.N,R31*%
X338445000Y-128155000D03*
D13*
%TO.P,U20,2,I2*%
%TO.N,R21*%
X335905000Y-128155000D03*
%TO.P,U20,3,I1*%
%TO.N,R11*%
X333365000Y-128155000D03*
%TO.P,U20,4,I0*%
%TO.N,R01*%
X330825000Y-128155000D03*
%TO.P,U20,5,Y*%
%TO.N,B1*%
X328285000Y-128155000D03*
%TO.P,U20,6,~{Y}*%
%TO.N,unconnected-(U20A-~{Y}-Pad6)*%
X325745000Y-128155000D03*
%TO.P,U20,7,~{E}*%
%TO.N,GND*%
X323205000Y-128155000D03*
%TO.P,U20,8,GND*%
X320665000Y-128155000D03*
%TO.P,U20,9,S2*%
%TO.N,selb2*%
X320665000Y-135775000D03*
%TO.P,U20,10,S1*%
%TO.N,selb1*%
X323205000Y-135775000D03*
%TO.P,U20,11,S0*%
%TO.N,selb0*%
X325745000Y-135775000D03*
%TO.P,U20,12,I7*%
%TO.N,unconnected-(U20A-I7-Pad12)*%
X328285000Y-135775000D03*
%TO.P,U20,13,I6*%
%TO.N,GND*%
X330825000Y-135775000D03*
%TO.P,U20,14,I5*%
%TO.N,Im1*%
X333365000Y-135775000D03*
%TO.P,U20,15,I4*%
%TO.N,Ip1*%
X335905000Y-135775000D03*
%TO.P,U20,16,Vcc*%
%TO.N,+5V*%
X338445000Y-135775000D03*
%TD*%
D15*
%TO.P,J1,1,Pin_1*%
%TO.N,Y0*%
X358317800Y-40640000D03*
D16*
%TO.P,J1,2,Pin_2*%
%TO.N,Y1*%
X360857800Y-40640000D03*
%TO.P,J1,3,Pin_3*%
%TO.N,Y2*%
X358317800Y-43180000D03*
%TO.P,J1,4,Pin_4*%
%TO.N,Y3*%
X360857800Y-43180000D03*
%TO.P,J1,5,Pin_5*%
%TO.N,Y4*%
X358317800Y-45720000D03*
%TO.P,J1,6,Pin_6*%
%TO.N,Y5*%
X360857800Y-45720000D03*
%TO.P,J1,7,Pin_7*%
%TO.N,sela0*%
X358317800Y-48260000D03*
%TO.P,J1,8,Pin_8*%
%TO.N,sela1*%
X360857800Y-48260000D03*
%TO.P,J1,9,Pin_9*%
%TO.N,sela2*%
X358317800Y-50800000D03*
%TO.P,J1,10,Pin_10*%
%TO.N,selb0*%
X360857800Y-50800000D03*
%TO.P,J1,11,Pin_11*%
%TO.N,selb1*%
X358317800Y-53340000D03*
%TO.P,J1,12,Pin_12*%
%TO.N,selb2*%
X360857800Y-53340000D03*
%TO.P,J1,13,Pin_13*%
%TO.N,LD0*%
X358317800Y-55880000D03*
%TO.P,J1,14,Pin_14*%
%TO.N,LD1*%
X360857800Y-55880000D03*
%TO.P,J1,15,Pin_15*%
%TO.N,LD2*%
X358317800Y-58420000D03*
%TO.P,J1,16,Pin_16*%
%TO.N,LD3*%
X360857800Y-58420000D03*
%TO.P,J1,17,Pin_17*%
%TO.N,LDo*%
X358317800Y-60960000D03*
%TO.P,J1,18,Pin_18*%
%TO.N,LDpc*%
X360857800Y-60960000D03*
%TO.P,J1,19,Pin_19*%
%TO.N,Im0*%
X358317800Y-63500000D03*
%TO.P,J1,20,Pin_20*%
%TO.N,Im1*%
X360857800Y-63500000D03*
%TO.P,J1,21,Pin_21*%
%TO.N,Im2*%
X358317800Y-66040000D03*
%TO.P,J1,22,Pin_22*%
%TO.N,Im3*%
X360857800Y-66040000D03*
%TO.P,J1,23,Pin_23*%
%TO.N,Im4*%
X358317800Y-68580000D03*
%TO.P,J1,24,Pin_24*%
%TO.N,Im5*%
X360857800Y-68580000D03*
%TO.P,J1,25,Pin_25*%
%TO.N,CLR*%
X358317800Y-71120000D03*
%TO.P,J1,26,Pin_26*%
%TO.N,CLK*%
X360857800Y-71120000D03*
%TO.P,J1,27,Pin_27*%
%TO.N,+5V*%
X358317800Y-73660000D03*
%TO.P,J1,28,Pin_28*%
%TO.N,GND*%
X360857800Y-73660000D03*
%TO.P,J1,29,Pin_29*%
%TO.N,unconnected-(J1-Pin_29-Pad29)*%
X358317800Y-76200000D03*
%TO.P,J1,30,Pin_30*%
%TO.N,unconnected-(J1-Pin_30-Pad30)*%
X360857800Y-76200000D03*
%TO.P,J1,31,Pin_31*%
%TO.N,unconnected-(J1-Pin_31-Pad31)*%
X358317800Y-78740000D03*
%TO.P,J1,32,Pin_32*%
%TO.N,unconnected-(J1-Pin_32-Pad32)*%
X360857800Y-78740000D03*
%TO.P,J1,33,Pin_33*%
%TO.N,unconnected-(J1-Pin_33-Pad33)*%
X358317800Y-81280000D03*
%TO.P,J1,34,Pin_34*%
%TO.N,unconnected-(J1-Pin_34-Pad34)*%
X360857800Y-81280000D03*
%TD*%
D10*
%TO.P,D40,1,K*%
%TO.N,LD3*%
X235600000Y-95875000D03*
D11*
%TO.P,D40,2,A*%
%TO.N,Net-(D40-A)*%
X233060000Y-95875000D03*
%TD*%
D10*
%TO.P,D46,1,K*%
%TO.N,Net-(D46-K)*%
X350520000Y-200660000D03*
D11*
%TO.P,D46,2,A*%
%TO.N,selb2*%
X347980000Y-200660000D03*
%TD*%
D14*
%TO.P,C23,1*%
%TO.N,+5V*%
X286385000Y-109845000D03*
%TO.P,C23,2*%
%TO.N,GND*%
X286385000Y-107345000D03*
%TD*%
%TO.P,R34,1*%
%TO.N,Net-(D28-K)*%
X185420000Y-67310000D03*
D13*
%TO.P,R34,2*%
%TO.N,GND*%
X175260000Y-67310000D03*
%TD*%
D10*
%TO.P,D17,1,K*%
%TO.N,Net-(D17-K)*%
X247035000Y-73660000D03*
D11*
%TO.P,D17,2,A*%
%TO.N,R21*%
X249575000Y-73660000D03*
%TD*%
D12*
%TO.P,U6,1,~{CLR}*%
%TO.N,CLR*%
X265430000Y-51435000D03*
D13*
%TO.P,U6,2,CLK*%
%TO.N,CLK*%
X265430000Y-48895000D03*
%TO.P,U6,3,P0*%
%TO.N,Y4*%
X265430000Y-46355000D03*
%TO.P,U6,4,P1*%
%TO.N,Y5*%
X265430000Y-43815000D03*
%TO.P,U6,5,P2*%
%TO.N,unconnected-(U6A-P2-Pad5)*%
X265430000Y-41275000D03*
%TO.P,U6,6,P3*%
%TO.N,unconnected-(U6A-P3-Pad6)*%
X265430000Y-38735000D03*
%TO.P,U6,7,ENP*%
%TO.N,GND*%
X265430000Y-36195000D03*
%TO.P,U6,8,GND*%
X265430000Y-33655000D03*
%TO.P,U6,9,~{LOAD}*%
%TO.N,LD2*%
X257810000Y-33655000D03*
%TO.P,U6,10,ENT*%
%TO.N,GND*%
X257810000Y-36195000D03*
%TO.P,U6,11,Q3*%
%TO.N,unconnected-(U6A-Q3-Pad11)*%
X257810000Y-38735000D03*
%TO.P,U6,12,Q2*%
%TO.N,unconnected-(U6A-Q2-Pad12)*%
X257810000Y-41275000D03*
%TO.P,U6,13,Q1*%
%TO.N,R25*%
X257810000Y-43815000D03*
%TO.P,U6,14,Q0*%
%TO.N,R24*%
X257810000Y-46355000D03*
%TO.P,U6,15,CO*%
%TO.N,unconnected-(U6A-CO-Pad15)*%
X257810000Y-48895000D03*
%TO.P,U6,16,Vcc*%
%TO.N,+5V*%
X257810000Y-51435000D03*
%TD*%
D10*
%TO.P,D36,1,K*%
%TO.N,Net-(D36-K)*%
X268605000Y-201935000D03*
D11*
%TO.P,D36,2,A*%
%TO.N,pc0*%
X268605000Y-199395000D03*
%TD*%
D14*
%TO.P,R50,1*%
%TO.N,Net-(D44-K)*%
X357505000Y-170180000D03*
D13*
%TO.P,R50,2*%
%TO.N,GND*%
X367665000Y-170180000D03*
%TD*%
D14*
%TO.P,R13,1*%
%TO.N,Net-(D7-K)*%
X243215000Y-109845000D03*
D13*
%TO.P,R13,2*%
%TO.N,GND*%
X233055000Y-109845000D03*
%TD*%
D10*
%TO.P,D29,1,K*%
%TO.N,Net-(D29-K)*%
X189235000Y-73660000D03*
D11*
%TO.P,D29,2,A*%
%TO.N,R01*%
X191775000Y-73660000D03*
%TD*%
D14*
%TO.P,R20,1*%
%TO.N,Net-(D14-K)*%
X243215000Y-54600000D03*
D13*
%TO.P,R20,2*%
%TO.N,GND*%
X233055000Y-54600000D03*
%TD*%
D10*
%TO.P,D37,1,K*%
%TO.N,LD0*%
X177800000Y-34290000D03*
D11*
%TO.P,D37,2,A*%
%TO.N,Net-(D37-A)*%
X175260000Y-34290000D03*
%TD*%
D14*
%TO.P,R12,1*%
%TO.N,Net-(D6-K)*%
X186640000Y-203230000D03*
D13*
%TO.P,R12,2*%
%TO.N,GND*%
X176480000Y-203230000D03*
%TD*%
D14*
%TO.P,C7,1*%
%TO.N,+5V*%
X260350000Y-119380000D03*
%TO.P,C7,2*%
%TO.N,GND*%
X262850000Y-119380000D03*
%TD*%
D10*
%TO.P,D35,1,K*%
%TO.N,Net-(D35-K)*%
X262255000Y-201935000D03*
D11*
%TO.P,D35,2,A*%
%TO.N,pc1*%
X262255000Y-199395000D03*
%TD*%
D14*
%TO.P,C13,1*%
%TO.N,+5V*%
X246375000Y-166360000D03*
%TO.P,C13,2*%
%TO.N,GND*%
X246375000Y-163860000D03*
%TD*%
%TO.P,R39,1*%
%TO.N,Ip3*%
X304800000Y-196088000D03*
D13*
%TO.P,R39,2*%
%TO.N,GND*%
X314960000Y-196088000D03*
%TD*%
D14*
%TO.P,R9,1*%
%TO.N,Net-(D3-K)*%
X186640000Y-184180000D03*
D13*
%TO.P,R9,2*%
%TO.N,GND*%
X176480000Y-184180000D03*
%TD*%
D12*
%TO.P,SW1,1*%
%TO.N,+5V*%
X280670000Y-214620000D03*
D13*
%TO.P,SW1,2*%
X283210000Y-214620000D03*
%TO.P,SW1,3*%
X285750000Y-214620000D03*
%TO.P,SW1,4*%
X288290000Y-214620000D03*
%TO.P,SW1,5*%
X290830000Y-214620000D03*
%TO.P,SW1,6*%
X293370000Y-214620000D03*
%TO.P,SW1,7*%
%TO.N,Ip0*%
X293370000Y-207000000D03*
%TO.P,SW1,8*%
%TO.N,Ip1*%
X290830000Y-207000000D03*
%TO.P,SW1,9*%
%TO.N,Ip2*%
X288290000Y-207000000D03*
%TO.P,SW1,10*%
%TO.N,Ip3*%
X285750000Y-207000000D03*
%TO.P,SW1,11*%
%TO.N,Ip4*%
X283210000Y-207000000D03*
%TO.P,SW1,12*%
%TO.N,Ip5*%
X280670000Y-207000000D03*
%TD*%
D10*
%TO.P,D22,1,K*%
%TO.N,Net-(D22-K)*%
X189230000Y-128895000D03*
D11*
%TO.P,D22,2,A*%
%TO.N,R12*%
X191770000Y-128895000D03*
%TD*%
D14*
%TO.P,R46,1*%
%TO.N,+5V*%
X243215000Y-90160000D03*
D13*
%TO.P,R46,2*%
%TO.N,Net-(D40-A)*%
X233055000Y-90160000D03*
%TD*%
D14*
%TO.P,R16,1*%
%TO.N,Net-(D10-K)*%
X243215000Y-128895000D03*
D13*
%TO.P,R16,2*%
%TO.N,GND*%
X233055000Y-128895000D03*
%TD*%
D14*
%TO.P,R27,1*%
%TO.N,Net-(D21-K)*%
X185420000Y-122545000D03*
D13*
%TO.P,R27,2*%
%TO.N,GND*%
X175260000Y-122545000D03*
%TD*%
D14*
%TO.P,R26,1*%
%TO.N,Net-(D20-K)*%
X185420000Y-116195000D03*
D13*
%TO.P,R26,2*%
%TO.N,GND*%
X175260000Y-116195000D03*
%TD*%
D14*
%TO.P,R1,1*%
%TO.N,Net-(D31-K)*%
X236855000Y-204475000D03*
D13*
%TO.P,R1,2*%
%TO.N,GND*%
X236855000Y-214635000D03*
%TD*%
D10*
%TO.P,D44,1,K*%
%TO.N,Net-(D44-K)*%
X350520000Y-170015000D03*
D11*
%TO.P,D44,2,A*%
%TO.N,sela1*%
X347980000Y-170015000D03*
%TD*%
D10*
%TO.P,D32,1,K*%
%TO.N,Net-(D32-K)*%
X243205000Y-201935000D03*
D11*
%TO.P,D32,2,A*%
%TO.N,pc4*%
X243205000Y-199395000D03*
%TD*%
D10*
%TO.P,D43,1,K*%
%TO.N,Net-(D43-K)*%
X350520000Y-176200000D03*
D11*
%TO.P,D43,2,A*%
%TO.N,sela2*%
X347980000Y-176200000D03*
%TD*%
D12*
%TO.P,U4,1,~{CLR}*%
%TO.N,CLR*%
X207635000Y-113030000D03*
D13*
%TO.P,U4,2,CLK*%
%TO.N,CLK*%
X207635000Y-110490000D03*
%TO.P,U4,3,P0*%
%TO.N,Y4*%
X207635000Y-107950000D03*
%TO.P,U4,4,P1*%
%TO.N,Y5*%
X207635000Y-105410000D03*
%TO.P,U4,5,P2*%
%TO.N,unconnected-(U4A-P2-Pad5)*%
X207635000Y-102870000D03*
%TO.P,U4,6,P3*%
%TO.N,unconnected-(U4A-P3-Pad6)*%
X207635000Y-100330000D03*
%TO.P,U4,7,ENP*%
%TO.N,GND*%
X207635000Y-97790000D03*
%TO.P,U4,8,GND*%
X207635000Y-95250000D03*
%TO.P,U4,9,~{LOAD}*%
%TO.N,LD1*%
X200015000Y-95250000D03*
%TO.P,U4,10,ENT*%
%TO.N,GND*%
X200015000Y-97790000D03*
%TO.P,U4,11,Q3*%
%TO.N,unconnected-(U4A-Q3-Pad11)*%
X200015000Y-100330000D03*
%TO.P,U4,12,Q2*%
%TO.N,unconnected-(U4A-Q2-Pad12)*%
X200015000Y-102870000D03*
%TO.P,U4,13,Q1*%
%TO.N,R15*%
X200015000Y-105410000D03*
%TO.P,U4,14,Q0*%
%TO.N,R14*%
X200015000Y-107950000D03*
%TO.P,U4,15,CO*%
%TO.N,unconnected-(U4A-CO-Pad15)*%
X200015000Y-110490000D03*
%TO.P,U4,16,Vcc*%
%TO.N,+5V*%
X200015000Y-113030000D03*
%TD*%
D10*
%TO.P,D21,1,K*%
%TO.N,Net-(D21-K)*%
X189225000Y-122545000D03*
D11*
%TO.P,D21,2,A*%
%TO.N,R13*%
X191765000Y-122545000D03*
%TD*%
D14*
%TO.P,R49,1*%
%TO.N,Net-(D43-K)*%
X357505000Y-176530000D03*
D13*
%TO.P,R49,2*%
%TO.N,GND*%
X367665000Y-176530000D03*
%TD*%
D10*
%TO.P,D8,1,K*%
%TO.N,Net-(D8-K)*%
X247020000Y-116195000D03*
D11*
%TO.P,D8,2,A*%
%TO.N,R34*%
X249560000Y-116195000D03*
%TD*%
D14*
%TO.P,R35,1*%
%TO.N,Net-(D29-K)*%
X185420000Y-73660000D03*
D13*
%TO.P,R35,2*%
%TO.N,GND*%
X175260000Y-73660000D03*
%TD*%
D10*
%TO.P,D10,1,K*%
%TO.N,Net-(D10-K)*%
X247020000Y-128895000D03*
D11*
%TO.P,D10,2,A*%
%TO.N,R32*%
X249560000Y-128895000D03*
%TD*%
D10*
%TO.P,D34,1,K*%
%TO.N,Net-(D34-K)*%
X255905000Y-201935000D03*
D11*
%TO.P,D34,2,A*%
%TO.N,pc2*%
X255905000Y-199395000D03*
%TD*%
D14*
%TO.P,R23,1*%
%TO.N,Net-(D17-K)*%
X243215000Y-73650000D03*
D13*
%TO.P,R23,2*%
%TO.N,GND*%
X233055000Y-73650000D03*
%TD*%
D14*
%TO.P,R2,1*%
%TO.N,Net-(D32-K)*%
X243205000Y-204475000D03*
D13*
%TO.P,R2,2*%
%TO.N,GND*%
X243205000Y-214635000D03*
%TD*%
D14*
%TO.P,C17,1*%
%TO.N,+5V*%
X286405000Y-56515000D03*
%TO.P,C17,2*%
%TO.N,GND*%
X286405000Y-54015000D03*
%TD*%
D10*
%TO.P,D6,1,K*%
%TO.N,Net-(D6-K)*%
X189180000Y-203230000D03*
D11*
%TO.P,D6,2,A*%
%TO.N,Net-(D6-A)*%
X191720000Y-203230000D03*
%TD*%
D10*
%TO.P,D26,1,K*%
%TO.N,Net-(D26-K)*%
X189235000Y-54610000D03*
D11*
%TO.P,D26,2,A*%
%TO.N,R04*%
X191775000Y-54610000D03*
%TD*%
D12*
%TO.P,U22,1,I3*%
%TO.N,R33*%
X309255000Y-104775000D03*
D13*
%TO.P,U22,2,I2*%
%TO.N,R23*%
X306715000Y-104775000D03*
%TO.P,U22,3,I1*%
%TO.N,R13*%
X304175000Y-104775000D03*
%TO.P,U22,4,I0*%
%TO.N,R03*%
X301635000Y-104775000D03*
%TO.P,U22,5,Y*%
%TO.N,B3*%
X299095000Y-104775000D03*
%TO.P,U22,6,~{Y}*%
%TO.N,unconnected-(U22A-~{Y}-Pad6)*%
X296555000Y-104775000D03*
%TO.P,U22,7,~{E}*%
%TO.N,GND*%
X294015000Y-104775000D03*
%TO.P,U22,8,GND*%
X291475000Y-104775000D03*
%TO.P,U22,9,S2*%
%TO.N,selb2*%
X291475000Y-112395000D03*
%TO.P,U22,10,S1*%
%TO.N,selb1*%
X294015000Y-112395000D03*
%TO.P,U22,11,S0*%
%TO.N,selb0*%
X296555000Y-112395000D03*
%TO.P,U22,12,I7*%
%TO.N,unconnected-(U22A-I7-Pad12)*%
X299095000Y-112395000D03*
%TO.P,U22,13,I6*%
%TO.N,GND*%
X301635000Y-112395000D03*
%TO.P,U22,14,I5*%
%TO.N,Im3*%
X304175000Y-112395000D03*
%TO.P,U22,15,I4*%
%TO.N,Ip3*%
X306715000Y-112395000D03*
%TO.P,U22,16,Vcc*%
%TO.N,+5V*%
X309255000Y-112395000D03*
%TD*%
D14*
%TO.P,R4,1*%
%TO.N,Net-(D34-K)*%
X255905000Y-204475000D03*
D13*
%TO.P,R4,2*%
%TO.N,GND*%
X255905000Y-214635000D03*
%TD*%
D14*
%TO.P,C8,1*%
%TO.N,+5V*%
X260360000Y-90160000D03*
%TO.P,C8,2*%
%TO.N,GND*%
X262860000Y-90160000D03*
%TD*%
%TO.P,R14,1*%
%TO.N,Net-(D8-K)*%
X243215000Y-116195000D03*
D13*
%TO.P,R14,2*%
%TO.N,GND*%
X233055000Y-116195000D03*
%TD*%
D14*
%TO.P,R54,1*%
%TO.N,Net-(D48-K)*%
X357505000Y-187960000D03*
D13*
%TO.P,R54,2*%
%TO.N,GND*%
X367665000Y-187960000D03*
%TD*%
D14*
%TO.P,R52,1*%
%TO.N,Net-(D46-K)*%
X357505000Y-200660000D03*
D13*
%TO.P,R52,2*%
%TO.N,GND*%
X367665000Y-200660000D03*
%TD*%
D14*
%TO.P,R6,1*%
%TO.N,Net-(D36-K)*%
X268605000Y-204475000D03*
D13*
%TO.P,R6,2*%
%TO.N,GND*%
X268605000Y-214635000D03*
%TD*%
D12*
%TO.P,U5,1,~{CLR}*%
%TO.N,CLR*%
X265440000Y-80635000D03*
D13*
%TO.P,U5,2,CLK*%
%TO.N,CLK*%
X265440000Y-78095000D03*
%TO.P,U5,3,P0*%
%TO.N,Y0*%
X265440000Y-75555000D03*
%TO.P,U5,4,P1*%
%TO.N,Y1*%
X265440000Y-73015000D03*
%TO.P,U5,5,P2*%
%TO.N,Y2*%
X265440000Y-70475000D03*
%TO.P,U5,6,P3*%
%TO.N,Y3*%
X265440000Y-67935000D03*
%TO.P,U5,7,ENP*%
%TO.N,GND*%
X265440000Y-65395000D03*
%TO.P,U5,8,GND*%
X265440000Y-62855000D03*
%TO.P,U5,9,~{LOAD}*%
%TO.N,LD2*%
X257820000Y-62855000D03*
%TO.P,U5,10,ENT*%
%TO.N,GND*%
X257820000Y-65395000D03*
%TO.P,U5,11,Q3*%
%TO.N,R23*%
X257820000Y-67935000D03*
%TO.P,U5,12,Q2*%
%TO.N,R22*%
X257820000Y-70475000D03*
%TO.P,U5,13,Q1*%
%TO.N,R21*%
X257820000Y-73015000D03*
%TO.P,U5,14,Q0*%
%TO.N,R20*%
X257820000Y-75555000D03*
%TO.P,U5,15,CO*%
%TO.N,unconnected-(U5A-CO-Pad15)*%
X257820000Y-78095000D03*
%TO.P,U5,16,Vcc*%
%TO.N,+5V*%
X257820000Y-80635000D03*
%TD*%
D14*
%TO.P,R53,1*%
%TO.N,Net-(D47-K)*%
X357505000Y-194310000D03*
D13*
%TO.P,R53,2*%
%TO.N,GND*%
X367665000Y-194310000D03*
%TD*%
D10*
%TO.P,D41,1,K*%
%TO.N,LDo*%
X191725000Y-157510000D03*
D11*
%TO.P,D41,2,A*%
%TO.N,Net-(D41-A)*%
X189185000Y-157510000D03*
%TD*%
D14*
%TO.P,R42,1*%
%TO.N,Ip0*%
X304800000Y-210566000D03*
D13*
%TO.P,R42,2*%
%TO.N,GND*%
X314960000Y-210566000D03*
%TD*%
D14*
%TO.P,R17,1*%
%TO.N,Net-(D11-K)*%
X243215000Y-135245000D03*
D13*
%TO.P,R17,2*%
%TO.N,GND*%
X233055000Y-135245000D03*
%TD*%
D12*
%TO.P,U3,1,~{CLR}*%
%TO.N,CLR*%
X207635000Y-142240000D03*
D13*
%TO.P,U3,2,CLK*%
%TO.N,CLK*%
X207635000Y-139700000D03*
%TO.P,U3,3,P0*%
%TO.N,Y0*%
X207635000Y-137160000D03*
%TO.P,U3,4,P1*%
%TO.N,Y1*%
X207635000Y-134620000D03*
%TO.P,U3,5,P2*%
%TO.N,Y2*%
X207635000Y-132080000D03*
%TO.P,U3,6,P3*%
%TO.N,Y3*%
X207635000Y-129540000D03*
%TO.P,U3,7,ENP*%
%TO.N,GND*%
X207635000Y-127000000D03*
%TO.P,U3,8,GND*%
X207635000Y-124460000D03*
%TO.P,U3,9,~{LOAD}*%
%TO.N,LD1*%
X200015000Y-124460000D03*
%TO.P,U3,10,ENT*%
%TO.N,GND*%
X200015000Y-127000000D03*
%TO.P,U3,11,Q3*%
%TO.N,R13*%
X200015000Y-129540000D03*
%TO.P,U3,12,Q2*%
%TO.N,R12*%
X200015000Y-132080000D03*
%TO.P,U3,13,Q1*%
%TO.N,R11*%
X200015000Y-134620000D03*
%TO.P,U3,14,Q0*%
%TO.N,R10*%
X200015000Y-137160000D03*
%TO.P,U3,15,CO*%
%TO.N,unconnected-(U3A-CO-Pad15)*%
X200015000Y-139700000D03*
%TO.P,U3,16,Vcc*%
%TO.N,+5V*%
X200015000Y-142240000D03*
%TD*%
D12*
%TO.P,U13,1,I3*%
%TO.N,R30*%
X338435000Y-27900000D03*
D13*
%TO.P,U13,2,I2*%
%TO.N,R20*%
X335895000Y-27900000D03*
%TO.P,U13,3,I1*%
%TO.N,R10*%
X333355000Y-27900000D03*
%TO.P,U13,4,I0*%
%TO.N,R00*%
X330815000Y-27900000D03*
%TO.P,U13,5,Y*%
%TO.N,A0*%
X328275000Y-27900000D03*
%TO.P,U13,6,~{Y}*%
%TO.N,unconnected-(U13A-~{Y}-Pad6)*%
X325735000Y-27900000D03*
%TO.P,U13,7,~{E}*%
%TO.N,GND*%
X323195000Y-27900000D03*
%TO.P,U13,8,GND*%
X320655000Y-27900000D03*
%TO.P,U13,9,S2*%
%TO.N,sela2*%
X320655000Y-35520000D03*
%TO.P,U13,10,S1*%
%TO.N,sela1*%
X323195000Y-35520000D03*
%TO.P,U13,11,S0*%
%TO.N,sela0*%
X325735000Y-35520000D03*
%TO.P,U13,12,I7*%
%TO.N,unconnected-(U13A-I7-Pad12)*%
X328275000Y-35520000D03*
%TO.P,U13,13,I6*%
%TO.N,GND*%
X330815000Y-35520000D03*
%TO.P,U13,14,I5*%
%TO.N,Im0*%
X333355000Y-35520000D03*
%TO.P,U13,15,I4*%
%TO.N,Ip0*%
X335895000Y-35520000D03*
%TO.P,U13,16,Vcc*%
%TO.N,+5V*%
X338435000Y-35520000D03*
%TD*%
D14*
%TO.P,C20,1*%
%TO.N,+5V*%
X315575000Y-56310000D03*
%TO.P,C20,2*%
%TO.N,GND*%
X315575000Y-53810000D03*
%TD*%
D10*
%TO.P,D18,1,K*%
%TO.N,Net-(D18-K)*%
X247035000Y-80010000D03*
D11*
%TO.P,D18,2,A*%
%TO.N,R20*%
X249575000Y-80010000D03*
%TD*%
D14*
%TO.P,R30,1*%
%TO.N,Net-(D24-K)*%
X185420000Y-141595000D03*
D13*
%TO.P,R30,2*%
%TO.N,GND*%
X175260000Y-141595000D03*
%TD*%
D14*
%TO.P,C18,1*%
%TO.N,+5V*%
X286385000Y-33020000D03*
%TO.P,C18,2*%
%TO.N,GND*%
X286385000Y-30520000D03*
%TD*%
%TO.P,R15,1*%
%TO.N,Net-(D9-K)*%
X243215000Y-122545000D03*
D13*
%TO.P,R15,2*%
%TO.N,GND*%
X233055000Y-122545000D03*
%TD*%
D10*
%TO.P,D14,1,K*%
%TO.N,Net-(D14-K)*%
X247035000Y-54610000D03*
D11*
%TO.P,D14,2,A*%
%TO.N,R24*%
X249575000Y-54610000D03*
%TD*%
D14*
%TO.P,R25,1*%
%TO.N,Net-(D19-K)*%
X185420000Y-109845000D03*
D13*
%TO.P,R25,2*%
%TO.N,GND*%
X175260000Y-109845000D03*
%TD*%
D12*
%TO.P,U21,1,I3*%
%TO.N,R32*%
X338455000Y-151765000D03*
D13*
%TO.P,U21,2,I2*%
%TO.N,R22*%
X335915000Y-151765000D03*
%TO.P,U21,3,I1*%
%TO.N,R12*%
X333375000Y-151765000D03*
%TO.P,U21,4,I0*%
%TO.N,R02*%
X330835000Y-151765000D03*
%TO.P,U21,5,Y*%
%TO.N,B2*%
X328295000Y-151765000D03*
%TO.P,U21,6,~{Y}*%
%TO.N,unconnected-(U21A-~{Y}-Pad6)*%
X325755000Y-151765000D03*
%TO.P,U21,7,~{E}*%
%TO.N,GND*%
X323215000Y-151765000D03*
%TO.P,U21,8,GND*%
X320675000Y-151765000D03*
%TO.P,U21,9,S2*%
%TO.N,selb2*%
X320675000Y-159385000D03*
%TO.P,U21,10,S1*%
%TO.N,selb1*%
X323215000Y-159385000D03*
%TO.P,U21,11,S0*%
%TO.N,selb0*%
X325755000Y-159385000D03*
%TO.P,U21,12,I7*%
%TO.N,unconnected-(U21A-I7-Pad12)*%
X328295000Y-159385000D03*
%TO.P,U21,13,I6*%
%TO.N,GND*%
X330835000Y-159385000D03*
%TO.P,U21,14,I5*%
%TO.N,Im2*%
X333375000Y-159385000D03*
%TO.P,U21,15,I4*%
%TO.N,Ip2*%
X335915000Y-159385000D03*
%TO.P,U21,16,Vcc*%
%TO.N,+5V*%
X338455000Y-159385000D03*
%TD*%
D10*
%TO.P,D7,1,K*%
%TO.N,Net-(D7-K)*%
X247020000Y-109845000D03*
D11*
%TO.P,D7,2,A*%
%TO.N,R35*%
X249560000Y-109845000D03*
%TD*%
D10*
%TO.P,D1,1,K*%
%TO.N,Net-(D1-K)*%
X189180000Y-171480000D03*
D11*
%TO.P,D1,2,A*%
%TO.N,Net-(D1-A)*%
X191720000Y-171480000D03*
%TD*%
D14*
%TO.P,R43,1*%
%TO.N,+5V*%
X194945000Y-28575000D03*
D13*
%TO.P,R43,2*%
%TO.N,Net-(D37-A)*%
X184785000Y-28575000D03*
%TD*%
D12*
%TO.P,U16,1,I3*%
%TO.N,R33*%
X309245000Y-27940000D03*
D13*
%TO.P,U16,2,I2*%
%TO.N,R23*%
X306705000Y-27940000D03*
%TO.P,U16,3,I1*%
%TO.N,R13*%
X304165000Y-27940000D03*
%TO.P,U16,4,I0*%
%TO.N,R03*%
X301625000Y-27940000D03*
%TO.P,U16,5,Y*%
%TO.N,A3*%
X299085000Y-27940000D03*
%TO.P,U16,6,~{Y}*%
%TO.N,unconnected-(U16A-~{Y}-Pad6)*%
X296545000Y-27940000D03*
%TO.P,U16,7,~{E}*%
%TO.N,GND*%
X294005000Y-27940000D03*
%TO.P,U16,8,GND*%
X291465000Y-27940000D03*
%TO.P,U16,9,S2*%
%TO.N,sela2*%
X291465000Y-35560000D03*
%TO.P,U16,10,S1*%
%TO.N,sela1*%
X294005000Y-35560000D03*
%TO.P,U16,11,S0*%
%TO.N,sela0*%
X296545000Y-35560000D03*
%TO.P,U16,12,I7*%
%TO.N,unconnected-(U16A-I7-Pad12)*%
X299085000Y-35560000D03*
%TO.P,U16,13,I6*%
%TO.N,GND*%
X301625000Y-35560000D03*
%TO.P,U16,14,I5*%
%TO.N,Im3*%
X304165000Y-35560000D03*
%TO.P,U16,15,I4*%
%TO.N,Ip3*%
X306705000Y-35560000D03*
%TO.P,U16,16,Vcc*%
%TO.N,+5V*%
X309245000Y-35560000D03*
%TD*%
D10*
%TO.P,D9,1,K*%
%TO.N,Net-(D9-K)*%
X247020000Y-122545000D03*
D11*
%TO.P,D9,2,A*%
%TO.N,R33*%
X249560000Y-122545000D03*
%TD*%
D10*
%TO.P,D42,1,K*%
%TO.N,LDpc*%
X222885000Y-199385000D03*
D11*
%TO.P,D42,2,A*%
%TO.N,Net-(D42-A)*%
X222885000Y-201925000D03*
%TD*%
D10*
%TO.P,D12,1,K*%
%TO.N,Net-(D12-K)*%
X247020000Y-141595000D03*
D11*
%TO.P,D12,2,A*%
%TO.N,R30*%
X249560000Y-141595000D03*
%TD*%
D10*
%TO.P,D48,1,K*%
%TO.N,Net-(D48-K)*%
X350405000Y-187960000D03*
D11*
%TO.P,D48,2,A*%
%TO.N,selb0*%
X347865000Y-187960000D03*
%TD*%
D14*
%TO.P,C16,1*%
%TO.N,+5V*%
X286405000Y-80010000D03*
%TO.P,C16,2*%
%TO.N,GND*%
X286405000Y-77510000D03*
%TD*%
%TO.P,C3,1*%
%TO.N,+5V*%
X202595000Y-119380000D03*
%TO.P,C3,2*%
%TO.N,GND*%
X205095000Y-119380000D03*
%TD*%
%TO.P,R37,1*%
%TO.N,Ip5*%
X304800000Y-186436000D03*
D13*
%TO.P,R37,2*%
%TO.N,GND*%
X314960000Y-186436000D03*
%TD*%
D17*
%TO.N,GND*%
X205740000Y-97790000D03*
%TO.N,+5V*%
X336600800Y-77284200D03*
%TO.N,R35*%
X312681100Y-100965000D03*
X295179600Y-101531500D03*
%TO.N,R34*%
X298458200Y-102539700D03*
%TO.N,R32*%
X258720700Y-118724800D03*
X344805000Y-74930000D03*
X344423300Y-118061400D03*
%TO.N,R31*%
X263525000Y-144780000D03*
X262258700Y-135172900D03*
%TO.N,R30*%
X341716500Y-121438600D03*
%TO.N,R25*%
X251460000Y-58911600D03*
X304800000Y-64135000D03*
X312947000Y-76953500D03*
%TO.N,R24*%
X279301300Y-120015000D03*
X279301300Y-55189200D03*
%TO.N,R23*%
X278576800Y-95250000D03*
X273005250Y-55790500D03*
X305435000Y-97033500D03*
%TO.N,R22*%
X344410200Y-76021800D03*
X332833200Y-66969600D03*
%TO.N,R21*%
X258445000Y-85725000D03*
X332202300Y-94567300D03*
%TO.N,R20*%
X344275918Y-68760469D03*
X341385200Y-68702700D03*
%TO.N,R15*%
X294166700Y-101486200D03*
X302092300Y-81042100D03*
X310381900Y-100749200D03*
%TO.N,R14*%
X293530200Y-106210500D03*
%TO.N,R12*%
X343471900Y-112633500D03*
X344410200Y-78173300D03*
%TO.N,R10*%
X339014500Y-100965000D03*
X201642500Y-122330700D03*
%TO.N,R05*%
X283506800Y-64928800D03*
X297412800Y-149121200D03*
%TO.N,R04*%
X300355000Y-121920000D03*
X281957500Y-120015000D03*
X282463200Y-47628000D03*
%TO.N,R03*%
X301635000Y-96186700D03*
X201344500Y-76516800D03*
%TO.N,R02*%
X344410200Y-79334300D03*
%TO.N,R01*%
X327410500Y-89034300D03*
%TO.N,R00*%
X337936500Y-95885000D03*
X330825000Y-97758000D03*
%TO.N,pc4*%
X239395000Y-194637500D03*
X356363800Y-129556200D03*
%TO.N,pc3*%
X362110500Y-164885700D03*
%TO.N,pc0*%
X348271700Y-165034900D03*
%TO.N,LD0*%
X196596000Y-48514000D03*
X196596000Y-44958000D03*
%TO.N,LD1*%
X350390500Y-97705100D03*
%TO.N,LD3*%
X354419600Y-90869500D03*
%TO.N,LDo*%
X213650200Y-147955000D03*
X195072000Y-171196000D03*
X355596200Y-69203800D03*
X191770000Y-167132000D03*
X231581300Y-78105000D03*
%TO.N,LDpc*%
X365125000Y-191135000D03*
X364490000Y-63500000D03*
%TO.N,sela2*%
X315997400Y-62865000D03*
X320151300Y-38451300D03*
%TO.N,sela1*%
X346317100Y-98456700D03*
%TO.N,sela0*%
X347980000Y-160958100D03*
X322025100Y-79242200D03*
%TO.N,selb2*%
X321945000Y-156137400D03*
X346678300Y-115570000D03*
X348613400Y-59690000D03*
%TO.N,selb1*%
X293270100Y-132431900D03*
X353061925Y-113035774D03*
X324389800Y-156246100D03*
%TO.N,selb0*%
X353243200Y-111829900D03*
X297984600Y-155945000D03*
X318573500Y-132309500D03*
X326942100Y-155978500D03*
%TO.N,Y0*%
X346710000Y-69215000D03*
%TO.N,Y1*%
X312006800Y-29065400D03*
X259240900Y-73015000D03*
X312947000Y-67297800D03*
X257037700Y-71727300D03*
%TO.N,Y2*%
X346075000Y-67310000D03*
%TO.N,Y3*%
X262255000Y-130810000D03*
X349561928Y-67897773D03*
%TO.N,Y4*%
X345645400Y-55992000D03*
%TO.N,Y5*%
X261710600Y-43170300D03*
X330793600Y-42364000D03*
X212886000Y-109534100D03*
X333318959Y-37635459D03*
%TO.N,Im0*%
X349885000Y-110210300D03*
X341710400Y-58447600D03*
X352970600Y-63500000D03*
%TO.N,Im1*%
X349798000Y-125154600D03*
X352970600Y-65459614D03*
%TO.N,Im2*%
X340438758Y-158634844D03*
X347207100Y-81710000D03*
X357134318Y-77036916D03*
%TO.N,Im3*%
X324475000Y-108828000D03*
X307975000Y-44549000D03*
X332740000Y-57062700D03*
%TO.N,Im4*%
X286482700Y-139119500D03*
%TO.N,Im5*%
X308186400Y-155565800D03*
X303512600Y-88889600D03*
X312465899Y-96565899D03*
%TO.N,CLR*%
X208790500Y-104192900D03*
X263588600Y-113742100D03*
X247650000Y-153035000D03*
%TO.N,CLK*%
X355777800Y-67563400D03*
%TO.N,A0*%
X362144799Y-30285201D03*
%TO.N,A1*%
X355800949Y-62430949D03*
%TO.N,A2*%
X355600700Y-73142400D03*
X329565000Y-72959600D03*
%TO.N,A3*%
X357505000Y-26670000D03*
%TO.N,A4*%
X347311100Y-103299800D03*
X348610900Y-65302500D03*
%TO.N,A5*%
X346395000Y-77952800D03*
X347282800Y-100740700D03*
%TO.N,B1*%
X353177200Y-121560000D03*
%TO.N,B2*%
X350436700Y-130600100D03*
%TO.N,B5*%
X317721100Y-121920000D03*
X314708000Y-141139600D03*
%TO.N,Ip5*%
X310401900Y-156539600D03*
X314286100Y-83038700D03*
%TO.N,Ip3*%
X313055000Y-36195000D03*
X313557700Y-107315000D03*
%TO.N,Ip2*%
X309245000Y-172720000D03*
X346848900Y-83760500D03*
%TO.N,Ip1*%
X350064800Y-65405000D03*
X312420000Y-151130000D03*
X347405300Y-126436500D03*
%TO.N,Ip0*%
X341759800Y-111131000D03*
%TD*%
D18*
%TO.N,GND*%
X205740000Y-97790000D02*
X207635000Y-97790000D01*
X257820000Y-97780000D02*
X265440000Y-97780000D01*
%TO.N,+5V*%
X356660700Y-73869300D02*
X349067900Y-73869300D01*
X288290000Y-214620000D02*
X290830000Y-214620000D01*
X243800000Y-191135000D02*
X240030000Y-191135000D01*
X284447100Y-111782900D02*
X260183900Y-111782900D01*
X202565000Y-180995000D02*
X202565000Y-182702700D01*
X262053900Y-56121100D02*
X270889200Y-56121100D01*
X313136900Y-56310000D02*
X310391900Y-59055000D01*
X260183900Y-111782900D02*
X260183900Y-111783000D01*
X286385000Y-109845000D02*
X284447100Y-111782900D01*
X315575000Y-109815000D02*
X312961900Y-109815000D01*
X312961900Y-109815000D02*
X310381900Y-112395000D01*
X358317800Y-73660000D02*
X356870000Y-73660000D01*
X312921900Y-133225000D02*
X315575000Y-133225000D01*
X270889200Y-56121100D02*
X271283100Y-56515000D01*
X349067900Y-73869300D02*
X345653000Y-77284200D01*
X312951900Y-32980000D02*
X310371900Y-35560000D01*
X315585000Y-157010000D02*
X313210000Y-159385000D01*
X310381900Y-135765000D02*
X312921900Y-133225000D01*
X241156900Y-168920000D02*
X243716900Y-166360000D01*
X312971900Y-79970000D02*
X315595000Y-79970000D01*
X345653000Y-77284200D02*
X336600800Y-77284200D01*
X199350000Y-151785000D02*
X199340000Y-151795000D01*
X309265000Y-82550000D02*
X310391900Y-82550000D01*
X185430000Y-90170000D02*
X185420000Y-90160000D01*
X285750000Y-214620000D02*
X288290000Y-214620000D01*
X313210000Y-159385000D02*
X309275000Y-159385000D01*
X309255000Y-112395000D02*
X310381900Y-112395000D01*
X356870000Y-73660000D02*
X356660700Y-73869300D01*
X260400000Y-57775000D02*
X262053900Y-56121100D01*
X215970000Y-187355000D02*
X217170000Y-188555000D01*
X257820000Y-113020000D02*
X258946900Y-113020000D01*
X310391900Y-82550000D02*
X312971900Y-79970000D01*
X315575000Y-32980000D02*
X312951900Y-32980000D01*
X207217300Y-187355000D02*
X215970000Y-187355000D01*
X280670000Y-214620000D02*
X283210000Y-214620000D01*
X202575000Y-90170000D02*
X185430000Y-90170000D01*
X283210000Y-214620000D02*
X285750000Y-214620000D01*
X202525000Y-151785000D02*
X199350000Y-151785000D01*
X246380000Y-188555000D02*
X243800000Y-191135000D01*
X260360000Y-90160000D02*
X243215000Y-90160000D01*
X202605000Y-28575000D02*
X194945000Y-28575000D01*
X260183900Y-111783000D02*
X258946900Y-113020000D01*
X271283100Y-56515000D02*
X286405000Y-56515000D01*
X290830000Y-214620000D02*
X293370000Y-214620000D01*
X260390000Y-28575000D02*
X243220000Y-28575000D01*
X309255000Y-135765000D02*
X310381900Y-135765000D01*
X243716900Y-166360000D02*
X246375000Y-166360000D01*
X309245000Y-35560000D02*
X310371900Y-35560000D01*
X315575000Y-56310000D02*
X313136900Y-56310000D01*
X202565000Y-182702700D02*
X207217300Y-187355000D01*
X240030000Y-168920000D02*
X241156900Y-168920000D01*
X309265000Y-59055000D02*
X310391900Y-59055000D01*
%TO.N,GND*%
X308620900Y-106302500D02*
X302528400Y-112395000D01*
X301635000Y-134638100D02*
X305096200Y-131176900D01*
X324881600Y-130725000D02*
X318095000Y-130725000D01*
X305096200Y-131176900D02*
X315123100Y-131176900D01*
X230013100Y-62865000D02*
X231928100Y-60950000D01*
X301645000Y-82550000D02*
X302490200Y-82550000D01*
X320665000Y-104775000D02*
X323205000Y-104775000D01*
X207595000Y-159415000D02*
X208721900Y-159415000D01*
X225552000Y-167132000D02*
X225522000Y-167132000D01*
X236855000Y-214635000D02*
X243205000Y-214635000D01*
X362519600Y-157795600D02*
X367665000Y-162941000D01*
X264160000Y-32385000D02*
X265430000Y-33655000D01*
X233055000Y-67300000D02*
X234181900Y-67300000D01*
X315595000Y-77470000D02*
X318095000Y-77470000D01*
X302188450Y-35560000D02*
X303458450Y-34290000D01*
X315575000Y-107315000D02*
X314562500Y-106302500D01*
X286405000Y-154335000D02*
X288115100Y-154335000D01*
X335247600Y-80566500D02*
X344845100Y-80566500D01*
X230763400Y-168920000D02*
X231890300Y-167793100D01*
X290195000Y-52725000D02*
X291485000Y-51435000D01*
X233055000Y-128895000D02*
X234181900Y-128895000D01*
X206365000Y-123190000D02*
X207635000Y-124460000D01*
X225522000Y-167132000D02*
X222240000Y-163850000D01*
X290195000Y-76220000D02*
X291485000Y-74930000D01*
X307423400Y-154510000D02*
X315585000Y-154510000D01*
X231283100Y-123190000D02*
X231928100Y-122545000D01*
X256540000Y-161290000D02*
X255255000Y-162575000D01*
X284520000Y-32385000D02*
X286385000Y-30520000D01*
X330845000Y-59015000D02*
X330160000Y-59015000D01*
X219710000Y-186055000D02*
X222250000Y-183515000D01*
X294005000Y-27940000D02*
X294005000Y-28785200D01*
X217170000Y-186055000D02*
X208751900Y-186055000D01*
X262860000Y-92660000D02*
X265440000Y-95240000D01*
X238383400Y-168920000D02*
X243443400Y-163860000D01*
X203968100Y-97790000D02*
X206508100Y-95250000D01*
X294015000Y-104775000D02*
X291475000Y-104775000D01*
X257820000Y-65395000D02*
X256693100Y-65395000D01*
X237490000Y-168920000D02*
X234950000Y-168920000D01*
X318270000Y-53810000D02*
X319477500Y-52602500D01*
X219710000Y-163850000D02*
X220975000Y-163850000D01*
X224790000Y-161300000D02*
X225986700Y-160103300D01*
X225986700Y-160103300D02*
X228175300Y-160103300D01*
X303458450Y-34290000D02*
X303788400Y-34290000D01*
X294005000Y-28785200D02*
X294544900Y-29325100D01*
X220005200Y-162880200D02*
X212187100Y-162880200D01*
X359680900Y-74836900D02*
X360857800Y-73660000D01*
X302548400Y-159385000D02*
X307423400Y-154510000D01*
X329162000Y-134112000D02*
X328268600Y-134112000D01*
X223795800Y-162294200D02*
X224790000Y-161300000D01*
X236426200Y-65055700D02*
X234181900Y-67300000D01*
X286385000Y-130715000D02*
X288905000Y-130715000D01*
X323215000Y-74890000D02*
X322934200Y-74890000D01*
X332424400Y-157795600D02*
X362519600Y-157795600D01*
X317930000Y-154510000D02*
X319302500Y-153137500D01*
X315575000Y-30480000D02*
X318075000Y-30480000D01*
X323581600Y-106045000D02*
X322078100Y-106045000D01*
X228175300Y-160103300D02*
X229372000Y-161300000D01*
X177606900Y-190530000D02*
X179511900Y-188625000D01*
X199975000Y-159415000D02*
X207595000Y-159415000D01*
X220975000Y-163850000D02*
X220005200Y-162880200D01*
X205075000Y-92690000D02*
X207635000Y-95250000D01*
X222240000Y-163850000D02*
X223795800Y-162294200D01*
X300037700Y-161002300D02*
X291432500Y-161002300D01*
X307783400Y-53810000D02*
X315575000Y-53810000D01*
X243205000Y-214635000D02*
X249555000Y-214635000D01*
X258541800Y-160129600D02*
X257700400Y-160129600D01*
X315123100Y-131176900D02*
X315575000Y-130725000D01*
X324485000Y-29190000D02*
X319365000Y-29190000D01*
X302490200Y-82550000D02*
X307359800Y-77680400D01*
X258543700Y-160131500D02*
X258541800Y-160129600D01*
X288905000Y-107345000D02*
X290190000Y-106060000D01*
X257820000Y-65395000D02*
X258946900Y-65395000D01*
X247904000Y-163860000D02*
X249189000Y-162575000D01*
X178291900Y-65405000D02*
X200025000Y-65405000D01*
X262890000Y-28575000D02*
X262890000Y-31115000D01*
X206365000Y-123190000D02*
X231283100Y-123190000D01*
X316850000Y-107315000D02*
X318125000Y-107315000D01*
X205025000Y-154305000D02*
X207595000Y-156875000D01*
X299509800Y-34290000D02*
X294449800Y-29230000D01*
X286405000Y-54015000D02*
X288905000Y-54015000D01*
X262860000Y-90160000D02*
X262860000Y-92660000D01*
X205105000Y-28575000D02*
X205105000Y-31135000D01*
X307359800Y-77680400D02*
X315384600Y-77680400D01*
X236086900Y-126990000D02*
X234181900Y-128895000D01*
X314562500Y-106302500D02*
X308620900Y-106302500D01*
X328268600Y-134112000D02*
X324881600Y-130725000D01*
X323215000Y-151765000D02*
X320675000Y-151765000D01*
X259568100Y-160131500D02*
X258543700Y-160131500D01*
X286405000Y-77510000D02*
X288905000Y-77510000D01*
X319365000Y-29190000D02*
X320655000Y-27900000D01*
X262900000Y-57775000D02*
X262900000Y-60315000D01*
X290190000Y-106060000D02*
X291475000Y-104775000D01*
X257810000Y-170180000D02*
X259080000Y-168910000D01*
X294015000Y-128145000D02*
X291475000Y-128145000D01*
X315384600Y-77680400D02*
X315595000Y-77470000D01*
X315585000Y-154510000D02*
X317930000Y-154510000D01*
X288115100Y-154335000D02*
X288925000Y-154335000D01*
X319385000Y-76180000D02*
X320675000Y-74890000D01*
X256353800Y-65055700D02*
X236426200Y-65055700D01*
X323215000Y-74890000D02*
X320675000Y-74890000D01*
X294449800Y-29230000D02*
X290175000Y-29230000D01*
X199975000Y-188625000D02*
X207595000Y-188625000D01*
X249216600Y-163860000D02*
X248890000Y-163860000D01*
X288925000Y-154335000D02*
X290210000Y-153050000D01*
X301645000Y-59055000D02*
X303296000Y-57404000D01*
X227330000Y-168920000D02*
X227330000Y-168910000D01*
X207081600Y-62865000D02*
X207645000Y-62865000D01*
X288115100Y-156045100D02*
X286405000Y-154335000D01*
X200015000Y-127000000D02*
X207635000Y-127000000D01*
X333231900Y-80788100D02*
X335026000Y-80788100D01*
X177155000Y-127000000D02*
X200015000Y-127000000D01*
X315575000Y-107315000D02*
X316850000Y-107315000D01*
X290175000Y-29230000D02*
X291465000Y-27940000D01*
X315575000Y-53810000D02*
X318270000Y-53810000D01*
X367665000Y-162941000D02*
X367665000Y-163195000D01*
X256693100Y-65395000D02*
X256353800Y-65055700D01*
X323205000Y-128155000D02*
X320665000Y-128155000D01*
X264160000Y-32385000D02*
X284520000Y-32385000D01*
X319395000Y-106045000D02*
X322078100Y-106045000D01*
X205095000Y-119380000D02*
X205095000Y-121920000D01*
X288115100Y-157684900D02*
X288115100Y-156045100D01*
X318095000Y-77470000D02*
X319385000Y-76180000D01*
X330825000Y-135775000D02*
X329162000Y-134112000D01*
X323747500Y-52602500D02*
X319477500Y-52602500D01*
X246380000Y-186055000D02*
X248920000Y-186055000D01*
X229372000Y-161300000D02*
X229870000Y-161300000D01*
X217170000Y-186055000D02*
X219710000Y-186055000D01*
X233325100Y-167793100D02*
X234452000Y-168920000D01*
X257820000Y-126990000D02*
X265440000Y-126990000D01*
X207081600Y-62865000D02*
X206518100Y-62865000D01*
X205025000Y-151785000D02*
X205025000Y-154305000D01*
X300355000Y-34290000D02*
X299509800Y-34290000D01*
X255255000Y-162575000D02*
X250175000Y-162575000D01*
X301655000Y-159385000D02*
X300037700Y-161002300D01*
X229870000Y-168920000D02*
X230763400Y-168920000D01*
X291432500Y-161002300D02*
X288115100Y-157684900D01*
X246375000Y-163860000D02*
X248890000Y-163860000D01*
X303788400Y-34290000D02*
X307598400Y-30480000D01*
X326068200Y-78024000D02*
X326349000Y-78024000D01*
X179511900Y-188625000D02*
X199975000Y-188625000D01*
X234452000Y-168920000D02*
X234950000Y-168920000D01*
X330835000Y-159385000D02*
X332424400Y-157795600D01*
X326349000Y-78024000D02*
X330835000Y-82510000D01*
X290210000Y-153050000D02*
X291495000Y-151765000D01*
X205065000Y-57785000D02*
X205065000Y-60285000D01*
X257810000Y-36195000D02*
X265430000Y-36195000D01*
X207635000Y-95250000D02*
X206508100Y-95250000D01*
X205065000Y-183555000D02*
X207595000Y-186085000D01*
X328534600Y-110998000D02*
X323581600Y-106045000D01*
X254266600Y-168910000D02*
X249216600Y-163860000D01*
X323195000Y-27900000D02*
X320655000Y-27900000D01*
X200015000Y-36205000D02*
X207635000Y-36205000D01*
X294035000Y-151765000D02*
X291495000Y-151765000D01*
X265440000Y-126990000D02*
X266566900Y-126990000D01*
X319395000Y-106045000D02*
X320665000Y-104775000D01*
X229870000Y-168920000D02*
X227330000Y-168920000D01*
X288885000Y-30520000D02*
X290175000Y-29230000D01*
X330160000Y-59015000D02*
X323747500Y-52602500D01*
X330835000Y-82510000D02*
X331510000Y-82510000D01*
X262900000Y-60315000D02*
X265440000Y-62855000D01*
X350573200Y-74838400D02*
X359680900Y-74838400D01*
X203978100Y-65405000D02*
X206518100Y-62865000D01*
X255905000Y-214635000D02*
X262255000Y-214635000D01*
X301625000Y-35560000D02*
X300355000Y-34290000D01*
X249555000Y-214635000D02*
X255905000Y-214635000D01*
X262890000Y-31115000D02*
X264160000Y-32385000D01*
X344845100Y-80566500D02*
X350573200Y-74838400D01*
X330825000Y-112395000D02*
X329428000Y-110998000D01*
X331510000Y-82510000D02*
X333231900Y-80788100D01*
X255536600Y-170180000D02*
X257810000Y-170180000D01*
X233055000Y-60950000D02*
X231928100Y-60950000D01*
X322934200Y-74890000D02*
X326068200Y-78024000D01*
X319477500Y-52602500D02*
X320685000Y-51395000D01*
X200015000Y-97790000D02*
X203968100Y-97790000D01*
X315575000Y-130725000D02*
X318095000Y-130725000D01*
X220975000Y-163850000D02*
X222240000Y-163850000D01*
X301244000Y-82550000D02*
X301645000Y-82550000D01*
X229870000Y-161300000D02*
X232410000Y-161300000D01*
X288905000Y-77510000D02*
X290195000Y-76220000D01*
X205075000Y-90170000D02*
X205075000Y-92690000D01*
X205065000Y-180995000D02*
X205065000Y-183555000D01*
X176480000Y-190530000D02*
X177606900Y-190530000D01*
X176386900Y-67310000D02*
X178291900Y-65405000D01*
X301655000Y-159385000D02*
X302548400Y-159385000D01*
X260459600Y-160129600D02*
X259570000Y-160129600D01*
X205105000Y-31135000D02*
X207635000Y-33665000D01*
X264313100Y-65395000D02*
X258946900Y-65395000D01*
X329428000Y-110998000D02*
X328534600Y-110998000D01*
X291485000Y-74930000D02*
X294025000Y-74930000D01*
X207645000Y-62865000D02*
X230013100Y-62865000D01*
X175260000Y-67310000D02*
X176386900Y-67310000D01*
X286385000Y-107345000D02*
X288905000Y-107345000D01*
X265440000Y-65395000D02*
X264313100Y-65395000D01*
X227330000Y-168910000D02*
X225552000Y-167132000D01*
X212187100Y-162880200D02*
X208721900Y-159415000D01*
X237490000Y-168920000D02*
X238383400Y-168920000D01*
X301625000Y-35560000D02*
X302188450Y-35560000D01*
X254000000Y-168910000D02*
X254266600Y-168910000D01*
X262850000Y-119380000D02*
X262850000Y-121860000D01*
X262850000Y-121860000D02*
X265440000Y-124450000D01*
X318095000Y-130725000D02*
X320665000Y-128155000D01*
X319302500Y-153137500D02*
X320675000Y-151765000D01*
X294025000Y-75331000D02*
X301244000Y-82550000D01*
X257820000Y-126990000D02*
X236086900Y-126990000D01*
X261620000Y-161290000D02*
X260459600Y-160129600D01*
X208751900Y-186055000D02*
X208721900Y-186085000D01*
X291232600Y-128387400D02*
X291475000Y-128145000D01*
X207595000Y-186085000D02*
X208721900Y-186085000D01*
X318075000Y-30480000D02*
X319365000Y-29190000D01*
X205065000Y-60285000D02*
X207645000Y-62865000D01*
X335026000Y-80788100D02*
X335247600Y-80566500D01*
X294025000Y-51435000D02*
X291485000Y-51435000D01*
X286385000Y-30520000D02*
X288885000Y-30520000D01*
X302528400Y-112395000D02*
X301635000Y-112395000D01*
X233055000Y-122545000D02*
X231928100Y-122545000D01*
X288905000Y-130715000D02*
X291232600Y-128387400D01*
X303296000Y-57404000D02*
X304189400Y-57404000D01*
X249189000Y-162575000D02*
X250175000Y-162575000D01*
X282660000Y-126990000D02*
X266566900Y-126990000D01*
X259570000Y-160129600D02*
X259568100Y-160131500D01*
X243443400Y-163860000D02*
X246375000Y-163860000D01*
X286385000Y-130715000D02*
X282660000Y-126990000D01*
X254266600Y-168910000D02*
X255536600Y-170180000D01*
X320685000Y-51395000D02*
X323225000Y-51395000D01*
X307598400Y-30480000D02*
X315575000Y-30480000D01*
X330815000Y-35520000D02*
X324485000Y-29190000D01*
X231890300Y-167793100D02*
X233325100Y-167793100D01*
X288905000Y-54015000D02*
X290195000Y-52725000D01*
X294025000Y-74930000D02*
X294025000Y-75331000D01*
X359680900Y-74838400D02*
X359680900Y-74836900D01*
X205095000Y-121920000D02*
X206365000Y-123190000D01*
X304189400Y-57404000D02*
X307783400Y-53810000D01*
X175260000Y-128895000D02*
X177155000Y-127000000D01*
X250175000Y-162575000D02*
X251460000Y-161290000D01*
X200025000Y-65405000D02*
X203978100Y-65405000D01*
X301635000Y-135765000D02*
X301635000Y-134638100D01*
X257700400Y-160129600D02*
X256540000Y-161290000D01*
X248920000Y-186055000D02*
X251460000Y-183515000D01*
X318125000Y-107315000D02*
X319395000Y-106045000D01*
X268605000Y-214635000D02*
X262255000Y-214635000D01*
%TO.N,Net-(D1-K)*%
X186640000Y-171480000D02*
X189180000Y-171480000D01*
%TO.N,Net-(D1-A)*%
X191720000Y-171480000D02*
X196165000Y-167035000D01*
X196165000Y-167035000D02*
X199975000Y-167035000D01*
%TO.N,Net-(D2-K)*%
X186640000Y-177830000D02*
X189180000Y-177830000D01*
%TO.N,Net-(D3-K)*%
X186640000Y-184180000D02*
X189180000Y-184180000D01*
%TO.N,Net-(D4-K)*%
X186640000Y-190530000D02*
X189180000Y-190530000D01*
%TO.N,Net-(D4-A)*%
X195673100Y-190530000D02*
X198848100Y-193705000D01*
X199975000Y-193705000D02*
X198848100Y-193705000D01*
X191720000Y-190530000D02*
X195673100Y-190530000D01*
%TO.N,Net-(D5-K)*%
X186640000Y-196880000D02*
X189180000Y-196880000D01*
%TO.N,Net-(D5-A)*%
X199975000Y-196245000D02*
X198848100Y-196245000D01*
X191720000Y-196880000D02*
X198213100Y-196880000D01*
X198213100Y-196880000D02*
X198848100Y-196245000D01*
%TO.N,Net-(D6-K)*%
X186640000Y-203230000D02*
X189180000Y-203230000D01*
%TO.N,Net-(D6-A)*%
X196165000Y-198785000D02*
X199975000Y-198785000D01*
X191720000Y-203230000D02*
X196165000Y-198785000D01*
%TO.N,Net-(D7-K)*%
X243215000Y-109845000D02*
X247020000Y-109845000D01*
%TO.N,R35*%
X295179600Y-101531500D02*
X294077900Y-102633200D01*
X267475600Y-102633200D02*
X265890200Y-104218600D01*
X310964300Y-101785700D02*
X297365700Y-101785700D01*
X312681100Y-100965000D02*
X311785000Y-100965000D01*
X254005000Y-105400000D02*
X257820000Y-105400000D01*
X249560000Y-109845000D02*
X254005000Y-105400000D01*
X257820000Y-105400000D02*
X258946900Y-105400000D01*
X311785000Y-100965000D02*
X310964300Y-101785700D01*
X296545000Y-100965000D02*
X295746100Y-100965000D01*
X295746100Y-100965000D02*
X295179600Y-101531500D01*
X294077900Y-102633200D02*
X267475600Y-102633200D01*
X265890200Y-104218600D02*
X260128300Y-104218600D01*
X260128300Y-104218600D02*
X258946900Y-105400000D01*
X297365700Y-101785700D02*
X296545000Y-100965000D01*
%TO.N,Net-(D8-K)*%
X243215000Y-116195000D02*
X247020000Y-116195000D01*
%TO.N,R34*%
X295877900Y-102539700D02*
X298458200Y-102539700D01*
X257815000Y-107940000D02*
X257820000Y-107940000D01*
X284971900Y-106813100D02*
X288382000Y-103403000D01*
X249560000Y-116195000D02*
X257815000Y-107940000D01*
X258946900Y-106813100D02*
X284971900Y-106813100D01*
X295014600Y-103403000D02*
X295877900Y-102539700D01*
X288382000Y-103403000D02*
X295014600Y-103403000D01*
X257820000Y-107940000D02*
X258946900Y-106813100D01*
%TO.N,Net-(D9-K)*%
X243215000Y-122545000D02*
X247020000Y-122545000D01*
%TO.N,R33*%
X254978400Y-117128800D02*
X249562200Y-122545000D01*
X284967100Y-117128800D02*
X254978400Y-117128800D01*
X305588100Y-104989200D02*
X303132500Y-107444800D01*
X305588100Y-104308200D02*
X305588100Y-104989200D01*
X294651100Y-107444800D02*
X284967100Y-117128800D01*
X308128100Y-103648100D02*
X306248200Y-103648100D01*
X309255000Y-104775000D02*
X308128100Y-103648100D01*
X306248200Y-103648100D02*
X305588100Y-104308200D01*
X249562200Y-122545000D02*
X249560000Y-122545000D01*
X303132500Y-107444800D02*
X294651100Y-107444800D01*
%TO.N,Net-(D10-K)*%
X243215000Y-128895000D02*
X247020000Y-128895000D01*
%TO.N,R32*%
X344012200Y-117650300D02*
X259795200Y-117650300D01*
X257820000Y-132070000D02*
X257068000Y-131318000D01*
X338455000Y-74890000D02*
X344765000Y-74890000D01*
X259795200Y-117650300D02*
X258720700Y-118724800D01*
X257068000Y-131318000D02*
X251983000Y-131318000D01*
X344765000Y-74890000D02*
X344805000Y-74930000D01*
X251983000Y-131318000D02*
X249560000Y-128895000D01*
X344423300Y-118061400D02*
X344012200Y-117650300D01*
%TO.N,Net-(D11-K)*%
X243215000Y-135245000D02*
X247020000Y-135245000D01*
%TO.N,R31*%
X324552800Y-128572500D02*
X325742900Y-129762600D01*
X317595600Y-127022800D02*
X323675600Y-127022800D01*
X263525000Y-144780000D02*
X264183300Y-145438300D01*
X264183300Y-145438300D02*
X278596400Y-145438300D01*
X324552800Y-127900000D02*
X324552800Y-128572500D01*
X257820000Y-134610000D02*
X261695800Y-134610000D01*
X323675600Y-127022800D02*
X324552800Y-127900000D01*
X313893400Y-130725000D02*
X317595600Y-127022800D01*
X249560000Y-135245000D02*
X256058100Y-135245000D01*
X278596400Y-145438300D02*
X293309700Y-130725000D01*
X257256600Y-134610000D02*
X257820000Y-134610000D01*
X257256600Y-134610000D02*
X256693100Y-134610000D01*
X293309700Y-130725000D02*
X313893400Y-130725000D01*
X256058100Y-135245000D02*
X256693100Y-134610000D01*
X336837400Y-129762600D02*
X338445000Y-128155000D01*
X325742900Y-129762600D02*
X336837400Y-129762600D01*
X261695800Y-134610000D02*
X262258700Y-135172900D01*
%TO.N,Net-(D12-K)*%
X243215000Y-141595000D02*
X247020000Y-141595000D01*
%TO.N,R30*%
X264173900Y-135880000D02*
X262903900Y-137150000D01*
X319350400Y-121715500D02*
X311289000Y-129776900D01*
X280416500Y-135880000D02*
X264173900Y-135880000D01*
X289171000Y-132020600D02*
X284275900Y-132020600D01*
X249560000Y-141595000D02*
X254005000Y-137150000D01*
X341439600Y-121715500D02*
X319350400Y-121715500D01*
X284275900Y-132020600D02*
X280416500Y-135880000D01*
X291414700Y-129776900D02*
X289171000Y-132020600D01*
X341716500Y-121438600D02*
X341439600Y-121715500D01*
X254005000Y-137150000D02*
X257820000Y-137150000D01*
X262903900Y-137150000D02*
X257820000Y-137150000D01*
X311289000Y-129776900D02*
X291414700Y-129776900D01*
%TO.N,Net-(D13-K)*%
X247035000Y-48260000D02*
X245808100Y-48260000D01*
X243215000Y-48250000D02*
X245798100Y-48250000D01*
X245798100Y-48250000D02*
X245808100Y-48260000D01*
%TO.N,R25*%
X251460000Y-58911600D02*
X260925100Y-58911600D01*
X307851900Y-75644500D02*
X307851900Y-74930000D01*
X262431300Y-56627500D02*
X263687500Y-56627500D01*
X312947000Y-76953500D02*
X312193500Y-76200000D01*
X260925100Y-58911600D02*
X261773100Y-58063600D01*
X303905400Y-63240400D02*
X304800000Y-64135000D01*
X312193500Y-76200000D02*
X308407400Y-76200000D01*
X261773100Y-57285700D02*
X262431300Y-56627500D01*
X261773100Y-58063600D02*
X261773100Y-57285700D01*
X307851900Y-74930000D02*
X306725000Y-74930000D01*
X263687500Y-56627500D02*
X270300400Y-63240400D01*
X270300400Y-63240400D02*
X303905400Y-63240400D01*
X308407400Y-76200000D02*
X307851900Y-75644500D01*
%TO.N,Net-(D14-K)*%
X243215000Y-54600000D02*
X243225000Y-54610000D01*
X243225000Y-54610000D02*
X247035000Y-54610000D01*
%TO.N,R24*%
X298625800Y-129315200D02*
X305544800Y-129315200D01*
X306725000Y-51435000D02*
X302970800Y-55189200D01*
X305544800Y-129315200D02*
X306715000Y-128145000D01*
X291771900Y-121705200D02*
X297825000Y-127758300D01*
X297825000Y-127758300D02*
X297825000Y-128514400D01*
X280991500Y-121705200D02*
X291771900Y-121705200D01*
X278722100Y-54610000D02*
X249575000Y-54610000D01*
X279301300Y-55189200D02*
X278722100Y-54610000D01*
X279301300Y-120015000D02*
X280991500Y-121705200D01*
X302970800Y-55189200D02*
X279301300Y-55189200D01*
X297825000Y-128514400D02*
X298625800Y-129315200D01*
%TO.N,Net-(D15-K)*%
X243215000Y-60950000D02*
X245798100Y-60950000D01*
X245798100Y-60950000D02*
X245808100Y-60960000D01*
X247035000Y-60960000D02*
X245808100Y-60960000D01*
%TO.N,R23*%
X273005250Y-55790500D02*
X272549250Y-55334500D01*
X272549250Y-55334500D02*
X253783500Y-55334500D01*
X249575000Y-59543000D02*
X249575000Y-60960000D01*
X280238000Y-96911200D02*
X278576800Y-95250000D01*
X305435000Y-97033500D02*
X305312700Y-96911200D01*
X305312700Y-96911200D02*
X280238000Y-96911200D01*
X253783500Y-55334500D02*
X249575000Y-59543000D01*
%TO.N,Net-(D16-K)*%
X245798100Y-67300000D02*
X245808100Y-67310000D01*
X247035000Y-67310000D02*
X245808100Y-67310000D01*
X243215000Y-67300000D02*
X245798100Y-67300000D01*
%TO.N,R22*%
X257820000Y-70475000D02*
X258946900Y-70475000D01*
X337041900Y-76021800D02*
X344410200Y-76021800D01*
X249575000Y-67310000D02*
X252740000Y-70475000D01*
X260137500Y-71665600D02*
X258946900Y-70475000D01*
X337041900Y-76016900D02*
X337041900Y-76021800D01*
X332425500Y-66561900D02*
X271254000Y-66561900D01*
X266150300Y-71665600D02*
X260137500Y-71665600D01*
X271254000Y-66561900D02*
X266150300Y-71665600D01*
X252740000Y-70475000D02*
X257820000Y-70475000D01*
X335915000Y-74890000D02*
X337041900Y-76016900D01*
X332833200Y-66969600D02*
X332425500Y-66561900D01*
%TO.N,Net-(D17-K)*%
X247035000Y-73660000D02*
X245808100Y-73660000D01*
X243215000Y-73650000D02*
X245798100Y-73650000D01*
X245798100Y-73650000D02*
X245808100Y-73660000D01*
%TO.N,R21*%
X257256600Y-73015000D02*
X257820000Y-73015000D01*
X326671500Y-87252500D02*
X332202300Y-92783300D01*
X332202300Y-92783300D02*
X332202300Y-94567300D01*
X258445000Y-85725000D02*
X259972500Y-87252500D01*
X256048100Y-73660000D02*
X256693100Y-73015000D01*
X257256600Y-73015000D02*
X256693100Y-73015000D01*
X249575000Y-73660000D02*
X256048100Y-73660000D01*
X259972500Y-87252500D02*
X326671500Y-87252500D01*
%TO.N,Net-(D18-K)*%
X243215000Y-80000000D02*
X245798100Y-80000000D01*
X247035000Y-80010000D02*
X245808100Y-80010000D01*
X245798100Y-80000000D02*
X245808100Y-80010000D01*
%TO.N,R20*%
X260085300Y-76693400D02*
X267074300Y-76693400D01*
X258946900Y-75555000D02*
X260085300Y-76693400D01*
X257256600Y-75555000D02*
X256693100Y-75555000D01*
X257256600Y-75555000D02*
X257820000Y-75555000D01*
X341385200Y-68708300D02*
X341385200Y-68702700D01*
X344275918Y-68760469D02*
X343821387Y-69215000D01*
X275059400Y-68708300D02*
X341385200Y-68708300D01*
X252238100Y-80010000D02*
X249575000Y-80010000D01*
X257820000Y-75555000D02*
X258946900Y-75555000D01*
X341891900Y-69215000D02*
X341385200Y-68708300D01*
X256693100Y-75555000D02*
X252238100Y-80010000D01*
X343821387Y-69215000D02*
X341891900Y-69215000D01*
X267074300Y-76693400D02*
X275059400Y-68708300D01*
%TO.N,Net-(D19-K)*%
X185420000Y-109845000D02*
X189225000Y-109845000D01*
%TO.N,R15*%
X205065700Y-101486200D02*
X294166700Y-101486200D01*
X191765000Y-109845000D02*
X196200000Y-105410000D01*
X196200000Y-105410000D02*
X200015000Y-105410000D01*
X304185000Y-78949400D02*
X302092300Y-81042100D01*
X304185000Y-74930000D02*
X304185000Y-78949400D01*
X200015000Y-105410000D02*
X201141900Y-105410000D01*
X294166700Y-101486200D02*
X295322900Y-100330000D01*
X295322900Y-100330000D02*
X309962700Y-100330000D01*
X201141900Y-105410000D02*
X205065700Y-101486200D01*
X309962700Y-100330000D02*
X310381900Y-100749200D01*
%TO.N,Net-(D20-K)*%
X185420000Y-116195000D02*
X189225000Y-116195000D01*
%TO.N,R14*%
X197929200Y-110030800D02*
X198888100Y-109071900D01*
X253527500Y-114899900D02*
X284840800Y-114899900D01*
X200015000Y-107950000D02*
X209999300Y-117934300D01*
X209999300Y-117934300D02*
X250493100Y-117934300D01*
X250493100Y-117934300D02*
X253527500Y-114899900D01*
X284840800Y-114899900D02*
X293530200Y-106210500D01*
X198888100Y-109071900D02*
X198888100Y-107950000D01*
X200015000Y-107950000D02*
X198888100Y-107950000D01*
X191765000Y-116195000D02*
X197929200Y-110030800D01*
%TO.N,Net-(D21-K)*%
X185420000Y-122545000D02*
X189225000Y-122545000D01*
%TO.N,R13*%
X255030100Y-116438000D02*
X250962700Y-120505400D01*
X303038100Y-105901900D02*
X295554900Y-105901900D01*
X304165000Y-104775000D02*
X303038100Y-105901900D01*
X285018800Y-116438000D02*
X255030100Y-116438000D01*
X232552200Y-125590000D02*
X194810000Y-125590000D01*
X250962700Y-120505400D02*
X237636800Y-120505400D01*
X295554900Y-105901900D02*
X285018800Y-116438000D01*
X304175000Y-104775000D02*
X304165000Y-104775000D01*
X237636800Y-120505400D02*
X232552200Y-125590000D01*
X194810000Y-125590000D02*
X191765000Y-122545000D01*
%TO.N,Net-(D22-K)*%
X185420000Y-128895000D02*
X189230000Y-128895000D01*
%TO.N,R12*%
X253977000Y-126407800D02*
X211575800Y-126407800D01*
X195703100Y-128895000D02*
X198888100Y-132080000D01*
X336451200Y-78173300D02*
X344410200Y-78173300D01*
X353981600Y-113407800D02*
X348603500Y-118785900D01*
X353584500Y-111101200D02*
X353981600Y-111498300D01*
X345004200Y-111101200D02*
X353584500Y-111101200D01*
X333375000Y-74890000D02*
X333375000Y-75097100D01*
X199451600Y-132080000D02*
X198888100Y-132080000D01*
X265801600Y-125720000D02*
X254664800Y-125720000D01*
X211575800Y-126407800D02*
X209601000Y-128382600D01*
X348603500Y-118785900D02*
X272735700Y-118785900D01*
X254664800Y-125720000D02*
X253977000Y-126407800D01*
X204839300Y-128382600D02*
X201141900Y-132080000D01*
X272735700Y-118785900D02*
X265801600Y-125720000D01*
X191770000Y-128895000D02*
X195703100Y-128895000D01*
X199451600Y-132080000D02*
X200015000Y-132080000D01*
X209601000Y-128382600D02*
X204839300Y-128382600D01*
X333375000Y-75097100D02*
X336451200Y-78173300D01*
X353981600Y-111498300D02*
X353981600Y-113407800D01*
X343471900Y-112633500D02*
X345004200Y-111101200D01*
X201141900Y-132080000D02*
X200015000Y-132080000D01*
%TO.N,Net-(D23-K)*%
X185420000Y-135245000D02*
X189230000Y-135245000D01*
%TO.N,R11*%
X325796300Y-126570900D02*
X317318400Y-126570900D01*
X327015000Y-128549600D02*
X327015000Y-127789600D01*
X201141900Y-134620000D02*
X200015000Y-134620000D01*
X332232000Y-129286000D02*
X332209100Y-129308900D01*
X317318400Y-126570900D02*
X313660500Y-130228800D01*
X262440400Y-140816900D02*
X259884300Y-143373000D01*
X293166800Y-130228800D02*
X282578700Y-140816900D01*
X332209100Y-129308900D02*
X327774300Y-129308900D01*
X208165200Y-138430000D02*
X204951900Y-138430000D01*
X191770000Y-135245000D02*
X198263100Y-135245000D01*
X213108200Y-143373000D02*
X208165200Y-138430000D01*
X204951900Y-138430000D02*
X201141900Y-134620000D01*
X198263100Y-135245000D02*
X198888100Y-134620000D01*
X313660500Y-130228800D02*
X293166800Y-130228800D01*
X332234000Y-129286000D02*
X332232000Y-129286000D01*
X282578700Y-140816900D02*
X262440400Y-140816900D01*
X199451600Y-134620000D02*
X198888100Y-134620000D01*
X327774300Y-129308900D02*
X327015000Y-128549600D01*
X327015000Y-127789600D02*
X325796300Y-126570900D01*
X259884300Y-143373000D02*
X213108200Y-143373000D01*
X199451600Y-134620000D02*
X200015000Y-134620000D01*
X333365000Y-128155000D02*
X332234000Y-129286000D01*
%TO.N,Net-(D24-K)*%
X185420000Y-141595000D02*
X189230000Y-141595000D01*
%TO.N,R10*%
X299364300Y-102683900D02*
X298525200Y-103523000D01*
X338379500Y-101600000D02*
X336540000Y-101600000D01*
X203878300Y-118977800D02*
X203878300Y-120094900D01*
X253611600Y-115454900D02*
X250674300Y-118392200D01*
X339014500Y-100965000D02*
X338379500Y-101600000D01*
X191770000Y-141595000D02*
X196205000Y-137160000D01*
X336540000Y-101600000D02*
X333365000Y-104775000D01*
X298525200Y-103523000D02*
X296209500Y-103523000D01*
X285313800Y-115454900D02*
X253611600Y-115454900D01*
X250674300Y-118392200D02*
X209193100Y-118392200D01*
X333365000Y-104765000D02*
X331283900Y-102683900D01*
X333365000Y-104775000D02*
X333365000Y-104765000D01*
X295285000Y-105483700D02*
X285313800Y-115454900D01*
X204645000Y-118211100D02*
X203878300Y-118977800D01*
X331283900Y-102683900D02*
X299364300Y-102683900D01*
X209193100Y-118392200D02*
X209012000Y-118211100D01*
X203878300Y-120094900D02*
X201642500Y-122330700D01*
X296209500Y-103523000D02*
X295285000Y-104447500D01*
X295285000Y-104447500D02*
X295285000Y-105483700D01*
X209012000Y-118211100D02*
X204645000Y-118211100D01*
X196205000Y-137160000D02*
X200015000Y-137160000D01*
%TO.N,Net-(D25-K)*%
X185420000Y-48260000D02*
X189235000Y-48260000D01*
%TO.N,R05*%
X198120000Y-45720000D02*
X200015000Y-43825000D01*
X192400000Y-47635000D02*
X191775000Y-48260000D01*
X194315000Y-45720000D02*
X198120000Y-45720000D01*
X283506800Y-64928800D02*
X282621500Y-64043500D01*
X223689000Y-50247400D02*
X203157600Y-50247400D01*
X200545200Y-47635000D02*
X192400000Y-47635000D01*
X300766000Y-150876000D02*
X299872600Y-150876000D01*
X191775000Y-48260000D02*
X194315000Y-45720000D01*
X298117800Y-149121200D02*
X297412800Y-149121200D01*
X238124200Y-64043500D02*
X224779900Y-50699200D01*
X301655000Y-151765000D02*
X300766000Y-150876000D01*
X224140800Y-50699200D02*
X223689000Y-50247400D01*
X282621500Y-64043500D02*
X238124200Y-64043500D01*
X299872600Y-150876000D02*
X298117800Y-149121200D01*
X224779900Y-50699200D02*
X224140800Y-50699200D01*
X203157600Y-50247400D02*
X200545200Y-47635000D01*
%TO.N,Net-(D26-K)*%
X185420000Y-54610000D02*
X189235000Y-54610000D01*
%TO.N,R04*%
X201141900Y-46365000D02*
X202330000Y-47553100D01*
X281957500Y-120015000D02*
X282759800Y-120817300D01*
X257214600Y-47628000D02*
X282463200Y-47628000D01*
X231866900Y-47553100D02*
X232440200Y-46979800D01*
X232440200Y-46979800D02*
X256566400Y-46979800D01*
X200015000Y-46365000D02*
X201141900Y-46365000D01*
X299252300Y-120817300D02*
X300355000Y-121920000D01*
X202330000Y-47553100D02*
X231866900Y-47553100D01*
X282759800Y-120817300D02*
X299252300Y-120817300D01*
X297838000Y-47628000D02*
X282463200Y-47628000D01*
X301645000Y-51435000D02*
X297838000Y-47628000D01*
X256566400Y-46979800D02*
X257214600Y-47628000D01*
%TO.N,Net-(D27-K)*%
X185420000Y-60960000D02*
X189235000Y-60960000D01*
%TO.N,R03*%
X295057200Y-88581200D02*
X213408900Y-88581200D01*
X213408900Y-88581200D02*
X201344500Y-76516800D01*
X300355000Y-94615000D02*
X300355000Y-93879000D01*
X301635000Y-96186700D02*
X301635000Y-95895000D01*
X301635000Y-95895000D02*
X300355000Y-94615000D01*
X300355000Y-93879000D02*
X295057200Y-88581200D01*
%TO.N,Net-(D28-K)*%
X185420000Y-67310000D02*
X189235000Y-67310000D01*
%TO.N,R02*%
X199461600Y-70485000D02*
X200025000Y-70485000D01*
X233283500Y-81822200D02*
X228296300Y-76835000D01*
X330835000Y-74890000D02*
X330160000Y-74890000D01*
X199461600Y-70485000D02*
X198898100Y-70485000D01*
X332205196Y-75566900D02*
X335378296Y-78740000D01*
X343815900Y-78740000D02*
X344410200Y-79334300D01*
X200870200Y-70485000D02*
X200025000Y-70485000D01*
X286877200Y-73299200D02*
X278354200Y-81822200D01*
X331511900Y-75566900D02*
X332205196Y-75566900D01*
X278354200Y-81822200D02*
X233283500Y-81822200D01*
X191775000Y-67310000D02*
X195723100Y-67310000D01*
X195723100Y-67310000D02*
X198898100Y-70485000D01*
X330160000Y-74890000D02*
X328569200Y-73299200D01*
X335378296Y-78740000D02*
X343815900Y-78740000D01*
X228296300Y-76835000D02*
X207220200Y-76835000D01*
X330835000Y-74890000D02*
X331511900Y-75566900D01*
X207220200Y-76835000D02*
X200870200Y-70485000D01*
X328569200Y-73299200D02*
X286877200Y-73299200D01*
%TO.N,Net-(D29-K)*%
X185420000Y-73660000D02*
X189235000Y-73660000D01*
%TO.N,R01*%
X219834100Y-88129300D02*
X326505500Y-88129300D01*
X191775000Y-73660000D02*
X198263100Y-73660000D01*
X198263100Y-73660000D02*
X198898100Y-73025000D01*
X206441000Y-79441000D02*
X211145800Y-79441000D01*
X326505500Y-88129300D02*
X327410500Y-89034300D01*
X199461600Y-73025000D02*
X198898100Y-73025000D01*
X200025000Y-73025000D02*
X206441000Y-79441000D01*
X211145800Y-79441000D02*
X219834100Y-88129300D01*
X199461600Y-73025000D02*
X200025000Y-73025000D01*
%TO.N,Net-(D30-K)*%
X185420000Y-80010000D02*
X189235000Y-80010000D01*
%TO.N,R00*%
X330825000Y-97758000D02*
X336063500Y-97758000D01*
X200798100Y-89033100D02*
X266115000Y-89033100D01*
X191775000Y-80010000D02*
X196220000Y-75565000D01*
X196220000Y-75565000D02*
X200025000Y-75565000D01*
X274839900Y-97758000D02*
X330825000Y-97758000D01*
X266115000Y-89033100D02*
X274839900Y-97758000D01*
X336063500Y-97758000D02*
X337936500Y-95885000D01*
X191775000Y-80010000D02*
X200798100Y-89033100D01*
%TO.N,pc5*%
X319027600Y-155815100D02*
X308965100Y-155815100D01*
X323438900Y-153191700D02*
X321651000Y-153191700D01*
X308965100Y-155815100D02*
X308487500Y-156292700D01*
X305465000Y-158985800D02*
X305465000Y-159749200D01*
X305465000Y-159749200D02*
X303761900Y-161452300D01*
X308158100Y-156292700D02*
X305465000Y-158985800D01*
X324485000Y-151399000D02*
X324485000Y-152145600D01*
X360908600Y-126771400D02*
X362100600Y-125579400D01*
X321651000Y-153191700D02*
X319027600Y-155815100D01*
X362100600Y-125579400D02*
X362100600Y-124132900D01*
X350002500Y-125881500D02*
X324485000Y-151399000D01*
X303761900Y-161452300D02*
X291246104Y-161452300D01*
X361399900Y-123432200D02*
X352548400Y-123432200D01*
X360908600Y-127228600D02*
X360908600Y-126771400D01*
X308487500Y-156292700D02*
X308158100Y-156292700D01*
X362100600Y-124132900D02*
X361399900Y-123432200D01*
X352548400Y-123432200D02*
X350099100Y-125881500D01*
X350099100Y-125881500D02*
X350002500Y-125881500D01*
X291246104Y-161452300D02*
X291083804Y-161290000D01*
X324485000Y-152145600D02*
X323438900Y-153191700D01*
X291083804Y-161290000D02*
X266700000Y-161290000D01*
%TO.N,pc4*%
X240538000Y-194637500D02*
X243205000Y-197304500D01*
X348898600Y-129556200D02*
X327025000Y-151429800D01*
X253588100Y-189952000D02*
X251049300Y-189952000D01*
X325541400Y-153643700D02*
X322345800Y-153643700D01*
X290315300Y-185092300D02*
X258447800Y-185092300D01*
X243205000Y-197304500D02*
X243205000Y-199395000D01*
X327025000Y-152160100D02*
X325541400Y-153643700D01*
X327025000Y-151429800D02*
X327025000Y-152160100D01*
X322345800Y-153643700D02*
X308723800Y-167265700D01*
X356363800Y-129556200D02*
X348898600Y-129556200D01*
X246363800Y-194637500D02*
X243205000Y-194637500D01*
X308141900Y-167265700D02*
X290315300Y-185092300D01*
X258447800Y-185092300D02*
X253588100Y-189952000D01*
X243205000Y-194637500D02*
X239395000Y-194637500D01*
X308723800Y-167265700D02*
X308141900Y-167265700D01*
X251049300Y-189952000D02*
X246363800Y-194637500D01*
%TO.N,pc3*%
X256540000Y-191135000D02*
X257452100Y-191135000D01*
X257955000Y-191600991D02*
X258614009Y-192260000D01*
X295332592Y-182626000D02*
X331708600Y-182626000D01*
X349448800Y-164885800D02*
X349448800Y-164885700D01*
X257955000Y-190632100D02*
X257955000Y-191600991D01*
X258614009Y-192260000D02*
X285698592Y-192260000D01*
X331708600Y-182626000D02*
X349448800Y-164885800D01*
X349448800Y-164885700D02*
X362110500Y-164885700D01*
X257452100Y-191135000D02*
X257955000Y-190632100D01*
X285698592Y-192260000D02*
X295332592Y-182626000D01*
%TO.N,pc2*%
X356638800Y-135647400D02*
X338190600Y-154095600D01*
X308329000Y-167717700D02*
X286997500Y-189049200D01*
X286997500Y-189049200D02*
X261546800Y-189049200D01*
X356638800Y-130893600D02*
X356638800Y-135647400D01*
X338190600Y-154095600D02*
X322590200Y-154095600D01*
X358368600Y-124688600D02*
X357193600Y-125863600D01*
X308968100Y-167717700D02*
X308329000Y-167717700D01*
X357193600Y-130338800D02*
X356638800Y-130893600D01*
X322590200Y-154095600D02*
X308968100Y-167717700D01*
X357193600Y-125863600D02*
X357193600Y-130338800D01*
X259461000Y-191135000D02*
X259080000Y-191135000D01*
X261546800Y-189049200D02*
X259461000Y-191135000D01*
%TO.N,pc1*%
X335581600Y-157343700D02*
X357156600Y-135768700D01*
X357156600Y-135768700D02*
X357156600Y-131848100D01*
X264142900Y-189501100D02*
X287184700Y-189501100D01*
X318457100Y-168328500D02*
X327025000Y-159760600D01*
X308357300Y-168328500D02*
X318457100Y-168328500D01*
X359638600Y-129359600D02*
X360592700Y-128405500D01*
X362562300Y-127287500D02*
X362562300Y-123802300D01*
X359638600Y-130199500D02*
X359638600Y-129359600D01*
X358757300Y-131080800D02*
X359638600Y-130199500D01*
X357156600Y-131848100D02*
X357923900Y-131080800D01*
X261620000Y-191135000D02*
X262509000Y-191135000D01*
X328682600Y-157343700D02*
X335581600Y-157343700D01*
X362562300Y-123802300D02*
X360908600Y-122148600D01*
X287184700Y-189501100D02*
X308357300Y-168328500D01*
X360592700Y-128405500D02*
X361444300Y-128405500D01*
X327025000Y-159760600D02*
X327025000Y-159001300D01*
X327025000Y-159001300D02*
X328682600Y-157343700D01*
X262509000Y-191135000D02*
X264142900Y-189501100D01*
X361444300Y-128405500D02*
X362562300Y-127287500D01*
X357923900Y-131080800D02*
X358757300Y-131080800D01*
%TO.N,pc0*%
X266232900Y-189951100D02*
X287371096Y-189951100D01*
X295204196Y-182118000D02*
X331188600Y-182118000D01*
X265049000Y-191135000D02*
X266232900Y-189951100D01*
X287371096Y-189951100D02*
X295204196Y-182118000D01*
X331188600Y-182118000D02*
X348271700Y-165034900D01*
X264160000Y-191135000D02*
X265049000Y-191135000D01*
%TO.N,LD0*%
X330247100Y-40458400D02*
X345053800Y-55265100D01*
X319493100Y-40458400D02*
X330247100Y-40458400D01*
X231690000Y-34935000D02*
X236761500Y-40006500D01*
X319041200Y-40006500D02*
X319493100Y-40458400D01*
X357140900Y-55880000D02*
X358317800Y-55880000D01*
X200015000Y-33665000D02*
X198888100Y-33665000D01*
X196596000Y-59436000D02*
X200025000Y-62865000D01*
X200015000Y-33665000D02*
X201285000Y-34935000D01*
X201285000Y-34935000D02*
X231690000Y-34935000D01*
X177800000Y-34290000D02*
X198263100Y-34290000D01*
X198263100Y-34290000D02*
X198888100Y-33665000D01*
X196596000Y-37084000D02*
X196596000Y-44958000D01*
X200015000Y-33665000D02*
X196596000Y-37084000D01*
X196596000Y-48514000D02*
X196596000Y-59436000D01*
X345053800Y-55265100D02*
X356526000Y-55265100D01*
X356526000Y-55265100D02*
X357140900Y-55880000D01*
X236761500Y-40006500D02*
X319041200Y-40006500D01*
%TO.N,Net-(D37-A)*%
X175260000Y-34290000D02*
X180975000Y-28575000D01*
X180975000Y-28575000D02*
X184785000Y-28575000D01*
%TO.N,LD1*%
X268568500Y-99728600D02*
X348367000Y-99728600D01*
X348367000Y-99728600D02*
X350390500Y-97705100D01*
X267899900Y-99060000D02*
X268568500Y-99728600D01*
X198263100Y-95875000D02*
X198888100Y-95250000D01*
X199451600Y-95250000D02*
X200015000Y-95250000D01*
X199451600Y-95250000D02*
X198888100Y-95250000D01*
X177800000Y-95875000D02*
X198263100Y-95875000D01*
X200015000Y-95250000D02*
X198888100Y-96376900D01*
X198888100Y-98294900D02*
X199653200Y-99060000D01*
X198888100Y-96376900D02*
X198888100Y-98294900D01*
X199653200Y-99060000D02*
X267899900Y-99060000D01*
%TO.N,LD2*%
X258936900Y-33655000D02*
X257810000Y-33655000D01*
X345015900Y-54588100D02*
X330434300Y-40006500D01*
X359531500Y-56397200D02*
X359531500Y-55358400D01*
X319905600Y-40006500D02*
X319180000Y-39280900D01*
X268093700Y-34925000D02*
X260206900Y-34925000D01*
X359413700Y-56515000D02*
X359531500Y-56397200D01*
X358317800Y-57607200D02*
X359410000Y-56515000D01*
X358317800Y-58420000D02*
X358317800Y-57607200D01*
X359410000Y-56515000D02*
X359413700Y-56515000D01*
X235600000Y-34290000D02*
X256048100Y-34290000D01*
X330434300Y-40006500D02*
X319905600Y-40006500D01*
X319180000Y-39280900D02*
X272449600Y-39280900D01*
X359531500Y-55358400D02*
X358761200Y-54588100D01*
X272449600Y-39280900D02*
X268093700Y-34925000D01*
X257810000Y-33655000D02*
X256683100Y-33655000D01*
X358761200Y-54588100D02*
X345015900Y-54588100D01*
X256048100Y-34290000D02*
X256683100Y-33655000D01*
X260206900Y-34925000D02*
X258936900Y-33655000D01*
%TO.N,LD3*%
X351536000Y-94265800D02*
X346534100Y-99267700D01*
X256058100Y-95875000D02*
X256693100Y-95240000D01*
X260216900Y-96510000D02*
X258946900Y-95240000D01*
X267664400Y-96510000D02*
X260216900Y-96510000D01*
X351536000Y-93753100D02*
X351536000Y-94265800D01*
X257820000Y-95240000D02*
X256693100Y-95240000D01*
X354419600Y-90869500D02*
X351536000Y-93753100D01*
X235600000Y-95875000D02*
X256058100Y-95875000D01*
X346534100Y-99267700D02*
X270422100Y-99267700D01*
X258946900Y-95240000D02*
X257820000Y-95240000D01*
X270422100Y-99267700D02*
X267664400Y-96510000D01*
%TO.N,LDo*%
X203775100Y-151428800D02*
X203775100Y-152181500D01*
X203775100Y-152181500D02*
X199975000Y-155981600D01*
X198213100Y-157510000D02*
X198848100Y-156875000D01*
X213650200Y-147955000D02*
X211110200Y-150495000D01*
X199975000Y-180671000D02*
X195072000Y-175768000D01*
X191770000Y-167132000D02*
X191770000Y-157555000D01*
X204708900Y-150495000D02*
X203775100Y-151428800D01*
X191770000Y-157555000D02*
X191725000Y-157510000D01*
X199975000Y-156875000D02*
X198848100Y-156875000D01*
X199975000Y-155981600D02*
X199975000Y-156875000D01*
X233560300Y-78105000D02*
X236692600Y-81237300D01*
X195072000Y-175768000D02*
X195072000Y-171196000D01*
X199975000Y-186085000D02*
X199975000Y-180671000D01*
X274350100Y-71721000D02*
X353079000Y-71721000D01*
X353079000Y-71721000D02*
X355596200Y-69203800D01*
X236692600Y-81237300D02*
X254822300Y-81237300D01*
X254822300Y-81237300D02*
X256694600Y-79365000D01*
X191725000Y-157510000D02*
X198213100Y-157510000D01*
X231581300Y-78105000D02*
X233560300Y-78105000D01*
X266706100Y-79365000D02*
X274350100Y-71721000D01*
X256694600Y-79365000D02*
X266706100Y-79365000D01*
X211110200Y-150495000D02*
X204708900Y-150495000D01*
%TO.N,LDpc*%
X251460000Y-192835900D02*
X251460000Y-192903800D01*
X364490000Y-63500000D02*
X364490000Y-63415300D01*
X251460000Y-191135000D02*
X251460000Y-192835900D01*
X284480088Y-194114900D02*
X250248900Y-194114900D01*
X225352300Y-200625400D02*
X224111900Y-199385000D01*
X295460988Y-183134000D02*
X284480088Y-194114900D01*
X364490000Y-63415300D02*
X362034700Y-60960000D01*
X222885000Y-199385000D02*
X224111900Y-199385000D01*
X243738400Y-200625400D02*
X225352300Y-200625400D01*
X251460000Y-192903800D02*
X243738400Y-200625400D01*
X362034700Y-60960000D02*
X360857800Y-60960000D01*
X365125000Y-191135000D02*
X357124000Y-183134000D01*
X357124000Y-183134000D02*
X295460988Y-183134000D01*
%TO.N,Net-(D42-A)*%
X222885000Y-201925000D02*
X218301900Y-201925000D01*
X218301900Y-201925000D02*
X218296900Y-201930000D01*
X217170000Y-201930000D02*
X218296900Y-201930000D01*
%TO.N,Net-(D43-K)*%
X357175000Y-176200000D02*
X357505000Y-176530000D01*
X350520000Y-176200000D02*
X357175000Y-176200000D01*
%TO.N,sela2*%
X321809700Y-34365300D02*
X323685100Y-34365300D01*
X346053259Y-38535459D02*
X358317800Y-50800000D01*
X294356300Y-38451300D02*
X320151300Y-38451300D01*
X291465000Y-35560000D02*
X294356300Y-38451300D01*
X324465000Y-35893700D02*
X327381759Y-38810459D01*
X315997400Y-62575700D02*
X317443500Y-61129600D01*
X327381759Y-38810459D02*
X333805660Y-38810459D01*
X323685100Y-34365300D02*
X324465000Y-35145200D01*
X334080660Y-38535459D02*
X346053259Y-38535459D01*
X294025000Y-85090000D02*
X318095000Y-85090000D01*
X320685000Y-59015000D02*
X319558100Y-59015000D01*
X324465000Y-35145200D02*
X324465000Y-35893700D01*
X315997400Y-62865000D02*
X315997400Y-62575700D01*
X317443500Y-61129600D02*
X319558100Y-59015000D01*
X320655000Y-35520000D02*
X321809700Y-34365300D01*
X333805660Y-38810459D02*
X334080660Y-38535459D01*
X318095000Y-85090000D02*
X320675000Y-82510000D01*
X291485000Y-82550000D02*
X294025000Y-85090000D01*
X291485000Y-59055000D02*
X293559600Y-61129600D01*
X293559600Y-61129600D02*
X317443500Y-61129600D01*
%TO.N,Net-(D44-K)*%
X350520000Y-170015000D02*
X357340000Y-170015000D01*
X357340000Y-170015000D02*
X357505000Y-170180000D01*
%TO.N,sela1*%
X294025000Y-82550000D02*
X296110000Y-84635000D01*
X296110000Y-84635000D02*
X316689300Y-84635000D01*
X324485000Y-38218600D02*
X324485000Y-36810000D01*
X324485000Y-36810000D02*
X323195000Y-35520000D01*
X333465000Y-85604600D02*
X346317100Y-98456700D01*
X325821000Y-39554600D02*
X324485000Y-38218600D01*
X358801100Y-52017600D02*
X343084500Y-52017600D01*
X316665400Y-60674300D02*
X295644300Y-60674300D01*
X323910900Y-37644500D02*
X324485000Y-38218600D01*
X360857800Y-48260000D02*
X359680900Y-49436900D01*
X343084500Y-52017600D02*
X330621500Y-39554600D01*
X319967400Y-81356900D02*
X322061900Y-81356900D01*
X323225000Y-59015000D02*
X322096700Y-57886700D01*
X359680900Y-49436900D02*
X359680900Y-51137800D01*
X330621500Y-39554600D02*
X325821000Y-39554600D01*
X296089500Y-37644500D02*
X323910900Y-37644500D01*
X319453000Y-57886700D02*
X316665400Y-60674300D01*
X295644300Y-60674300D02*
X294025000Y-59055000D01*
X322061900Y-81356900D02*
X323215000Y-82510000D01*
X325182700Y-85604600D02*
X333465000Y-85604600D01*
X323215000Y-83636900D02*
X325182700Y-85604600D01*
X323215000Y-82510000D02*
X323215000Y-83636900D01*
X294005000Y-35560000D02*
X296089500Y-37644500D01*
X322096700Y-57886700D02*
X319453000Y-57886700D01*
X316689300Y-84635000D02*
X319967400Y-81356900D01*
X359680900Y-51137800D02*
X358801100Y-52017600D01*
%TO.N,Net-(D45-K)*%
X350520000Y-163500000D02*
X357200000Y-163500000D01*
X357200000Y-163500000D02*
X357505000Y-163195000D01*
%TO.N,sela0*%
X316058400Y-57420300D02*
X313254400Y-60224300D01*
X296545000Y-35560000D02*
X298177600Y-37192600D01*
X314169800Y-84183100D02*
X317481700Y-80871200D01*
X325200904Y-57420300D02*
X316058400Y-57420300D01*
X348143259Y-38085459D02*
X358317800Y-48260000D01*
X314566800Y-37192600D02*
X317862000Y-33897400D01*
X324116200Y-80871200D02*
X325755000Y-82510000D01*
X297734300Y-60224300D02*
X296565000Y-59055000D01*
X298198100Y-84183100D02*
X314169800Y-84183100D01*
X325735000Y-35520000D02*
X328575459Y-38360459D01*
X347980000Y-160958100D02*
X347980000Y-163500000D01*
X317862000Y-33897400D02*
X324112400Y-33897400D01*
X320675000Y-80871200D02*
X322025100Y-79521100D01*
X325765000Y-59015000D02*
X325765000Y-57984396D01*
X328575459Y-38360459D02*
X333619264Y-38360459D01*
X317481700Y-80871200D02*
X324116200Y-80871200D01*
X325765000Y-57984396D02*
X325200904Y-57420300D01*
X322025100Y-79521100D02*
X322025100Y-79242200D01*
X313254400Y-60224300D02*
X297734300Y-60224300D01*
X333894264Y-38085459D02*
X348143259Y-38085459D01*
X298177600Y-37192600D02*
X314566800Y-37192600D01*
X333619264Y-38360459D02*
X333894264Y-38085459D01*
X296565000Y-82550000D02*
X298198100Y-84183100D01*
X324112400Y-33897400D02*
X325735000Y-35520000D01*
%TO.N,Net-(D46-K)*%
X350520000Y-200660000D02*
X357505000Y-200660000D01*
%TO.N,selb2*%
X361417900Y-57056900D02*
X362075500Y-56399300D01*
X346043300Y-116205000D02*
X324475000Y-116205000D01*
X319538100Y-135775000D02*
X320665000Y-135775000D01*
X317030600Y-114902500D02*
X319538100Y-112395000D01*
X295148000Y-139954000D02*
X295170100Y-139954000D01*
X360541900Y-57056900D02*
X361417900Y-57056900D01*
X291475000Y-135765000D02*
X293370000Y-137660000D01*
X293370000Y-137660000D02*
X293370000Y-138176000D01*
X295170100Y-139954000D02*
X295170100Y-154583000D01*
X359587800Y-58850900D02*
X359587800Y-58011000D01*
X293972500Y-114902500D02*
X317030600Y-114902500D01*
X324475000Y-116205000D02*
X320665000Y-112395000D01*
X362075500Y-56399300D02*
X362075500Y-54329100D01*
X296861600Y-138262500D02*
X317050600Y-138262500D01*
X295170100Y-154583000D02*
X291495000Y-158258100D01*
X317050600Y-138262500D02*
X319538100Y-135775000D01*
X346678300Y-115570000D02*
X346043300Y-116205000D01*
X361086400Y-53340000D02*
X360857800Y-53340000D01*
X359587800Y-58011000D02*
X360541900Y-57056900D01*
X295170100Y-139954000D02*
X296861600Y-138262500D01*
X320675000Y-159385000D02*
X320675000Y-157407400D01*
X291495000Y-158258100D02*
X291495000Y-159385000D01*
X293370000Y-138176000D02*
X295148000Y-139954000D01*
X291475000Y-112395000D02*
X291475000Y-112405000D01*
X291475000Y-112405000D02*
X293972500Y-114902500D01*
X320675000Y-157407400D02*
X321945000Y-156137400D01*
X362075500Y-54329100D02*
X361086400Y-53340000D01*
X348613400Y-59690000D02*
X358748700Y-59690000D01*
X358748700Y-59690000D02*
X359587800Y-58850900D01*
X319538100Y-112395000D02*
X320665000Y-112395000D01*
%TO.N,Net-(D47-K)*%
X350520000Y-194310000D02*
X357505000Y-194310000D01*
%TO.N,selb1*%
X323215000Y-159385000D02*
X323215000Y-157420900D01*
X296060600Y-137810600D02*
X294015000Y-135765000D01*
X322071400Y-134641400D02*
X314470500Y-134641400D01*
X305465000Y-151378300D02*
X305465000Y-152092300D01*
X302199700Y-154704900D02*
X297845000Y-159059600D01*
X324834600Y-114024600D02*
X323205000Y-112395000D01*
X321181400Y-111257500D02*
X321179500Y-111259400D01*
X352073098Y-114024600D02*
X324834600Y-114024600D01*
X314470500Y-134641400D02*
X311301300Y-137810600D01*
X294015000Y-112405000D02*
X294015000Y-112395000D01*
X295184300Y-160550400D02*
X294035000Y-159401100D01*
X294015000Y-133176800D02*
X293270100Y-132431900D01*
X305465000Y-152092300D02*
X302852400Y-154704900D01*
X308713300Y-150266700D02*
X306576600Y-150266700D01*
X322083600Y-111257500D02*
X321181400Y-111257500D01*
X315853300Y-114450600D02*
X296060600Y-114450600D01*
X323205000Y-112378900D02*
X322083600Y-111257500D01*
X352702325Y-114024600D02*
X352069249Y-114024600D01*
X323205000Y-112395000D02*
X323205000Y-112378900D01*
X297845000Y-159771300D02*
X297065900Y-160550400D01*
X353061925Y-113665000D02*
X352702325Y-114024600D01*
X321179500Y-111259400D02*
X319044500Y-111259400D01*
X323205000Y-135775000D02*
X322071400Y-134641400D01*
X319044500Y-111259400D02*
X315853300Y-114450600D01*
X323205000Y-135775000D02*
X308713300Y-150266700D01*
X297065900Y-160550400D02*
X295184300Y-160550400D01*
X294035000Y-159401100D02*
X294035000Y-159385000D01*
X294015000Y-135765000D02*
X294015000Y-133176800D01*
X302852400Y-154704900D02*
X302199700Y-154704900D01*
X306576600Y-150266700D02*
X305465000Y-151378300D01*
X297845000Y-159059600D02*
X297845000Y-159771300D01*
X311301300Y-137810600D02*
X296060600Y-137810600D01*
X296060600Y-114450600D02*
X294015000Y-112405000D01*
X353061925Y-113035774D02*
X353061925Y-113665000D01*
X323215000Y-157420900D02*
X324389800Y-156246100D01*
%TO.N,Net-(D48-K)*%
X350405000Y-187960000D02*
X357505000Y-187960000D01*
%TO.N,selb0*%
X299561800Y-134638100D02*
X300221900Y-135298200D01*
X316113500Y-113546800D02*
X318852800Y-110807500D01*
X325745000Y-112395000D02*
X326922700Y-113572700D01*
X326922700Y-113572700D02*
X351500400Y-113572700D01*
X351500400Y-113572700D02*
X353243200Y-111829900D01*
X297708300Y-113548300D02*
X305177100Y-113548300D01*
X306186300Y-132089300D02*
X318353300Y-132089300D01*
X311438300Y-113546800D02*
X316113500Y-113546800D01*
X305627500Y-113998700D02*
X310986400Y-113998700D01*
X302905000Y-135370600D02*
X306186300Y-132089300D01*
X302905000Y-136101700D02*
X302905000Y-135370600D01*
X324358000Y-111008000D02*
X325745000Y-112395000D01*
X325745000Y-135775000D02*
X324844000Y-134874000D01*
X297501300Y-135765000D02*
X298628200Y-134638100D01*
X300221900Y-135298200D02*
X300221900Y-136013500D01*
X302105100Y-136901600D02*
X302905000Y-136101700D01*
X321793500Y-132309500D02*
X318573500Y-132309500D01*
X296575000Y-157354600D02*
X297984600Y-155945000D01*
X318353300Y-132089300D02*
X318573500Y-132309500D01*
X324358000Y-134874000D02*
X321793500Y-132309500D01*
X325755000Y-157165600D02*
X326942100Y-155978500D01*
X318852800Y-110807500D02*
X324167500Y-110807500D01*
X310986400Y-113998700D02*
X311438300Y-113546800D01*
X296575000Y-159385000D02*
X296575000Y-157354600D01*
X324358000Y-110998000D02*
X324358000Y-111008000D01*
X296555000Y-135765000D02*
X297501300Y-135765000D01*
X300221900Y-136013500D02*
X301110000Y-136901600D01*
X296555000Y-112395000D02*
X297708300Y-113548300D01*
X324844000Y-134874000D02*
X324358000Y-134874000D01*
X305177100Y-113548300D02*
X305627500Y-113998700D01*
X301110000Y-136901600D02*
X302105100Y-136901600D01*
X325755000Y-159385000D02*
X325755000Y-157165600D01*
X324167500Y-110807500D02*
X324358000Y-110998000D01*
X298628200Y-134638100D02*
X299561800Y-134638100D01*
%TO.N,Y0*%
X260503100Y-140960000D02*
X264313100Y-137150000D01*
X263184600Y-74426500D02*
X254839900Y-74426500D01*
X344485754Y-67945000D02*
X313583900Y-67945000D01*
X253328300Y-140960000D02*
X260503100Y-140960000D01*
X345901651Y-69677000D02*
X345000918Y-68776267D01*
X313504200Y-68024700D02*
X272970300Y-68024700D01*
X254839900Y-74426500D02*
X253867300Y-75399100D01*
X346710000Y-69215000D02*
X346248000Y-69677000D01*
X264313100Y-75555000D02*
X263184600Y-74426500D01*
X265440000Y-75555000D02*
X264313100Y-75555000D01*
X208761900Y-137160000D02*
X214434600Y-142832700D01*
X251455600Y-142832700D02*
X253328300Y-140960000D01*
X207635000Y-137160000D02*
X208761900Y-137160000D01*
X345000918Y-68460164D02*
X344485754Y-67945000D01*
X207645000Y-75565000D02*
X208771900Y-75565000D01*
X214434600Y-142832700D02*
X251455600Y-142832700D01*
X345000918Y-68776267D02*
X345000918Y-68460164D01*
X313583900Y-67945000D02*
X313504200Y-68024700D01*
X253867300Y-75399100D02*
X208937800Y-75399100D01*
X208937800Y-75399100D02*
X208771900Y-75565000D01*
X346248000Y-69677000D02*
X345901651Y-69677000D01*
X272970300Y-68024700D02*
X265440000Y-75555000D01*
X265440000Y-137150000D02*
X264313100Y-137150000D01*
%TO.N,Y1*%
X327005000Y-27492800D02*
X326246600Y-26734400D01*
X312670100Y-67574700D02*
X270880300Y-67574700D01*
X360490000Y-40640000D02*
X350948900Y-31098900D01*
X260457300Y-182352300D02*
X243732700Y-182352300D01*
X229962600Y-186854600D02*
X226060000Y-190757200D01*
X226060000Y-190757200D02*
X226060000Y-191504800D01*
X314337800Y-26734400D02*
X312006800Y-29065400D01*
X207079400Y-190026800D02*
X206425700Y-190680500D01*
X239230400Y-186854600D02*
X229962600Y-186854600D01*
X270880300Y-67574700D02*
X265440000Y-73015000D01*
X226060000Y-191504800D02*
X225276500Y-192288300D01*
X243732700Y-182352300D02*
X239230400Y-186854600D01*
X261620000Y-183515000D02*
X260457300Y-182352300D01*
X207595000Y-195403000D02*
X207595000Y-196245000D01*
X265440000Y-73015000D02*
X259240900Y-73015000D01*
X220001500Y-192288300D02*
X217740000Y-190026800D01*
X265440000Y-134610000D02*
X264313100Y-134610000D01*
X207635000Y-134620000D02*
X208761900Y-134620000D01*
X217740000Y-190026800D02*
X207079400Y-190026800D01*
X263025800Y-135897400D02*
X263025800Y-135897300D01*
X350948900Y-31098900D02*
X329852500Y-31098900D01*
X327005000Y-28251400D02*
X327005000Y-27492800D01*
X207645000Y-73025000D02*
X208771900Y-73025000D01*
X208771900Y-73025000D02*
X210069600Y-71727300D01*
X326246600Y-26734400D02*
X314337800Y-26734400D01*
X225276500Y-192288300D02*
X220001500Y-192288300D01*
X263025800Y-135897300D02*
X264313100Y-134610000D01*
X206425700Y-194233700D02*
X207595000Y-195403000D01*
X208761900Y-134620000D02*
X210614400Y-136472500D01*
X360857800Y-40640000D02*
X360490000Y-40640000D01*
X250912500Y-135897400D02*
X263025800Y-135897400D01*
X329852500Y-31098900D02*
X327005000Y-28251400D01*
X210614400Y-136472500D02*
X250337400Y-136472500D01*
X210069600Y-71727300D02*
X257037700Y-71727300D01*
X206425700Y-190680500D02*
X206425700Y-194233700D01*
X250337400Y-136472500D02*
X250912500Y-135897400D01*
X312947000Y-67297800D02*
X312670100Y-67574700D01*
%TO.N,Y2*%
X264315000Y-69350000D02*
X265440000Y-70475000D01*
X252170904Y-66054300D02*
X253323504Y-67206900D01*
X207645000Y-70485000D02*
X232275100Y-70485000D01*
X207635000Y-132080000D02*
X208761900Y-132080000D01*
X209943000Y-133261100D02*
X208761900Y-132080000D01*
X232275100Y-70485000D02*
X236705800Y-66054300D01*
X333247000Y-66105200D02*
X269809800Y-66105200D01*
X265440000Y-132070000D02*
X264313100Y-132070000D01*
X255373100Y-184641900D02*
X246310000Y-193705000D01*
X263122000Y-133261100D02*
X209943000Y-133261100D01*
X345350000Y-67855000D02*
X344801600Y-67306600D01*
X334448400Y-67306600D02*
X333247000Y-66105200D01*
X258234900Y-183515000D02*
X257108000Y-184641900D01*
X346075000Y-67310000D02*
X346075000Y-67520305D01*
X236705800Y-66054300D02*
X252170904Y-66054300D01*
X344801600Y-67306600D02*
X334448400Y-67306600D01*
X253323504Y-67206900D02*
X253896900Y-67206900D01*
X345740305Y-67855000D02*
X345350000Y-67855000D01*
X346075000Y-67520305D02*
X345740305Y-67855000D01*
X259080000Y-183515000D02*
X258234900Y-183515000D01*
X246310000Y-193705000D02*
X207595000Y-193705000D01*
X264313100Y-132070000D02*
X263122000Y-133261100D01*
X269809800Y-66105200D02*
X265440000Y-70475000D01*
X253896900Y-67206900D02*
X256040000Y-69350000D01*
X256040000Y-69350000D02*
X264315000Y-69350000D01*
X257108000Y-184641900D02*
X255373100Y-184641900D01*
%TO.N,Y3*%
X252316800Y-65563800D02*
X253509900Y-66756900D01*
X262255000Y-130810000D02*
X259707400Y-128262400D01*
X233628500Y-68492500D02*
X236557200Y-65563800D01*
X242202300Y-127649300D02*
X239781100Y-130070500D01*
X233680000Y-191508800D02*
X232251800Y-192937000D01*
X268848600Y-65653300D02*
X266566900Y-67935000D01*
X252887300Y-127649300D02*
X242202300Y-127649300D01*
X349561928Y-67897773D02*
X347857273Y-67897773D01*
X210493900Y-192937000D02*
X208721900Y-191165000D01*
X209319400Y-68492500D02*
X233628500Y-68492500D01*
X239781100Y-130070500D02*
X209292400Y-130070500D01*
X237130800Y-187306500D02*
X233680000Y-190757300D01*
X208721900Y-191165000D02*
X207595000Y-191165000D01*
X251903300Y-187306500D02*
X237130800Y-187306500D01*
X208761900Y-129540000D02*
X207635000Y-129540000D01*
X263135000Y-66756900D02*
X264313100Y-67935000D01*
X209292400Y-130070500D02*
X208761900Y-129540000D01*
X236557200Y-65563800D02*
X252316800Y-65563800D01*
X233680000Y-190757300D02*
X233680000Y-191508800D01*
X253500400Y-128262400D02*
X252887300Y-127649300D01*
X347857273Y-67897773D02*
X346538800Y-66579300D01*
X259707400Y-128262400D02*
X253500400Y-128262400D01*
X253509900Y-66756900D02*
X263135000Y-66756900D01*
X262255000Y-130810000D02*
X264160000Y-130810000D01*
X256540000Y-183515000D02*
X255694800Y-183515000D01*
X333434200Y-65653300D02*
X268848600Y-65653300D01*
X208771900Y-67945000D02*
X209319400Y-68492500D01*
X264892600Y-67935000D02*
X264313100Y-67935000D01*
X264892600Y-67935000D02*
X265440000Y-67935000D01*
X264160000Y-130810000D02*
X265440000Y-129530000D01*
X334360200Y-66579300D02*
X333434200Y-65653300D01*
X232251800Y-192937000D02*
X210493900Y-192937000D01*
X266566900Y-67935000D02*
X265440000Y-67935000D01*
X207645000Y-67945000D02*
X208771900Y-67945000D01*
X255694800Y-183515000D02*
X251903300Y-187306500D01*
X346538800Y-66579300D02*
X334360200Y-66579300D01*
%TO.N,Y4*%
X263161900Y-45213800D02*
X264303100Y-46355000D01*
X343422300Y-54906800D02*
X344507500Y-55992000D01*
X255965800Y-111822400D02*
X250351200Y-117437000D01*
X209913100Y-45213800D02*
X263161900Y-45213800D01*
X234950000Y-183515000D02*
X234315000Y-183515000D01*
X344507500Y-55992000D02*
X345645400Y-55992000D01*
X339914500Y-54906800D02*
X343422300Y-54906800D01*
X258527600Y-111822400D02*
X255965800Y-111822400D01*
X337196800Y-51063400D02*
X337196800Y-52189100D01*
X229362900Y-184647300D02*
X228600000Y-183884400D01*
X266556900Y-46355000D02*
X269164900Y-43747000D01*
X208761900Y-46365000D02*
X209913100Y-45213800D01*
X218248900Y-117437000D02*
X208761900Y-107950000D01*
X265440000Y-107940000D02*
X262410000Y-107940000D01*
X265430000Y-46355000D02*
X264303100Y-46355000D01*
X337196800Y-52189100D02*
X339914500Y-54906800D01*
X228600000Y-183128400D02*
X215046600Y-169575000D01*
X250351200Y-117437000D02*
X218248900Y-117437000D01*
X233182700Y-184647300D02*
X229362900Y-184647300D01*
X329880400Y-43747000D02*
X337196800Y-51063400D01*
X269164900Y-43747000D02*
X329880400Y-43747000D01*
X207635000Y-107950000D02*
X208761900Y-107950000D01*
X265430000Y-46355000D02*
X266556900Y-46355000D01*
X262410000Y-107940000D02*
X258527600Y-111822400D01*
X234315000Y-183515000D02*
X233182700Y-184647300D01*
X228600000Y-183884400D02*
X228600000Y-183128400D01*
X215046600Y-169575000D02*
X207595000Y-169575000D01*
X207635000Y-46365000D02*
X208761900Y-46365000D01*
%TO.N,Y5*%
X261710600Y-43170300D02*
X262355300Y-43815000D01*
X265430000Y-43815000D02*
X264923300Y-43815000D01*
X231521000Y-183515000D02*
X230886000Y-182880000D01*
X257430700Y-106526900D02*
X252839900Y-111117700D01*
X349597559Y-37635459D02*
X356412100Y-44450000D01*
X261710600Y-43170300D02*
X261214100Y-42673800D01*
X212886000Y-109534100D02*
X208761900Y-105410000D01*
X230886000Y-182880000D02*
X230881600Y-182880000D01*
X207635000Y-105410000D02*
X208761900Y-105410000D01*
X215036600Y-167035000D02*
X207595000Y-167035000D01*
X258594000Y-106526900D02*
X257430700Y-106526900D01*
X264923300Y-43815000D02*
X266374300Y-42364000D01*
X209913100Y-42673800D02*
X208761900Y-43825000D01*
X230881600Y-182880000D02*
X215036600Y-167035000D01*
X261214100Y-42673800D02*
X209913100Y-42673800D01*
X333318959Y-37635459D02*
X349597559Y-37635459D01*
X252839900Y-111117700D02*
X214469600Y-111117700D01*
X356412100Y-44450000D02*
X359587800Y-44450000D01*
X359587800Y-44450000D02*
X360857800Y-45720000D01*
X264313100Y-105400000D02*
X259720900Y-105400000D01*
X265440000Y-105400000D02*
X264313100Y-105400000D01*
X214469600Y-111117700D02*
X212886000Y-109534100D01*
X266374300Y-42364000D02*
X330793600Y-42364000D01*
X259720900Y-105400000D02*
X258594000Y-106526900D01*
X208761900Y-43825000D02*
X207635000Y-43825000D01*
X232410000Y-183515000D02*
X231521000Y-183515000D01*
X262355300Y-43815000D02*
X264923300Y-43815000D01*
%TO.N,Im0*%
X357140900Y-63500000D02*
X358317800Y-63500000D01*
X335516500Y-110243500D02*
X333365000Y-112395000D01*
X349851800Y-110243500D02*
X335516500Y-110243500D01*
X349885000Y-110210300D02*
X349851800Y-110243500D01*
X352970600Y-63500000D02*
X346762800Y-63500000D01*
X346762800Y-63500000D02*
X341710400Y-58447600D01*
X352970600Y-63500000D02*
X357140900Y-63500000D01*
%TO.N,Im1*%
X350082000Y-66481300D02*
X348122700Y-66481300D01*
X350251300Y-66312000D02*
X350082000Y-66481300D01*
X357101600Y-67218500D02*
X356170100Y-66287000D01*
X352968100Y-66287000D02*
X352943100Y-66312000D01*
X361370000Y-67218500D02*
X357101600Y-67218500D01*
X362062300Y-64704500D02*
X362062300Y-66526200D01*
X352970600Y-65459614D02*
X353502614Y-65459614D01*
X340045500Y-65675500D02*
X333385000Y-59015000D01*
X362062300Y-66526200D02*
X361370000Y-67218500D01*
X360857800Y-63500000D02*
X362062300Y-64704500D01*
X348122700Y-66481300D02*
X347316900Y-65675500D01*
X343985400Y-125154600D02*
X349798000Y-125154600D01*
X354330000Y-66287000D02*
X352968100Y-66287000D01*
X352943100Y-66312000D02*
X350251300Y-66312000D01*
X347316900Y-65675500D02*
X340045500Y-65675500D01*
X356170100Y-66287000D02*
X354330000Y-66287000D01*
X333365000Y-135775000D02*
X343985400Y-125154600D01*
X353502614Y-65459614D02*
X354330000Y-66287000D01*
%TO.N,Im2*%
X356066234Y-78105000D02*
X350466300Y-78105000D01*
X357134318Y-77036916D02*
X356066234Y-78105000D01*
X339295835Y-158634844D02*
X338920991Y-158260000D01*
X334351000Y-81515100D02*
X334501900Y-81364200D01*
X347207100Y-81710000D02*
X347207100Y-81364200D01*
X333375000Y-82510000D02*
X334351000Y-81534000D01*
X334351000Y-81534000D02*
X334351000Y-81515100D01*
X334501900Y-81364200D02*
X347207100Y-81364200D01*
X340438758Y-158634844D02*
X339295835Y-158634844D01*
X334500000Y-158260000D02*
X333375000Y-159385000D01*
X350466300Y-78105000D02*
X347207100Y-81364200D01*
X338920991Y-158260000D02*
X334500000Y-158260000D01*
%TO.N,Im3*%
X304175000Y-112395000D02*
X304927000Y-112395000D01*
X353382300Y-64770000D02*
X352932100Y-64319800D01*
X311275700Y-112845400D02*
X314538900Y-112845400D01*
X314538900Y-112845400D02*
X318556300Y-108828000D01*
X304927000Y-112395000D02*
X306078800Y-113546800D01*
X330628000Y-56308000D02*
X331382700Y-57062700D01*
X330628000Y-56308000D02*
X331017800Y-56308000D01*
X307975000Y-44549000D02*
X320516500Y-44549000D01*
X320516500Y-44549000D02*
X327035000Y-51067500D01*
X338542600Y-56308000D02*
X331017800Y-56308000D01*
X346554400Y-64319800D02*
X338542600Y-56308000D01*
X359587800Y-64770000D02*
X353382300Y-64770000D01*
X327035000Y-51067500D02*
X327035000Y-52715000D01*
X318556300Y-108828000D02*
X324475000Y-108828000D01*
X331382700Y-57062700D02*
X332740000Y-57062700D01*
X352932100Y-64319800D02*
X346554400Y-64319800D01*
X306078800Y-113546800D02*
X310574300Y-113546800D01*
X327035000Y-52715000D02*
X330628000Y-56308000D01*
X360857800Y-66040000D02*
X359587800Y-64770000D01*
X310574300Y-113546800D02*
X311275700Y-112845400D01*
%TO.N,Im4*%
X295141900Y-135962000D02*
X296538500Y-137358600D01*
X333508700Y-65088700D02*
X332744500Y-65088700D01*
X295141900Y-133238000D02*
X295141900Y-135962000D01*
X288536100Y-137942500D02*
X288536100Y-136137700D01*
X293569400Y-131665500D02*
X295141900Y-133238000D01*
X296538500Y-137358600D02*
X302581400Y-137358600D01*
X350387800Y-66933200D02*
X347531800Y-66933200D01*
X293008300Y-131665500D02*
X293569400Y-131665500D01*
X327035000Y-59379200D02*
X327035000Y-58618000D01*
X305030200Y-59055000D02*
X304185000Y-59055000D01*
X288536100Y-136137700D02*
X293008300Y-131665500D01*
X357140900Y-67896900D02*
X356007900Y-66763900D01*
X286482700Y-139119500D02*
X287359100Y-139119500D01*
X323547800Y-55130800D02*
X308954400Y-55130800D01*
X334547400Y-66127400D02*
X333508700Y-65088700D01*
X347531800Y-66933200D02*
X346726000Y-66127400D01*
X358317800Y-68580000D02*
X357634700Y-67896900D01*
X302581400Y-137358600D02*
X304175000Y-135765000D01*
X332744500Y-65088700D02*
X327035000Y-59379200D01*
X357634700Y-67896900D02*
X357140900Y-67896900D01*
X308954400Y-55130800D02*
X305030200Y-59055000D01*
X350557100Y-66763900D02*
X350387800Y-66933200D01*
X356007900Y-66763900D02*
X350557100Y-66763900D01*
X327035000Y-58618000D02*
X323547800Y-55130800D01*
X346726000Y-66127400D02*
X334547400Y-66127400D01*
X287359100Y-139119500D02*
X288536100Y-137942500D01*
%TO.N,Im5*%
X305078400Y-82550000D02*
X304185000Y-82550000D01*
X362052100Y-76690600D02*
X361365800Y-77376900D01*
X329565000Y-82838800D02*
X329565000Y-82157700D01*
X359587800Y-79170900D02*
X358748700Y-80010000D01*
X348671000Y-84511400D02*
X331237600Y-84511400D01*
X311097700Y-95885000D02*
X304102300Y-88889600D01*
X311785000Y-95885000D02*
X311097700Y-95885000D01*
X353172400Y-80010000D02*
X348671000Y-84511400D01*
X331237600Y-84511400D02*
X329565000Y-82838800D01*
X312465899Y-96565899D02*
X311785000Y-95885000D01*
X360857800Y-68580000D02*
X361315000Y-68580000D01*
X325924500Y-78517200D02*
X316138791Y-78517200D01*
X304367200Y-159385000D02*
X304195000Y-159385000D01*
X316060991Y-78595000D02*
X315129009Y-78595000D01*
X359587800Y-77927200D02*
X359587800Y-79170900D01*
X360138100Y-77376900D02*
X359587800Y-77927200D01*
X329565000Y-82157700D02*
X325924500Y-78517200D01*
X358748700Y-80010000D02*
X353172400Y-80010000D01*
X361365800Y-77376900D02*
X360138100Y-77376900D01*
X309111200Y-78517200D02*
X305078400Y-82550000D01*
X308186400Y-155565800D02*
X304367200Y-159385000D01*
X304102300Y-88889600D02*
X303512600Y-88889600D01*
X315051209Y-78517200D02*
X309111200Y-78517200D01*
X316138791Y-78517200D02*
X316060991Y-78595000D01*
X315129009Y-78595000D02*
X315051209Y-78517200D01*
X362052100Y-69317100D02*
X362052100Y-76690600D01*
X361315000Y-68580000D02*
X362052100Y-69317100D01*
%TO.N,CLR*%
X274966800Y-72235100D02*
X266566900Y-80635000D01*
X265440000Y-80635000D02*
X266566900Y-80635000D01*
X207635000Y-113030000D02*
X206248000Y-111643000D01*
X198816500Y-158942600D02*
X199540200Y-158218900D01*
X200295991Y-165765000D02*
X199645600Y-165765000D01*
X201100000Y-166569009D02*
X200295991Y-165765000D01*
X214630000Y-148108000D02*
X214630000Y-147909495D01*
X207239500Y-104192900D02*
X208790500Y-104192900D01*
X247650000Y-153035000D02*
X247724200Y-153109200D01*
X210081100Y-158218900D02*
X215190800Y-153109200D01*
X206248000Y-105184400D02*
X207239500Y-104192900D01*
X199645600Y-165765000D02*
X198816500Y-164935900D01*
X247575800Y-153109200D02*
X219631100Y-153109200D01*
X208960505Y-142240000D02*
X207635000Y-142240000D01*
X198816500Y-164935900D02*
X198816500Y-158942600D01*
X216296000Y-149774000D02*
X214630000Y-148108000D01*
X264313100Y-142230000D02*
X265440000Y-142230000D01*
X253433900Y-153109200D02*
X264313100Y-142230000D01*
X357140900Y-71120000D02*
X356025800Y-72235100D01*
X219631100Y-153109200D02*
X216296000Y-149774000D01*
X206248000Y-111643000D02*
X206248000Y-105184400D01*
X263591000Y-113742100D02*
X264313100Y-113020000D01*
X263588600Y-113742100D02*
X263591000Y-113742100D01*
X247650000Y-153035000D02*
X247575800Y-153109200D01*
X215190800Y-153109200D02*
X219631100Y-153109200D01*
X214630000Y-147909495D02*
X208960505Y-142240000D01*
X264313100Y-113020000D02*
X265440000Y-113020000D01*
X199540200Y-158218900D02*
X210081100Y-158218900D01*
X358317800Y-71120000D02*
X357140900Y-71120000D01*
X356025800Y-72235100D02*
X274966800Y-72235100D01*
X247724200Y-153109200D02*
X253433900Y-153109200D01*
X207595000Y-174655000D02*
X201100000Y-168160000D01*
X201100000Y-168160000D02*
X201100000Y-166569009D01*
%TO.N,CLK*%
X226060000Y-183878300D02*
X226060000Y-183116100D01*
X266625700Y-78095000D02*
X274593700Y-70127000D01*
X263111900Y-50086200D02*
X264303100Y-48895000D01*
X215058900Y-172115000D02*
X207595000Y-172115000D01*
X223622600Y-48905000D02*
X224803800Y-50086200D01*
X265049000Y-181864000D02*
X239141000Y-181864000D01*
X265440000Y-78095000D02*
X266625700Y-78095000D01*
X239141000Y-181864000D02*
X237490000Y-183515000D01*
X237490000Y-183515000D02*
X237490000Y-183896000D01*
X266700000Y-183515000D02*
X265049000Y-181864000D01*
X237490000Y-183896000D02*
X236279900Y-185106100D01*
X226060000Y-183116100D02*
X215058900Y-172115000D01*
X236279900Y-185106100D02*
X227287800Y-185106100D01*
X353214200Y-70127000D02*
X355777800Y-67563400D01*
X224803800Y-50086200D02*
X263111900Y-50086200D01*
X227287800Y-185106100D02*
X226060000Y-183878300D01*
X265430000Y-48895000D02*
X264303100Y-48895000D01*
X274593700Y-70127000D02*
X353214200Y-70127000D01*
X207635000Y-48905000D02*
X223622600Y-48905000D01*
%TO.N,A0*%
X330650200Y-30295200D02*
X328275000Y-27920000D01*
X362134800Y-30295200D02*
X330650200Y-30295200D01*
X328275000Y-27920000D02*
X328275000Y-27900000D01*
X362144799Y-30285201D02*
X362134800Y-30295200D01*
%TO.N,A1*%
X354330000Y-60960000D02*
X345330900Y-60960000D01*
X345330900Y-60960000D02*
X339729700Y-55358800D01*
X329198400Y-51395000D02*
X328305000Y-51395000D01*
X355800949Y-62430949D02*
X354330000Y-60960000D01*
X339729700Y-55358800D02*
X333162200Y-55358800D01*
X333162200Y-55358800D02*
X329198400Y-51395000D01*
%TO.N,A2*%
X329565000Y-72959600D02*
X355417900Y-72959600D01*
X355417900Y-72959600D02*
X355600700Y-73142400D01*
%TO.N,A3*%
X300355000Y-26670000D02*
X299085000Y-27940000D01*
X301248400Y-26670000D02*
X300355000Y-26670000D01*
X357117500Y-26282500D02*
X301635900Y-26282500D01*
X301635900Y-26282500D02*
X301248400Y-26670000D01*
X357505000Y-26670000D02*
X357117500Y-26282500D01*
%TO.N,A4*%
X347311100Y-104106100D02*
X347311100Y-103299800D01*
X302915000Y-51783900D02*
X302915000Y-51064200D01*
X324495000Y-51004900D02*
X324495000Y-52343300D01*
X329996300Y-57844600D02*
X339215100Y-57844600D01*
X339215100Y-57844600D02*
X346142200Y-64771700D01*
X303746700Y-50232500D02*
X323722600Y-50232500D01*
X348080100Y-64771700D02*
X348610900Y-65302500D01*
X352836296Y-108438400D02*
X351643400Y-108438400D01*
X324495000Y-52343300D02*
X329996300Y-57844600D01*
X351643400Y-108438400D02*
X347311100Y-104106100D01*
X358368600Y-111988600D02*
X356386496Y-111988600D01*
X300235800Y-52565800D02*
X302133100Y-52565800D01*
X302133100Y-52565800D02*
X302915000Y-51783900D01*
X356386496Y-111988600D02*
X352836296Y-108438400D01*
X346142200Y-64771700D02*
X348080100Y-64771700D01*
X302915000Y-51064200D02*
X303746700Y-50232500D01*
X323722600Y-50232500D02*
X324495000Y-51004900D01*
X299105000Y-51435000D02*
X300235800Y-52565800D01*
%TO.N,A5*%
X299105000Y-74930000D02*
X300283900Y-73751100D01*
X360908600Y-111988600D02*
X359731700Y-110811700D01*
X332018800Y-76016900D02*
X336116500Y-80114600D01*
X324485000Y-75218800D02*
X325283100Y-76016900D01*
X344655205Y-80114600D02*
X345135200Y-79634605D01*
X325283100Y-76016900D02*
X332018800Y-76016900D01*
X357353800Y-110811700D02*
X347282800Y-100740700D01*
X323751200Y-73751100D02*
X324485000Y-74484900D01*
X345135200Y-79634605D02*
X345135200Y-78409800D01*
X324485000Y-74484900D02*
X324485000Y-75218800D01*
X359731700Y-110811700D02*
X357353800Y-110811700D01*
X345592200Y-77952800D02*
X346395000Y-77952800D01*
X345135200Y-78409800D02*
X345592200Y-77952800D01*
X300283900Y-73751100D02*
X323751200Y-73751100D01*
X336116500Y-80114600D02*
X344655205Y-80114600D01*
%TO.N,B0*%
X352649900Y-108888400D02*
X333293900Y-108888400D01*
X358368600Y-114528600D02*
X358290100Y-114528600D01*
X358290100Y-114528600D02*
X352649900Y-108888400D01*
X329180500Y-104775000D02*
X328285000Y-104775000D01*
X333293900Y-108888400D02*
X329180500Y-104775000D01*
%TO.N,B1*%
X353177200Y-121560000D02*
X352571700Y-122165500D01*
X334272500Y-122165500D02*
X328285000Y-128153000D01*
X328285000Y-128153000D02*
X328285000Y-128155000D01*
X352571700Y-122165500D02*
X334272500Y-122165500D01*
%TO.N,B2*%
X350314600Y-130600100D02*
X350436700Y-130600100D01*
X328295000Y-151765000D02*
X329149700Y-151765000D01*
X329149700Y-151765000D02*
X350314600Y-130600100D01*
%TO.N,B3*%
X300728600Y-103141400D02*
X325733600Y-103141400D01*
X327015000Y-104422800D02*
X327015000Y-105161600D01*
X327015000Y-105161600D02*
X331339200Y-109485800D01*
X354712600Y-111590200D02*
X354712600Y-112768900D01*
X359731700Y-115891700D02*
X360908600Y-117068600D01*
X357835400Y-115891700D02*
X359731700Y-115891700D01*
X354712600Y-112768900D02*
X357835400Y-115891700D01*
X331339200Y-109485800D02*
X352608200Y-109485800D01*
X325733600Y-103141400D02*
X327015000Y-104422800D01*
X299095000Y-104775000D02*
X300728600Y-103141400D01*
X352608200Y-109485800D02*
X354712600Y-111590200D01*
%TO.N,B4*%
X308524800Y-119608600D02*
X358368600Y-119608600D01*
X299095000Y-128145000D02*
X299988400Y-128145000D01*
X299988400Y-128145000D02*
X308524800Y-119608600D01*
%TO.N,B5*%
X296653300Y-149841300D02*
X298577000Y-151765000D01*
X296653300Y-148777100D02*
X296653300Y-149841300D01*
X318929400Y-120711700D02*
X342236500Y-120711700D01*
X317721100Y-121920000D02*
X318929400Y-120711700D01*
X304290800Y-141139600D02*
X296653300Y-148777100D01*
X298577000Y-151765000D02*
X299115000Y-151765000D01*
X342236500Y-120711700D02*
X342360300Y-120835500D01*
X359681700Y-120835500D02*
X360908600Y-119608600D01*
X314708000Y-141139600D02*
X304290800Y-141139600D01*
X342360300Y-120835500D02*
X359681700Y-120835500D01*
%TO.N,Ip5*%
X310401900Y-156563300D02*
X307580200Y-159385000D01*
X307580200Y-159385000D02*
X306735000Y-159385000D01*
X309903296Y-83675000D02*
X311028296Y-82550000D01*
X303572000Y-186436000D02*
X304800000Y-186436000D01*
X280670000Y-207000000D02*
X301234000Y-186436000D01*
X310401900Y-156539600D02*
X310401900Y-156563300D01*
X306725000Y-82550000D02*
X307850000Y-83675000D01*
X301234000Y-186436000D02*
X303530000Y-186436000D01*
X307850000Y-83675000D02*
X309903296Y-83675000D01*
X311028296Y-82550000D02*
X313797400Y-82550000D01*
X313797400Y-82550000D02*
X314286100Y-83038700D01*
%TO.N,Ip4*%
X292598000Y-197612000D02*
X293443200Y-197612000D01*
X299793200Y-191262000D02*
X304800000Y-191262000D01*
X283210000Y-207000000D02*
X292598000Y-197612000D01*
X293406600Y-197648600D02*
X299793200Y-191262000D01*
%TO.N,Ip3*%
X299686504Y-203200000D02*
X304800000Y-198086504D01*
X311785000Y-35560000D02*
X310604300Y-36740700D01*
X313557700Y-107315000D02*
X309602700Y-111270000D01*
X309602700Y-111270000D02*
X308465000Y-111270000D01*
X285750000Y-207000000D02*
X289550000Y-203200000D01*
X308465000Y-111270000D02*
X307340000Y-112395000D01*
X307340000Y-36195000D02*
X306705000Y-35560000D01*
X307340000Y-112395000D02*
X306715000Y-112395000D01*
X308245600Y-36195000D02*
X307340000Y-36195000D01*
X313055000Y-36195000D02*
X312420000Y-35560000D01*
X308791300Y-36740700D02*
X308245600Y-36195000D01*
X304800000Y-198086504D02*
X304800000Y-196088000D01*
X289550000Y-203200000D02*
X299686504Y-203200000D01*
X310604300Y-36740700D02*
X308791300Y-36740700D01*
X312420000Y-35560000D02*
X311785000Y-35560000D01*
%TO.N,Ip2*%
X324173000Y-170194500D02*
X334982500Y-159385000D01*
X288290000Y-207000000D02*
X289923300Y-205366700D01*
X334982500Y-159385000D02*
X335915000Y-159385000D01*
X311770500Y-170194500D02*
X324173000Y-170194500D01*
X289923300Y-205366700D02*
X300347300Y-205366700D01*
X309245000Y-172720000D02*
X311770500Y-170194500D01*
X335915000Y-82510000D02*
X337165500Y-83760500D01*
X300347300Y-205366700D02*
X304800000Y-200914000D01*
X337165500Y-83760500D02*
X346848900Y-83760500D01*
%TO.N,Ip1*%
X290830000Y-207000000D02*
X292011400Y-205818600D01*
X335905000Y-135775000D02*
X345243500Y-126436500D01*
X348911205Y-66027500D02*
X348308000Y-66027500D01*
X348308000Y-66027500D02*
X347504100Y-65223600D01*
X342133600Y-65223600D02*
X335925000Y-59015000D01*
X350064800Y-65405000D02*
X349533705Y-65405000D01*
X345243500Y-126436500D02*
X347405300Y-126436500D01*
X312420000Y-151130000D02*
X313390800Y-150159200D01*
X304721400Y-205818600D02*
X304800000Y-205740000D01*
X292011400Y-205818600D02*
X304721400Y-205818600D01*
X347504100Y-65223600D02*
X342133600Y-65223600D01*
X349533705Y-65405000D02*
X348911205Y-66027500D01*
X321520800Y-150159200D02*
X335905000Y-135775000D01*
X313390800Y-150159200D02*
X321520800Y-150159200D01*
%TO.N,Ip0*%
X293370000Y-207000000D02*
X294496900Y-207000000D01*
X338910991Y-111270000D02*
X337030000Y-111270000D01*
X337030000Y-111270000D02*
X335905000Y-112395000D01*
X339400991Y-111760000D02*
X338910991Y-111270000D01*
X298062900Y-210566000D02*
X304800000Y-210566000D01*
X294496900Y-207000000D02*
X298062900Y-210566000D01*
X341759800Y-111131000D02*
X341130800Y-111760000D01*
X341130800Y-111760000D02*
X339400991Y-111760000D01*
%TO.N,Net-(U11A-CO)*%
X224790000Y-191135000D02*
X224790000Y-183515000D01*
%TO.N,Net-(U25-Pad2)*%
X239100400Y-159679600D02*
X238516000Y-160264000D01*
X238516000Y-160264000D02*
X238516000Y-160274000D01*
X264160000Y-161290000D02*
X262549600Y-159679600D01*
X262549600Y-159679600D02*
X239100400Y-159679600D01*
X238516000Y-160274000D02*
X237490000Y-161300000D01*
%TD*%
M02*
