%TF.GenerationSoftware,KiCad,Pcbnew,7.0.7*%
%TF.CreationDate,2023-10-25T17:14:33+09:00*%
%TF.ProjectId,clock_clear,636c6f63-6b5f-4636-9c65-61722e6b6963,rev?*%
%TF.SameCoordinates,Original*%
%TF.FileFunction,Copper,L1,Top*%
%TF.FilePolarity,Positive*%
%FSLAX46Y46*%
G04 Gerber Fmt 4.6, Leading zero omitted, Abs format (unit mm)*
G04 Created by KiCad (PCBNEW 7.0.7) date 2023-10-25 17:14:33*
%MOMM*%
%LPD*%
G01*
G04 APERTURE LIST*
G04 Aperture macros list*
%AMRoundRect*
0 Rectangle with rounded corners*
0 $1 Rounding radius*
0 $2 $3 $4 $5 $6 $7 $8 $9 X,Y pos of 4 corners*
0 Add a 4 corners polygon primitive as box body*
4,1,4,$2,$3,$4,$5,$6,$7,$8,$9,$2,$3,0*
0 Add four circle primitives for the rounded corners*
1,1,$1+$1,$2,$3*
1,1,$1+$1,$4,$5*
1,1,$1+$1,$6,$7*
1,1,$1+$1,$8,$9*
0 Add four rect primitives between the rounded corners*
20,1,$1+$1,$2,$3,$4,$5,0*
20,1,$1+$1,$4,$5,$6,$7,0*
20,1,$1+$1,$6,$7,$8,$9,0*
20,1,$1+$1,$8,$9,$2,$3,0*%
G04 Aperture macros list end*
%TA.AperFunction,ComponentPad*%
%ADD10R,1.600000X1.600000*%
%TD*%
%TA.AperFunction,ComponentPad*%
%ADD11C,1.600000*%
%TD*%
%TA.AperFunction,ComponentPad*%
%ADD12O,1.600000X1.600000*%
%TD*%
%TA.AperFunction,ComponentPad*%
%ADD13C,2.000000*%
%TD*%
%TA.AperFunction,ComponentPad*%
%ADD14R,1.700000X1.700000*%
%TD*%
%TA.AperFunction,ComponentPad*%
%ADD15O,1.700000X1.700000*%
%TD*%
%TA.AperFunction,ComponentPad*%
%ADD16R,3.500000X3.500000*%
%TD*%
%TA.AperFunction,ComponentPad*%
%ADD17RoundRect,0.750000X-0.750000X-1.000000X0.750000X-1.000000X0.750000X1.000000X-0.750000X1.000000X0*%
%TD*%
%TA.AperFunction,ComponentPad*%
%ADD18RoundRect,0.875000X-0.875000X-0.875000X0.875000X-0.875000X0.875000X0.875000X-0.875000X0.875000X0*%
%TD*%
%TA.AperFunction,Conductor*%
%ADD19C,0.250000*%
%TD*%
G04 APERTURE END LIST*
D10*
%TO.P,C1,1*%
%TO.N,Net-(C1-Pad1)*%
X168874500Y-125145800D03*
D11*
%TO.P,C1,2*%
%TO.N,GND*%
X166874500Y-125145800D03*
%TD*%
%TO.P,R6,1*%
%TO.N,Net-(R6-Pad1)*%
X209799400Y-124998400D03*
D12*
%TO.P,R6,2*%
%TO.N,Net-(C1-Pad1)*%
X199639400Y-124998400D03*
%TD*%
D11*
%TO.P,R11,1*%
%TO.N,Net-(SW6-A)*%
X137668000Y-170840400D03*
D12*
%TO.P,R11,2*%
%TO.N,Net-(R11-Pad2)*%
X137668000Y-160680400D03*
%TD*%
D11*
%TO.P,R7,1*%
%TO.N,Net-(R7-Pad1)*%
X231541800Y-137698400D03*
D12*
%TO.P,R7,2*%
%TO.N,Net-(C2-Pad1)*%
X241701800Y-137698400D03*
%TD*%
D10*
%TO.P,C3,1*%
%TO.N,Net-(SW5-B)*%
X145643600Y-146532600D03*
D11*
%TO.P,C3,2*%
%TO.N,Net-(C3-Pad2)*%
X143643600Y-146532600D03*
%TD*%
%TO.P,R10,1*%
%TO.N,Net-(SW6-C)*%
X143941800Y-170840400D03*
D12*
%TO.P,R10,2*%
%TO.N,Net-(C3-Pad2)*%
X143941800Y-160680400D03*
%TD*%
D11*
%TO.P,R4,1*%
%TO.N,Net-(C2-Pad1)*%
X167767000Y-161925000D03*
D12*
%TO.P,R4,2*%
%TO.N,Net-(R2-Pad2)*%
X167767000Y-172085000D03*
%TD*%
D10*
%TO.P,C2,1*%
%TO.N,Net-(C2-Pad1)*%
X167138600Y-146862800D03*
D11*
%TO.P,C2,2*%
%TO.N,GND*%
X169138600Y-146862800D03*
%TD*%
%TO.P,R3,1*%
%TO.N,Net-(C1-Pad1)*%
X190982600Y-168757600D03*
D12*
%TO.P,R3,2*%
%TO.N,Net-(R1-Pad2)*%
X190982600Y-158597600D03*
%TD*%
D11*
%TO.P,R8,1*%
%TO.N,Net-(R8-Pad1)*%
X150876000Y-160477200D03*
D12*
%TO.P,R8,2*%
%TO.N,Net-(SW5-A)*%
X150876000Y-170637200D03*
%TD*%
D13*
%TO.P,SW2,1,1*%
%TO.N,GND*%
X174293600Y-220258200D03*
X167793600Y-220258200D03*
%TO.P,SW2,2,2*%
%TO.N,Net-(R2-Pad2)*%
X174293600Y-215758200D03*
X167793600Y-215758200D03*
%TD*%
D10*
%TO.P,U1,1*%
%TO.N,Net-(R6-Pad1)*%
X215569800Y-125018800D03*
D12*
%TO.P,U1,2*%
%TO.N,Net-(R11-Pad2)*%
X215569800Y-127558800D03*
%TO.P,U1,3*%
%TO.N,Net-(R5-Pad1)*%
X215569800Y-130098800D03*
%TO.P,U1,4*%
%TO.N,Net-(R8-Pad1)*%
X215569800Y-132638800D03*
%TO.P,U1,5*%
X215569800Y-135178800D03*
%TO.P,U1,6*%
%TO.N,Net-(C3-Pad2)*%
X215569800Y-137718800D03*
%TO.P,U1,7,GND*%
%TO.N,GND*%
X215569800Y-140258800D03*
%TO.P,U1,8*%
%TO.N,Net-(U1-Pad11)*%
X223189800Y-140258800D03*
%TO.P,U1,9*%
%TO.N,Net-(R7-Pad1)*%
X223189800Y-137718800D03*
%TO.P,U1,10*%
%TO.N,CLR*%
X223189800Y-135178800D03*
%TO.P,U1,11*%
%TO.N,Net-(U1-Pad11)*%
X223189800Y-132638800D03*
%TO.P,U1,12*%
%TO.N,unconnected-(U1-Pad12)*%
X223189800Y-130098800D03*
%TO.P,U1,13*%
%TO.N,GND*%
X223189800Y-127558800D03*
%TO.P,U1,14,Vcc*%
%TO.N,+5V*%
X223189800Y-125018800D03*
%TD*%
D14*
%TO.P,SW6,1,A*%
%TO.N,Net-(SW6-A)*%
X137962400Y-219989400D03*
D15*
%TO.P,SW6,2,B*%
%TO.N,CLK*%
X140502400Y-219989400D03*
%TO.P,SW6,3,C*%
%TO.N,Net-(SW6-C)*%
X143042400Y-219989400D03*
%TD*%
D11*
%TO.P,R2,1*%
%TO.N,+5V*%
X167665400Y-187375800D03*
D12*
%TO.P,R2,2*%
%TO.N,Net-(R2-Pad2)*%
X167665400Y-177215800D03*
%TD*%
D11*
%TO.P,R9,1*%
%TO.N,Net-(R8-Pad1)*%
X157099000Y-160426400D03*
D12*
%TO.P,R9,2*%
%TO.N,Net-(SW5-C)*%
X157099000Y-170586400D03*
%TD*%
D11*
%TO.P,R1,1*%
%TO.N,+5V*%
X174218600Y-168605200D03*
D12*
%TO.P,R1,2*%
%TO.N,Net-(R1-Pad2)*%
X184378600Y-168605200D03*
%TD*%
D16*
%TO.P,J2,1*%
%TO.N,+5V*%
X115067600Y-170307000D03*
D17*
%TO.P,J2,2*%
%TO.N,GND*%
X109067600Y-170307000D03*
D18*
%TO.P,J2,3*%
%TO.N,N/C*%
X112067600Y-175007000D03*
%TD*%
D11*
%TO.P,R5,1*%
%TO.N,Net-(R5-Pad1)*%
X209926400Y-131475400D03*
D12*
%TO.P,R5,2*%
%TO.N,Net-(SW5-B)*%
X199766400Y-131475400D03*
%TD*%
D11*
%TO.P,C4,1*%
%TO.N,GND*%
X218297600Y-146740800D03*
%TO.P,C4,2*%
%TO.N,+5V*%
X220797600Y-146740800D03*
%TD*%
D14*
%TO.P,SW5,1,A*%
%TO.N,Net-(SW5-A)*%
X151663400Y-219989400D03*
D15*
%TO.P,SW5,2,B*%
%TO.N,Net-(SW5-B)*%
X154203400Y-219989400D03*
%TO.P,SW5,3,C*%
%TO.N,Net-(SW5-C)*%
X156743400Y-219989400D03*
%TD*%
D13*
%TO.P,SW1,1,1*%
%TO.N,GND*%
X190524200Y-220283600D03*
X184024200Y-220283600D03*
%TO.P,SW1,2,2*%
%TO.N,Net-(R1-Pad2)*%
X190524200Y-215783600D03*
X184024200Y-215783600D03*
%TD*%
D14*
%TO.P,J1,1,Pin_1*%
%TO.N,CLK*%
X287858200Y-114554000D03*
D15*
%TO.P,J1,2,Pin_2*%
%TO.N,CLR*%
X290398200Y-114554000D03*
%TO.P,J1,3,Pin_3*%
%TO.N,+5V*%
X287858200Y-117094000D03*
%TO.P,J1,4,Pin_4*%
%TO.N,GND*%
X290398200Y-117094000D03*
%TO.P,J1,5,Pin_5*%
%TO.N,unconnected-(J1-Pin_5-Pad5)*%
X287858200Y-119634000D03*
%TO.P,J1,6,Pin_6*%
%TO.N,unconnected-(J1-Pin_6-Pad6)*%
X290398200Y-119634000D03*
%TO.P,J1,7,Pin_7*%
%TO.N,unconnected-(J1-Pin_7-Pad7)*%
X287858200Y-122174000D03*
%TO.P,J1,8,Pin_8*%
%TO.N,unconnected-(J1-Pin_8-Pad8)*%
X290398200Y-122174000D03*
%TO.P,J1,9,Pin_9*%
%TO.N,unconnected-(J1-Pin_9-Pad9)*%
X287858200Y-124714000D03*
%TO.P,J1,10,Pin_10*%
%TO.N,unconnected-(J1-Pin_10-Pad10)*%
X290398200Y-124714000D03*
%TO.P,J1,11,Pin_11*%
%TO.N,unconnected-(J1-Pin_11-Pad11)*%
X287858200Y-127254000D03*
%TO.P,J1,12,Pin_12*%
%TO.N,unconnected-(J1-Pin_12-Pad12)*%
X290398200Y-127254000D03*
%TO.P,J1,13,Pin_13*%
%TO.N,unconnected-(J1-Pin_13-Pad13)*%
X287858200Y-129794000D03*
%TO.P,J1,14,Pin_14*%
%TO.N,unconnected-(J1-Pin_14-Pad14)*%
X290398200Y-129794000D03*
%TO.P,J1,15,Pin_15*%
%TO.N,unconnected-(J1-Pin_15-Pad15)*%
X287858200Y-132334000D03*
%TO.P,J1,16,Pin_16*%
%TO.N,unconnected-(J1-Pin_16-Pad16)*%
X290398200Y-132334000D03*
%TO.P,J1,17,Pin_17*%
%TO.N,unconnected-(J1-Pin_17-Pad17)*%
X287858200Y-134874000D03*
%TO.P,J1,18,Pin_18*%
%TO.N,unconnected-(J1-Pin_18-Pad18)*%
X290398200Y-134874000D03*
%TO.P,J1,19,Pin_19*%
%TO.N,unconnected-(J1-Pin_19-Pad19)*%
X287858200Y-137414000D03*
%TO.P,J1,20,Pin_20*%
%TO.N,unconnected-(J1-Pin_20-Pad20)*%
X290398200Y-137414000D03*
%TO.P,J1,21,Pin_21*%
%TO.N,unconnected-(J1-Pin_21-Pad21)*%
X287858200Y-139954000D03*
%TO.P,J1,22,Pin_22*%
%TO.N,unconnected-(J1-Pin_22-Pad22)*%
X290398200Y-139954000D03*
%TO.P,J1,23,Pin_23*%
%TO.N,unconnected-(J1-Pin_23-Pad23)*%
X287858200Y-142494000D03*
%TO.P,J1,24,Pin_24*%
%TO.N,unconnected-(J1-Pin_24-Pad24)*%
X290398200Y-142494000D03*
%TO.P,J1,25,Pin_25*%
%TO.N,unconnected-(J1-Pin_25-Pad25)*%
X287858200Y-145034000D03*
%TO.P,J1,26,Pin_26*%
%TO.N,unconnected-(J1-Pin_26-Pad26)*%
X290398200Y-145034000D03*
%TO.P,J1,27,Pin_27*%
%TO.N,unconnected-(J1-Pin_27-Pad27)*%
X287858200Y-147574000D03*
%TO.P,J1,28,Pin_28*%
%TO.N,unconnected-(J1-Pin_28-Pad28)*%
X290398200Y-147574000D03*
%TO.P,J1,29,Pin_29*%
%TO.N,unconnected-(J1-Pin_29-Pad29)*%
X287858200Y-150114000D03*
%TO.P,J1,30,Pin_30*%
%TO.N,unconnected-(J1-Pin_30-Pad30)*%
X290398200Y-150114000D03*
%TO.P,J1,31,Pin_31*%
%TO.N,unconnected-(J1-Pin_31-Pad31)*%
X287858200Y-152654000D03*
%TO.P,J1,32,Pin_32*%
%TO.N,unconnected-(J1-Pin_32-Pad32)*%
X290398200Y-152654000D03*
%TO.P,J1,33,Pin_33*%
%TO.N,unconnected-(J1-Pin_33-Pad33)*%
X287858200Y-155194000D03*
%TO.P,J1,34,Pin_34*%
%TO.N,unconnected-(J1-Pin_34-Pad34)*%
X290398200Y-155194000D03*
%TD*%
D19*
%TO.N,GND*%
X224316700Y-127558800D02*
X223189800Y-127558800D01*
X289221300Y-118270900D02*
X233604600Y-118270900D01*
X233604600Y-118270900D02*
X224316700Y-127558800D01*
X290398200Y-117094000D02*
X289221300Y-118270900D01*
X214442900Y-140258800D02*
X207838900Y-146862800D01*
X215569800Y-140258800D02*
X214442900Y-140258800D01*
X190524200Y-220283600D02*
X184024200Y-220283600D01*
X169138600Y-146862800D02*
X169138600Y-146966100D01*
X174319000Y-220283600D02*
X174293600Y-220258200D01*
X184024200Y-220283600D02*
X174319000Y-220283600D01*
X169138600Y-146966100D02*
X167590600Y-148514100D01*
X167590600Y-148514100D02*
X152532100Y-148514100D01*
X112624900Y-166749700D02*
X109067600Y-170307000D01*
X152532100Y-148514100D02*
X134296500Y-166749700D01*
X134296500Y-166749700D02*
X112624900Y-166749700D01*
X207838900Y-146862800D02*
X169138600Y-146862800D01*
%TO.N,Net-(C2-Pad1)*%
X241701800Y-137698400D02*
X240574900Y-136571500D01*
X216675000Y-134007100D02*
X179994300Y-134007100D01*
X219239400Y-136571500D02*
X216675000Y-134007100D01*
X240574900Y-136571500D02*
X219239400Y-136571500D01*
X179994300Y-134007100D02*
X167138600Y-146862800D01*
%TO.N,Net-(SW5-B)*%
X145643600Y-146532600D02*
X146770500Y-146532600D01*
X199766400Y-131475400D02*
X161827700Y-131475400D01*
X161827700Y-131475400D02*
X146770500Y-146532600D01*
%TO.N,Net-(C3-Pad2)*%
X149302600Y-156446500D02*
X145068700Y-160680400D01*
X200995000Y-156446500D02*
X149302600Y-156446500D01*
X215569800Y-137718800D02*
X216721500Y-138870500D01*
X216721500Y-140720000D02*
X200995000Y-156446500D01*
X216721500Y-138870500D02*
X216721500Y-140720000D01*
X145068700Y-160680400D02*
X143941800Y-160680400D01*
%TO.N,+5V*%
X168904900Y-186136300D02*
X167665400Y-187375800D01*
X117144500Y-170307000D02*
X117995400Y-169456100D01*
X168904900Y-169456100D02*
X168904900Y-186136300D01*
X169755800Y-168605200D02*
X168904900Y-169456100D01*
X174218600Y-168605200D02*
X169755800Y-168605200D01*
X223189800Y-125018800D02*
X224316700Y-125018800D01*
X204488000Y-163050400D02*
X179773400Y-163050400D01*
X115067600Y-170307000D02*
X117144500Y-170307000D01*
X232241500Y-117094000D02*
X224316700Y-125018800D01*
X287858200Y-117094000D02*
X232241500Y-117094000D01*
X179773400Y-163050400D02*
X174218600Y-168605200D01*
X220797600Y-146740800D02*
X204488000Y-163050400D01*
X117995400Y-169456100D02*
X168904900Y-169456100D01*
%TO.N,Net-(R1-Pad2)*%
X184024200Y-215783600D02*
X184378600Y-215783600D01*
X184378600Y-168605200D02*
X184378600Y-169732100D01*
X184378600Y-215783600D02*
X184378600Y-169732100D01*
X184378600Y-215783600D02*
X190524200Y-215783600D01*
%TO.N,Net-(R2-Pad2)*%
X167767000Y-175987300D02*
X167767000Y-172085000D01*
X167793600Y-215758200D02*
X174293600Y-215758200D01*
X167665400Y-177215800D02*
X167665400Y-176088900D01*
X167665400Y-176088900D02*
X167767000Y-175987300D01*
%TO.N,Net-(R5-Pad1)*%
X215569800Y-130098800D02*
X211303000Y-130098800D01*
X211303000Y-130098800D02*
X209926400Y-131475400D01*
%TO.N,Net-(R6-Pad1)*%
X209819800Y-125018800D02*
X209799400Y-124998400D01*
X215569800Y-125018800D02*
X209819800Y-125018800D01*
%TO.N,Net-(R7-Pad1)*%
X223189800Y-137718800D02*
X224316700Y-137718800D01*
X224337100Y-137698400D02*
X231541800Y-137698400D01*
X224316700Y-137718800D02*
X224337100Y-137698400D01*
%TO.N,Net-(R8-Pad1)*%
X215569800Y-135178800D02*
X217173400Y-136782400D01*
X217173400Y-140907200D02*
X197654200Y-160426400D01*
X150926800Y-160426400D02*
X150876000Y-160477200D01*
X197654200Y-160426400D02*
X157099000Y-160426400D01*
X157099000Y-160426400D02*
X150926800Y-160426400D01*
X217173400Y-136782400D02*
X217173400Y-140907200D01*
%TO.N,Net-(R11-Pad2)*%
X202243000Y-133238000D02*
X207922200Y-127558800D01*
X138794900Y-160680400D02*
X166237300Y-133238000D01*
X207922200Y-127558800D02*
X215569800Y-127558800D01*
X137668000Y-160680400D02*
X138794900Y-160680400D01*
X166237300Y-133238000D02*
X202243000Y-133238000D01*
%TD*%
M02*
