%TF.GenerationSoftware,KiCad,Pcbnew,7.0.7*%
%TF.CreationDate,2023-10-25T17:14:34+09:00*%
%TF.ProjectId,clock_clear,636c6f63-6b5f-4636-9c65-61722e6b6963,rev?*%
%TF.SameCoordinates,Original*%
%TF.FileFunction,Legend,Top*%
%TF.FilePolarity,Positive*%
%FSLAX46Y46*%
G04 Gerber Fmt 4.6, Leading zero omitted, Abs format (unit mm)*
G04 Created by KiCad (PCBNEW 7.0.7) date 2023-10-25 17:14:34*
%MOMM*%
%LPD*%
G01*
G04 APERTURE LIST*
%ADD10C,0.300000*%
%ADD11C,0.150000*%
%ADD12C,0.120000*%
G04 APERTURE END LIST*
D10*
X157524825Y-224209828D02*
X156667682Y-224209828D01*
X157096253Y-224209828D02*
X157096253Y-222709828D01*
X157096253Y-222709828D02*
X156953396Y-222924114D01*
X156953396Y-222924114D02*
X156810539Y-223066971D01*
X156810539Y-223066971D02*
X156667682Y-223138400D01*
X158453396Y-222709828D02*
X158596253Y-222709828D01*
X158596253Y-222709828D02*
X158739110Y-222781257D01*
X158739110Y-222781257D02*
X158810539Y-222852685D01*
X158810539Y-222852685D02*
X158881967Y-222995542D01*
X158881967Y-222995542D02*
X158953396Y-223281257D01*
X158953396Y-223281257D02*
X158953396Y-223638400D01*
X158953396Y-223638400D02*
X158881967Y-223924114D01*
X158881967Y-223924114D02*
X158810539Y-224066971D01*
X158810539Y-224066971D02*
X158739110Y-224138400D01*
X158739110Y-224138400D02*
X158596253Y-224209828D01*
X158596253Y-224209828D02*
X158453396Y-224209828D01*
X158453396Y-224209828D02*
X158310539Y-224138400D01*
X158310539Y-224138400D02*
X158239110Y-224066971D01*
X158239110Y-224066971D02*
X158167681Y-223924114D01*
X158167681Y-223924114D02*
X158096253Y-223638400D01*
X158096253Y-223638400D02*
X158096253Y-223281257D01*
X158096253Y-223281257D02*
X158167681Y-222995542D01*
X158167681Y-222995542D02*
X158239110Y-222852685D01*
X158239110Y-222852685D02*
X158310539Y-222781257D01*
X158310539Y-222781257D02*
X158453396Y-222709828D01*
X159596252Y-224209828D02*
X159596252Y-222709828D01*
X159596252Y-223424114D02*
X160453395Y-223424114D01*
X160453395Y-224209828D02*
X160453395Y-222709828D01*
X161024824Y-223209828D02*
X161810539Y-223209828D01*
X161810539Y-223209828D02*
X161024824Y-224209828D01*
X161024824Y-224209828D02*
X161810539Y-224209828D01*
X148914225Y-224159028D02*
X148057082Y-224159028D01*
X148485653Y-224159028D02*
X148485653Y-222659028D01*
X148485653Y-222659028D02*
X148342796Y-222873314D01*
X148342796Y-222873314D02*
X148199939Y-223016171D01*
X148199939Y-223016171D02*
X148057082Y-223087600D01*
X149557081Y-224159028D02*
X149557081Y-222659028D01*
X149557081Y-223373314D02*
X150414224Y-223373314D01*
X150414224Y-224159028D02*
X150414224Y-222659028D01*
X150985653Y-223159028D02*
X151771368Y-223159028D01*
X151771368Y-223159028D02*
X150985653Y-224159028D01*
X150985653Y-224159028D02*
X151771368Y-224159028D01*
X135555510Y-224209828D02*
X135555510Y-222709828D01*
X135555510Y-222709828D02*
X136055510Y-223781257D01*
X136055510Y-223781257D02*
X136555510Y-222709828D01*
X136555510Y-222709828D02*
X136555510Y-224209828D01*
X144501082Y-223679657D02*
X145215368Y-223679657D01*
X144358225Y-224108228D02*
X144858225Y-222608228D01*
X144858225Y-222608228D02*
X145358225Y-224108228D01*
D11*
X287435588Y-104734819D02*
X286864160Y-104734819D01*
X287149874Y-104734819D02*
X287149874Y-103734819D01*
X287149874Y-103734819D02*
X287054636Y-103877676D01*
X287054636Y-103877676D02*
X286959398Y-103972914D01*
X286959398Y-103972914D02*
X286864160Y-104020533D01*
X287864160Y-104639580D02*
X287911779Y-104687200D01*
X287911779Y-104687200D02*
X287864160Y-104734819D01*
X287864160Y-104734819D02*
X287816541Y-104687200D01*
X287816541Y-104687200D02*
X287864160Y-104639580D01*
X287864160Y-104639580D02*
X287864160Y-104734819D01*
X287864160Y-104115771D02*
X287911779Y-104163390D01*
X287911779Y-104163390D02*
X287864160Y-104211009D01*
X287864160Y-104211009D02*
X287816541Y-104163390D01*
X287816541Y-104163390D02*
X287864160Y-104115771D01*
X287864160Y-104115771D02*
X287864160Y-104211009D01*
X288911778Y-104639580D02*
X288864159Y-104687200D01*
X288864159Y-104687200D02*
X288721302Y-104734819D01*
X288721302Y-104734819D02*
X288626064Y-104734819D01*
X288626064Y-104734819D02*
X288483207Y-104687200D01*
X288483207Y-104687200D02*
X288387969Y-104591961D01*
X288387969Y-104591961D02*
X288340350Y-104496723D01*
X288340350Y-104496723D02*
X288292731Y-104306247D01*
X288292731Y-104306247D02*
X288292731Y-104163390D01*
X288292731Y-104163390D02*
X288340350Y-103972914D01*
X288340350Y-103972914D02*
X288387969Y-103877676D01*
X288387969Y-103877676D02*
X288483207Y-103782438D01*
X288483207Y-103782438D02*
X288626064Y-103734819D01*
X288626064Y-103734819D02*
X288721302Y-103734819D01*
X288721302Y-103734819D02*
X288864159Y-103782438D01*
X288864159Y-103782438D02*
X288911778Y-103830057D01*
X289816540Y-104734819D02*
X289340350Y-104734819D01*
X289340350Y-104734819D02*
X289340350Y-103734819D01*
X290149874Y-104734819D02*
X290149874Y-103734819D01*
X290721302Y-104734819D02*
X290292731Y-104163390D01*
X290721302Y-103734819D02*
X290149874Y-104306247D01*
X286864160Y-105440057D02*
X286911779Y-105392438D01*
X286911779Y-105392438D02*
X287007017Y-105344819D01*
X287007017Y-105344819D02*
X287245112Y-105344819D01*
X287245112Y-105344819D02*
X287340350Y-105392438D01*
X287340350Y-105392438D02*
X287387969Y-105440057D01*
X287387969Y-105440057D02*
X287435588Y-105535295D01*
X287435588Y-105535295D02*
X287435588Y-105630533D01*
X287435588Y-105630533D02*
X287387969Y-105773390D01*
X287387969Y-105773390D02*
X286816541Y-106344819D01*
X286816541Y-106344819D02*
X287435588Y-106344819D01*
X287864160Y-106249580D02*
X287911779Y-106297200D01*
X287911779Y-106297200D02*
X287864160Y-106344819D01*
X287864160Y-106344819D02*
X287816541Y-106297200D01*
X287816541Y-106297200D02*
X287864160Y-106249580D01*
X287864160Y-106249580D02*
X287864160Y-106344819D01*
X287864160Y-105725771D02*
X287911779Y-105773390D01*
X287911779Y-105773390D02*
X287864160Y-105821009D01*
X287864160Y-105821009D02*
X287816541Y-105773390D01*
X287816541Y-105773390D02*
X287864160Y-105725771D01*
X287864160Y-105725771D02*
X287864160Y-105821009D01*
X288911778Y-106249580D02*
X288864159Y-106297200D01*
X288864159Y-106297200D02*
X288721302Y-106344819D01*
X288721302Y-106344819D02*
X288626064Y-106344819D01*
X288626064Y-106344819D02*
X288483207Y-106297200D01*
X288483207Y-106297200D02*
X288387969Y-106201961D01*
X288387969Y-106201961D02*
X288340350Y-106106723D01*
X288340350Y-106106723D02*
X288292731Y-105916247D01*
X288292731Y-105916247D02*
X288292731Y-105773390D01*
X288292731Y-105773390D02*
X288340350Y-105582914D01*
X288340350Y-105582914D02*
X288387969Y-105487676D01*
X288387969Y-105487676D02*
X288483207Y-105392438D01*
X288483207Y-105392438D02*
X288626064Y-105344819D01*
X288626064Y-105344819D02*
X288721302Y-105344819D01*
X288721302Y-105344819D02*
X288864159Y-105392438D01*
X288864159Y-105392438D02*
X288911778Y-105440057D01*
X289816540Y-106344819D02*
X289340350Y-106344819D01*
X289340350Y-106344819D02*
X289340350Y-105344819D01*
X290721302Y-106344819D02*
X290387969Y-105868628D01*
X290149874Y-106344819D02*
X290149874Y-105344819D01*
X290149874Y-105344819D02*
X290530826Y-105344819D01*
X290530826Y-105344819D02*
X290626064Y-105392438D01*
X290626064Y-105392438D02*
X290673683Y-105440057D01*
X290673683Y-105440057D02*
X290721302Y-105535295D01*
X290721302Y-105535295D02*
X290721302Y-105678152D01*
X290721302Y-105678152D02*
X290673683Y-105773390D01*
X290673683Y-105773390D02*
X290626064Y-105821009D01*
X290626064Y-105821009D02*
X290530826Y-105868628D01*
X290530826Y-105868628D02*
X290149874Y-105868628D01*
X286816541Y-106954819D02*
X287435588Y-106954819D01*
X287435588Y-106954819D02*
X287102255Y-107335771D01*
X287102255Y-107335771D02*
X287245112Y-107335771D01*
X287245112Y-107335771D02*
X287340350Y-107383390D01*
X287340350Y-107383390D02*
X287387969Y-107431009D01*
X287387969Y-107431009D02*
X287435588Y-107526247D01*
X287435588Y-107526247D02*
X287435588Y-107764342D01*
X287435588Y-107764342D02*
X287387969Y-107859580D01*
X287387969Y-107859580D02*
X287340350Y-107907200D01*
X287340350Y-107907200D02*
X287245112Y-107954819D01*
X287245112Y-107954819D02*
X286959398Y-107954819D01*
X286959398Y-107954819D02*
X286864160Y-107907200D01*
X286864160Y-107907200D02*
X286816541Y-107859580D01*
X287864160Y-107859580D02*
X287911779Y-107907200D01*
X287911779Y-107907200D02*
X287864160Y-107954819D01*
X287864160Y-107954819D02*
X287816541Y-107907200D01*
X287816541Y-107907200D02*
X287864160Y-107859580D01*
X287864160Y-107859580D02*
X287864160Y-107954819D01*
X287864160Y-107335771D02*
X287911779Y-107383390D01*
X287911779Y-107383390D02*
X287864160Y-107431009D01*
X287864160Y-107431009D02*
X287816541Y-107383390D01*
X287816541Y-107383390D02*
X287864160Y-107335771D01*
X287864160Y-107335771D02*
X287864160Y-107431009D01*
X288816540Y-106954819D02*
X288340350Y-106954819D01*
X288340350Y-106954819D02*
X288292731Y-107431009D01*
X288292731Y-107431009D02*
X288340350Y-107383390D01*
X288340350Y-107383390D02*
X288435588Y-107335771D01*
X288435588Y-107335771D02*
X288673683Y-107335771D01*
X288673683Y-107335771D02*
X288768921Y-107383390D01*
X288768921Y-107383390D02*
X288816540Y-107431009D01*
X288816540Y-107431009D02*
X288864159Y-107526247D01*
X288864159Y-107526247D02*
X288864159Y-107764342D01*
X288864159Y-107764342D02*
X288816540Y-107859580D01*
X288816540Y-107859580D02*
X288768921Y-107907200D01*
X288768921Y-107907200D02*
X288673683Y-107954819D01*
X288673683Y-107954819D02*
X288435588Y-107954819D01*
X288435588Y-107954819D02*
X288340350Y-107907200D01*
X288340350Y-107907200D02*
X288292731Y-107859580D01*
X289149874Y-106954819D02*
X289483207Y-107954819D01*
X289483207Y-107954819D02*
X289816540Y-106954819D01*
X287340350Y-108898152D02*
X287340350Y-109564819D01*
X287102255Y-108517200D02*
X286864160Y-109231485D01*
X286864160Y-109231485D02*
X287483207Y-109231485D01*
X287864160Y-109469580D02*
X287911779Y-109517200D01*
X287911779Y-109517200D02*
X287864160Y-109564819D01*
X287864160Y-109564819D02*
X287816541Y-109517200D01*
X287816541Y-109517200D02*
X287864160Y-109469580D01*
X287864160Y-109469580D02*
X287864160Y-109564819D01*
X287864160Y-108945771D02*
X287911779Y-108993390D01*
X287911779Y-108993390D02*
X287864160Y-109041009D01*
X287864160Y-109041009D02*
X287816541Y-108993390D01*
X287816541Y-108993390D02*
X287864160Y-108945771D01*
X287864160Y-108945771D02*
X287864160Y-109041009D01*
X288864159Y-108612438D02*
X288768921Y-108564819D01*
X288768921Y-108564819D02*
X288626064Y-108564819D01*
X288626064Y-108564819D02*
X288483207Y-108612438D01*
X288483207Y-108612438D02*
X288387969Y-108707676D01*
X288387969Y-108707676D02*
X288340350Y-108802914D01*
X288340350Y-108802914D02*
X288292731Y-108993390D01*
X288292731Y-108993390D02*
X288292731Y-109136247D01*
X288292731Y-109136247D02*
X288340350Y-109326723D01*
X288340350Y-109326723D02*
X288387969Y-109421961D01*
X288387969Y-109421961D02*
X288483207Y-109517200D01*
X288483207Y-109517200D02*
X288626064Y-109564819D01*
X288626064Y-109564819D02*
X288721302Y-109564819D01*
X288721302Y-109564819D02*
X288864159Y-109517200D01*
X288864159Y-109517200D02*
X288911778Y-109469580D01*
X288911778Y-109469580D02*
X288911778Y-109136247D01*
X288911778Y-109136247D02*
X288721302Y-109136247D01*
X289340350Y-109564819D02*
X289340350Y-108564819D01*
X289340350Y-108564819D02*
X289911778Y-109564819D01*
X289911778Y-109564819D02*
X289911778Y-108564819D01*
X290387969Y-109564819D02*
X290387969Y-108564819D01*
X290387969Y-108564819D02*
X290626064Y-108564819D01*
X290626064Y-108564819D02*
X290768921Y-108612438D01*
X290768921Y-108612438D02*
X290864159Y-108707676D01*
X290864159Y-108707676D02*
X290911778Y-108802914D01*
X290911778Y-108802914D02*
X290959397Y-108993390D01*
X290959397Y-108993390D02*
X290959397Y-109136247D01*
X290959397Y-109136247D02*
X290911778Y-109326723D01*
X290911778Y-109326723D02*
X290864159Y-109421961D01*
X290864159Y-109421961D02*
X290768921Y-109517200D01*
X290768921Y-109517200D02*
X290626064Y-109564819D01*
X290626064Y-109564819D02*
X290387969Y-109564819D01*
X285750000Y-102870000D02*
X293370000Y-102870000D01*
X293370000Y-110490000D01*
X285750000Y-110490000D01*
X285750000Y-102870000D01*
X106553095Y-28004819D02*
X106553095Y-27004819D01*
X106553095Y-27481009D02*
X107124523Y-27481009D01*
X107124523Y-28004819D02*
X107124523Y-27004819D01*
X108124523Y-28004819D02*
X107553095Y-28004819D01*
X107838809Y-28004819D02*
X107838809Y-27004819D01*
X107838809Y-27004819D02*
X107743571Y-27147676D01*
X107743571Y-27147676D02*
X107648333Y-27242914D01*
X107648333Y-27242914D02*
X107553095Y-27290533D01*
X167707833Y-129255380D02*
X167660214Y-129303000D01*
X167660214Y-129303000D02*
X167517357Y-129350619D01*
X167517357Y-129350619D02*
X167422119Y-129350619D01*
X167422119Y-129350619D02*
X167279262Y-129303000D01*
X167279262Y-129303000D02*
X167184024Y-129207761D01*
X167184024Y-129207761D02*
X167136405Y-129112523D01*
X167136405Y-129112523D02*
X167088786Y-128922047D01*
X167088786Y-128922047D02*
X167088786Y-128779190D01*
X167088786Y-128779190D02*
X167136405Y-128588714D01*
X167136405Y-128588714D02*
X167184024Y-128493476D01*
X167184024Y-128493476D02*
X167279262Y-128398238D01*
X167279262Y-128398238D02*
X167422119Y-128350619D01*
X167422119Y-128350619D02*
X167517357Y-128350619D01*
X167517357Y-128350619D02*
X167660214Y-128398238D01*
X167660214Y-128398238D02*
X167707833Y-128445857D01*
X168660214Y-129350619D02*
X168088786Y-129350619D01*
X168374500Y-129350619D02*
X168374500Y-128350619D01*
X168374500Y-128350619D02*
X168279262Y-128493476D01*
X168279262Y-128493476D02*
X168184024Y-128588714D01*
X168184024Y-128588714D02*
X168088786Y-128636333D01*
X167160214Y-121850619D02*
X166588786Y-121850619D01*
X166874500Y-121850619D02*
X166874500Y-120850619D01*
X166874500Y-120850619D02*
X166779262Y-120993476D01*
X166779262Y-120993476D02*
X166684024Y-121088714D01*
X166684024Y-121088714D02*
X166588786Y-121136333D01*
X167779262Y-120850619D02*
X167874500Y-120850619D01*
X167874500Y-120850619D02*
X167969738Y-120898238D01*
X167969738Y-120898238D02*
X168017357Y-120945857D01*
X168017357Y-120945857D02*
X168064976Y-121041095D01*
X168064976Y-121041095D02*
X168112595Y-121231571D01*
X168112595Y-121231571D02*
X168112595Y-121469666D01*
X168112595Y-121469666D02*
X168064976Y-121660142D01*
X168064976Y-121660142D02*
X168017357Y-121755380D01*
X168017357Y-121755380D02*
X167969738Y-121803000D01*
X167969738Y-121803000D02*
X167874500Y-121850619D01*
X167874500Y-121850619D02*
X167779262Y-121850619D01*
X167779262Y-121850619D02*
X167684024Y-121803000D01*
X167684024Y-121803000D02*
X167636405Y-121755380D01*
X167636405Y-121755380D02*
X167588786Y-121660142D01*
X167588786Y-121660142D02*
X167541167Y-121469666D01*
X167541167Y-121469666D02*
X167541167Y-121231571D01*
X167541167Y-121231571D02*
X167588786Y-121041095D01*
X167588786Y-121041095D02*
X167636405Y-120945857D01*
X167636405Y-120945857D02*
X167684024Y-120898238D01*
X167684024Y-120898238D02*
X167779262Y-120850619D01*
X168541167Y-121183952D02*
X168541167Y-122183952D01*
X169017357Y-121707761D02*
X169064976Y-121803000D01*
X169064976Y-121803000D02*
X169160214Y-121850619D01*
X168541167Y-121707761D02*
X168588786Y-121803000D01*
X168588786Y-121803000D02*
X168684024Y-121850619D01*
X168684024Y-121850619D02*
X168874500Y-121850619D01*
X168874500Y-121850619D02*
X168969738Y-121803000D01*
X168969738Y-121803000D02*
X169017357Y-121707761D01*
X169017357Y-121707761D02*
X169017357Y-121183952D01*
X204552733Y-127823219D02*
X204219400Y-127347028D01*
X203981305Y-127823219D02*
X203981305Y-126823219D01*
X203981305Y-126823219D02*
X204362257Y-126823219D01*
X204362257Y-126823219D02*
X204457495Y-126870838D01*
X204457495Y-126870838D02*
X204505114Y-126918457D01*
X204505114Y-126918457D02*
X204552733Y-127013695D01*
X204552733Y-127013695D02*
X204552733Y-127156552D01*
X204552733Y-127156552D02*
X204505114Y-127251790D01*
X204505114Y-127251790D02*
X204457495Y-127299409D01*
X204457495Y-127299409D02*
X204362257Y-127347028D01*
X204362257Y-127347028D02*
X203981305Y-127347028D01*
X205409876Y-126823219D02*
X205219400Y-126823219D01*
X205219400Y-126823219D02*
X205124162Y-126870838D01*
X205124162Y-126870838D02*
X205076543Y-126918457D01*
X205076543Y-126918457D02*
X204981305Y-127061314D01*
X204981305Y-127061314D02*
X204933686Y-127251790D01*
X204933686Y-127251790D02*
X204933686Y-127632742D01*
X204933686Y-127632742D02*
X204981305Y-127727980D01*
X204981305Y-127727980D02*
X205028924Y-127775600D01*
X205028924Y-127775600D02*
X205124162Y-127823219D01*
X205124162Y-127823219D02*
X205314638Y-127823219D01*
X205314638Y-127823219D02*
X205409876Y-127775600D01*
X205409876Y-127775600D02*
X205457495Y-127727980D01*
X205457495Y-127727980D02*
X205505114Y-127632742D01*
X205505114Y-127632742D02*
X205505114Y-127394647D01*
X205505114Y-127394647D02*
X205457495Y-127299409D01*
X205457495Y-127299409D02*
X205409876Y-127251790D01*
X205409876Y-127251790D02*
X205314638Y-127204171D01*
X205314638Y-127204171D02*
X205124162Y-127204171D01*
X205124162Y-127204171D02*
X205028924Y-127251790D01*
X205028924Y-127251790D02*
X204981305Y-127299409D01*
X204981305Y-127299409D02*
X204933686Y-127394647D01*
X203647971Y-123083219D02*
X203076543Y-123083219D01*
X203362257Y-123083219D02*
X203362257Y-122083219D01*
X203362257Y-122083219D02*
X203267019Y-122226076D01*
X203267019Y-122226076D02*
X203171781Y-122321314D01*
X203171781Y-122321314D02*
X203076543Y-122368933D01*
X204267019Y-122083219D02*
X204362257Y-122083219D01*
X204362257Y-122083219D02*
X204457495Y-122130838D01*
X204457495Y-122130838D02*
X204505114Y-122178457D01*
X204505114Y-122178457D02*
X204552733Y-122273695D01*
X204552733Y-122273695D02*
X204600352Y-122464171D01*
X204600352Y-122464171D02*
X204600352Y-122702266D01*
X204600352Y-122702266D02*
X204552733Y-122892742D01*
X204552733Y-122892742D02*
X204505114Y-122987980D01*
X204505114Y-122987980D02*
X204457495Y-123035600D01*
X204457495Y-123035600D02*
X204362257Y-123083219D01*
X204362257Y-123083219D02*
X204267019Y-123083219D01*
X204267019Y-123083219D02*
X204171781Y-123035600D01*
X204171781Y-123035600D02*
X204124162Y-122987980D01*
X204124162Y-122987980D02*
X204076543Y-122892742D01*
X204076543Y-122892742D02*
X204028924Y-122702266D01*
X204028924Y-122702266D02*
X204028924Y-122464171D01*
X204028924Y-122464171D02*
X204076543Y-122273695D01*
X204076543Y-122273695D02*
X204124162Y-122178457D01*
X204124162Y-122178457D02*
X204171781Y-122130838D01*
X204171781Y-122130838D02*
X204267019Y-122083219D01*
X205219400Y-122083219D02*
X205314638Y-122083219D01*
X205314638Y-122083219D02*
X205409876Y-122130838D01*
X205409876Y-122130838D02*
X205457495Y-122178457D01*
X205457495Y-122178457D02*
X205505114Y-122273695D01*
X205505114Y-122273695D02*
X205552733Y-122464171D01*
X205552733Y-122464171D02*
X205552733Y-122702266D01*
X205552733Y-122702266D02*
X205505114Y-122892742D01*
X205505114Y-122892742D02*
X205457495Y-122987980D01*
X205457495Y-122987980D02*
X205409876Y-123035600D01*
X205409876Y-123035600D02*
X205314638Y-123083219D01*
X205314638Y-123083219D02*
X205219400Y-123083219D01*
X205219400Y-123083219D02*
X205124162Y-123035600D01*
X205124162Y-123035600D02*
X205076543Y-122987980D01*
X205076543Y-122987980D02*
X205028924Y-122892742D01*
X205028924Y-122892742D02*
X204981305Y-122702266D01*
X204981305Y-122702266D02*
X204981305Y-122464171D01*
X204981305Y-122464171D02*
X205028924Y-122273695D01*
X205028924Y-122273695D02*
X205076543Y-122178457D01*
X205076543Y-122178457D02*
X205124162Y-122130838D01*
X205124162Y-122130838D02*
X205219400Y-122083219D01*
X205981305Y-123083219D02*
X205981305Y-122083219D01*
X206076543Y-122702266D02*
X206362257Y-123083219D01*
X206362257Y-122416552D02*
X205981305Y-122797504D01*
X135752819Y-166403257D02*
X135276628Y-166736590D01*
X135752819Y-166974685D02*
X134752819Y-166974685D01*
X134752819Y-166974685D02*
X134752819Y-166593733D01*
X134752819Y-166593733D02*
X134800438Y-166498495D01*
X134800438Y-166498495D02*
X134848057Y-166450876D01*
X134848057Y-166450876D02*
X134943295Y-166403257D01*
X134943295Y-166403257D02*
X135086152Y-166403257D01*
X135086152Y-166403257D02*
X135181390Y-166450876D01*
X135181390Y-166450876D02*
X135229009Y-166498495D01*
X135229009Y-166498495D02*
X135276628Y-166593733D01*
X135276628Y-166593733D02*
X135276628Y-166974685D01*
X135752819Y-165450876D02*
X135752819Y-166022304D01*
X135752819Y-165736590D02*
X134752819Y-165736590D01*
X134752819Y-165736590D02*
X134895676Y-165831828D01*
X134895676Y-165831828D02*
X134990914Y-165927066D01*
X134990914Y-165927066D02*
X135038533Y-166022304D01*
X135752819Y-164498495D02*
X135752819Y-165069923D01*
X135752819Y-164784209D02*
X134752819Y-164784209D01*
X134752819Y-164784209D02*
X134895676Y-164879447D01*
X134895676Y-164879447D02*
X134990914Y-164974685D01*
X134990914Y-164974685D02*
X135038533Y-165069923D01*
X140492819Y-166427066D02*
X140492819Y-166998494D01*
X140492819Y-166712780D02*
X139492819Y-166712780D01*
X139492819Y-166712780D02*
X139635676Y-166808018D01*
X139635676Y-166808018D02*
X139730914Y-166903256D01*
X139730914Y-166903256D02*
X139778533Y-166998494D01*
X139492819Y-165808018D02*
X139492819Y-165712780D01*
X139492819Y-165712780D02*
X139540438Y-165617542D01*
X139540438Y-165617542D02*
X139588057Y-165569923D01*
X139588057Y-165569923D02*
X139683295Y-165522304D01*
X139683295Y-165522304D02*
X139873771Y-165474685D01*
X139873771Y-165474685D02*
X140111866Y-165474685D01*
X140111866Y-165474685D02*
X140302342Y-165522304D01*
X140302342Y-165522304D02*
X140397580Y-165569923D01*
X140397580Y-165569923D02*
X140445200Y-165617542D01*
X140445200Y-165617542D02*
X140492819Y-165712780D01*
X140492819Y-165712780D02*
X140492819Y-165808018D01*
X140492819Y-165808018D02*
X140445200Y-165903256D01*
X140445200Y-165903256D02*
X140397580Y-165950875D01*
X140397580Y-165950875D02*
X140302342Y-165998494D01*
X140302342Y-165998494D02*
X140111866Y-166046113D01*
X140111866Y-166046113D02*
X139873771Y-166046113D01*
X139873771Y-166046113D02*
X139683295Y-165998494D01*
X139683295Y-165998494D02*
X139588057Y-165950875D01*
X139588057Y-165950875D02*
X139540438Y-165903256D01*
X139540438Y-165903256D02*
X139492819Y-165808018D01*
X139492819Y-164855637D02*
X139492819Y-164760399D01*
X139492819Y-164760399D02*
X139540438Y-164665161D01*
X139540438Y-164665161D02*
X139588057Y-164617542D01*
X139588057Y-164617542D02*
X139683295Y-164569923D01*
X139683295Y-164569923D02*
X139873771Y-164522304D01*
X139873771Y-164522304D02*
X140111866Y-164522304D01*
X140111866Y-164522304D02*
X140302342Y-164569923D01*
X140302342Y-164569923D02*
X140397580Y-164617542D01*
X140397580Y-164617542D02*
X140445200Y-164665161D01*
X140445200Y-164665161D02*
X140492819Y-164760399D01*
X140492819Y-164760399D02*
X140492819Y-164855637D01*
X140492819Y-164855637D02*
X140445200Y-164950875D01*
X140445200Y-164950875D02*
X140397580Y-164998494D01*
X140397580Y-164998494D02*
X140302342Y-165046113D01*
X140302342Y-165046113D02*
X140111866Y-165093732D01*
X140111866Y-165093732D02*
X139873771Y-165093732D01*
X139873771Y-165093732D02*
X139683295Y-165046113D01*
X139683295Y-165046113D02*
X139588057Y-164998494D01*
X139588057Y-164998494D02*
X139540438Y-164950875D01*
X139540438Y-164950875D02*
X139492819Y-164855637D01*
X236455133Y-135783219D02*
X236121800Y-135307028D01*
X235883705Y-135783219D02*
X235883705Y-134783219D01*
X235883705Y-134783219D02*
X236264657Y-134783219D01*
X236264657Y-134783219D02*
X236359895Y-134830838D01*
X236359895Y-134830838D02*
X236407514Y-134878457D01*
X236407514Y-134878457D02*
X236455133Y-134973695D01*
X236455133Y-134973695D02*
X236455133Y-135116552D01*
X236455133Y-135116552D02*
X236407514Y-135211790D01*
X236407514Y-135211790D02*
X236359895Y-135259409D01*
X236359895Y-135259409D02*
X236264657Y-135307028D01*
X236264657Y-135307028D02*
X235883705Y-135307028D01*
X236788467Y-134783219D02*
X237455133Y-134783219D01*
X237455133Y-134783219D02*
X237026562Y-135783219D01*
X235550371Y-140523219D02*
X234978943Y-140523219D01*
X235264657Y-140523219D02*
X235264657Y-139523219D01*
X235264657Y-139523219D02*
X235169419Y-139666076D01*
X235169419Y-139666076D02*
X235074181Y-139761314D01*
X235074181Y-139761314D02*
X234978943Y-139808933D01*
X236169419Y-139523219D02*
X236264657Y-139523219D01*
X236264657Y-139523219D02*
X236359895Y-139570838D01*
X236359895Y-139570838D02*
X236407514Y-139618457D01*
X236407514Y-139618457D02*
X236455133Y-139713695D01*
X236455133Y-139713695D02*
X236502752Y-139904171D01*
X236502752Y-139904171D02*
X236502752Y-140142266D01*
X236502752Y-140142266D02*
X236455133Y-140332742D01*
X236455133Y-140332742D02*
X236407514Y-140427980D01*
X236407514Y-140427980D02*
X236359895Y-140475600D01*
X236359895Y-140475600D02*
X236264657Y-140523219D01*
X236264657Y-140523219D02*
X236169419Y-140523219D01*
X236169419Y-140523219D02*
X236074181Y-140475600D01*
X236074181Y-140475600D02*
X236026562Y-140427980D01*
X236026562Y-140427980D02*
X235978943Y-140332742D01*
X235978943Y-140332742D02*
X235931324Y-140142266D01*
X235931324Y-140142266D02*
X235931324Y-139904171D01*
X235931324Y-139904171D02*
X235978943Y-139713695D01*
X235978943Y-139713695D02*
X236026562Y-139618457D01*
X236026562Y-139618457D02*
X236074181Y-139570838D01*
X236074181Y-139570838D02*
X236169419Y-139523219D01*
X237121800Y-139523219D02*
X237217038Y-139523219D01*
X237217038Y-139523219D02*
X237312276Y-139570838D01*
X237312276Y-139570838D02*
X237359895Y-139618457D01*
X237359895Y-139618457D02*
X237407514Y-139713695D01*
X237407514Y-139713695D02*
X237455133Y-139904171D01*
X237455133Y-139904171D02*
X237455133Y-140142266D01*
X237455133Y-140142266D02*
X237407514Y-140332742D01*
X237407514Y-140332742D02*
X237359895Y-140427980D01*
X237359895Y-140427980D02*
X237312276Y-140475600D01*
X237312276Y-140475600D02*
X237217038Y-140523219D01*
X237217038Y-140523219D02*
X237121800Y-140523219D01*
X237121800Y-140523219D02*
X237026562Y-140475600D01*
X237026562Y-140475600D02*
X236978943Y-140427980D01*
X236978943Y-140427980D02*
X236931324Y-140332742D01*
X236931324Y-140332742D02*
X236883705Y-140142266D01*
X236883705Y-140142266D02*
X236883705Y-139904171D01*
X236883705Y-139904171D02*
X236931324Y-139713695D01*
X236931324Y-139713695D02*
X236978943Y-139618457D01*
X236978943Y-139618457D02*
X237026562Y-139570838D01*
X237026562Y-139570838D02*
X237121800Y-139523219D01*
X237883705Y-140523219D02*
X237883705Y-139523219D01*
X237978943Y-140142266D02*
X238264657Y-140523219D01*
X238264657Y-139856552D02*
X237883705Y-140237504D01*
X144476933Y-150642180D02*
X144429314Y-150689800D01*
X144429314Y-150689800D02*
X144286457Y-150737419D01*
X144286457Y-150737419D02*
X144191219Y-150737419D01*
X144191219Y-150737419D02*
X144048362Y-150689800D01*
X144048362Y-150689800D02*
X143953124Y-150594561D01*
X143953124Y-150594561D02*
X143905505Y-150499323D01*
X143905505Y-150499323D02*
X143857886Y-150308847D01*
X143857886Y-150308847D02*
X143857886Y-150165990D01*
X143857886Y-150165990D02*
X143905505Y-149975514D01*
X143905505Y-149975514D02*
X143953124Y-149880276D01*
X143953124Y-149880276D02*
X144048362Y-149785038D01*
X144048362Y-149785038D02*
X144191219Y-149737419D01*
X144191219Y-149737419D02*
X144286457Y-149737419D01*
X144286457Y-149737419D02*
X144429314Y-149785038D01*
X144429314Y-149785038D02*
X144476933Y-149832657D01*
X144810267Y-149737419D02*
X145429314Y-149737419D01*
X145429314Y-149737419D02*
X145095981Y-150118371D01*
X145095981Y-150118371D02*
X145238838Y-150118371D01*
X145238838Y-150118371D02*
X145334076Y-150165990D01*
X145334076Y-150165990D02*
X145381695Y-150213609D01*
X145381695Y-150213609D02*
X145429314Y-150308847D01*
X145429314Y-150308847D02*
X145429314Y-150546942D01*
X145429314Y-150546942D02*
X145381695Y-150642180D01*
X145381695Y-150642180D02*
X145334076Y-150689800D01*
X145334076Y-150689800D02*
X145238838Y-150737419D01*
X145238838Y-150737419D02*
X144953124Y-150737419D01*
X144953124Y-150737419D02*
X144857886Y-150689800D01*
X144857886Y-150689800D02*
X144810267Y-150642180D01*
X143929314Y-143237419D02*
X143357886Y-143237419D01*
X143643600Y-143237419D02*
X143643600Y-142237419D01*
X143643600Y-142237419D02*
X143548362Y-142380276D01*
X143548362Y-142380276D02*
X143453124Y-142475514D01*
X143453124Y-142475514D02*
X143357886Y-142523133D01*
X144548362Y-142237419D02*
X144643600Y-142237419D01*
X144643600Y-142237419D02*
X144738838Y-142285038D01*
X144738838Y-142285038D02*
X144786457Y-142332657D01*
X144786457Y-142332657D02*
X144834076Y-142427895D01*
X144834076Y-142427895D02*
X144881695Y-142618371D01*
X144881695Y-142618371D02*
X144881695Y-142856466D01*
X144881695Y-142856466D02*
X144834076Y-143046942D01*
X144834076Y-143046942D02*
X144786457Y-143142180D01*
X144786457Y-143142180D02*
X144738838Y-143189800D01*
X144738838Y-143189800D02*
X144643600Y-143237419D01*
X144643600Y-143237419D02*
X144548362Y-143237419D01*
X144548362Y-143237419D02*
X144453124Y-143189800D01*
X144453124Y-143189800D02*
X144405505Y-143142180D01*
X144405505Y-143142180D02*
X144357886Y-143046942D01*
X144357886Y-143046942D02*
X144310267Y-142856466D01*
X144310267Y-142856466D02*
X144310267Y-142618371D01*
X144310267Y-142618371D02*
X144357886Y-142427895D01*
X144357886Y-142427895D02*
X144405505Y-142332657D01*
X144405505Y-142332657D02*
X144453124Y-142285038D01*
X144453124Y-142285038D02*
X144548362Y-142237419D01*
X145310267Y-142570752D02*
X145310267Y-143570752D01*
X145786457Y-143094561D02*
X145834076Y-143189800D01*
X145834076Y-143189800D02*
X145929314Y-143237419D01*
X145310267Y-143094561D02*
X145357886Y-143189800D01*
X145357886Y-143189800D02*
X145453124Y-143237419D01*
X145453124Y-143237419D02*
X145643600Y-143237419D01*
X145643600Y-143237419D02*
X145738838Y-143189800D01*
X145738838Y-143189800D02*
X145786457Y-143094561D01*
X145786457Y-143094561D02*
X145786457Y-142570752D01*
X142026619Y-166403257D02*
X141550428Y-166736590D01*
X142026619Y-166974685D02*
X141026619Y-166974685D01*
X141026619Y-166974685D02*
X141026619Y-166593733D01*
X141026619Y-166593733D02*
X141074238Y-166498495D01*
X141074238Y-166498495D02*
X141121857Y-166450876D01*
X141121857Y-166450876D02*
X141217095Y-166403257D01*
X141217095Y-166403257D02*
X141359952Y-166403257D01*
X141359952Y-166403257D02*
X141455190Y-166450876D01*
X141455190Y-166450876D02*
X141502809Y-166498495D01*
X141502809Y-166498495D02*
X141550428Y-166593733D01*
X141550428Y-166593733D02*
X141550428Y-166974685D01*
X142026619Y-165450876D02*
X142026619Y-166022304D01*
X142026619Y-165736590D02*
X141026619Y-165736590D01*
X141026619Y-165736590D02*
X141169476Y-165831828D01*
X141169476Y-165831828D02*
X141264714Y-165927066D01*
X141264714Y-165927066D02*
X141312333Y-166022304D01*
X141026619Y-164831828D02*
X141026619Y-164736590D01*
X141026619Y-164736590D02*
X141074238Y-164641352D01*
X141074238Y-164641352D02*
X141121857Y-164593733D01*
X141121857Y-164593733D02*
X141217095Y-164546114D01*
X141217095Y-164546114D02*
X141407571Y-164498495D01*
X141407571Y-164498495D02*
X141645666Y-164498495D01*
X141645666Y-164498495D02*
X141836142Y-164546114D01*
X141836142Y-164546114D02*
X141931380Y-164593733D01*
X141931380Y-164593733D02*
X141979000Y-164641352D01*
X141979000Y-164641352D02*
X142026619Y-164736590D01*
X142026619Y-164736590D02*
X142026619Y-164831828D01*
X142026619Y-164831828D02*
X141979000Y-164927066D01*
X141979000Y-164927066D02*
X141931380Y-164974685D01*
X141931380Y-164974685D02*
X141836142Y-165022304D01*
X141836142Y-165022304D02*
X141645666Y-165069923D01*
X141645666Y-165069923D02*
X141407571Y-165069923D01*
X141407571Y-165069923D02*
X141217095Y-165022304D01*
X141217095Y-165022304D02*
X141121857Y-164974685D01*
X141121857Y-164974685D02*
X141074238Y-164927066D01*
X141074238Y-164927066D02*
X141026619Y-164831828D01*
X146766619Y-166427066D02*
X146766619Y-166998494D01*
X146766619Y-166712780D02*
X145766619Y-166712780D01*
X145766619Y-166712780D02*
X145909476Y-166808018D01*
X145909476Y-166808018D02*
X146004714Y-166903256D01*
X146004714Y-166903256D02*
X146052333Y-166998494D01*
X145766619Y-165808018D02*
X145766619Y-165712780D01*
X145766619Y-165712780D02*
X145814238Y-165617542D01*
X145814238Y-165617542D02*
X145861857Y-165569923D01*
X145861857Y-165569923D02*
X145957095Y-165522304D01*
X145957095Y-165522304D02*
X146147571Y-165474685D01*
X146147571Y-165474685D02*
X146385666Y-165474685D01*
X146385666Y-165474685D02*
X146576142Y-165522304D01*
X146576142Y-165522304D02*
X146671380Y-165569923D01*
X146671380Y-165569923D02*
X146719000Y-165617542D01*
X146719000Y-165617542D02*
X146766619Y-165712780D01*
X146766619Y-165712780D02*
X146766619Y-165808018D01*
X146766619Y-165808018D02*
X146719000Y-165903256D01*
X146719000Y-165903256D02*
X146671380Y-165950875D01*
X146671380Y-165950875D02*
X146576142Y-165998494D01*
X146576142Y-165998494D02*
X146385666Y-166046113D01*
X146385666Y-166046113D02*
X146147571Y-166046113D01*
X146147571Y-166046113D02*
X145957095Y-165998494D01*
X145957095Y-165998494D02*
X145861857Y-165950875D01*
X145861857Y-165950875D02*
X145814238Y-165903256D01*
X145814238Y-165903256D02*
X145766619Y-165808018D01*
X145766619Y-164855637D02*
X145766619Y-164760399D01*
X145766619Y-164760399D02*
X145814238Y-164665161D01*
X145814238Y-164665161D02*
X145861857Y-164617542D01*
X145861857Y-164617542D02*
X145957095Y-164569923D01*
X145957095Y-164569923D02*
X146147571Y-164522304D01*
X146147571Y-164522304D02*
X146385666Y-164522304D01*
X146385666Y-164522304D02*
X146576142Y-164569923D01*
X146576142Y-164569923D02*
X146671380Y-164617542D01*
X146671380Y-164617542D02*
X146719000Y-164665161D01*
X146719000Y-164665161D02*
X146766619Y-164760399D01*
X146766619Y-164760399D02*
X146766619Y-164855637D01*
X146766619Y-164855637D02*
X146719000Y-164950875D01*
X146719000Y-164950875D02*
X146671380Y-164998494D01*
X146671380Y-164998494D02*
X146576142Y-165046113D01*
X146576142Y-165046113D02*
X146385666Y-165093732D01*
X146385666Y-165093732D02*
X146147571Y-165093732D01*
X146147571Y-165093732D02*
X145957095Y-165046113D01*
X145957095Y-165046113D02*
X145861857Y-164998494D01*
X145861857Y-164998494D02*
X145814238Y-164950875D01*
X145814238Y-164950875D02*
X145766619Y-164855637D01*
X170591819Y-167171666D02*
X170115628Y-167504999D01*
X170591819Y-167743094D02*
X169591819Y-167743094D01*
X169591819Y-167743094D02*
X169591819Y-167362142D01*
X169591819Y-167362142D02*
X169639438Y-167266904D01*
X169639438Y-167266904D02*
X169687057Y-167219285D01*
X169687057Y-167219285D02*
X169782295Y-167171666D01*
X169782295Y-167171666D02*
X169925152Y-167171666D01*
X169925152Y-167171666D02*
X170020390Y-167219285D01*
X170020390Y-167219285D02*
X170068009Y-167266904D01*
X170068009Y-167266904D02*
X170115628Y-167362142D01*
X170115628Y-167362142D02*
X170115628Y-167743094D01*
X169925152Y-166314523D02*
X170591819Y-166314523D01*
X169544200Y-166552618D02*
X170258485Y-166790713D01*
X170258485Y-166790713D02*
X170258485Y-166171666D01*
X165851819Y-168076428D02*
X165851819Y-168647856D01*
X165851819Y-168362142D02*
X164851819Y-168362142D01*
X164851819Y-168362142D02*
X164994676Y-168457380D01*
X164994676Y-168457380D02*
X165089914Y-168552618D01*
X165089914Y-168552618D02*
X165137533Y-168647856D01*
X164851819Y-167457380D02*
X164851819Y-167362142D01*
X164851819Y-167362142D02*
X164899438Y-167266904D01*
X164899438Y-167266904D02*
X164947057Y-167219285D01*
X164947057Y-167219285D02*
X165042295Y-167171666D01*
X165042295Y-167171666D02*
X165232771Y-167124047D01*
X165232771Y-167124047D02*
X165470866Y-167124047D01*
X165470866Y-167124047D02*
X165661342Y-167171666D01*
X165661342Y-167171666D02*
X165756580Y-167219285D01*
X165756580Y-167219285D02*
X165804200Y-167266904D01*
X165804200Y-167266904D02*
X165851819Y-167362142D01*
X165851819Y-167362142D02*
X165851819Y-167457380D01*
X165851819Y-167457380D02*
X165804200Y-167552618D01*
X165804200Y-167552618D02*
X165756580Y-167600237D01*
X165756580Y-167600237D02*
X165661342Y-167647856D01*
X165661342Y-167647856D02*
X165470866Y-167695475D01*
X165470866Y-167695475D02*
X165232771Y-167695475D01*
X165232771Y-167695475D02*
X165042295Y-167647856D01*
X165042295Y-167647856D02*
X164947057Y-167600237D01*
X164947057Y-167600237D02*
X164899438Y-167552618D01*
X164899438Y-167552618D02*
X164851819Y-167457380D01*
X164851819Y-166504999D02*
X164851819Y-166409761D01*
X164851819Y-166409761D02*
X164899438Y-166314523D01*
X164899438Y-166314523D02*
X164947057Y-166266904D01*
X164947057Y-166266904D02*
X165042295Y-166219285D01*
X165042295Y-166219285D02*
X165232771Y-166171666D01*
X165232771Y-166171666D02*
X165470866Y-166171666D01*
X165470866Y-166171666D02*
X165661342Y-166219285D01*
X165661342Y-166219285D02*
X165756580Y-166266904D01*
X165756580Y-166266904D02*
X165804200Y-166314523D01*
X165804200Y-166314523D02*
X165851819Y-166409761D01*
X165851819Y-166409761D02*
X165851819Y-166504999D01*
X165851819Y-166504999D02*
X165804200Y-166600237D01*
X165804200Y-166600237D02*
X165756580Y-166647856D01*
X165756580Y-166647856D02*
X165661342Y-166695475D01*
X165661342Y-166695475D02*
X165470866Y-166743094D01*
X165470866Y-166743094D02*
X165232771Y-166743094D01*
X165232771Y-166743094D02*
X165042295Y-166695475D01*
X165042295Y-166695475D02*
X164947057Y-166647856D01*
X164947057Y-166647856D02*
X164899438Y-166600237D01*
X164899438Y-166600237D02*
X164851819Y-166504999D01*
X165851819Y-165743094D02*
X164851819Y-165743094D01*
X165470866Y-165647856D02*
X165851819Y-165362142D01*
X165185152Y-165362142D02*
X165566104Y-165743094D01*
X167952445Y-150956180D02*
X167904826Y-151003800D01*
X167904826Y-151003800D02*
X167761969Y-151051419D01*
X167761969Y-151051419D02*
X167666731Y-151051419D01*
X167666731Y-151051419D02*
X167523874Y-151003800D01*
X167523874Y-151003800D02*
X167428636Y-150908561D01*
X167428636Y-150908561D02*
X167381017Y-150813323D01*
X167381017Y-150813323D02*
X167333398Y-150622847D01*
X167333398Y-150622847D02*
X167333398Y-150479990D01*
X167333398Y-150479990D02*
X167381017Y-150289514D01*
X167381017Y-150289514D02*
X167428636Y-150194276D01*
X167428636Y-150194276D02*
X167523874Y-150099038D01*
X167523874Y-150099038D02*
X167666731Y-150051419D01*
X167666731Y-150051419D02*
X167761969Y-150051419D01*
X167761969Y-150051419D02*
X167904826Y-150099038D01*
X167904826Y-150099038D02*
X167952445Y-150146657D01*
X168333398Y-150146657D02*
X168381017Y-150099038D01*
X168381017Y-150099038D02*
X168476255Y-150051419D01*
X168476255Y-150051419D02*
X168714350Y-150051419D01*
X168714350Y-150051419D02*
X168809588Y-150099038D01*
X168809588Y-150099038D02*
X168857207Y-150146657D01*
X168857207Y-150146657D02*
X168904826Y-150241895D01*
X168904826Y-150241895D02*
X168904826Y-150337133D01*
X168904826Y-150337133D02*
X168857207Y-150479990D01*
X168857207Y-150479990D02*
X168285779Y-151051419D01*
X168285779Y-151051419D02*
X168904826Y-151051419D01*
X167582626Y-143177419D02*
X167011198Y-143177419D01*
X167296912Y-143177419D02*
X167296912Y-142177419D01*
X167296912Y-142177419D02*
X167201674Y-142320276D01*
X167201674Y-142320276D02*
X167106436Y-142415514D01*
X167106436Y-142415514D02*
X167011198Y-142463133D01*
X168201674Y-142177419D02*
X168296912Y-142177419D01*
X168296912Y-142177419D02*
X168392150Y-142225038D01*
X168392150Y-142225038D02*
X168439769Y-142272657D01*
X168439769Y-142272657D02*
X168487388Y-142367895D01*
X168487388Y-142367895D02*
X168535007Y-142558371D01*
X168535007Y-142558371D02*
X168535007Y-142796466D01*
X168535007Y-142796466D02*
X168487388Y-142986942D01*
X168487388Y-142986942D02*
X168439769Y-143082180D01*
X168439769Y-143082180D02*
X168392150Y-143129800D01*
X168392150Y-143129800D02*
X168296912Y-143177419D01*
X168296912Y-143177419D02*
X168201674Y-143177419D01*
X168201674Y-143177419D02*
X168106436Y-143129800D01*
X168106436Y-143129800D02*
X168058817Y-143082180D01*
X168058817Y-143082180D02*
X168011198Y-142986942D01*
X168011198Y-142986942D02*
X167963579Y-142796466D01*
X167963579Y-142796466D02*
X167963579Y-142558371D01*
X167963579Y-142558371D02*
X168011198Y-142367895D01*
X168011198Y-142367895D02*
X168058817Y-142272657D01*
X168058817Y-142272657D02*
X168106436Y-142225038D01*
X168106436Y-142225038D02*
X168201674Y-142177419D01*
X168963579Y-142510752D02*
X168963579Y-143510752D01*
X169439769Y-143034561D02*
X169487388Y-143129800D01*
X169487388Y-143129800D02*
X169582626Y-143177419D01*
X168963579Y-143034561D02*
X169011198Y-143129800D01*
X169011198Y-143129800D02*
X169106436Y-143177419D01*
X169106436Y-143177419D02*
X169296912Y-143177419D01*
X169296912Y-143177419D02*
X169392150Y-143129800D01*
X169392150Y-143129800D02*
X169439769Y-143034561D01*
X169439769Y-143034561D02*
X169439769Y-142510752D01*
X189067419Y-163844266D02*
X188591228Y-164177599D01*
X189067419Y-164415694D02*
X188067419Y-164415694D01*
X188067419Y-164415694D02*
X188067419Y-164034742D01*
X188067419Y-164034742D02*
X188115038Y-163939504D01*
X188115038Y-163939504D02*
X188162657Y-163891885D01*
X188162657Y-163891885D02*
X188257895Y-163844266D01*
X188257895Y-163844266D02*
X188400752Y-163844266D01*
X188400752Y-163844266D02*
X188495990Y-163891885D01*
X188495990Y-163891885D02*
X188543609Y-163939504D01*
X188543609Y-163939504D02*
X188591228Y-164034742D01*
X188591228Y-164034742D02*
X188591228Y-164415694D01*
X188067419Y-163510932D02*
X188067419Y-162891885D01*
X188067419Y-162891885D02*
X188448371Y-163225218D01*
X188448371Y-163225218D02*
X188448371Y-163082361D01*
X188448371Y-163082361D02*
X188495990Y-162987123D01*
X188495990Y-162987123D02*
X188543609Y-162939504D01*
X188543609Y-162939504D02*
X188638847Y-162891885D01*
X188638847Y-162891885D02*
X188876942Y-162891885D01*
X188876942Y-162891885D02*
X188972180Y-162939504D01*
X188972180Y-162939504D02*
X189019800Y-162987123D01*
X189019800Y-162987123D02*
X189067419Y-163082361D01*
X189067419Y-163082361D02*
X189067419Y-163368075D01*
X189067419Y-163368075D02*
X189019800Y-163463313D01*
X189019800Y-163463313D02*
X188972180Y-163510932D01*
X193807419Y-164272838D02*
X193807419Y-164844266D01*
X193807419Y-164558552D02*
X192807419Y-164558552D01*
X192807419Y-164558552D02*
X192950276Y-164653790D01*
X192950276Y-164653790D02*
X193045514Y-164749028D01*
X193045514Y-164749028D02*
X193093133Y-164844266D01*
X192807419Y-163653790D02*
X192807419Y-163558552D01*
X192807419Y-163558552D02*
X192855038Y-163463314D01*
X192855038Y-163463314D02*
X192902657Y-163415695D01*
X192902657Y-163415695D02*
X192997895Y-163368076D01*
X192997895Y-163368076D02*
X193188371Y-163320457D01*
X193188371Y-163320457D02*
X193426466Y-163320457D01*
X193426466Y-163320457D02*
X193616942Y-163368076D01*
X193616942Y-163368076D02*
X193712180Y-163415695D01*
X193712180Y-163415695D02*
X193759800Y-163463314D01*
X193759800Y-163463314D02*
X193807419Y-163558552D01*
X193807419Y-163558552D02*
X193807419Y-163653790D01*
X193807419Y-163653790D02*
X193759800Y-163749028D01*
X193759800Y-163749028D02*
X193712180Y-163796647D01*
X193712180Y-163796647D02*
X193616942Y-163844266D01*
X193616942Y-163844266D02*
X193426466Y-163891885D01*
X193426466Y-163891885D02*
X193188371Y-163891885D01*
X193188371Y-163891885D02*
X192997895Y-163844266D01*
X192997895Y-163844266D02*
X192902657Y-163796647D01*
X192902657Y-163796647D02*
X192855038Y-163749028D01*
X192855038Y-163749028D02*
X192807419Y-163653790D01*
X193807419Y-162891885D02*
X192807419Y-162891885D01*
X193426466Y-162796647D02*
X193807419Y-162510933D01*
X193140752Y-162510933D02*
X193521704Y-162891885D01*
X293853095Y-28004819D02*
X293853095Y-27004819D01*
X293853095Y-27481009D02*
X294424523Y-27481009D01*
X294424523Y-28004819D02*
X294424523Y-27004819D01*
X294805476Y-27004819D02*
X295424523Y-27004819D01*
X295424523Y-27004819D02*
X295091190Y-27385771D01*
X295091190Y-27385771D02*
X295234047Y-27385771D01*
X295234047Y-27385771D02*
X295329285Y-27433390D01*
X295329285Y-27433390D02*
X295376904Y-27481009D01*
X295376904Y-27481009D02*
X295424523Y-27576247D01*
X295424523Y-27576247D02*
X295424523Y-27814342D01*
X295424523Y-27814342D02*
X295376904Y-27909580D01*
X295376904Y-27909580D02*
X295329285Y-27957200D01*
X295329285Y-27957200D02*
X295234047Y-28004819D01*
X295234047Y-28004819D02*
X294948333Y-28004819D01*
X294948333Y-28004819D02*
X294853095Y-27957200D01*
X294853095Y-27957200D02*
X294805476Y-27909580D01*
X153700819Y-165723866D02*
X153224628Y-166057199D01*
X153700819Y-166295294D02*
X152700819Y-166295294D01*
X152700819Y-166295294D02*
X152700819Y-165914342D01*
X152700819Y-165914342D02*
X152748438Y-165819104D01*
X152748438Y-165819104D02*
X152796057Y-165771485D01*
X152796057Y-165771485D02*
X152891295Y-165723866D01*
X152891295Y-165723866D02*
X153034152Y-165723866D01*
X153034152Y-165723866D02*
X153129390Y-165771485D01*
X153129390Y-165771485D02*
X153177009Y-165819104D01*
X153177009Y-165819104D02*
X153224628Y-165914342D01*
X153224628Y-165914342D02*
X153224628Y-166295294D01*
X153129390Y-165152437D02*
X153081771Y-165247675D01*
X153081771Y-165247675D02*
X153034152Y-165295294D01*
X153034152Y-165295294D02*
X152938914Y-165342913D01*
X152938914Y-165342913D02*
X152891295Y-165342913D01*
X152891295Y-165342913D02*
X152796057Y-165295294D01*
X152796057Y-165295294D02*
X152748438Y-165247675D01*
X152748438Y-165247675D02*
X152700819Y-165152437D01*
X152700819Y-165152437D02*
X152700819Y-164961961D01*
X152700819Y-164961961D02*
X152748438Y-164866723D01*
X152748438Y-164866723D02*
X152796057Y-164819104D01*
X152796057Y-164819104D02*
X152891295Y-164771485D01*
X152891295Y-164771485D02*
X152938914Y-164771485D01*
X152938914Y-164771485D02*
X153034152Y-164819104D01*
X153034152Y-164819104D02*
X153081771Y-164866723D01*
X153081771Y-164866723D02*
X153129390Y-164961961D01*
X153129390Y-164961961D02*
X153129390Y-165152437D01*
X153129390Y-165152437D02*
X153177009Y-165247675D01*
X153177009Y-165247675D02*
X153224628Y-165295294D01*
X153224628Y-165295294D02*
X153319866Y-165342913D01*
X153319866Y-165342913D02*
X153510342Y-165342913D01*
X153510342Y-165342913D02*
X153605580Y-165295294D01*
X153605580Y-165295294D02*
X153653200Y-165247675D01*
X153653200Y-165247675D02*
X153700819Y-165152437D01*
X153700819Y-165152437D02*
X153700819Y-164961961D01*
X153700819Y-164961961D02*
X153653200Y-164866723D01*
X153653200Y-164866723D02*
X153605580Y-164819104D01*
X153605580Y-164819104D02*
X153510342Y-164771485D01*
X153510342Y-164771485D02*
X153319866Y-164771485D01*
X153319866Y-164771485D02*
X153224628Y-164819104D01*
X153224628Y-164819104D02*
X153177009Y-164866723D01*
X153177009Y-164866723D02*
X153129390Y-164961961D01*
X147960819Y-167390532D02*
X147960819Y-166771485D01*
X147960819Y-166771485D02*
X148341771Y-167104818D01*
X148341771Y-167104818D02*
X148341771Y-166961961D01*
X148341771Y-166961961D02*
X148389390Y-166866723D01*
X148389390Y-166866723D02*
X148437009Y-166819104D01*
X148437009Y-166819104D02*
X148532247Y-166771485D01*
X148532247Y-166771485D02*
X148770342Y-166771485D01*
X148770342Y-166771485D02*
X148865580Y-166819104D01*
X148865580Y-166819104D02*
X148913200Y-166866723D01*
X148913200Y-166866723D02*
X148960819Y-166961961D01*
X148960819Y-166961961D02*
X148960819Y-167247675D01*
X148960819Y-167247675D02*
X148913200Y-167342913D01*
X148913200Y-167342913D02*
X148865580Y-167390532D01*
X148865580Y-166342913D02*
X148913200Y-166295294D01*
X148913200Y-166295294D02*
X148960819Y-166342913D01*
X148960819Y-166342913D02*
X148913200Y-166390532D01*
X148913200Y-166390532D02*
X148865580Y-166342913D01*
X148865580Y-166342913D02*
X148960819Y-166342913D01*
X147960819Y-165961961D02*
X147960819Y-165342914D01*
X147960819Y-165342914D02*
X148341771Y-165676247D01*
X148341771Y-165676247D02*
X148341771Y-165533390D01*
X148341771Y-165533390D02*
X148389390Y-165438152D01*
X148389390Y-165438152D02*
X148437009Y-165390533D01*
X148437009Y-165390533D02*
X148532247Y-165342914D01*
X148532247Y-165342914D02*
X148770342Y-165342914D01*
X148770342Y-165342914D02*
X148865580Y-165390533D01*
X148865580Y-165390533D02*
X148913200Y-165438152D01*
X148913200Y-165438152D02*
X148960819Y-165533390D01*
X148960819Y-165533390D02*
X148960819Y-165819104D01*
X148960819Y-165819104D02*
X148913200Y-165914342D01*
X148913200Y-165914342D02*
X148865580Y-165961961D01*
X148960819Y-164914342D02*
X147960819Y-164914342D01*
X148579866Y-164819104D02*
X148960819Y-164533390D01*
X148294152Y-164533390D02*
X148675104Y-164914342D01*
X169710267Y-222665400D02*
X169853124Y-222713019D01*
X169853124Y-222713019D02*
X170091219Y-222713019D01*
X170091219Y-222713019D02*
X170186457Y-222665400D01*
X170186457Y-222665400D02*
X170234076Y-222617780D01*
X170234076Y-222617780D02*
X170281695Y-222522542D01*
X170281695Y-222522542D02*
X170281695Y-222427304D01*
X170281695Y-222427304D02*
X170234076Y-222332066D01*
X170234076Y-222332066D02*
X170186457Y-222284447D01*
X170186457Y-222284447D02*
X170091219Y-222236828D01*
X170091219Y-222236828D02*
X169900743Y-222189209D01*
X169900743Y-222189209D02*
X169805505Y-222141590D01*
X169805505Y-222141590D02*
X169757886Y-222093971D01*
X169757886Y-222093971D02*
X169710267Y-221998733D01*
X169710267Y-221998733D02*
X169710267Y-221903495D01*
X169710267Y-221903495D02*
X169757886Y-221808257D01*
X169757886Y-221808257D02*
X169805505Y-221760638D01*
X169805505Y-221760638D02*
X169900743Y-221713019D01*
X169900743Y-221713019D02*
X170138838Y-221713019D01*
X170138838Y-221713019D02*
X170281695Y-221760638D01*
X170615029Y-221713019D02*
X170853124Y-222713019D01*
X170853124Y-222713019D02*
X171043600Y-221998733D01*
X171043600Y-221998733D02*
X171234076Y-222713019D01*
X171234076Y-222713019D02*
X171472172Y-221713019D01*
X171805505Y-221808257D02*
X171853124Y-221760638D01*
X171853124Y-221760638D02*
X171948362Y-221713019D01*
X171948362Y-221713019D02*
X172186457Y-221713019D01*
X172186457Y-221713019D02*
X172281695Y-221760638D01*
X172281695Y-221760638D02*
X172329314Y-221808257D01*
X172329314Y-221808257D02*
X172376933Y-221903495D01*
X172376933Y-221903495D02*
X172376933Y-221998733D01*
X172376933Y-221998733D02*
X172329314Y-222141590D01*
X172329314Y-222141590D02*
X171757886Y-222713019D01*
X171757886Y-222713019D02*
X172376933Y-222713019D01*
X169618209Y-224539980D02*
X169570590Y-224587600D01*
X169570590Y-224587600D02*
X169427733Y-224635219D01*
X169427733Y-224635219D02*
X169332495Y-224635219D01*
X169332495Y-224635219D02*
X169189638Y-224587600D01*
X169189638Y-224587600D02*
X169094400Y-224492361D01*
X169094400Y-224492361D02*
X169046781Y-224397123D01*
X169046781Y-224397123D02*
X168999162Y-224206647D01*
X168999162Y-224206647D02*
X168999162Y-224063790D01*
X168999162Y-224063790D02*
X169046781Y-223873314D01*
X169046781Y-223873314D02*
X169094400Y-223778076D01*
X169094400Y-223778076D02*
X169189638Y-223682838D01*
X169189638Y-223682838D02*
X169332495Y-223635219D01*
X169332495Y-223635219D02*
X169427733Y-223635219D01*
X169427733Y-223635219D02*
X169570590Y-223682838D01*
X169570590Y-223682838D02*
X169618209Y-223730457D01*
X170522971Y-224635219D02*
X170046781Y-224635219D01*
X170046781Y-224635219D02*
X170046781Y-223635219D01*
X170856305Y-224111409D02*
X171189638Y-224111409D01*
X171332495Y-224635219D02*
X170856305Y-224635219D01*
X170856305Y-224635219D02*
X170856305Y-223635219D01*
X170856305Y-223635219D02*
X171332495Y-223635219D01*
X171713448Y-224349504D02*
X172189638Y-224349504D01*
X171618210Y-224635219D02*
X171951543Y-223635219D01*
X171951543Y-223635219D02*
X172284876Y-224635219D01*
X173189638Y-224635219D02*
X172856305Y-224159028D01*
X172618210Y-224635219D02*
X172618210Y-223635219D01*
X172618210Y-223635219D02*
X172999162Y-223635219D01*
X172999162Y-223635219D02*
X173094400Y-223682838D01*
X173094400Y-223682838D02*
X173142019Y-223730457D01*
X173142019Y-223730457D02*
X173189638Y-223825695D01*
X173189638Y-223825695D02*
X173189638Y-223968552D01*
X173189638Y-223968552D02*
X173142019Y-224063790D01*
X173142019Y-224063790D02*
X173094400Y-224111409D01*
X173094400Y-224111409D02*
X172999162Y-224159028D01*
X172999162Y-224159028D02*
X172618210Y-224159028D01*
X218617895Y-122143619D02*
X218617895Y-122953142D01*
X218617895Y-122953142D02*
X218665514Y-123048380D01*
X218665514Y-123048380D02*
X218713133Y-123096000D01*
X218713133Y-123096000D02*
X218808371Y-123143619D01*
X218808371Y-123143619D02*
X218998847Y-123143619D01*
X218998847Y-123143619D02*
X219094085Y-123096000D01*
X219094085Y-123096000D02*
X219141704Y-123048380D01*
X219141704Y-123048380D02*
X219189323Y-122953142D01*
X219189323Y-122953142D02*
X219189323Y-122143619D01*
X220189323Y-123143619D02*
X219617895Y-123143619D01*
X219903609Y-123143619D02*
X219903609Y-122143619D01*
X219903609Y-122143619D02*
X219808371Y-122286476D01*
X219808371Y-122286476D02*
X219713133Y-122381714D01*
X219713133Y-122381714D02*
X219617895Y-122429333D01*
X216260752Y-142948380D02*
X216213133Y-142996000D01*
X216213133Y-142996000D02*
X216070276Y-143043619D01*
X216070276Y-143043619D02*
X215975038Y-143043619D01*
X215975038Y-143043619D02*
X215832181Y-142996000D01*
X215832181Y-142996000D02*
X215736943Y-142900761D01*
X215736943Y-142900761D02*
X215689324Y-142805523D01*
X215689324Y-142805523D02*
X215641705Y-142615047D01*
X215641705Y-142615047D02*
X215641705Y-142472190D01*
X215641705Y-142472190D02*
X215689324Y-142281714D01*
X215689324Y-142281714D02*
X215736943Y-142186476D01*
X215736943Y-142186476D02*
X215832181Y-142091238D01*
X215832181Y-142091238D02*
X215975038Y-142043619D01*
X215975038Y-142043619D02*
X216070276Y-142043619D01*
X216070276Y-142043619D02*
X216213133Y-142091238D01*
X216213133Y-142091238D02*
X216260752Y-142138857D01*
X216689324Y-143043619D02*
X216689324Y-142043619D01*
X216689324Y-142043619D02*
X216927419Y-142043619D01*
X216927419Y-142043619D02*
X217070276Y-142091238D01*
X217070276Y-142091238D02*
X217165514Y-142186476D01*
X217165514Y-142186476D02*
X217213133Y-142281714D01*
X217213133Y-142281714D02*
X217260752Y-142472190D01*
X217260752Y-142472190D02*
X217260752Y-142615047D01*
X217260752Y-142615047D02*
X217213133Y-142805523D01*
X217213133Y-142805523D02*
X217165514Y-142900761D01*
X217165514Y-142900761D02*
X217070276Y-142996000D01*
X217070276Y-142996000D02*
X216927419Y-143043619D01*
X216927419Y-143043619D02*
X216689324Y-143043619D01*
X217594086Y-142043619D02*
X218260752Y-142043619D01*
X218260752Y-142043619D02*
X217832181Y-143043619D01*
X219070276Y-142376952D02*
X219070276Y-143043619D01*
X218832181Y-141996000D02*
X218594086Y-142710285D01*
X218594086Y-142710285D02*
X219213133Y-142710285D01*
X219594086Y-143043619D02*
X219594086Y-142043619D01*
X219594086Y-142519809D02*
X220165514Y-142519809D01*
X220165514Y-143043619D02*
X220165514Y-142043619D01*
X221213133Y-142948380D02*
X221165514Y-142996000D01*
X221165514Y-142996000D02*
X221022657Y-143043619D01*
X221022657Y-143043619D02*
X220927419Y-143043619D01*
X220927419Y-143043619D02*
X220784562Y-142996000D01*
X220784562Y-142996000D02*
X220689324Y-142900761D01*
X220689324Y-142900761D02*
X220641705Y-142805523D01*
X220641705Y-142805523D02*
X220594086Y-142615047D01*
X220594086Y-142615047D02*
X220594086Y-142472190D01*
X220594086Y-142472190D02*
X220641705Y-142281714D01*
X220641705Y-142281714D02*
X220689324Y-142186476D01*
X220689324Y-142186476D02*
X220784562Y-142091238D01*
X220784562Y-142091238D02*
X220927419Y-142043619D01*
X220927419Y-142043619D02*
X221022657Y-142043619D01*
X221022657Y-142043619D02*
X221165514Y-142091238D01*
X221165514Y-142091238D02*
X221213133Y-142138857D01*
X222165514Y-143043619D02*
X221594086Y-143043619D01*
X221879800Y-143043619D02*
X221879800Y-142043619D01*
X221879800Y-142043619D02*
X221784562Y-142186476D01*
X221784562Y-142186476D02*
X221689324Y-142281714D01*
X221689324Y-142281714D02*
X221594086Y-142329333D01*
X223022657Y-142376952D02*
X223022657Y-143043619D01*
X222784562Y-141996000D02*
X222546467Y-142710285D01*
X222546467Y-142710285D02*
X223165514Y-142710285D01*
X136039600Y-221322732D02*
X136087219Y-221179875D01*
X136087219Y-221179875D02*
X136087219Y-220941780D01*
X136087219Y-220941780D02*
X136039600Y-220846542D01*
X136039600Y-220846542D02*
X135991980Y-220798923D01*
X135991980Y-220798923D02*
X135896742Y-220751304D01*
X135896742Y-220751304D02*
X135801504Y-220751304D01*
X135801504Y-220751304D02*
X135706266Y-220798923D01*
X135706266Y-220798923D02*
X135658647Y-220846542D01*
X135658647Y-220846542D02*
X135611028Y-220941780D01*
X135611028Y-220941780D02*
X135563409Y-221132256D01*
X135563409Y-221132256D02*
X135515790Y-221227494D01*
X135515790Y-221227494D02*
X135468171Y-221275113D01*
X135468171Y-221275113D02*
X135372933Y-221322732D01*
X135372933Y-221322732D02*
X135277695Y-221322732D01*
X135277695Y-221322732D02*
X135182457Y-221275113D01*
X135182457Y-221275113D02*
X135134838Y-221227494D01*
X135134838Y-221227494D02*
X135087219Y-221132256D01*
X135087219Y-221132256D02*
X135087219Y-220894161D01*
X135087219Y-220894161D02*
X135134838Y-220751304D01*
X135087219Y-220417970D02*
X136087219Y-220179875D01*
X136087219Y-220179875D02*
X135372933Y-219989399D01*
X135372933Y-219989399D02*
X136087219Y-219798923D01*
X136087219Y-219798923D02*
X135087219Y-219560828D01*
X135087219Y-218751304D02*
X135087219Y-218941780D01*
X135087219Y-218941780D02*
X135134838Y-219037018D01*
X135134838Y-219037018D02*
X135182457Y-219084637D01*
X135182457Y-219084637D02*
X135325314Y-219179875D01*
X135325314Y-219179875D02*
X135515790Y-219227494D01*
X135515790Y-219227494D02*
X135896742Y-219227494D01*
X135896742Y-219227494D02*
X135991980Y-219179875D01*
X135991980Y-219179875D02*
X136039600Y-219132256D01*
X136039600Y-219132256D02*
X136087219Y-219037018D01*
X136087219Y-219037018D02*
X136087219Y-218846542D01*
X136087219Y-218846542D02*
X136039600Y-218751304D01*
X136039600Y-218751304D02*
X135991980Y-218703685D01*
X135991980Y-218703685D02*
X135896742Y-218656066D01*
X135896742Y-218656066D02*
X135658647Y-218656066D01*
X135658647Y-218656066D02*
X135563409Y-218703685D01*
X135563409Y-218703685D02*
X135515790Y-218751304D01*
X135515790Y-218751304D02*
X135468171Y-218846542D01*
X135468171Y-218846542D02*
X135468171Y-219037018D01*
X135468171Y-219037018D02*
X135515790Y-219132256D01*
X135515790Y-219132256D02*
X135563409Y-219179875D01*
X135563409Y-219179875D02*
X135658647Y-219227494D01*
X138868352Y-224209780D02*
X138820733Y-224257400D01*
X138820733Y-224257400D02*
X138677876Y-224305019D01*
X138677876Y-224305019D02*
X138582638Y-224305019D01*
X138582638Y-224305019D02*
X138439781Y-224257400D01*
X138439781Y-224257400D02*
X138344543Y-224162161D01*
X138344543Y-224162161D02*
X138296924Y-224066923D01*
X138296924Y-224066923D02*
X138249305Y-223876447D01*
X138249305Y-223876447D02*
X138249305Y-223733590D01*
X138249305Y-223733590D02*
X138296924Y-223543114D01*
X138296924Y-223543114D02*
X138344543Y-223447876D01*
X138344543Y-223447876D02*
X138439781Y-223352638D01*
X138439781Y-223352638D02*
X138582638Y-223305019D01*
X138582638Y-223305019D02*
X138677876Y-223305019D01*
X138677876Y-223305019D02*
X138820733Y-223352638D01*
X138820733Y-223352638D02*
X138868352Y-223400257D01*
X139773114Y-224305019D02*
X139296924Y-224305019D01*
X139296924Y-224305019D02*
X139296924Y-223305019D01*
X140296924Y-223305019D02*
X140487400Y-223305019D01*
X140487400Y-223305019D02*
X140582638Y-223352638D01*
X140582638Y-223352638D02*
X140677876Y-223447876D01*
X140677876Y-223447876D02*
X140725495Y-223638352D01*
X140725495Y-223638352D02*
X140725495Y-223971685D01*
X140725495Y-223971685D02*
X140677876Y-224162161D01*
X140677876Y-224162161D02*
X140582638Y-224257400D01*
X140582638Y-224257400D02*
X140487400Y-224305019D01*
X140487400Y-224305019D02*
X140296924Y-224305019D01*
X140296924Y-224305019D02*
X140201686Y-224257400D01*
X140201686Y-224257400D02*
X140106448Y-224162161D01*
X140106448Y-224162161D02*
X140058829Y-223971685D01*
X140058829Y-223971685D02*
X140058829Y-223638352D01*
X140058829Y-223638352D02*
X140106448Y-223447876D01*
X140106448Y-223447876D02*
X140201686Y-223352638D01*
X140201686Y-223352638D02*
X140296924Y-223305019D01*
X141725495Y-224209780D02*
X141677876Y-224257400D01*
X141677876Y-224257400D02*
X141535019Y-224305019D01*
X141535019Y-224305019D02*
X141439781Y-224305019D01*
X141439781Y-224305019D02*
X141296924Y-224257400D01*
X141296924Y-224257400D02*
X141201686Y-224162161D01*
X141201686Y-224162161D02*
X141154067Y-224066923D01*
X141154067Y-224066923D02*
X141106448Y-223876447D01*
X141106448Y-223876447D02*
X141106448Y-223733590D01*
X141106448Y-223733590D02*
X141154067Y-223543114D01*
X141154067Y-223543114D02*
X141201686Y-223447876D01*
X141201686Y-223447876D02*
X141296924Y-223352638D01*
X141296924Y-223352638D02*
X141439781Y-223305019D01*
X141439781Y-223305019D02*
X141535019Y-223305019D01*
X141535019Y-223305019D02*
X141677876Y-223352638D01*
X141677876Y-223352638D02*
X141725495Y-223400257D01*
X142154067Y-224305019D02*
X142154067Y-223305019D01*
X142725495Y-224305019D02*
X142296924Y-223733590D01*
X142725495Y-223305019D02*
X142154067Y-223876447D01*
X293852695Y-215304419D02*
X293852695Y-214304419D01*
X293852695Y-214780609D02*
X294424123Y-214780609D01*
X294424123Y-215304419D02*
X294424123Y-214304419D01*
X295328885Y-214637752D02*
X295328885Y-215304419D01*
X295090790Y-214256800D02*
X294852695Y-214971085D01*
X294852695Y-214971085D02*
X295471742Y-214971085D01*
X165750219Y-182462466D02*
X165274028Y-182795799D01*
X165750219Y-183033894D02*
X164750219Y-183033894D01*
X164750219Y-183033894D02*
X164750219Y-182652942D01*
X164750219Y-182652942D02*
X164797838Y-182557704D01*
X164797838Y-182557704D02*
X164845457Y-182510085D01*
X164845457Y-182510085D02*
X164940695Y-182462466D01*
X164940695Y-182462466D02*
X165083552Y-182462466D01*
X165083552Y-182462466D02*
X165178790Y-182510085D01*
X165178790Y-182510085D02*
X165226409Y-182557704D01*
X165226409Y-182557704D02*
X165274028Y-182652942D01*
X165274028Y-182652942D02*
X165274028Y-183033894D01*
X164845457Y-182081513D02*
X164797838Y-182033894D01*
X164797838Y-182033894D02*
X164750219Y-181938656D01*
X164750219Y-181938656D02*
X164750219Y-181700561D01*
X164750219Y-181700561D02*
X164797838Y-181605323D01*
X164797838Y-181605323D02*
X164845457Y-181557704D01*
X164845457Y-181557704D02*
X164940695Y-181510085D01*
X164940695Y-181510085D02*
X165035933Y-181510085D01*
X165035933Y-181510085D02*
X165178790Y-181557704D01*
X165178790Y-181557704D02*
X165750219Y-182129132D01*
X165750219Y-182129132D02*
X165750219Y-181510085D01*
X170490219Y-182414847D02*
X170490219Y-182986275D01*
X170490219Y-182700561D02*
X169490219Y-182700561D01*
X169490219Y-182700561D02*
X169633076Y-182795799D01*
X169633076Y-182795799D02*
X169728314Y-182891037D01*
X169728314Y-182891037D02*
X169775933Y-182986275D01*
X170490219Y-181986275D02*
X169490219Y-181986275D01*
X170109266Y-181891037D02*
X170490219Y-181605323D01*
X169823552Y-181605323D02*
X170204504Y-181986275D01*
X159923819Y-165673066D02*
X159447628Y-166006399D01*
X159923819Y-166244494D02*
X158923819Y-166244494D01*
X158923819Y-166244494D02*
X158923819Y-165863542D01*
X158923819Y-165863542D02*
X158971438Y-165768304D01*
X158971438Y-165768304D02*
X159019057Y-165720685D01*
X159019057Y-165720685D02*
X159114295Y-165673066D01*
X159114295Y-165673066D02*
X159257152Y-165673066D01*
X159257152Y-165673066D02*
X159352390Y-165720685D01*
X159352390Y-165720685D02*
X159400009Y-165768304D01*
X159400009Y-165768304D02*
X159447628Y-165863542D01*
X159447628Y-165863542D02*
X159447628Y-166244494D01*
X159923819Y-165196875D02*
X159923819Y-165006399D01*
X159923819Y-165006399D02*
X159876200Y-164911161D01*
X159876200Y-164911161D02*
X159828580Y-164863542D01*
X159828580Y-164863542D02*
X159685723Y-164768304D01*
X159685723Y-164768304D02*
X159495247Y-164720685D01*
X159495247Y-164720685D02*
X159114295Y-164720685D01*
X159114295Y-164720685D02*
X159019057Y-164768304D01*
X159019057Y-164768304D02*
X158971438Y-164815923D01*
X158971438Y-164815923D02*
X158923819Y-164911161D01*
X158923819Y-164911161D02*
X158923819Y-165101637D01*
X158923819Y-165101637D02*
X158971438Y-165196875D01*
X158971438Y-165196875D02*
X159019057Y-165244494D01*
X159019057Y-165244494D02*
X159114295Y-165292113D01*
X159114295Y-165292113D02*
X159352390Y-165292113D01*
X159352390Y-165292113D02*
X159447628Y-165244494D01*
X159447628Y-165244494D02*
X159495247Y-165196875D01*
X159495247Y-165196875D02*
X159542866Y-165101637D01*
X159542866Y-165101637D02*
X159542866Y-164911161D01*
X159542866Y-164911161D02*
X159495247Y-164815923D01*
X159495247Y-164815923D02*
X159447628Y-164768304D01*
X159447628Y-164768304D02*
X159352390Y-164720685D01*
X154183819Y-166720685D02*
X154183819Y-166101638D01*
X154183819Y-166101638D02*
X154564771Y-166434971D01*
X154564771Y-166434971D02*
X154564771Y-166292114D01*
X154564771Y-166292114D02*
X154612390Y-166196876D01*
X154612390Y-166196876D02*
X154660009Y-166149257D01*
X154660009Y-166149257D02*
X154755247Y-166101638D01*
X154755247Y-166101638D02*
X154993342Y-166101638D01*
X154993342Y-166101638D02*
X155088580Y-166149257D01*
X155088580Y-166149257D02*
X155136200Y-166196876D01*
X155136200Y-166196876D02*
X155183819Y-166292114D01*
X155183819Y-166292114D02*
X155183819Y-166577828D01*
X155183819Y-166577828D02*
X155136200Y-166673066D01*
X155136200Y-166673066D02*
X155088580Y-166720685D01*
X154183819Y-165768304D02*
X154183819Y-165149257D01*
X154183819Y-165149257D02*
X154564771Y-165482590D01*
X154564771Y-165482590D02*
X154564771Y-165339733D01*
X154564771Y-165339733D02*
X154612390Y-165244495D01*
X154612390Y-165244495D02*
X154660009Y-165196876D01*
X154660009Y-165196876D02*
X154755247Y-165149257D01*
X154755247Y-165149257D02*
X154993342Y-165149257D01*
X154993342Y-165149257D02*
X155088580Y-165196876D01*
X155088580Y-165196876D02*
X155136200Y-165244495D01*
X155136200Y-165244495D02*
X155183819Y-165339733D01*
X155183819Y-165339733D02*
X155183819Y-165625447D01*
X155183819Y-165625447D02*
X155136200Y-165720685D01*
X155136200Y-165720685D02*
X155088580Y-165768304D01*
X155183819Y-164720685D02*
X154183819Y-164720685D01*
X154802866Y-164625447D02*
X155183819Y-164339733D01*
X154517152Y-164339733D02*
X154898104Y-164720685D01*
X179131933Y-166690019D02*
X178798600Y-166213828D01*
X178560505Y-166690019D02*
X178560505Y-165690019D01*
X178560505Y-165690019D02*
X178941457Y-165690019D01*
X178941457Y-165690019D02*
X179036695Y-165737638D01*
X179036695Y-165737638D02*
X179084314Y-165785257D01*
X179084314Y-165785257D02*
X179131933Y-165880495D01*
X179131933Y-165880495D02*
X179131933Y-166023352D01*
X179131933Y-166023352D02*
X179084314Y-166118590D01*
X179084314Y-166118590D02*
X179036695Y-166166209D01*
X179036695Y-166166209D02*
X178941457Y-166213828D01*
X178941457Y-166213828D02*
X178560505Y-166213828D01*
X180084314Y-166690019D02*
X179512886Y-166690019D01*
X179798600Y-166690019D02*
X179798600Y-165690019D01*
X179798600Y-165690019D02*
X179703362Y-165832876D01*
X179703362Y-165832876D02*
X179608124Y-165928114D01*
X179608124Y-165928114D02*
X179512886Y-165975733D01*
X179179552Y-171430019D02*
X178608124Y-171430019D01*
X178893838Y-171430019D02*
X178893838Y-170430019D01*
X178893838Y-170430019D02*
X178798600Y-170572876D01*
X178798600Y-170572876D02*
X178703362Y-170668114D01*
X178703362Y-170668114D02*
X178608124Y-170715733D01*
X179608124Y-171430019D02*
X179608124Y-170430019D01*
X179703362Y-171049066D02*
X179989076Y-171430019D01*
X179989076Y-170763352D02*
X179608124Y-171144304D01*
X106284266Y-175511819D02*
X106284266Y-176226104D01*
X106284266Y-176226104D02*
X106236647Y-176368961D01*
X106236647Y-176368961D02*
X106141409Y-176464200D01*
X106141409Y-176464200D02*
X105998552Y-176511819D01*
X105998552Y-176511819D02*
X105903314Y-176511819D01*
X106712838Y-175607057D02*
X106760457Y-175559438D01*
X106760457Y-175559438D02*
X106855695Y-175511819D01*
X106855695Y-175511819D02*
X107093790Y-175511819D01*
X107093790Y-175511819D02*
X107189028Y-175559438D01*
X107189028Y-175559438D02*
X107236647Y-175607057D01*
X107236647Y-175607057D02*
X107284266Y-175702295D01*
X107284266Y-175702295D02*
X107284266Y-175797533D01*
X107284266Y-175797533D02*
X107236647Y-175940390D01*
X107236647Y-175940390D02*
X106665219Y-176511819D01*
X106665219Y-176511819D02*
X107284266Y-176511819D01*
X106553095Y-215304419D02*
X106553095Y-214304419D01*
X106553095Y-214780609D02*
X107124523Y-214780609D01*
X107124523Y-215304419D02*
X107124523Y-214304419D01*
X107553095Y-214399657D02*
X107600714Y-214352038D01*
X107600714Y-214352038D02*
X107695952Y-214304419D01*
X107695952Y-214304419D02*
X107934047Y-214304419D01*
X107934047Y-214304419D02*
X108029285Y-214352038D01*
X108029285Y-214352038D02*
X108076904Y-214399657D01*
X108076904Y-214399657D02*
X108124523Y-214494895D01*
X108124523Y-214494895D02*
X108124523Y-214590133D01*
X108124523Y-214590133D02*
X108076904Y-214732990D01*
X108076904Y-214732990D02*
X107505476Y-215304419D01*
X107505476Y-215304419D02*
X108124523Y-215304419D01*
X204679733Y-134300219D02*
X204346400Y-133824028D01*
X204108305Y-134300219D02*
X204108305Y-133300219D01*
X204108305Y-133300219D02*
X204489257Y-133300219D01*
X204489257Y-133300219D02*
X204584495Y-133347838D01*
X204584495Y-133347838D02*
X204632114Y-133395457D01*
X204632114Y-133395457D02*
X204679733Y-133490695D01*
X204679733Y-133490695D02*
X204679733Y-133633552D01*
X204679733Y-133633552D02*
X204632114Y-133728790D01*
X204632114Y-133728790D02*
X204584495Y-133776409D01*
X204584495Y-133776409D02*
X204489257Y-133824028D01*
X204489257Y-133824028D02*
X204108305Y-133824028D01*
X205584495Y-133300219D02*
X205108305Y-133300219D01*
X205108305Y-133300219D02*
X205060686Y-133776409D01*
X205060686Y-133776409D02*
X205108305Y-133728790D01*
X205108305Y-133728790D02*
X205203543Y-133681171D01*
X205203543Y-133681171D02*
X205441638Y-133681171D01*
X205441638Y-133681171D02*
X205536876Y-133728790D01*
X205536876Y-133728790D02*
X205584495Y-133776409D01*
X205584495Y-133776409D02*
X205632114Y-133871647D01*
X205632114Y-133871647D02*
X205632114Y-134109742D01*
X205632114Y-134109742D02*
X205584495Y-134204980D01*
X205584495Y-134204980D02*
X205536876Y-134252600D01*
X205536876Y-134252600D02*
X205441638Y-134300219D01*
X205441638Y-134300219D02*
X205203543Y-134300219D01*
X205203543Y-134300219D02*
X205108305Y-134252600D01*
X205108305Y-134252600D02*
X205060686Y-134204980D01*
X203774971Y-129560219D02*
X203203543Y-129560219D01*
X203489257Y-129560219D02*
X203489257Y-128560219D01*
X203489257Y-128560219D02*
X203394019Y-128703076D01*
X203394019Y-128703076D02*
X203298781Y-128798314D01*
X203298781Y-128798314D02*
X203203543Y-128845933D01*
X204394019Y-128560219D02*
X204489257Y-128560219D01*
X204489257Y-128560219D02*
X204584495Y-128607838D01*
X204584495Y-128607838D02*
X204632114Y-128655457D01*
X204632114Y-128655457D02*
X204679733Y-128750695D01*
X204679733Y-128750695D02*
X204727352Y-128941171D01*
X204727352Y-128941171D02*
X204727352Y-129179266D01*
X204727352Y-129179266D02*
X204679733Y-129369742D01*
X204679733Y-129369742D02*
X204632114Y-129464980D01*
X204632114Y-129464980D02*
X204584495Y-129512600D01*
X204584495Y-129512600D02*
X204489257Y-129560219D01*
X204489257Y-129560219D02*
X204394019Y-129560219D01*
X204394019Y-129560219D02*
X204298781Y-129512600D01*
X204298781Y-129512600D02*
X204251162Y-129464980D01*
X204251162Y-129464980D02*
X204203543Y-129369742D01*
X204203543Y-129369742D02*
X204155924Y-129179266D01*
X204155924Y-129179266D02*
X204155924Y-128941171D01*
X204155924Y-128941171D02*
X204203543Y-128750695D01*
X204203543Y-128750695D02*
X204251162Y-128655457D01*
X204251162Y-128655457D02*
X204298781Y-128607838D01*
X204298781Y-128607838D02*
X204394019Y-128560219D01*
X205346400Y-128560219D02*
X205441638Y-128560219D01*
X205441638Y-128560219D02*
X205536876Y-128607838D01*
X205536876Y-128607838D02*
X205584495Y-128655457D01*
X205584495Y-128655457D02*
X205632114Y-128750695D01*
X205632114Y-128750695D02*
X205679733Y-128941171D01*
X205679733Y-128941171D02*
X205679733Y-129179266D01*
X205679733Y-129179266D02*
X205632114Y-129369742D01*
X205632114Y-129369742D02*
X205584495Y-129464980D01*
X205584495Y-129464980D02*
X205536876Y-129512600D01*
X205536876Y-129512600D02*
X205441638Y-129560219D01*
X205441638Y-129560219D02*
X205346400Y-129560219D01*
X205346400Y-129560219D02*
X205251162Y-129512600D01*
X205251162Y-129512600D02*
X205203543Y-129464980D01*
X205203543Y-129464980D02*
X205155924Y-129369742D01*
X205155924Y-129369742D02*
X205108305Y-129179266D01*
X205108305Y-129179266D02*
X205108305Y-128941171D01*
X205108305Y-128941171D02*
X205155924Y-128750695D01*
X205155924Y-128750695D02*
X205203543Y-128655457D01*
X205203543Y-128655457D02*
X205251162Y-128607838D01*
X205251162Y-128607838D02*
X205346400Y-128560219D01*
X206108305Y-129560219D02*
X206108305Y-128560219D01*
X206203543Y-129179266D02*
X206489257Y-129560219D01*
X206489257Y-128893552D02*
X206108305Y-129274504D01*
X219380933Y-144600380D02*
X219333314Y-144648000D01*
X219333314Y-144648000D02*
X219190457Y-144695619D01*
X219190457Y-144695619D02*
X219095219Y-144695619D01*
X219095219Y-144695619D02*
X218952362Y-144648000D01*
X218952362Y-144648000D02*
X218857124Y-144552761D01*
X218857124Y-144552761D02*
X218809505Y-144457523D01*
X218809505Y-144457523D02*
X218761886Y-144267047D01*
X218761886Y-144267047D02*
X218761886Y-144124190D01*
X218761886Y-144124190D02*
X218809505Y-143933714D01*
X218809505Y-143933714D02*
X218857124Y-143838476D01*
X218857124Y-143838476D02*
X218952362Y-143743238D01*
X218952362Y-143743238D02*
X219095219Y-143695619D01*
X219095219Y-143695619D02*
X219190457Y-143695619D01*
X219190457Y-143695619D02*
X219333314Y-143743238D01*
X219333314Y-143743238D02*
X219380933Y-143790857D01*
X220238076Y-144028952D02*
X220238076Y-144695619D01*
X219999981Y-143648000D02*
X219761886Y-144362285D01*
X219761886Y-144362285D02*
X220380933Y-144362285D01*
X149740600Y-221322732D02*
X149788219Y-221179875D01*
X149788219Y-221179875D02*
X149788219Y-220941780D01*
X149788219Y-220941780D02*
X149740600Y-220846542D01*
X149740600Y-220846542D02*
X149692980Y-220798923D01*
X149692980Y-220798923D02*
X149597742Y-220751304D01*
X149597742Y-220751304D02*
X149502504Y-220751304D01*
X149502504Y-220751304D02*
X149407266Y-220798923D01*
X149407266Y-220798923D02*
X149359647Y-220846542D01*
X149359647Y-220846542D02*
X149312028Y-220941780D01*
X149312028Y-220941780D02*
X149264409Y-221132256D01*
X149264409Y-221132256D02*
X149216790Y-221227494D01*
X149216790Y-221227494D02*
X149169171Y-221275113D01*
X149169171Y-221275113D02*
X149073933Y-221322732D01*
X149073933Y-221322732D02*
X148978695Y-221322732D01*
X148978695Y-221322732D02*
X148883457Y-221275113D01*
X148883457Y-221275113D02*
X148835838Y-221227494D01*
X148835838Y-221227494D02*
X148788219Y-221132256D01*
X148788219Y-221132256D02*
X148788219Y-220894161D01*
X148788219Y-220894161D02*
X148835838Y-220751304D01*
X148788219Y-220417970D02*
X149788219Y-220179875D01*
X149788219Y-220179875D02*
X149073933Y-219989399D01*
X149073933Y-219989399D02*
X149788219Y-219798923D01*
X149788219Y-219798923D02*
X148788219Y-219560828D01*
X148788219Y-218703685D02*
X148788219Y-219179875D01*
X148788219Y-219179875D02*
X149264409Y-219227494D01*
X149264409Y-219227494D02*
X149216790Y-219179875D01*
X149216790Y-219179875D02*
X149169171Y-219084637D01*
X149169171Y-219084637D02*
X149169171Y-218846542D01*
X149169171Y-218846542D02*
X149216790Y-218751304D01*
X149216790Y-218751304D02*
X149264409Y-218703685D01*
X149264409Y-218703685D02*
X149359647Y-218656066D01*
X149359647Y-218656066D02*
X149597742Y-218656066D01*
X149597742Y-218656066D02*
X149692980Y-218703685D01*
X149692980Y-218703685D02*
X149740600Y-218751304D01*
X149740600Y-218751304D02*
X149788219Y-218846542D01*
X149788219Y-218846542D02*
X149788219Y-219084637D01*
X149788219Y-219084637D02*
X149740600Y-219179875D01*
X149740600Y-219179875D02*
X149692980Y-219227494D01*
X153614524Y-224330419D02*
X153614524Y-223330419D01*
X153614524Y-223806609D02*
X154185952Y-223806609D01*
X154185952Y-224330419D02*
X154185952Y-223330419D01*
X154566905Y-223663752D02*
X155090714Y-223663752D01*
X155090714Y-223663752D02*
X154566905Y-224330419D01*
X154566905Y-224330419D02*
X155090714Y-224330419D01*
X185940867Y-222690800D02*
X186083724Y-222738419D01*
X186083724Y-222738419D02*
X186321819Y-222738419D01*
X186321819Y-222738419D02*
X186417057Y-222690800D01*
X186417057Y-222690800D02*
X186464676Y-222643180D01*
X186464676Y-222643180D02*
X186512295Y-222547942D01*
X186512295Y-222547942D02*
X186512295Y-222452704D01*
X186512295Y-222452704D02*
X186464676Y-222357466D01*
X186464676Y-222357466D02*
X186417057Y-222309847D01*
X186417057Y-222309847D02*
X186321819Y-222262228D01*
X186321819Y-222262228D02*
X186131343Y-222214609D01*
X186131343Y-222214609D02*
X186036105Y-222166990D01*
X186036105Y-222166990D02*
X185988486Y-222119371D01*
X185988486Y-222119371D02*
X185940867Y-222024133D01*
X185940867Y-222024133D02*
X185940867Y-221928895D01*
X185940867Y-221928895D02*
X185988486Y-221833657D01*
X185988486Y-221833657D02*
X186036105Y-221786038D01*
X186036105Y-221786038D02*
X186131343Y-221738419D01*
X186131343Y-221738419D02*
X186369438Y-221738419D01*
X186369438Y-221738419D02*
X186512295Y-221786038D01*
X186845629Y-221738419D02*
X187083724Y-222738419D01*
X187083724Y-222738419D02*
X187274200Y-222024133D01*
X187274200Y-222024133D02*
X187464676Y-222738419D01*
X187464676Y-222738419D02*
X187702772Y-221738419D01*
X188607533Y-222738419D02*
X188036105Y-222738419D01*
X188321819Y-222738419D02*
X188321819Y-221738419D01*
X188321819Y-221738419D02*
X188226581Y-221881276D01*
X188226581Y-221881276D02*
X188131343Y-221976514D01*
X188131343Y-221976514D02*
X188036105Y-222024133D01*
X185123438Y-224355819D02*
X185123438Y-223355819D01*
X185123438Y-223355819D02*
X185456771Y-224070104D01*
X185456771Y-224070104D02*
X185790104Y-223355819D01*
X185790104Y-223355819D02*
X185790104Y-224355819D01*
X186694866Y-224355819D02*
X186694866Y-223832009D01*
X186694866Y-223832009D02*
X186647247Y-223736771D01*
X186647247Y-223736771D02*
X186552009Y-223689152D01*
X186552009Y-223689152D02*
X186361533Y-223689152D01*
X186361533Y-223689152D02*
X186266295Y-223736771D01*
X186694866Y-224308200D02*
X186599628Y-224355819D01*
X186599628Y-224355819D02*
X186361533Y-224355819D01*
X186361533Y-224355819D02*
X186266295Y-224308200D01*
X186266295Y-224308200D02*
X186218676Y-224212961D01*
X186218676Y-224212961D02*
X186218676Y-224117723D01*
X186218676Y-224117723D02*
X186266295Y-224022485D01*
X186266295Y-224022485D02*
X186361533Y-223974866D01*
X186361533Y-223974866D02*
X186599628Y-223974866D01*
X186599628Y-223974866D02*
X186694866Y-223927247D01*
X187171057Y-223689152D02*
X187171057Y-224355819D01*
X187171057Y-223784390D02*
X187218676Y-223736771D01*
X187218676Y-223736771D02*
X187313914Y-223689152D01*
X187313914Y-223689152D02*
X187456771Y-223689152D01*
X187456771Y-223689152D02*
X187552009Y-223736771D01*
X187552009Y-223736771D02*
X187599628Y-223832009D01*
X187599628Y-223832009D02*
X187599628Y-224355819D01*
X188504390Y-223689152D02*
X188504390Y-224355819D01*
X188075819Y-223689152D02*
X188075819Y-224212961D01*
X188075819Y-224212961D02*
X188123438Y-224308200D01*
X188123438Y-224308200D02*
X188218676Y-224355819D01*
X188218676Y-224355819D02*
X188361533Y-224355819D01*
X188361533Y-224355819D02*
X188456771Y-224308200D01*
X188456771Y-224308200D02*
X188504390Y-224260580D01*
X189409152Y-224355819D02*
X189409152Y-223832009D01*
X189409152Y-223832009D02*
X189361533Y-223736771D01*
X189361533Y-223736771D02*
X189266295Y-223689152D01*
X189266295Y-223689152D02*
X189075819Y-223689152D01*
X189075819Y-223689152D02*
X188980581Y-223736771D01*
X189409152Y-224308200D02*
X189313914Y-224355819D01*
X189313914Y-224355819D02*
X189075819Y-224355819D01*
X189075819Y-224355819D02*
X188980581Y-224308200D01*
X188980581Y-224308200D02*
X188932962Y-224212961D01*
X188932962Y-224212961D02*
X188932962Y-224117723D01*
X188932962Y-224117723D02*
X188980581Y-224022485D01*
X188980581Y-224022485D02*
X189075819Y-223974866D01*
X189075819Y-223974866D02*
X189313914Y-223974866D01*
X189313914Y-223974866D02*
X189409152Y-223927247D01*
X190028200Y-224355819D02*
X189932962Y-224308200D01*
X189932962Y-224308200D02*
X189885343Y-224212961D01*
X189885343Y-224212961D02*
X189885343Y-223355819D01*
X293179866Y-111738819D02*
X293179866Y-112453104D01*
X293179866Y-112453104D02*
X293132247Y-112595961D01*
X293132247Y-112595961D02*
X293037009Y-112691200D01*
X293037009Y-112691200D02*
X292894152Y-112738819D01*
X292894152Y-112738819D02*
X292798914Y-112738819D01*
X294179866Y-112738819D02*
X293608438Y-112738819D01*
X293894152Y-112738819D02*
X293894152Y-111738819D01*
X293894152Y-111738819D02*
X293798914Y-111881676D01*
X293798914Y-111881676D02*
X293703676Y-111976914D01*
X293703676Y-111976914D02*
X293608438Y-112024533D01*
D12*
%TO.C,C1*%
X170679275Y-126620800D02*
X170179275Y-126620800D01*
X170429275Y-126870800D02*
X170429275Y-126370800D01*
X167874500Y-127725800D02*
X167874500Y-126185800D01*
X167874500Y-124105800D02*
X167874500Y-122565800D01*
X167834500Y-127725800D02*
X167834500Y-126185800D01*
X167834500Y-124105800D02*
X167834500Y-122565800D01*
X167794500Y-127724800D02*
X167794500Y-126185800D01*
X167794500Y-124105800D02*
X167794500Y-122566800D01*
X167754500Y-127723800D02*
X167754500Y-126185800D01*
X167754500Y-124105800D02*
X167754500Y-122567800D01*
X167714500Y-127721800D02*
X167714500Y-126185800D01*
X167714500Y-124105800D02*
X167714500Y-122569800D01*
X167674500Y-127718800D02*
X167674500Y-126185800D01*
X167674500Y-124105800D02*
X167674500Y-122572800D01*
X167634500Y-127714800D02*
X167634500Y-126185800D01*
X167634500Y-124105800D02*
X167634500Y-122576800D01*
X167594500Y-127710800D02*
X167594500Y-126185800D01*
X167594500Y-124105800D02*
X167594500Y-122580800D01*
X167554500Y-127706800D02*
X167554500Y-126185800D01*
X167554500Y-124105800D02*
X167554500Y-122584800D01*
X167514500Y-127701800D02*
X167514500Y-126185800D01*
X167514500Y-124105800D02*
X167514500Y-122589800D01*
X167474500Y-127695800D02*
X167474500Y-126185800D01*
X167474500Y-124105800D02*
X167474500Y-122595800D01*
X167434500Y-127688800D02*
X167434500Y-126185800D01*
X167434500Y-124105800D02*
X167434500Y-122602800D01*
X167394500Y-127681800D02*
X167394500Y-126185800D01*
X167394500Y-124105800D02*
X167394500Y-122609800D01*
X167354500Y-127673800D02*
X167354500Y-126185800D01*
X167354500Y-124105800D02*
X167354500Y-122617800D01*
X167314500Y-127665800D02*
X167314500Y-126185800D01*
X167314500Y-124105800D02*
X167314500Y-122625800D01*
X167274500Y-127656800D02*
X167274500Y-126185800D01*
X167274500Y-124105800D02*
X167274500Y-122634800D01*
X167234500Y-127646800D02*
X167234500Y-126185800D01*
X167234500Y-124105800D02*
X167234500Y-122644800D01*
X167194500Y-127636800D02*
X167194500Y-126185800D01*
X167194500Y-124105800D02*
X167194500Y-122654800D01*
X167153500Y-127625800D02*
X167153500Y-126185800D01*
X167153500Y-124105800D02*
X167153500Y-122665800D01*
X167113500Y-127613800D02*
X167113500Y-126185800D01*
X167113500Y-124105800D02*
X167113500Y-122677800D01*
X167073500Y-127600800D02*
X167073500Y-126185800D01*
X167073500Y-124105800D02*
X167073500Y-122690800D01*
X167033500Y-127587800D02*
X167033500Y-126185800D01*
X167033500Y-124105800D02*
X167033500Y-122703800D01*
X166993500Y-127573800D02*
X166993500Y-126185800D01*
X166993500Y-124105800D02*
X166993500Y-122717800D01*
X166953500Y-127559800D02*
X166953500Y-126185800D01*
X166953500Y-124105800D02*
X166953500Y-122731800D01*
X166913500Y-127543800D02*
X166913500Y-126185800D01*
X166913500Y-124105800D02*
X166913500Y-122747800D01*
X166873500Y-127527800D02*
X166873500Y-126185800D01*
X166873500Y-124105800D02*
X166873500Y-122763800D01*
X166833500Y-127510800D02*
X166833500Y-126185800D01*
X166833500Y-124105800D02*
X166833500Y-122780800D01*
X166793500Y-127493800D02*
X166793500Y-126185800D01*
X166793500Y-124105800D02*
X166793500Y-122797800D01*
X166753500Y-127474800D02*
X166753500Y-126185800D01*
X166753500Y-124105800D02*
X166753500Y-122816800D01*
X166713500Y-127455800D02*
X166713500Y-126185800D01*
X166713500Y-124105800D02*
X166713500Y-122835800D01*
X166673500Y-127435800D02*
X166673500Y-126185800D01*
X166673500Y-124105800D02*
X166673500Y-122855800D01*
X166633500Y-127413800D02*
X166633500Y-126185800D01*
X166633500Y-124105800D02*
X166633500Y-122877800D01*
X166593500Y-127392800D02*
X166593500Y-126185800D01*
X166593500Y-124105800D02*
X166593500Y-122898800D01*
X166553500Y-127369800D02*
X166553500Y-126185800D01*
X166553500Y-124105800D02*
X166553500Y-122921800D01*
X166513500Y-127345800D02*
X166513500Y-126185800D01*
X166513500Y-124105800D02*
X166513500Y-122945800D01*
X166473500Y-127320800D02*
X166473500Y-126185800D01*
X166473500Y-124105800D02*
X166473500Y-122970800D01*
X166433500Y-127294800D02*
X166433500Y-126185800D01*
X166433500Y-124105800D02*
X166433500Y-122996800D01*
X166393500Y-127267800D02*
X166393500Y-126185800D01*
X166393500Y-124105800D02*
X166393500Y-123023800D01*
X166353500Y-127240800D02*
X166353500Y-126185800D01*
X166353500Y-124105800D02*
X166353500Y-123050800D01*
X166313500Y-127210800D02*
X166313500Y-126185800D01*
X166313500Y-124105800D02*
X166313500Y-123080800D01*
X166273500Y-127180800D02*
X166273500Y-126185800D01*
X166273500Y-124105800D02*
X166273500Y-123110800D01*
X166233500Y-127149800D02*
X166233500Y-126185800D01*
X166233500Y-124105800D02*
X166233500Y-123141800D01*
X166193500Y-127116800D02*
X166193500Y-126185800D01*
X166193500Y-124105800D02*
X166193500Y-123174800D01*
X166153500Y-127082800D02*
X166153500Y-126185800D01*
X166153500Y-124105800D02*
X166153500Y-123208800D01*
X166113500Y-127046800D02*
X166113500Y-126185800D01*
X166113500Y-124105800D02*
X166113500Y-123244800D01*
X166073500Y-127009800D02*
X166073500Y-126185800D01*
X166073500Y-124105800D02*
X166073500Y-123281800D01*
X166033500Y-126971800D02*
X166033500Y-126185800D01*
X166033500Y-124105800D02*
X166033500Y-123319800D01*
X165993500Y-126930800D02*
X165993500Y-126185800D01*
X165993500Y-124105800D02*
X165993500Y-123360800D01*
X165953500Y-126888800D02*
X165953500Y-126185800D01*
X165953500Y-124105800D02*
X165953500Y-123402800D01*
X165913500Y-126844800D02*
X165913500Y-126185800D01*
X165913500Y-124105800D02*
X165913500Y-123446800D01*
X165873500Y-126798800D02*
X165873500Y-126185800D01*
X165873500Y-124105800D02*
X165873500Y-123492800D01*
X165833500Y-126750800D02*
X165833500Y-123540800D01*
X165793500Y-126699800D02*
X165793500Y-123591800D01*
X165753500Y-126645800D02*
X165753500Y-123645800D01*
X165713500Y-126588800D02*
X165713500Y-123702800D01*
X165673500Y-126528800D02*
X165673500Y-123762800D01*
X165633500Y-126464800D02*
X165633500Y-123826800D01*
X165593500Y-126396800D02*
X165593500Y-123894800D01*
X165553500Y-126323800D02*
X165553500Y-123967800D01*
X165513500Y-126243800D02*
X165513500Y-124047800D01*
X165473500Y-126156800D02*
X165473500Y-124134800D01*
X165433500Y-126060800D02*
X165433500Y-124230800D01*
X165393500Y-125950800D02*
X165393500Y-124340800D01*
X165353500Y-125822800D02*
X165353500Y-124468800D01*
X165313500Y-125663800D02*
X165313500Y-124627800D01*
X165273500Y-125429800D02*
X165273500Y-124861800D01*
X170494500Y-125145800D02*
G75*
G03*
X170494500Y-125145800I-2620000J0D01*
G01*
%TO.C,R6*%
X208759400Y-124998400D02*
X207989400Y-124998400D01*
X207989400Y-126368400D02*
X207989400Y-123628400D01*
X207989400Y-123628400D02*
X201449400Y-123628400D01*
X201449400Y-126368400D02*
X207989400Y-126368400D01*
X201449400Y-123628400D02*
X201449400Y-126368400D01*
X200679400Y-124998400D02*
X201449400Y-124998400D01*
%TO.C,R11*%
X137668000Y-169800400D02*
X137668000Y-169030400D01*
X136298000Y-169030400D02*
X139038000Y-169030400D01*
X139038000Y-169030400D02*
X139038000Y-162490400D01*
X136298000Y-162490400D02*
X136298000Y-169030400D01*
X139038000Y-162490400D02*
X136298000Y-162490400D01*
X137668000Y-161720400D02*
X137668000Y-162490400D01*
%TO.C,R7*%
X232581800Y-137698400D02*
X233351800Y-137698400D01*
X233351800Y-136328400D02*
X233351800Y-139068400D01*
X233351800Y-139068400D02*
X239891800Y-139068400D01*
X239891800Y-136328400D02*
X233351800Y-136328400D01*
X239891800Y-139068400D02*
X239891800Y-136328400D01*
X240661800Y-137698400D02*
X239891800Y-137698400D01*
%TO.C,C3*%
X147448375Y-148007600D02*
X146948375Y-148007600D01*
X147198375Y-148257600D02*
X147198375Y-147757600D01*
X144643600Y-149112600D02*
X144643600Y-147572600D01*
X144643600Y-145492600D02*
X144643600Y-143952600D01*
X144603600Y-149112600D02*
X144603600Y-147572600D01*
X144603600Y-145492600D02*
X144603600Y-143952600D01*
X144563600Y-149111600D02*
X144563600Y-147572600D01*
X144563600Y-145492600D02*
X144563600Y-143953600D01*
X144523600Y-149110600D02*
X144523600Y-147572600D01*
X144523600Y-145492600D02*
X144523600Y-143954600D01*
X144483600Y-149108600D02*
X144483600Y-147572600D01*
X144483600Y-145492600D02*
X144483600Y-143956600D01*
X144443600Y-149105600D02*
X144443600Y-147572600D01*
X144443600Y-145492600D02*
X144443600Y-143959600D01*
X144403600Y-149101600D02*
X144403600Y-147572600D01*
X144403600Y-145492600D02*
X144403600Y-143963600D01*
X144363600Y-149097600D02*
X144363600Y-147572600D01*
X144363600Y-145492600D02*
X144363600Y-143967600D01*
X144323600Y-149093600D02*
X144323600Y-147572600D01*
X144323600Y-145492600D02*
X144323600Y-143971600D01*
X144283600Y-149088600D02*
X144283600Y-147572600D01*
X144283600Y-145492600D02*
X144283600Y-143976600D01*
X144243600Y-149082600D02*
X144243600Y-147572600D01*
X144243600Y-145492600D02*
X144243600Y-143982600D01*
X144203600Y-149075600D02*
X144203600Y-147572600D01*
X144203600Y-145492600D02*
X144203600Y-143989600D01*
X144163600Y-149068600D02*
X144163600Y-147572600D01*
X144163600Y-145492600D02*
X144163600Y-143996600D01*
X144123600Y-149060600D02*
X144123600Y-147572600D01*
X144123600Y-145492600D02*
X144123600Y-144004600D01*
X144083600Y-149052600D02*
X144083600Y-147572600D01*
X144083600Y-145492600D02*
X144083600Y-144012600D01*
X144043600Y-149043600D02*
X144043600Y-147572600D01*
X144043600Y-145492600D02*
X144043600Y-144021600D01*
X144003600Y-149033600D02*
X144003600Y-147572600D01*
X144003600Y-145492600D02*
X144003600Y-144031600D01*
X143963600Y-149023600D02*
X143963600Y-147572600D01*
X143963600Y-145492600D02*
X143963600Y-144041600D01*
X143922600Y-149012600D02*
X143922600Y-147572600D01*
X143922600Y-145492600D02*
X143922600Y-144052600D01*
X143882600Y-149000600D02*
X143882600Y-147572600D01*
X143882600Y-145492600D02*
X143882600Y-144064600D01*
X143842600Y-148987600D02*
X143842600Y-147572600D01*
X143842600Y-145492600D02*
X143842600Y-144077600D01*
X143802600Y-148974600D02*
X143802600Y-147572600D01*
X143802600Y-145492600D02*
X143802600Y-144090600D01*
X143762600Y-148960600D02*
X143762600Y-147572600D01*
X143762600Y-145492600D02*
X143762600Y-144104600D01*
X143722600Y-148946600D02*
X143722600Y-147572600D01*
X143722600Y-145492600D02*
X143722600Y-144118600D01*
X143682600Y-148930600D02*
X143682600Y-147572600D01*
X143682600Y-145492600D02*
X143682600Y-144134600D01*
X143642600Y-148914600D02*
X143642600Y-147572600D01*
X143642600Y-145492600D02*
X143642600Y-144150600D01*
X143602600Y-148897600D02*
X143602600Y-147572600D01*
X143602600Y-145492600D02*
X143602600Y-144167600D01*
X143562600Y-148880600D02*
X143562600Y-147572600D01*
X143562600Y-145492600D02*
X143562600Y-144184600D01*
X143522600Y-148861600D02*
X143522600Y-147572600D01*
X143522600Y-145492600D02*
X143522600Y-144203600D01*
X143482600Y-148842600D02*
X143482600Y-147572600D01*
X143482600Y-145492600D02*
X143482600Y-144222600D01*
X143442600Y-148822600D02*
X143442600Y-147572600D01*
X143442600Y-145492600D02*
X143442600Y-144242600D01*
X143402600Y-148800600D02*
X143402600Y-147572600D01*
X143402600Y-145492600D02*
X143402600Y-144264600D01*
X143362600Y-148779600D02*
X143362600Y-147572600D01*
X143362600Y-145492600D02*
X143362600Y-144285600D01*
X143322600Y-148756600D02*
X143322600Y-147572600D01*
X143322600Y-145492600D02*
X143322600Y-144308600D01*
X143282600Y-148732600D02*
X143282600Y-147572600D01*
X143282600Y-145492600D02*
X143282600Y-144332600D01*
X143242600Y-148707600D02*
X143242600Y-147572600D01*
X143242600Y-145492600D02*
X143242600Y-144357600D01*
X143202600Y-148681600D02*
X143202600Y-147572600D01*
X143202600Y-145492600D02*
X143202600Y-144383600D01*
X143162600Y-148654600D02*
X143162600Y-147572600D01*
X143162600Y-145492600D02*
X143162600Y-144410600D01*
X143122600Y-148627600D02*
X143122600Y-147572600D01*
X143122600Y-145492600D02*
X143122600Y-144437600D01*
X143082600Y-148597600D02*
X143082600Y-147572600D01*
X143082600Y-145492600D02*
X143082600Y-144467600D01*
X143042600Y-148567600D02*
X143042600Y-147572600D01*
X143042600Y-145492600D02*
X143042600Y-144497600D01*
X143002600Y-148536600D02*
X143002600Y-147572600D01*
X143002600Y-145492600D02*
X143002600Y-144528600D01*
X142962600Y-148503600D02*
X142962600Y-147572600D01*
X142962600Y-145492600D02*
X142962600Y-144561600D01*
X142922600Y-148469600D02*
X142922600Y-147572600D01*
X142922600Y-145492600D02*
X142922600Y-144595600D01*
X142882600Y-148433600D02*
X142882600Y-147572600D01*
X142882600Y-145492600D02*
X142882600Y-144631600D01*
X142842600Y-148396600D02*
X142842600Y-147572600D01*
X142842600Y-145492600D02*
X142842600Y-144668600D01*
X142802600Y-148358600D02*
X142802600Y-147572600D01*
X142802600Y-145492600D02*
X142802600Y-144706600D01*
X142762600Y-148317600D02*
X142762600Y-147572600D01*
X142762600Y-145492600D02*
X142762600Y-144747600D01*
X142722600Y-148275600D02*
X142722600Y-147572600D01*
X142722600Y-145492600D02*
X142722600Y-144789600D01*
X142682600Y-148231600D02*
X142682600Y-147572600D01*
X142682600Y-145492600D02*
X142682600Y-144833600D01*
X142642600Y-148185600D02*
X142642600Y-147572600D01*
X142642600Y-145492600D02*
X142642600Y-144879600D01*
X142602600Y-148137600D02*
X142602600Y-144927600D01*
X142562600Y-148086600D02*
X142562600Y-144978600D01*
X142522600Y-148032600D02*
X142522600Y-145032600D01*
X142482600Y-147975600D02*
X142482600Y-145089600D01*
X142442600Y-147915600D02*
X142442600Y-145149600D01*
X142402600Y-147851600D02*
X142402600Y-145213600D01*
X142362600Y-147783600D02*
X142362600Y-145281600D01*
X142322600Y-147710600D02*
X142322600Y-145354600D01*
X142282600Y-147630600D02*
X142282600Y-145434600D01*
X142242600Y-147543600D02*
X142242600Y-145521600D01*
X142202600Y-147447600D02*
X142202600Y-145617600D01*
X142162600Y-147337600D02*
X142162600Y-145727600D01*
X142122600Y-147209600D02*
X142122600Y-145855600D01*
X142082600Y-147050600D02*
X142082600Y-146014600D01*
X142042600Y-146816600D02*
X142042600Y-146248600D01*
X147263600Y-146532600D02*
G75*
G03*
X147263600Y-146532600I-2620000J0D01*
G01*
%TO.C,R10*%
X143941800Y-169800400D02*
X143941800Y-169030400D01*
X142571800Y-169030400D02*
X145311800Y-169030400D01*
X145311800Y-169030400D02*
X145311800Y-162490400D01*
X142571800Y-162490400D02*
X142571800Y-169030400D01*
X145311800Y-162490400D02*
X142571800Y-162490400D01*
X143941800Y-161720400D02*
X143941800Y-162490400D01*
%TO.C,R4*%
X167767000Y-162965000D02*
X167767000Y-163735000D01*
X169137000Y-163735000D02*
X166397000Y-163735000D01*
X166397000Y-163735000D02*
X166397000Y-170275000D01*
X169137000Y-170275000D02*
X169137000Y-163735000D01*
X166397000Y-170275000D02*
X169137000Y-170275000D01*
X167767000Y-171045000D02*
X167767000Y-170275000D01*
%TO.C,C2*%
X165333825Y-145387800D02*
X165833825Y-145387800D01*
X165583825Y-145137800D02*
X165583825Y-145637800D01*
X168138600Y-144282800D02*
X168138600Y-145822800D01*
X168138600Y-147902800D02*
X168138600Y-149442800D01*
X168178600Y-144282800D02*
X168178600Y-145822800D01*
X168178600Y-147902800D02*
X168178600Y-149442800D01*
X168218600Y-144283800D02*
X168218600Y-145822800D01*
X168218600Y-147902800D02*
X168218600Y-149441800D01*
X168258600Y-144284800D02*
X168258600Y-145822800D01*
X168258600Y-147902800D02*
X168258600Y-149440800D01*
X168298600Y-144286800D02*
X168298600Y-145822800D01*
X168298600Y-147902800D02*
X168298600Y-149438800D01*
X168338600Y-144289800D02*
X168338600Y-145822800D01*
X168338600Y-147902800D02*
X168338600Y-149435800D01*
X168378600Y-144293800D02*
X168378600Y-145822800D01*
X168378600Y-147902800D02*
X168378600Y-149431800D01*
X168418600Y-144297800D02*
X168418600Y-145822800D01*
X168418600Y-147902800D02*
X168418600Y-149427800D01*
X168458600Y-144301800D02*
X168458600Y-145822800D01*
X168458600Y-147902800D02*
X168458600Y-149423800D01*
X168498600Y-144306800D02*
X168498600Y-145822800D01*
X168498600Y-147902800D02*
X168498600Y-149418800D01*
X168538600Y-144312800D02*
X168538600Y-145822800D01*
X168538600Y-147902800D02*
X168538600Y-149412800D01*
X168578600Y-144319800D02*
X168578600Y-145822800D01*
X168578600Y-147902800D02*
X168578600Y-149405800D01*
X168618600Y-144326800D02*
X168618600Y-145822800D01*
X168618600Y-147902800D02*
X168618600Y-149398800D01*
X168658600Y-144334800D02*
X168658600Y-145822800D01*
X168658600Y-147902800D02*
X168658600Y-149390800D01*
X168698600Y-144342800D02*
X168698600Y-145822800D01*
X168698600Y-147902800D02*
X168698600Y-149382800D01*
X168738600Y-144351800D02*
X168738600Y-145822800D01*
X168738600Y-147902800D02*
X168738600Y-149373800D01*
X168778600Y-144361800D02*
X168778600Y-145822800D01*
X168778600Y-147902800D02*
X168778600Y-149363800D01*
X168818600Y-144371800D02*
X168818600Y-145822800D01*
X168818600Y-147902800D02*
X168818600Y-149353800D01*
X168859600Y-144382800D02*
X168859600Y-145822800D01*
X168859600Y-147902800D02*
X168859600Y-149342800D01*
X168899600Y-144394800D02*
X168899600Y-145822800D01*
X168899600Y-147902800D02*
X168899600Y-149330800D01*
X168939600Y-144407800D02*
X168939600Y-145822800D01*
X168939600Y-147902800D02*
X168939600Y-149317800D01*
X168979600Y-144420800D02*
X168979600Y-145822800D01*
X168979600Y-147902800D02*
X168979600Y-149304800D01*
X169019600Y-144434800D02*
X169019600Y-145822800D01*
X169019600Y-147902800D02*
X169019600Y-149290800D01*
X169059600Y-144448800D02*
X169059600Y-145822800D01*
X169059600Y-147902800D02*
X169059600Y-149276800D01*
X169099600Y-144464800D02*
X169099600Y-145822800D01*
X169099600Y-147902800D02*
X169099600Y-149260800D01*
X169139600Y-144480800D02*
X169139600Y-145822800D01*
X169139600Y-147902800D02*
X169139600Y-149244800D01*
X169179600Y-144497800D02*
X169179600Y-145822800D01*
X169179600Y-147902800D02*
X169179600Y-149227800D01*
X169219600Y-144514800D02*
X169219600Y-145822800D01*
X169219600Y-147902800D02*
X169219600Y-149210800D01*
X169259600Y-144533800D02*
X169259600Y-145822800D01*
X169259600Y-147902800D02*
X169259600Y-149191800D01*
X169299600Y-144552800D02*
X169299600Y-145822800D01*
X169299600Y-147902800D02*
X169299600Y-149172800D01*
X169339600Y-144572800D02*
X169339600Y-145822800D01*
X169339600Y-147902800D02*
X169339600Y-149152800D01*
X169379600Y-144594800D02*
X169379600Y-145822800D01*
X169379600Y-147902800D02*
X169379600Y-149130800D01*
X169419600Y-144615800D02*
X169419600Y-145822800D01*
X169419600Y-147902800D02*
X169419600Y-149109800D01*
X169459600Y-144638800D02*
X169459600Y-145822800D01*
X169459600Y-147902800D02*
X169459600Y-149086800D01*
X169499600Y-144662800D02*
X169499600Y-145822800D01*
X169499600Y-147902800D02*
X169499600Y-149062800D01*
X169539600Y-144687800D02*
X169539600Y-145822800D01*
X169539600Y-147902800D02*
X169539600Y-149037800D01*
X169579600Y-144713800D02*
X169579600Y-145822800D01*
X169579600Y-147902800D02*
X169579600Y-149011800D01*
X169619600Y-144740800D02*
X169619600Y-145822800D01*
X169619600Y-147902800D02*
X169619600Y-148984800D01*
X169659600Y-144767800D02*
X169659600Y-145822800D01*
X169659600Y-147902800D02*
X169659600Y-148957800D01*
X169699600Y-144797800D02*
X169699600Y-145822800D01*
X169699600Y-147902800D02*
X169699600Y-148927800D01*
X169739600Y-144827800D02*
X169739600Y-145822800D01*
X169739600Y-147902800D02*
X169739600Y-148897800D01*
X169779600Y-144858800D02*
X169779600Y-145822800D01*
X169779600Y-147902800D02*
X169779600Y-148866800D01*
X169819600Y-144891800D02*
X169819600Y-145822800D01*
X169819600Y-147902800D02*
X169819600Y-148833800D01*
X169859600Y-144925800D02*
X169859600Y-145822800D01*
X169859600Y-147902800D02*
X169859600Y-148799800D01*
X169899600Y-144961800D02*
X169899600Y-145822800D01*
X169899600Y-147902800D02*
X169899600Y-148763800D01*
X169939600Y-144998800D02*
X169939600Y-145822800D01*
X169939600Y-147902800D02*
X169939600Y-148726800D01*
X169979600Y-145036800D02*
X169979600Y-145822800D01*
X169979600Y-147902800D02*
X169979600Y-148688800D01*
X170019600Y-145077800D02*
X170019600Y-145822800D01*
X170019600Y-147902800D02*
X170019600Y-148647800D01*
X170059600Y-145119800D02*
X170059600Y-145822800D01*
X170059600Y-147902800D02*
X170059600Y-148605800D01*
X170099600Y-145163800D02*
X170099600Y-145822800D01*
X170099600Y-147902800D02*
X170099600Y-148561800D01*
X170139600Y-145209800D02*
X170139600Y-145822800D01*
X170139600Y-147902800D02*
X170139600Y-148515800D01*
X170179600Y-145257800D02*
X170179600Y-148467800D01*
X170219600Y-145308800D02*
X170219600Y-148416800D01*
X170259600Y-145362800D02*
X170259600Y-148362800D01*
X170299600Y-145419800D02*
X170299600Y-148305800D01*
X170339600Y-145479800D02*
X170339600Y-148245800D01*
X170379600Y-145543800D02*
X170379600Y-148181800D01*
X170419600Y-145611800D02*
X170419600Y-148113800D01*
X170459600Y-145684800D02*
X170459600Y-148040800D01*
X170499600Y-145764800D02*
X170499600Y-147960800D01*
X170539600Y-145851800D02*
X170539600Y-147873800D01*
X170579600Y-145947800D02*
X170579600Y-147777800D01*
X170619600Y-146057800D02*
X170619600Y-147667800D01*
X170659600Y-146185800D02*
X170659600Y-147539800D01*
X170699600Y-146344800D02*
X170699600Y-147380800D01*
X170739600Y-146578800D02*
X170739600Y-147146800D01*
X170758600Y-146862800D02*
G75*
G03*
X170758600Y-146862800I-2620000J0D01*
G01*
%TO.C,R3*%
X190982600Y-167717600D02*
X190982600Y-166947600D01*
X189612600Y-166947600D02*
X192352600Y-166947600D01*
X192352600Y-166947600D02*
X192352600Y-160407600D01*
X189612600Y-160407600D02*
X189612600Y-166947600D01*
X192352600Y-160407600D02*
X189612600Y-160407600D01*
X190982600Y-159637600D02*
X190982600Y-160407600D01*
%TO.C,R8*%
X150876000Y-161517200D02*
X150876000Y-162287200D01*
X152246000Y-162287200D02*
X149506000Y-162287200D01*
X149506000Y-162287200D02*
X149506000Y-168827200D01*
X152246000Y-168827200D02*
X152246000Y-162287200D01*
X149506000Y-168827200D02*
X152246000Y-168827200D01*
X150876000Y-169597200D02*
X150876000Y-168827200D01*
%TO.C,SW2*%
X174543600Y-218758200D02*
X174543600Y-217258200D01*
X173293600Y-214758200D02*
X168793600Y-214758200D01*
X168793600Y-221258200D02*
X173293600Y-221258200D01*
X167543600Y-217258200D02*
X167543600Y-218758200D01*
%TO.C,U1*%
X214239800Y-123628800D02*
X214239800Y-141648800D01*
X214239800Y-141648800D02*
X224519800Y-141648800D01*
X216729800Y-123688800D02*
X216729800Y-141588800D01*
X216729800Y-141588800D02*
X222029800Y-141588800D01*
X218379800Y-123688800D02*
X216729800Y-123688800D01*
X222029800Y-123688800D02*
X220379800Y-123688800D01*
X222029800Y-141588800D02*
X222029800Y-123688800D01*
X224519800Y-123628800D02*
X214239800Y-123628800D01*
X224519800Y-141648800D02*
X224519800Y-123628800D01*
X218379800Y-123688800D02*
G75*
G03*
X220379800Y-123688800I1000000J0D01*
G01*
%TO.C,SW6*%
X136632400Y-221319400D02*
X136632400Y-219989400D01*
X137962400Y-221319400D02*
X136632400Y-221319400D01*
X139232400Y-221319400D02*
X144372400Y-221319400D01*
X139232400Y-221319400D02*
X139232400Y-218659400D01*
X144372400Y-221319400D02*
X144372400Y-218659400D01*
X139232400Y-218659400D02*
X144372400Y-218659400D01*
%TO.C,R2*%
X167665400Y-186335800D02*
X167665400Y-185565800D01*
X166295400Y-185565800D02*
X169035400Y-185565800D01*
X169035400Y-185565800D02*
X169035400Y-179025800D01*
X166295400Y-179025800D02*
X166295400Y-185565800D01*
X169035400Y-179025800D02*
X166295400Y-179025800D01*
X167665400Y-178255800D02*
X167665400Y-179025800D01*
%TO.C,R9*%
X157099000Y-161466400D02*
X157099000Y-162236400D01*
X158469000Y-162236400D02*
X155729000Y-162236400D01*
X155729000Y-162236400D02*
X155729000Y-168776400D01*
X158469000Y-168776400D02*
X158469000Y-162236400D01*
X155729000Y-168776400D02*
X158469000Y-168776400D01*
X157099000Y-169546400D02*
X157099000Y-168776400D01*
%TO.C,R1*%
X175258600Y-168605200D02*
X176028600Y-168605200D01*
X176028600Y-167235200D02*
X176028600Y-169975200D01*
X176028600Y-169975200D02*
X182568600Y-169975200D01*
X182568600Y-167235200D02*
X176028600Y-167235200D01*
X182568600Y-169975200D02*
X182568600Y-167235200D01*
X183338600Y-168605200D02*
X182568600Y-168605200D01*
%TO.C,J2*%
X101267600Y-165707000D02*
X115967600Y-165707000D01*
X101267600Y-174907000D02*
X101267600Y-165707000D01*
X110067600Y-174907000D02*
X101267600Y-174907000D01*
X115117600Y-165507000D02*
X116167600Y-165507000D01*
X115967600Y-165707000D02*
X115967600Y-168307000D01*
X115967600Y-172207000D02*
X115967600Y-174907000D01*
X115967600Y-174907000D02*
X114067600Y-174907000D01*
X116167600Y-166557000D02*
X116167600Y-165507000D01*
%TO.C,R5*%
X208886400Y-131475400D02*
X208116400Y-131475400D01*
X208116400Y-132845400D02*
X208116400Y-130105400D01*
X208116400Y-130105400D02*
X201576400Y-130105400D01*
X201576400Y-132845400D02*
X208116400Y-132845400D01*
X201576400Y-130105400D02*
X201576400Y-132845400D01*
X200806400Y-131475400D02*
X201576400Y-131475400D01*
%TO.C,C4*%
X216927600Y-145370800D02*
X216927600Y-148110800D01*
X216927600Y-145370800D02*
X222167600Y-145370800D01*
X216927600Y-148110800D02*
X222167600Y-148110800D01*
X222167600Y-145370800D02*
X222167600Y-148110800D01*
%TO.C,SW5*%
X150333400Y-221319400D02*
X150333400Y-219989400D01*
X151663400Y-221319400D02*
X150333400Y-221319400D01*
X152933400Y-221319400D02*
X158073400Y-221319400D01*
X152933400Y-221319400D02*
X152933400Y-218659400D01*
X158073400Y-221319400D02*
X158073400Y-218659400D01*
X152933400Y-218659400D02*
X158073400Y-218659400D01*
%TO.C,SW1*%
X190774200Y-218783600D02*
X190774200Y-217283600D01*
X189524200Y-214783600D02*
X185024200Y-214783600D01*
X185024200Y-221283600D02*
X189524200Y-221283600D01*
X183774200Y-217283600D02*
X183774200Y-218783600D01*
%TO.C,J1*%
X286588200Y-113284000D02*
X287858200Y-113284000D01*
X286588200Y-114554000D02*
X286588200Y-113284000D01*
X288901129Y-116714000D02*
X289355271Y-116714000D01*
X288901129Y-117474000D02*
X289355271Y-117474000D01*
X288901129Y-119254000D02*
X289355271Y-119254000D01*
X288901129Y-120014000D02*
X289355271Y-120014000D01*
X288901129Y-121794000D02*
X289355271Y-121794000D01*
X288901129Y-122554000D02*
X289355271Y-122554000D01*
X288901129Y-124334000D02*
X289355271Y-124334000D01*
X288901129Y-125094000D02*
X289355271Y-125094000D01*
X288901129Y-126874000D02*
X289355271Y-126874000D01*
X288901129Y-127634000D02*
X289355271Y-127634000D01*
X288901129Y-129414000D02*
X289355271Y-129414000D01*
X288901129Y-130174000D02*
X289355271Y-130174000D01*
X288901129Y-131954000D02*
X289355271Y-131954000D01*
X288901129Y-132714000D02*
X289355271Y-132714000D01*
X288901129Y-134494000D02*
X289355271Y-134494000D01*
X288901129Y-135254000D02*
X289355271Y-135254000D01*
X288901129Y-137034000D02*
X289355271Y-137034000D01*
X288901129Y-137794000D02*
X289355271Y-137794000D01*
X288901129Y-139574000D02*
X289355271Y-139574000D01*
X288901129Y-140334000D02*
X289355271Y-140334000D01*
X288901129Y-142114000D02*
X289355271Y-142114000D01*
X288901129Y-142874000D02*
X289355271Y-142874000D01*
X288901129Y-144654000D02*
X289355271Y-144654000D01*
X288901129Y-145414000D02*
X289355271Y-145414000D01*
X288901129Y-147194000D02*
X289355271Y-147194000D01*
X288901129Y-147954000D02*
X289355271Y-147954000D01*
X288901129Y-149734000D02*
X289355271Y-149734000D01*
X288901129Y-150494000D02*
X289355271Y-150494000D01*
X288901129Y-152274000D02*
X289355271Y-152274000D01*
X288901129Y-153034000D02*
X289355271Y-153034000D01*
X288901129Y-154814000D02*
X289355271Y-154814000D01*
X288901129Y-155574000D02*
X289355271Y-155574000D01*
X288968200Y-114174000D02*
X289355271Y-114174000D01*
X288968200Y-114934000D02*
X289355271Y-114934000D01*
X291441129Y-114174000D02*
X291838200Y-114174000D01*
X291441129Y-114934000D02*
X291838200Y-114934000D01*
X291441129Y-116714000D02*
X291838200Y-116714000D01*
X291441129Y-117474000D02*
X291838200Y-117474000D01*
X291441129Y-119254000D02*
X291838200Y-119254000D01*
X291441129Y-120014000D02*
X291838200Y-120014000D01*
X291441129Y-121794000D02*
X291838200Y-121794000D01*
X291441129Y-122554000D02*
X291838200Y-122554000D01*
X291441129Y-124334000D02*
X291838200Y-124334000D01*
X291441129Y-125094000D02*
X291838200Y-125094000D01*
X291441129Y-126874000D02*
X291838200Y-126874000D01*
X291441129Y-127634000D02*
X291838200Y-127634000D01*
X291441129Y-129414000D02*
X291838200Y-129414000D01*
X291441129Y-130174000D02*
X291838200Y-130174000D01*
X291441129Y-131954000D02*
X291838200Y-131954000D01*
X291441129Y-132714000D02*
X291838200Y-132714000D01*
X291441129Y-134494000D02*
X291838200Y-134494000D01*
X291441129Y-135254000D02*
X291838200Y-135254000D01*
X291441129Y-137034000D02*
X291838200Y-137034000D01*
X291441129Y-137794000D02*
X291838200Y-137794000D01*
X291441129Y-139574000D02*
X291838200Y-139574000D01*
X291441129Y-140334000D02*
X291838200Y-140334000D01*
X291441129Y-142114000D02*
X291838200Y-142114000D01*
X291441129Y-142874000D02*
X291838200Y-142874000D01*
X291441129Y-144654000D02*
X291838200Y-144654000D01*
X291441129Y-145414000D02*
X291838200Y-145414000D01*
X291441129Y-147194000D02*
X291838200Y-147194000D01*
X291441129Y-147954000D02*
X291838200Y-147954000D01*
X291441129Y-149734000D02*
X291838200Y-149734000D01*
X291441129Y-150494000D02*
X291838200Y-150494000D01*
X291441129Y-152274000D02*
X291838200Y-152274000D01*
X291441129Y-153034000D02*
X291838200Y-153034000D01*
X291441129Y-154814000D02*
X291838200Y-154814000D01*
X291441129Y-155574000D02*
X291838200Y-155574000D01*
X291838200Y-113224000D02*
X291838200Y-156524000D01*
X291838200Y-115824000D02*
X294498200Y-115824000D01*
X291838200Y-118364000D02*
X294498200Y-118364000D01*
X291838200Y-120904000D02*
X294498200Y-120904000D01*
X291838200Y-123444000D02*
X294498200Y-123444000D01*
X291838200Y-125984000D02*
X294498200Y-125984000D01*
X291838200Y-128524000D02*
X294498200Y-128524000D01*
X291838200Y-131064000D02*
X294498200Y-131064000D01*
X291838200Y-133604000D02*
X294498200Y-133604000D01*
X291838200Y-136144000D02*
X294498200Y-136144000D01*
X291838200Y-138684000D02*
X294498200Y-138684000D01*
X291838200Y-141224000D02*
X294498200Y-141224000D01*
X291838200Y-143764000D02*
X294498200Y-143764000D01*
X291838200Y-146304000D02*
X294498200Y-146304000D01*
X291838200Y-148844000D02*
X294498200Y-148844000D01*
X291838200Y-151384000D02*
X294498200Y-151384000D01*
X291838200Y-153924000D02*
X294498200Y-153924000D01*
X291838200Y-156524000D02*
X294498200Y-156524000D01*
X294498200Y-113224000D02*
X291838200Y-113224000D01*
X294498200Y-114174000D02*
X300498200Y-114174000D01*
X294498200Y-114234000D02*
X300498200Y-114234000D01*
X294498200Y-114354000D02*
X300498200Y-114354000D01*
X294498200Y-114474000D02*
X300498200Y-114474000D01*
X294498200Y-114594000D02*
X300498200Y-114594000D01*
X294498200Y-114714000D02*
X300498200Y-114714000D01*
X294498200Y-114834000D02*
X300498200Y-114834000D01*
X294498200Y-116714000D02*
X300498200Y-116714000D01*
X294498200Y-119254000D02*
X300498200Y-119254000D01*
X294498200Y-121794000D02*
X300498200Y-121794000D01*
X294498200Y-124334000D02*
X300498200Y-124334000D01*
X294498200Y-126874000D02*
X300498200Y-126874000D01*
X294498200Y-129414000D02*
X300498200Y-129414000D01*
X294498200Y-131954000D02*
X300498200Y-131954000D01*
X294498200Y-134494000D02*
X300498200Y-134494000D01*
X294498200Y-137034000D02*
X300498200Y-137034000D01*
X294498200Y-139574000D02*
X300498200Y-139574000D01*
X294498200Y-142114000D02*
X300498200Y-142114000D01*
X294498200Y-144654000D02*
X300498200Y-144654000D01*
X294498200Y-147194000D02*
X300498200Y-147194000D01*
X294498200Y-149734000D02*
X300498200Y-149734000D01*
X294498200Y-152274000D02*
X300498200Y-152274000D01*
X294498200Y-154814000D02*
X300498200Y-154814000D01*
X294498200Y-156524000D02*
X294498200Y-113224000D01*
X300498200Y-114174000D02*
X300498200Y-114934000D01*
X300498200Y-114934000D02*
X294498200Y-114934000D01*
X300498200Y-116714000D02*
X300498200Y-117474000D01*
X300498200Y-117474000D02*
X294498200Y-117474000D01*
X300498200Y-119254000D02*
X300498200Y-120014000D01*
X300498200Y-120014000D02*
X294498200Y-120014000D01*
X300498200Y-121794000D02*
X300498200Y-122554000D01*
X300498200Y-122554000D02*
X294498200Y-122554000D01*
X300498200Y-124334000D02*
X300498200Y-125094000D01*
X300498200Y-125094000D02*
X294498200Y-125094000D01*
X300498200Y-126874000D02*
X300498200Y-127634000D01*
X300498200Y-127634000D02*
X294498200Y-127634000D01*
X300498200Y-129414000D02*
X300498200Y-130174000D01*
X300498200Y-130174000D02*
X294498200Y-130174000D01*
X300498200Y-131954000D02*
X300498200Y-132714000D01*
X300498200Y-132714000D02*
X294498200Y-132714000D01*
X300498200Y-134494000D02*
X300498200Y-135254000D01*
X300498200Y-135254000D02*
X294498200Y-135254000D01*
X300498200Y-137034000D02*
X300498200Y-137794000D01*
X300498200Y-137794000D02*
X294498200Y-137794000D01*
X300498200Y-139574000D02*
X300498200Y-140334000D01*
X300498200Y-140334000D02*
X294498200Y-140334000D01*
X300498200Y-142114000D02*
X300498200Y-142874000D01*
X300498200Y-142874000D02*
X294498200Y-142874000D01*
X300498200Y-144654000D02*
X300498200Y-145414000D01*
X300498200Y-145414000D02*
X294498200Y-145414000D01*
X300498200Y-147194000D02*
X300498200Y-147954000D01*
X300498200Y-147954000D02*
X294498200Y-147954000D01*
X300498200Y-149734000D02*
X300498200Y-150494000D01*
X300498200Y-150494000D02*
X294498200Y-150494000D01*
X300498200Y-152274000D02*
X300498200Y-153034000D01*
X300498200Y-153034000D02*
X294498200Y-153034000D01*
X300498200Y-154814000D02*
X300498200Y-155574000D01*
X300498200Y-155574000D02*
X294498200Y-155574000D01*
%TD*%
M02*
