M48
; DRILL file {KiCad 7.0.7} date Wed Oct 25 17:14:36 2023
; FORMAT={-:-/ absolute / inch / decimal}
; #@! TF.CreationDate,2023-10-25T17:14:36+09:00
; #@! TF.GenerationSoftware,Kicad,Pcbnew,7.0.7
; #@! TF.FileFunction,Plated,1,2,PTH
FMAT,2
INCH
; #@! TA.AperFunction,Plated,PTH,ComponentDrill
T1C0.0315
; #@! TA.AperFunction,Plated,PTH,ComponentDrill
T2C0.0394
; #@! TA.AperFunction,Plated,PTH,ComponentDrill
T3C0.0433
%
G90
G05
T1
X5.42Y-6.326
X5.42Y-6.726
X5.6553Y-5.769
X5.667Y-6.326
X5.667Y-6.726
X5.734Y-5.769
X5.94Y-6.318
X5.94Y-6.718
X6.185Y-6.316
X6.185Y-6.716
X6.5699Y-4.927
X6.5803Y-5.782
X6.601Y-6.977
X6.601Y-7.377
X6.605Y-6.375
X6.605Y-6.775
X6.6486Y-4.927
X6.659Y-5.782
X6.859Y-6.638
X7.259Y-6.638
X7.519Y-6.244
X7.519Y-6.644
X7.8598Y-4.9212
X7.8648Y-5.1762
X8.2598Y-4.9212
X8.2648Y-5.1762
X8.487Y-4.922
X8.487Y-5.022
X8.487Y-5.122
X8.487Y-5.222
X8.487Y-5.322
X8.487Y-5.422
X8.487Y-5.522
X8.5944Y-5.7772
X8.6928Y-5.7772
X8.787Y-4.922
X8.787Y-5.022
X8.787Y-5.122
X8.787Y-5.222
X8.787Y-5.322
X8.787Y-5.422
X8.787Y-5.522
X9.1158Y-5.4212
X9.5158Y-5.4212
T2
X5.4316Y-8.661
X5.5316Y-8.661
X5.6316Y-8.661
X5.971Y-8.661
X6.071Y-8.661
X6.171Y-8.661
X11.333Y-4.51
X11.333Y-4.61
X11.333Y-4.71
X11.333Y-4.81
X11.333Y-4.91
X11.333Y-5.01
X11.333Y-5.11
X11.333Y-5.21
X11.333Y-5.31
X11.333Y-5.41
X11.333Y-5.51
X11.333Y-5.61
X11.333Y-5.71
X11.333Y-5.81
X11.333Y-5.91
X11.333Y-6.01
X11.333Y-6.11
X11.433Y-4.51
X11.433Y-4.61
X11.433Y-4.71
X11.433Y-4.81
X11.433Y-4.91
X11.433Y-5.01
X11.433Y-5.11
X11.433Y-5.21
X11.433Y-5.31
X11.433Y-5.41
X11.433Y-5.51
X11.433Y-5.61
X11.433Y-5.71
X11.433Y-5.81
X11.433Y-5.91
X11.433Y-6.01
X11.433Y-6.11
T3
X6.606Y-8.4944
X6.606Y-8.6716
X6.862Y-8.4944
X6.862Y-8.6716
X7.245Y-8.4954
X7.245Y-8.6726
X7.501Y-8.4954
X7.501Y-8.6726
T2
G00X4.294Y-6.6656
M15
G01X4.294Y-6.7444
M16
G05
G00X4.3727Y-6.89
M15
G01X4.4515Y-6.89
M16
G05
G00X4.5302Y-6.6656
M15
G01X4.5302Y-6.7444
M16
G05
T0
M30
