%TF.GenerationSoftware,KiCad,Pcbnew,7.0.7*%
%TF.CreationDate,2023-10-25T17:18:37+09:00*%
%TF.ProjectId,changer,6368616e-6765-4722-9e6b-696361645f70,rev?*%
%TF.SameCoordinates,Original*%
%TF.FileFunction,Soldermask,Top*%
%TF.FilePolarity,Negative*%
%FSLAX46Y46*%
G04 Gerber Fmt 4.6, Leading zero omitted, Abs format (unit mm)*
G04 Created by KiCad (PCBNEW 7.0.7) date 2023-10-25 17:18:37*
%MOMM*%
%LPD*%
G01*
G04 APERTURE LIST*
%ADD10C,3.200000*%
%ADD11R,1.700000X1.700000*%
%ADD12O,1.700000X1.700000*%
G04 APERTURE END LIST*
D10*
%TO.C,H4*%
X293649400Y-293624000D03*
%TD*%
D11*
%TO.C,J1*%
X128701800Y-127406400D03*
D12*
X131241800Y-127406400D03*
X128701800Y-129946400D03*
X131241800Y-129946400D03*
X128701800Y-132486400D03*
X131241800Y-132486400D03*
X128701800Y-135026400D03*
X131241800Y-135026400D03*
X128701800Y-137566400D03*
X131241800Y-137566400D03*
X128701800Y-140106400D03*
X131241800Y-140106400D03*
X128701800Y-142646400D03*
X131241800Y-142646400D03*
X128701800Y-145186400D03*
X131241800Y-145186400D03*
X128701800Y-147726400D03*
X131241800Y-147726400D03*
X128701800Y-150266400D03*
X131241800Y-150266400D03*
X128701800Y-152806400D03*
X131241800Y-152806400D03*
X128701800Y-155346400D03*
X131241800Y-155346400D03*
X128701800Y-157886400D03*
X131241800Y-157886400D03*
X128701800Y-160426400D03*
X131241800Y-160426400D03*
X128701800Y-162966400D03*
X131241800Y-162966400D03*
X128701800Y-165506400D03*
X131241800Y-165506400D03*
X128701800Y-168046400D03*
X131241800Y-168046400D03*
%TD*%
D11*
%TO.C,J11*%
X260328200Y-127431800D03*
D12*
X262868200Y-127431800D03*
X260328200Y-129971800D03*
X262868200Y-129971800D03*
X260328200Y-132511800D03*
X262868200Y-132511800D03*
X260328200Y-135051800D03*
X262868200Y-135051800D03*
X260328200Y-137591800D03*
X262868200Y-137591800D03*
X260328200Y-140131800D03*
X262868200Y-140131800D03*
X260328200Y-142671800D03*
X262868200Y-142671800D03*
X260328200Y-145211800D03*
X262868200Y-145211800D03*
X260328200Y-147751800D03*
X262868200Y-147751800D03*
X260328200Y-150291800D03*
X262868200Y-150291800D03*
X260328200Y-152831800D03*
X262868200Y-152831800D03*
X260328200Y-155371800D03*
X262868200Y-155371800D03*
X260328200Y-157911800D03*
X262868200Y-157911800D03*
X260328200Y-160451800D03*
X262868200Y-160451800D03*
X260328200Y-162991800D03*
X262868200Y-162991800D03*
X260328200Y-165531800D03*
X262868200Y-165531800D03*
X260328200Y-168071800D03*
X262868200Y-168071800D03*
%TD*%
D11*
%TO.C,J3*%
X128574800Y-179832000D03*
D12*
X131114800Y-179832000D03*
X128574800Y-182372000D03*
X131114800Y-182372000D03*
X128574800Y-184912000D03*
X131114800Y-184912000D03*
X128574800Y-187452000D03*
X131114800Y-187452000D03*
X128574800Y-189992000D03*
X131114800Y-189992000D03*
X128574800Y-192532000D03*
X131114800Y-192532000D03*
X128574800Y-195072000D03*
X131114800Y-195072000D03*
X128574800Y-197612000D03*
X131114800Y-197612000D03*
X128574800Y-200152000D03*
X131114800Y-200152000D03*
X128574800Y-202692000D03*
X131114800Y-202692000D03*
X128574800Y-205232000D03*
X131114800Y-205232000D03*
X128574800Y-207772000D03*
X131114800Y-207772000D03*
X128574800Y-210312000D03*
X131114800Y-210312000D03*
X128574800Y-212852000D03*
X131114800Y-212852000D03*
X128574800Y-215392000D03*
X131114800Y-215392000D03*
X128574800Y-217932000D03*
X131114800Y-217932000D03*
X128574800Y-220472000D03*
X131114800Y-220472000D03*
%TD*%
D11*
%TO.C,J7*%
X159385000Y-179984400D03*
D12*
X161925000Y-179984400D03*
X159385000Y-182524400D03*
X161925000Y-182524400D03*
X159385000Y-185064400D03*
X161925000Y-185064400D03*
X159385000Y-187604400D03*
X161925000Y-187604400D03*
X159385000Y-190144400D03*
X161925000Y-190144400D03*
X159385000Y-192684400D03*
X161925000Y-192684400D03*
X159385000Y-195224400D03*
X161925000Y-195224400D03*
X159385000Y-197764400D03*
X161925000Y-197764400D03*
X159385000Y-200304400D03*
X161925000Y-200304400D03*
X159385000Y-202844400D03*
X161925000Y-202844400D03*
X159385000Y-205384400D03*
X161925000Y-205384400D03*
X159385000Y-207924400D03*
X161925000Y-207924400D03*
X159385000Y-210464400D03*
X161925000Y-210464400D03*
X159385000Y-213004400D03*
X161925000Y-213004400D03*
X159385000Y-215544400D03*
X161925000Y-215544400D03*
X159385000Y-218084400D03*
X161925000Y-218084400D03*
X159385000Y-220624400D03*
X161925000Y-220624400D03*
%TD*%
D11*
%TO.C,J8*%
X159283400Y-231190800D03*
D12*
X161823400Y-231190800D03*
X159283400Y-233730800D03*
X161823400Y-233730800D03*
X159283400Y-236270800D03*
X161823400Y-236270800D03*
X159283400Y-238810800D03*
X161823400Y-238810800D03*
X159283400Y-241350800D03*
X161823400Y-241350800D03*
X159283400Y-243890800D03*
X161823400Y-243890800D03*
X159283400Y-246430800D03*
X161823400Y-246430800D03*
X159283400Y-248970800D03*
X161823400Y-248970800D03*
X159283400Y-251510800D03*
X161823400Y-251510800D03*
X159283400Y-254050800D03*
X161823400Y-254050800D03*
X159283400Y-256590800D03*
X161823400Y-256590800D03*
X159283400Y-259130800D03*
X161823400Y-259130800D03*
X159283400Y-261670800D03*
X161823400Y-261670800D03*
X159283400Y-264210800D03*
X161823400Y-264210800D03*
X159283400Y-266750800D03*
X161823400Y-266750800D03*
X159283400Y-269290800D03*
X161823400Y-269290800D03*
X159283400Y-271830800D03*
X161823400Y-271830800D03*
%TD*%
D11*
%TO.C,J2*%
X231524600Y-179781200D03*
D12*
X234064600Y-179781200D03*
X231524600Y-182321200D03*
X234064600Y-182321200D03*
X231524600Y-184861200D03*
X234064600Y-184861200D03*
X231524600Y-187401200D03*
X234064600Y-187401200D03*
X231524600Y-189941200D03*
X234064600Y-189941200D03*
X231524600Y-192481200D03*
X234064600Y-192481200D03*
X231524600Y-195021200D03*
X234064600Y-195021200D03*
X231524600Y-197561200D03*
X234064600Y-197561200D03*
X231524600Y-200101200D03*
X234064600Y-200101200D03*
X231524600Y-202641200D03*
X234064600Y-202641200D03*
X231524600Y-205181200D03*
X234064600Y-205181200D03*
X231524600Y-207721200D03*
X234064600Y-207721200D03*
X231524600Y-210261200D03*
X234064600Y-210261200D03*
X231524600Y-212801200D03*
X234064600Y-212801200D03*
X231524600Y-215341200D03*
X234064600Y-215341200D03*
X231524600Y-217881200D03*
X234064600Y-217881200D03*
X231524600Y-220421200D03*
X234064600Y-220421200D03*
%TD*%
D11*
%TO.C,J6*%
X260324600Y-179781200D03*
D12*
X262864600Y-179781200D03*
X260324600Y-182321200D03*
X262864600Y-182321200D03*
X260324600Y-184861200D03*
X262864600Y-184861200D03*
X260324600Y-187401200D03*
X262864600Y-187401200D03*
X260324600Y-189941200D03*
X262864600Y-189941200D03*
X260324600Y-192481200D03*
X262864600Y-192481200D03*
X260324600Y-195021200D03*
X262864600Y-195021200D03*
X260324600Y-197561200D03*
X262864600Y-197561200D03*
X260324600Y-200101200D03*
X262864600Y-200101200D03*
X260324600Y-202641200D03*
X262864600Y-202641200D03*
X260324600Y-205181200D03*
X262864600Y-205181200D03*
X260324600Y-207721200D03*
X262864600Y-207721200D03*
X260324600Y-210261200D03*
X262864600Y-210261200D03*
X260324600Y-212801200D03*
X262864600Y-212801200D03*
X260324600Y-215341200D03*
X262864600Y-215341200D03*
X260324600Y-217881200D03*
X262864600Y-217881200D03*
X260324600Y-220421200D03*
X262864600Y-220421200D03*
%TD*%
D10*
%TO.C,H3*%
X106349800Y-293624000D03*
%TD*%
D11*
%TO.C,J5*%
X231626200Y-230682800D03*
D12*
X234166200Y-230682800D03*
X231626200Y-233222800D03*
X234166200Y-233222800D03*
X231626200Y-235762800D03*
X234166200Y-235762800D03*
X231626200Y-238302800D03*
X234166200Y-238302800D03*
X231626200Y-240842800D03*
X234166200Y-240842800D03*
X231626200Y-243382800D03*
X234166200Y-243382800D03*
X231626200Y-245922800D03*
X234166200Y-245922800D03*
X231626200Y-248462800D03*
X234166200Y-248462800D03*
X231626200Y-251002800D03*
X234166200Y-251002800D03*
X231626200Y-253542800D03*
X234166200Y-253542800D03*
X231626200Y-256082800D03*
X234166200Y-256082800D03*
X231626200Y-258622800D03*
X234166200Y-258622800D03*
X231626200Y-261162800D03*
X234166200Y-261162800D03*
X231626200Y-263702800D03*
X234166200Y-263702800D03*
X231626200Y-266242800D03*
X234166200Y-266242800D03*
X231626200Y-268782800D03*
X234166200Y-268782800D03*
X231626200Y-271322800D03*
X234166200Y-271322800D03*
%TD*%
D10*
%TO.C,H2*%
X293649400Y-106349800D03*
%TD*%
D11*
%TO.C,J9*%
X260429800Y-230149400D03*
D12*
X262969800Y-230149400D03*
X260429800Y-232689400D03*
X262969800Y-232689400D03*
X260429800Y-235229400D03*
X262969800Y-235229400D03*
X260429800Y-237769400D03*
X262969800Y-237769400D03*
X260429800Y-240309400D03*
X262969800Y-240309400D03*
X260429800Y-242849400D03*
X262969800Y-242849400D03*
X260429800Y-245389400D03*
X262969800Y-245389400D03*
X260429800Y-247929400D03*
X262969800Y-247929400D03*
X260429800Y-250469400D03*
X262969800Y-250469400D03*
X260429800Y-253009400D03*
X262969800Y-253009400D03*
X260429800Y-255549400D03*
X262969800Y-255549400D03*
X260429800Y-258089400D03*
X262969800Y-258089400D03*
X260429800Y-260629400D03*
X262969800Y-260629400D03*
X260429800Y-263169400D03*
X262969800Y-263169400D03*
X260429800Y-265709400D03*
X262969800Y-265709400D03*
X260429800Y-268249400D03*
X262969800Y-268249400D03*
X260429800Y-270789400D03*
X262969800Y-270789400D03*
%TD*%
D11*
%TO.C,J4*%
X128371600Y-230606600D03*
D12*
X130911600Y-230606600D03*
X128371600Y-233146600D03*
X130911600Y-233146600D03*
X128371600Y-235686600D03*
X130911600Y-235686600D03*
X128371600Y-238226600D03*
X130911600Y-238226600D03*
X128371600Y-240766600D03*
X130911600Y-240766600D03*
X128371600Y-243306600D03*
X130911600Y-243306600D03*
X128371600Y-245846600D03*
X130911600Y-245846600D03*
X128371600Y-248386600D03*
X130911600Y-248386600D03*
X128371600Y-250926600D03*
X130911600Y-250926600D03*
X128371600Y-253466600D03*
X130911600Y-253466600D03*
X128371600Y-256006600D03*
X130911600Y-256006600D03*
X128371600Y-258546600D03*
X130911600Y-258546600D03*
X128371600Y-261086600D03*
X130911600Y-261086600D03*
X128371600Y-263626600D03*
X130911600Y-263626600D03*
X128371600Y-266166600D03*
X130911600Y-266166600D03*
X128371600Y-268706600D03*
X130911600Y-268706600D03*
X128371600Y-271246600D03*
X130911600Y-271246600D03*
%TD*%
D11*
%TO.C,J10*%
X159791400Y-127685800D03*
D12*
X162331400Y-127685800D03*
X159791400Y-130225800D03*
X162331400Y-130225800D03*
X159791400Y-132765800D03*
X162331400Y-132765800D03*
X159791400Y-135305800D03*
X162331400Y-135305800D03*
X159791400Y-137845800D03*
X162331400Y-137845800D03*
X159791400Y-140385800D03*
X162331400Y-140385800D03*
X159791400Y-142925800D03*
X162331400Y-142925800D03*
X159791400Y-145465800D03*
X162331400Y-145465800D03*
X159791400Y-148005800D03*
X162331400Y-148005800D03*
X159791400Y-150545800D03*
X162331400Y-150545800D03*
X159791400Y-153085800D03*
X162331400Y-153085800D03*
X159791400Y-155625800D03*
X162331400Y-155625800D03*
X159791400Y-158165800D03*
X162331400Y-158165800D03*
X159791400Y-160705800D03*
X162331400Y-160705800D03*
X159791400Y-163245800D03*
X162331400Y-163245800D03*
X159791400Y-165785800D03*
X162331400Y-165785800D03*
X159791400Y-168325800D03*
X162331400Y-168325800D03*
%TD*%
D10*
%TO.C,H1*%
X106349800Y-106349800D03*
%TD*%
M02*
