%TF.GenerationSoftware,KiCad,Pcbnew,7.0.7*%
%TF.CreationDate,2023-10-25T17:18:37+09:00*%
%TF.ProjectId,changer,6368616e-6765-4722-9e6b-696361645f70,rev?*%
%TF.SameCoordinates,Original*%
%TF.FileFunction,Legend,Top*%
%TF.FilePolarity,Positive*%
%FSLAX46Y46*%
G04 Gerber Fmt 4.6, Leading zero omitted, Abs format (unit mm)*
G04 Created by KiCad (PCBNEW 7.0.7) date 2023-10-25 17:18:37*
%MOMM*%
%LPD*%
G01*
G04 APERTURE LIST*
%ADD10C,0.150000*%
%ADD11C,0.120000*%
G04 APERTURE END LIST*
D10*
X292887495Y-289878819D02*
X292887495Y-288878819D01*
X292887495Y-289355009D02*
X293458923Y-289355009D01*
X293458923Y-289878819D02*
X293458923Y-288878819D01*
X294363685Y-289212152D02*
X294363685Y-289878819D01*
X294125590Y-288831200D02*
X293887495Y-289545485D01*
X293887495Y-289545485D02*
X294506542Y-289545485D01*
X129638466Y-124531219D02*
X129638466Y-125245504D01*
X129638466Y-125245504D02*
X129590847Y-125388361D01*
X129590847Y-125388361D02*
X129495609Y-125483600D01*
X129495609Y-125483600D02*
X129352752Y-125531219D01*
X129352752Y-125531219D02*
X129257514Y-125531219D01*
X130638466Y-125531219D02*
X130067038Y-125531219D01*
X130352752Y-125531219D02*
X130352752Y-124531219D01*
X130352752Y-124531219D02*
X130257514Y-124674076D01*
X130257514Y-124674076D02*
X130162276Y-124769314D01*
X130162276Y-124769314D02*
X130067038Y-124816933D01*
X127590847Y-170735980D02*
X127543228Y-170783600D01*
X127543228Y-170783600D02*
X127400371Y-170831219D01*
X127400371Y-170831219D02*
X127305133Y-170831219D01*
X127305133Y-170831219D02*
X127162276Y-170783600D01*
X127162276Y-170783600D02*
X127067038Y-170688361D01*
X127067038Y-170688361D02*
X127019419Y-170593123D01*
X127019419Y-170593123D02*
X126971800Y-170402647D01*
X126971800Y-170402647D02*
X126971800Y-170259790D01*
X126971800Y-170259790D02*
X127019419Y-170069314D01*
X127019419Y-170069314D02*
X127067038Y-169974076D01*
X127067038Y-169974076D02*
X127162276Y-169878838D01*
X127162276Y-169878838D02*
X127305133Y-169831219D01*
X127305133Y-169831219D02*
X127400371Y-169831219D01*
X127400371Y-169831219D02*
X127543228Y-169878838D01*
X127543228Y-169878838D02*
X127590847Y-169926457D01*
X128495609Y-170831219D02*
X128019419Y-170831219D01*
X128019419Y-170831219D02*
X128019419Y-169831219D01*
X128828943Y-170831219D02*
X128828943Y-169831219D01*
X129400371Y-170831219D02*
X128971800Y-170259790D01*
X129400371Y-169831219D02*
X128828943Y-170402647D01*
X129590848Y-170926457D02*
X130352752Y-170926457D01*
X131162276Y-170735980D02*
X131114657Y-170783600D01*
X131114657Y-170783600D02*
X130971800Y-170831219D01*
X130971800Y-170831219D02*
X130876562Y-170831219D01*
X130876562Y-170831219D02*
X130733705Y-170783600D01*
X130733705Y-170783600D02*
X130638467Y-170688361D01*
X130638467Y-170688361D02*
X130590848Y-170593123D01*
X130590848Y-170593123D02*
X130543229Y-170402647D01*
X130543229Y-170402647D02*
X130543229Y-170259790D01*
X130543229Y-170259790D02*
X130590848Y-170069314D01*
X130590848Y-170069314D02*
X130638467Y-169974076D01*
X130638467Y-169974076D02*
X130733705Y-169878838D01*
X130733705Y-169878838D02*
X130876562Y-169831219D01*
X130876562Y-169831219D02*
X130971800Y-169831219D01*
X130971800Y-169831219D02*
X131114657Y-169878838D01*
X131114657Y-169878838D02*
X131162276Y-169926457D01*
X132067038Y-170831219D02*
X131590848Y-170831219D01*
X131590848Y-170831219D02*
X131590848Y-169831219D01*
X132971800Y-170831219D02*
X132638467Y-170355028D01*
X132400372Y-170831219D02*
X132400372Y-169831219D01*
X132400372Y-169831219D02*
X132781324Y-169831219D01*
X132781324Y-169831219D02*
X132876562Y-169878838D01*
X132876562Y-169878838D02*
X132924181Y-169926457D01*
X132924181Y-169926457D02*
X132971800Y-170021695D01*
X132971800Y-170021695D02*
X132971800Y-170164552D01*
X132971800Y-170164552D02*
X132924181Y-170259790D01*
X132924181Y-170259790D02*
X132876562Y-170307409D01*
X132876562Y-170307409D02*
X132781324Y-170355028D01*
X132781324Y-170355028D02*
X132400372Y-170355028D01*
X260788676Y-124556619D02*
X260788676Y-125270904D01*
X260788676Y-125270904D02*
X260741057Y-125413761D01*
X260741057Y-125413761D02*
X260645819Y-125509000D01*
X260645819Y-125509000D02*
X260502962Y-125556619D01*
X260502962Y-125556619D02*
X260407724Y-125556619D01*
X261788676Y-125556619D02*
X261217248Y-125556619D01*
X261502962Y-125556619D02*
X261502962Y-124556619D01*
X261502962Y-124556619D02*
X261407724Y-124699476D01*
X261407724Y-124699476D02*
X261312486Y-124794714D01*
X261312486Y-124794714D02*
X261217248Y-124842333D01*
X262741057Y-125556619D02*
X262169629Y-125556619D01*
X262455343Y-125556619D02*
X262455343Y-124556619D01*
X262455343Y-124556619D02*
X262360105Y-124699476D01*
X262360105Y-124699476D02*
X262264867Y-124794714D01*
X262264867Y-124794714D02*
X262169629Y-124842333D01*
X259288676Y-170856619D02*
X259288676Y-169856619D01*
X259288676Y-169856619D02*
X259526771Y-169856619D01*
X259526771Y-169856619D02*
X259669628Y-169904238D01*
X259669628Y-169904238D02*
X259764866Y-169999476D01*
X259764866Y-169999476D02*
X259812485Y-170094714D01*
X259812485Y-170094714D02*
X259860104Y-170285190D01*
X259860104Y-170285190D02*
X259860104Y-170428047D01*
X259860104Y-170428047D02*
X259812485Y-170618523D01*
X259812485Y-170618523D02*
X259764866Y-170713761D01*
X259764866Y-170713761D02*
X259669628Y-170809000D01*
X259669628Y-170809000D02*
X259526771Y-170856619D01*
X259526771Y-170856619D02*
X259288676Y-170856619D01*
X260669628Y-170809000D02*
X260574390Y-170856619D01*
X260574390Y-170856619D02*
X260383914Y-170856619D01*
X260383914Y-170856619D02*
X260288676Y-170809000D01*
X260288676Y-170809000D02*
X260241057Y-170713761D01*
X260241057Y-170713761D02*
X260241057Y-170332809D01*
X260241057Y-170332809D02*
X260288676Y-170237571D01*
X260288676Y-170237571D02*
X260383914Y-170189952D01*
X260383914Y-170189952D02*
X260574390Y-170189952D01*
X260574390Y-170189952D02*
X260669628Y-170237571D01*
X260669628Y-170237571D02*
X260717247Y-170332809D01*
X260717247Y-170332809D02*
X260717247Y-170428047D01*
X260717247Y-170428047D02*
X260241057Y-170523285D01*
X261574390Y-170809000D02*
X261479152Y-170856619D01*
X261479152Y-170856619D02*
X261288676Y-170856619D01*
X261288676Y-170856619D02*
X261193438Y-170809000D01*
X261193438Y-170809000D02*
X261145819Y-170761380D01*
X261145819Y-170761380D02*
X261098200Y-170666142D01*
X261098200Y-170666142D02*
X261098200Y-170380428D01*
X261098200Y-170380428D02*
X261145819Y-170285190D01*
X261145819Y-170285190D02*
X261193438Y-170237571D01*
X261193438Y-170237571D02*
X261288676Y-170189952D01*
X261288676Y-170189952D02*
X261479152Y-170189952D01*
X261479152Y-170189952D02*
X261574390Y-170237571D01*
X262145819Y-170856619D02*
X262050581Y-170809000D01*
X262050581Y-170809000D02*
X262002962Y-170761380D01*
X262002962Y-170761380D02*
X261955343Y-170666142D01*
X261955343Y-170666142D02*
X261955343Y-170380428D01*
X261955343Y-170380428D02*
X262002962Y-170285190D01*
X262002962Y-170285190D02*
X262050581Y-170237571D01*
X262050581Y-170237571D02*
X262145819Y-170189952D01*
X262145819Y-170189952D02*
X262288676Y-170189952D01*
X262288676Y-170189952D02*
X262383914Y-170237571D01*
X262383914Y-170237571D02*
X262431533Y-170285190D01*
X262431533Y-170285190D02*
X262479152Y-170380428D01*
X262479152Y-170380428D02*
X262479152Y-170666142D01*
X262479152Y-170666142D02*
X262431533Y-170761380D01*
X262431533Y-170761380D02*
X262383914Y-170809000D01*
X262383914Y-170809000D02*
X262288676Y-170856619D01*
X262288676Y-170856619D02*
X262145819Y-170856619D01*
X263336295Y-170189952D02*
X263336295Y-170856619D01*
X262907724Y-170189952D02*
X262907724Y-170713761D01*
X262907724Y-170713761D02*
X262955343Y-170809000D01*
X262955343Y-170809000D02*
X263050581Y-170856619D01*
X263050581Y-170856619D02*
X263193438Y-170856619D01*
X263193438Y-170856619D02*
X263288676Y-170809000D01*
X263288676Y-170809000D02*
X263336295Y-170761380D01*
X263669629Y-170189952D02*
X264050581Y-170189952D01*
X263812486Y-169856619D02*
X263812486Y-170713761D01*
X263812486Y-170713761D02*
X263860105Y-170809000D01*
X263860105Y-170809000D02*
X263955343Y-170856619D01*
X263955343Y-170856619D02*
X264050581Y-170856619D01*
X129511466Y-176956819D02*
X129511466Y-177671104D01*
X129511466Y-177671104D02*
X129463847Y-177813961D01*
X129463847Y-177813961D02*
X129368609Y-177909200D01*
X129368609Y-177909200D02*
X129225752Y-177956819D01*
X129225752Y-177956819D02*
X129130514Y-177956819D01*
X129892419Y-176956819D02*
X130511466Y-176956819D01*
X130511466Y-176956819D02*
X130178133Y-177337771D01*
X130178133Y-177337771D02*
X130320990Y-177337771D01*
X130320990Y-177337771D02*
X130416228Y-177385390D01*
X130416228Y-177385390D02*
X130463847Y-177433009D01*
X130463847Y-177433009D02*
X130511466Y-177528247D01*
X130511466Y-177528247D02*
X130511466Y-177766342D01*
X130511466Y-177766342D02*
X130463847Y-177861580D01*
X130463847Y-177861580D02*
X130416228Y-177909200D01*
X130416228Y-177909200D02*
X130320990Y-177956819D01*
X130320990Y-177956819D02*
X130035276Y-177956819D01*
X130035276Y-177956819D02*
X129940038Y-177909200D01*
X129940038Y-177909200D02*
X129892419Y-177861580D01*
X127987657Y-222971104D02*
X128463847Y-222971104D01*
X127892419Y-223256819D02*
X128225752Y-222256819D01*
X128225752Y-222256819D02*
X128559085Y-223256819D01*
X129368609Y-223256819D02*
X128892419Y-223256819D01*
X128892419Y-223256819D02*
X128892419Y-222256819D01*
X129701943Y-222256819D02*
X129701943Y-223066342D01*
X129701943Y-223066342D02*
X129749562Y-223161580D01*
X129749562Y-223161580D02*
X129797181Y-223209200D01*
X129797181Y-223209200D02*
X129892419Y-223256819D01*
X129892419Y-223256819D02*
X130082895Y-223256819D01*
X130082895Y-223256819D02*
X130178133Y-223209200D01*
X130178133Y-223209200D02*
X130225752Y-223161580D01*
X130225752Y-223161580D02*
X130273371Y-223066342D01*
X130273371Y-223066342D02*
X130273371Y-222256819D01*
X130749562Y-223256819D02*
X130749562Y-222590152D01*
X130749562Y-222256819D02*
X130701943Y-222304438D01*
X130701943Y-222304438D02*
X130749562Y-222352057D01*
X130749562Y-222352057D02*
X130797181Y-222304438D01*
X130797181Y-222304438D02*
X130749562Y-222256819D01*
X130749562Y-222256819D02*
X130749562Y-222352057D01*
X131225752Y-222590152D02*
X131225752Y-223256819D01*
X131225752Y-222685390D02*
X131273371Y-222637771D01*
X131273371Y-222637771D02*
X131368609Y-222590152D01*
X131368609Y-222590152D02*
X131511466Y-222590152D01*
X131511466Y-222590152D02*
X131606704Y-222637771D01*
X131606704Y-222637771D02*
X131654323Y-222733009D01*
X131654323Y-222733009D02*
X131654323Y-223256819D01*
X160321666Y-177109219D02*
X160321666Y-177823504D01*
X160321666Y-177823504D02*
X160274047Y-177966361D01*
X160274047Y-177966361D02*
X160178809Y-178061600D01*
X160178809Y-178061600D02*
X160035952Y-178109219D01*
X160035952Y-178109219D02*
X159940714Y-178109219D01*
X160702619Y-177109219D02*
X161369285Y-177109219D01*
X161369285Y-177109219D02*
X160940714Y-178109219D01*
X158702619Y-223409219D02*
X158369286Y-222933028D01*
X158131191Y-223409219D02*
X158131191Y-222409219D01*
X158131191Y-222409219D02*
X158512143Y-222409219D01*
X158512143Y-222409219D02*
X158607381Y-222456838D01*
X158607381Y-222456838D02*
X158655000Y-222504457D01*
X158655000Y-222504457D02*
X158702619Y-222599695D01*
X158702619Y-222599695D02*
X158702619Y-222742552D01*
X158702619Y-222742552D02*
X158655000Y-222837790D01*
X158655000Y-222837790D02*
X158607381Y-222885409D01*
X158607381Y-222885409D02*
X158512143Y-222933028D01*
X158512143Y-222933028D02*
X158131191Y-222933028D01*
X159321667Y-222409219D02*
X159512143Y-222409219D01*
X159512143Y-222409219D02*
X159607381Y-222456838D01*
X159607381Y-222456838D02*
X159702619Y-222552076D01*
X159702619Y-222552076D02*
X159750238Y-222742552D01*
X159750238Y-222742552D02*
X159750238Y-223075885D01*
X159750238Y-223075885D02*
X159702619Y-223266361D01*
X159702619Y-223266361D02*
X159607381Y-223361600D01*
X159607381Y-223361600D02*
X159512143Y-223409219D01*
X159512143Y-223409219D02*
X159321667Y-223409219D01*
X159321667Y-223409219D02*
X159226429Y-223361600D01*
X159226429Y-223361600D02*
X159131191Y-223266361D01*
X159131191Y-223266361D02*
X159083572Y-223075885D01*
X159083572Y-223075885D02*
X159083572Y-222742552D01*
X159083572Y-222742552D02*
X159131191Y-222552076D01*
X159131191Y-222552076D02*
X159226429Y-222456838D01*
X159226429Y-222456838D02*
X159321667Y-222409219D01*
X160178810Y-223409219D02*
X160178810Y-222409219D01*
X160178810Y-222409219D02*
X160512143Y-223123504D01*
X160512143Y-223123504D02*
X160845476Y-222409219D01*
X160845476Y-222409219D02*
X160845476Y-223409219D01*
X161845476Y-223409219D02*
X161274048Y-223409219D01*
X161559762Y-223409219D02*
X161559762Y-222409219D01*
X161559762Y-222409219D02*
X161464524Y-222552076D01*
X161464524Y-222552076D02*
X161369286Y-222647314D01*
X161369286Y-222647314D02*
X161274048Y-222694933D01*
X162274048Y-223409219D02*
X162274048Y-222742552D01*
X162274048Y-222409219D02*
X162226429Y-222456838D01*
X162226429Y-222456838D02*
X162274048Y-222504457D01*
X162274048Y-222504457D02*
X162321667Y-222456838D01*
X162321667Y-222456838D02*
X162274048Y-222409219D01*
X162274048Y-222409219D02*
X162274048Y-222504457D01*
X162750238Y-222742552D02*
X162750238Y-223409219D01*
X162750238Y-222837790D02*
X162797857Y-222790171D01*
X162797857Y-222790171D02*
X162893095Y-222742552D01*
X162893095Y-222742552D02*
X163035952Y-222742552D01*
X163035952Y-222742552D02*
X163131190Y-222790171D01*
X163131190Y-222790171D02*
X163178809Y-222885409D01*
X163178809Y-222885409D02*
X163178809Y-223409219D01*
X160220066Y-228315619D02*
X160220066Y-229029904D01*
X160220066Y-229029904D02*
X160172447Y-229172761D01*
X160172447Y-229172761D02*
X160077209Y-229268000D01*
X160077209Y-229268000D02*
X159934352Y-229315619D01*
X159934352Y-229315619D02*
X159839114Y-229315619D01*
X160839114Y-228744190D02*
X160743876Y-228696571D01*
X160743876Y-228696571D02*
X160696257Y-228648952D01*
X160696257Y-228648952D02*
X160648638Y-228553714D01*
X160648638Y-228553714D02*
X160648638Y-228506095D01*
X160648638Y-228506095D02*
X160696257Y-228410857D01*
X160696257Y-228410857D02*
X160743876Y-228363238D01*
X160743876Y-228363238D02*
X160839114Y-228315619D01*
X160839114Y-228315619D02*
X161029590Y-228315619D01*
X161029590Y-228315619D02*
X161124828Y-228363238D01*
X161124828Y-228363238D02*
X161172447Y-228410857D01*
X161172447Y-228410857D02*
X161220066Y-228506095D01*
X161220066Y-228506095D02*
X161220066Y-228553714D01*
X161220066Y-228553714D02*
X161172447Y-228648952D01*
X161172447Y-228648952D02*
X161124828Y-228696571D01*
X161124828Y-228696571D02*
X161029590Y-228744190D01*
X161029590Y-228744190D02*
X160839114Y-228744190D01*
X160839114Y-228744190D02*
X160743876Y-228791809D01*
X160743876Y-228791809D02*
X160696257Y-228839428D01*
X160696257Y-228839428D02*
X160648638Y-228934666D01*
X160648638Y-228934666D02*
X160648638Y-229125142D01*
X160648638Y-229125142D02*
X160696257Y-229220380D01*
X160696257Y-229220380D02*
X160743876Y-229268000D01*
X160743876Y-229268000D02*
X160839114Y-229315619D01*
X160839114Y-229315619D02*
X161029590Y-229315619D01*
X161029590Y-229315619D02*
X161124828Y-229268000D01*
X161124828Y-229268000D02*
X161172447Y-229220380D01*
X161172447Y-229220380D02*
X161220066Y-229125142D01*
X161220066Y-229125142D02*
X161220066Y-228934666D01*
X161220066Y-228934666D02*
X161172447Y-228839428D01*
X161172447Y-228839428D02*
X161124828Y-228791809D01*
X161124828Y-228791809D02*
X161029590Y-228744190D01*
X158601019Y-274615619D02*
X158267686Y-274139428D01*
X158029591Y-274615619D02*
X158029591Y-273615619D01*
X158029591Y-273615619D02*
X158410543Y-273615619D01*
X158410543Y-273615619D02*
X158505781Y-273663238D01*
X158505781Y-273663238D02*
X158553400Y-273710857D01*
X158553400Y-273710857D02*
X158601019Y-273806095D01*
X158601019Y-273806095D02*
X158601019Y-273948952D01*
X158601019Y-273948952D02*
X158553400Y-274044190D01*
X158553400Y-274044190D02*
X158505781Y-274091809D01*
X158505781Y-274091809D02*
X158410543Y-274139428D01*
X158410543Y-274139428D02*
X158029591Y-274139428D01*
X159220067Y-273615619D02*
X159410543Y-273615619D01*
X159410543Y-273615619D02*
X159505781Y-273663238D01*
X159505781Y-273663238D02*
X159601019Y-273758476D01*
X159601019Y-273758476D02*
X159648638Y-273948952D01*
X159648638Y-273948952D02*
X159648638Y-274282285D01*
X159648638Y-274282285D02*
X159601019Y-274472761D01*
X159601019Y-274472761D02*
X159505781Y-274568000D01*
X159505781Y-274568000D02*
X159410543Y-274615619D01*
X159410543Y-274615619D02*
X159220067Y-274615619D01*
X159220067Y-274615619D02*
X159124829Y-274568000D01*
X159124829Y-274568000D02*
X159029591Y-274472761D01*
X159029591Y-274472761D02*
X158981972Y-274282285D01*
X158981972Y-274282285D02*
X158981972Y-273948952D01*
X158981972Y-273948952D02*
X159029591Y-273758476D01*
X159029591Y-273758476D02*
X159124829Y-273663238D01*
X159124829Y-273663238D02*
X159220067Y-273615619D01*
X160077210Y-274615619D02*
X160077210Y-273615619D01*
X160077210Y-273615619D02*
X160410543Y-274329904D01*
X160410543Y-274329904D02*
X160743876Y-273615619D01*
X160743876Y-273615619D02*
X160743876Y-274615619D01*
X161172448Y-273710857D02*
X161220067Y-273663238D01*
X161220067Y-273663238D02*
X161315305Y-273615619D01*
X161315305Y-273615619D02*
X161553400Y-273615619D01*
X161553400Y-273615619D02*
X161648638Y-273663238D01*
X161648638Y-273663238D02*
X161696257Y-273710857D01*
X161696257Y-273710857D02*
X161743876Y-273806095D01*
X161743876Y-273806095D02*
X161743876Y-273901333D01*
X161743876Y-273901333D02*
X161696257Y-274044190D01*
X161696257Y-274044190D02*
X161124829Y-274615619D01*
X161124829Y-274615619D02*
X161743876Y-274615619D01*
X162172448Y-274615619D02*
X162172448Y-273948952D01*
X162172448Y-273615619D02*
X162124829Y-273663238D01*
X162124829Y-273663238D02*
X162172448Y-273710857D01*
X162172448Y-273710857D02*
X162220067Y-273663238D01*
X162220067Y-273663238D02*
X162172448Y-273615619D01*
X162172448Y-273615619D02*
X162172448Y-273710857D01*
X162648638Y-273948952D02*
X162648638Y-274615619D01*
X162648638Y-274044190D02*
X162696257Y-273996571D01*
X162696257Y-273996571D02*
X162791495Y-273948952D01*
X162791495Y-273948952D02*
X162934352Y-273948952D01*
X162934352Y-273948952D02*
X163029590Y-273996571D01*
X163029590Y-273996571D02*
X163077209Y-274091809D01*
X163077209Y-274091809D02*
X163077209Y-274615619D01*
X232461266Y-176906019D02*
X232461266Y-177620304D01*
X232461266Y-177620304D02*
X232413647Y-177763161D01*
X232413647Y-177763161D02*
X232318409Y-177858400D01*
X232318409Y-177858400D02*
X232175552Y-177906019D01*
X232175552Y-177906019D02*
X232080314Y-177906019D01*
X232889838Y-177001257D02*
X232937457Y-176953638D01*
X232937457Y-176953638D02*
X233032695Y-176906019D01*
X233032695Y-176906019D02*
X233270790Y-176906019D01*
X233270790Y-176906019D02*
X233366028Y-176953638D01*
X233366028Y-176953638D02*
X233413647Y-177001257D01*
X233413647Y-177001257D02*
X233461266Y-177096495D01*
X233461266Y-177096495D02*
X233461266Y-177191733D01*
X233461266Y-177191733D02*
X233413647Y-177334590D01*
X233413647Y-177334590D02*
X232842219Y-177906019D01*
X232842219Y-177906019D02*
X233461266Y-177906019D01*
X230437457Y-222920304D02*
X230913647Y-222920304D01*
X230342219Y-223206019D02*
X230675552Y-222206019D01*
X230675552Y-222206019D02*
X231008885Y-223206019D01*
X231818409Y-223206019D02*
X231342219Y-223206019D01*
X231342219Y-223206019D02*
X231342219Y-222206019D01*
X232151743Y-222206019D02*
X232151743Y-223015542D01*
X232151743Y-223015542D02*
X232199362Y-223110780D01*
X232199362Y-223110780D02*
X232246981Y-223158400D01*
X232246981Y-223158400D02*
X232342219Y-223206019D01*
X232342219Y-223206019D02*
X232532695Y-223206019D01*
X232532695Y-223206019D02*
X232627933Y-223158400D01*
X232627933Y-223158400D02*
X232675552Y-223110780D01*
X232675552Y-223110780D02*
X232723171Y-223015542D01*
X232723171Y-223015542D02*
X232723171Y-222206019D01*
X233342219Y-223206019D02*
X233246981Y-223158400D01*
X233246981Y-223158400D02*
X233199362Y-223110780D01*
X233199362Y-223110780D02*
X233151743Y-223015542D01*
X233151743Y-223015542D02*
X233151743Y-222729828D01*
X233151743Y-222729828D02*
X233199362Y-222634590D01*
X233199362Y-222634590D02*
X233246981Y-222586971D01*
X233246981Y-222586971D02*
X233342219Y-222539352D01*
X233342219Y-222539352D02*
X233485076Y-222539352D01*
X233485076Y-222539352D02*
X233580314Y-222586971D01*
X233580314Y-222586971D02*
X233627933Y-222634590D01*
X233627933Y-222634590D02*
X233675552Y-222729828D01*
X233675552Y-222729828D02*
X233675552Y-223015542D01*
X233675552Y-223015542D02*
X233627933Y-223110780D01*
X233627933Y-223110780D02*
X233580314Y-223158400D01*
X233580314Y-223158400D02*
X233485076Y-223206019D01*
X233485076Y-223206019D02*
X233342219Y-223206019D01*
X234532695Y-222539352D02*
X234532695Y-223206019D01*
X234104124Y-222539352D02*
X234104124Y-223063161D01*
X234104124Y-223063161D02*
X234151743Y-223158400D01*
X234151743Y-223158400D02*
X234246981Y-223206019D01*
X234246981Y-223206019D02*
X234389838Y-223206019D01*
X234389838Y-223206019D02*
X234485076Y-223158400D01*
X234485076Y-223158400D02*
X234532695Y-223110780D01*
X234866029Y-222539352D02*
X235246981Y-222539352D01*
X235008886Y-222206019D02*
X235008886Y-223063161D01*
X235008886Y-223063161D02*
X235056505Y-223158400D01*
X235056505Y-223158400D02*
X235151743Y-223206019D01*
X235151743Y-223206019D02*
X235246981Y-223206019D01*
X261261266Y-176906019D02*
X261261266Y-177620304D01*
X261261266Y-177620304D02*
X261213647Y-177763161D01*
X261213647Y-177763161D02*
X261118409Y-177858400D01*
X261118409Y-177858400D02*
X260975552Y-177906019D01*
X260975552Y-177906019D02*
X260880314Y-177906019D01*
X262166028Y-176906019D02*
X261975552Y-176906019D01*
X261975552Y-176906019D02*
X261880314Y-176953638D01*
X261880314Y-176953638D02*
X261832695Y-177001257D01*
X261832695Y-177001257D02*
X261737457Y-177144114D01*
X261737457Y-177144114D02*
X261689838Y-177334590D01*
X261689838Y-177334590D02*
X261689838Y-177715542D01*
X261689838Y-177715542D02*
X261737457Y-177810780D01*
X261737457Y-177810780D02*
X261785076Y-177858400D01*
X261785076Y-177858400D02*
X261880314Y-177906019D01*
X261880314Y-177906019D02*
X262070790Y-177906019D01*
X262070790Y-177906019D02*
X262166028Y-177858400D01*
X262166028Y-177858400D02*
X262213647Y-177810780D01*
X262213647Y-177810780D02*
X262261266Y-177715542D01*
X262261266Y-177715542D02*
X262261266Y-177477447D01*
X262261266Y-177477447D02*
X262213647Y-177382209D01*
X262213647Y-177382209D02*
X262166028Y-177334590D01*
X262166028Y-177334590D02*
X262070790Y-177286971D01*
X262070790Y-177286971D02*
X261880314Y-177286971D01*
X261880314Y-177286971D02*
X261785076Y-177334590D01*
X261785076Y-177334590D02*
X261737457Y-177382209D01*
X261737457Y-177382209D02*
X261689838Y-177477447D01*
X259142218Y-223206019D02*
X258808885Y-222729828D01*
X258570790Y-223206019D02*
X258570790Y-222206019D01*
X258570790Y-222206019D02*
X258951742Y-222206019D01*
X258951742Y-222206019D02*
X259046980Y-222253638D01*
X259046980Y-222253638D02*
X259094599Y-222301257D01*
X259094599Y-222301257D02*
X259142218Y-222396495D01*
X259142218Y-222396495D02*
X259142218Y-222539352D01*
X259142218Y-222539352D02*
X259094599Y-222634590D01*
X259094599Y-222634590D02*
X259046980Y-222682209D01*
X259046980Y-222682209D02*
X258951742Y-222729828D01*
X258951742Y-222729828D02*
X258570790Y-222729828D01*
X259761266Y-222206019D02*
X259951742Y-222206019D01*
X259951742Y-222206019D02*
X260046980Y-222253638D01*
X260046980Y-222253638D02*
X260142218Y-222348876D01*
X260142218Y-222348876D02*
X260189837Y-222539352D01*
X260189837Y-222539352D02*
X260189837Y-222872685D01*
X260189837Y-222872685D02*
X260142218Y-223063161D01*
X260142218Y-223063161D02*
X260046980Y-223158400D01*
X260046980Y-223158400D02*
X259951742Y-223206019D01*
X259951742Y-223206019D02*
X259761266Y-223206019D01*
X259761266Y-223206019D02*
X259666028Y-223158400D01*
X259666028Y-223158400D02*
X259570790Y-223063161D01*
X259570790Y-223063161D02*
X259523171Y-222872685D01*
X259523171Y-222872685D02*
X259523171Y-222539352D01*
X259523171Y-222539352D02*
X259570790Y-222348876D01*
X259570790Y-222348876D02*
X259666028Y-222253638D01*
X259666028Y-222253638D02*
X259761266Y-222206019D01*
X260618409Y-223206019D02*
X260618409Y-222206019D01*
X260618409Y-222206019D02*
X260951742Y-222920304D01*
X260951742Y-222920304D02*
X261285075Y-222206019D01*
X261285075Y-222206019D02*
X261285075Y-223206019D01*
X262285075Y-223206019D02*
X261713647Y-223206019D01*
X261999361Y-223206019D02*
X261999361Y-222206019D01*
X261999361Y-222206019D02*
X261904123Y-222348876D01*
X261904123Y-222348876D02*
X261808885Y-222444114D01*
X261808885Y-222444114D02*
X261713647Y-222491733D01*
X262856504Y-223206019D02*
X262761266Y-223158400D01*
X262761266Y-223158400D02*
X262713647Y-223110780D01*
X262713647Y-223110780D02*
X262666028Y-223015542D01*
X262666028Y-223015542D02*
X262666028Y-222729828D01*
X262666028Y-222729828D02*
X262713647Y-222634590D01*
X262713647Y-222634590D02*
X262761266Y-222586971D01*
X262761266Y-222586971D02*
X262856504Y-222539352D01*
X262856504Y-222539352D02*
X262999361Y-222539352D01*
X262999361Y-222539352D02*
X263094599Y-222586971D01*
X263094599Y-222586971D02*
X263142218Y-222634590D01*
X263142218Y-222634590D02*
X263189837Y-222729828D01*
X263189837Y-222729828D02*
X263189837Y-223015542D01*
X263189837Y-223015542D02*
X263142218Y-223110780D01*
X263142218Y-223110780D02*
X263094599Y-223158400D01*
X263094599Y-223158400D02*
X262999361Y-223206019D01*
X262999361Y-223206019D02*
X262856504Y-223206019D01*
X264046980Y-222539352D02*
X264046980Y-223206019D01*
X263618409Y-222539352D02*
X263618409Y-223063161D01*
X263618409Y-223063161D02*
X263666028Y-223158400D01*
X263666028Y-223158400D02*
X263761266Y-223206019D01*
X263761266Y-223206019D02*
X263904123Y-223206019D01*
X263904123Y-223206019D02*
X263999361Y-223158400D01*
X263999361Y-223158400D02*
X264046980Y-223110780D01*
X264380314Y-222539352D02*
X264761266Y-222539352D01*
X264523171Y-222206019D02*
X264523171Y-223063161D01*
X264523171Y-223063161D02*
X264570790Y-223158400D01*
X264570790Y-223158400D02*
X264666028Y-223206019D01*
X264666028Y-223206019D02*
X264761266Y-223206019D01*
X105587895Y-289878819D02*
X105587895Y-288878819D01*
X105587895Y-289355009D02*
X106159323Y-289355009D01*
X106159323Y-289878819D02*
X106159323Y-288878819D01*
X106540276Y-288878819D02*
X107159323Y-288878819D01*
X107159323Y-288878819D02*
X106825990Y-289259771D01*
X106825990Y-289259771D02*
X106968847Y-289259771D01*
X106968847Y-289259771D02*
X107064085Y-289307390D01*
X107064085Y-289307390D02*
X107111704Y-289355009D01*
X107111704Y-289355009D02*
X107159323Y-289450247D01*
X107159323Y-289450247D02*
X107159323Y-289688342D01*
X107159323Y-289688342D02*
X107111704Y-289783580D01*
X107111704Y-289783580D02*
X107064085Y-289831200D01*
X107064085Y-289831200D02*
X106968847Y-289878819D01*
X106968847Y-289878819D02*
X106683133Y-289878819D01*
X106683133Y-289878819D02*
X106587895Y-289831200D01*
X106587895Y-289831200D02*
X106540276Y-289783580D01*
X232562866Y-227807619D02*
X232562866Y-228521904D01*
X232562866Y-228521904D02*
X232515247Y-228664761D01*
X232515247Y-228664761D02*
X232420009Y-228760000D01*
X232420009Y-228760000D02*
X232277152Y-228807619D01*
X232277152Y-228807619D02*
X232181914Y-228807619D01*
X233515247Y-227807619D02*
X233039057Y-227807619D01*
X233039057Y-227807619D02*
X232991438Y-228283809D01*
X232991438Y-228283809D02*
X233039057Y-228236190D01*
X233039057Y-228236190D02*
X233134295Y-228188571D01*
X233134295Y-228188571D02*
X233372390Y-228188571D01*
X233372390Y-228188571D02*
X233467628Y-228236190D01*
X233467628Y-228236190D02*
X233515247Y-228283809D01*
X233515247Y-228283809D02*
X233562866Y-228379047D01*
X233562866Y-228379047D02*
X233562866Y-228617142D01*
X233562866Y-228617142D02*
X233515247Y-228712380D01*
X233515247Y-228712380D02*
X233467628Y-228760000D01*
X233467628Y-228760000D02*
X233372390Y-228807619D01*
X233372390Y-228807619D02*
X233134295Y-228807619D01*
X233134295Y-228807619D02*
X233039057Y-228760000D01*
X233039057Y-228760000D02*
X232991438Y-228712380D01*
X230253342Y-274107619D02*
X230253342Y-273107619D01*
X230253342Y-273107619D02*
X230491437Y-273107619D01*
X230491437Y-273107619D02*
X230634294Y-273155238D01*
X230634294Y-273155238D02*
X230729532Y-273250476D01*
X230729532Y-273250476D02*
X230777151Y-273345714D01*
X230777151Y-273345714D02*
X230824770Y-273536190D01*
X230824770Y-273536190D02*
X230824770Y-273679047D01*
X230824770Y-273679047D02*
X230777151Y-273869523D01*
X230777151Y-273869523D02*
X230729532Y-273964761D01*
X230729532Y-273964761D02*
X230634294Y-274060000D01*
X230634294Y-274060000D02*
X230491437Y-274107619D01*
X230491437Y-274107619D02*
X230253342Y-274107619D01*
X231681913Y-274107619D02*
X231681913Y-273583809D01*
X231681913Y-273583809D02*
X231634294Y-273488571D01*
X231634294Y-273488571D02*
X231539056Y-273440952D01*
X231539056Y-273440952D02*
X231348580Y-273440952D01*
X231348580Y-273440952D02*
X231253342Y-273488571D01*
X231681913Y-274060000D02*
X231586675Y-274107619D01*
X231586675Y-274107619D02*
X231348580Y-274107619D01*
X231348580Y-274107619D02*
X231253342Y-274060000D01*
X231253342Y-274060000D02*
X231205723Y-273964761D01*
X231205723Y-273964761D02*
X231205723Y-273869523D01*
X231205723Y-273869523D02*
X231253342Y-273774285D01*
X231253342Y-273774285D02*
X231348580Y-273726666D01*
X231348580Y-273726666D02*
X231586675Y-273726666D01*
X231586675Y-273726666D02*
X231681913Y-273679047D01*
X232015247Y-273440952D02*
X232396199Y-273440952D01*
X232158104Y-273107619D02*
X232158104Y-273964761D01*
X232158104Y-273964761D02*
X232205723Y-274060000D01*
X232205723Y-274060000D02*
X232300961Y-274107619D01*
X232300961Y-274107619D02*
X232396199Y-274107619D01*
X233158104Y-274107619D02*
X233158104Y-273583809D01*
X233158104Y-273583809D02*
X233110485Y-273488571D01*
X233110485Y-273488571D02*
X233015247Y-273440952D01*
X233015247Y-273440952D02*
X232824771Y-273440952D01*
X232824771Y-273440952D02*
X232729533Y-273488571D01*
X233158104Y-274060000D02*
X233062866Y-274107619D01*
X233062866Y-274107619D02*
X232824771Y-274107619D01*
X232824771Y-274107619D02*
X232729533Y-274060000D01*
X232729533Y-274060000D02*
X232681914Y-273964761D01*
X232681914Y-273964761D02*
X232681914Y-273869523D01*
X232681914Y-273869523D02*
X232729533Y-273774285D01*
X232729533Y-273774285D02*
X232824771Y-273726666D01*
X232824771Y-273726666D02*
X233062866Y-273726666D01*
X233062866Y-273726666D02*
X233158104Y-273679047D01*
X233777152Y-274107619D02*
X233681914Y-274060000D01*
X233681914Y-274060000D02*
X233634295Y-274012380D01*
X233634295Y-274012380D02*
X233586676Y-273917142D01*
X233586676Y-273917142D02*
X233586676Y-273631428D01*
X233586676Y-273631428D02*
X233634295Y-273536190D01*
X233634295Y-273536190D02*
X233681914Y-273488571D01*
X233681914Y-273488571D02*
X233777152Y-273440952D01*
X233777152Y-273440952D02*
X233920009Y-273440952D01*
X233920009Y-273440952D02*
X234015247Y-273488571D01*
X234015247Y-273488571D02*
X234062866Y-273536190D01*
X234062866Y-273536190D02*
X234110485Y-273631428D01*
X234110485Y-273631428D02*
X234110485Y-273917142D01*
X234110485Y-273917142D02*
X234062866Y-274012380D01*
X234062866Y-274012380D02*
X234015247Y-274060000D01*
X234015247Y-274060000D02*
X233920009Y-274107619D01*
X233920009Y-274107619D02*
X233777152Y-274107619D01*
X234967628Y-273440952D02*
X234967628Y-274107619D01*
X234539057Y-273440952D02*
X234539057Y-273964761D01*
X234539057Y-273964761D02*
X234586676Y-274060000D01*
X234586676Y-274060000D02*
X234681914Y-274107619D01*
X234681914Y-274107619D02*
X234824771Y-274107619D01*
X234824771Y-274107619D02*
X234920009Y-274060000D01*
X234920009Y-274060000D02*
X234967628Y-274012380D01*
X235300962Y-273440952D02*
X235681914Y-273440952D01*
X235443819Y-273107619D02*
X235443819Y-273964761D01*
X235443819Y-273964761D02*
X235491438Y-274060000D01*
X235491438Y-274060000D02*
X235586676Y-274107619D01*
X235586676Y-274107619D02*
X235681914Y-274107619D01*
X292887495Y-102604619D02*
X292887495Y-101604619D01*
X292887495Y-102080809D02*
X293458923Y-102080809D01*
X293458923Y-102604619D02*
X293458923Y-101604619D01*
X293887495Y-101699857D02*
X293935114Y-101652238D01*
X293935114Y-101652238D02*
X294030352Y-101604619D01*
X294030352Y-101604619D02*
X294268447Y-101604619D01*
X294268447Y-101604619D02*
X294363685Y-101652238D01*
X294363685Y-101652238D02*
X294411304Y-101699857D01*
X294411304Y-101699857D02*
X294458923Y-101795095D01*
X294458923Y-101795095D02*
X294458923Y-101890333D01*
X294458923Y-101890333D02*
X294411304Y-102033190D01*
X294411304Y-102033190D02*
X293839876Y-102604619D01*
X293839876Y-102604619D02*
X294458923Y-102604619D01*
X261366466Y-227274219D02*
X261366466Y-227988504D01*
X261366466Y-227988504D02*
X261318847Y-228131361D01*
X261318847Y-228131361D02*
X261223609Y-228226600D01*
X261223609Y-228226600D02*
X261080752Y-228274219D01*
X261080752Y-228274219D02*
X260985514Y-228274219D01*
X261890276Y-228274219D02*
X262080752Y-228274219D01*
X262080752Y-228274219D02*
X262175990Y-228226600D01*
X262175990Y-228226600D02*
X262223609Y-228178980D01*
X262223609Y-228178980D02*
X262318847Y-228036123D01*
X262318847Y-228036123D02*
X262366466Y-227845647D01*
X262366466Y-227845647D02*
X262366466Y-227464695D01*
X262366466Y-227464695D02*
X262318847Y-227369457D01*
X262318847Y-227369457D02*
X262271228Y-227321838D01*
X262271228Y-227321838D02*
X262175990Y-227274219D01*
X262175990Y-227274219D02*
X261985514Y-227274219D01*
X261985514Y-227274219D02*
X261890276Y-227321838D01*
X261890276Y-227321838D02*
X261842657Y-227369457D01*
X261842657Y-227369457D02*
X261795038Y-227464695D01*
X261795038Y-227464695D02*
X261795038Y-227702790D01*
X261795038Y-227702790D02*
X261842657Y-227798028D01*
X261842657Y-227798028D02*
X261890276Y-227845647D01*
X261890276Y-227845647D02*
X261985514Y-227893266D01*
X261985514Y-227893266D02*
X262175990Y-227893266D01*
X262175990Y-227893266D02*
X262271228Y-227845647D01*
X262271228Y-227845647D02*
X262318847Y-227798028D01*
X262318847Y-227798028D02*
X262366466Y-227702790D01*
X259247418Y-273574219D02*
X258914085Y-273098028D01*
X258675990Y-273574219D02*
X258675990Y-272574219D01*
X258675990Y-272574219D02*
X259056942Y-272574219D01*
X259056942Y-272574219D02*
X259152180Y-272621838D01*
X259152180Y-272621838D02*
X259199799Y-272669457D01*
X259199799Y-272669457D02*
X259247418Y-272764695D01*
X259247418Y-272764695D02*
X259247418Y-272907552D01*
X259247418Y-272907552D02*
X259199799Y-273002790D01*
X259199799Y-273002790D02*
X259152180Y-273050409D01*
X259152180Y-273050409D02*
X259056942Y-273098028D01*
X259056942Y-273098028D02*
X258675990Y-273098028D01*
X259866466Y-272574219D02*
X260056942Y-272574219D01*
X260056942Y-272574219D02*
X260152180Y-272621838D01*
X260152180Y-272621838D02*
X260247418Y-272717076D01*
X260247418Y-272717076D02*
X260295037Y-272907552D01*
X260295037Y-272907552D02*
X260295037Y-273240885D01*
X260295037Y-273240885D02*
X260247418Y-273431361D01*
X260247418Y-273431361D02*
X260152180Y-273526600D01*
X260152180Y-273526600D02*
X260056942Y-273574219D01*
X260056942Y-273574219D02*
X259866466Y-273574219D01*
X259866466Y-273574219D02*
X259771228Y-273526600D01*
X259771228Y-273526600D02*
X259675990Y-273431361D01*
X259675990Y-273431361D02*
X259628371Y-273240885D01*
X259628371Y-273240885D02*
X259628371Y-272907552D01*
X259628371Y-272907552D02*
X259675990Y-272717076D01*
X259675990Y-272717076D02*
X259771228Y-272621838D01*
X259771228Y-272621838D02*
X259866466Y-272574219D01*
X260723609Y-273574219D02*
X260723609Y-272574219D01*
X260723609Y-272574219D02*
X261056942Y-273288504D01*
X261056942Y-273288504D02*
X261390275Y-272574219D01*
X261390275Y-272574219D02*
X261390275Y-273574219D01*
X261818847Y-272669457D02*
X261866466Y-272621838D01*
X261866466Y-272621838D02*
X261961704Y-272574219D01*
X261961704Y-272574219D02*
X262199799Y-272574219D01*
X262199799Y-272574219D02*
X262295037Y-272621838D01*
X262295037Y-272621838D02*
X262342656Y-272669457D01*
X262342656Y-272669457D02*
X262390275Y-272764695D01*
X262390275Y-272764695D02*
X262390275Y-272859933D01*
X262390275Y-272859933D02*
X262342656Y-273002790D01*
X262342656Y-273002790D02*
X261771228Y-273574219D01*
X261771228Y-273574219D02*
X262390275Y-273574219D01*
X262961704Y-273574219D02*
X262866466Y-273526600D01*
X262866466Y-273526600D02*
X262818847Y-273478980D01*
X262818847Y-273478980D02*
X262771228Y-273383742D01*
X262771228Y-273383742D02*
X262771228Y-273098028D01*
X262771228Y-273098028D02*
X262818847Y-273002790D01*
X262818847Y-273002790D02*
X262866466Y-272955171D01*
X262866466Y-272955171D02*
X262961704Y-272907552D01*
X262961704Y-272907552D02*
X263104561Y-272907552D01*
X263104561Y-272907552D02*
X263199799Y-272955171D01*
X263199799Y-272955171D02*
X263247418Y-273002790D01*
X263247418Y-273002790D02*
X263295037Y-273098028D01*
X263295037Y-273098028D02*
X263295037Y-273383742D01*
X263295037Y-273383742D02*
X263247418Y-273478980D01*
X263247418Y-273478980D02*
X263199799Y-273526600D01*
X263199799Y-273526600D02*
X263104561Y-273574219D01*
X263104561Y-273574219D02*
X262961704Y-273574219D01*
X264152180Y-272907552D02*
X264152180Y-273574219D01*
X263723609Y-272907552D02*
X263723609Y-273431361D01*
X263723609Y-273431361D02*
X263771228Y-273526600D01*
X263771228Y-273526600D02*
X263866466Y-273574219D01*
X263866466Y-273574219D02*
X264009323Y-273574219D01*
X264009323Y-273574219D02*
X264104561Y-273526600D01*
X264104561Y-273526600D02*
X264152180Y-273478980D01*
X264485514Y-272907552D02*
X264866466Y-272907552D01*
X264628371Y-272574219D02*
X264628371Y-273431361D01*
X264628371Y-273431361D02*
X264675990Y-273526600D01*
X264675990Y-273526600D02*
X264771228Y-273574219D01*
X264771228Y-273574219D02*
X264866466Y-273574219D01*
X129308266Y-227731419D02*
X129308266Y-228445704D01*
X129308266Y-228445704D02*
X129260647Y-228588561D01*
X129260647Y-228588561D02*
X129165409Y-228683800D01*
X129165409Y-228683800D02*
X129022552Y-228731419D01*
X129022552Y-228731419D02*
X128927314Y-228731419D01*
X130213028Y-228064752D02*
X130213028Y-228731419D01*
X129974933Y-227683800D02*
X129736838Y-228398085D01*
X129736838Y-228398085D02*
X130355885Y-228398085D01*
X127498743Y-274031419D02*
X127498743Y-273031419D01*
X127498743Y-273031419D02*
X127736838Y-273031419D01*
X127736838Y-273031419D02*
X127879695Y-273079038D01*
X127879695Y-273079038D02*
X127974933Y-273174276D01*
X127974933Y-273174276D02*
X128022552Y-273269514D01*
X128022552Y-273269514D02*
X128070171Y-273459990D01*
X128070171Y-273459990D02*
X128070171Y-273602847D01*
X128070171Y-273602847D02*
X128022552Y-273793323D01*
X128022552Y-273793323D02*
X127974933Y-273888561D01*
X127974933Y-273888561D02*
X127879695Y-273983800D01*
X127879695Y-273983800D02*
X127736838Y-274031419D01*
X127736838Y-274031419D02*
X127498743Y-274031419D01*
X128927314Y-274031419D02*
X128927314Y-273507609D01*
X128927314Y-273507609D02*
X128879695Y-273412371D01*
X128879695Y-273412371D02*
X128784457Y-273364752D01*
X128784457Y-273364752D02*
X128593981Y-273364752D01*
X128593981Y-273364752D02*
X128498743Y-273412371D01*
X128927314Y-273983800D02*
X128832076Y-274031419D01*
X128832076Y-274031419D02*
X128593981Y-274031419D01*
X128593981Y-274031419D02*
X128498743Y-273983800D01*
X128498743Y-273983800D02*
X128451124Y-273888561D01*
X128451124Y-273888561D02*
X128451124Y-273793323D01*
X128451124Y-273793323D02*
X128498743Y-273698085D01*
X128498743Y-273698085D02*
X128593981Y-273650466D01*
X128593981Y-273650466D02*
X128832076Y-273650466D01*
X128832076Y-273650466D02*
X128927314Y-273602847D01*
X129260648Y-273364752D02*
X129641600Y-273364752D01*
X129403505Y-273031419D02*
X129403505Y-273888561D01*
X129403505Y-273888561D02*
X129451124Y-273983800D01*
X129451124Y-273983800D02*
X129546362Y-274031419D01*
X129546362Y-274031419D02*
X129641600Y-274031419D01*
X130403505Y-274031419D02*
X130403505Y-273507609D01*
X130403505Y-273507609D02*
X130355886Y-273412371D01*
X130355886Y-273412371D02*
X130260648Y-273364752D01*
X130260648Y-273364752D02*
X130070172Y-273364752D01*
X130070172Y-273364752D02*
X129974934Y-273412371D01*
X130403505Y-273983800D02*
X130308267Y-274031419D01*
X130308267Y-274031419D02*
X130070172Y-274031419D01*
X130070172Y-274031419D02*
X129974934Y-273983800D01*
X129974934Y-273983800D02*
X129927315Y-273888561D01*
X129927315Y-273888561D02*
X129927315Y-273793323D01*
X129927315Y-273793323D02*
X129974934Y-273698085D01*
X129974934Y-273698085D02*
X130070172Y-273650466D01*
X130070172Y-273650466D02*
X130308267Y-273650466D01*
X130308267Y-273650466D02*
X130403505Y-273602847D01*
X130879696Y-274031419D02*
X130879696Y-273364752D01*
X130879696Y-273031419D02*
X130832077Y-273079038D01*
X130832077Y-273079038D02*
X130879696Y-273126657D01*
X130879696Y-273126657D02*
X130927315Y-273079038D01*
X130927315Y-273079038D02*
X130879696Y-273031419D01*
X130879696Y-273031419D02*
X130879696Y-273126657D01*
X131355886Y-273364752D02*
X131355886Y-274031419D01*
X131355886Y-273459990D02*
X131403505Y-273412371D01*
X131403505Y-273412371D02*
X131498743Y-273364752D01*
X131498743Y-273364752D02*
X131641600Y-273364752D01*
X131641600Y-273364752D02*
X131736838Y-273412371D01*
X131736838Y-273412371D02*
X131784457Y-273507609D01*
X131784457Y-273507609D02*
X131784457Y-274031419D01*
X160251876Y-124810619D02*
X160251876Y-125524904D01*
X160251876Y-125524904D02*
X160204257Y-125667761D01*
X160204257Y-125667761D02*
X160109019Y-125763000D01*
X160109019Y-125763000D02*
X159966162Y-125810619D01*
X159966162Y-125810619D02*
X159870924Y-125810619D01*
X161251876Y-125810619D02*
X160680448Y-125810619D01*
X160966162Y-125810619D02*
X160966162Y-124810619D01*
X160966162Y-124810619D02*
X160870924Y-124953476D01*
X160870924Y-124953476D02*
X160775686Y-125048714D01*
X160775686Y-125048714D02*
X160680448Y-125096333D01*
X161870924Y-124810619D02*
X161966162Y-124810619D01*
X161966162Y-124810619D02*
X162061400Y-124858238D01*
X162061400Y-124858238D02*
X162109019Y-124905857D01*
X162109019Y-124905857D02*
X162156638Y-125001095D01*
X162156638Y-125001095D02*
X162204257Y-125191571D01*
X162204257Y-125191571D02*
X162204257Y-125429666D01*
X162204257Y-125429666D02*
X162156638Y-125620142D01*
X162156638Y-125620142D02*
X162109019Y-125715380D01*
X162109019Y-125715380D02*
X162061400Y-125763000D01*
X162061400Y-125763000D02*
X161966162Y-125810619D01*
X161966162Y-125810619D02*
X161870924Y-125810619D01*
X161870924Y-125810619D02*
X161775686Y-125763000D01*
X161775686Y-125763000D02*
X161728067Y-125715380D01*
X161728067Y-125715380D02*
X161680448Y-125620142D01*
X161680448Y-125620142D02*
X161632829Y-125429666D01*
X161632829Y-125429666D02*
X161632829Y-125191571D01*
X161632829Y-125191571D02*
X161680448Y-125001095D01*
X161680448Y-125001095D02*
X161728067Y-124905857D01*
X161728067Y-124905857D02*
X161775686Y-124858238D01*
X161775686Y-124858238D02*
X161870924Y-124810619D01*
X159251876Y-171110619D02*
X159251876Y-170110619D01*
X159251876Y-170110619D02*
X159489971Y-170110619D01*
X159489971Y-170110619D02*
X159632828Y-170158238D01*
X159632828Y-170158238D02*
X159728066Y-170253476D01*
X159728066Y-170253476D02*
X159775685Y-170348714D01*
X159775685Y-170348714D02*
X159823304Y-170539190D01*
X159823304Y-170539190D02*
X159823304Y-170682047D01*
X159823304Y-170682047D02*
X159775685Y-170872523D01*
X159775685Y-170872523D02*
X159728066Y-170967761D01*
X159728066Y-170967761D02*
X159632828Y-171063000D01*
X159632828Y-171063000D02*
X159489971Y-171110619D01*
X159489971Y-171110619D02*
X159251876Y-171110619D01*
X160632828Y-171063000D02*
X160537590Y-171110619D01*
X160537590Y-171110619D02*
X160347114Y-171110619D01*
X160347114Y-171110619D02*
X160251876Y-171063000D01*
X160251876Y-171063000D02*
X160204257Y-170967761D01*
X160204257Y-170967761D02*
X160204257Y-170586809D01*
X160204257Y-170586809D02*
X160251876Y-170491571D01*
X160251876Y-170491571D02*
X160347114Y-170443952D01*
X160347114Y-170443952D02*
X160537590Y-170443952D01*
X160537590Y-170443952D02*
X160632828Y-170491571D01*
X160632828Y-170491571D02*
X160680447Y-170586809D01*
X160680447Y-170586809D02*
X160680447Y-170682047D01*
X160680447Y-170682047D02*
X160204257Y-170777285D01*
X161537590Y-171063000D02*
X161442352Y-171110619D01*
X161442352Y-171110619D02*
X161251876Y-171110619D01*
X161251876Y-171110619D02*
X161156638Y-171063000D01*
X161156638Y-171063000D02*
X161109019Y-171015380D01*
X161109019Y-171015380D02*
X161061400Y-170920142D01*
X161061400Y-170920142D02*
X161061400Y-170634428D01*
X161061400Y-170634428D02*
X161109019Y-170539190D01*
X161109019Y-170539190D02*
X161156638Y-170491571D01*
X161156638Y-170491571D02*
X161251876Y-170443952D01*
X161251876Y-170443952D02*
X161442352Y-170443952D01*
X161442352Y-170443952D02*
X161537590Y-170491571D01*
X161966162Y-171110619D02*
X161966162Y-170443952D01*
X161966162Y-170110619D02*
X161918543Y-170158238D01*
X161918543Y-170158238D02*
X161966162Y-170205857D01*
X161966162Y-170205857D02*
X162013781Y-170158238D01*
X162013781Y-170158238D02*
X161966162Y-170110619D01*
X161966162Y-170110619D02*
X161966162Y-170205857D01*
X162442352Y-170443952D02*
X162442352Y-171110619D01*
X162442352Y-170539190D02*
X162489971Y-170491571D01*
X162489971Y-170491571D02*
X162585209Y-170443952D01*
X162585209Y-170443952D02*
X162728066Y-170443952D01*
X162728066Y-170443952D02*
X162823304Y-170491571D01*
X162823304Y-170491571D02*
X162870923Y-170586809D01*
X162870923Y-170586809D02*
X162870923Y-171110619D01*
X105587895Y-102604619D02*
X105587895Y-101604619D01*
X105587895Y-102080809D02*
X106159323Y-102080809D01*
X106159323Y-102604619D02*
X106159323Y-101604619D01*
X107159323Y-102604619D02*
X106587895Y-102604619D01*
X106873609Y-102604619D02*
X106873609Y-101604619D01*
X106873609Y-101604619D02*
X106778371Y-101747476D01*
X106778371Y-101747476D02*
X106683133Y-101842714D01*
X106683133Y-101842714D02*
X106587895Y-101890333D01*
D11*
%TO.C,J1*%
X127371800Y-126076400D02*
X128701800Y-126076400D01*
X127371800Y-127406400D02*
X127371800Y-126076400D01*
X127371800Y-128676400D02*
X127371800Y-169376400D01*
X127371800Y-128676400D02*
X129971800Y-128676400D01*
X127371800Y-169376400D02*
X132571800Y-169376400D01*
X129971800Y-126076400D02*
X132571800Y-126076400D01*
X129971800Y-128676400D02*
X129971800Y-126076400D01*
X132571800Y-126076400D02*
X132571800Y-169376400D01*
%TO.C,J11*%
X258998200Y-126101800D02*
X260328200Y-126101800D01*
X258998200Y-127431800D02*
X258998200Y-126101800D01*
X258998200Y-128701800D02*
X258998200Y-169401800D01*
X258998200Y-128701800D02*
X261598200Y-128701800D01*
X258998200Y-169401800D02*
X264198200Y-169401800D01*
X261598200Y-126101800D02*
X264198200Y-126101800D01*
X261598200Y-128701800D02*
X261598200Y-126101800D01*
X264198200Y-126101800D02*
X264198200Y-169401800D01*
%TO.C,J3*%
X127244800Y-178502000D02*
X128574800Y-178502000D01*
X127244800Y-179832000D02*
X127244800Y-178502000D01*
X127244800Y-181102000D02*
X127244800Y-221802000D01*
X127244800Y-181102000D02*
X129844800Y-181102000D01*
X127244800Y-221802000D02*
X132444800Y-221802000D01*
X129844800Y-178502000D02*
X132444800Y-178502000D01*
X129844800Y-181102000D02*
X129844800Y-178502000D01*
X132444800Y-178502000D02*
X132444800Y-221802000D01*
%TO.C,J7*%
X158055000Y-178654400D02*
X159385000Y-178654400D01*
X158055000Y-179984400D02*
X158055000Y-178654400D01*
X158055000Y-181254400D02*
X158055000Y-221954400D01*
X158055000Y-181254400D02*
X160655000Y-181254400D01*
X158055000Y-221954400D02*
X163255000Y-221954400D01*
X160655000Y-178654400D02*
X163255000Y-178654400D01*
X160655000Y-181254400D02*
X160655000Y-178654400D01*
X163255000Y-178654400D02*
X163255000Y-221954400D01*
%TO.C,J8*%
X157953400Y-229860800D02*
X159283400Y-229860800D01*
X157953400Y-231190800D02*
X157953400Y-229860800D01*
X157953400Y-232460800D02*
X157953400Y-273160800D01*
X157953400Y-232460800D02*
X160553400Y-232460800D01*
X157953400Y-273160800D02*
X163153400Y-273160800D01*
X160553400Y-229860800D02*
X163153400Y-229860800D01*
X160553400Y-232460800D02*
X160553400Y-229860800D01*
X163153400Y-229860800D02*
X163153400Y-273160800D01*
%TO.C,J2*%
X230194600Y-178451200D02*
X231524600Y-178451200D01*
X230194600Y-179781200D02*
X230194600Y-178451200D01*
X230194600Y-181051200D02*
X230194600Y-221751200D01*
X230194600Y-181051200D02*
X232794600Y-181051200D01*
X230194600Y-221751200D02*
X235394600Y-221751200D01*
X232794600Y-178451200D02*
X235394600Y-178451200D01*
X232794600Y-181051200D02*
X232794600Y-178451200D01*
X235394600Y-178451200D02*
X235394600Y-221751200D01*
%TO.C,J6*%
X258994600Y-178451200D02*
X260324600Y-178451200D01*
X258994600Y-179781200D02*
X258994600Y-178451200D01*
X258994600Y-181051200D02*
X258994600Y-221751200D01*
X258994600Y-181051200D02*
X261594600Y-181051200D01*
X258994600Y-221751200D02*
X264194600Y-221751200D01*
X261594600Y-178451200D02*
X264194600Y-178451200D01*
X261594600Y-181051200D02*
X261594600Y-178451200D01*
X264194600Y-178451200D02*
X264194600Y-221751200D01*
%TO.C,J5*%
X230296200Y-229352800D02*
X231626200Y-229352800D01*
X230296200Y-230682800D02*
X230296200Y-229352800D01*
X230296200Y-231952800D02*
X230296200Y-272652800D01*
X230296200Y-231952800D02*
X232896200Y-231952800D01*
X230296200Y-272652800D02*
X235496200Y-272652800D01*
X232896200Y-229352800D02*
X235496200Y-229352800D01*
X232896200Y-231952800D02*
X232896200Y-229352800D01*
X235496200Y-229352800D02*
X235496200Y-272652800D01*
%TO.C,J9*%
X259099800Y-228819400D02*
X260429800Y-228819400D01*
X259099800Y-230149400D02*
X259099800Y-228819400D01*
X259099800Y-231419400D02*
X259099800Y-272119400D01*
X259099800Y-231419400D02*
X261699800Y-231419400D01*
X259099800Y-272119400D02*
X264299800Y-272119400D01*
X261699800Y-228819400D02*
X264299800Y-228819400D01*
X261699800Y-231419400D02*
X261699800Y-228819400D01*
X264299800Y-228819400D02*
X264299800Y-272119400D01*
%TO.C,J4*%
X127041600Y-229276600D02*
X128371600Y-229276600D01*
X127041600Y-230606600D02*
X127041600Y-229276600D01*
X127041600Y-231876600D02*
X127041600Y-272576600D01*
X127041600Y-231876600D02*
X129641600Y-231876600D01*
X127041600Y-272576600D02*
X132241600Y-272576600D01*
X129641600Y-229276600D02*
X132241600Y-229276600D01*
X129641600Y-231876600D02*
X129641600Y-229276600D01*
X132241600Y-229276600D02*
X132241600Y-272576600D01*
%TO.C,J10*%
X158461400Y-126355800D02*
X159791400Y-126355800D01*
X158461400Y-127685800D02*
X158461400Y-126355800D01*
X158461400Y-128955800D02*
X158461400Y-169655800D01*
X158461400Y-128955800D02*
X161061400Y-128955800D01*
X158461400Y-169655800D02*
X163661400Y-169655800D01*
X161061400Y-126355800D02*
X163661400Y-126355800D01*
X161061400Y-128955800D02*
X161061400Y-126355800D01*
X163661400Y-126355800D02*
X163661400Y-169655800D01*
%TD*%
M02*
