M48
; DRILL file {KiCad 7.0.7} date Wed Oct 25 17:18:41 2023
; FORMAT={-:-/ absolute / inch / decimal}
; #@! TF.CreationDate,2023-10-25T17:18:41+09:00
; #@! TF.GenerationSoftware,Kicad,Pcbnew,7.0.7
; #@! TF.FileFunction,Plated,1,2,PTH
FMAT,2
INCH
; #@! TA.AperFunction,Plated,PTH,ViaDrill
T1C0.0157
; #@! TA.AperFunction,Plated,PTH,ComponentDrill
T2C0.0394
%
G90
G05
T1
X5.2794Y-7.5382
X5.3039Y-7.6586
X5.368Y-7.5314
X5.3916Y-10.1819
X5.7975Y-9.8157
X6.1562Y-9.0502
X6.1778Y-9.125
X6.2046Y-9.0156
X6.2052Y-7.5437
X6.3373Y-5.6748
X6.4788Y-9.1483
X6.5119Y-8.0812
X6.5441Y-8.6732
X7.1013Y-8.9479
X7.2511Y-8.8464
X7.2789Y-8.8745
X7.3073Y-8.927
X7.3665Y-8.7579
X7.3891Y-8.6393
X7.4177Y-8.6023
X7.4625Y-8.6384
X7.7647Y-8.3779
X7.875Y-8.4932
X7.8907Y-8.3437
X7.9043Y-8.2531
X8.0287Y-8.1832
X8.1629Y-8.1946
X8.3615Y-7.4773
X8.6493Y-5.3988
X8.743Y-7.755
X8.7606Y-5.6293
X8.8314Y-7.7523
X8.8739Y-7.8393
X8.8741Y-7.6727
X8.8858Y-7.7234
X8.8892Y-7.633
X8.8989Y-7.5926
X9.0035Y-7.8821
X9.0565Y-8.9036
T2
X5.054Y-9.079
X5.054Y-9.179
X5.054Y-9.279
X5.054Y-9.379
X5.054Y-9.479
X5.054Y-9.579
X5.054Y-9.679
X5.054Y-9.779
X5.054Y-9.879
X5.054Y-9.979
X5.054Y-10.079
X5.054Y-10.179
X5.054Y-10.279
X5.054Y-10.379
X5.054Y-10.479
X5.054Y-10.579
X5.054Y-10.679
X5.062Y-7.08
X5.062Y-7.18
X5.062Y-7.28
X5.062Y-7.38
X5.062Y-7.48
X5.062Y-7.58
X5.062Y-7.68
X5.062Y-7.78
X5.062Y-7.88
X5.062Y-7.98
X5.062Y-8.08
X5.062Y-8.18
X5.062Y-8.28
X5.062Y-8.38
X5.062Y-8.48
X5.062Y-8.58
X5.062Y-8.68
X5.067Y-5.016
X5.067Y-5.116
X5.067Y-5.216
X5.067Y-5.316
X5.067Y-5.416
X5.067Y-5.516
X5.067Y-5.616
X5.067Y-5.716
X5.067Y-5.816
X5.067Y-5.916
X5.067Y-6.016
X5.067Y-6.116
X5.067Y-6.216
X5.067Y-6.316
X5.067Y-6.416
X5.067Y-6.516
X5.067Y-6.616
X5.154Y-9.079
X5.154Y-9.179
X5.154Y-9.279
X5.154Y-9.379
X5.154Y-9.479
X5.154Y-9.579
X5.154Y-9.679
X5.154Y-9.779
X5.154Y-9.879
X5.154Y-9.979
X5.154Y-10.079
X5.154Y-10.179
X5.154Y-10.279
X5.154Y-10.379
X5.154Y-10.479
X5.154Y-10.579
X5.154Y-10.679
X5.162Y-7.08
X5.162Y-7.18
X5.162Y-7.28
X5.162Y-7.38
X5.162Y-7.48
X5.162Y-7.58
X5.162Y-7.68
X5.162Y-7.78
X5.162Y-7.88
X5.162Y-7.98
X5.162Y-8.08
X5.162Y-8.18
X5.162Y-8.28
X5.162Y-8.38
X5.162Y-8.48
X5.162Y-8.58
X5.162Y-8.68
X5.167Y-5.016
X5.167Y-5.116
X5.167Y-5.216
X5.167Y-5.316
X5.167Y-5.416
X5.167Y-5.516
X5.167Y-5.616
X5.167Y-5.716
X5.167Y-5.816
X5.167Y-5.916
X5.167Y-6.016
X5.167Y-6.116
X5.167Y-6.216
X5.167Y-6.316
X5.167Y-6.416
X5.167Y-6.516
X5.167Y-6.616
X6.271Y-9.102
X6.271Y-9.202
X6.271Y-9.302
X6.271Y-9.402
X6.271Y-9.502
X6.271Y-9.602
X6.271Y-9.702
X6.271Y-9.802
X6.271Y-9.902
X6.271Y-10.002
X6.271Y-10.102
X6.271Y-10.202
X6.271Y-10.302
X6.271Y-10.402
X6.271Y-10.502
X6.271Y-10.602
X6.271Y-10.702
X6.275Y-7.086
X6.275Y-7.186
X6.275Y-7.286
X6.275Y-7.386
X6.275Y-7.486
X6.275Y-7.586
X6.275Y-7.686
X6.275Y-7.786
X6.275Y-7.886
X6.275Y-7.986
X6.275Y-8.086
X6.275Y-8.186
X6.275Y-8.286
X6.275Y-8.386
X6.275Y-8.486
X6.275Y-8.586
X6.275Y-8.686
X6.291Y-5.027
X6.291Y-5.127
X6.291Y-5.227
X6.291Y-5.327
X6.291Y-5.427
X6.291Y-5.527
X6.291Y-5.627
X6.291Y-5.727
X6.291Y-5.827
X6.291Y-5.927
X6.291Y-6.027
X6.291Y-6.127
X6.291Y-6.227
X6.291Y-6.327
X6.291Y-6.427
X6.291Y-6.527
X6.291Y-6.627
X6.371Y-9.102
X6.371Y-9.202
X6.371Y-9.302
X6.371Y-9.402
X6.371Y-9.502
X6.371Y-9.602
X6.371Y-9.702
X6.371Y-9.802
X6.371Y-9.902
X6.371Y-10.002
X6.371Y-10.102
X6.371Y-10.202
X6.371Y-10.302
X6.371Y-10.402
X6.371Y-10.502
X6.371Y-10.602
X6.371Y-10.702
X6.375Y-7.086
X6.375Y-7.186
X6.375Y-7.286
X6.375Y-7.386
X6.375Y-7.486
X6.375Y-7.586
X6.375Y-7.686
X6.375Y-7.786
X6.375Y-7.886
X6.375Y-7.986
X6.375Y-8.086
X6.375Y-8.186
X6.375Y-8.286
X6.375Y-8.386
X6.375Y-8.486
X6.375Y-8.586
X6.375Y-8.686
X6.391Y-5.027
X6.391Y-5.127
X6.391Y-5.227
X6.391Y-5.327
X6.391Y-5.427
X6.391Y-5.527
X6.391Y-5.627
X6.391Y-5.727
X6.391Y-5.827
X6.391Y-5.927
X6.391Y-6.027
X6.391Y-6.127
X6.391Y-6.227
X6.391Y-6.327
X6.391Y-6.427
X6.391Y-6.527
X6.391Y-6.627
X9.1151Y-7.078
X9.1151Y-7.178
X9.1151Y-7.278
X9.1151Y-7.378
X9.1151Y-7.478
X9.1151Y-7.578
X9.1151Y-7.678
X9.1151Y-7.778
X9.1151Y-7.878
X9.1151Y-7.978
X9.1151Y-8.078
X9.1151Y-8.178
X9.1151Y-8.278
X9.1151Y-8.378
X9.1151Y-8.478
X9.1151Y-8.578
X9.1151Y-8.678
X9.1191Y-9.082
X9.1191Y-9.182
X9.1191Y-9.282
X9.1191Y-9.382
X9.1191Y-9.482
X9.1191Y-9.582
X9.1191Y-9.682
X9.1191Y-9.782
X9.1191Y-9.882
X9.1191Y-9.982
X9.1191Y-10.082
X9.1191Y-10.182
X9.1191Y-10.282
X9.1191Y-10.382
X9.1191Y-10.482
X9.1191Y-10.582
X9.1191Y-10.682
X9.2151Y-7.078
X9.2151Y-7.178
X9.2151Y-7.278
X9.2151Y-7.378
X9.2151Y-7.478
X9.2151Y-7.578
X9.2151Y-7.678
X9.2151Y-7.778
X9.2151Y-7.878
X9.2151Y-7.978
X9.2151Y-8.078
X9.2151Y-8.178
X9.2151Y-8.278
X9.2151Y-8.378
X9.2151Y-8.478
X9.2151Y-8.578
X9.2151Y-8.678
X9.2191Y-9.082
X9.2191Y-9.182
X9.2191Y-9.282
X9.2191Y-9.382
X9.2191Y-9.482
X9.2191Y-9.582
X9.2191Y-9.682
X9.2191Y-9.782
X9.2191Y-9.882
X9.2191Y-9.982
X9.2191Y-10.082
X9.2191Y-10.182
X9.2191Y-10.282
X9.2191Y-10.382
X9.2191Y-10.482
X9.2191Y-10.582
X9.2191Y-10.682
X10.249Y-7.078
X10.249Y-7.178
X10.249Y-7.278
X10.249Y-7.378
X10.249Y-7.478
X10.249Y-7.578
X10.249Y-7.678
X10.249Y-7.778
X10.249Y-7.878
X10.249Y-7.978
X10.249Y-8.078
X10.249Y-8.178
X10.249Y-8.278
X10.249Y-8.378
X10.249Y-8.478
X10.249Y-8.578
X10.249Y-8.678
X10.2491Y-5.017
X10.2491Y-5.117
X10.2491Y-5.217
X10.2491Y-5.317
X10.2491Y-5.417
X10.2491Y-5.517
X10.2491Y-5.617
X10.2491Y-5.717
X10.2491Y-5.817
X10.2491Y-5.917
X10.2491Y-6.017
X10.2491Y-6.117
X10.2491Y-6.217
X10.2491Y-6.317
X10.2491Y-6.417
X10.2491Y-6.517
X10.2491Y-6.617
X10.2531Y-9.061
X10.2531Y-9.161
X10.2531Y-9.261
X10.2531Y-9.361
X10.2531Y-9.461
X10.2531Y-9.561
X10.2531Y-9.661
X10.2531Y-9.761
X10.2531Y-9.861
X10.2531Y-9.961
X10.2531Y-10.061
X10.2531Y-10.161
X10.2531Y-10.261
X10.2531Y-10.361
X10.2531Y-10.461
X10.2531Y-10.561
X10.2531Y-10.661
X10.349Y-7.078
X10.349Y-7.178
X10.349Y-7.278
X10.349Y-7.378
X10.349Y-7.478
X10.349Y-7.578
X10.349Y-7.678
X10.349Y-7.778
X10.349Y-7.878
X10.349Y-7.978
X10.349Y-8.078
X10.349Y-8.178
X10.349Y-8.278
X10.349Y-8.378
X10.349Y-8.478
X10.349Y-8.578
X10.349Y-8.678
X10.3491Y-5.017
X10.3491Y-5.117
X10.3491Y-5.217
X10.3491Y-5.317
X10.3491Y-5.417
X10.3491Y-5.517
X10.3491Y-5.617
X10.3491Y-5.717
X10.3491Y-5.817
X10.3491Y-5.917
X10.3491Y-6.017
X10.3491Y-6.117
X10.3491Y-6.217
X10.3491Y-6.317
X10.3491Y-6.417
X10.3491Y-6.517
X10.3491Y-6.617
X10.3531Y-9.061
X10.3531Y-9.161
X10.3531Y-9.261
X10.3531Y-9.361
X10.3531Y-9.461
X10.3531Y-9.561
X10.3531Y-9.661
X10.3531Y-9.761
X10.3531Y-9.861
X10.3531Y-9.961
X10.3531Y-10.061
X10.3531Y-10.161
X10.3531Y-10.261
X10.3531Y-10.361
X10.3531Y-10.461
X10.3531Y-10.561
X10.3531Y-10.661
T0
M30
