M48
; DRILL file {KiCad 7.0.7} date Wed Oct 18 21:41:00 2023
; FORMAT={-:-/ absolute / inch / decimal}
; #@! TF.CreationDate,2023-10-18T21:41:00+09:00
; #@! TF.GenerationSoftware,Kicad,Pcbnew,7.0.7
; #@! TF.FileFunction,Plated,1,2,PTH
FMAT,2
INCH
; #@! TA.AperFunction,Plated,PTH,ViaDrill
T1C0.0157
; #@! TA.AperFunction,Plated,PTH,ComponentDrill
T2C0.0315
; #@! TA.AperFunction,Plated,PTH,ComponentDrill
T3C0.0354
; #@! TA.AperFunction,Plated,PTH,ComponentDrill
T4C0.0394
%
G90
G05
T1
X19.262Y-2.9369
X19.2821Y-2.6967
X19.5516Y-4.2147
X19.6223Y-4.186
X20.3831Y-6.4208
X20.6655Y-7.4745
X20.9863Y-7.0244
X21.1651Y-3.9113
X21.3041Y-3.7728
X21.4131Y-7.4855
X21.8169Y-4.5142
X22.3831Y-2.0077
T2
X15.5754Y-2.7996
X15.5754Y-4.6033
X15.5754Y-6.4033
X15.5754Y-8.1996
X15.6Y-1.25
X15.6Y-1.35
X15.6Y-1.45
X15.6Y-1.55
X15.6Y-1.65
X15.6Y-1.75
X15.6Y-1.9
X15.6Y-2.0
X15.6Y-2.1
X15.6Y-2.2
X15.6Y-2.3
X15.6Y-2.4
X15.6Y-2.5
X15.6Y-2.6
X15.6004Y-3.0537
X15.6004Y-3.1537
X15.6004Y-3.2537
X15.6004Y-3.3537
X15.6004Y-3.4537
X15.6004Y-3.5537
X15.6004Y-3.7037
X15.6004Y-3.8037
X15.6004Y-3.9037
X15.6004Y-4.0037
X15.6004Y-4.1037
X15.6004Y-4.2037
X15.6004Y-4.3037
X15.6004Y-4.4037
X15.6004Y-4.8533
X15.6004Y-4.9533
X15.6004Y-5.0533
X15.6004Y-5.1533
X15.6004Y-5.2533
X15.6004Y-5.3533
X15.6004Y-5.5033
X15.6004Y-5.6033
X15.6004Y-5.7033
X15.6004Y-5.8033
X15.6004Y-5.9033
X15.6004Y-6.0033
X15.6004Y-6.1033
X15.6004Y-6.2033
X15.6004Y-6.6533
X15.6004Y-6.7533
X15.6004Y-6.8533
X15.6004Y-6.9533
X15.6004Y-7.0533
X15.6004Y-7.1533
X15.6004Y-7.3037
X15.6004Y-7.4037
X15.6004Y-7.5037
X15.6004Y-7.6037
X15.6004Y-7.7037
X15.6004Y-7.8037
X15.6004Y-7.9037
X15.6004Y-8.0037
X15.9Y-1.25
X15.9Y-1.35
X15.9Y-1.45
X15.9Y-1.55
X15.9Y-1.65
X15.9Y-1.75
X15.9Y-1.9
X15.9Y-2.0
X15.9Y-2.1
X15.9Y-2.2
X15.9Y-2.3
X15.9Y-2.4
X15.9Y-2.5
X15.9Y-2.6
X15.9004Y-3.0537
X15.9004Y-3.1537
X15.9004Y-3.2537
X15.9004Y-3.3537
X15.9004Y-3.4537
X15.9004Y-3.5537
X15.9004Y-3.7037
X15.9004Y-3.8037
X15.9004Y-3.9037
X15.9004Y-4.0037
X15.9004Y-4.1037
X15.9004Y-4.2037
X15.9004Y-4.3037
X15.9004Y-4.4037
X15.9004Y-4.8533
X15.9004Y-4.9533
X15.9004Y-5.0533
X15.9004Y-5.1533
X15.9004Y-5.2533
X15.9004Y-5.3533
X15.9004Y-5.5033
X15.9004Y-5.6033
X15.9004Y-5.7033
X15.9004Y-5.8033
X15.9004Y-5.9033
X15.9004Y-6.0033
X15.9004Y-6.1033
X15.9004Y-6.2033
X15.9004Y-6.6533
X15.9004Y-6.7533
X15.9004Y-6.8533
X15.9004Y-6.9533
X15.9004Y-7.0533
X15.9004Y-7.1533
X15.9004Y-7.3037
X15.9004Y-7.4037
X15.9004Y-7.5037
X15.9004Y-7.6037
X15.9004Y-7.7037
X15.9004Y-7.8037
X15.9004Y-7.9037
X15.9004Y-8.0037
X15.9754Y-2.7996
X15.9754Y-4.6033
X15.9754Y-6.4033
X15.9754Y-8.1996
X16.0254Y-1.2533
X16.0254Y-1.3533
X16.0254Y-1.4533
X16.0254Y-1.5533
X16.0254Y-1.6533
X16.0254Y-1.7533
X16.0254Y-1.9033
X16.0254Y-2.0033
X16.0254Y-2.1033
X16.0254Y-2.2033
X16.0254Y-2.3033
X16.0254Y-2.4033
X16.0254Y-2.5033
X16.0254Y-2.6033
X16.0254Y-3.0533
X16.0254Y-3.1533
X16.0254Y-3.2533
X16.0254Y-3.3533
X16.0254Y-3.4533
X16.0254Y-3.5533
X16.0254Y-3.7033
X16.0254Y-3.8033
X16.0254Y-3.9033
X16.0254Y-4.0033
X16.0254Y-4.1033
X16.0254Y-4.2033
X16.0254Y-4.3033
X16.0254Y-4.4079
X16.0254Y-4.8533
X16.0254Y-4.9533
X16.0254Y-5.0533
X16.0254Y-5.1533
X16.0254Y-5.2533
X16.0254Y-5.3579
X16.0254Y-5.5033
X16.0254Y-5.6033
X16.0254Y-5.7033
X16.0254Y-5.8045
X16.0254Y-5.9045
X16.0254Y-6.0045
X16.0254Y-6.1045
X16.0254Y-6.2033
X16.0254Y-6.6533
X16.0254Y-6.7533
X16.0254Y-6.8533
X16.0254Y-6.9533
X16.0254Y-7.0533
X16.0254Y-7.1533
X16.0254Y-7.2996
X16.0254Y-7.3996
X16.0254Y-7.4996
X16.0254Y-7.5996
X16.0254Y-7.6996
X16.0254Y-7.7996
X16.0254Y-7.8996
X16.0254Y-8.0053
X16.3254Y-1.2533
X16.3254Y-1.3533
X16.3254Y-1.4533
X16.3254Y-1.5533
X16.3254Y-1.6533
X16.3254Y-1.7533
X16.3254Y-1.9033
X16.3254Y-2.0033
X16.3254Y-2.1033
X16.3254Y-2.2033
X16.3254Y-2.3033
X16.3254Y-2.4033
X16.3254Y-2.5033
X16.3254Y-2.6033
X16.3254Y-3.0533
X16.3254Y-3.1533
X16.3254Y-3.2533
X16.3254Y-3.3533
X16.3254Y-3.4533
X16.3254Y-3.5533
X16.3254Y-3.7033
X16.3254Y-3.8033
X16.3254Y-3.9033
X16.3254Y-4.0033
X16.3254Y-4.1033
X16.3254Y-4.2033
X16.3254Y-4.3033
X16.3254Y-4.4079
X16.3254Y-4.8533
X16.3254Y-4.9533
X16.3254Y-5.0533
X16.3254Y-5.1533
X16.3254Y-5.2533
X16.3254Y-5.3579
X16.3254Y-5.5033
X16.3254Y-5.6033
X16.3254Y-5.7033
X16.3254Y-5.8045
X16.3254Y-5.9045
X16.3254Y-6.0045
X16.3254Y-6.1045
X16.3254Y-6.2033
X16.3254Y-6.6533
X16.3254Y-6.7533
X16.3254Y-6.8533
X16.3254Y-6.9533
X16.3254Y-7.0533
X16.3254Y-7.1533
X16.3254Y-7.2996
X16.3254Y-7.3996
X16.3254Y-7.4996
X16.3254Y-7.5996
X16.3254Y-7.6996
X16.3254Y-7.7996
X16.3254Y-7.8996
X16.3254Y-8.0053
X16.5754Y-2.7996
X16.5754Y-4.5996
X16.5754Y-6.3996
X16.5754Y-8.1996
X16.5996Y-3.05
X16.5996Y-3.15
X16.5996Y-3.25
X16.5996Y-3.35
X16.5996Y-3.45
X16.5996Y-3.55
X16.6Y-1.25
X16.6Y-1.35
X16.6Y-1.45
X16.6Y-1.55
X16.6Y-1.65
X16.6Y-1.75
X16.6Y-1.9
X16.6Y-2.0
X16.6Y-2.1
X16.6Y-2.2
X16.6Y-2.3
X16.6Y-2.4
X16.6Y-2.5
X16.6Y-2.6
X16.6Y-3.7
X16.6Y-3.8
X16.6Y-3.9
X16.6Y-4.0
X16.6Y-4.1
X16.6Y-4.2
X16.6Y-4.3
X16.6Y-4.4
X16.6Y-4.8492
X16.6Y-4.9492
X16.6Y-5.0492
X16.6Y-5.1492
X16.6Y-5.2492
X16.6Y-5.3492
X16.6004Y-5.4996
X16.6004Y-5.5996
X16.6004Y-5.6996
X16.6004Y-5.7996
X16.6004Y-5.8996
X16.6004Y-5.9996
X16.6004Y-6.0996
X16.6004Y-6.1996
X16.6004Y-6.6496
X16.6004Y-6.7496
X16.6004Y-6.8496
X16.6004Y-6.9496
X16.6004Y-7.0496
X16.6004Y-7.1496
X16.6004Y-7.2996
X16.6004Y-7.3996
X16.6004Y-7.4996
X16.6004Y-7.5996
X16.6004Y-7.6996
X16.6004Y-7.7996
X16.6004Y-7.8996
X16.6004Y-7.9996
X16.8996Y-3.05
X16.8996Y-3.15
X16.8996Y-3.25
X16.8996Y-3.35
X16.8996Y-3.45
X16.8996Y-3.55
X16.9Y-1.25
X16.9Y-1.35
X16.9Y-1.45
X16.9Y-1.55
X16.9Y-1.65
X16.9Y-1.75
X16.9Y-1.9
X16.9Y-2.0
X16.9Y-2.1
X16.9Y-2.2
X16.9Y-2.3
X16.9Y-2.4
X16.9Y-2.5
X16.9Y-2.6
X16.9Y-3.7
X16.9Y-3.8
X16.9Y-3.9
X16.9Y-4.0
X16.9Y-4.1
X16.9Y-4.2
X16.9Y-4.3
X16.9Y-4.4
X16.9Y-4.8492
X16.9Y-4.9492
X16.9Y-5.0492
X16.9Y-5.1492
X16.9Y-5.2492
X16.9Y-5.3492
X16.9004Y-5.4996
X16.9004Y-5.5996
X16.9004Y-5.6996
X16.9004Y-5.7996
X16.9004Y-5.8996
X16.9004Y-5.9996
X16.9004Y-6.0996
X16.9004Y-6.1996
X16.9004Y-6.6496
X16.9004Y-6.7496
X16.9004Y-6.8496
X16.9004Y-6.9496
X16.9004Y-7.0496
X16.9004Y-7.1496
X16.9004Y-7.2996
X16.9004Y-7.3996
X16.9004Y-7.4996
X16.9004Y-7.5996
X16.9004Y-7.6996
X16.9004Y-7.7996
X16.9004Y-7.8996
X16.9004Y-7.9996
X16.9754Y-2.7996
X16.9754Y-4.5996
X16.9754Y-6.3996
X16.9754Y-8.1996
X17.0254Y-1.2533
X17.0254Y-1.3533
X17.0254Y-1.4533
X17.0254Y-1.5533
X17.0254Y-1.6533
X17.0254Y-1.7533
X17.0254Y-1.9033
X17.0254Y-2.0033
X17.0254Y-2.1033
X17.0254Y-2.2033
X17.0254Y-2.3033
X17.0254Y-2.4033
X17.0254Y-2.5033
X17.0254Y-2.6033
X17.0254Y-3.0533
X17.0254Y-3.1533
X17.0254Y-3.2533
X17.0254Y-3.3533
X17.0254Y-3.4533
X17.0254Y-3.5533
X17.0254Y-3.7033
X17.0254Y-3.8033
X17.0254Y-3.9033
X17.0254Y-4.0033
X17.0254Y-4.1033
X17.0254Y-4.2033
X17.0254Y-4.3033
X17.0254Y-4.4033
X17.0254Y-4.8533
X17.0254Y-4.9533
X17.0254Y-5.0533
X17.0254Y-5.1533
X17.0254Y-5.2533
X17.0254Y-5.3533
X17.0254Y-5.5033
X17.0254Y-5.6033
X17.0254Y-5.7033
X17.0254Y-5.8033
X17.0254Y-5.9033
X17.0254Y-6.0033
X17.0254Y-6.1033
X17.0254Y-6.2033
X17.0254Y-6.6533
X17.0254Y-6.7533
X17.0254Y-6.8533
X17.0254Y-6.9533
X17.0254Y-7.0533
X17.0254Y-7.1533
X17.0254Y-7.3033
X17.0254Y-7.4033
X17.0254Y-7.5033
X17.0254Y-7.6033
X17.0254Y-7.7033
X17.0254Y-7.8033
X17.0254Y-7.9033
X17.0254Y-8.0033
X17.3254Y-1.2533
X17.3254Y-1.3533
X17.3254Y-1.4533
X17.3254Y-1.5533
X17.3254Y-1.6533
X17.3254Y-1.7533
X17.3254Y-1.9033
X17.3254Y-2.0033
X17.3254Y-2.1033
X17.3254Y-2.2033
X17.3254Y-2.3033
X17.3254Y-2.4033
X17.3254Y-2.5033
X17.3254Y-2.6033
X17.3254Y-3.0533
X17.3254Y-3.1533
X17.3254Y-3.2533
X17.3254Y-3.3533
X17.3254Y-3.4533
X17.3254Y-3.5533
X17.3254Y-3.7033
X17.3254Y-3.8033
X17.3254Y-3.9033
X17.3254Y-4.0033
X17.3254Y-4.1033
X17.3254Y-4.2033
X17.3254Y-4.3033
X17.3254Y-4.4033
X17.3254Y-4.8533
X17.3254Y-4.9533
X17.3254Y-5.0533
X17.3254Y-5.1533
X17.3254Y-5.2533
X17.3254Y-5.3533
X17.3254Y-5.5033
X17.3254Y-5.6033
X17.3254Y-5.7033
X17.3254Y-5.8033
X17.3254Y-5.9033
X17.3254Y-6.0033
X17.3254Y-6.1033
X17.3254Y-6.2033
X17.3254Y-6.6533
X17.3254Y-6.7533
X17.3254Y-6.8533
X17.3254Y-6.9533
X17.3254Y-7.0533
X17.3254Y-7.1533
X17.3254Y-7.3033
X17.3254Y-7.4033
X17.3254Y-7.5033
X17.3254Y-7.6033
X17.3254Y-7.7033
X17.3254Y-7.8033
X17.3254Y-7.9033
X17.3254Y-8.0033
X17.5258Y-2.8
X17.5258Y-4.6
X17.5258Y-6.4
X17.5258Y-8.2
X17.5996Y-1.25
X17.5996Y-1.35
X17.5996Y-1.45
X17.5996Y-1.55
X17.5996Y-1.65
X17.5996Y-1.75
X17.5996Y-6.65
X17.5996Y-6.75
X17.5996Y-6.85
X17.5996Y-6.95
X17.5996Y-7.05
X17.5996Y-7.15
X17.6Y-1.9
X17.6Y-2.0
X17.6Y-2.1
X17.6Y-2.2
X17.6Y-2.3
X17.6Y-2.4
X17.6Y-2.5
X17.6Y-2.6
X17.6Y-3.05
X17.6Y-3.15
X17.6Y-3.25
X17.6Y-3.35
X17.6Y-3.45
X17.6Y-3.55
X17.6Y-3.7004
X17.6Y-3.8004
X17.6Y-3.9004
X17.6Y-4.0004
X17.6Y-4.1004
X17.6Y-4.2004
X17.6Y-4.3004
X17.6Y-4.4004
X17.6Y-4.85
X17.6Y-4.95
X17.6Y-5.05
X17.6Y-5.15
X17.6Y-5.25
X17.6Y-5.35
X17.6Y-5.5
X17.6Y-5.6
X17.6Y-5.7
X17.6Y-5.8
X17.6Y-5.9
X17.6Y-6.0
X17.6Y-6.1
X17.6Y-6.2
X17.6Y-7.3
X17.6Y-7.4
X17.6Y-7.5
X17.6Y-7.6
X17.6Y-7.7
X17.6Y-7.8
X17.6Y-7.9
X17.6Y-8.0
X17.8996Y-1.25
X17.8996Y-1.35
X17.8996Y-1.45
X17.8996Y-1.55
X17.8996Y-1.65
X17.8996Y-1.75
X17.8996Y-6.65
X17.8996Y-6.75
X17.8996Y-6.85
X17.8996Y-6.95
X17.8996Y-7.05
X17.8996Y-7.15
X17.9Y-1.9
X17.9Y-2.0
X17.9Y-2.1
X17.9Y-2.2
X17.9Y-2.3
X17.9Y-2.4
X17.9Y-2.5
X17.9Y-2.6
X17.9Y-3.05
X17.9Y-3.15
X17.9Y-3.25
X17.9Y-3.35
X17.9Y-3.45
X17.9Y-3.55
X17.9Y-3.7004
X17.9Y-3.8004
X17.9Y-3.9004
X17.9Y-4.0004
X17.9Y-4.1004
X17.9Y-4.2004
X17.9Y-4.3004
X17.9Y-4.4004
X17.9Y-4.85
X17.9Y-4.95
X17.9Y-5.05
X17.9Y-5.15
X17.9Y-5.25
X17.9Y-5.35
X17.9Y-5.5
X17.9Y-5.6
X17.9Y-5.7
X17.9Y-5.8
X17.9Y-5.9
X17.9Y-6.0
X17.9Y-6.1
X17.9Y-6.2
X17.9Y-7.3
X17.9Y-7.4
X17.9Y-7.5
X17.9Y-7.6
X17.9Y-7.7
X17.9Y-7.8
X17.9Y-7.9
X17.9Y-8.0
X17.9258Y-2.8
X17.9258Y-4.6
X17.9258Y-6.4
X17.9258Y-8.2
X18.025Y-1.2537
X18.025Y-1.3537
X18.025Y-1.4537
X18.025Y-1.5537
X18.025Y-1.6537
X18.025Y-1.7537
X18.025Y-1.9037
X18.025Y-2.0037
X18.025Y-2.1037
X18.025Y-2.2037
X18.025Y-2.3037
X18.025Y-2.4037
X18.025Y-2.5026
X18.025Y-2.6026
X18.025Y-3.0537
X18.025Y-3.1537
X18.025Y-3.2537
X18.025Y-3.3537
X18.025Y-3.4537
X18.025Y-3.5537
X18.025Y-3.7037
X18.025Y-3.8037
X18.025Y-3.9037
X18.025Y-4.0037
X18.025Y-4.1037
X18.025Y-4.2037
X18.025Y-4.3037
X18.025Y-4.4037
X18.025Y-4.8537
X18.025Y-4.9537
X18.025Y-5.0537
X18.025Y-5.1537
X18.025Y-5.2537
X18.025Y-5.3537
X18.025Y-5.5037
X18.025Y-5.6037
X18.025Y-5.7037
X18.025Y-5.8037
X18.025Y-5.9037
X18.025Y-6.0037
X18.025Y-6.1037
X18.025Y-6.2037
X18.025Y-6.6537
X18.025Y-6.7537
X18.025Y-6.8537
X18.025Y-6.9537
X18.025Y-7.0537
X18.025Y-7.1537
X18.025Y-7.3037
X18.025Y-7.4037
X18.025Y-7.5037
X18.025Y-7.6037
X18.025Y-7.7037
X18.025Y-7.8037
X18.025Y-7.9037
X18.025Y-8.0037
X18.325Y-1.2537
X18.325Y-1.3537
X18.325Y-1.4537
X18.325Y-1.5537
X18.325Y-1.6537
X18.325Y-1.7537
X18.325Y-1.9037
X18.325Y-2.0037
X18.325Y-2.1037
X18.325Y-2.2037
X18.325Y-2.3037
X18.325Y-2.4037
X18.325Y-2.5026
X18.325Y-2.6026
X18.325Y-3.0537
X18.325Y-3.1537
X18.325Y-3.2537
X18.325Y-3.3537
X18.325Y-3.4537
X18.325Y-3.5537
X18.325Y-3.7037
X18.325Y-3.8037
X18.325Y-3.9037
X18.325Y-4.0037
X18.325Y-4.1037
X18.325Y-4.2037
X18.325Y-4.3037
X18.325Y-4.4037
X18.325Y-4.8537
X18.325Y-4.9537
X18.325Y-5.0537
X18.325Y-5.1537
X18.325Y-5.2537
X18.325Y-5.3537
X18.325Y-5.5037
X18.325Y-5.6037
X18.325Y-5.7037
X18.325Y-5.8037
X18.325Y-5.9037
X18.325Y-6.0037
X18.325Y-6.1037
X18.325Y-6.2037
X18.325Y-6.6537
X18.325Y-6.7537
X18.325Y-6.8537
X18.325Y-6.9537
X18.325Y-7.0537
X18.325Y-7.1537
X18.325Y-7.3037
X18.325Y-7.4037
X18.325Y-7.5037
X18.325Y-7.6037
X18.325Y-7.7037
X18.325Y-7.8037
X18.325Y-7.9037
X18.325Y-8.0037
X18.5762Y-2.8
X18.5762Y-4.6
X18.5762Y-6.4
X18.5762Y-8.2
X18.5996Y-1.25
X18.5996Y-1.35
X18.5996Y-1.45
X18.5996Y-1.55
X18.5996Y-1.65
X18.5996Y-1.75
X18.6Y-1.9
X18.6Y-2.0
X18.6Y-2.1
X18.6Y-2.2
X18.6Y-2.3
X18.6Y-2.4
X18.6Y-2.5
X18.6Y-2.6
X18.6Y-3.05
X18.6Y-3.15
X18.6Y-3.25
X18.6Y-3.35
X18.6Y-3.45
X18.6Y-3.55
X18.6008Y-4.8496
X18.6008Y-4.9496
X18.6008Y-5.0496
X18.6008Y-5.1496
X18.6008Y-5.2496
X18.6008Y-5.3496
X18.6012Y-3.7
X18.6012Y-3.8
X18.6012Y-3.9
X18.6012Y-4.0
X18.6012Y-4.1
X18.6012Y-4.2
X18.6012Y-4.3
X18.6012Y-4.4
X18.6012Y-5.5
X18.6012Y-5.6
X18.6012Y-5.7
X18.6012Y-5.8
X18.6012Y-5.9
X18.6012Y-6.0
X18.6012Y-6.1
X18.6012Y-6.2
X18.6012Y-6.65
X18.6012Y-6.75
X18.6012Y-6.85
X18.6012Y-6.95
X18.6012Y-7.05
X18.6012Y-7.15
X18.6016Y-7.3
X18.6016Y-7.4
X18.6016Y-7.5
X18.6016Y-7.6
X18.6016Y-7.7
X18.6016Y-7.8
X18.6016Y-7.9
X18.6016Y-8.0
X18.8996Y-1.25
X18.8996Y-1.35
X18.8996Y-1.45
X18.8996Y-1.55
X18.8996Y-1.65
X18.8996Y-1.75
X18.9Y-1.9
X18.9Y-2.0
X18.9Y-2.1
X18.9Y-2.2
X18.9Y-2.3
X18.9Y-2.4
X18.9Y-2.5
X18.9Y-2.6
X18.9Y-3.05
X18.9Y-3.15
X18.9Y-3.25
X18.9Y-3.35
X18.9Y-3.45
X18.9Y-3.55
X18.9008Y-4.8496
X18.9008Y-4.9496
X18.9008Y-5.0496
X18.9008Y-5.1496
X18.9008Y-5.2496
X18.9008Y-5.3496
X18.9012Y-3.7
X18.9012Y-3.8
X18.9012Y-3.9
X18.9012Y-4.0
X18.9012Y-4.1
X18.9012Y-4.2
X18.9012Y-4.3
X18.9012Y-4.4
X18.9012Y-5.5
X18.9012Y-5.6
X18.9012Y-5.7
X18.9012Y-5.8
X18.9012Y-5.9
X18.9012Y-6.0
X18.9012Y-6.1
X18.9012Y-6.2
X18.9012Y-6.65
X18.9012Y-6.75
X18.9012Y-6.85
X18.9012Y-6.95
X18.9012Y-7.05
X18.9012Y-7.15
X18.9016Y-7.3
X18.9016Y-7.4
X18.9016Y-7.5
X18.9016Y-7.6
X18.9016Y-7.7
X18.9016Y-7.8
X18.9016Y-7.9
X18.9016Y-8.0
X18.9762Y-2.8
X18.9762Y-4.6
X18.9762Y-6.4
X18.9762Y-8.2
X19.0246Y-1.2537
X19.0246Y-1.3537
X19.0246Y-1.4537
X19.0246Y-1.5537
X19.0246Y-1.6537
X19.0246Y-1.7537
X19.0246Y-1.9037
X19.0246Y-2.0037
X19.0246Y-2.1037
X19.0246Y-2.2037
X19.0246Y-2.3037
X19.0246Y-2.4037
X19.0246Y-2.5037
X19.0246Y-2.6037
X19.0246Y-4.8537
X19.0246Y-4.9537
X19.0246Y-5.0537
X19.0246Y-5.1537
X19.0246Y-5.2537
X19.0246Y-5.3537
X19.0246Y-5.5037
X19.0246Y-5.6037
X19.0246Y-5.7037
X19.0246Y-5.8037
X19.0246Y-5.9037
X19.0246Y-6.0037
X19.0246Y-6.1037
X19.0246Y-6.2037
X19.0262Y-3.0537
X19.0262Y-3.1537
X19.0262Y-3.2537
X19.0262Y-3.3537
X19.0262Y-3.4537
X19.0262Y-3.5537
X19.0262Y-3.7037
X19.0262Y-3.8037
X19.0262Y-3.9037
X19.0262Y-4.0037
X19.0262Y-4.1037
X19.0262Y-4.2037
X19.0262Y-4.3037
X19.0262Y-4.4037
X19.0262Y-6.6537
X19.0262Y-6.7537
X19.0262Y-6.8537
X19.0262Y-6.9537
X19.0262Y-7.0537
X19.0262Y-7.1537
X19.0262Y-7.3037
X19.0262Y-7.4037
X19.0262Y-7.5037
X19.0262Y-7.6037
X19.0262Y-7.7037
X19.0262Y-7.8037
X19.0262Y-7.9037
X19.0262Y-8.0037
X19.3246Y-1.2537
X19.3246Y-1.3537
X19.3246Y-1.4537
X19.3246Y-1.5537
X19.3246Y-1.6537
X19.3246Y-1.7537
X19.3246Y-1.9037
X19.3246Y-2.0037
X19.3246Y-2.1037
X19.3246Y-2.2037
X19.3246Y-2.3037
X19.3246Y-2.4037
X19.3246Y-2.5037
X19.3246Y-2.6037
X19.3246Y-4.8537
X19.3246Y-4.9537
X19.3246Y-5.0537
X19.3246Y-5.1537
X19.3246Y-5.2537
X19.3246Y-5.3537
X19.3246Y-5.5037
X19.3246Y-5.6037
X19.3246Y-5.7037
X19.3246Y-5.8037
X19.3246Y-5.9037
X19.3246Y-6.0037
X19.3246Y-6.1037
X19.3246Y-6.2037
X19.3262Y-3.0537
X19.3262Y-3.1537
X19.3262Y-3.2537
X19.3262Y-3.3537
X19.3262Y-3.4537
X19.3262Y-3.5537
X19.3262Y-3.7037
X19.3262Y-3.8037
X19.3262Y-3.9037
X19.3262Y-4.0037
X19.3262Y-4.1037
X19.3262Y-4.2037
X19.3262Y-4.3037
X19.3262Y-4.4037
X19.3262Y-6.6537
X19.3262Y-6.7537
X19.3262Y-6.8537
X19.3262Y-6.9537
X19.3262Y-7.0537
X19.3262Y-7.1537
X19.3262Y-7.3037
X19.3262Y-7.4037
X19.3262Y-7.5037
X19.3262Y-7.6037
X19.3262Y-7.7037
X19.3262Y-7.8037
X19.3262Y-7.9037
X19.3262Y-8.0037
X19.5589Y-7.7441
X19.5589Y-7.8425
X19.6Y-1.3
X19.6Y-1.7
X19.7Y-3.725
X19.7Y-4.025
X19.7504Y-7.6504
X19.7504Y-7.9504
X19.775Y-1.3
X19.775Y-1.7
X19.8Y-3.725
X19.8Y-4.025
X19.8504Y-7.6504
X19.8504Y-7.9504
X19.9Y-3.725
X19.9Y-4.025
X19.95Y-1.3
X19.95Y-1.7
X19.9504Y-7.6504
X19.9504Y-7.9504
X20.0Y-3.725
X20.0Y-4.025
X20.0504Y-7.6504
X20.0504Y-7.9504
X20.1Y-3.725
X20.1Y-4.025
X20.125Y-1.3
X20.125Y-1.7
X20.1504Y-7.6504
X20.1504Y-7.9504
X20.2Y-3.725
X20.2Y-4.025
X20.2504Y-7.6504
X20.2504Y-7.9504
X20.3Y-1.3
X20.3Y-1.7
X20.3Y-3.725
X20.3Y-4.025
X20.3504Y-7.6504
X20.3504Y-7.9504
X20.4Y-3.725
X20.4Y-4.025
X20.4504Y-7.6504
X20.4504Y-7.9504
X20.475Y-1.3
X20.475Y-1.7
X20.5Y-3.725
X20.5Y-4.025
X20.6Y-3.725
X20.6Y-4.025
X20.65Y-1.3
X20.65Y-1.7
X20.8Y-3.8258
X20.8Y-3.9242
X20.8085Y-7.7563
X20.8085Y-7.8547
X20.825Y-1.3
X20.825Y-1.7
X21.0Y-7.65
X21.0Y-7.95
X21.05Y-3.725
X21.05Y-4.025
X21.1Y-1.3
X21.1Y-1.7
X21.1Y-7.65
X21.1Y-7.95
X21.15Y-3.725
X21.15Y-4.025
X21.2Y-7.65
X21.2Y-7.95
X21.25Y-3.725
X21.25Y-4.025
X21.275Y-1.3
X21.275Y-1.7
X21.3Y-7.65
X21.3Y-7.95
X21.35Y-3.725
X21.35Y-4.025
X21.4Y-7.65
X21.4Y-7.95
X21.45Y-1.3
X21.45Y-1.7
X21.45Y-3.725
X21.45Y-4.025
X21.5Y-7.65
X21.5Y-7.95
X21.55Y-3.725
X21.55Y-4.025
X21.6Y-7.65
X21.6Y-7.95
X21.625Y-1.3
X21.625Y-1.7
X21.65Y-3.725
X21.65Y-4.025
X21.7Y-7.65
X21.7Y-7.95
X21.75Y-3.725
X21.75Y-4.025
X21.8Y-1.3
X21.8Y-1.7
X21.85Y-3.725
X21.85Y-4.025
X21.95Y-3.725
X21.95Y-4.025
X21.975Y-1.3
X21.975Y-1.7
X22.15Y-3.8266
X22.15Y-3.925
X22.15Y-7.5
X22.15Y-7.6
X22.15Y-7.7
X22.15Y-7.8
X22.15Y-7.9
X22.15Y-8.0
X22.15Y-8.1
X22.1593Y-6.403
X22.1593Y-6.503
X22.1593Y-6.603
X22.1593Y-6.703
X22.1593Y-6.803
X22.1593Y-6.903
X22.1593Y-7.003
X22.2439Y-7.3049
X22.2604Y-6.2015
X22.3423Y-7.3049
X22.3589Y-6.2015
X22.45Y-7.5
X22.45Y-7.6
X22.45Y-7.7
X22.45Y-7.8
X22.45Y-7.9
X22.45Y-8.0
X22.45Y-8.1
X22.4593Y-6.403
X22.4593Y-6.503
X22.4593Y-6.603
X22.4593Y-6.703
X22.4593Y-6.803
X22.4593Y-6.903
X22.4593Y-7.003
T3
X16.0717Y-8.2033
X16.0754Y-2.7996
X16.0754Y-4.6033
X16.0754Y-6.4033
X16.1717Y-8.2033
X16.1754Y-2.7996
X16.1754Y-4.6033
X16.1754Y-6.4033
X17.0754Y-2.7996
X17.0754Y-4.5996
X17.0754Y-6.3996
X17.0754Y-8.1996
X17.1754Y-2.7996
X17.1754Y-4.5996
X17.1754Y-6.3996
X17.1754Y-8.1996
X18.025Y-2.8037
X18.025Y-8.2
X18.0252Y-4.6
X18.0252Y-6.4
X18.125Y-2.8037
X18.125Y-8.2
X18.1252Y-4.6
X18.1252Y-6.4
X19.0762Y-2.8069
X19.0762Y-4.6
X19.0762Y-6.4
X19.0762Y-8.2069
X19.1762Y-2.8069
X19.1762Y-4.6
X19.1762Y-6.4
X19.1762Y-8.2069
T4
X22.208Y-1.701
X22.208Y-1.801
X22.208Y-1.901
X22.208Y-2.001
X22.208Y-2.101
X22.208Y-2.201
X22.208Y-2.301
X22.208Y-2.401
X22.208Y-2.501
X22.208Y-2.601
X22.208Y-2.701
X22.208Y-2.801
X22.208Y-2.901
X22.208Y-3.001
X22.208Y-3.101
X22.208Y-3.201
X22.208Y-3.301
X22.208Y-4.311
X22.208Y-4.411
X22.208Y-4.511
X22.208Y-4.611
X22.208Y-4.711
X22.208Y-4.811
X22.208Y-4.911
X22.208Y-5.011
X22.208Y-5.111
X22.208Y-5.211
X22.208Y-5.311
X22.208Y-5.411
X22.208Y-5.511
X22.208Y-5.611
X22.208Y-5.711
X22.208Y-5.811
X22.208Y-5.911
X22.308Y-1.701
X22.308Y-1.801
X22.308Y-1.901
X22.308Y-2.001
X22.308Y-2.101
X22.308Y-2.201
X22.308Y-2.301
X22.308Y-2.401
X22.308Y-2.501
X22.308Y-2.601
X22.308Y-2.701
X22.308Y-2.801
X22.308Y-2.901
X22.308Y-3.001
X22.308Y-3.101
X22.308Y-3.201
X22.308Y-3.301
X22.308Y-4.311
X22.308Y-4.411
X22.308Y-4.511
X22.308Y-4.611
X22.308Y-4.711
X22.308Y-4.811
X22.308Y-4.911
X22.308Y-5.011
X22.308Y-5.111
X22.308Y-5.211
X22.308Y-5.311
X22.308Y-5.411
X22.308Y-5.511
X22.308Y-5.611
X22.308Y-5.711
X22.308Y-5.811
X22.308Y-5.911
T0
M30
