%TF.GenerationSoftware,KiCad,Pcbnew,7.0.7*%
%TF.CreationDate,2023-10-18T21:40:57+09:00*%
%TF.ProjectId,ROM,524f4d2e-6b69-4636-9164-5f7063625858,rev?*%
%TF.SameCoordinates,Original*%
%TF.FileFunction,Copper,L1,Top*%
%TF.FilePolarity,Positive*%
%FSLAX46Y46*%
G04 Gerber Fmt 4.6, Leading zero omitted, Abs format (unit mm)*
G04 Created by KiCad (PCBNEW 7.0.7) date 2023-10-18 21:40:57*
%MOMM*%
%LPD*%
G01*
G04 APERTURE LIST*
%TA.AperFunction,ComponentPad*%
%ADD10R,1.600000X1.600000*%
%TD*%
%TA.AperFunction,ComponentPad*%
%ADD11O,1.600000X1.600000*%
%TD*%
%TA.AperFunction,ComponentPad*%
%ADD12C,1.600000*%
%TD*%
%TA.AperFunction,ComponentPad*%
%ADD13R,1.800000X1.800000*%
%TD*%
%TA.AperFunction,ComponentPad*%
%ADD14C,1.800000*%
%TD*%
%TA.AperFunction,ComponentPad*%
%ADD15R,1.700000X1.700000*%
%TD*%
%TA.AperFunction,ComponentPad*%
%ADD16O,1.700000X1.700000*%
%TD*%
%TA.AperFunction,ViaPad*%
%ADD17C,0.800000*%
%TD*%
%TA.AperFunction,Conductor*%
%ADD18C,0.250000*%
%TD*%
G04 APERTURE END LIST*
D10*
%TO.P,D27,1,K*%
%TO.N,Net-(D16-K)*%
X414665000Y-130895000D03*
D11*
%TO.P,D27,2,A*%
%TO.N,Net-(D27-A)*%
X407045000Y-130895000D03*
%TD*%
D10*
%TO.P,D120,1,K*%
%TO.N,Net-(D106-K)*%
X440065000Y-50885000D03*
D11*
%TO.P,D120,2,A*%
%TO.N,Net-(D120-A)*%
X432445000Y-50885000D03*
%TD*%
D12*
%TO.P,R8,1*%
%TO.N,+5V*%
X421015000Y-71110000D03*
D11*
%TO.P,R8,2*%
%TO.N,Net-(D106-A)*%
X431175000Y-71110000D03*
%TD*%
D13*
%TO.P,D47,1,K*%
%TO.N,Net-(D47-K)*%
X410855000Y-71110000D03*
D14*
%TO.P,D47,2,A*%
%TO.N,Net-(D47-A)*%
X408315000Y-71110000D03*
%TD*%
D12*
%TO.P,R34,1*%
%TO.N,+5V*%
X445155000Y-162560000D03*
D11*
%TO.P,R34,2*%
%TO.N,Net-(D286-A)*%
X455315000Y-162560000D03*
%TD*%
D10*
%TO.P,SW13,1*%
%TO.N,Net-(D94-A)*%
X429270000Y-181600000D03*
D11*
%TO.P,SW13,2*%
%TO.N,Net-(D96-A)*%
X429270000Y-179060000D03*
%TO.P,SW13,3*%
%TO.N,Net-(D98-A)*%
X429270000Y-176520000D03*
%TO.P,SW13,4*%
%TO.N,Net-(D100-A)*%
X429270000Y-173980000D03*
%TO.P,SW13,5*%
%TO.N,Net-(D102-A)*%
X429270000Y-171440000D03*
%TO.P,SW13,6*%
%TO.N,Net-(D104-A)*%
X429270000Y-168900000D03*
%TO.P,SW13,7*%
%TO.N,2Im0*%
X421650000Y-168900000D03*
%TO.P,SW13,8*%
%TO.N,2Im1*%
X421650000Y-171440000D03*
%TO.P,SW13,9*%
%TO.N,2Im2*%
X421650000Y-173980000D03*
%TO.P,SW13,10*%
%TO.N,2Im3*%
X421650000Y-176520000D03*
%TO.P,SW13,11*%
%TO.N,2Im4*%
X421650000Y-179060000D03*
%TO.P,SW13,12*%
%TO.N,2Im5*%
X421650000Y-181600000D03*
%TD*%
D10*
%TO.P,D394,1,K*%
%TO.N,Net-(D376-K)*%
X490845000Y-44545000D03*
D11*
%TO.P,D394,2,A*%
%TO.N,Net-(D394-A)*%
X483225000Y-44545000D03*
%TD*%
D12*
%TO.P,C3,1*%
%TO.N,+5V*%
X564995000Y-185545000D03*
%TO.P,C3,2*%
%TO.N,GND*%
X567495000Y-185545000D03*
%TD*%
D10*
%TO.P,D18,1,K*%
%TO.N,Net-(D16-K)*%
X414665000Y-155055000D03*
D11*
%TO.P,D18,2,A*%
%TO.N,Net-(D18-A)*%
X407045000Y-155055000D03*
%TD*%
D10*
%TO.P,D378,1,K*%
%TO.N,Net-(D376-K)*%
X490845000Y-66135000D03*
D11*
%TO.P,D378,2,A*%
%TO.N,Net-(D378-A)*%
X483225000Y-66135000D03*
%TD*%
D10*
%TO.P,D65,1,K*%
%TO.N,Net-(D47-K)*%
X414665000Y-44535000D03*
D11*
%TO.P,D65,2,A*%
%TO.N,Net-(D65-A)*%
X407045000Y-44535000D03*
%TD*%
D13*
%TO.P,D106,1,K*%
%TO.N,Net-(D106-K)*%
X436255000Y-71110000D03*
D14*
%TO.P,D106,2,A*%
%TO.N,Net-(D106-A)*%
X433715000Y-71110000D03*
%TD*%
D10*
%TO.P,D28,1,K*%
%TO.N,Net-(D16-K)*%
X414665000Y-128355000D03*
D11*
%TO.P,D28,2,A*%
%TO.N,Net-(D28-A)*%
X407045000Y-128355000D03*
%TD*%
D10*
%TO.P,D349,1,K*%
%TO.N,Net-(D347-K)*%
X490885000Y-111855000D03*
D11*
%TO.P,D349,2,A*%
%TO.N,Net-(D349-A)*%
X483265000Y-111855000D03*
%TD*%
D10*
%TO.P,D358,1,K*%
%TO.N,Net-(D346-K)*%
X490885000Y-190595000D03*
D11*
%TO.P,D358,2,A*%
%TO.N,Net-(D358-A)*%
X483265000Y-190595000D03*
%TD*%
D10*
%TO.P,D375,1,K*%
%TO.N,Net-(D347-K)*%
X490885000Y-77565000D03*
D11*
%TO.P,D375,2,A*%
%TO.N,Net-(D375-A)*%
X483265000Y-77565000D03*
%TD*%
D10*
%TO.P,SW46,1*%
%TO.N,Net-(D335-A)*%
X454650000Y-44450000D03*
D11*
%TO.P,SW46,2*%
%TO.N,Net-(D337-A)*%
X454650000Y-41910000D03*
%TO.P,SW46,3*%
%TO.N,Net-(D339-A)*%
X454650000Y-39370000D03*
%TO.P,SW46,4*%
%TO.N,Net-(D341-A)*%
X454650000Y-36830000D03*
%TO.P,SW46,5*%
%TO.N,Net-(D343-A)*%
X454650000Y-34290000D03*
%TO.P,SW46,6*%
%TO.N,Net-(D345-A)*%
X454650000Y-31750000D03*
%TO.P,SW46,7*%
%TO.N,2Im0*%
X447030000Y-31750000D03*
%TO.P,SW46,8*%
%TO.N,2Im1*%
X447030000Y-34290000D03*
%TO.P,SW46,9*%
%TO.N,2Im2*%
X447030000Y-36830000D03*
%TO.P,SW46,10*%
%TO.N,2Im3*%
X447030000Y-39370000D03*
%TO.P,SW46,11*%
%TO.N,2Im4*%
X447030000Y-41910000D03*
%TO.P,SW46,12*%
%TO.N,2Im5*%
X447030000Y-44450000D03*
%TD*%
D10*
%TO.P,SW53,1*%
%TO.N,Net-(D394-A)*%
X480050000Y-44450000D03*
D11*
%TO.P,SW53,2*%
%TO.N,Net-(D396-A)*%
X480050000Y-41910000D03*
%TO.P,SW53,3*%
%TO.N,Net-(D398-A)*%
X480050000Y-39370000D03*
%TO.P,SW53,4*%
%TO.N,Net-(D400-A)*%
X480050000Y-36830000D03*
%TO.P,SW53,5*%
%TO.N,Net-(D402-A)*%
X480050000Y-34290000D03*
%TO.P,SW53,6*%
%TO.N,Net-(D404-A)*%
X480050000Y-31750000D03*
%TO.P,SW53,7*%
%TO.N,2Im0*%
X472430000Y-31750000D03*
%TO.P,SW53,8*%
%TO.N,2Im1*%
X472430000Y-34290000D03*
%TO.P,SW53,9*%
%TO.N,2Im2*%
X472430000Y-36830000D03*
%TO.P,SW53,10*%
%TO.N,2Im3*%
X472430000Y-39370000D03*
%TO.P,SW53,11*%
%TO.N,2Im4*%
X472430000Y-41910000D03*
%TO.P,SW53,12*%
%TO.N,2Im5*%
X472430000Y-44450000D03*
%TD*%
D10*
%TO.P,D302,1,K*%
%TO.N,Net-(D301-K)*%
X465455000Y-111855000D03*
D11*
%TO.P,D302,2,A*%
%TO.N,Net-(D302-A)*%
X457835000Y-111855000D03*
%TD*%
D10*
%TO.P,D97,1,K*%
%TO.N,Net-(D101-K)*%
X440065000Y-87715000D03*
D11*
%TO.P,D97,2,A*%
%TO.N,Net-(D97-A)*%
X432445000Y-87715000D03*
%TD*%
D10*
%TO.P,SW48,1*%
%TO.N,Net-(D349-A)*%
X480090000Y-111760000D03*
D11*
%TO.P,SW48,2*%
%TO.N,Net-(D351-A)*%
X480090000Y-109220000D03*
%TO.P,SW48,3*%
%TO.N,Net-(D353-A)*%
X480090000Y-106680000D03*
%TO.P,SW48,4*%
%TO.N,Net-(D355-A)*%
X480090000Y-104140000D03*
%TO.P,SW48,5*%
%TO.N,Net-(D357-A)*%
X480090000Y-101600000D03*
%TO.P,SW48,6*%
%TO.N,Net-(D359-A)*%
X480090000Y-99060000D03*
%TO.P,SW48,7*%
%TO.N,Net-(D361-A)*%
X480090000Y-96520000D03*
%TO.P,SW48,8*%
%TO.N,Net-(D363-A)*%
X480090000Y-93980000D03*
%TO.P,SW48,9*%
%TO.N,2ol0*%
X472470000Y-93980000D03*
%TO.P,SW48,10*%
%TO.N,2ol1*%
X472470000Y-96520000D03*
%TO.P,SW48,11*%
%TO.N,2ol2*%
X472470000Y-99060000D03*
%TO.P,SW48,12*%
%TO.N,2ol3*%
X472470000Y-101600000D03*
%TO.P,SW48,13*%
%TO.N,2oc0*%
X472470000Y-104140000D03*
%TO.P,SW48,14*%
%TO.N,2oc1*%
X472470000Y-106680000D03*
%TO.P,SW48,15*%
%TO.N,2oc2*%
X472470000Y-109220000D03*
%TO.P,SW48,16*%
%TO.N,2oc3*%
X472470000Y-111760000D03*
%TD*%
D10*
%TO.P,D132,1,K*%
%TO.N,Net-(D106-K)*%
X440065000Y-34375000D03*
D11*
%TO.P,D132,2,A*%
%TO.N,Net-(D132-A)*%
X432445000Y-34375000D03*
%TD*%
D10*
%TO.P,D45,1,K*%
%TO.N,Net-(D31-K)*%
X414665000Y-77555000D03*
D11*
%TO.P,D45,2,A*%
%TO.N,Net-(D45-A)*%
X407045000Y-77555000D03*
%TD*%
D13*
%TO.P,D107,1,K*%
%TO.N,Net-(D107-K)*%
X436255000Y-162550000D03*
D14*
%TO.P,D107,2,A*%
%TO.N,Net-(D107-A)*%
X433715000Y-162550000D03*
%TD*%
D10*
%TO.P,SW4,1*%
%TO.N,Net-(D25-A)*%
X403870000Y-135975000D03*
D11*
%TO.P,SW4,2*%
%TO.N,Net-(D26-A)*%
X403870000Y-133435000D03*
%TO.P,SW4,3*%
%TO.N,Net-(D27-A)*%
X403870000Y-130895000D03*
%TO.P,SW4,4*%
%TO.N,Net-(D28-A)*%
X403870000Y-128355000D03*
%TO.P,SW4,5*%
%TO.N,Net-(D29-A)*%
X403870000Y-125815000D03*
%TO.P,SW4,6*%
%TO.N,Net-(D30-A)*%
X403870000Y-123275000D03*
%TO.P,SW4,7*%
%TO.N,2Im0*%
X396250000Y-123275000D03*
%TO.P,SW4,8*%
%TO.N,2Im1*%
X396250000Y-125815000D03*
%TO.P,SW4,9*%
%TO.N,2Im2*%
X396250000Y-128355000D03*
%TO.P,SW4,10*%
%TO.N,2Im3*%
X396250000Y-130895000D03*
%TO.P,SW4,11*%
%TO.N,2Im4*%
X396250000Y-133435000D03*
%TO.P,SW4,12*%
%TO.N,2Im5*%
X396250000Y-135975000D03*
%TD*%
D12*
%TO.P,C2,1*%
%TO.N,+5V*%
X528320000Y-97175000D03*
%TO.P,C2,2*%
%TO.N,GND*%
X528320000Y-99675000D03*
%TD*%
D10*
%TO.P,D368,1,K*%
%TO.N,Net-(D346-K)*%
X490885000Y-176625000D03*
D11*
%TO.P,D368,2,A*%
%TO.N,Net-(D368-A)*%
X483265000Y-176625000D03*
%TD*%
D15*
%TO.P,J1,1,Pin_1*%
%TO.N,oc3*%
X564083200Y-109499400D03*
D16*
%TO.P,J1,2,Pin_2*%
%TO.N,oc2*%
X566623200Y-109499400D03*
%TO.P,J1,3,Pin_3*%
%TO.N,oc1*%
X564083200Y-112039400D03*
%TO.P,J1,4,Pin_4*%
%TO.N,oc0*%
X566623200Y-112039400D03*
%TO.P,J1,5,Pin_5*%
%TO.N,ol3*%
X564083200Y-114579400D03*
%TO.P,J1,6,Pin_6*%
%TO.N,ol2*%
X566623200Y-114579400D03*
%TO.P,J1,7,Pin_7*%
%TO.N,ol1*%
X564083200Y-117119400D03*
%TO.P,J1,8,Pin_8*%
%TO.N,ol0*%
X566623200Y-117119400D03*
%TO.P,J1,9,Pin_9*%
%TO.N,Im5*%
X564083200Y-119659400D03*
%TO.P,J1,10,Pin_10*%
%TO.N,Im4*%
X566623200Y-119659400D03*
%TO.P,J1,11,Pin_11*%
%TO.N,Im3*%
X564083200Y-122199400D03*
%TO.P,J1,12,Pin_12*%
%TO.N,Im2*%
X566623200Y-122199400D03*
%TO.P,J1,13,Pin_13*%
%TO.N,Im1*%
X564083200Y-124739400D03*
%TO.P,J1,14,Pin_14*%
%TO.N,Im0*%
X566623200Y-124739400D03*
%TO.P,J1,15,Pin_15*%
%TO.N,unconnected-(J1-Pin_15-Pad15)*%
X564083200Y-127279400D03*
%TO.P,J1,16,Pin_16*%
%TO.N,unconnected-(J1-Pin_16-Pad16)*%
X566623200Y-127279400D03*
%TO.P,J1,17,Pin_17*%
%TO.N,unconnected-(J1-Pin_17-Pad17)*%
X564083200Y-129819400D03*
%TO.P,J1,18,Pin_18*%
%TO.N,unconnected-(J1-Pin_18-Pad18)*%
X566623200Y-129819400D03*
%TO.P,J1,19,Pin_19*%
%TO.N,unconnected-(J1-Pin_19-Pad19)*%
X564083200Y-132359400D03*
%TO.P,J1,20,Pin_20*%
%TO.N,unconnected-(J1-Pin_20-Pad20)*%
X566623200Y-132359400D03*
%TO.P,J1,21,Pin_21*%
%TO.N,unconnected-(J1-Pin_21-Pad21)*%
X564083200Y-134899400D03*
%TO.P,J1,22,Pin_22*%
%TO.N,unconnected-(J1-Pin_22-Pad22)*%
X566623200Y-134899400D03*
%TO.P,J1,23,Pin_23*%
%TO.N,unconnected-(J1-Pin_23-Pad23)*%
X564083200Y-137439400D03*
%TO.P,J1,24,Pin_24*%
%TO.N,unconnected-(J1-Pin_24-Pad24)*%
X566623200Y-137439400D03*
%TO.P,J1,25,Pin_25*%
%TO.N,unconnected-(J1-Pin_25-Pad25)*%
X564083200Y-139979400D03*
%TO.P,J1,26,Pin_26*%
%TO.N,unconnected-(J1-Pin_26-Pad26)*%
X566623200Y-139979400D03*
%TO.P,J1,27,Pin_27*%
%TO.N,unconnected-(J1-Pin_27-Pad27)*%
X564083200Y-142519400D03*
%TO.P,J1,28,Pin_28*%
%TO.N,unconnected-(J1-Pin_28-Pad28)*%
X566623200Y-142519400D03*
%TO.P,J1,29,Pin_29*%
%TO.N,unconnected-(J1-Pin_29-Pad29)*%
X564083200Y-145059400D03*
%TO.P,J1,30,Pin_30*%
%TO.N,unconnected-(J1-Pin_30-Pad30)*%
X566623200Y-145059400D03*
%TO.P,J1,31,Pin_31*%
%TO.N,unconnected-(J1-Pin_31-Pad31)*%
X564083200Y-147599400D03*
%TO.P,J1,32,Pin_32*%
%TO.N,unconnected-(J1-Pin_32-Pad32)*%
X566623200Y-147599400D03*
%TO.P,J1,33,Pin_33*%
%TO.N,unconnected-(J1-Pin_33-Pad33)*%
X564083200Y-150139400D03*
%TO.P,J1,34,Pin_34*%
%TO.N,unconnected-(J1-Pin_34-Pad34)*%
X566623200Y-150139400D03*
%TD*%
D12*
%TO.P,R49,1*%
%TO.N,2ol0*%
X528955000Y-33020000D03*
D11*
%TO.P,R49,2*%
%TO.N,+5V*%
X528955000Y-43180000D03*
%TD*%
D10*
%TO.P,D87,1,K*%
%TO.N,Net-(D101-K)*%
X440065000Y-101685000D03*
D11*
%TO.P,D87,2,A*%
%TO.N,Net-(D87-A)*%
X432445000Y-101685000D03*
%TD*%
D13*
%TO.P,D377,1,K*%
%TO.N,Net-(D377-K)*%
X487075000Y-162560000D03*
D14*
%TO.P,D377,2,A*%
%TO.N,Net-(D377-A)*%
X484535000Y-162560000D03*
%TD*%
D10*
%TO.P,D298,1,K*%
%TO.N,Net-(D286-K)*%
X465455000Y-128365000D03*
D11*
%TO.P,D298,2,A*%
%TO.N,Net-(D298-A)*%
X457835000Y-128365000D03*
%TD*%
D12*
%TO.P,R39,1*%
%TO.N,+5V*%
X471835000Y-116840000D03*
D11*
%TO.P,R39,2*%
%TO.N,Net-(D347-A)*%
X481995000Y-116840000D03*
%TD*%
D10*
%TO.P,D364,1,K*%
%TO.N,Net-(D346-K)*%
X490885000Y-181705000D03*
D11*
%TO.P,D364,2,A*%
%TO.N,Net-(D364-A)*%
X483265000Y-181705000D03*
%TD*%
D10*
%TO.P,D362,1,K*%
%TO.N,Net-(D346-K)*%
X490885000Y-185515000D03*
D11*
%TO.P,D362,2,A*%
%TO.N,Net-(D362-A)*%
X483265000Y-185515000D03*
%TD*%
D10*
%TO.P,D303,1,K*%
%TO.N,Net-(D301-K)*%
X465455000Y-109315000D03*
D11*
%TO.P,D303,2,A*%
%TO.N,Net-(D303-A)*%
X457835000Y-109315000D03*
%TD*%
D10*
%TO.P,D55,1,K*%
%TO.N,Net-(D47-K)*%
X414665000Y-58505000D03*
D11*
%TO.P,D55,2,A*%
%TO.N,Net-(D55-A)*%
X407045000Y-58505000D03*
%TD*%
D10*
%TO.P,D121,1,K*%
%TO.N,Net-(D107-K)*%
X440065000Y-142325000D03*
D11*
%TO.P,D121,2,A*%
%TO.N,Net-(D121-A)*%
X432445000Y-142325000D03*
%TD*%
D10*
%TO.P,D38,1,K*%
%TO.N,Net-(D31-K)*%
X414665000Y-96605000D03*
D11*
%TO.P,D38,2,A*%
%TO.N,Net-(D38-A)*%
X407045000Y-96605000D03*
%TD*%
D10*
%TO.P,D361,1,K*%
%TO.N,Net-(D347-K)*%
X490885000Y-96615000D03*
D11*
%TO.P,D361,2,A*%
%TO.N,Net-(D361-A)*%
X483265000Y-96615000D03*
%TD*%
D12*
%TO.P,R3,1*%
%TO.N,+5V*%
X395615000Y-116925000D03*
D11*
%TO.P,R3,2*%
%TO.N,Net-(D31-A)*%
X405775000Y-116925000D03*
%TD*%
D10*
%TO.P,D371,1,K*%
%TO.N,Net-(D347-K)*%
X490885000Y-82645000D03*
D11*
%TO.P,D371,2,A*%
%TO.N,Net-(D371-A)*%
X483265000Y-82645000D03*
%TD*%
D10*
%TO.P,D131,1,K*%
%TO.N,Net-(D107-K)*%
X440065000Y-128355000D03*
D11*
%TO.P,D131,2,A*%
%TO.N,Net-(D131-A)*%
X432445000Y-128355000D03*
%TD*%
D10*
%TO.P,SW17,1*%
%TO.N,Net-(D124-A)*%
X429260000Y-44450000D03*
D11*
%TO.P,SW17,2*%
%TO.N,Net-(D126-A)*%
X429260000Y-41910000D03*
%TO.P,SW17,3*%
%TO.N,Net-(D128-A)*%
X429260000Y-39370000D03*
%TO.P,SW17,4*%
%TO.N,Net-(D130-A)*%
X429260000Y-36830000D03*
%TO.P,SW17,5*%
%TO.N,Net-(D132-A)*%
X429260000Y-34290000D03*
%TO.P,SW17,6*%
%TO.N,Net-(D134-A)*%
X429260000Y-31750000D03*
%TO.P,SW17,7*%
%TO.N,2Im0*%
X421640000Y-31750000D03*
%TO.P,SW17,8*%
%TO.N,2Im1*%
X421640000Y-34290000D03*
%TO.P,SW17,9*%
%TO.N,2Im2*%
X421640000Y-36830000D03*
%TO.P,SW17,10*%
%TO.N,2Im3*%
X421640000Y-39370000D03*
%TO.P,SW17,11*%
%TO.N,2Im4*%
X421640000Y-41910000D03*
%TO.P,SW17,12*%
%TO.N,2Im5*%
X421640000Y-44450000D03*
%TD*%
D10*
%TO.P,D351,1,K*%
%TO.N,Net-(D347-K)*%
X490885000Y-109315000D03*
D11*
%TO.P,D351,2,A*%
%TO.N,Net-(D351-A)*%
X483265000Y-109315000D03*
%TD*%
D10*
%TO.P,D117,1,K*%
%TO.N,Net-(D107-K)*%
X440065000Y-147405000D03*
D11*
%TO.P,D117,2,A*%
%TO.N,Net-(D117-A)*%
X432445000Y-147405000D03*
%TD*%
D10*
%TO.P,D75,1,K*%
%TO.N,Net-(D47-K)*%
X414665000Y-31835000D03*
D11*
%TO.P,D75,2,A*%
%TO.N,Net-(D75-A)*%
X407045000Y-31835000D03*
%TD*%
D10*
%TO.P,D98,1,K*%
%TO.N,Net-(D100-K)*%
X440065000Y-176615000D03*
D11*
%TO.P,D98,2,A*%
%TO.N,Net-(D98-A)*%
X432445000Y-176615000D03*
%TD*%
D10*
%TO.P,D345,1,K*%
%TO.N,Net-(D317-K)*%
X465455000Y-31845000D03*
D11*
%TO.P,D345,2,A*%
%TO.N,Net-(D345-A)*%
X457835000Y-31845000D03*
%TD*%
D10*
%TO.P,D108,1,K*%
%TO.N,Net-(D106-K)*%
X440065000Y-66125000D03*
D11*
%TO.P,D108,2,A*%
%TO.N,Net-(D108-A)*%
X432445000Y-66125000D03*
%TD*%
D13*
%TO.P,D1,1,K*%
%TO.N,Net-(D1-K)*%
X410760000Y-208365000D03*
D14*
%TO.P,D1,2,A*%
%TO.N,Net-(D1-A)*%
X408220000Y-208365000D03*
%TD*%
D10*
%TO.P,D388,1,K*%
%TO.N,Net-(D376-K)*%
X490845000Y-53435000D03*
D11*
%TO.P,D388,2,A*%
%TO.N,Net-(D388-A)*%
X483225000Y-53435000D03*
%TD*%
D12*
%TO.P,R45,1*%
%TO.N,2oc0*%
X511175000Y-33020000D03*
D11*
%TO.P,R45,2*%
%TO.N,+5V*%
X511175000Y-43180000D03*
%TD*%
D10*
%TO.P,D321,1,K*%
%TO.N,Net-(D317-K)*%
X465455000Y-63565000D03*
D11*
%TO.P,D321,2,A*%
%TO.N,Net-(D321-A)*%
X457835000Y-63565000D03*
%TD*%
D10*
%TO.P,D339,1,K*%
%TO.N,Net-(D317-K)*%
X465455000Y-39465000D03*
D11*
%TO.P,D339,2,A*%
%TO.N,Net-(D339-A)*%
X457835000Y-39465000D03*
%TD*%
D10*
%TO.P,D122,1,K*%
%TO.N,Net-(D106-K)*%
X440065000Y-48345000D03*
D11*
%TO.P,D122,2,A*%
%TO.N,Net-(D122-A)*%
X432445000Y-48345000D03*
%TD*%
D10*
%TO.P,D11,1,K*%
%TO.N,Net-(D1-K)*%
X414665000Y-179155000D03*
D11*
%TO.P,D11,2,A*%
%TO.N,Net-(D11-A)*%
X407045000Y-179155000D03*
%TD*%
D10*
%TO.P,D71,1,K*%
%TO.N,Net-(D47-K)*%
X414665000Y-36915000D03*
D11*
%TO.P,D71,2,A*%
%TO.N,Net-(D71-A)*%
X407045000Y-36915000D03*
%TD*%
D13*
%TO.P,D77,1,K*%
%TO.N,Net-(D101-K)*%
X436255000Y-116830000D03*
D14*
%TO.P,D77,2,A*%
%TO.N,Net-(D77-A)*%
X433715000Y-116830000D03*
%TD*%
D10*
%TO.P,SW38,1*%
%TO.N,Net-(D280-A)*%
X454650000Y-181610000D03*
D11*
%TO.P,SW38,2*%
%TO.N,Net-(D281-A)*%
X454650000Y-179070000D03*
%TO.P,SW38,3*%
%TO.N,Net-(D282-A)*%
X454650000Y-176530000D03*
%TO.P,SW38,4*%
%TO.N,Net-(D283-A)*%
X454650000Y-173990000D03*
%TO.P,SW38,5*%
%TO.N,Net-(D284-A)*%
X454650000Y-171450000D03*
%TO.P,SW38,6*%
%TO.N,Net-(D285-A)*%
X454650000Y-168910000D03*
%TO.P,SW38,7*%
%TO.N,2Im0*%
X447030000Y-168910000D03*
%TO.P,SW38,8*%
%TO.N,2Im1*%
X447030000Y-171450000D03*
%TO.P,SW38,9*%
%TO.N,2Im2*%
X447030000Y-173990000D03*
%TO.P,SW38,10*%
%TO.N,2Im3*%
X447030000Y-176530000D03*
%TO.P,SW38,11*%
%TO.N,2Im4*%
X447030000Y-179070000D03*
%TO.P,SW38,12*%
%TO.N,2Im5*%
X447030000Y-181610000D03*
%TD*%
D12*
%TO.P,R41,1*%
%TO.N,+5V*%
X471835000Y-162560000D03*
D11*
%TO.P,R41,2*%
%TO.N,Net-(D377-A)*%
X481995000Y-162560000D03*
%TD*%
D10*
%TO.P,D312,1,K*%
%TO.N,Net-(D301-K)*%
X465455000Y-85185000D03*
D11*
%TO.P,D312,2,A*%
%TO.N,Net-(D312-A)*%
X457835000Y-85185000D03*
%TD*%
D10*
%TO.P,D102,1,K*%
%TO.N,Net-(D100-K)*%
X440065000Y-171535000D03*
D11*
%TO.P,D102,2,A*%
%TO.N,Net-(D102-A)*%
X432445000Y-171535000D03*
%TD*%
D10*
%TO.P,D277,1,K*%
%TO.N,Net-(D271-K)*%
X465455000Y-190595000D03*
D11*
%TO.P,D277,2,A*%
%TO.N,Net-(D277-A)*%
X457835000Y-190595000D03*
%TD*%
D10*
%TO.P,D104,1,K*%
%TO.N,Net-(D100-K)*%
X440065000Y-168995000D03*
D11*
%TO.P,D104,2,A*%
%TO.N,Net-(D104-A)*%
X432445000Y-168995000D03*
%TD*%
D10*
%TO.P,D323,1,K*%
%TO.N,Net-(D317-K)*%
X465455000Y-61055000D03*
D11*
%TO.P,D323,2,A*%
%TO.N,Net-(D323-A)*%
X457835000Y-61055000D03*
%TD*%
D12*
%TO.P,R1,1*%
%TO.N,+5V*%
X395615000Y-208270000D03*
D11*
%TO.P,R1,2*%
%TO.N,Net-(D1-A)*%
X405775000Y-208270000D03*
%TD*%
D10*
%TO.P,U6,1*%
%TO.N,pc4*%
X570465000Y-177875000D03*
D11*
%TO.P,U6,2*%
%TO.N,Net-(U5-Pad2)*%
X570465000Y-175335000D03*
%TO.P,U6,3*%
%TO.N,pc3*%
X570465000Y-172795000D03*
%TO.P,U6,4*%
%TO.N,Net-(U5-Pad1)*%
X570465000Y-170255000D03*
%TO.P,U6,5*%
%TO.N,pc4*%
X570465000Y-167715000D03*
%TO.P,U6,6*%
%TO.N,Net-(U5-Pad4)*%
X570465000Y-165175000D03*
%TO.P,U6,7,GND*%
%TO.N,GND*%
X570465000Y-162635000D03*
%TO.P,U6,8*%
%TO.N,unconnected-(U6-Pad8)*%
X562845000Y-162635000D03*
%TO.P,U6,9*%
%TO.N,GND*%
X562845000Y-165175000D03*
%TO.P,U6,10*%
%TO.N,unconnected-(U6-Pad10)*%
X562845000Y-167715000D03*
%TO.P,U6,11*%
%TO.N,GND*%
X562845000Y-170255000D03*
%TO.P,U6,12*%
%TO.N,unconnected-(U6-Pad12)*%
X562845000Y-172795000D03*
%TO.P,U6,13*%
%TO.N,GND*%
X562845000Y-175335000D03*
%TO.P,U6,14,Vcc*%
%TO.N,+5V*%
X562845000Y-177875000D03*
%TD*%
D10*
%TO.P,SW44,1*%
%TO.N,Net-(D319-A)*%
X454660000Y-66040000D03*
D11*
%TO.P,SW44,2*%
%TO.N,Net-(D321-A)*%
X454660000Y-63500000D03*
%TO.P,SW44,3*%
%TO.N,Net-(D323-A)*%
X454660000Y-60960000D03*
%TO.P,SW44,4*%
%TO.N,Net-(D325-A)*%
X454660000Y-58420000D03*
%TO.P,SW44,5*%
%TO.N,Net-(D327-A)*%
X454660000Y-55880000D03*
%TO.P,SW44,6*%
%TO.N,Net-(D329-A)*%
X454660000Y-53340000D03*
%TO.P,SW44,7*%
%TO.N,Net-(D331-A)*%
X454660000Y-50800000D03*
%TO.P,SW44,8*%
%TO.N,Net-(D333-A)*%
X454660000Y-48260000D03*
%TO.P,SW44,9*%
%TO.N,2ol0*%
X447040000Y-48260000D03*
%TO.P,SW44,10*%
%TO.N,2ol1*%
X447040000Y-50800000D03*
%TO.P,SW44,11*%
%TO.N,2ol2*%
X447040000Y-53340000D03*
%TO.P,SW44,12*%
%TO.N,2ol3*%
X447040000Y-55880000D03*
%TO.P,SW44,13*%
%TO.N,2oc0*%
X447040000Y-58420000D03*
%TO.P,SW44,14*%
%TO.N,2oc1*%
X447040000Y-60960000D03*
%TO.P,SW44,15*%
%TO.N,2oc2*%
X447040000Y-63500000D03*
%TO.P,SW44,16*%
%TO.N,2oc3*%
X447040000Y-66040000D03*
%TD*%
D10*
%TO.P,D392,1,K*%
%TO.N,Net-(D376-K)*%
X490845000Y-48355000D03*
D11*
%TO.P,D392,2,A*%
%TO.N,Net-(D392-A)*%
X483225000Y-48355000D03*
%TD*%
D12*
%TO.P,R6,1*%
%TO.N,+5V*%
X421015000Y-208270000D03*
D11*
%TO.P,R6,2*%
%TO.N,Net-(D76-A)*%
X431175000Y-208270000D03*
%TD*%
D10*
%TO.P,D380,1,K*%
%TO.N,Net-(D376-K)*%
X490845000Y-63595000D03*
D11*
%TO.P,D380,2,A*%
%TO.N,Net-(D380-A)*%
X483225000Y-63595000D03*
%TD*%
D10*
%TO.P,D20,1,K*%
%TO.N,Net-(D16-K)*%
X414665000Y-149975000D03*
D11*
%TO.P,D20,2,A*%
%TO.N,Net-(D20-A)*%
X407045000Y-149975000D03*
%TD*%
D10*
%TO.P,D389,1,K*%
%TO.N,Net-(D377-K)*%
X490845000Y-144875000D03*
D11*
%TO.P,D389,2,A*%
%TO.N,Net-(D389-A)*%
X483225000Y-144875000D03*
%TD*%
D10*
%TO.P,D127,1,K*%
%TO.N,Net-(D107-K)*%
X440065000Y-133435000D03*
D11*
%TO.P,D127,2,A*%
%TO.N,Net-(D127-A)*%
X432445000Y-133435000D03*
%TD*%
D10*
%TO.P,D354,1,K*%
%TO.N,Net-(D346-K)*%
X490885000Y-195675000D03*
D11*
%TO.P,D354,2,A*%
%TO.N,Net-(D354-A)*%
X483265000Y-195675000D03*
%TD*%
D10*
%TO.P,D311,1,K*%
%TO.N,Net-(D301-K)*%
X465455000Y-87725000D03*
D11*
%TO.P,D311,2,A*%
%TO.N,Net-(D311-A)*%
X457835000Y-87725000D03*
%TD*%
D10*
%TO.P,D59,1,K*%
%TO.N,Net-(D47-K)*%
X414665000Y-53425000D03*
D11*
%TO.P,D59,2,A*%
%TO.N,Net-(D59-A)*%
X407045000Y-53425000D03*
%TD*%
D10*
%TO.P,D369,1,K*%
%TO.N,Net-(D347-K)*%
X490885000Y-85185000D03*
D11*
%TO.P,D369,2,A*%
%TO.N,Net-(D369-A)*%
X483265000Y-85185000D03*
%TD*%
D10*
%TO.P,D12,1,K*%
%TO.N,Net-(D1-K)*%
X414665000Y-176615000D03*
D11*
%TO.P,D12,2,A*%
%TO.N,Net-(D12-A)*%
X407045000Y-176615000D03*
%TD*%
D10*
%TO.P,D111,1,K*%
%TO.N,Net-(D107-K)*%
X440065000Y-155025000D03*
D11*
%TO.P,D111,2,A*%
%TO.N,Net-(D111-A)*%
X432445000Y-155025000D03*
%TD*%
D10*
%TO.P,D135,1,K*%
%TO.N,Net-(D107-K)*%
X440065000Y-123275000D03*
D11*
%TO.P,D135,2,A*%
%TO.N,Net-(D135-A)*%
X432445000Y-123275000D03*
%TD*%
D10*
%TO.P,SW52,1*%
%TO.N,Net-(D379-A)*%
X480090000Y-157480000D03*
D11*
%TO.P,SW52,2*%
%TO.N,Net-(D381-A)*%
X480090000Y-154940000D03*
%TO.P,SW52,3*%
%TO.N,Net-(D383-A)*%
X480090000Y-152400000D03*
%TO.P,SW52,4*%
%TO.N,Net-(D385-A)*%
X480090000Y-149860000D03*
%TO.P,SW52,5*%
%TO.N,Net-(D387-A)*%
X480090000Y-147320000D03*
%TO.P,SW52,6*%
%TO.N,Net-(D389-A)*%
X480090000Y-144780000D03*
%TO.P,SW52,7*%
%TO.N,Net-(D391-A)*%
X480090000Y-142240000D03*
%TO.P,SW52,8*%
%TO.N,Net-(D393-A)*%
X480090000Y-139700000D03*
%TO.P,SW52,9*%
%TO.N,2ol0*%
X472470000Y-139700000D03*
%TO.P,SW52,10*%
%TO.N,2ol1*%
X472470000Y-142240000D03*
%TO.P,SW52,11*%
%TO.N,2ol2*%
X472470000Y-144780000D03*
%TO.P,SW52,12*%
%TO.N,2ol3*%
X472470000Y-147320000D03*
%TO.P,SW52,13*%
%TO.N,2oc0*%
X472470000Y-149860000D03*
%TO.P,SW52,14*%
%TO.N,2oc1*%
X472470000Y-152400000D03*
%TO.P,SW52,15*%
%TO.N,2oc2*%
X472470000Y-154940000D03*
%TO.P,SW52,16*%
%TO.N,2oc3*%
X472470000Y-157480000D03*
%TD*%
D10*
%TO.P,D25,1,K*%
%TO.N,Net-(D16-K)*%
X414665000Y-136090000D03*
D11*
%TO.P,D25,2,A*%
%TO.N,Net-(D25-A)*%
X407045000Y-136090000D03*
%TD*%
D10*
%TO.P,D67,1,K*%
%TO.N,Net-(D47-K)*%
X414665000Y-41995000D03*
D11*
%TO.P,D67,2,A*%
%TO.N,Net-(D67-A)*%
X407045000Y-41995000D03*
%TD*%
D12*
%TO.P,R40,1*%
%TO.N,+5V*%
X471835000Y-71120000D03*
D11*
%TO.P,R40,2*%
%TO.N,Net-(D376-A)*%
X481995000Y-71120000D03*
%TD*%
D10*
%TO.P,D348,1,K*%
%TO.N,Net-(D346-K)*%
X490885000Y-203295000D03*
D11*
%TO.P,D348,2,A*%
%TO.N,Net-(D348-A)*%
X483265000Y-203295000D03*
%TD*%
D10*
%TO.P,D384,1,K*%
%TO.N,Net-(D376-K)*%
X490845000Y-58515000D03*
D11*
%TO.P,D384,2,A*%
%TO.N,Net-(D384-A)*%
X483225000Y-58515000D03*
%TD*%
D10*
%TO.P,D353,1,K*%
%TO.N,Net-(D347-K)*%
X490885000Y-106775000D03*
D11*
%TO.P,D353,2,A*%
%TO.N,Net-(D353-A)*%
X483265000Y-106775000D03*
%TD*%
D10*
%TO.P,D297,1,K*%
%TO.N,Net-(D286-K)*%
X465455000Y-130905000D03*
D11*
%TO.P,D297,2,A*%
%TO.N,Net-(D297-A)*%
X457835000Y-130905000D03*
%TD*%
D12*
%TO.P,R37,1*%
%TO.N,+5V*%
X445155000Y-71120000D03*
D11*
%TO.P,R37,2*%
%TO.N,Net-(D317-A)*%
X455315000Y-71120000D03*
%TD*%
D10*
%TO.P,D295,1,K*%
%TO.N,Net-(D286-K)*%
X465455000Y-135985000D03*
D11*
%TO.P,D295,2,A*%
%TO.N,Net-(D295-A)*%
X457835000Y-135985000D03*
%TD*%
D10*
%TO.P,D36,1,K*%
%TO.N,Net-(D31-K)*%
X414665000Y-101685000D03*
D11*
%TO.P,D36,2,A*%
%TO.N,Net-(D36-A)*%
X407045000Y-101685000D03*
%TD*%
D10*
%TO.P,D123,1,K*%
%TO.N,Net-(D107-K)*%
X440065000Y-139785000D03*
D11*
%TO.P,D123,2,A*%
%TO.N,Net-(D123-A)*%
X432445000Y-139785000D03*
%TD*%
D12*
%TO.P,R50,1*%
%TO.N,2Im5*%
X535940000Y-33020000D03*
D11*
%TO.P,R50,2*%
%TO.N,+5V*%
X535940000Y-43180000D03*
%TD*%
D10*
%TO.P,D115,1,K*%
%TO.N,Net-(D107-K)*%
X440065000Y-149945000D03*
D11*
%TO.P,D115,2,A*%
%TO.N,Net-(D115-A)*%
X432445000Y-149945000D03*
%TD*%
D10*
%TO.P,D101,1,K*%
%TO.N,Net-(D101-K)*%
X440065000Y-82635000D03*
D11*
%TO.P,D101,2,A*%
%TO.N,Net-(D101-A)*%
X432445000Y-82635000D03*
%TD*%
D10*
%TO.P,D294,1,K*%
%TO.N,Net-(D286-K)*%
X465455000Y-139795000D03*
D11*
%TO.P,D294,2,A*%
%TO.N,Net-(D294-A)*%
X457835000Y-139795000D03*
%TD*%
D10*
%TO.P,D94,1,K*%
%TO.N,Net-(D100-K)*%
X440065000Y-181695000D03*
D11*
%TO.P,D94,2,A*%
%TO.N,Net-(D94-A)*%
X432445000Y-181695000D03*
%TD*%
D10*
%TO.P,D9,1,K*%
%TO.N,Net-(D1-K)*%
X414665000Y-185410000D03*
D11*
%TO.P,D9,2,A*%
%TO.N,Net-(D9-A)*%
X407045000Y-185410000D03*
%TD*%
D10*
%TO.P,D81,1,K*%
%TO.N,Net-(D101-K)*%
X440065000Y-109305000D03*
D11*
%TO.P,D81,2,A*%
%TO.N,Net-(D81-A)*%
X432445000Y-109305000D03*
%TD*%
D10*
%TO.P,D310,1,K*%
%TO.N,Net-(D301-K)*%
X465455000Y-90265000D03*
D11*
%TO.P,D310,2,A*%
%TO.N,Net-(D310-A)*%
X457835000Y-90265000D03*
%TD*%
D10*
%TO.P,D357,1,K*%
%TO.N,Net-(D347-K)*%
X490885000Y-101695000D03*
D11*
%TO.P,D357,2,A*%
%TO.N,Net-(D357-A)*%
X483265000Y-101695000D03*
%TD*%
D10*
%TO.P,SW8,1*%
%TO.N,Net-(D49-A)*%
X403860000Y-66040000D03*
D11*
%TO.P,SW8,2*%
%TO.N,Net-(D51-A)*%
X403860000Y-63500000D03*
%TO.P,SW8,3*%
%TO.N,Net-(D53-A)*%
X403860000Y-60960000D03*
%TO.P,SW8,4*%
%TO.N,Net-(D55-A)*%
X403860000Y-58420000D03*
%TO.P,SW8,5*%
%TO.N,Net-(D57-A)*%
X403860000Y-55880000D03*
%TO.P,SW8,6*%
%TO.N,Net-(D59-A)*%
X403860000Y-53340000D03*
%TO.P,SW8,7*%
%TO.N,Net-(D61-A)*%
X403860000Y-50800000D03*
%TO.P,SW8,8*%
%TO.N,Net-(D63-A)*%
X403860000Y-48260000D03*
%TO.P,SW8,9*%
%TO.N,2ol0*%
X396240000Y-48260000D03*
%TO.P,SW8,10*%
%TO.N,2ol1*%
X396240000Y-50800000D03*
%TO.P,SW8,11*%
%TO.N,2ol2*%
X396240000Y-53340000D03*
%TO.P,SW8,12*%
%TO.N,2ol3*%
X396240000Y-55880000D03*
%TO.P,SW8,13*%
%TO.N,2oc0*%
X396240000Y-58420000D03*
%TO.P,SW8,14*%
%TO.N,2oc1*%
X396240000Y-60960000D03*
%TO.P,SW8,15*%
%TO.N,2oc2*%
X396240000Y-63500000D03*
%TO.P,SW8,16*%
%TO.N,2oc3*%
X396240000Y-66040000D03*
%TD*%
D10*
%TO.P,D4,1,K*%
%TO.N,Net-(D1-K)*%
X414665000Y-198110000D03*
D11*
%TO.P,D4,2,A*%
%TO.N,Net-(D4-A)*%
X407045000Y-198110000D03*
%TD*%
D13*
%TO.P,D76,1,K*%
%TO.N,Net-(D100-K)*%
X436255000Y-208270000D03*
D14*
%TO.P,D76,2,A*%
%TO.N,Net-(D76-A)*%
X433715000Y-208270000D03*
%TD*%
D10*
%TO.P,D41,1,K*%
%TO.N,Net-(D31-K)*%
X414665000Y-87715000D03*
D11*
%TO.P,D41,2,A*%
%TO.N,Net-(D41-A)*%
X407045000Y-87715000D03*
%TD*%
D10*
%TO.P,D73,1,K*%
%TO.N,Net-(D47-K)*%
X414665000Y-34375000D03*
D11*
%TO.P,D73,2,A*%
%TO.N,Net-(D73-A)*%
X407045000Y-34375000D03*
%TD*%
D10*
%TO.P,D14,1,K*%
%TO.N,Net-(D1-K)*%
X414665000Y-171535000D03*
D11*
%TO.P,D14,2,A*%
%TO.N,Net-(D14-A)*%
X407045000Y-171535000D03*
%TD*%
D10*
%TO.P,D290,1,K*%
%TO.N,Net-(D286-K)*%
X465455000Y-149955000D03*
D11*
%TO.P,D290,2,A*%
%TO.N,Net-(D290-A)*%
X457835000Y-149955000D03*
%TD*%
D10*
%TO.P,SW12,1*%
%TO.N,Net-(D79-A)*%
X429260000Y-111760000D03*
D11*
%TO.P,SW12,2*%
%TO.N,Net-(D81-A)*%
X429260000Y-109220000D03*
%TO.P,SW12,3*%
%TO.N,Net-(D83-A)*%
X429260000Y-106680000D03*
%TO.P,SW12,4*%
%TO.N,Net-(D85-A)*%
X429260000Y-104140000D03*
%TO.P,SW12,5*%
%TO.N,Net-(D87-A)*%
X429260000Y-101600000D03*
%TO.P,SW12,6*%
%TO.N,Net-(D89-A)*%
X429260000Y-99060000D03*
%TO.P,SW12,7*%
%TO.N,Net-(D91-A)*%
X429260000Y-96520000D03*
%TO.P,SW12,8*%
%TO.N,Net-(D93-A)*%
X429260000Y-93980000D03*
%TO.P,SW12,9*%
%TO.N,2ol0*%
X421640000Y-93980000D03*
%TO.P,SW12,10*%
%TO.N,2ol1*%
X421640000Y-96520000D03*
%TO.P,SW12,11*%
%TO.N,2ol2*%
X421640000Y-99060000D03*
%TO.P,SW12,12*%
%TO.N,2ol3*%
X421640000Y-101600000D03*
%TO.P,SW12,13*%
%TO.N,2oc0*%
X421640000Y-104140000D03*
%TO.P,SW12,14*%
%TO.N,2oc1*%
X421640000Y-106680000D03*
%TO.P,SW12,15*%
%TO.N,2oc2*%
X421640000Y-109220000D03*
%TO.P,SW12,16*%
%TO.N,2oc3*%
X421640000Y-111760000D03*
%TD*%
D10*
%TO.P,D80,1,K*%
%TO.N,Net-(D100-K)*%
X440065000Y-200745000D03*
D11*
%TO.P,D80,2,A*%
%TO.N,Net-(D80-A)*%
X432445000Y-200745000D03*
%TD*%
D15*
%TO.P,J2,1,Pin_1*%
%TO.N,pc0*%
X564083200Y-43205400D03*
D16*
%TO.P,J2,2,Pin_2*%
%TO.N,pc1*%
X566623200Y-43205400D03*
%TO.P,J2,3,Pin_3*%
%TO.N,pc2*%
X564083200Y-45745400D03*
%TO.P,J2,4,Pin_4*%
%TO.N,pc3*%
X566623200Y-45745400D03*
%TO.P,J2,5,Pin_5*%
%TO.N,pc4*%
X564083200Y-48285400D03*
%TO.P,J2,6,Pin_6*%
%TO.N,unconnected-(J2-Pin_6-Pad6)*%
X566623200Y-48285400D03*
%TO.P,J2,7,Pin_7*%
%TO.N,2oc3*%
X564083200Y-50825400D03*
%TO.P,J2,8,Pin_8*%
%TO.N,2oc2*%
X566623200Y-50825400D03*
%TO.P,J2,9,Pin_9*%
%TO.N,2oc1*%
X564083200Y-53365400D03*
%TO.P,J2,10,Pin_10*%
%TO.N,2oc0*%
X566623200Y-53365400D03*
%TO.P,J2,11,Pin_11*%
%TO.N,2ol3*%
X564083200Y-55905400D03*
%TO.P,J2,12,Pin_12*%
%TO.N,2ol2*%
X566623200Y-55905400D03*
%TO.P,J2,13,Pin_13*%
%TO.N,2ol1*%
X564083200Y-58445400D03*
%TO.P,J2,14,Pin_14*%
%TO.N,2ol0*%
X566623200Y-58445400D03*
%TO.P,J2,15,Pin_15*%
%TO.N,2Im5*%
X564083200Y-60985400D03*
%TO.P,J2,16,Pin_16*%
%TO.N,2Im4*%
X566623200Y-60985400D03*
%TO.P,J2,17,Pin_17*%
%TO.N,2Im3*%
X564083200Y-63525400D03*
%TO.P,J2,18,Pin_18*%
%TO.N,2Im2*%
X566623200Y-63525400D03*
%TO.P,J2,19,Pin_19*%
%TO.N,2Im1*%
X564083200Y-66065400D03*
%TO.P,J2,20,Pin_20*%
%TO.N,2Im0*%
X566623200Y-66065400D03*
%TO.P,J2,21,Pin_21*%
%TO.N,+5V*%
X564083200Y-68605400D03*
%TO.P,J2,22,Pin_22*%
%TO.N,GND*%
X566623200Y-68605400D03*
%TO.P,J2,23,Pin_23*%
%TO.N,unconnected-(J2-Pin_23-Pad23)*%
X564083200Y-71145400D03*
%TO.P,J2,24,Pin_24*%
%TO.N,unconnected-(J2-Pin_24-Pad24)*%
X566623200Y-71145400D03*
%TO.P,J2,25,Pin_25*%
%TO.N,unconnected-(J2-Pin_25-Pad25)*%
X564083200Y-73685400D03*
%TO.P,J2,26,Pin_26*%
%TO.N,unconnected-(J2-Pin_26-Pad26)*%
X566623200Y-73685400D03*
%TO.P,J2,27,Pin_27*%
%TO.N,unconnected-(J2-Pin_27-Pad27)*%
X564083200Y-76225400D03*
%TO.P,J2,28,Pin_28*%
%TO.N,unconnected-(J2-Pin_28-Pad28)*%
X566623200Y-76225400D03*
%TO.P,J2,29,Pin_29*%
%TO.N,unconnected-(J2-Pin_29-Pad29)*%
X564083200Y-78765400D03*
%TO.P,J2,30,Pin_30*%
%TO.N,unconnected-(J2-Pin_30-Pad30)*%
X566623200Y-78765400D03*
%TO.P,J2,31,Pin_31*%
%TO.N,unconnected-(J2-Pin_31-Pad31)*%
X564083200Y-81305400D03*
%TO.P,J2,32,Pin_32*%
%TO.N,unconnected-(J2-Pin_32-Pad32)*%
X566623200Y-81305400D03*
%TO.P,J2,33,Pin_33*%
%TO.N,unconnected-(J2-Pin_33-Pad33)*%
X564083200Y-83845400D03*
%TO.P,J2,34,Pin_34*%
%TO.N,unconnected-(J2-Pin_34-Pad34)*%
X566623200Y-83845400D03*
%TD*%
D10*
%TO.P,D5,1,K*%
%TO.N,Net-(D1-K)*%
X414665000Y-195570000D03*
D11*
%TO.P,D5,2,A*%
%TO.N,Net-(D5-A)*%
X407045000Y-195570000D03*
%TD*%
D10*
%TO.P,SW3,1*%
%TO.N,Net-(D17-A)*%
X403870000Y-157565000D03*
D11*
%TO.P,SW3,2*%
%TO.N,Net-(D18-A)*%
X403870000Y-155025000D03*
%TO.P,SW3,3*%
%TO.N,Net-(D19-A)*%
X403870000Y-152485000D03*
%TO.P,SW3,4*%
%TO.N,Net-(D20-A)*%
X403870000Y-149945000D03*
%TO.P,SW3,5*%
%TO.N,Net-(D21-A)*%
X403870000Y-147405000D03*
%TO.P,SW3,6*%
%TO.N,Net-(D22-A)*%
X403870000Y-144865000D03*
%TO.P,SW3,7*%
%TO.N,Net-(D23-A)*%
X403870000Y-142325000D03*
%TO.P,SW3,8*%
%TO.N,Net-(D24-A)*%
X403870000Y-139785000D03*
%TO.P,SW3,9*%
%TO.N,2ol0*%
X396250000Y-139785000D03*
%TO.P,SW3,10*%
%TO.N,2ol1*%
X396250000Y-142325000D03*
%TO.P,SW3,11*%
%TO.N,2ol2*%
X396250000Y-144865000D03*
%TO.P,SW3,12*%
%TO.N,2ol3*%
X396250000Y-147405000D03*
%TO.P,SW3,13*%
%TO.N,2oc0*%
X396250000Y-149945000D03*
%TO.P,SW3,14*%
%TO.N,2oc1*%
X396250000Y-152485000D03*
%TO.P,SW3,15*%
%TO.N,2oc2*%
X396250000Y-155025000D03*
%TO.P,SW3,16*%
%TO.N,2oc3*%
X396250000Y-157565000D03*
%TD*%
D10*
%TO.P,D30,1,K*%
%TO.N,Net-(D16-K)*%
X414665000Y-123275000D03*
D11*
%TO.P,D30,2,A*%
%TO.N,Net-(D30-A)*%
X407045000Y-123275000D03*
%TD*%
D10*
%TO.P,D352,1,K*%
%TO.N,Net-(D346-K)*%
X490885000Y-198215000D03*
D11*
%TO.P,D352,2,A*%
%TO.N,Net-(D352-A)*%
X483265000Y-198215000D03*
%TD*%
D10*
%TO.P,D103,1,K*%
%TO.N,Net-(D101-K)*%
X440065000Y-80095000D03*
D11*
%TO.P,D103,2,A*%
%TO.N,Net-(D103-A)*%
X432445000Y-80095000D03*
%TD*%
D10*
%TO.P,D40,1,K*%
%TO.N,Net-(D31-K)*%
X414665000Y-90255000D03*
D11*
%TO.P,D40,2,A*%
%TO.N,Net-(D40-A)*%
X407045000Y-90255000D03*
%TD*%
D10*
%TO.P,D84,1,K*%
%TO.N,Net-(D100-K)*%
X440065000Y-195665000D03*
D11*
%TO.P,D84,2,A*%
%TO.N,Net-(D84-A)*%
X432445000Y-195665000D03*
%TD*%
D10*
%TO.P,D386,1,K*%
%TO.N,Net-(D376-K)*%
X490845000Y-55975000D03*
D11*
%TO.P,D386,2,A*%
%TO.N,Net-(D386-A)*%
X483225000Y-55975000D03*
%TD*%
D10*
%TO.P,SW42,1*%
%TO.N,Net-(D310-A)*%
X454660000Y-90170000D03*
D11*
%TO.P,SW42,2*%
%TO.N,Net-(D311-A)*%
X454660000Y-87630000D03*
%TO.P,SW42,3*%
%TO.N,Net-(D312-A)*%
X454660000Y-85090000D03*
%TO.P,SW42,4*%
%TO.N,Net-(D313-A)*%
X454660000Y-82550000D03*
%TO.P,SW42,5*%
%TO.N,Net-(D314-A)*%
X454660000Y-80010000D03*
%TO.P,SW42,6*%
%TO.N,Net-(D315-A)*%
X454660000Y-77470000D03*
%TO.P,SW42,7*%
%TO.N,2Im0*%
X447040000Y-77470000D03*
%TO.P,SW42,8*%
%TO.N,2Im1*%
X447040000Y-80010000D03*
%TO.P,SW42,9*%
%TO.N,2Im2*%
X447040000Y-82550000D03*
%TO.P,SW42,10*%
%TO.N,2Im3*%
X447040000Y-85090000D03*
%TO.P,SW42,11*%
%TO.N,2Im4*%
X447040000Y-87630000D03*
%TO.P,SW42,12*%
%TO.N,2Im5*%
X447040000Y-90170000D03*
%TD*%
D10*
%TO.P,D289,1,K*%
%TO.N,Net-(D286-K)*%
X465455000Y-152495000D03*
D11*
%TO.P,D289,2,A*%
%TO.N,Net-(D289-A)*%
X457835000Y-152495000D03*
%TD*%
D10*
%TO.P,D396,1,K*%
%TO.N,Net-(D376-K)*%
X490845000Y-42005000D03*
D11*
%TO.P,D396,2,A*%
%TO.N,Net-(D396-A)*%
X483225000Y-42005000D03*
%TD*%
D10*
%TO.P,D39,1,K*%
%TO.N,Net-(D31-K)*%
X414665000Y-94065000D03*
D11*
%TO.P,D39,2,A*%
%TO.N,Net-(D39-A)*%
X407045000Y-94065000D03*
%TD*%
D12*
%TO.P,R2,1*%
%TO.N,+5V*%
X395615000Y-162645000D03*
D11*
%TO.P,R2,2*%
%TO.N,Net-(D16-A)*%
X405775000Y-162645000D03*
%TD*%
D10*
%TO.P,D360,1,K*%
%TO.N,Net-(D346-K)*%
X490885000Y-188055000D03*
D11*
%TO.P,D360,2,A*%
%TO.N,Net-(D360-A)*%
X483265000Y-188055000D03*
%TD*%
D10*
%TO.P,D17,1,K*%
%TO.N,Net-(D16-K)*%
X414665000Y-157565000D03*
D11*
%TO.P,D17,2,A*%
%TO.N,Net-(D17-A)*%
X407045000Y-157565000D03*
%TD*%
D10*
%TO.P,D325,1,K*%
%TO.N,Net-(D317-K)*%
X465455000Y-58515000D03*
D11*
%TO.P,D325,2,A*%
%TO.N,Net-(D325-A)*%
X457835000Y-58515000D03*
%TD*%
D10*
%TO.P,D22,1,K*%
%TO.N,Net-(D16-K)*%
X414665000Y-144865000D03*
D11*
%TO.P,D22,2,A*%
%TO.N,Net-(D22-A)*%
X407045000Y-144865000D03*
%TD*%
D10*
%TO.P,D404,1,K*%
%TO.N,Net-(D376-K)*%
X490845000Y-31845000D03*
D11*
%TO.P,D404,2,A*%
%TO.N,Net-(D404-A)*%
X483225000Y-31845000D03*
%TD*%
D10*
%TO.P,D274,1,K*%
%TO.N,Net-(D271-K)*%
X465455000Y-198215000D03*
D11*
%TO.P,D274,2,A*%
%TO.N,Net-(D274-A)*%
X457835000Y-198215000D03*
%TD*%
D10*
%TO.P,D114,1,K*%
%TO.N,Net-(D106-K)*%
X440065000Y-58505000D03*
D11*
%TO.P,D114,2,A*%
%TO.N,Net-(D114-A)*%
X432445000Y-58505000D03*
%TD*%
D10*
%TO.P,U1,1,A0*%
%TO.N,pc0*%
X551180000Y-194310000D03*
D11*
%TO.P,U1,2,A1*%
%TO.N,pc1*%
X548640000Y-194310000D03*
%TO.P,U1,3,A2*%
%TO.N,pc2*%
X546100000Y-194310000D03*
%TO.P,U1,4,~{E0}*%
%TO.N,GND*%
X543560000Y-194310000D03*
%TO.P,U1,5,~{E1}*%
X541020000Y-194310000D03*
%TO.P,U1,6,E2*%
%TO.N,Net-(U1-E2)*%
X538480000Y-194310000D03*
%TO.P,U1,7,~{Y7}*%
%TO.N,Net-(D106-K)*%
X535940000Y-194310000D03*
%TO.P,U1,8,GND*%
%TO.N,GND*%
X533400000Y-194310000D03*
%TO.P,U1,9,~{Y6}*%
%TO.N,Net-(D101-K)*%
X533400000Y-201930000D03*
%TO.P,U1,10,~{Y5}*%
%TO.N,Net-(D107-K)*%
X535940000Y-201930000D03*
%TO.P,U1,11,~{Y4}*%
%TO.N,Net-(D100-K)*%
X538480000Y-201930000D03*
%TO.P,U1,12,~{Y3}*%
%TO.N,Net-(D47-K)*%
X541020000Y-201930000D03*
%TO.P,U1,13,~{Y2}*%
%TO.N,Net-(D31-K)*%
X543560000Y-201930000D03*
%TO.P,U1,14,~{Y1}*%
%TO.N,Net-(D16-K)*%
X546100000Y-201930000D03*
%TO.P,U1,15,~{Y0}*%
%TO.N,Net-(D1-K)*%
X548640000Y-201930000D03*
%TO.P,U1,16,VCC*%
%TO.N,+5V*%
X551180000Y-201930000D03*
%TD*%
D10*
%TO.P,D116,1,K*%
%TO.N,Net-(D106-K)*%
X440065000Y-55965000D03*
D11*
%TO.P,D116,2,A*%
%TO.N,Net-(D116-A)*%
X432445000Y-55965000D03*
%TD*%
D10*
%TO.P,D327,1,K*%
%TO.N,Net-(D317-K)*%
X465455000Y-55975000D03*
D11*
%TO.P,D327,2,A*%
%TO.N,Net-(D327-A)*%
X457835000Y-55975000D03*
%TD*%
D10*
%TO.P,D2,1,K*%
%TO.N,Net-(D1-K)*%
X414665000Y-203335000D03*
D11*
%TO.P,D2,2,A*%
%TO.N,Net-(D2-A)*%
X407045000Y-203335000D03*
%TD*%
D10*
%TO.P,D387,1,K*%
%TO.N,Net-(D377-K)*%
X490845000Y-147415000D03*
D11*
%TO.P,D387,2,A*%
%TO.N,Net-(D387-A)*%
X483225000Y-147415000D03*
%TD*%
D10*
%TO.P,D363,1,K*%
%TO.N,Net-(D347-K)*%
X490885000Y-94075000D03*
D11*
%TO.P,D363,2,A*%
%TO.N,Net-(D363-A)*%
X483265000Y-94075000D03*
%TD*%
D10*
%TO.P,D365,1,K*%
%TO.N,Net-(D347-K)*%
X490885000Y-90265000D03*
D11*
%TO.P,D365,2,A*%
%TO.N,Net-(D365-A)*%
X483265000Y-90265000D03*
%TD*%
D10*
%TO.P,D405,1,K*%
%TO.N,Net-(D377-K)*%
X490845000Y-123285000D03*
D11*
%TO.P,D405,2,A*%
%TO.N,Net-(D405-A)*%
X483225000Y-123285000D03*
%TD*%
D10*
%TO.P,SW37,1*%
%TO.N,Net-(D272-A)*%
X454660000Y-203200000D03*
D11*
%TO.P,SW37,2*%
%TO.N,Net-(D273-A)*%
X454660000Y-200660000D03*
%TO.P,SW37,3*%
%TO.N,Net-(D274-A)*%
X454660000Y-198120000D03*
%TO.P,SW37,4*%
%TO.N,Net-(D275-A)*%
X454660000Y-195580000D03*
%TO.P,SW37,5*%
%TO.N,Net-(D276-A)*%
X454660000Y-193040000D03*
%TO.P,SW37,6*%
%TO.N,Net-(D277-A)*%
X454660000Y-190500000D03*
%TO.P,SW37,7*%
%TO.N,Net-(D278-A)*%
X454660000Y-187960000D03*
%TO.P,SW37,8*%
%TO.N,Net-(D279-A)*%
X454660000Y-185420000D03*
%TO.P,SW37,9*%
%TO.N,2ol0*%
X447040000Y-185420000D03*
%TO.P,SW37,10*%
%TO.N,2ol1*%
X447040000Y-187960000D03*
%TO.P,SW37,11*%
%TO.N,2ol2*%
X447040000Y-190500000D03*
%TO.P,SW37,12*%
%TO.N,2ol3*%
X447040000Y-193040000D03*
%TO.P,SW37,13*%
%TO.N,2oc0*%
X447040000Y-195580000D03*
%TO.P,SW37,14*%
%TO.N,2oc1*%
X447040000Y-198120000D03*
%TO.P,SW37,15*%
%TO.N,2oc2*%
X447040000Y-200660000D03*
%TO.P,SW37,16*%
%TO.N,2oc3*%
X447040000Y-203200000D03*
%TD*%
D12*
%TO.P,R7,1*%
%TO.N,+5V*%
X421015000Y-116830000D03*
D11*
%TO.P,R7,2*%
%TO.N,Net-(D77-A)*%
X431175000Y-116830000D03*
%TD*%
D13*
%TO.P,D376,1,K*%
%TO.N,Net-(D376-K)*%
X487075000Y-71295000D03*
D14*
%TO.P,D376,2,A*%
%TO.N,Net-(D376-A)*%
X484535000Y-71295000D03*
%TD*%
D10*
%TO.P,D273,1,K*%
%TO.N,Net-(D271-K)*%
X465455000Y-200755000D03*
D11*
%TO.P,D273,2,A*%
%TO.N,Net-(D273-A)*%
X457835000Y-200755000D03*
%TD*%
D10*
%TO.P,SW15,1*%
%TO.N,Net-(D108-A)*%
X429260000Y-66040000D03*
D11*
%TO.P,SW15,2*%
%TO.N,Net-(D110-A)*%
X429260000Y-63500000D03*
%TO.P,SW15,3*%
%TO.N,Net-(D112-A)*%
X429260000Y-60960000D03*
%TO.P,SW15,4*%
%TO.N,Net-(D114-A)*%
X429260000Y-58420000D03*
%TO.P,SW15,5*%
%TO.N,Net-(D116-A)*%
X429260000Y-55880000D03*
%TO.P,SW15,6*%
%TO.N,Net-(D118-A)*%
X429260000Y-53340000D03*
%TO.P,SW15,7*%
%TO.N,Net-(D120-A)*%
X429260000Y-50800000D03*
%TO.P,SW15,8*%
%TO.N,Net-(D122-A)*%
X429260000Y-48260000D03*
%TO.P,SW15,9*%
%TO.N,2ol0*%
X421640000Y-48260000D03*
%TO.P,SW15,10*%
%TO.N,2ol1*%
X421640000Y-50800000D03*
%TO.P,SW15,11*%
%TO.N,2ol2*%
X421640000Y-53340000D03*
%TO.P,SW15,12*%
%TO.N,2ol3*%
X421640000Y-55880000D03*
%TO.P,SW15,13*%
%TO.N,2oc0*%
X421640000Y-58420000D03*
%TO.P,SW15,14*%
%TO.N,2oc1*%
X421640000Y-60960000D03*
%TO.P,SW15,15*%
%TO.N,2oc2*%
X421640000Y-63500000D03*
%TO.P,SW15,16*%
%TO.N,2oc3*%
X421640000Y-66040000D03*
%TD*%
D10*
%TO.P,D91,1,K*%
%TO.N,Net-(D101-K)*%
X440065000Y-96605000D03*
D11*
%TO.P,D91,2,A*%
%TO.N,Net-(D91-A)*%
X432445000Y-96605000D03*
%TD*%
D10*
%TO.P,SW51,1*%
%TO.N,Net-(D378-A)*%
X480060000Y-66040000D03*
D11*
%TO.P,SW51,2*%
%TO.N,Net-(D380-A)*%
X480060000Y-63500000D03*
%TO.P,SW51,3*%
%TO.N,Net-(D382-A)*%
X480060000Y-60960000D03*
%TO.P,SW51,4*%
%TO.N,Net-(D384-A)*%
X480060000Y-58420000D03*
%TO.P,SW51,5*%
%TO.N,Net-(D386-A)*%
X480060000Y-55880000D03*
%TO.P,SW51,6*%
%TO.N,Net-(D388-A)*%
X480060000Y-53340000D03*
%TO.P,SW51,7*%
%TO.N,Net-(D390-A)*%
X480060000Y-50800000D03*
%TO.P,SW51,8*%
%TO.N,Net-(D392-A)*%
X480060000Y-48260000D03*
%TO.P,SW51,9*%
%TO.N,2ol0*%
X472440000Y-48260000D03*
%TO.P,SW51,10*%
%TO.N,2ol1*%
X472440000Y-50800000D03*
%TO.P,SW51,11*%
%TO.N,2ol2*%
X472440000Y-53340000D03*
%TO.P,SW51,12*%
%TO.N,2ol3*%
X472440000Y-55880000D03*
%TO.P,SW51,13*%
%TO.N,2oc0*%
X472440000Y-58420000D03*
%TO.P,SW51,14*%
%TO.N,2oc1*%
X472440000Y-60960000D03*
%TO.P,SW51,15*%
%TO.N,2oc2*%
X472440000Y-63500000D03*
%TO.P,SW51,16*%
%TO.N,2oc3*%
X472440000Y-66040000D03*
%TD*%
D10*
%TO.P,D333,1,K*%
%TO.N,Net-(D317-K)*%
X465455000Y-48355000D03*
D11*
%TO.P,D333,2,A*%
%TO.N,Net-(D333-A)*%
X457835000Y-48355000D03*
%TD*%
D10*
%TO.P,D125,1,K*%
%TO.N,Net-(D107-K)*%
X440065000Y-135975000D03*
D11*
%TO.P,D125,2,A*%
%TO.N,Net-(D125-A)*%
X432445000Y-135975000D03*
%TD*%
D10*
%TO.P,D284,1,K*%
%TO.N,Net-(D271-K)*%
X465455000Y-171545000D03*
D11*
%TO.P,D284,2,A*%
%TO.N,Net-(D284-A)*%
X457835000Y-171545000D03*
%TD*%
D12*
%TO.P,R5,1*%
%TO.N,+5V*%
X395615000Y-71110000D03*
D11*
%TO.P,R5,2*%
%TO.N,Net-(D47-A)*%
X405775000Y-71110000D03*
%TD*%
D10*
%TO.P,D61,1,K*%
%TO.N,Net-(D47-K)*%
X414665000Y-50885000D03*
D11*
%TO.P,D61,2,A*%
%TO.N,Net-(D61-A)*%
X407045000Y-50885000D03*
%TD*%
D10*
%TO.P,SW6,1*%
%TO.N,Net-(D40-A)*%
X403870000Y-90265000D03*
D11*
%TO.P,SW6,2*%
%TO.N,Net-(D41-A)*%
X403870000Y-87725000D03*
%TO.P,SW6,3*%
%TO.N,Net-(D42-A)*%
X403870000Y-85185000D03*
%TO.P,SW6,4*%
%TO.N,Net-(D43-A)*%
X403870000Y-82645000D03*
%TO.P,SW6,5*%
%TO.N,Net-(D44-A)*%
X403870000Y-80105000D03*
%TO.P,SW6,6*%
%TO.N,Net-(D45-A)*%
X403870000Y-77565000D03*
%TO.P,SW6,7*%
%TO.N,2Im0*%
X396250000Y-77565000D03*
%TO.P,SW6,8*%
%TO.N,2Im1*%
X396250000Y-80105000D03*
%TO.P,SW6,9*%
%TO.N,2Im2*%
X396250000Y-82645000D03*
%TO.P,SW6,10*%
%TO.N,2Im3*%
X396250000Y-85185000D03*
%TO.P,SW6,11*%
%TO.N,2Im4*%
X396250000Y-87725000D03*
%TO.P,SW6,12*%
%TO.N,2Im5*%
X396250000Y-90265000D03*
%TD*%
D10*
%TO.P,D315,1,K*%
%TO.N,Net-(D301-K)*%
X465455000Y-77565000D03*
D11*
%TO.P,D315,2,A*%
%TO.N,Net-(D315-A)*%
X457835000Y-77565000D03*
%TD*%
D12*
%TO.P,R33,1*%
%TO.N,+5V*%
X445155000Y-208280000D03*
D11*
%TO.P,R33,2*%
%TO.N,Net-(D271-A)*%
X455315000Y-208280000D03*
%TD*%
D10*
%TO.P,D95,1,K*%
%TO.N,Net-(D101-K)*%
X440065000Y-90255000D03*
D11*
%TO.P,D95,2,A*%
%TO.N,Net-(D95-A)*%
X432445000Y-90255000D03*
%TD*%
D10*
%TO.P,SW14,1*%
%TO.N,Net-(D95-A)*%
X429250000Y-90170000D03*
D11*
%TO.P,SW14,2*%
%TO.N,Net-(D97-A)*%
X429250000Y-87630000D03*
%TO.P,SW14,3*%
%TO.N,Net-(D99-A)*%
X429250000Y-85090000D03*
%TO.P,SW14,4*%
%TO.N,Net-(D101-A)*%
X429250000Y-82550000D03*
%TO.P,SW14,5*%
%TO.N,Net-(D103-A)*%
X429250000Y-80010000D03*
%TO.P,SW14,6*%
%TO.N,Net-(D105-A)*%
X429250000Y-77470000D03*
%TO.P,SW14,7*%
%TO.N,2Im0*%
X421630000Y-77470000D03*
%TO.P,SW14,8*%
%TO.N,2Im1*%
X421630000Y-80010000D03*
%TO.P,SW14,9*%
%TO.N,2Im2*%
X421630000Y-82550000D03*
%TO.P,SW14,10*%
%TO.N,2Im3*%
X421630000Y-85090000D03*
%TO.P,SW14,11*%
%TO.N,2Im4*%
X421630000Y-87630000D03*
%TO.P,SW14,12*%
%TO.N,2Im5*%
X421630000Y-90170000D03*
%TD*%
D10*
%TO.P,D99,1,K*%
%TO.N,Net-(D101-K)*%
X440065000Y-85175000D03*
D11*
%TO.P,D99,2,A*%
%TO.N,Net-(D99-A)*%
X432445000Y-85175000D03*
%TD*%
D10*
%TO.P,D288,1,K*%
%TO.N,Net-(D286-K)*%
X465455000Y-155035000D03*
D11*
%TO.P,D288,2,A*%
%TO.N,Net-(D288-A)*%
X457835000Y-155035000D03*
%TD*%
D10*
%TO.P,D393,1,K*%
%TO.N,Net-(D377-K)*%
X490845000Y-139795000D03*
D11*
%TO.P,D393,2,A*%
%TO.N,Net-(D393-A)*%
X483225000Y-139795000D03*
%TD*%
D10*
%TO.P,D319,1,K*%
%TO.N,Net-(D317-K)*%
X465455000Y-66105000D03*
D11*
%TO.P,D319,2,A*%
%TO.N,Net-(D319-A)*%
X457835000Y-66105000D03*
%TD*%
D10*
%TO.P,U3,1,~{OE1}*%
%TO.N,GND*%
X500380000Y-102235000D03*
D11*
%TO.P,U3,2,A0*%
%TO.N,2oc3*%
X502920000Y-102235000D03*
%TO.P,U3,3,A1*%
%TO.N,2oc2*%
X505460000Y-102235000D03*
%TO.P,U3,4,A2*%
%TO.N,2oc1*%
X508000000Y-102235000D03*
%TO.P,U3,5,A3*%
%TO.N,2oc0*%
X510540000Y-102235000D03*
%TO.P,U3,6,A4*%
%TO.N,2ol3*%
X513080000Y-102235000D03*
%TO.P,U3,7,A5*%
%TO.N,2ol2*%
X515620000Y-102235000D03*
%TO.P,U3,8,A6*%
%TO.N,2ol1*%
X518160000Y-102235000D03*
%TO.P,U3,9,A7*%
%TO.N,2ol0*%
X520700000Y-102235000D03*
%TO.P,U3,10,GND*%
%TO.N,GND*%
X523240000Y-102235000D03*
%TO.P,U3,11,~{Y7}*%
%TO.N,ol0*%
X523240000Y-94615000D03*
%TO.P,U3,12,~{Y6}*%
%TO.N,ol1*%
X520700000Y-94615000D03*
%TO.P,U3,13,~{Y5}*%
%TO.N,ol2*%
X518160000Y-94615000D03*
%TO.P,U3,14,~{Y4}*%
%TO.N,ol3*%
X515620000Y-94615000D03*
%TO.P,U3,15,~{Y3}*%
%TO.N,oc0*%
X513080000Y-94615000D03*
%TO.P,U3,16,~{Y2}*%
%TO.N,oc1*%
X510540000Y-94615000D03*
%TO.P,U3,17,~{Y1}*%
%TO.N,oc2*%
X508000000Y-94615000D03*
%TO.P,U3,18,~{Y0}*%
%TO.N,oc3*%
X505460000Y-94615000D03*
%TO.P,U3,19,~{OE2}*%
%TO.N,GND*%
X502920000Y-94615000D03*
%TO.P,U3,20,VCC*%
%TO.N,+5V*%
X500380000Y-94615000D03*
%TD*%
D12*
%TO.P,C4,1*%
%TO.N,+5V*%
X496796000Y-199200000D03*
%TO.P,C4,2*%
%TO.N,GND*%
X496796000Y-196700000D03*
%TD*%
D10*
%TO.P,D7,1,K*%
%TO.N,Net-(D1-K)*%
X414665000Y-190490000D03*
D11*
%TO.P,D7,2,A*%
%TO.N,Net-(D7-A)*%
X407045000Y-190490000D03*
%TD*%
D10*
%TO.P,D329,1,K*%
%TO.N,Net-(D317-K)*%
X465455000Y-53435000D03*
D11*
%TO.P,D329,2,A*%
%TO.N,Net-(D329-A)*%
X457835000Y-53435000D03*
%TD*%
D10*
%TO.P,D92,1,K*%
%TO.N,Net-(D100-K)*%
X440065000Y-185505000D03*
D11*
%TO.P,D92,2,A*%
%TO.N,Net-(D92-A)*%
X432445000Y-185505000D03*
%TD*%
D10*
%TO.P,D372,1,K*%
%TO.N,Net-(D346-K)*%
X490885000Y-171545000D03*
D11*
%TO.P,D372,2,A*%
%TO.N,Net-(D372-A)*%
X483265000Y-171545000D03*
%TD*%
D10*
%TO.P,D331,1,K*%
%TO.N,Net-(D317-K)*%
X465455000Y-50895000D03*
D11*
%TO.P,D331,2,A*%
%TO.N,Net-(D331-A)*%
X457835000Y-50895000D03*
%TD*%
D10*
%TO.P,D399,1,K*%
%TO.N,Net-(D377-K)*%
X490845000Y-130905000D03*
D11*
%TO.P,D399,2,A*%
%TO.N,Net-(D399-A)*%
X483225000Y-130905000D03*
%TD*%
D12*
%TO.P,R42,1*%
%TO.N,2oc3*%
X497840000Y-33020000D03*
D11*
%TO.P,R42,2*%
%TO.N,+5V*%
X497840000Y-43180000D03*
%TD*%
D10*
%TO.P,D308,1,K*%
%TO.N,Net-(D301-K)*%
X465455000Y-96615000D03*
D11*
%TO.P,D308,2,A*%
%TO.N,Net-(D308-A)*%
X457835000Y-96615000D03*
%TD*%
D10*
%TO.P,D44,1,K*%
%TO.N,Net-(D31-K)*%
X414665000Y-80095000D03*
D11*
%TO.P,D44,2,A*%
%TO.N,Net-(D44-A)*%
X407045000Y-80095000D03*
%TD*%
D10*
%TO.P,D275,1,K*%
%TO.N,Net-(D271-K)*%
X465455000Y-195675000D03*
D11*
%TO.P,D275,2,A*%
%TO.N,Net-(D275-A)*%
X457835000Y-195675000D03*
%TD*%
D10*
%TO.P,D398,1,K*%
%TO.N,Net-(D376-K)*%
X490845000Y-39465000D03*
D11*
%TO.P,D398,2,A*%
%TO.N,Net-(D398-A)*%
X483225000Y-39465000D03*
%TD*%
D10*
%TO.P,D21,1,K*%
%TO.N,Net-(D16-K)*%
X414665000Y-147435000D03*
D11*
%TO.P,D21,2,A*%
%TO.N,Net-(D21-A)*%
X407045000Y-147435000D03*
%TD*%
D10*
%TO.P,D381,1,K*%
%TO.N,Net-(D377-K)*%
X490845000Y-155035000D03*
D11*
%TO.P,D381,2,A*%
%TO.N,Net-(D381-A)*%
X483225000Y-155035000D03*
%TD*%
D10*
%TO.P,D100,1,K*%
%TO.N,Net-(D100-K)*%
X440065000Y-174075000D03*
D11*
%TO.P,D100,2,A*%
%TO.N,Net-(D100-A)*%
X432445000Y-174075000D03*
%TD*%
D13*
%TO.P,D301,1,K*%
%TO.N,Net-(D301-K)*%
X460380000Y-116840000D03*
D14*
%TO.P,D301,2,A*%
%TO.N,Net-(D301-A)*%
X457840000Y-116840000D03*
%TD*%
D10*
%TO.P,SW50,1*%
%TO.N,Net-(D365-A)*%
X480060000Y-90170000D03*
D11*
%TO.P,SW50,2*%
%TO.N,Net-(D367-A)*%
X480060000Y-87630000D03*
%TO.P,SW50,3*%
%TO.N,Net-(D369-A)*%
X480060000Y-85090000D03*
%TO.P,SW50,4*%
%TO.N,Net-(D371-A)*%
X480060000Y-82550000D03*
%TO.P,SW50,5*%
%TO.N,Net-(D373-A)*%
X480060000Y-80010000D03*
%TO.P,SW50,6*%
%TO.N,Net-(D375-A)*%
X480060000Y-77470000D03*
%TO.P,SW50,7*%
%TO.N,2Im0*%
X472440000Y-77470000D03*
%TO.P,SW50,8*%
%TO.N,2Im1*%
X472440000Y-80010000D03*
%TO.P,SW50,9*%
%TO.N,2Im2*%
X472440000Y-82550000D03*
%TO.P,SW50,10*%
%TO.N,2Im3*%
X472440000Y-85090000D03*
%TO.P,SW50,11*%
%TO.N,2Im4*%
X472440000Y-87630000D03*
%TO.P,SW50,12*%
%TO.N,2Im5*%
X472440000Y-90170000D03*
%TD*%
D10*
%TO.P,D15,1,K*%
%TO.N,Net-(D1-K)*%
X414665000Y-168995000D03*
D11*
%TO.P,D15,2,A*%
%TO.N,Net-(D15-A)*%
X407045000Y-168995000D03*
%TD*%
D10*
%TO.P,D367,1,K*%
%TO.N,Net-(D347-K)*%
X490885000Y-87725000D03*
D11*
%TO.P,D367,2,A*%
%TO.N,Net-(D367-A)*%
X483265000Y-87725000D03*
%TD*%
D10*
%TO.P,D6,1,K*%
%TO.N,Net-(D1-K)*%
X414665000Y-193030000D03*
D11*
%TO.P,D6,2,A*%
%TO.N,Net-(D6-A)*%
X407045000Y-193030000D03*
%TD*%
D10*
%TO.P,D82,1,K*%
%TO.N,Net-(D100-K)*%
X440065000Y-198205000D03*
D11*
%TO.P,D82,2,A*%
%TO.N,Net-(D82-A)*%
X432445000Y-198205000D03*
%TD*%
D12*
%TO.P,R48,1*%
%TO.N,2ol1*%
X524510000Y-33020000D03*
D11*
%TO.P,R48,2*%
%TO.N,+5V*%
X524510000Y-43180000D03*
%TD*%
D12*
%TO.P,R46,1*%
%TO.N,2ol3*%
X515620000Y-33020000D03*
D11*
%TO.P,R46,2*%
%TO.N,+5V*%
X515620000Y-43180000D03*
%TD*%
D13*
%TO.P,D346,1,K*%
%TO.N,Net-(D346-K)*%
X487075000Y-208455000D03*
D14*
%TO.P,D346,2,A*%
%TO.N,Net-(D346-A)*%
X484535000Y-208455000D03*
%TD*%
D10*
%TO.P,D83,1,K*%
%TO.N,Net-(D101-K)*%
X440065000Y-106765000D03*
D11*
%TO.P,D83,2,A*%
%TO.N,Net-(D83-A)*%
X432445000Y-106765000D03*
%TD*%
D10*
%TO.P,D397,1,K*%
%TO.N,Net-(D377-K)*%
X490845000Y-133445000D03*
D11*
%TO.P,D397,2,A*%
%TO.N,Net-(D397-A)*%
X483225000Y-133445000D03*
%TD*%
D10*
%TO.P,D402,1,K*%
%TO.N,Net-(D376-K)*%
X490845000Y-34385000D03*
D11*
%TO.P,D402,2,A*%
%TO.N,Net-(D402-A)*%
X483225000Y-34385000D03*
%TD*%
D10*
%TO.P,D300,1,K*%
%TO.N,Net-(D286-K)*%
X465455000Y-123285000D03*
D11*
%TO.P,D300,2,A*%
%TO.N,Net-(D300-A)*%
X457835000Y-123285000D03*
%TD*%
D10*
%TO.P,SW47,1*%
%TO.N,Net-(D348-A)*%
X480100000Y-203200000D03*
D11*
%TO.P,SW47,2*%
%TO.N,Net-(D350-A)*%
X480100000Y-200660000D03*
%TO.P,SW47,3*%
%TO.N,Net-(D352-A)*%
X480100000Y-198120000D03*
%TO.P,SW47,4*%
%TO.N,Net-(D354-A)*%
X480100000Y-195580000D03*
%TO.P,SW47,5*%
%TO.N,Net-(D356-A)*%
X480100000Y-193040000D03*
%TO.P,SW47,6*%
%TO.N,Net-(D358-A)*%
X480100000Y-190500000D03*
%TO.P,SW47,7*%
%TO.N,Net-(D360-A)*%
X480100000Y-187960000D03*
%TO.P,SW47,8*%
%TO.N,Net-(D362-A)*%
X480100000Y-185420000D03*
%TO.P,SW47,9*%
%TO.N,2ol0*%
X472480000Y-185420000D03*
%TO.P,SW47,10*%
%TO.N,2ol1*%
X472480000Y-187960000D03*
%TO.P,SW47,11*%
%TO.N,2ol2*%
X472480000Y-190500000D03*
%TO.P,SW47,12*%
%TO.N,2ol3*%
X472480000Y-193040000D03*
%TO.P,SW47,13*%
%TO.N,2oc0*%
X472480000Y-195580000D03*
%TO.P,SW47,14*%
%TO.N,2oc1*%
X472480000Y-198120000D03*
%TO.P,SW47,15*%
%TO.N,2oc2*%
X472480000Y-200660000D03*
%TO.P,SW47,16*%
%TO.N,2oc3*%
X472480000Y-203200000D03*
%TD*%
D10*
%TO.P,D19,1,K*%
%TO.N,Net-(D16-K)*%
X414665000Y-152515000D03*
D11*
%TO.P,D19,2,A*%
%TO.N,Net-(D19-A)*%
X407045000Y-152515000D03*
%TD*%
D10*
%TO.P,D112,1,K*%
%TO.N,Net-(D106-K)*%
X440065000Y-61045000D03*
D11*
%TO.P,D112,2,A*%
%TO.N,Net-(D112-A)*%
X432445000Y-61045000D03*
%TD*%
D10*
%TO.P,D51,1,K*%
%TO.N,Net-(D47-K)*%
X414665000Y-63585000D03*
D11*
%TO.P,D51,2,A*%
%TO.N,Net-(D51-A)*%
X407045000Y-63585000D03*
%TD*%
D10*
%TO.P,D85,1,K*%
%TO.N,Net-(D101-K)*%
X440065000Y-104225000D03*
D11*
%TO.P,D85,2,A*%
%TO.N,Net-(D85-A)*%
X432445000Y-104225000D03*
%TD*%
D10*
%TO.P,D283,1,K*%
%TO.N,Net-(D271-K)*%
X465455000Y-174085000D03*
D11*
%TO.P,D283,2,A*%
%TO.N,Net-(D283-A)*%
X457835000Y-174085000D03*
%TD*%
D10*
%TO.P,D281,1,K*%
%TO.N,Net-(D271-K)*%
X465455000Y-179165000D03*
D11*
%TO.P,D281,2,A*%
%TO.N,Net-(D281-A)*%
X457835000Y-179165000D03*
%TD*%
D10*
%TO.P,D287,1,K*%
%TO.N,Net-(D286-K)*%
X465455000Y-157575000D03*
D11*
%TO.P,D287,2,A*%
%TO.N,Net-(D287-A)*%
X457835000Y-157575000D03*
%TD*%
D10*
%TO.P,SW10,1*%
%TO.N,Net-(D65-A)*%
X403860000Y-44450000D03*
D11*
%TO.P,SW10,2*%
%TO.N,Net-(D67-A)*%
X403860000Y-41910000D03*
%TO.P,SW10,3*%
%TO.N,Net-(D69-A)*%
X403860000Y-39370000D03*
%TO.P,SW10,4*%
%TO.N,Net-(D71-A)*%
X403860000Y-36830000D03*
%TO.P,SW10,5*%
%TO.N,Net-(D73-A)*%
X403860000Y-34290000D03*
%TO.P,SW10,6*%
%TO.N,Net-(D75-A)*%
X403860000Y-31750000D03*
%TO.P,SW10,7*%
%TO.N,2Im0*%
X396240000Y-31750000D03*
%TO.P,SW10,8*%
%TO.N,2Im1*%
X396240000Y-34290000D03*
%TO.P,SW10,9*%
%TO.N,2Im2*%
X396240000Y-36830000D03*
%TO.P,SW10,10*%
%TO.N,2Im3*%
X396240000Y-39370000D03*
%TO.P,SW10,11*%
%TO.N,2Im4*%
X396240000Y-41910000D03*
%TO.P,SW10,12*%
%TO.N,2Im5*%
X396240000Y-44450000D03*
%TD*%
D10*
%TO.P,SW11,1*%
%TO.N,Net-(D78-A)*%
X429270000Y-203190000D03*
D11*
%TO.P,SW11,2*%
%TO.N,Net-(D80-A)*%
X429270000Y-200650000D03*
%TO.P,SW11,3*%
%TO.N,Net-(D82-A)*%
X429270000Y-198110000D03*
%TO.P,SW11,4*%
%TO.N,Net-(D84-A)*%
X429270000Y-195570000D03*
%TO.P,SW11,5*%
%TO.N,Net-(D86-A)*%
X429270000Y-193030000D03*
%TO.P,SW11,6*%
%TO.N,Net-(D88-A)*%
X429270000Y-190490000D03*
%TO.P,SW11,7*%
%TO.N,Net-(D90-A)*%
X429270000Y-187950000D03*
%TO.P,SW11,8*%
%TO.N,Net-(D92-A)*%
X429270000Y-185410000D03*
%TO.P,SW11,9*%
%TO.N,2ol0*%
X421650000Y-185410000D03*
%TO.P,SW11,10*%
%TO.N,2ol1*%
X421650000Y-187950000D03*
%TO.P,SW11,11*%
%TO.N,2ol2*%
X421650000Y-190490000D03*
%TO.P,SW11,12*%
%TO.N,2ol3*%
X421650000Y-193030000D03*
%TO.P,SW11,13*%
%TO.N,2oc0*%
X421650000Y-195570000D03*
%TO.P,SW11,14*%
%TO.N,2oc1*%
X421650000Y-198110000D03*
%TO.P,SW11,15*%
%TO.N,2oc2*%
X421650000Y-200650000D03*
%TO.P,SW11,16*%
%TO.N,2oc3*%
X421650000Y-203190000D03*
%TD*%
D10*
%TO.P,D24,1,K*%
%TO.N,Net-(D16-K)*%
X414665000Y-139785000D03*
D11*
%TO.P,D24,2,A*%
%TO.N,Net-(D24-A)*%
X407045000Y-139785000D03*
%TD*%
D10*
%TO.P,SW5,1*%
%TO.N,Net-(D32-A)*%
X403870000Y-111855000D03*
D11*
%TO.P,SW5,2*%
%TO.N,Net-(D33-A)*%
X403870000Y-109315000D03*
%TO.P,SW5,3*%
%TO.N,Net-(D34-A)*%
X403870000Y-106775000D03*
%TO.P,SW5,4*%
%TO.N,Net-(D35-A)*%
X403870000Y-104235000D03*
%TO.P,SW5,5*%
%TO.N,Net-(D36-A)*%
X403870000Y-101695000D03*
%TO.P,SW5,6*%
%TO.N,Net-(D37-A)*%
X403870000Y-99155000D03*
%TO.P,SW5,7*%
%TO.N,Net-(D38-A)*%
X403870000Y-96615000D03*
%TO.P,SW5,8*%
%TO.N,Net-(D39-A)*%
X403870000Y-94075000D03*
%TO.P,SW5,9*%
%TO.N,2ol0*%
X396250000Y-94075000D03*
%TO.P,SW5,10*%
%TO.N,2ol1*%
X396250000Y-96615000D03*
%TO.P,SW5,11*%
%TO.N,2ol2*%
X396250000Y-99155000D03*
%TO.P,SW5,12*%
%TO.N,2ol3*%
X396250000Y-101695000D03*
%TO.P,SW5,13*%
%TO.N,2oc0*%
X396250000Y-104235000D03*
%TO.P,SW5,14*%
%TO.N,2oc1*%
X396250000Y-106775000D03*
%TO.P,SW5,15*%
%TO.N,2oc2*%
X396250000Y-109315000D03*
%TO.P,SW5,16*%
%TO.N,2oc3*%
X396250000Y-111855000D03*
%TD*%
D10*
%TO.P,D29,1,K*%
%TO.N,Net-(D16-K)*%
X414665000Y-125815000D03*
D11*
%TO.P,D29,2,A*%
%TO.N,Net-(D29-A)*%
X407045000Y-125815000D03*
%TD*%
D10*
%TO.P,D370,1,K*%
%TO.N,Net-(D346-K)*%
X490885000Y-174085000D03*
D11*
%TO.P,D370,2,A*%
%TO.N,Net-(D370-A)*%
X483265000Y-174085000D03*
%TD*%
D12*
%TO.P,R44,1*%
%TO.N,2oc1*%
X506730000Y-33020000D03*
D11*
%TO.P,R44,2*%
%TO.N,+5V*%
X506730000Y-43180000D03*
%TD*%
D10*
%TO.P,D382,1,K*%
%TO.N,Net-(D376-K)*%
X490845000Y-61055000D03*
D11*
%TO.P,D382,2,A*%
%TO.N,Net-(D382-A)*%
X483225000Y-61055000D03*
%TD*%
D13*
%TO.P,D347,1,K*%
%TO.N,Net-(D347-K)*%
X487075000Y-116840000D03*
D14*
%TO.P,D347,2,A*%
%TO.N,Net-(D347-A)*%
X484535000Y-116840000D03*
%TD*%
D10*
%TO.P,D63,1,K*%
%TO.N,Net-(D47-K)*%
X414665000Y-48345000D03*
D11*
%TO.P,D63,2,A*%
%TO.N,Net-(D63-A)*%
X407045000Y-48345000D03*
%TD*%
D13*
%TO.P,D271,1,K*%
%TO.N,Net-(D271-K)*%
X460375000Y-208280000D03*
D14*
%TO.P,D271,2,A*%
%TO.N,Net-(D271-A)*%
X457835000Y-208280000D03*
%TD*%
D10*
%TO.P,D341,1,K*%
%TO.N,Net-(D317-K)*%
X465455000Y-36925000D03*
D11*
%TO.P,D341,2,A*%
%TO.N,Net-(D341-A)*%
X457835000Y-36925000D03*
%TD*%
D10*
%TO.P,D307,1,K*%
%TO.N,Net-(D301-K)*%
X465455000Y-99155000D03*
D11*
%TO.P,D307,2,A*%
%TO.N,Net-(D307-A)*%
X457835000Y-99155000D03*
%TD*%
D10*
%TO.P,D293,1,K*%
%TO.N,Net-(D286-K)*%
X465455000Y-142335000D03*
D11*
%TO.P,D293,2,A*%
%TO.N,Net-(D293-A)*%
X457835000Y-142335000D03*
%TD*%
D10*
%TO.P,D296,1,K*%
%TO.N,Net-(D286-K)*%
X465455000Y-133445000D03*
D11*
%TO.P,D296,2,A*%
%TO.N,Net-(D296-A)*%
X457835000Y-133445000D03*
%TD*%
D10*
%TO.P,D276,1,K*%
%TO.N,Net-(D271-K)*%
X465455000Y-193135000D03*
D11*
%TO.P,D276,2,A*%
%TO.N,Net-(D276-A)*%
X457835000Y-193135000D03*
%TD*%
D10*
%TO.P,D359,1,K*%
%TO.N,Net-(D347-K)*%
X490885000Y-99155000D03*
D11*
%TO.P,D359,2,A*%
%TO.N,Net-(D359-A)*%
X483265000Y-99155000D03*
%TD*%
D10*
%TO.P,D78,1,K*%
%TO.N,Net-(D100-K)*%
X440065000Y-203285000D03*
D11*
%TO.P,D78,2,A*%
%TO.N,Net-(D78-A)*%
X432445000Y-203285000D03*
%TD*%
D12*
%TO.P,R35,1*%
%TO.N,+5V*%
X445155000Y-116840000D03*
D11*
%TO.P,R35,2*%
%TO.N,Net-(D301-A)*%
X455315000Y-116840000D03*
%TD*%
D10*
%TO.P,D86,1,K*%
%TO.N,Net-(D100-K)*%
X440065000Y-193125000D03*
D11*
%TO.P,D86,2,A*%
%TO.N,Net-(D86-A)*%
X432445000Y-193125000D03*
%TD*%
D10*
%TO.P,D96,1,K*%
%TO.N,Net-(D100-K)*%
X440065000Y-179155000D03*
D11*
%TO.P,D96,2,A*%
%TO.N,Net-(D96-A)*%
X432445000Y-179155000D03*
%TD*%
D10*
%TO.P,D285,1,K*%
%TO.N,Net-(D271-K)*%
X465455000Y-169005000D03*
D11*
%TO.P,D285,2,A*%
%TO.N,Net-(D285-A)*%
X457835000Y-169005000D03*
%TD*%
D10*
%TO.P,D291,1,K*%
%TO.N,Net-(D286-K)*%
X465455000Y-147415000D03*
D11*
%TO.P,D291,2,A*%
%TO.N,Net-(D291-A)*%
X457835000Y-147415000D03*
%TD*%
D10*
%TO.P,D306,1,K*%
%TO.N,Net-(D301-K)*%
X465455000Y-101695000D03*
D11*
%TO.P,D306,2,A*%
%TO.N,Net-(D306-A)*%
X457835000Y-101695000D03*
%TD*%
D12*
%TO.P,C1,1*%
%TO.N,+5V*%
X562610000Y-97195000D03*
%TO.P,C1,2*%
%TO.N,GND*%
X562610000Y-99695000D03*
%TD*%
D10*
%TO.P,D118,1,K*%
%TO.N,Net-(D106-K)*%
X440065000Y-53425000D03*
D11*
%TO.P,D118,2,A*%
%TO.N,Net-(D118-A)*%
X432445000Y-53425000D03*
%TD*%
D10*
%TO.P,D305,1,K*%
%TO.N,Net-(D301-K)*%
X465455000Y-104235000D03*
D11*
%TO.P,D305,2,A*%
%TO.N,Net-(D305-A)*%
X457835000Y-104235000D03*
%TD*%
D12*
%TO.P,R9,1*%
%TO.N,+5V*%
X421015000Y-162550000D03*
D11*
%TO.P,R9,2*%
%TO.N,Net-(D107-A)*%
X431175000Y-162550000D03*
%TD*%
D13*
%TO.P,D16,1,K*%
%TO.N,Net-(D16-K)*%
X410855000Y-162645000D03*
D14*
%TO.P,D16,2,A*%
%TO.N,Net-(D16-A)*%
X408315000Y-162645000D03*
%TD*%
D10*
%TO.P,D90,1,K*%
%TO.N,Net-(D100-K)*%
X440065000Y-188045000D03*
D11*
%TO.P,D90,2,A*%
%TO.N,Net-(D90-A)*%
X432445000Y-188045000D03*
%TD*%
D12*
%TO.P,R53,1*%
%TO.N,2Im2*%
X549275000Y-33020000D03*
D11*
%TO.P,R53,2*%
%TO.N,+5V*%
X549275000Y-43180000D03*
%TD*%
D10*
%TO.P,D366,1,K*%
%TO.N,Net-(D346-K)*%
X490885000Y-179165000D03*
D11*
%TO.P,D366,2,A*%
%TO.N,Net-(D366-A)*%
X483265000Y-179165000D03*
%TD*%
D10*
%TO.P,SW2,1*%
%TO.N,Net-(D10-A)*%
X403870000Y-181695000D03*
D11*
%TO.P,SW2,2*%
%TO.N,Net-(D11-A)*%
X403870000Y-179155000D03*
%TO.P,SW2,3*%
%TO.N,Net-(D12-A)*%
X403870000Y-176615000D03*
%TO.P,SW2,4*%
%TO.N,Net-(D13-A)*%
X403870000Y-174075000D03*
%TO.P,SW2,5*%
%TO.N,Net-(D14-A)*%
X403870000Y-171535000D03*
%TO.P,SW2,6*%
%TO.N,Net-(D15-A)*%
X403870000Y-168995000D03*
%TO.P,SW2,7*%
%TO.N,2Im0*%
X396250000Y-168995000D03*
%TO.P,SW2,8*%
%TO.N,2Im1*%
X396250000Y-171535000D03*
%TO.P,SW2,9*%
%TO.N,2Im2*%
X396250000Y-174075000D03*
%TO.P,SW2,10*%
%TO.N,2Im3*%
X396250000Y-176615000D03*
%TO.P,SW2,11*%
%TO.N,2Im4*%
X396250000Y-179155000D03*
%TO.P,SW2,12*%
%TO.N,2Im5*%
X396250000Y-181695000D03*
%TD*%
D10*
%TO.P,D280,1,K*%
%TO.N,Net-(D271-K)*%
X465455000Y-181705000D03*
D11*
%TO.P,D280,2,A*%
%TO.N,Net-(D280-A)*%
X457835000Y-181705000D03*
%TD*%
D13*
%TO.P,D286,1,K*%
%TO.N,Net-(D286-K)*%
X460380000Y-162560000D03*
D14*
%TO.P,D286,2,A*%
%TO.N,Net-(D286-A)*%
X457840000Y-162560000D03*
%TD*%
D10*
%TO.P,D391,1,K*%
%TO.N,Net-(D377-K)*%
X490845000Y-142335000D03*
D11*
%TO.P,D391,2,A*%
%TO.N,Net-(D391-A)*%
X483225000Y-142335000D03*
%TD*%
D10*
%TO.P,D374,1,K*%
%TO.N,Net-(D346-K)*%
X490885000Y-169005000D03*
D11*
%TO.P,D374,2,A*%
%TO.N,Net-(D374-A)*%
X483265000Y-169005000D03*
%TD*%
D10*
%TO.P,D313,1,K*%
%TO.N,Net-(D301-K)*%
X465455000Y-82645000D03*
D11*
%TO.P,D313,2,A*%
%TO.N,Net-(D313-A)*%
X457835000Y-82645000D03*
%TD*%
D10*
%TO.P,D401,1,K*%
%TO.N,Net-(D377-K)*%
X490845000Y-128365000D03*
D11*
%TO.P,D401,2,A*%
%TO.N,Net-(D401-A)*%
X483225000Y-128365000D03*
%TD*%
D12*
%TO.P,R52,1*%
%TO.N,2Im3*%
X544830000Y-33020000D03*
D11*
%TO.P,R52,2*%
%TO.N,+5V*%
X544830000Y-43180000D03*
%TD*%
D10*
%TO.P,SW49,1*%
%TO.N,Net-(D364-A)*%
X480090000Y-181610000D03*
D11*
%TO.P,SW49,2*%
%TO.N,Net-(D366-A)*%
X480090000Y-179070000D03*
%TO.P,SW49,3*%
%TO.N,Net-(D368-A)*%
X480090000Y-176530000D03*
%TO.P,SW49,4*%
%TO.N,Net-(D370-A)*%
X480090000Y-173990000D03*
%TO.P,SW49,5*%
%TO.N,Net-(D372-A)*%
X480090000Y-171450000D03*
%TO.P,SW49,6*%
%TO.N,Net-(D374-A)*%
X480090000Y-168910000D03*
%TO.P,SW49,7*%
%TO.N,2Im0*%
X472470000Y-168910000D03*
%TO.P,SW49,8*%
%TO.N,2Im1*%
X472470000Y-171450000D03*
%TO.P,SW49,9*%
%TO.N,2Im2*%
X472470000Y-173990000D03*
%TO.P,SW49,10*%
%TO.N,2Im3*%
X472470000Y-176530000D03*
%TO.P,SW49,11*%
%TO.N,2Im4*%
X472470000Y-179070000D03*
%TO.P,SW49,12*%
%TO.N,2Im5*%
X472470000Y-181610000D03*
%TD*%
D10*
%TO.P,D109,1,K*%
%TO.N,Net-(D107-K)*%
X440065000Y-157565000D03*
D11*
%TO.P,D109,2,A*%
%TO.N,Net-(D109-A)*%
X432445000Y-157565000D03*
%TD*%
D10*
%TO.P,D385,1,K*%
%TO.N,Net-(D377-K)*%
X490845000Y-149955000D03*
D11*
%TO.P,D385,2,A*%
%TO.N,Net-(D385-A)*%
X483225000Y-149955000D03*
%TD*%
D10*
%TO.P,D124,1,K*%
%TO.N,Net-(D106-K)*%
X440065000Y-44535000D03*
D11*
%TO.P,D124,2,A*%
%TO.N,Net-(D124-A)*%
X432445000Y-44535000D03*
%TD*%
D10*
%TO.P,D128,1,K*%
%TO.N,Net-(D106-K)*%
X440065000Y-39455000D03*
D11*
%TO.P,D128,2,A*%
%TO.N,Net-(D128-A)*%
X432445000Y-39455000D03*
%TD*%
D10*
%TO.P,D49,1,K*%
%TO.N,Net-(D47-K)*%
X414665000Y-66125000D03*
D11*
%TO.P,D49,2,A*%
%TO.N,Net-(D49-A)*%
X407045000Y-66125000D03*
%TD*%
D10*
%TO.P,D350,1,K*%
%TO.N,Net-(D346-K)*%
X490885000Y-200755000D03*
D11*
%TO.P,D350,2,A*%
%TO.N,Net-(D350-A)*%
X483265000Y-200755000D03*
%TD*%
D10*
%TO.P,D134,1,K*%
%TO.N,Net-(D106-K)*%
X440065000Y-31835000D03*
D11*
%TO.P,D134,2,A*%
%TO.N,Net-(D134-A)*%
X432445000Y-31835000D03*
%TD*%
D12*
%TO.P,R43,1*%
%TO.N,2oc2*%
X502285000Y-33020000D03*
D11*
%TO.P,R43,2*%
%TO.N,+5V*%
X502285000Y-43180000D03*
%TD*%
D10*
%TO.P,D69,1,K*%
%TO.N,Net-(D47-K)*%
X414665000Y-39455000D03*
D11*
%TO.P,D69,2,A*%
%TO.N,Net-(D69-A)*%
X407045000Y-39455000D03*
%TD*%
D10*
%TO.P,D88,1,K*%
%TO.N,Net-(D100-K)*%
X440065000Y-190585000D03*
D11*
%TO.P,D88,2,A*%
%TO.N,Net-(D88-A)*%
X432445000Y-190585000D03*
%TD*%
D10*
%TO.P,D356,1,K*%
%TO.N,Net-(D346-K)*%
X490885000Y-193135000D03*
D11*
%TO.P,D356,2,A*%
%TO.N,Net-(D356-A)*%
X483265000Y-193135000D03*
%TD*%
D10*
%TO.P,D105,1,K*%
%TO.N,Net-(D101-K)*%
X440065000Y-77555000D03*
D11*
%TO.P,D105,2,A*%
%TO.N,Net-(D105-A)*%
X432445000Y-77555000D03*
%TD*%
D10*
%TO.P,D343,1,K*%
%TO.N,Net-(D317-K)*%
X465455000Y-34385000D03*
D11*
%TO.P,D343,2,A*%
%TO.N,Net-(D343-A)*%
X457835000Y-34385000D03*
%TD*%
D10*
%TO.P,D35,1,K*%
%TO.N,Net-(D31-K)*%
X414665000Y-104225000D03*
D11*
%TO.P,D35,2,A*%
%TO.N,Net-(D35-A)*%
X407045000Y-104225000D03*
%TD*%
D10*
%TO.P,D390,1,K*%
%TO.N,Net-(D376-K)*%
X490845000Y-50895000D03*
D11*
%TO.P,D390,2,A*%
%TO.N,Net-(D390-A)*%
X483225000Y-50895000D03*
%TD*%
D10*
%TO.P,U5,1*%
%TO.N,Net-(U5-Pad1)*%
X570230000Y-205740000D03*
D11*
%TO.P,U5,2*%
%TO.N,Net-(U5-Pad2)*%
X570230000Y-203200000D03*
%TO.P,U5,3*%
%TO.N,Net-(U1-E2)*%
X570230000Y-200660000D03*
%TO.P,U5,4*%
%TO.N,Net-(U5-Pad4)*%
X570230000Y-198120000D03*
%TO.P,U5,5*%
%TO.N,pc3*%
X570230000Y-195580000D03*
%TO.P,U5,6*%
%TO.N,Net-(U2-E2)*%
X570230000Y-193040000D03*
%TO.P,U5,7,GND*%
%TO.N,GND*%
X570230000Y-190500000D03*
%TO.P,U5,8*%
%TO.N,unconnected-(U5-Pad8)*%
X562610000Y-190500000D03*
%TO.P,U5,9*%
%TO.N,GND*%
X562610000Y-193040000D03*
%TO.P,U5,10*%
X562610000Y-195580000D03*
%TO.P,U5,11*%
%TO.N,unconnected-(U5-Pad11)*%
X562610000Y-198120000D03*
%TO.P,U5,12*%
%TO.N,GND*%
X562610000Y-200660000D03*
%TO.P,U5,13*%
X562610000Y-203200000D03*
%TO.P,U5,14,Vcc*%
%TO.N,+5V*%
X562610000Y-205740000D03*
%TD*%
D10*
%TO.P,D3,1,K*%
%TO.N,Net-(D1-K)*%
X414665000Y-200650000D03*
D11*
%TO.P,D3,2,A*%
%TO.N,Net-(D3-A)*%
X407045000Y-200650000D03*
%TD*%
D10*
%TO.P,D79,1,K*%
%TO.N,Net-(D101-K)*%
X440065000Y-111845000D03*
D11*
%TO.P,D79,2,A*%
%TO.N,Net-(D79-A)*%
X432445000Y-111845000D03*
%TD*%
D10*
%TO.P,D272,1,K*%
%TO.N,Net-(D271-K)*%
X465455000Y-203295000D03*
D11*
%TO.P,D272,2,A*%
%TO.N,Net-(D272-A)*%
X457835000Y-203295000D03*
%TD*%
D10*
%TO.P,SW41,1*%
%TO.N,Net-(D302-A)*%
X454660000Y-111770000D03*
D11*
%TO.P,SW41,2*%
%TO.N,Net-(D303-A)*%
X454660000Y-109230000D03*
%TO.P,SW41,3*%
%TO.N,Net-(D304-A)*%
X454660000Y-106690000D03*
%TO.P,SW41,4*%
%TO.N,Net-(D305-A)*%
X454660000Y-104150000D03*
%TO.P,SW41,5*%
%TO.N,Net-(D306-A)*%
X454660000Y-101610000D03*
%TO.P,SW41,6*%
%TO.N,Net-(D307-A)*%
X454660000Y-99070000D03*
%TO.P,SW41,7*%
%TO.N,Net-(D308-A)*%
X454660000Y-96530000D03*
%TO.P,SW41,8*%
%TO.N,Net-(D309-A)*%
X454660000Y-93990000D03*
%TO.P,SW41,9*%
%TO.N,2ol0*%
X447040000Y-93990000D03*
%TO.P,SW41,10*%
%TO.N,2ol1*%
X447040000Y-96530000D03*
%TO.P,SW41,11*%
%TO.N,2ol2*%
X447040000Y-99070000D03*
%TO.P,SW41,12*%
%TO.N,2ol3*%
X447040000Y-101610000D03*
%TO.P,SW41,13*%
%TO.N,2oc0*%
X447040000Y-104150000D03*
%TO.P,SW41,14*%
%TO.N,2oc1*%
X447040000Y-106690000D03*
%TO.P,SW41,15*%
%TO.N,2oc2*%
X447040000Y-109230000D03*
%TO.P,SW41,16*%
%TO.N,2oc3*%
X447040000Y-111770000D03*
%TD*%
D12*
%TO.P,C6,1*%
%TO.N,+5V*%
X565415000Y-157519000D03*
%TO.P,C6,2*%
%TO.N,GND*%
X567915000Y-157519000D03*
%TD*%
D10*
%TO.P,D279,1,K*%
%TO.N,Net-(D271-K)*%
X465455000Y-185515000D03*
D11*
%TO.P,D279,2,A*%
%TO.N,Net-(D279-A)*%
X457835000Y-185515000D03*
%TD*%
D10*
%TO.P,SW39,1*%
%TO.N,Net-(D287-A)*%
X454660000Y-157480000D03*
D11*
%TO.P,SW39,2*%
%TO.N,Net-(D288-A)*%
X454660000Y-154940000D03*
%TO.P,SW39,3*%
%TO.N,Net-(D289-A)*%
X454660000Y-152400000D03*
%TO.P,SW39,4*%
%TO.N,Net-(D290-A)*%
X454660000Y-149860000D03*
%TO.P,SW39,5*%
%TO.N,Net-(D291-A)*%
X454660000Y-147320000D03*
%TO.P,SW39,6*%
%TO.N,Net-(D292-A)*%
X454660000Y-144780000D03*
%TO.P,SW39,7*%
%TO.N,Net-(D293-A)*%
X454660000Y-142240000D03*
%TO.P,SW39,8*%
%TO.N,Net-(D294-A)*%
X454660000Y-139700000D03*
%TO.P,SW39,9*%
%TO.N,2ol0*%
X447040000Y-139700000D03*
%TO.P,SW39,10*%
%TO.N,2ol1*%
X447040000Y-142240000D03*
%TO.P,SW39,11*%
%TO.N,2ol2*%
X447040000Y-144780000D03*
%TO.P,SW39,12*%
%TO.N,2ol3*%
X447040000Y-147320000D03*
%TO.P,SW39,13*%
%TO.N,2oc0*%
X447040000Y-149860000D03*
%TO.P,SW39,14*%
%TO.N,2oc1*%
X447040000Y-152400000D03*
%TO.P,SW39,15*%
%TO.N,2oc2*%
X447040000Y-154940000D03*
%TO.P,SW39,16*%
%TO.N,2oc3*%
X447040000Y-157480000D03*
%TD*%
D10*
%TO.P,D335,1,K*%
%TO.N,Net-(D317-K)*%
X465455000Y-44545000D03*
D11*
%TO.P,D335,2,A*%
%TO.N,Net-(D335-A)*%
X457835000Y-44545000D03*
%TD*%
D10*
%TO.P,D379,1,K*%
%TO.N,Net-(D377-K)*%
X490845000Y-157575000D03*
D11*
%TO.P,D379,2,A*%
%TO.N,Net-(D379-A)*%
X483225000Y-157575000D03*
%TD*%
D10*
%TO.P,D93,1,K*%
%TO.N,Net-(D101-K)*%
X440065000Y-94065000D03*
D11*
%TO.P,D93,2,A*%
%TO.N,Net-(D93-A)*%
X432445000Y-94065000D03*
%TD*%
D12*
%TO.P,R38,1*%
%TO.N,+5V*%
X471835000Y-208280000D03*
D11*
%TO.P,R38,2*%
%TO.N,Net-(D346-A)*%
X481995000Y-208280000D03*
%TD*%
D10*
%TO.P,D13,1,K*%
%TO.N,Net-(D1-K)*%
X414665000Y-174075000D03*
D11*
%TO.P,D13,2,A*%
%TO.N,Net-(D13-A)*%
X407045000Y-174075000D03*
%TD*%
D10*
%TO.P,D292,1,K*%
%TO.N,Net-(D286-K)*%
X465455000Y-144875000D03*
D11*
%TO.P,D292,2,A*%
%TO.N,Net-(D292-A)*%
X457835000Y-144875000D03*
%TD*%
D10*
%TO.P,D309,1,K*%
%TO.N,Net-(D301-K)*%
X465455000Y-94075000D03*
D11*
%TO.P,D309,2,A*%
%TO.N,Net-(D309-A)*%
X457835000Y-94075000D03*
%TD*%
D10*
%TO.P,D355,1,K*%
%TO.N,Net-(D347-K)*%
X490885000Y-104235000D03*
D11*
%TO.P,D355,2,A*%
%TO.N,Net-(D355-A)*%
X483265000Y-104235000D03*
%TD*%
D10*
%TO.P,D383,1,K*%
%TO.N,Net-(D377-K)*%
X490845000Y-152495000D03*
D11*
%TO.P,D383,2,A*%
%TO.N,Net-(D383-A)*%
X483225000Y-152495000D03*
%TD*%
D10*
%TO.P,D126,1,K*%
%TO.N,Net-(D106-K)*%
X440065000Y-41995000D03*
D11*
%TO.P,D126,2,A*%
%TO.N,Net-(D126-A)*%
X432445000Y-41995000D03*
%TD*%
D13*
%TO.P,D317,1,K*%
%TO.N,Net-(D317-K)*%
X460375000Y-71215000D03*
D14*
%TO.P,D317,2,A*%
%TO.N,Net-(D317-A)*%
X457835000Y-71215000D03*
%TD*%
D10*
%TO.P,SW40,1*%
%TO.N,Net-(D295-A)*%
X454660000Y-135890000D03*
D11*
%TO.P,SW40,2*%
%TO.N,Net-(D296-A)*%
X454660000Y-133350000D03*
%TO.P,SW40,3*%
%TO.N,Net-(D297-A)*%
X454660000Y-130810000D03*
%TO.P,SW40,4*%
%TO.N,Net-(D298-A)*%
X454660000Y-128270000D03*
%TO.P,SW40,5*%
%TO.N,Net-(D299-A)*%
X454660000Y-125730000D03*
%TO.P,SW40,6*%
%TO.N,Net-(D300-A)*%
X454660000Y-123190000D03*
%TO.P,SW40,7*%
%TO.N,2Im0*%
X447040000Y-123190000D03*
%TO.P,SW40,8*%
%TO.N,2Im1*%
X447040000Y-125730000D03*
%TO.P,SW40,9*%
%TO.N,2Im2*%
X447040000Y-128270000D03*
%TO.P,SW40,10*%
%TO.N,2Im3*%
X447040000Y-130810000D03*
%TO.P,SW40,11*%
%TO.N,2Im4*%
X447040000Y-133350000D03*
%TO.P,SW40,12*%
%TO.N,2Im5*%
X447040000Y-135890000D03*
%TD*%
D10*
%TO.P,D337,1,K*%
%TO.N,Net-(D317-K)*%
X465455000Y-42005000D03*
D11*
%TO.P,D337,2,A*%
%TO.N,Net-(D337-A)*%
X457835000Y-42005000D03*
%TD*%
D10*
%TO.P,D395,1,K*%
%TO.N,Net-(D377-K)*%
X490845000Y-135985000D03*
D11*
%TO.P,D395,2,A*%
%TO.N,Net-(D395-A)*%
X483225000Y-135985000D03*
%TD*%
D10*
%TO.P,D129,1,K*%
%TO.N,Net-(D107-K)*%
X440065000Y-130895000D03*
D11*
%TO.P,D129,2,A*%
%TO.N,Net-(D129-A)*%
X432445000Y-130895000D03*
%TD*%
D10*
%TO.P,D110,1,K*%
%TO.N,Net-(D106-K)*%
X440065000Y-63585000D03*
D11*
%TO.P,D110,2,A*%
%TO.N,Net-(D110-A)*%
X432445000Y-63585000D03*
%TD*%
D10*
%TO.P,D43,1,K*%
%TO.N,Net-(D31-K)*%
X414665000Y-82635000D03*
D11*
%TO.P,D43,2,A*%
%TO.N,Net-(D43-A)*%
X407045000Y-82635000D03*
%TD*%
D10*
%TO.P,SW1,1*%
%TO.N,Net-(D2-A)*%
X403870000Y-203295000D03*
D11*
%TO.P,SW1,2*%
%TO.N,Net-(D3-A)*%
X403870000Y-200755000D03*
%TO.P,SW1,3*%
%TO.N,Net-(D4-A)*%
X403870000Y-198215000D03*
%TO.P,SW1,4*%
%TO.N,Net-(D5-A)*%
X403870000Y-195675000D03*
%TO.P,SW1,5*%
%TO.N,Net-(D6-A)*%
X403870000Y-193135000D03*
%TO.P,SW1,6*%
%TO.N,Net-(D7-A)*%
X403870000Y-190595000D03*
%TO.P,SW1,7*%
%TO.N,Net-(D8-A)*%
X403870000Y-188055000D03*
%TO.P,SW1,8*%
%TO.N,Net-(D9-A)*%
X403870000Y-185515000D03*
%TO.P,SW1,9*%
%TO.N,2ol0*%
X396250000Y-185515000D03*
%TO.P,SW1,10*%
%TO.N,2ol1*%
X396250000Y-188055000D03*
%TO.P,SW1,11*%
%TO.N,2ol2*%
X396250000Y-190595000D03*
%TO.P,SW1,12*%
%TO.N,2ol3*%
X396250000Y-193135000D03*
%TO.P,SW1,13*%
%TO.N,2oc0*%
X396250000Y-195675000D03*
%TO.P,SW1,14*%
%TO.N,2oc1*%
X396250000Y-198215000D03*
%TO.P,SW1,15*%
%TO.N,2oc2*%
X396250000Y-200755000D03*
%TO.P,SW1,16*%
%TO.N,2oc3*%
X396250000Y-203295000D03*
%TD*%
D10*
%TO.P,D133,1,K*%
%TO.N,Net-(D107-K)*%
X440065000Y-125815000D03*
D11*
%TO.P,D133,2,A*%
%TO.N,Net-(D133-A)*%
X432445000Y-125815000D03*
%TD*%
D10*
%TO.P,D314,1,K*%
%TO.N,Net-(D301-K)*%
X465455000Y-80105000D03*
D11*
%TO.P,D314,2,A*%
%TO.N,Net-(D314-A)*%
X457835000Y-80105000D03*
%TD*%
D10*
%TO.P,D33,1,K*%
%TO.N,Net-(D31-K)*%
X414665000Y-109305000D03*
D11*
%TO.P,D33,2,A*%
%TO.N,Net-(D33-A)*%
X407045000Y-109305000D03*
%TD*%
D10*
%TO.P,SW16,1*%
%TO.N,Net-(D109-A)*%
X429270000Y-157470000D03*
D11*
%TO.P,SW16,2*%
%TO.N,Net-(D111-A)*%
X429270000Y-154930000D03*
%TO.P,SW16,3*%
%TO.N,Net-(D113-A)*%
X429270000Y-152390000D03*
%TO.P,SW16,4*%
%TO.N,Net-(D115-A)*%
X429270000Y-149850000D03*
%TO.P,SW16,5*%
%TO.N,Net-(D117-A)*%
X429270000Y-147310000D03*
%TO.P,SW16,6*%
%TO.N,Net-(D119-A)*%
X429270000Y-144770000D03*
%TO.P,SW16,7*%
%TO.N,Net-(D121-A)*%
X429270000Y-142230000D03*
%TO.P,SW16,8*%
%TO.N,Net-(D123-A)*%
X429270000Y-139690000D03*
%TO.P,SW16,9*%
%TO.N,2ol0*%
X421650000Y-139690000D03*
%TO.P,SW16,10*%
%TO.N,2ol1*%
X421650000Y-142230000D03*
%TO.P,SW16,11*%
%TO.N,2ol2*%
X421650000Y-144770000D03*
%TO.P,SW16,12*%
%TO.N,2ol3*%
X421650000Y-147310000D03*
%TO.P,SW16,13*%
%TO.N,2oc0*%
X421650000Y-149850000D03*
%TO.P,SW16,14*%
%TO.N,2oc1*%
X421650000Y-152390000D03*
%TO.P,SW16,15*%
%TO.N,2oc2*%
X421650000Y-154930000D03*
%TO.P,SW16,16*%
%TO.N,2oc3*%
X421650000Y-157470000D03*
%TD*%
D10*
%TO.P,D34,1,K*%
%TO.N,Net-(D31-K)*%
X414665000Y-106765000D03*
D11*
%TO.P,D34,2,A*%
%TO.N,Net-(D34-A)*%
X407045000Y-106765000D03*
%TD*%
D12*
%TO.P,C5,1*%
%TO.N,+5V*%
X528536000Y-199510000D03*
%TO.P,C5,2*%
%TO.N,GND*%
X528536000Y-197010000D03*
%TD*%
D10*
%TO.P,D42,1,K*%
%TO.N,Net-(D31-K)*%
X414665000Y-85175000D03*
D11*
%TO.P,D42,2,A*%
%TO.N,Net-(D42-A)*%
X407045000Y-85175000D03*
%TD*%
D10*
%TO.P,D37,1,K*%
%TO.N,Net-(D31-K)*%
X414665000Y-99145000D03*
D11*
%TO.P,D37,2,A*%
%TO.N,Net-(D37-A)*%
X407045000Y-99145000D03*
%TD*%
D12*
%TO.P,R47,1*%
%TO.N,2ol2*%
X520065000Y-33020000D03*
D11*
%TO.P,R47,2*%
%TO.N,+5V*%
X520065000Y-43180000D03*
%TD*%
D10*
%TO.P,D299,1,K*%
%TO.N,Net-(D286-K)*%
X465455000Y-125825000D03*
D11*
%TO.P,D299,2,A*%
%TO.N,Net-(D299-A)*%
X457835000Y-125825000D03*
%TD*%
D10*
%TO.P,D32,1,K*%
%TO.N,Net-(D31-K)*%
X414665000Y-111960000D03*
D11*
%TO.P,D32,2,A*%
%TO.N,Net-(D32-A)*%
X407045000Y-111960000D03*
%TD*%
D10*
%TO.P,D113,1,K*%
%TO.N,Net-(D107-K)*%
X440065000Y-152485000D03*
D11*
%TO.P,D113,2,A*%
%TO.N,Net-(D113-A)*%
X432445000Y-152485000D03*
%TD*%
D10*
%TO.P,D53,1,K*%
%TO.N,Net-(D47-K)*%
X414665000Y-61045000D03*
D11*
%TO.P,D53,2,A*%
%TO.N,Net-(D53-A)*%
X407045000Y-61045000D03*
%TD*%
D12*
%TO.P,R55,1*%
%TO.N,2Im0*%
X558165000Y-33020000D03*
D11*
%TO.P,R55,2*%
%TO.N,+5V*%
X558165000Y-43180000D03*
%TD*%
D10*
%TO.P,D130,1,K*%
%TO.N,Net-(D106-K)*%
X440065000Y-36915000D03*
D11*
%TO.P,D130,2,A*%
%TO.N,Net-(D130-A)*%
X432445000Y-36915000D03*
%TD*%
D10*
%TO.P,D373,1,K*%
%TO.N,Net-(D347-K)*%
X490885000Y-80105000D03*
D11*
%TO.P,D373,2,A*%
%TO.N,Net-(D373-A)*%
X483265000Y-80105000D03*
%TD*%
D12*
%TO.P,R51,1*%
%TO.N,2Im4*%
X540385000Y-33020000D03*
D11*
%TO.P,R51,2*%
%TO.N,+5V*%
X540385000Y-43180000D03*
%TD*%
D10*
%TO.P,D282,1,K*%
%TO.N,Net-(D271-K)*%
X465455000Y-176625000D03*
D11*
%TO.P,D282,2,A*%
%TO.N,Net-(D282-A)*%
X457835000Y-176625000D03*
%TD*%
D10*
%TO.P,D23,1,K*%
%TO.N,Net-(D16-K)*%
X414665000Y-142325000D03*
D11*
%TO.P,D23,2,A*%
%TO.N,Net-(D23-A)*%
X407045000Y-142325000D03*
%TD*%
D10*
%TO.P,SW18,1*%
%TO.N,Net-(D125-A)*%
X429260000Y-135870000D03*
D11*
%TO.P,SW18,2*%
%TO.N,Net-(D127-A)*%
X429260000Y-133330000D03*
%TO.P,SW18,3*%
%TO.N,Net-(D129-A)*%
X429260000Y-130790000D03*
%TO.P,SW18,4*%
%TO.N,Net-(D131-A)*%
X429260000Y-128250000D03*
%TO.P,SW18,5*%
%TO.N,Net-(D133-A)*%
X429260000Y-125710000D03*
%TO.P,SW18,6*%
%TO.N,Net-(D135-A)*%
X429260000Y-123170000D03*
%TO.P,SW18,7*%
%TO.N,2Im0*%
X421640000Y-123170000D03*
%TO.P,SW18,8*%
%TO.N,2Im1*%
X421640000Y-125710000D03*
%TO.P,SW18,9*%
%TO.N,2Im2*%
X421640000Y-128250000D03*
%TO.P,SW18,10*%
%TO.N,2Im3*%
X421640000Y-130790000D03*
%TO.P,SW18,11*%
%TO.N,2Im4*%
X421640000Y-133330000D03*
%TO.P,SW18,12*%
%TO.N,2Im5*%
X421640000Y-135870000D03*
%TD*%
D10*
%TO.P,SW54,1*%
%TO.N,Net-(D395-A)*%
X480080000Y-135880000D03*
D11*
%TO.P,SW54,2*%
%TO.N,Net-(D397-A)*%
X480080000Y-133340000D03*
%TO.P,SW54,3*%
%TO.N,Net-(D399-A)*%
X480080000Y-130800000D03*
%TO.P,SW54,4*%
%TO.N,Net-(D401-A)*%
X480080000Y-128260000D03*
%TO.P,SW54,5*%
%TO.N,Net-(D403-A)*%
X480080000Y-125720000D03*
%TO.P,SW54,6*%
%TO.N,Net-(D405-A)*%
X480080000Y-123180000D03*
%TO.P,SW54,7*%
%TO.N,2Im0*%
X472460000Y-123180000D03*
%TO.P,SW54,8*%
%TO.N,2Im1*%
X472460000Y-125720000D03*
%TO.P,SW54,9*%
%TO.N,2Im2*%
X472460000Y-128260000D03*
%TO.P,SW54,10*%
%TO.N,2Im3*%
X472460000Y-130800000D03*
%TO.P,SW54,11*%
%TO.N,2Im4*%
X472460000Y-133340000D03*
%TO.P,SW54,12*%
%TO.N,2Im5*%
X472460000Y-135880000D03*
%TD*%
D10*
%TO.P,D304,1,K*%
%TO.N,Net-(D301-K)*%
X465455000Y-106775000D03*
D11*
%TO.P,D304,2,A*%
%TO.N,Net-(D304-A)*%
X457835000Y-106775000D03*
%TD*%
D13*
%TO.P,D31,1,K*%
%TO.N,Net-(D31-K)*%
X410855000Y-116925000D03*
D14*
%TO.P,D31,2,A*%
%TO.N,Net-(D31-A)*%
X408315000Y-116925000D03*
%TD*%
D10*
%TO.P,D278,1,K*%
%TO.N,Net-(D271-K)*%
X465455000Y-188055000D03*
D11*
%TO.P,D278,2,A*%
%TO.N,Net-(D278-A)*%
X457835000Y-188055000D03*
%TD*%
D10*
%TO.P,D26,1,K*%
%TO.N,Net-(D16-K)*%
X414665000Y-133435000D03*
D11*
%TO.P,D26,2,A*%
%TO.N,Net-(D26-A)*%
X407045000Y-133435000D03*
%TD*%
D10*
%TO.P,D403,1,K*%
%TO.N,Net-(D377-K)*%
X490845000Y-125825000D03*
D11*
%TO.P,D403,2,A*%
%TO.N,Net-(D403-A)*%
X483225000Y-125825000D03*
%TD*%
D10*
%TO.P,U2,1,A0*%
%TO.N,pc0*%
X519440000Y-194320000D03*
D11*
%TO.P,U2,2,A1*%
%TO.N,pc1*%
X516900000Y-194320000D03*
%TO.P,U2,3,A2*%
%TO.N,pc2*%
X514360000Y-194320000D03*
%TO.P,U2,4,~{E0}*%
%TO.N,GND*%
X511820000Y-194320000D03*
%TO.P,U2,5,~{E1}*%
X509280000Y-194320000D03*
%TO.P,U2,6,E2*%
%TO.N,Net-(U2-E2)*%
X506740000Y-194320000D03*
%TO.P,U2,7,~{Y7}*%
%TO.N,Net-(D376-K)*%
X504200000Y-194320000D03*
%TO.P,U2,8,GND*%
%TO.N,GND*%
X501660000Y-194320000D03*
%TO.P,U2,9,~{Y6}*%
%TO.N,Net-(D347-K)*%
X501660000Y-201940000D03*
%TO.P,U2,10,~{Y5}*%
%TO.N,Net-(D377-K)*%
X504200000Y-201940000D03*
%TO.P,U2,11,~{Y4}*%
%TO.N,Net-(D346-K)*%
X506740000Y-201940000D03*
%TO.P,U2,12,~{Y3}*%
%TO.N,Net-(D317-K)*%
X509280000Y-201940000D03*
%TO.P,U2,13,~{Y2}*%
%TO.N,Net-(D301-K)*%
X511820000Y-201940000D03*
%TO.P,U2,14,~{Y1}*%
%TO.N,Net-(D286-K)*%
X514360000Y-201940000D03*
%TO.P,U2,15,~{Y0}*%
%TO.N,Net-(D271-K)*%
X516900000Y-201940000D03*
%TO.P,U2,16,VCC*%
%TO.N,+5V*%
X519440000Y-201940000D03*
%TD*%
D12*
%TO.P,R54,1*%
%TO.N,2Im1*%
X553720000Y-33020000D03*
D11*
%TO.P,R54,2*%
%TO.N,+5V*%
X553720000Y-43180000D03*
%TD*%
D10*
%TO.P,D57,1,K*%
%TO.N,Net-(D47-K)*%
X414665000Y-55965000D03*
D11*
%TO.P,D57,2,A*%
%TO.N,Net-(D57-A)*%
X407045000Y-55965000D03*
%TD*%
D10*
%TO.P,D10,1,K*%
%TO.N,Net-(D1-K)*%
X414665000Y-181695000D03*
D11*
%TO.P,D10,2,A*%
%TO.N,Net-(D10-A)*%
X407045000Y-181695000D03*
%TD*%
D10*
%TO.P,D400,1,K*%
%TO.N,Net-(D376-K)*%
X490845000Y-36925000D03*
D11*
%TO.P,D400,2,A*%
%TO.N,Net-(D400-A)*%
X483225000Y-36925000D03*
%TD*%
D10*
%TO.P,D119,1,K*%
%TO.N,Net-(D107-K)*%
X440065000Y-144865000D03*
D11*
%TO.P,D119,2,A*%
%TO.N,Net-(D119-A)*%
X432445000Y-144865000D03*
%TD*%
D10*
%TO.P,D89,1,K*%
%TO.N,Net-(D101-K)*%
X440065000Y-99145000D03*
D11*
%TO.P,D89,2,A*%
%TO.N,Net-(D89-A)*%
X432445000Y-99145000D03*
%TD*%
D10*
%TO.P,U4,1,~{OE1}*%
%TO.N,GND*%
X534670000Y-102235000D03*
D11*
%TO.P,U4,2,A0*%
%TO.N,2Im5*%
X537210000Y-102235000D03*
%TO.P,U4,3,A1*%
%TO.N,2Im4*%
X539750000Y-102235000D03*
%TO.P,U4,4,A2*%
%TO.N,2Im3*%
X542290000Y-102235000D03*
%TO.P,U4,5,A3*%
%TO.N,2Im2*%
X544830000Y-102235000D03*
%TO.P,U4,6,A4*%
%TO.N,2Im1*%
X547370000Y-102235000D03*
%TO.P,U4,7,A5*%
%TO.N,2Im0*%
X549910000Y-102235000D03*
%TO.P,U4,8,A6*%
%TO.N,unconnected-(U4-A6-Pad8)*%
X552450000Y-102235000D03*
%TO.P,U4,9,A7*%
%TO.N,unconnected-(U4-A7-Pad9)*%
X554990000Y-102235000D03*
%TO.P,U4,10,GND*%
%TO.N,GND*%
X557530000Y-102235000D03*
%TO.P,U4,11,~{Y7}*%
%TO.N,unconnected-(U4-~{Y7}-Pad11)*%
X557530000Y-94615000D03*
%TO.P,U4,12,~{Y6}*%
%TO.N,unconnected-(U4-~{Y6}-Pad12)*%
X554990000Y-94615000D03*
%TO.P,U4,13,~{Y5}*%
%TO.N,Im0*%
X552450000Y-94615000D03*
%TO.P,U4,14,~{Y4}*%
%TO.N,Im1*%
X549910000Y-94615000D03*
%TO.P,U4,15,~{Y3}*%
%TO.N,Im2*%
X547370000Y-94615000D03*
%TO.P,U4,16,~{Y2}*%
%TO.N,Im3*%
X544830000Y-94615000D03*
%TO.P,U4,17,~{Y1}*%
%TO.N,Im4*%
X542290000Y-94615000D03*
%TO.P,U4,18,~{Y0}*%
%TO.N,Im5*%
X539750000Y-94615000D03*
%TO.P,U4,19,~{OE2}*%
%TO.N,GND*%
X537210000Y-94615000D03*
%TO.P,U4,20,VCC*%
%TO.N,+5V*%
X534670000Y-94615000D03*
%TD*%
D10*
%TO.P,D8,1,K*%
%TO.N,Net-(D1-K)*%
X414665000Y-187950000D03*
D11*
%TO.P,D8,2,A*%
%TO.N,Net-(D8-A)*%
X407045000Y-187950000D03*
%TD*%
D17*
%TO.N,Net-(D16-K)*%
X543891900Y-190131700D03*
%TO.N,Net-(D31-K)*%
X533051300Y-178421000D03*
%TO.N,Net-(D47-K)*%
X489256000Y-74597500D03*
%TO.N,Net-(D101-K)*%
X517729600Y-163087100D03*
%TO.N,Net-(D106-K)*%
X489765100Y-68497100D03*
%TO.N,Net-(D107-K)*%
X524903200Y-189853500D03*
%TO.N,ol3*%
X554150000Y-114659700D03*
%TO.N,pc4*%
X568529500Y-50994700D03*
%TO.N,2oc3*%
X498407000Y-106325400D03*
%TO.N,2oc2*%
X496610400Y-107054200D03*
%TO.N,2Im4*%
X537593900Y-99346500D03*
%TO.N,2Im2*%
X541124200Y-95830300D03*
%TD*%
D18*
%TO.N,+5V*%
X443918100Y-161323100D02*
X445155000Y-162560000D01*
X472965400Y-69989600D02*
X471835000Y-71120000D01*
X470608100Y-118066900D02*
X471835000Y-116840000D01*
X568270600Y-58401100D02*
X567044900Y-57175400D01*
X535940000Y-43180000D02*
X537066900Y-43180000D01*
X445155000Y-162560000D02*
X446381900Y-161333100D01*
X443918100Y-115603100D02*
X445155000Y-116840000D01*
X419693100Y-163871900D02*
X421015000Y-162550000D01*
X443905800Y-207030800D02*
X422254200Y-207030800D01*
X500380000Y-81065800D02*
X489303800Y-69989600D01*
X395120700Y-113976900D02*
X395120700Y-71604300D01*
X565258200Y-65729500D02*
X566192300Y-64795400D01*
X536286300Y-92998700D02*
X558413700Y-92998700D01*
X446381900Y-118066900D02*
X470608100Y-118066900D01*
X395615000Y-116925000D02*
X396841900Y-115698100D01*
X445155000Y-71120000D02*
X446293200Y-69981800D01*
X515806600Y-199200000D02*
X496796000Y-199200000D01*
X568270600Y-63647500D02*
X568270600Y-58401100D01*
X550401900Y-43180000D02*
X549275000Y-43180000D01*
X445155000Y-116840000D02*
X446381900Y-118066900D01*
X544830000Y-43180000D02*
X540385000Y-43180000D01*
X396841900Y-115698100D02*
X419883100Y-115698100D01*
X419760500Y-69855500D02*
X421015000Y-71110000D01*
X558413700Y-92998700D02*
X562610000Y-97195000D01*
X421015000Y-116830000D02*
X422241900Y-115603100D01*
X528536000Y-200269900D02*
X528536000Y-199510000D01*
X419682500Y-209602500D02*
X396947500Y-209602500D01*
X520065000Y-43180000D02*
X524510000Y-43180000D01*
X551180000Y-201930000D02*
X549519900Y-200269900D01*
X421015000Y-208270000D02*
X419682500Y-209602500D01*
X422241900Y-115603100D02*
X443918100Y-115603100D01*
X565258200Y-67430400D02*
X565258200Y-65729500D01*
X519440000Y-201940000D02*
X518546600Y-201940000D01*
X566192300Y-64795400D02*
X567122700Y-64795400D01*
X395120700Y-71604300D02*
X395615000Y-71110000D01*
X518546600Y-201940000D02*
X515806600Y-199200000D01*
X445155000Y-208280000D02*
X443905800Y-207030800D01*
X506730000Y-43180000D02*
X511175000Y-43180000D01*
X446293200Y-69981800D02*
X470696800Y-69981800D01*
X530880000Y-94615000D02*
X528320000Y-97175000D01*
X520065000Y-43180000D02*
X515620000Y-43180000D01*
X395615000Y-71110000D02*
X396869500Y-69855500D01*
X540385000Y-43180000D02*
X537066900Y-43180000D01*
X421015000Y-162550000D02*
X422241900Y-161323100D01*
X550401900Y-43894500D02*
X550401900Y-43180000D01*
X470586800Y-207031800D02*
X446403200Y-207031800D01*
X515620000Y-43180000D02*
X511175000Y-43180000D01*
X564083200Y-68605400D02*
X565258200Y-67430400D01*
X497840000Y-43180000D02*
X497840000Y-61453400D01*
X445155000Y-71120000D02*
X443929300Y-72345700D01*
X519440000Y-201940000D02*
X526865900Y-201940000D01*
X489303800Y-69989600D02*
X472965400Y-69989600D01*
X534670000Y-94615000D02*
X536286300Y-92998700D01*
X497840000Y-61453400D02*
X489303800Y-69989600D01*
X395615000Y-162645000D02*
X396841900Y-163871900D01*
X470696800Y-69981800D02*
X471835000Y-71120000D01*
X446403200Y-207031800D02*
X445155000Y-208280000D01*
X506730000Y-43180000D02*
X502285000Y-43180000D01*
X396841900Y-163871900D02*
X419693100Y-163871900D01*
X500380000Y-94615000D02*
X500380000Y-81065800D01*
X567044900Y-57175400D02*
X563682800Y-57175400D01*
X534670000Y-94615000D02*
X530880000Y-94615000D01*
X563682800Y-57175400D02*
X550401900Y-43894500D01*
X446381900Y-161333100D02*
X470608100Y-161333100D01*
X471835000Y-208280000D02*
X470586800Y-207031800D01*
X422254200Y-207030800D02*
X421015000Y-208270000D01*
X396841900Y-115698100D02*
X395120700Y-113976900D01*
X396947500Y-209602500D02*
X395615000Y-208270000D01*
X470608100Y-161333100D02*
X471835000Y-162560000D01*
X502285000Y-43180000D02*
X497840000Y-43180000D01*
X526865900Y-201940000D02*
X528536000Y-200269900D01*
X567122700Y-64795400D02*
X568270600Y-63647500D01*
X549519900Y-200269900D02*
X528536000Y-200269900D01*
X422250700Y-72345700D02*
X421015000Y-71110000D01*
X422241900Y-161323100D02*
X443918100Y-161323100D01*
X396869500Y-69855500D02*
X419760500Y-69855500D01*
X524510000Y-43180000D02*
X528955000Y-43180000D01*
X443929300Y-72345700D02*
X422250700Y-72345700D01*
X419883100Y-115698100D02*
X421015000Y-116830000D01*
%TO.N,GND*%
X535288900Y-193183100D02*
X539893100Y-193183100D01*
X550821000Y-99735000D02*
X555030000Y-99735000D01*
X528536000Y-196403400D02*
X528536000Y-197010000D01*
X523240000Y-102235000D02*
X523240000Y-112844000D01*
X533400000Y-194310000D02*
X534162000Y-194310000D01*
X562845000Y-170255000D02*
X561720000Y-169130000D01*
X532273100Y-194310000D02*
X530179700Y-196403400D01*
X562610000Y-195580000D02*
X561483100Y-195580000D01*
X501660000Y-194320000D02*
X499176000Y-194320000D01*
X570230000Y-190500000D02*
X571386500Y-191656500D01*
X568518200Y-162635000D02*
X568518200Y-158122200D01*
X571386500Y-193519500D02*
X570724700Y-194181300D01*
X534162000Y-194310000D02*
X535288900Y-193183100D01*
X543560000Y-194310000D02*
X542146900Y-194310000D01*
X501660000Y-194320000D02*
X502802200Y-195462200D01*
X564878200Y-194181300D02*
X563736900Y-193040000D01*
X563971900Y-165175000D02*
X562845000Y-165175000D01*
X563736900Y-193040000D02*
X562610000Y-193040000D01*
X560070000Y-102235000D02*
X562610000Y-99695000D01*
X562845000Y-175335000D02*
X562845000Y-176228400D01*
X571386500Y-191656500D02*
X571386500Y-193519500D01*
X523240000Y-112844000D02*
X567915000Y-157519000D01*
X562610000Y-203200000D02*
X562610000Y-200660000D01*
X567495000Y-180878400D02*
X567495000Y-185545000D01*
X518235700Y-97230700D02*
X523240000Y-102235000D01*
X533400000Y-194310000D02*
X532273100Y-194310000D01*
X538336900Y-93488100D02*
X545300600Y-93488100D01*
X568518200Y-162635000D02*
X565978200Y-165175000D01*
X539893100Y-193183100D02*
X541020000Y-194310000D01*
X541020000Y-194310000D02*
X542146900Y-194310000D01*
X561720000Y-166300000D02*
X562845000Y-165175000D01*
X568518200Y-158122200D02*
X567915000Y-157519000D01*
X514796800Y-196403400D02*
X528536000Y-196403400D01*
X511820000Y-194320000D02*
X512713400Y-194320000D01*
X570465000Y-162635000D02*
X570465000Y-160069000D01*
X561483100Y-195580000D02*
X544830000Y-195580000D01*
X499176000Y-194320000D02*
X496796000Y-196700000D01*
X505535700Y-97230700D02*
X518235700Y-97230700D01*
X565978200Y-165175000D02*
X563971900Y-165175000D01*
X512713400Y-194320000D02*
X514796800Y-196403400D01*
X546100000Y-94287500D02*
X546100000Y-95014000D01*
X570724700Y-194181300D02*
X564878200Y-194181300D01*
X502802200Y-195462200D02*
X508137800Y-195462200D01*
X562845000Y-176228400D02*
X567495000Y-180878400D01*
X537210000Y-94615000D02*
X538336900Y-93488100D01*
X545300600Y-93488100D02*
X546100000Y-94287500D01*
X546100000Y-95014000D02*
X550821000Y-99735000D01*
X570465000Y-160069000D02*
X567915000Y-157519000D01*
X530179700Y-196403400D02*
X528536000Y-196403400D01*
X555030000Y-99735000D02*
X557530000Y-102235000D01*
X509280000Y-194320000D02*
X511820000Y-194320000D01*
X508137800Y-195462200D02*
X509280000Y-194320000D01*
X557530000Y-102235000D02*
X560070000Y-102235000D01*
X561720000Y-169130000D02*
X561720000Y-166300000D01*
X544830000Y-195580000D02*
X543560000Y-194310000D01*
X502920000Y-94615000D02*
X505535700Y-97230700D01*
%TO.N,Net-(D1-K)*%
X417812200Y-205355300D02*
X415791900Y-203335000D01*
X415791900Y-203335000D02*
X414665000Y-203335000D01*
X547746600Y-201930000D02*
X544321300Y-205355300D01*
X548640000Y-201930000D02*
X547746600Y-201930000D01*
X544321300Y-205355300D02*
X417812200Y-205355300D01*
%TO.N,Net-(D1-A)*%
X408220000Y-208365000D02*
X406996900Y-208365000D01*
X406996900Y-208365000D02*
X406901900Y-208270000D01*
X405775000Y-208270000D02*
X406901900Y-208270000D01*
%TO.N,Net-(D2-A)*%
X403870000Y-203295000D02*
X405878100Y-203295000D01*
X405878100Y-203295000D02*
X405918100Y-203335000D01*
X407045000Y-203335000D02*
X405918100Y-203335000D01*
%TO.N,Net-(D3-A)*%
X403870000Y-200755000D02*
X405813100Y-200755000D01*
X405813100Y-200755000D02*
X405918100Y-200650000D01*
X407045000Y-200650000D02*
X405918100Y-200650000D01*
%TO.N,Net-(D4-A)*%
X403870000Y-198215000D02*
X405813100Y-198215000D01*
X407045000Y-198110000D02*
X405918100Y-198110000D01*
X405813100Y-198215000D02*
X405918100Y-198110000D01*
%TO.N,Net-(D5-A)*%
X403870000Y-195675000D02*
X405813100Y-195675000D01*
X407045000Y-195570000D02*
X405918100Y-195570000D01*
X405813100Y-195675000D02*
X405918100Y-195570000D01*
%TO.N,Net-(D6-A)*%
X403870000Y-193135000D02*
X405813100Y-193135000D01*
X405813100Y-193135000D02*
X405918100Y-193030000D01*
X407045000Y-193030000D02*
X405918100Y-193030000D01*
%TO.N,Net-(D7-A)*%
X405813100Y-190595000D02*
X405918100Y-190490000D01*
X403870000Y-190595000D02*
X405813100Y-190595000D01*
X407045000Y-190490000D02*
X405918100Y-190490000D01*
%TO.N,Net-(D8-A)*%
X407045000Y-187950000D02*
X405918100Y-187950000D01*
X405813100Y-188055000D02*
X405918100Y-187950000D01*
X403870000Y-188055000D02*
X405813100Y-188055000D01*
%TO.N,Net-(D9-A)*%
X407045000Y-185410000D02*
X405918100Y-185410000D01*
X403870000Y-185515000D02*
X405813100Y-185515000D01*
X405813100Y-185515000D02*
X405918100Y-185410000D01*
%TO.N,Net-(D10-A)*%
X403870000Y-181695000D02*
X407045000Y-181695000D01*
%TO.N,Net-(D11-A)*%
X403870000Y-179155000D02*
X407045000Y-179155000D01*
%TO.N,Net-(D12-A)*%
X403870000Y-176615000D02*
X407045000Y-176615000D01*
%TO.N,Net-(D13-A)*%
X403870000Y-174075000D02*
X407045000Y-174075000D01*
%TO.N,Net-(D14-A)*%
X403870000Y-171535000D02*
X407045000Y-171535000D01*
%TO.N,Net-(D15-A)*%
X403870000Y-168995000D02*
X407045000Y-168995000D01*
%TO.N,Net-(D16-K)*%
X478297600Y-166569400D02*
X520171800Y-166569400D01*
X543734100Y-190131700D02*
X543891900Y-190131700D01*
X414665000Y-157608100D02*
X414665000Y-157565000D01*
X414665000Y-157565000D02*
X415791900Y-157565000D01*
X415791900Y-157565000D02*
X418005600Y-159778700D01*
X471506900Y-159778700D02*
X478297600Y-166569400D01*
X418005600Y-159778700D02*
X471506900Y-159778700D01*
X410855000Y-162645000D02*
X410855000Y-161418100D01*
X410855000Y-161418100D02*
X414665000Y-157608100D01*
X520171800Y-166569400D02*
X543734100Y-190131700D01*
%TO.N,Net-(D16-A)*%
X408315000Y-162645000D02*
X405775000Y-162645000D01*
%TO.N,Net-(D17-A)*%
X403870000Y-157565000D02*
X407045000Y-157565000D01*
%TO.N,Net-(D18-A)*%
X405888100Y-155025000D02*
X405918100Y-155055000D01*
X407045000Y-155055000D02*
X405918100Y-155055000D01*
X403870000Y-155025000D02*
X405888100Y-155025000D01*
%TO.N,Net-(D19-A)*%
X407045000Y-152515000D02*
X405918100Y-152515000D01*
X405888100Y-152485000D02*
X405918100Y-152515000D01*
X403870000Y-152485000D02*
X405888100Y-152485000D01*
%TO.N,Net-(D20-A)*%
X407045000Y-149975000D02*
X405918100Y-149975000D01*
X403870000Y-149945000D02*
X405888100Y-149945000D01*
X405888100Y-149945000D02*
X405918100Y-149975000D01*
%TO.N,Net-(D21-A)*%
X403870000Y-147405000D02*
X405888100Y-147405000D01*
X405888100Y-147405000D02*
X405918100Y-147435000D01*
X407045000Y-147435000D02*
X405918100Y-147435000D01*
%TO.N,Net-(D22-A)*%
X403870000Y-144865000D02*
X407045000Y-144865000D01*
%TO.N,Net-(D23-A)*%
X403870000Y-142325000D02*
X407045000Y-142325000D01*
%TO.N,Net-(D24-A)*%
X403870000Y-139785000D02*
X407045000Y-139785000D01*
%TO.N,Net-(D25-A)*%
X405803100Y-135975000D02*
X405918100Y-136090000D01*
X403870000Y-135975000D02*
X405803100Y-135975000D01*
X407045000Y-136090000D02*
X405918100Y-136090000D01*
%TO.N,Net-(D26-A)*%
X403870000Y-133435000D02*
X407045000Y-133435000D01*
%TO.N,Net-(D27-A)*%
X403870000Y-130895000D02*
X407045000Y-130895000D01*
%TO.N,Net-(D28-A)*%
X403870000Y-128355000D02*
X407045000Y-128355000D01*
%TO.N,Net-(D29-A)*%
X403870000Y-125815000D02*
X407045000Y-125815000D01*
%TO.N,Net-(D30-A)*%
X403870000Y-123275000D02*
X407045000Y-123275000D01*
%TO.N,Net-(D31-K)*%
X479719300Y-132070000D02*
X474391800Y-126742500D01*
X472460600Y-121584300D02*
X416741200Y-121584300D01*
X474391800Y-126742500D02*
X474391800Y-123515500D01*
X484189800Y-132070000D02*
X479719300Y-132070000D01*
X533051300Y-178421000D02*
X519223600Y-164593300D01*
X410855000Y-116925000D02*
X412081900Y-116925000D01*
X519223600Y-164593300D02*
X518180600Y-164593300D01*
X490395000Y-138275200D02*
X484189800Y-132070000D01*
X491862500Y-138275200D02*
X490395000Y-138275200D01*
X416741200Y-121584300D02*
X412081900Y-116925000D01*
X474391800Y-123515500D02*
X472460600Y-121584300D01*
X518180600Y-164593300D02*
X491862500Y-138275200D01*
%TO.N,Net-(D31-A)*%
X408315000Y-116925000D02*
X405775000Y-116925000D01*
%TO.N,Net-(D32-A)*%
X407045000Y-111960000D02*
X405918100Y-111960000D01*
X405813100Y-111855000D02*
X405918100Y-111960000D01*
X403870000Y-111855000D02*
X405813100Y-111855000D01*
%TO.N,Net-(D33-A)*%
X407045000Y-109305000D02*
X405918100Y-109305000D01*
X405908100Y-109315000D02*
X405918100Y-109305000D01*
X403870000Y-109315000D02*
X405908100Y-109315000D01*
%TO.N,Net-(D34-A)*%
X403870000Y-106775000D02*
X405908100Y-106775000D01*
X407045000Y-106765000D02*
X405918100Y-106765000D01*
X405908100Y-106775000D02*
X405918100Y-106765000D01*
%TO.N,Net-(D35-A)*%
X407045000Y-104225000D02*
X405918100Y-104225000D01*
X405908100Y-104235000D02*
X405918100Y-104225000D01*
X403870000Y-104235000D02*
X405908100Y-104235000D01*
%TO.N,Net-(D36-A)*%
X403870000Y-101695000D02*
X405908100Y-101695000D01*
X405908100Y-101695000D02*
X405918100Y-101685000D01*
X407045000Y-101685000D02*
X405918100Y-101685000D01*
%TO.N,Net-(D37-A)*%
X403870000Y-99155000D02*
X405908100Y-99155000D01*
X407045000Y-99145000D02*
X405918100Y-99145000D01*
X405908100Y-99155000D02*
X405918100Y-99145000D01*
%TO.N,Net-(D38-A)*%
X403870000Y-96615000D02*
X405908100Y-96615000D01*
X405908100Y-96615000D02*
X405918100Y-96605000D01*
X407045000Y-96605000D02*
X405918100Y-96605000D01*
%TO.N,Net-(D39-A)*%
X405908100Y-94075000D02*
X405918100Y-94065000D01*
X407045000Y-94065000D02*
X405918100Y-94065000D01*
X403870000Y-94075000D02*
X405908100Y-94075000D01*
%TO.N,Net-(D40-A)*%
X407045000Y-90255000D02*
X405918100Y-90255000D01*
X405908100Y-90265000D02*
X405918100Y-90255000D01*
X403870000Y-90265000D02*
X405908100Y-90265000D01*
%TO.N,Net-(D41-A)*%
X407045000Y-87715000D02*
X405918100Y-87715000D01*
X403870000Y-87725000D02*
X405908100Y-87725000D01*
X405908100Y-87725000D02*
X405918100Y-87715000D01*
%TO.N,Net-(D42-A)*%
X407045000Y-85175000D02*
X405918100Y-85175000D01*
X405908100Y-85185000D02*
X405918100Y-85175000D01*
X403870000Y-85185000D02*
X405908100Y-85185000D01*
%TO.N,Net-(D43-A)*%
X405908100Y-82645000D02*
X405918100Y-82635000D01*
X403870000Y-82645000D02*
X405908100Y-82645000D01*
X407045000Y-82635000D02*
X405918100Y-82635000D01*
%TO.N,Net-(D44-A)*%
X407045000Y-80095000D02*
X405918100Y-80095000D01*
X405908100Y-80105000D02*
X405918100Y-80095000D01*
X403870000Y-80105000D02*
X405908100Y-80105000D01*
%TO.N,Net-(D45-A)*%
X407045000Y-77555000D02*
X405918100Y-77555000D01*
X405908100Y-77565000D02*
X405918100Y-77555000D01*
X403870000Y-77565000D02*
X405908100Y-77565000D01*
%TO.N,Net-(D47-K)*%
X415569400Y-74597500D02*
X489256000Y-74597500D01*
X410855000Y-71110000D02*
X412081900Y-71110000D01*
X412081900Y-71110000D02*
X415569400Y-74597500D01*
%TO.N,Net-(D47-A)*%
X408315000Y-71110000D02*
X405775000Y-71110000D01*
%TO.N,Net-(D49-A)*%
X407045000Y-66125000D02*
X405918100Y-66125000D01*
X405833100Y-66040000D02*
X405918100Y-66125000D01*
X403860000Y-66040000D02*
X405833100Y-66040000D01*
%TO.N,Net-(D51-A)*%
X407045000Y-63585000D02*
X405918100Y-63585000D01*
X403860000Y-63500000D02*
X405833100Y-63500000D01*
X405833100Y-63500000D02*
X405918100Y-63585000D01*
%TO.N,Net-(D53-A)*%
X403860000Y-60960000D02*
X405833100Y-60960000D01*
X405833100Y-60960000D02*
X405918100Y-61045000D01*
X407045000Y-61045000D02*
X405918100Y-61045000D01*
%TO.N,Net-(D55-A)*%
X403860000Y-58420000D02*
X405833100Y-58420000D01*
X407045000Y-58505000D02*
X405918100Y-58505000D01*
X405833100Y-58420000D02*
X405918100Y-58505000D01*
%TO.N,Net-(D57-A)*%
X403860000Y-55880000D02*
X405833100Y-55880000D01*
X405833100Y-55880000D02*
X405918100Y-55965000D01*
X407045000Y-55965000D02*
X405918100Y-55965000D01*
%TO.N,Net-(D59-A)*%
X405833100Y-53340000D02*
X405918100Y-53425000D01*
X407045000Y-53425000D02*
X405918100Y-53425000D01*
X403860000Y-53340000D02*
X405833100Y-53340000D01*
%TO.N,Net-(D61-A)*%
X407045000Y-50885000D02*
X405918100Y-50885000D01*
X405833100Y-50800000D02*
X405918100Y-50885000D01*
X403860000Y-50800000D02*
X405833100Y-50800000D01*
%TO.N,Net-(D63-A)*%
X405833100Y-48260000D02*
X405918100Y-48345000D01*
X403860000Y-48260000D02*
X405833100Y-48260000D01*
X407045000Y-48345000D02*
X405918100Y-48345000D01*
%TO.N,Net-(D65-A)*%
X407045000Y-44535000D02*
X405918100Y-44535000D01*
X405833100Y-44450000D02*
X405918100Y-44535000D01*
X403860000Y-44450000D02*
X405833100Y-44450000D01*
%TO.N,Net-(D67-A)*%
X403860000Y-41910000D02*
X405833100Y-41910000D01*
X405833100Y-41910000D02*
X405918100Y-41995000D01*
X407045000Y-41995000D02*
X405918100Y-41995000D01*
%TO.N,Net-(D69-A)*%
X407045000Y-39455000D02*
X405918100Y-39455000D01*
X403860000Y-39370000D02*
X405833100Y-39370000D01*
X405833100Y-39370000D02*
X405918100Y-39455000D01*
%TO.N,Net-(D71-A)*%
X407045000Y-36915000D02*
X405918100Y-36915000D01*
X403860000Y-36830000D02*
X405833100Y-36830000D01*
X405833100Y-36830000D02*
X405918100Y-36915000D01*
%TO.N,Net-(D73-A)*%
X405833100Y-34290000D02*
X405918100Y-34375000D01*
X407045000Y-34375000D02*
X405918100Y-34375000D01*
X403860000Y-34290000D02*
X405833100Y-34290000D01*
%TO.N,Net-(D75-A)*%
X403860000Y-31750000D02*
X405833100Y-31750000D01*
X407045000Y-31835000D02*
X405918100Y-31835000D01*
X405833100Y-31750000D02*
X405918100Y-31835000D01*
%TO.N,Net-(D100-K)*%
X537353100Y-202211700D02*
X534675300Y-204889500D01*
X538198300Y-202211700D02*
X537353100Y-202211700D01*
X538480000Y-201930000D02*
X538198300Y-202211700D01*
X534675300Y-204889500D02*
X442796400Y-204889500D01*
X441191900Y-203285000D02*
X440065000Y-203285000D01*
X442796400Y-204889500D02*
X441191900Y-203285000D01*
%TO.N,Net-(D76-A)*%
X433715000Y-208270000D02*
X431175000Y-208270000D01*
%TO.N,Net-(D101-K)*%
X483483700Y-129530000D02*
X479754700Y-129530000D01*
X491754500Y-137112000D02*
X491754500Y-137111900D01*
X486465700Y-132512000D02*
X483483700Y-129530000D01*
X486465700Y-133668000D02*
X486465700Y-132512000D01*
X489909600Y-137111900D02*
X486465700Y-133668000D01*
X475329900Y-123809800D02*
X471705300Y-120185200D01*
X440837100Y-120185200D02*
X437481900Y-116830000D01*
X479754700Y-129530000D02*
X475329900Y-125105200D01*
X436255000Y-116830000D02*
X437481900Y-116830000D01*
X517729600Y-163087100D02*
X491754500Y-137112000D01*
X475329900Y-125105200D02*
X475329900Y-123809800D01*
X491754500Y-137111900D02*
X489909600Y-137111900D01*
X471705300Y-120185200D02*
X440837100Y-120185200D01*
%TO.N,Net-(D77-A)*%
X433715000Y-116830000D02*
X431175000Y-116830000D01*
%TO.N,Net-(D78-A)*%
X432445000Y-203285000D02*
X431318100Y-203285000D01*
X431223100Y-203190000D02*
X431318100Y-203285000D01*
X429270000Y-203190000D02*
X431223100Y-203190000D01*
%TO.N,Net-(D79-A)*%
X429260000Y-111760000D02*
X431233100Y-111760000D01*
X432445000Y-111845000D02*
X431318100Y-111845000D01*
X431233100Y-111760000D02*
X431318100Y-111845000D01*
%TO.N,Net-(D80-A)*%
X432445000Y-200745000D02*
X431318100Y-200745000D01*
X429270000Y-200650000D02*
X431223100Y-200650000D01*
X431223100Y-200650000D02*
X431318100Y-200745000D01*
%TO.N,Net-(D81-A)*%
X432445000Y-109305000D02*
X431318100Y-109305000D01*
X431233100Y-109220000D02*
X431318100Y-109305000D01*
X429260000Y-109220000D02*
X431233100Y-109220000D01*
%TO.N,Net-(D82-A)*%
X431223100Y-198110000D02*
X431318100Y-198205000D01*
X432445000Y-198205000D02*
X431318100Y-198205000D01*
X429270000Y-198110000D02*
X431223100Y-198110000D01*
%TO.N,Net-(D83-A)*%
X431233100Y-106680000D02*
X431318100Y-106765000D01*
X429260000Y-106680000D02*
X431233100Y-106680000D01*
X432445000Y-106765000D02*
X431318100Y-106765000D01*
%TO.N,Net-(D84-A)*%
X432445000Y-195665000D02*
X431318100Y-195665000D01*
X431223100Y-195570000D02*
X431318100Y-195665000D01*
X429270000Y-195570000D02*
X431223100Y-195570000D01*
%TO.N,Net-(D85-A)*%
X432445000Y-104225000D02*
X431318100Y-104225000D01*
X431233100Y-104140000D02*
X431318100Y-104225000D01*
X429260000Y-104140000D02*
X431233100Y-104140000D01*
%TO.N,Net-(D86-A)*%
X429270000Y-193030000D02*
X431223100Y-193030000D01*
X432445000Y-193125000D02*
X431318100Y-193125000D01*
X431223100Y-193030000D02*
X431318100Y-193125000D01*
%TO.N,Net-(D87-A)*%
X431233100Y-101600000D02*
X431318100Y-101685000D01*
X432445000Y-101685000D02*
X431318100Y-101685000D01*
X429260000Y-101600000D02*
X431233100Y-101600000D01*
%TO.N,Net-(D88-A)*%
X432445000Y-190585000D02*
X431318100Y-190585000D01*
X431223100Y-190490000D02*
X431318100Y-190585000D01*
X429270000Y-190490000D02*
X431223100Y-190490000D01*
%TO.N,Net-(D89-A)*%
X429260000Y-99060000D02*
X431233100Y-99060000D01*
X432445000Y-99145000D02*
X431318100Y-99145000D01*
X431233100Y-99060000D02*
X431318100Y-99145000D01*
%TO.N,Net-(D90-A)*%
X429270000Y-187950000D02*
X431223100Y-187950000D01*
X432445000Y-188045000D02*
X431318100Y-188045000D01*
X431223100Y-187950000D02*
X431318100Y-188045000D01*
%TO.N,Net-(D91-A)*%
X432445000Y-96605000D02*
X431318100Y-96605000D01*
X429260000Y-96520000D02*
X431233100Y-96520000D01*
X431233100Y-96520000D02*
X431318100Y-96605000D01*
%TO.N,Net-(D92-A)*%
X432445000Y-185505000D02*
X431318100Y-185505000D01*
X429270000Y-185410000D02*
X431223100Y-185410000D01*
X431223100Y-185410000D02*
X431318100Y-185505000D01*
%TO.N,Net-(D93-A)*%
X429260000Y-93980000D02*
X431233100Y-93980000D01*
X431233100Y-93980000D02*
X431318100Y-94065000D01*
X432445000Y-94065000D02*
X431318100Y-94065000D01*
%TO.N,Net-(D94-A)*%
X432445000Y-181695000D02*
X431318100Y-181695000D01*
X429270000Y-181600000D02*
X431223100Y-181600000D01*
X431223100Y-181600000D02*
X431318100Y-181695000D01*
%TO.N,Net-(D95-A)*%
X429250000Y-90170000D02*
X431233100Y-90170000D01*
X432445000Y-90255000D02*
X431318100Y-90255000D01*
X431233100Y-90170000D02*
X431318100Y-90255000D01*
%TO.N,Net-(D96-A)*%
X432445000Y-179155000D02*
X431318100Y-179155000D01*
X429270000Y-179060000D02*
X431223100Y-179060000D01*
X431223100Y-179060000D02*
X431318100Y-179155000D01*
%TO.N,Net-(D97-A)*%
X431233100Y-87630000D02*
X431318100Y-87715000D01*
X429250000Y-87630000D02*
X431233100Y-87630000D01*
X432445000Y-87715000D02*
X431318100Y-87715000D01*
%TO.N,Net-(D98-A)*%
X432445000Y-176615000D02*
X431318100Y-176615000D01*
X431223100Y-176520000D02*
X431318100Y-176615000D01*
X429270000Y-176520000D02*
X431223100Y-176520000D01*
%TO.N,Net-(D99-A)*%
X431233100Y-85090000D02*
X431318100Y-85175000D01*
X429250000Y-85090000D02*
X431233100Y-85090000D01*
X432445000Y-85175000D02*
X431318100Y-85175000D01*
%TO.N,Net-(D100-A)*%
X429270000Y-173980000D02*
X431223100Y-173980000D01*
X432445000Y-174075000D02*
X431318100Y-174075000D01*
X431223100Y-173980000D02*
X431318100Y-174075000D01*
%TO.N,Net-(D101-A)*%
X431233100Y-82550000D02*
X431318100Y-82635000D01*
X432445000Y-82635000D02*
X431318100Y-82635000D01*
X429250000Y-82550000D02*
X431233100Y-82550000D01*
%TO.N,Net-(D102-A)*%
X432445000Y-171535000D02*
X431318100Y-171535000D01*
X431223100Y-171440000D02*
X431318100Y-171535000D01*
X429270000Y-171440000D02*
X431223100Y-171440000D01*
%TO.N,Net-(D103-A)*%
X432445000Y-80095000D02*
X431318100Y-80095000D01*
X429250000Y-80010000D02*
X431233100Y-80010000D01*
X431233100Y-80010000D02*
X431318100Y-80095000D01*
%TO.N,Net-(D104-A)*%
X431223100Y-168900000D02*
X431318100Y-168995000D01*
X432445000Y-168995000D02*
X431318100Y-168995000D01*
X429270000Y-168900000D02*
X431223100Y-168900000D01*
%TO.N,Net-(D105-A)*%
X429250000Y-77470000D02*
X431233100Y-77470000D01*
X432445000Y-77555000D02*
X431318100Y-77555000D01*
X431233100Y-77470000D02*
X431318100Y-77555000D01*
%TO.N,Net-(D106-K)*%
X436255000Y-69883100D02*
X440013100Y-66125000D01*
X436255000Y-71110000D02*
X436255000Y-69883100D01*
X442437100Y-68497100D02*
X440065000Y-66125000D01*
X489765100Y-68497100D02*
X442437100Y-68497100D01*
X440013100Y-66125000D02*
X440065000Y-66125000D01*
%TO.N,Net-(D106-A)*%
X433715000Y-71110000D02*
X431175000Y-71110000D01*
%TO.N,Net-(D107-K)*%
X436255000Y-162550000D02*
X437481900Y-162550000D01*
X476129100Y-170180000D02*
X470484100Y-164535000D01*
X505229700Y-170180000D02*
X476129100Y-170180000D01*
X524903200Y-189853500D02*
X505229700Y-170180000D01*
X439466900Y-164535000D02*
X437481900Y-162550000D01*
X470484100Y-164535000D02*
X439466900Y-164535000D01*
%TO.N,Net-(D107-A)*%
X433715000Y-162550000D02*
X431175000Y-162550000D01*
%TO.N,Net-(D108-A)*%
X429260000Y-66040000D02*
X431233100Y-66040000D01*
X431233100Y-66040000D02*
X431318100Y-66125000D01*
X432445000Y-66125000D02*
X431318100Y-66125000D01*
%TO.N,Net-(D109-A)*%
X432445000Y-157565000D02*
X431318100Y-157565000D01*
X431223100Y-157470000D02*
X431318100Y-157565000D01*
X429270000Y-157470000D02*
X431223100Y-157470000D01*
%TO.N,Net-(D110-A)*%
X429260000Y-63500000D02*
X431233100Y-63500000D01*
X431233100Y-63500000D02*
X431318100Y-63585000D01*
X432445000Y-63585000D02*
X431318100Y-63585000D01*
%TO.N,Net-(D111-A)*%
X431223100Y-154930000D02*
X431318100Y-155025000D01*
X429270000Y-154930000D02*
X431223100Y-154930000D01*
X432445000Y-155025000D02*
X431318100Y-155025000D01*
%TO.N,Net-(D112-A)*%
X432445000Y-61045000D02*
X431318100Y-61045000D01*
X431233100Y-60960000D02*
X431318100Y-61045000D01*
X429260000Y-60960000D02*
X431233100Y-60960000D01*
%TO.N,Net-(D113-A)*%
X429270000Y-152390000D02*
X431223100Y-152390000D01*
X432445000Y-152485000D02*
X431318100Y-152485000D01*
X431223100Y-152390000D02*
X431318100Y-152485000D01*
%TO.N,Net-(D114-A)*%
X431233100Y-58420000D02*
X431318100Y-58505000D01*
X429260000Y-58420000D02*
X431233100Y-58420000D01*
X432445000Y-58505000D02*
X431318100Y-58505000D01*
%TO.N,Net-(D115-A)*%
X431223100Y-149850000D02*
X431318100Y-149945000D01*
X429270000Y-149850000D02*
X431223100Y-149850000D01*
X432445000Y-149945000D02*
X431318100Y-149945000D01*
%TO.N,Net-(D116-A)*%
X432445000Y-55965000D02*
X431318100Y-55965000D01*
X431233100Y-55880000D02*
X431318100Y-55965000D01*
X429260000Y-55880000D02*
X431233100Y-55880000D01*
%TO.N,Net-(D117-A)*%
X429270000Y-147310000D02*
X431223100Y-147310000D01*
X432445000Y-147405000D02*
X431318100Y-147405000D01*
X431223100Y-147310000D02*
X431318100Y-147405000D01*
%TO.N,Net-(D118-A)*%
X432445000Y-53425000D02*
X431318100Y-53425000D01*
X429260000Y-53340000D02*
X431233100Y-53340000D01*
X431233100Y-53340000D02*
X431318100Y-53425000D01*
%TO.N,Net-(D119-A)*%
X431223100Y-144770000D02*
X431318100Y-144865000D01*
X432445000Y-144865000D02*
X431318100Y-144865000D01*
X429270000Y-144770000D02*
X431223100Y-144770000D01*
%TO.N,Net-(D120-A)*%
X431233100Y-50800000D02*
X431318100Y-50885000D01*
X432445000Y-50885000D02*
X431318100Y-50885000D01*
X429260000Y-50800000D02*
X431233100Y-50800000D01*
%TO.N,Net-(D121-A)*%
X432445000Y-142325000D02*
X431318100Y-142325000D01*
X431223100Y-142230000D02*
X431318100Y-142325000D01*
X429270000Y-142230000D02*
X431223100Y-142230000D01*
%TO.N,Net-(D122-A)*%
X429260000Y-48260000D02*
X431233100Y-48260000D01*
X431233100Y-48260000D02*
X431318100Y-48345000D01*
X432445000Y-48345000D02*
X431318100Y-48345000D01*
%TO.N,Net-(D123-A)*%
X432445000Y-139785000D02*
X431318100Y-139785000D01*
X431223100Y-139690000D02*
X431318100Y-139785000D01*
X429270000Y-139690000D02*
X431223100Y-139690000D01*
%TO.N,Net-(D124-A)*%
X429260000Y-44450000D02*
X431233100Y-44450000D01*
X432445000Y-44535000D02*
X431318100Y-44535000D01*
X431233100Y-44450000D02*
X431318100Y-44535000D01*
%TO.N,Net-(D125-A)*%
X431213100Y-135870000D02*
X431318100Y-135975000D01*
X429260000Y-135870000D02*
X431213100Y-135870000D01*
X432445000Y-135975000D02*
X431318100Y-135975000D01*
%TO.N,Net-(D126-A)*%
X432445000Y-41995000D02*
X431318100Y-41995000D01*
X429260000Y-41910000D02*
X431233100Y-41910000D01*
X431233100Y-41910000D02*
X431318100Y-41995000D01*
%TO.N,Net-(D127-A)*%
X431213100Y-133330000D02*
X431318100Y-133435000D01*
X429260000Y-133330000D02*
X431213100Y-133330000D01*
X432445000Y-133435000D02*
X431318100Y-133435000D01*
%TO.N,Net-(D128-A)*%
X431233100Y-39370000D02*
X431318100Y-39455000D01*
X429260000Y-39370000D02*
X431233100Y-39370000D01*
X432445000Y-39455000D02*
X431318100Y-39455000D01*
%TO.N,Net-(D129-A)*%
X429260000Y-130790000D02*
X431213100Y-130790000D01*
X431213100Y-130790000D02*
X431318100Y-130895000D01*
X432445000Y-130895000D02*
X431318100Y-130895000D01*
%TO.N,Net-(D130-A)*%
X432445000Y-36915000D02*
X431318100Y-36915000D01*
X429260000Y-36830000D02*
X431233100Y-36830000D01*
X431233100Y-36830000D02*
X431318100Y-36915000D01*
%TO.N,Net-(D131-A)*%
X431213100Y-128250000D02*
X431318100Y-128355000D01*
X432445000Y-128355000D02*
X431318100Y-128355000D01*
X429260000Y-128250000D02*
X431213100Y-128250000D01*
%TO.N,Net-(D132-A)*%
X430471900Y-34375000D02*
X432445000Y-34375000D01*
X430386900Y-34290000D02*
X430471900Y-34375000D01*
X429260000Y-34290000D02*
X430386900Y-34290000D01*
%TO.N,Net-(D133-A)*%
X432445000Y-125815000D02*
X431318100Y-125815000D01*
X431213100Y-125710000D02*
X431318100Y-125815000D01*
X429260000Y-125710000D02*
X431213100Y-125710000D01*
%TO.N,Net-(D134-A)*%
X432445000Y-31835000D02*
X431318100Y-31835000D01*
X431233100Y-31750000D02*
X431318100Y-31835000D01*
X429260000Y-31750000D02*
X431233100Y-31750000D01*
%TO.N,Net-(D135-A)*%
X432445000Y-123275000D02*
X431318100Y-123275000D01*
X429260000Y-123170000D02*
X431213100Y-123170000D01*
X431213100Y-123170000D02*
X431318100Y-123275000D01*
%TO.N,Net-(D271-K)*%
X516900000Y-201940000D02*
X515743100Y-203096900D01*
X495998100Y-201884900D02*
X467711800Y-201884900D01*
X466581900Y-200755000D02*
X465455000Y-200755000D01*
X467711800Y-201884900D02*
X466581900Y-200755000D01*
X497210100Y-203096900D02*
X495998100Y-201884900D01*
X465455000Y-200755000D02*
X465455000Y-203295000D01*
X515743100Y-203096900D02*
X497210100Y-203096900D01*
%TO.N,Net-(D271-A)*%
X457835000Y-208280000D02*
X455315000Y-208280000D01*
%TO.N,Net-(D272-A)*%
X454660000Y-203200000D02*
X456613100Y-203200000D01*
X456613100Y-203200000D02*
X456708100Y-203295000D01*
X457835000Y-203295000D02*
X456708100Y-203295000D01*
%TO.N,Net-(D273-A)*%
X457835000Y-200755000D02*
X456708100Y-200755000D01*
X454660000Y-200660000D02*
X456613100Y-200660000D01*
X456613100Y-200660000D02*
X456708100Y-200755000D01*
%TO.N,Net-(D274-A)*%
X457835000Y-198215000D02*
X456708100Y-198215000D01*
X454660000Y-198120000D02*
X456613100Y-198120000D01*
X456613100Y-198120000D02*
X456708100Y-198215000D01*
%TO.N,Net-(D275-A)*%
X457835000Y-195675000D02*
X456708100Y-195675000D01*
X456613100Y-195580000D02*
X456708100Y-195675000D01*
X454660000Y-195580000D02*
X456613100Y-195580000D01*
%TO.N,Net-(D276-A)*%
X454660000Y-193040000D02*
X456613100Y-193040000D01*
X457835000Y-193135000D02*
X456708100Y-193135000D01*
X456613100Y-193040000D02*
X456708100Y-193135000D01*
%TO.N,Net-(D277-A)*%
X454660000Y-190500000D02*
X456613100Y-190500000D01*
X456613100Y-190500000D02*
X456708100Y-190595000D01*
X457835000Y-190595000D02*
X456708100Y-190595000D01*
%TO.N,Net-(D278-A)*%
X454660000Y-187960000D02*
X456613100Y-187960000D01*
X457835000Y-188055000D02*
X456708100Y-188055000D01*
X456613100Y-187960000D02*
X456708100Y-188055000D01*
%TO.N,Net-(D279-A)*%
X457835000Y-185515000D02*
X456708100Y-185515000D01*
X454660000Y-185420000D02*
X456613100Y-185420000D01*
X456613100Y-185420000D02*
X456708100Y-185515000D01*
%TO.N,Net-(D280-A)*%
X457835000Y-181705000D02*
X456708100Y-181705000D01*
X456613100Y-181610000D02*
X456708100Y-181705000D01*
X454650000Y-181610000D02*
X456613100Y-181610000D01*
%TO.N,Net-(D281-A)*%
X457835000Y-179165000D02*
X456708100Y-179165000D01*
X454650000Y-179070000D02*
X456613100Y-179070000D01*
X456613100Y-179070000D02*
X456708100Y-179165000D01*
%TO.N,Net-(D282-A)*%
X454650000Y-176530000D02*
X456613100Y-176530000D01*
X457835000Y-176625000D02*
X456708100Y-176625000D01*
X456613100Y-176530000D02*
X456708100Y-176625000D01*
%TO.N,Net-(D283-A)*%
X456613100Y-173990000D02*
X456708100Y-174085000D01*
X454650000Y-173990000D02*
X456613100Y-173990000D01*
X457835000Y-174085000D02*
X456708100Y-174085000D01*
%TO.N,Net-(D284-A)*%
X454650000Y-171450000D02*
X456613100Y-171450000D01*
X457835000Y-171545000D02*
X456708100Y-171545000D01*
X456613100Y-171450000D02*
X456708100Y-171545000D01*
%TO.N,Net-(D285-A)*%
X454650000Y-168910000D02*
X456613100Y-168910000D01*
X457835000Y-169005000D02*
X456708100Y-169005000D01*
X456613100Y-168910000D02*
X456708100Y-169005000D01*
%TO.N,Net-(D286-A)*%
X457840000Y-162560000D02*
X455315000Y-162560000D01*
%TO.N,Net-(D287-A)*%
X457835000Y-157575000D02*
X456708100Y-157575000D01*
X454660000Y-157480000D02*
X456613100Y-157480000D01*
X456613100Y-157480000D02*
X456708100Y-157575000D01*
%TO.N,Net-(D288-A)*%
X454660000Y-154940000D02*
X456613100Y-154940000D01*
X456613100Y-154940000D02*
X456708100Y-155035000D01*
X457835000Y-155035000D02*
X456708100Y-155035000D01*
%TO.N,Net-(D289-A)*%
X456613100Y-152400000D02*
X456708100Y-152495000D01*
X454660000Y-152400000D02*
X456613100Y-152400000D01*
X457835000Y-152495000D02*
X456708100Y-152495000D01*
%TO.N,Net-(D290-A)*%
X456613100Y-149860000D02*
X456708100Y-149955000D01*
X454660000Y-149860000D02*
X456613100Y-149860000D01*
X457835000Y-149955000D02*
X456708100Y-149955000D01*
%TO.N,Net-(D291-A)*%
X456613100Y-147320000D02*
X456708100Y-147415000D01*
X457835000Y-147415000D02*
X456708100Y-147415000D01*
X454660000Y-147320000D02*
X456613100Y-147320000D01*
%TO.N,Net-(D292-A)*%
X456613100Y-144780000D02*
X456708100Y-144875000D01*
X454660000Y-144780000D02*
X456613100Y-144780000D01*
X457835000Y-144875000D02*
X456708100Y-144875000D01*
%TO.N,Net-(D293-A)*%
X456613100Y-142240000D02*
X456708100Y-142335000D01*
X454660000Y-142240000D02*
X456613100Y-142240000D01*
X457835000Y-142335000D02*
X456708100Y-142335000D01*
%TO.N,Net-(D294-A)*%
X456613100Y-139700000D02*
X456708100Y-139795000D01*
X454660000Y-139700000D02*
X456613100Y-139700000D01*
X457835000Y-139795000D02*
X456708100Y-139795000D01*
%TO.N,Net-(D295-A)*%
X457835000Y-135985000D02*
X456708100Y-135985000D01*
X454660000Y-135890000D02*
X456613100Y-135890000D01*
X456613100Y-135890000D02*
X456708100Y-135985000D01*
%TO.N,Net-(D296-A)*%
X456613100Y-133350000D02*
X456708100Y-133445000D01*
X454660000Y-133350000D02*
X456613100Y-133350000D01*
X457835000Y-133445000D02*
X456708100Y-133445000D01*
%TO.N,Net-(D297-A)*%
X454660000Y-130810000D02*
X456613100Y-130810000D01*
X456613100Y-130810000D02*
X456708100Y-130905000D01*
X457835000Y-130905000D02*
X456708100Y-130905000D01*
%TO.N,Net-(D298-A)*%
X457835000Y-128365000D02*
X456708100Y-128365000D01*
X454660000Y-128270000D02*
X456613100Y-128270000D01*
X456613100Y-128270000D02*
X456708100Y-128365000D01*
%TO.N,Net-(D299-A)*%
X457835000Y-125825000D02*
X456708100Y-125825000D01*
X456613100Y-125730000D02*
X456708100Y-125825000D01*
X454660000Y-125730000D02*
X456613100Y-125730000D01*
%TO.N,Net-(D300-A)*%
X457835000Y-123285000D02*
X456708100Y-123285000D01*
X454660000Y-123190000D02*
X456613100Y-123190000D01*
X456613100Y-123190000D02*
X456708100Y-123285000D01*
%TO.N,Net-(D301-A)*%
X457840000Y-116840000D02*
X455315000Y-116840000D01*
%TO.N,Net-(D302-A)*%
X457835000Y-111855000D02*
X456708100Y-111855000D01*
X454660000Y-111770000D02*
X456623100Y-111770000D01*
X456623100Y-111770000D02*
X456708100Y-111855000D01*
%TO.N,Net-(D303-A)*%
X456623100Y-109230000D02*
X456708100Y-109315000D01*
X454660000Y-109230000D02*
X456623100Y-109230000D01*
X457835000Y-109315000D02*
X456708100Y-109315000D01*
%TO.N,Net-(D304-A)*%
X454660000Y-106690000D02*
X456623100Y-106690000D01*
X457835000Y-106775000D02*
X456708100Y-106775000D01*
X456623100Y-106690000D02*
X456708100Y-106775000D01*
%TO.N,Net-(D305-A)*%
X456623100Y-104150000D02*
X456708100Y-104235000D01*
X457835000Y-104235000D02*
X456708100Y-104235000D01*
X454660000Y-104150000D02*
X456623100Y-104150000D01*
%TO.N,Net-(D306-A)*%
X454660000Y-101610000D02*
X456623100Y-101610000D01*
X456623100Y-101610000D02*
X456708100Y-101695000D01*
X457835000Y-101695000D02*
X456708100Y-101695000D01*
%TO.N,Net-(D307-A)*%
X454660000Y-99070000D02*
X456623100Y-99070000D01*
X456623100Y-99070000D02*
X456708100Y-99155000D01*
X457835000Y-99155000D02*
X456708100Y-99155000D01*
%TO.N,Net-(D308-A)*%
X457835000Y-96615000D02*
X456708100Y-96615000D01*
X454660000Y-96530000D02*
X456623100Y-96530000D01*
X456623100Y-96530000D02*
X456708100Y-96615000D01*
%TO.N,Net-(D309-A)*%
X454660000Y-93990000D02*
X456623100Y-93990000D01*
X456623100Y-93990000D02*
X456708100Y-94075000D01*
X457835000Y-94075000D02*
X456708100Y-94075000D01*
%TO.N,Net-(D310-A)*%
X454660000Y-90170000D02*
X456613100Y-90170000D01*
X457835000Y-90265000D02*
X456708100Y-90265000D01*
X456613100Y-90170000D02*
X456708100Y-90265000D01*
%TO.N,Net-(D311-A)*%
X454660000Y-87630000D02*
X456613100Y-87630000D01*
X457835000Y-87725000D02*
X456708100Y-87725000D01*
X456613100Y-87630000D02*
X456708100Y-87725000D01*
%TO.N,Net-(D312-A)*%
X457835000Y-85185000D02*
X456708100Y-85185000D01*
X454660000Y-85090000D02*
X456613100Y-85090000D01*
X456613100Y-85090000D02*
X456708100Y-85185000D01*
%TO.N,Net-(D313-A)*%
X457835000Y-82645000D02*
X456708100Y-82645000D01*
X456613100Y-82550000D02*
X456708100Y-82645000D01*
X454660000Y-82550000D02*
X456613100Y-82550000D01*
%TO.N,Net-(D314-A)*%
X457835000Y-80105000D02*
X456708100Y-80105000D01*
X454660000Y-80010000D02*
X456613100Y-80010000D01*
X456613100Y-80010000D02*
X456708100Y-80105000D01*
%TO.N,Net-(D315-A)*%
X456613100Y-77470000D02*
X456708100Y-77565000D01*
X457835000Y-77565000D02*
X456708100Y-77565000D01*
X454660000Y-77470000D02*
X456613100Y-77470000D01*
%TO.N,Net-(D317-A)*%
X457835000Y-71215000D02*
X456536900Y-71215000D01*
X456441900Y-71120000D02*
X455315000Y-71120000D01*
X456536900Y-71215000D02*
X456441900Y-71120000D01*
%TO.N,Net-(D319-A)*%
X456643100Y-66040000D02*
X456708100Y-66105000D01*
X457835000Y-66105000D02*
X456708100Y-66105000D01*
X454660000Y-66040000D02*
X456643100Y-66040000D01*
%TO.N,Net-(D321-A)*%
X454660000Y-63500000D02*
X456643100Y-63500000D01*
X456643100Y-63500000D02*
X456708100Y-63565000D01*
X457835000Y-63565000D02*
X456708100Y-63565000D01*
%TO.N,Net-(D323-A)*%
X457835000Y-61055000D02*
X456708100Y-61055000D01*
X454660000Y-60960000D02*
X456613100Y-60960000D01*
X456613100Y-60960000D02*
X456708100Y-61055000D01*
%TO.N,Net-(D325-A)*%
X457835000Y-58515000D02*
X456708100Y-58515000D01*
X456613100Y-58420000D02*
X456708100Y-58515000D01*
X454660000Y-58420000D02*
X456613100Y-58420000D01*
%TO.N,Net-(D327-A)*%
X454660000Y-55880000D02*
X456613100Y-55880000D01*
X457835000Y-55975000D02*
X456708100Y-55975000D01*
X456613100Y-55880000D02*
X456708100Y-55975000D01*
%TO.N,Net-(D329-A)*%
X454660000Y-53340000D02*
X456613100Y-53340000D01*
X457835000Y-53435000D02*
X456708100Y-53435000D01*
X456613100Y-53340000D02*
X456708100Y-53435000D01*
%TO.N,Net-(D331-A)*%
X457835000Y-50895000D02*
X456708100Y-50895000D01*
X456613100Y-50800000D02*
X456708100Y-50895000D01*
X454660000Y-50800000D02*
X456613100Y-50800000D01*
%TO.N,Net-(D333-A)*%
X457835000Y-48355000D02*
X456708100Y-48355000D01*
X454660000Y-48260000D02*
X456613100Y-48260000D01*
X456613100Y-48260000D02*
X456708100Y-48355000D01*
%TO.N,Net-(D335-A)*%
X454650000Y-44450000D02*
X456613100Y-44450000D01*
X457835000Y-44545000D02*
X456708100Y-44545000D01*
X456613100Y-44450000D02*
X456708100Y-44545000D01*
%TO.N,Net-(D337-A)*%
X454650000Y-41910000D02*
X456613100Y-41910000D01*
X457835000Y-42005000D02*
X456708100Y-42005000D01*
X456613100Y-41910000D02*
X456708100Y-42005000D01*
%TO.N,Net-(D339-A)*%
X456613100Y-39370000D02*
X456708100Y-39465000D01*
X454650000Y-39370000D02*
X456613100Y-39370000D01*
X457835000Y-39465000D02*
X456708100Y-39465000D01*
%TO.N,Net-(D341-A)*%
X457835000Y-36925000D02*
X456708100Y-36925000D01*
X456613100Y-36830000D02*
X456708100Y-36925000D01*
X454650000Y-36830000D02*
X456613100Y-36830000D01*
%TO.N,Net-(D343-A)*%
X454650000Y-34290000D02*
X456613100Y-34290000D01*
X456613100Y-34290000D02*
X456708100Y-34385000D01*
X457835000Y-34385000D02*
X456708100Y-34385000D01*
%TO.N,Net-(D345-A)*%
X456613100Y-31750000D02*
X456708100Y-31845000D01*
X457835000Y-31845000D02*
X456708100Y-31845000D01*
X454650000Y-31750000D02*
X456613100Y-31750000D01*
%TO.N,Net-(D346-K)*%
X505555000Y-200755000D02*
X490885000Y-200755000D01*
X506740000Y-201940000D02*
X505555000Y-200755000D01*
%TO.N,Net-(D346-A)*%
X483296900Y-208455000D02*
X483121900Y-208280000D01*
X484535000Y-208455000D02*
X483296900Y-208455000D01*
X481995000Y-208280000D02*
X483121900Y-208280000D01*
%TO.N,Net-(D347-K)*%
X490833100Y-111855000D02*
X490885000Y-111855000D01*
X487075000Y-116840000D02*
X487075000Y-115613100D01*
X487075000Y-115613100D02*
X490833100Y-111855000D01*
%TO.N,Net-(D347-A)*%
X484535000Y-116840000D02*
X481995000Y-116840000D01*
%TO.N,Net-(D348-A)*%
X480100000Y-203200000D02*
X482043100Y-203200000D01*
X482043100Y-203200000D02*
X482138100Y-203295000D01*
X483265000Y-203295000D02*
X482138100Y-203295000D01*
%TO.N,Net-(D349-A)*%
X480090000Y-111760000D02*
X482043100Y-111760000D01*
X482043100Y-111760000D02*
X482138100Y-111855000D01*
X483265000Y-111855000D02*
X482138100Y-111855000D01*
%TO.N,Net-(D350-A)*%
X480100000Y-200660000D02*
X482043100Y-200660000D01*
X482043100Y-200660000D02*
X482138100Y-200755000D01*
X483265000Y-200755000D02*
X482138100Y-200755000D01*
%TO.N,Net-(D351-A)*%
X480090000Y-109220000D02*
X482043100Y-109220000D01*
X483265000Y-109315000D02*
X482138100Y-109315000D01*
X482043100Y-109220000D02*
X482138100Y-109315000D01*
%TO.N,Net-(D352-A)*%
X480100000Y-198120000D02*
X482043100Y-198120000D01*
X482043100Y-198120000D02*
X482138100Y-198215000D01*
X483265000Y-198215000D02*
X482138100Y-198215000D01*
%TO.N,Net-(D353-A)*%
X483265000Y-106775000D02*
X482138100Y-106775000D01*
X480090000Y-106680000D02*
X482043100Y-106680000D01*
X482043100Y-106680000D02*
X482138100Y-106775000D01*
%TO.N,Net-(D354-A)*%
X480100000Y-195580000D02*
X482043100Y-195580000D01*
X482043100Y-195580000D02*
X482138100Y-195675000D01*
X483265000Y-195675000D02*
X482138100Y-195675000D01*
%TO.N,Net-(D355-A)*%
X482043100Y-104140000D02*
X482138100Y-104235000D01*
X480090000Y-104140000D02*
X482043100Y-104140000D01*
X483265000Y-104235000D02*
X482138100Y-104235000D01*
%TO.N,Net-(D356-A)*%
X480100000Y-193040000D02*
X482043100Y-193040000D01*
X483265000Y-193135000D02*
X482138100Y-193135000D01*
X482043100Y-193040000D02*
X482138100Y-193135000D01*
%TO.N,Net-(D357-A)*%
X480090000Y-101600000D02*
X482043100Y-101600000D01*
X482043100Y-101600000D02*
X482138100Y-101695000D01*
X483265000Y-101695000D02*
X482138100Y-101695000D01*
%TO.N,Net-(D358-A)*%
X482043100Y-190500000D02*
X482138100Y-190595000D01*
X483265000Y-190595000D02*
X482138100Y-190595000D01*
X480100000Y-190500000D02*
X482043100Y-190500000D01*
%TO.N,Net-(D359-A)*%
X483265000Y-99155000D02*
X482138100Y-99155000D01*
X482043100Y-99060000D02*
X482138100Y-99155000D01*
X480090000Y-99060000D02*
X482043100Y-99060000D01*
%TO.N,Net-(D360-A)*%
X482043100Y-187960000D02*
X482138100Y-188055000D01*
X480100000Y-187960000D02*
X482043100Y-187960000D01*
X483265000Y-188055000D02*
X482138100Y-188055000D01*
%TO.N,Net-(D361-A)*%
X482043100Y-96520000D02*
X482138100Y-96615000D01*
X483265000Y-96615000D02*
X482138100Y-96615000D01*
X480090000Y-96520000D02*
X482043100Y-96520000D01*
%TO.N,Net-(D362-A)*%
X480100000Y-185420000D02*
X482043100Y-185420000D01*
X482043100Y-185420000D02*
X482138100Y-185515000D01*
X483265000Y-185515000D02*
X482138100Y-185515000D01*
%TO.N,Net-(D363-A)*%
X482043100Y-93980000D02*
X482138100Y-94075000D01*
X480090000Y-93980000D02*
X482043100Y-93980000D01*
X483265000Y-94075000D02*
X482138100Y-94075000D01*
%TO.N,Net-(D364-A)*%
X480090000Y-181610000D02*
X482043100Y-181610000D01*
X482043100Y-181610000D02*
X482138100Y-181705000D01*
X483265000Y-181705000D02*
X482138100Y-181705000D01*
%TO.N,Net-(D365-A)*%
X480060000Y-90170000D02*
X482043100Y-90170000D01*
X483265000Y-90265000D02*
X482138100Y-90265000D01*
X482043100Y-90170000D02*
X482138100Y-90265000D01*
%TO.N,Net-(D366-A)*%
X483265000Y-179165000D02*
X482138100Y-179165000D01*
X482043100Y-179070000D02*
X482138100Y-179165000D01*
X480090000Y-179070000D02*
X482043100Y-179070000D01*
%TO.N,Net-(D367-A)*%
X483265000Y-87725000D02*
X482138100Y-87725000D01*
X480060000Y-87630000D02*
X482043100Y-87630000D01*
X482043100Y-87630000D02*
X482138100Y-87725000D01*
%TO.N,Net-(D368-A)*%
X480090000Y-176530000D02*
X482043100Y-176530000D01*
X482043100Y-176530000D02*
X482138100Y-176625000D01*
X483265000Y-176625000D02*
X482138100Y-176625000D01*
%TO.N,Net-(D369-A)*%
X483265000Y-85185000D02*
X482138100Y-85185000D01*
X482043100Y-85090000D02*
X482138100Y-85185000D01*
X480060000Y-85090000D02*
X482043100Y-85090000D01*
%TO.N,Net-(D370-A)*%
X482043100Y-173990000D02*
X482138100Y-174085000D01*
X483265000Y-174085000D02*
X482138100Y-174085000D01*
X480090000Y-173990000D02*
X482043100Y-173990000D01*
%TO.N,Net-(D371-A)*%
X480060000Y-82550000D02*
X482043100Y-82550000D01*
X483265000Y-82645000D02*
X482138100Y-82645000D01*
X482043100Y-82550000D02*
X482138100Y-82645000D01*
%TO.N,Net-(D372-A)*%
X483265000Y-171545000D02*
X482138100Y-171545000D01*
X482043100Y-171450000D02*
X482138100Y-171545000D01*
X480090000Y-171450000D02*
X482043100Y-171450000D01*
%TO.N,Net-(D373-A)*%
X483265000Y-80105000D02*
X482138100Y-80105000D01*
X480060000Y-80010000D02*
X482043100Y-80010000D01*
X482043100Y-80010000D02*
X482138100Y-80105000D01*
%TO.N,Net-(D374-A)*%
X483265000Y-169005000D02*
X482138100Y-169005000D01*
X480090000Y-168910000D02*
X482043100Y-168910000D01*
X482043100Y-168910000D02*
X482138100Y-169005000D01*
%TO.N,Net-(D375-A)*%
X482043100Y-77470000D02*
X482138100Y-77565000D01*
X483265000Y-77565000D02*
X482138100Y-77565000D01*
X480060000Y-77470000D02*
X482043100Y-77470000D01*
%TO.N,Net-(D376-K)*%
X490845000Y-50895000D02*
X490845000Y-48355000D01*
%TO.N,Net-(D376-A)*%
X481995000Y-71120000D02*
X483121900Y-71120000D01*
X483296900Y-71295000D02*
X483121900Y-71120000D01*
X484535000Y-71295000D02*
X483296900Y-71295000D01*
%TO.N,Net-(D377-K)*%
X490833100Y-157575000D02*
X490845000Y-157575000D01*
X487075000Y-161333100D02*
X490833100Y-157575000D01*
X487075000Y-162560000D02*
X487075000Y-161333100D01*
%TO.N,Net-(D377-A)*%
X484535000Y-162560000D02*
X481995000Y-162560000D01*
%TO.N,Net-(D378-A)*%
X483225000Y-66135000D02*
X482098100Y-66135000D01*
X482003100Y-66040000D02*
X482098100Y-66135000D01*
X480060000Y-66040000D02*
X482003100Y-66040000D01*
%TO.N,Net-(D379-A)*%
X482003100Y-157480000D02*
X482098100Y-157575000D01*
X483225000Y-157575000D02*
X482098100Y-157575000D01*
X480090000Y-157480000D02*
X482003100Y-157480000D01*
%TO.N,Net-(D380-A)*%
X483225000Y-63595000D02*
X482098100Y-63595000D01*
X482003100Y-63500000D02*
X482098100Y-63595000D01*
X480060000Y-63500000D02*
X482003100Y-63500000D01*
%TO.N,Net-(D381-A)*%
X480090000Y-154940000D02*
X482003100Y-154940000D01*
X483225000Y-155035000D02*
X482098100Y-155035000D01*
X482003100Y-154940000D02*
X482098100Y-155035000D01*
%TO.N,Net-(D382-A)*%
X480060000Y-60960000D02*
X482003100Y-60960000D01*
X483225000Y-61055000D02*
X482098100Y-61055000D01*
X482003100Y-60960000D02*
X482098100Y-61055000D01*
%TO.N,Net-(D383-A)*%
X483225000Y-152495000D02*
X482098100Y-152495000D01*
X482003100Y-152400000D02*
X482098100Y-152495000D01*
X480090000Y-152400000D02*
X482003100Y-152400000D01*
%TO.N,Net-(D384-A)*%
X482003100Y-58420000D02*
X482098100Y-58515000D01*
X480060000Y-58420000D02*
X482003100Y-58420000D01*
X483225000Y-58515000D02*
X482098100Y-58515000D01*
%TO.N,Net-(D385-A)*%
X482003100Y-149860000D02*
X482098100Y-149955000D01*
X483225000Y-149955000D02*
X482098100Y-149955000D01*
X480090000Y-149860000D02*
X482003100Y-149860000D01*
%TO.N,Net-(D386-A)*%
X483225000Y-55975000D02*
X482098100Y-55975000D01*
X480060000Y-55880000D02*
X482003100Y-55880000D01*
X482003100Y-55880000D02*
X482098100Y-55975000D01*
%TO.N,Net-(D387-A)*%
X482003100Y-147320000D02*
X482098100Y-147415000D01*
X483225000Y-147415000D02*
X482098100Y-147415000D01*
X480090000Y-147320000D02*
X482003100Y-147320000D01*
%TO.N,Net-(D388-A)*%
X483225000Y-53435000D02*
X482098100Y-53435000D01*
X480060000Y-53340000D02*
X482003100Y-53340000D01*
X482003100Y-53340000D02*
X482098100Y-53435000D01*
%TO.N,Net-(D389-A)*%
X483225000Y-144875000D02*
X482098100Y-144875000D01*
X482003100Y-144780000D02*
X482098100Y-144875000D01*
X480090000Y-144780000D02*
X482003100Y-144780000D01*
%TO.N,Net-(D390-A)*%
X480060000Y-50800000D02*
X482003100Y-50800000D01*
X483225000Y-50895000D02*
X482098100Y-50895000D01*
X482003100Y-50800000D02*
X482098100Y-50895000D01*
%TO.N,Net-(D391-A)*%
X482003100Y-142240000D02*
X482098100Y-142335000D01*
X480090000Y-142240000D02*
X482003100Y-142240000D01*
X483225000Y-142335000D02*
X482098100Y-142335000D01*
%TO.N,Net-(D392-A)*%
X482003100Y-48260000D02*
X482098100Y-48355000D01*
X483225000Y-48355000D02*
X482098100Y-48355000D01*
X480060000Y-48260000D02*
X482003100Y-48260000D01*
%TO.N,Net-(D393-A)*%
X483225000Y-139795000D02*
X482098100Y-139795000D01*
X480090000Y-139700000D02*
X482003100Y-139700000D01*
X482003100Y-139700000D02*
X482098100Y-139795000D01*
%TO.N,Net-(D394-A)*%
X483225000Y-44545000D02*
X482098100Y-44545000D01*
X482003100Y-44450000D02*
X482098100Y-44545000D01*
X480050000Y-44450000D02*
X482003100Y-44450000D01*
%TO.N,Net-(D395-A)*%
X483225000Y-135985000D02*
X482098100Y-135985000D01*
X481993100Y-135880000D02*
X482098100Y-135985000D01*
X480080000Y-135880000D02*
X481993100Y-135880000D01*
%TO.N,Net-(D396-A)*%
X482003100Y-41910000D02*
X482098100Y-42005000D01*
X480050000Y-41910000D02*
X482003100Y-41910000D01*
X483225000Y-42005000D02*
X482098100Y-42005000D01*
%TO.N,Net-(D397-A)*%
X481993100Y-133340000D02*
X482098100Y-133445000D01*
X480080000Y-133340000D02*
X481993100Y-133340000D01*
X483225000Y-133445000D02*
X482098100Y-133445000D01*
%TO.N,Net-(D398-A)*%
X483225000Y-39465000D02*
X482098100Y-39465000D01*
X480050000Y-39370000D02*
X482003100Y-39370000D01*
X482003100Y-39370000D02*
X482098100Y-39465000D01*
%TO.N,Net-(D399-A)*%
X481993100Y-130800000D02*
X482098100Y-130905000D01*
X483225000Y-130905000D02*
X482098100Y-130905000D01*
X480080000Y-130800000D02*
X481993100Y-130800000D01*
%TO.N,Net-(D400-A)*%
X483225000Y-36925000D02*
X482098100Y-36925000D01*
X480050000Y-36830000D02*
X482003100Y-36830000D01*
X482003100Y-36830000D02*
X482098100Y-36925000D01*
%TO.N,Net-(D401-A)*%
X481993100Y-128260000D02*
X482098100Y-128365000D01*
X483225000Y-128365000D02*
X482098100Y-128365000D01*
X480080000Y-128260000D02*
X481993100Y-128260000D01*
%TO.N,Net-(D402-A)*%
X480050000Y-34290000D02*
X482003100Y-34290000D01*
X483225000Y-34385000D02*
X482098100Y-34385000D01*
X482003100Y-34290000D02*
X482098100Y-34385000D01*
%TO.N,Net-(D403-A)*%
X480080000Y-125720000D02*
X481993100Y-125720000D01*
X481993100Y-125720000D02*
X482098100Y-125825000D01*
X483225000Y-125825000D02*
X482098100Y-125825000D01*
%TO.N,Net-(D404-A)*%
X482003100Y-31750000D02*
X482098100Y-31845000D01*
X483225000Y-31845000D02*
X482098100Y-31845000D01*
X480050000Y-31750000D02*
X482003100Y-31750000D01*
%TO.N,Net-(D405-A)*%
X481993100Y-123180000D02*
X482098100Y-123285000D01*
X480080000Y-123180000D02*
X481993100Y-123180000D01*
X483225000Y-123285000D02*
X482098100Y-123285000D01*
%TO.N,oc3*%
X559771900Y-92094900D02*
X564255700Y-96578700D01*
X505460000Y-94615000D02*
X507980100Y-92094900D01*
X564255700Y-96578700D02*
X564255700Y-108150000D01*
X507980100Y-92094900D02*
X559771900Y-92094900D01*
X564083200Y-108322500D02*
X564083200Y-109499400D01*
X564255700Y-108150000D02*
X564083200Y-108322500D01*
%TO.N,oc2*%
X504976100Y-95780800D02*
X506834200Y-95780800D01*
X504278600Y-95083300D02*
X504976100Y-95780800D01*
X506834200Y-95780800D02*
X508000000Y-94615000D01*
X566623200Y-98307100D02*
X559959100Y-91643000D01*
X566623200Y-109499400D02*
X566623200Y-98307100D01*
X506769000Y-91643000D02*
X504278600Y-94133400D01*
X504278600Y-94133400D02*
X504278600Y-95083300D01*
X559959100Y-91643000D02*
X506769000Y-91643000D01*
%TO.N,oc1*%
X559569100Y-92546800D02*
X518616000Y-92546800D01*
X562906300Y-103130000D02*
X563769600Y-102266700D01*
X564083200Y-112039400D02*
X562906300Y-110862500D01*
X562906300Y-110862500D02*
X562906300Y-103130000D01*
X511684300Y-95759300D02*
X510540000Y-94615000D01*
X563769600Y-102266700D02*
X563769600Y-96747300D01*
X563769600Y-96747300D02*
X559569100Y-92546800D01*
X518616000Y-92546800D02*
X517003000Y-94159800D01*
X517003000Y-94159800D02*
X517003000Y-94859700D01*
X516103400Y-95759300D02*
X511684300Y-95759300D01*
X517003000Y-94859700D02*
X516103400Y-95759300D01*
%TO.N,oc0*%
X567124200Y-123411600D02*
X546076300Y-123411600D01*
X568720400Y-114947700D02*
X568720400Y-121815400D01*
X566699400Y-112039400D02*
X568325000Y-113665000D01*
X568720400Y-121815400D02*
X567124200Y-123411600D01*
X518895900Y-96231200D02*
X510553600Y-96231200D01*
X568325000Y-114552300D02*
X568720400Y-114947700D01*
X509392000Y-94102300D02*
X510036400Y-93457900D01*
X568325000Y-113665000D02*
X568325000Y-114552300D01*
X566623200Y-112039400D02*
X566699400Y-112039400D01*
X511922900Y-93457900D02*
X513080000Y-94615000D01*
X546076300Y-123411600D02*
X518895900Y-96231200D01*
X510553600Y-96231200D02*
X509392000Y-95069600D01*
X509392000Y-95069600D02*
X509392000Y-94102300D01*
X510036400Y-93457900D02*
X511922900Y-93457900D01*
%TO.N,ol3*%
X564083200Y-114579400D02*
X562610000Y-114579400D01*
X562529700Y-114659700D02*
X554150000Y-114659700D01*
X562610000Y-114579400D02*
X562529700Y-114659700D01*
%TO.N,ol2*%
X518160000Y-94615000D02*
X519104400Y-94615000D01*
X568259400Y-116215600D02*
X566623200Y-114579400D01*
X568259400Y-119754400D02*
X568259400Y-116215600D01*
X567148300Y-120865500D02*
X568259400Y-119754400D01*
X519104400Y-94615000D02*
X545354900Y-120865500D01*
X545354900Y-120865500D02*
X567148300Y-120865500D01*
%TO.N,ol1*%
X520700000Y-94615000D02*
X521545200Y-94615000D01*
X544049600Y-117119400D02*
X564083200Y-117119400D01*
X521545200Y-94615000D02*
X544049600Y-117119400D01*
%TO.N,ol0*%
X565438000Y-115934200D02*
X554349300Y-115934200D01*
X541020000Y-102604900D02*
X541020000Y-101744600D01*
X566623200Y-117119400D02*
X565438000Y-115934200D01*
X541020000Y-101744600D02*
X537616400Y-98341000D01*
X537616400Y-98341000D02*
X527811200Y-98341000D01*
X554349300Y-115934200D02*
X541020000Y-102604900D01*
X524366900Y-94615000D02*
X523240000Y-94615000D01*
X527811200Y-98341000D02*
X524366900Y-94896700D01*
X524366900Y-94896700D02*
X524366900Y-94615000D01*
%TO.N,Im4*%
X567807100Y-116635800D02*
X567113800Y-115942500D01*
X551180000Y-102618200D02*
X551180000Y-101865200D01*
X566623200Y-119659400D02*
X567807100Y-118475500D01*
X543416900Y-95741900D02*
X542290000Y-94615000D01*
X566307300Y-115942500D02*
X565260100Y-114895300D01*
X565260100Y-114047300D02*
X564522200Y-113309400D01*
X545056700Y-95741900D02*
X543416900Y-95741900D01*
X564522200Y-113309400D02*
X561871200Y-113309400D01*
X567807100Y-118475500D02*
X567807100Y-116635800D01*
X567113800Y-115942500D02*
X566307300Y-115942500D01*
X561871200Y-113309400D02*
X551180000Y-102618200D01*
X551180000Y-101865200D02*
X545056700Y-95741900D01*
X565260100Y-114895300D02*
X565260100Y-114047300D01*
%TO.N,pc0*%
X549064800Y-193183100D02*
X547709100Y-191827400D01*
X550053100Y-193183100D02*
X549064800Y-193183100D01*
X551180000Y-194310000D02*
X550053100Y-193183100D01*
X521932600Y-191827400D02*
X519440000Y-194320000D01*
X547709100Y-191827400D02*
X521932600Y-191827400D01*
%TO.N,pc1*%
X518452500Y-195449900D02*
X518450600Y-195451800D01*
X548640000Y-194310000D02*
X546609300Y-192279300D01*
X523871700Y-195449900D02*
X518452500Y-195449900D01*
X527042300Y-192279300D02*
X523871700Y-195449900D01*
X518450600Y-195451800D02*
X518031800Y-195451800D01*
X546609300Y-192279300D02*
X527042300Y-192279300D01*
X518031800Y-195451800D02*
X516900000Y-194320000D01*
%TO.N,pc2*%
X527229600Y-192731200D02*
X524059000Y-195901800D01*
X516848400Y-195901800D02*
X515266600Y-194320000D01*
X546100000Y-194310000D02*
X544521200Y-192731200D01*
X524059000Y-195901800D02*
X516848400Y-195901800D01*
X515266600Y-194320000D02*
X514360000Y-194320000D01*
X544521200Y-192731200D02*
X527229600Y-192731200D01*
%TO.N,pc4*%
X571595000Y-166585000D02*
X571595000Y-54060200D01*
X571595000Y-54060200D02*
X568529500Y-50994700D01*
X571591900Y-176748100D02*
X570465000Y-177875000D01*
X570465000Y-167715000D02*
X571595000Y-166585000D01*
X571591900Y-168841900D02*
X571591900Y-176748100D01*
X570465000Y-167715000D02*
X571591900Y-168841900D01*
%TO.N,2oc3*%
X473596900Y-111760000D02*
X474723800Y-110633100D01*
X449296000Y-64910900D02*
X448166900Y-66040000D01*
X545956900Y-33251900D02*
X563530400Y-50825400D01*
X471353100Y-203200000D02*
X470120000Y-204433100D01*
X421640000Y-111760000D02*
X420513100Y-111760000D01*
X449303700Y-110633200D02*
X470216300Y-110633200D01*
X421650000Y-157470000D02*
X420523100Y-157470000D01*
X470120000Y-204433100D02*
X449400000Y-204433100D01*
X422776900Y-203190000D02*
X423974600Y-201992300D01*
X423974600Y-156272300D02*
X444705400Y-156272300D01*
X421640000Y-111760000D02*
X422766900Y-111760000D01*
X474723800Y-110633100D02*
X494099300Y-110633100D01*
X545956900Y-32530100D02*
X545956900Y-33251900D01*
X448166900Y-111770000D02*
X449303700Y-110633200D01*
X472440000Y-66040000D02*
X471313100Y-66040000D01*
X516620400Y-29168300D02*
X542595100Y-29168300D01*
X421640000Y-66040000D02*
X422766900Y-66040000D01*
X398505600Y-110726300D02*
X419479400Y-110726300D01*
X396250000Y-157565000D02*
X397376900Y-157565000D01*
X423964600Y-64842300D02*
X444715400Y-64842300D01*
X448166900Y-157480000D02*
X449364600Y-156282300D01*
X397376900Y-157565000D02*
X398503800Y-156438100D01*
X494099300Y-110633100D02*
X498407000Y-106325400D01*
X472470000Y-111760000D02*
X471343100Y-111760000D01*
X446476600Y-111770000D02*
X447040000Y-111770000D01*
X447040000Y-157480000D02*
X448166900Y-157480000D01*
X497840000Y-33020000D02*
X498977900Y-34157900D01*
X398503800Y-156438100D02*
X419491200Y-156438100D01*
X472470000Y-111760000D02*
X473596900Y-111760000D01*
X563530400Y-50825400D02*
X564083200Y-50825400D01*
X423964600Y-110562300D02*
X422766900Y-111760000D01*
X421650000Y-157470000D02*
X422776900Y-157470000D01*
X447040000Y-203200000D02*
X445913100Y-203200000D01*
X498977900Y-34157900D02*
X511630800Y-34157900D01*
X419491200Y-156438100D02*
X420523100Y-157470000D01*
X470145400Y-156282300D02*
X471343100Y-157480000D01*
X396250000Y-111855000D02*
X397376900Y-111855000D01*
X447040000Y-203200000D02*
X448166900Y-203200000D01*
X472470000Y-157480000D02*
X471343100Y-157480000D01*
X444705400Y-110562300D02*
X423964600Y-110562300D01*
X445913100Y-111770000D02*
X444705400Y-110562300D01*
X397437700Y-64842300D02*
X419315400Y-64842300D01*
X447040000Y-157480000D02*
X445913100Y-157480000D01*
X542595100Y-29168300D02*
X545956900Y-32530100D01*
X472480000Y-203200000D02*
X471353100Y-203200000D01*
X446476600Y-111770000D02*
X445913100Y-111770000D01*
X422776900Y-157470000D02*
X423974600Y-156272300D01*
X397376900Y-111855000D02*
X398505600Y-110726300D01*
X447040000Y-111770000D02*
X448166900Y-111770000D01*
X470216300Y-110633200D02*
X471343100Y-111760000D01*
X447040000Y-66040000D02*
X445913100Y-66040000D01*
X422766900Y-66040000D02*
X423964600Y-64842300D01*
X419479400Y-110726300D02*
X420513100Y-111760000D01*
X420513100Y-66040000D02*
X421640000Y-66040000D01*
X470184000Y-64910900D02*
X449296000Y-64910900D01*
X511630800Y-34157900D02*
X516620400Y-29168300D01*
X421650000Y-203190000D02*
X422776900Y-203190000D01*
X447040000Y-66040000D02*
X448166900Y-66040000D01*
X444705400Y-156272300D02*
X445913100Y-157480000D01*
X396240000Y-66040000D02*
X397437700Y-64842300D01*
X444715400Y-64842300D02*
X445913100Y-66040000D01*
X449400000Y-204433100D02*
X448166900Y-203200000D01*
X449364600Y-156282300D02*
X470145400Y-156282300D01*
X423974600Y-201992300D02*
X444705400Y-201992300D01*
X444705400Y-201992300D02*
X445913100Y-203200000D01*
X419315400Y-64842300D02*
X420513100Y-66040000D01*
X471313100Y-66040000D02*
X470184000Y-64910900D01*
%TO.N,2oc2*%
X444752900Y-153779800D02*
X423927100Y-153779800D01*
X473596900Y-109220000D02*
X474867000Y-107949900D01*
X471343100Y-109220000D02*
X470197900Y-108074800D01*
X447040000Y-109230000D02*
X448166900Y-109230000D01*
X566623200Y-50825400D02*
X565353200Y-49555400D01*
X556713200Y-40058800D02*
X554715900Y-40058800D01*
X472440000Y-63500000D02*
X471313100Y-63500000D01*
X419424600Y-108131500D02*
X398560400Y-108131500D01*
X507042000Y-28263000D02*
X502285000Y-33020000D01*
X547562100Y-32905000D02*
X547562100Y-32818800D01*
X472470000Y-109220000D02*
X473596900Y-109220000D01*
X495714700Y-107949900D02*
X496610400Y-107054200D01*
X423922100Y-108064800D02*
X422766900Y-109220000D01*
X447040000Y-200660000D02*
X448166900Y-200660000D01*
X447040000Y-109230000D02*
X445913100Y-109230000D01*
X449317100Y-153789800D02*
X448166900Y-154940000D01*
X445913100Y-154940000D02*
X444752900Y-153779800D01*
X565353200Y-47890700D02*
X564477900Y-47015400D01*
X420513100Y-109220000D02*
X419424600Y-108131500D01*
X470202900Y-199509800D02*
X449317100Y-199509800D01*
X396250000Y-200755000D02*
X397376900Y-200755000D01*
X421650000Y-200650000D02*
X422776900Y-200650000D01*
X547562100Y-32818800D02*
X543006300Y-28263000D01*
X422213500Y-154930000D02*
X421650000Y-154930000D01*
X398560400Y-108131500D02*
X397376900Y-109315000D01*
X444757900Y-62344800D02*
X423922100Y-62344800D01*
X421640000Y-109220000D02*
X422766900Y-109220000D01*
X449332100Y-62334800D02*
X448166900Y-63500000D01*
X444752900Y-199499800D02*
X423927100Y-199499800D01*
X398520400Y-153881500D02*
X397376900Y-155025000D01*
X564477900Y-47015400D02*
X563669800Y-47015400D01*
X563669800Y-47015400D02*
X556713200Y-40058800D01*
X397376900Y-200755000D02*
X398511000Y-201889100D01*
X470197900Y-108074800D02*
X449322100Y-108074800D01*
X421640000Y-63500000D02*
X420513100Y-63500000D01*
X423927100Y-199499800D02*
X422776900Y-200650000D01*
X565353200Y-49555400D02*
X565353200Y-47890700D01*
X419474600Y-153881500D02*
X398520400Y-153881500D01*
X421640000Y-63500000D02*
X422766900Y-63500000D01*
X471353100Y-200660000D02*
X470202900Y-199509800D01*
X397395200Y-62344800D02*
X396240000Y-63500000D01*
X421640000Y-109220000D02*
X420513100Y-109220000D01*
X421650000Y-154930000D02*
X420523100Y-154930000D01*
X398511000Y-201889100D02*
X419284000Y-201889100D01*
X446476600Y-200660000D02*
X447040000Y-200660000D01*
X396250000Y-109315000D02*
X397376900Y-109315000D01*
X470147900Y-62334800D02*
X449332100Y-62334800D01*
X472470000Y-154940000D02*
X471343100Y-154940000D01*
X420523100Y-154930000D02*
X419474600Y-153881500D01*
X554715900Y-40058800D02*
X547562100Y-32905000D01*
X472480000Y-200660000D02*
X471353100Y-200660000D01*
X419357900Y-62344800D02*
X397395200Y-62344800D01*
X543006300Y-28263000D02*
X507042000Y-28263000D01*
X471313100Y-63500000D02*
X470147900Y-62334800D01*
X423927100Y-153779800D02*
X422776900Y-154930000D01*
X422213500Y-154930000D02*
X422776900Y-154930000D01*
X444747900Y-108064800D02*
X423922100Y-108064800D01*
X445913100Y-200660000D02*
X444752900Y-199499800D01*
X396250000Y-155025000D02*
X397376900Y-155025000D01*
X445913100Y-109230000D02*
X444747900Y-108064800D01*
X449322100Y-108074800D02*
X448166900Y-109230000D01*
X474867000Y-107949900D02*
X495714700Y-107949900D01*
X447040000Y-63500000D02*
X448166900Y-63500000D01*
X419284000Y-201889100D02*
X420523100Y-200650000D01*
X447040000Y-63500000D02*
X445913100Y-63500000D01*
X470192900Y-153789800D02*
X449317100Y-153789800D01*
X445913100Y-63500000D02*
X444757900Y-62344800D01*
X421650000Y-200650000D02*
X420523100Y-200650000D01*
X449317100Y-199509800D02*
X448166900Y-200660000D01*
X446476600Y-200660000D02*
X445913100Y-200660000D01*
X447040000Y-154940000D02*
X445913100Y-154940000D01*
X420513100Y-63500000D02*
X419357900Y-62344800D01*
X423922100Y-62344800D02*
X422766900Y-63500000D01*
X472470000Y-109220000D02*
X471343100Y-109220000D01*
X471343100Y-154940000D02*
X470192900Y-153789800D01*
X447040000Y-154940000D02*
X448166900Y-154940000D01*
%TO.N,2oc1*%
X445913100Y-152400000D02*
X444752900Y-151239800D01*
X421640000Y-60960000D02*
X422766900Y-60960000D01*
X396240000Y-60960000D02*
X397402100Y-59797900D01*
X447040000Y-152400000D02*
X445913100Y-152400000D01*
X470162900Y-59809800D02*
X449317100Y-59809800D01*
X472470000Y-152400000D02*
X471343100Y-152400000D01*
X447040000Y-152400000D02*
X448166900Y-152400000D01*
X471313100Y-60960000D02*
X470162900Y-59809800D01*
X422213500Y-152390000D02*
X421650000Y-152390000D01*
X419474600Y-151341500D02*
X398520400Y-151341500D01*
X470202900Y-196969800D02*
X449317100Y-196969800D01*
X423922100Y-59804800D02*
X422766900Y-60960000D01*
X420513100Y-60960000D02*
X421640000Y-60960000D01*
X421650000Y-152390000D02*
X420523100Y-152390000D01*
X470192900Y-151249800D02*
X449317100Y-151249800D01*
X397402100Y-59797900D02*
X419351000Y-59797900D01*
X471343100Y-106680000D02*
X470197900Y-105534800D01*
X444752900Y-196959800D02*
X423927100Y-196959800D01*
X449317100Y-196969800D02*
X448166900Y-198120000D01*
X444747900Y-105524800D02*
X423922100Y-105524800D01*
X398522100Y-199360200D02*
X397376900Y-198215000D01*
X396250000Y-106775000D02*
X397376900Y-106775000D01*
X470197900Y-105534800D02*
X449322100Y-105534800D01*
X423927100Y-196959800D02*
X422776900Y-198110000D01*
X444757900Y-59804800D02*
X423922100Y-59804800D01*
X449317100Y-59809800D02*
X448166900Y-60960000D01*
X420513100Y-106680000D02*
X419424600Y-105591500D01*
X445913100Y-60960000D02*
X444757900Y-59804800D01*
X449317100Y-151249800D02*
X448166900Y-152400000D01*
X421650000Y-198110000D02*
X422776900Y-198110000D01*
X447040000Y-106690000D02*
X448166900Y-106690000D01*
X420523100Y-152390000D02*
X419474600Y-151341500D01*
X471343100Y-152400000D02*
X470192900Y-151249800D01*
X447040000Y-198120000D02*
X445913100Y-198120000D01*
X423927100Y-151239800D02*
X422776900Y-152390000D01*
X445913100Y-106690000D02*
X444747900Y-105524800D01*
X421640000Y-106680000D02*
X420513100Y-106680000D01*
X471353100Y-198120000D02*
X470202900Y-196969800D01*
X449322100Y-105534800D02*
X448166900Y-106690000D01*
X444752900Y-151239800D02*
X423927100Y-151239800D01*
X396250000Y-198215000D02*
X397376900Y-198215000D01*
X396250000Y-152485000D02*
X397376900Y-152485000D01*
X447040000Y-60960000D02*
X445913100Y-60960000D01*
X445913100Y-198120000D02*
X444752900Y-196959800D01*
X447040000Y-106690000D02*
X445913100Y-106690000D01*
X398520400Y-151341500D02*
X397376900Y-152485000D01*
X422203500Y-106680000D02*
X422766900Y-106680000D01*
X420523100Y-198110000D02*
X419272900Y-199360200D01*
X447040000Y-198120000D02*
X448166900Y-198120000D01*
X398560400Y-105591500D02*
X397376900Y-106775000D01*
X423922100Y-105524800D02*
X422766900Y-106680000D01*
X422203500Y-106680000D02*
X421640000Y-106680000D01*
X472470000Y-106680000D02*
X471343100Y-106680000D01*
X419351000Y-59797900D02*
X420513100Y-60960000D01*
X447040000Y-60960000D02*
X448166900Y-60960000D01*
X422213500Y-152390000D02*
X422776900Y-152390000D01*
X419272900Y-199360200D02*
X398522100Y-199360200D01*
X472480000Y-198120000D02*
X471353100Y-198120000D01*
X421650000Y-198110000D02*
X420523100Y-198110000D01*
X419424600Y-105591500D02*
X398560400Y-105591500D01*
X472440000Y-60960000D02*
X471313100Y-60960000D01*
%TO.N,2oc0*%
X449303700Y-103013200D02*
X470216300Y-103013200D01*
X421640000Y-104140000D02*
X422766900Y-104140000D01*
X447040000Y-104150000D02*
X445913100Y-104150000D01*
X474866900Y-105410000D02*
X473596900Y-104140000D01*
X445913100Y-195580000D02*
X444752900Y-194419800D01*
X423927100Y-194419800D02*
X422776900Y-195570000D01*
X422213500Y-149850000D02*
X421650000Y-149850000D01*
X445913100Y-149860000D02*
X444752900Y-148699800D01*
X447603500Y-104150000D02*
X447040000Y-104150000D01*
X397395200Y-57264800D02*
X396240000Y-58420000D01*
X447040000Y-149860000D02*
X445913100Y-149860000D01*
X472470000Y-104140000D02*
X471343100Y-104140000D01*
X507365000Y-105410000D02*
X474866900Y-105410000D01*
X444752900Y-148699800D02*
X423927100Y-148699800D01*
X449317100Y-57269800D02*
X448166900Y-58420000D01*
X472440000Y-58420000D02*
X471313100Y-58420000D01*
X470192900Y-148709800D02*
X449317100Y-148709800D01*
X542804000Y-28716400D02*
X515478600Y-28716400D01*
X447040000Y-195580000D02*
X445913100Y-195580000D01*
X421640000Y-58420000D02*
X420513100Y-58420000D01*
X421640000Y-58420000D02*
X422766900Y-58420000D01*
X420523100Y-195570000D02*
X419272900Y-196820200D01*
X470162900Y-57269800D02*
X449317100Y-57269800D01*
X473596900Y-104140000D02*
X472470000Y-104140000D01*
X421640000Y-104140000D02*
X420513100Y-104140000D01*
X398560400Y-103051500D02*
X397376900Y-104235000D01*
X565353200Y-52095400D02*
X565353200Y-50410400D01*
X470202900Y-194429800D02*
X449317100Y-194429800D01*
X420523100Y-149850000D02*
X419474600Y-148801500D01*
X420513100Y-58420000D02*
X419357900Y-57264800D01*
X398522100Y-196820200D02*
X397376900Y-195675000D01*
X449317100Y-148709800D02*
X448166900Y-149860000D01*
X423922100Y-102984800D02*
X422766900Y-104140000D01*
X447040000Y-149860000D02*
X448166900Y-149860000D01*
X421650000Y-195570000D02*
X422776900Y-195570000D01*
X420513100Y-104140000D02*
X419424600Y-103051500D01*
X419272900Y-196820200D02*
X398522100Y-196820200D01*
X445913100Y-58420000D02*
X444757900Y-57264800D01*
X447040000Y-195580000D02*
X448166900Y-195580000D01*
X419424600Y-103051500D02*
X398560400Y-103051500D01*
X566623200Y-53365400D02*
X565353200Y-52095400D01*
X421650000Y-149850000D02*
X420523100Y-149850000D01*
X515478600Y-28716400D02*
X511175000Y-33020000D01*
X398520400Y-148801500D02*
X397376900Y-149945000D01*
X449317100Y-194429800D02*
X448166900Y-195580000D01*
X471313100Y-58420000D02*
X470162900Y-57269800D01*
X471343100Y-149860000D02*
X470192900Y-148709800D01*
X419357900Y-57264800D02*
X397395200Y-57264800D01*
X422213500Y-149850000D02*
X422776900Y-149850000D01*
X510540000Y-102235000D02*
X507365000Y-105410000D01*
X546950900Y-32863300D02*
X542804000Y-28716400D01*
X472480000Y-195580000D02*
X471353100Y-195580000D01*
X445913100Y-104150000D02*
X444747900Y-102984800D01*
X396250000Y-195675000D02*
X397376900Y-195675000D01*
X472470000Y-149860000D02*
X471343100Y-149860000D01*
X565353200Y-50410400D02*
X564530000Y-49587200D01*
X444752900Y-194419800D02*
X423927100Y-194419800D01*
X396250000Y-104235000D02*
X397376900Y-104235000D01*
X564530000Y-49587200D02*
X562954900Y-49587200D01*
X471353100Y-195580000D02*
X470202900Y-194429800D01*
X396250000Y-149945000D02*
X397376900Y-149945000D01*
X470216300Y-103013200D02*
X471343100Y-104140000D01*
X444747900Y-102984800D02*
X423922100Y-102984800D01*
X419474600Y-148801500D02*
X398520400Y-148801500D01*
X421650000Y-195570000D02*
X420523100Y-195570000D01*
X562954900Y-49587200D02*
X546950900Y-33583200D01*
X546950900Y-33583200D02*
X546950900Y-32863300D01*
X447603500Y-104150000D02*
X448166900Y-104150000D01*
X444757900Y-57264800D02*
X423922100Y-57264800D01*
X447040000Y-58420000D02*
X448166900Y-58420000D01*
X423922100Y-57264800D02*
X422766900Y-58420000D01*
X447040000Y-58420000D02*
X445913100Y-58420000D01*
X448166900Y-104150000D02*
X449303700Y-103013200D01*
X423927100Y-148699800D02*
X422776900Y-149850000D01*
%TO.N,2ol3*%
X449317100Y-191889800D02*
X448166900Y-193040000D01*
X420523100Y-147310000D02*
X419490300Y-146277200D01*
X396250000Y-147405000D02*
X397376900Y-147405000D01*
X516751500Y-34151500D02*
X521358400Y-34151500D01*
X470192900Y-146169800D02*
X449317100Y-146169800D01*
X444752900Y-146159800D02*
X423927100Y-146159800D01*
X421650000Y-147310000D02*
X422776900Y-147310000D01*
X447040000Y-147320000D02*
X448166900Y-147320000D01*
X445913100Y-101610000D02*
X444747900Y-100444800D01*
X511938500Y-101093500D02*
X495548400Y-101093500D01*
X445913100Y-55880000D02*
X444757900Y-54724800D01*
X421076600Y-101600000D02*
X420513100Y-101600000D01*
X419272900Y-194280200D02*
X398522100Y-194280200D01*
X419490300Y-146277200D02*
X398504700Y-146277200D01*
X445913100Y-193040000D02*
X444752900Y-191879800D01*
X398504700Y-146277200D02*
X397376900Y-147405000D01*
X521358400Y-34151500D02*
X524984400Y-30525500D01*
X420523100Y-193030000D02*
X419272900Y-194280200D01*
X398522000Y-100549900D02*
X419463000Y-100549900D01*
X421086600Y-147310000D02*
X420523100Y-147310000D01*
X542654500Y-34476700D02*
X564083200Y-55905400D01*
X397395200Y-54724800D02*
X396240000Y-55880000D01*
X524984400Y-30525500D02*
X540123400Y-30525500D01*
X447040000Y-147320000D02*
X445913100Y-147320000D01*
X421076600Y-101600000D02*
X421640000Y-101600000D01*
X470162900Y-54729800D02*
X449317100Y-54729800D01*
X396250000Y-101695000D02*
X397376900Y-101695000D01*
X495548400Y-101093500D02*
X493771900Y-102870000D01*
X447040000Y-55880000D02*
X445913100Y-55880000D01*
X471313100Y-55880000D02*
X470162900Y-54729800D01*
X444752900Y-191879800D02*
X423927100Y-191879800D01*
X398522100Y-194280200D02*
X397376900Y-193135000D01*
X470202900Y-191889800D02*
X449317100Y-191889800D01*
X447040000Y-193040000D02*
X448166900Y-193040000D01*
X472440000Y-55880000D02*
X471313100Y-55880000D01*
X472480000Y-193040000D02*
X471353100Y-193040000D01*
X474866900Y-102870000D02*
X473596900Y-101600000D01*
X445913100Y-147320000D02*
X444752900Y-146159800D01*
X540123400Y-30525500D02*
X542654500Y-33056600D01*
X493771900Y-102870000D02*
X474866900Y-102870000D01*
X421640000Y-55880000D02*
X422766900Y-55880000D01*
X444747900Y-100444800D02*
X423922100Y-100444800D01*
X423922100Y-100444800D02*
X422766900Y-101600000D01*
X419357900Y-54724800D02*
X397395200Y-54724800D01*
X449317100Y-146169800D02*
X448166900Y-147320000D01*
X473596900Y-101600000D02*
X472470000Y-101600000D01*
X449317100Y-54729800D02*
X448166900Y-55880000D01*
X513080000Y-102235000D02*
X511938500Y-101093500D01*
X447040000Y-193040000D02*
X445913100Y-193040000D01*
X421640000Y-101600000D02*
X422766900Y-101600000D01*
X421650000Y-193030000D02*
X420523100Y-193030000D01*
X397376900Y-101695000D02*
X398522000Y-100549900D01*
X471343100Y-147320000D02*
X470192900Y-146169800D01*
X420513100Y-55880000D02*
X419357900Y-54724800D01*
X423927100Y-191879800D02*
X422776900Y-193030000D01*
X423922100Y-54724800D02*
X422766900Y-55880000D01*
X542654500Y-33056600D02*
X542654500Y-34476700D01*
X515620000Y-33020000D02*
X516751500Y-34151500D01*
X421086600Y-147310000D02*
X421650000Y-147310000D01*
X396250000Y-193135000D02*
X397376900Y-193135000D01*
X423927100Y-146159800D02*
X422776900Y-147310000D01*
X471353100Y-193040000D02*
X470202900Y-191889800D01*
X421650000Y-193030000D02*
X422776900Y-193030000D01*
X444757900Y-54724800D02*
X423922100Y-54724800D01*
X447040000Y-55880000D02*
X448166900Y-55880000D01*
X419463000Y-100549900D02*
X420513100Y-101600000D01*
X447040000Y-101610000D02*
X445913100Y-101610000D01*
X421640000Y-55880000D02*
X420513100Y-55880000D01*
X472470000Y-147320000D02*
X471343100Y-147320000D01*
%TO.N,2ol2*%
X444752900Y-189339800D02*
X423927100Y-189339800D01*
X423927100Y-143619800D02*
X422776900Y-144770000D01*
X543333000Y-33087900D02*
X540318700Y-30073600D01*
X421650000Y-190490000D02*
X422776900Y-190490000D01*
X447040000Y-99070000D02*
X448166900Y-99070000D01*
X444747900Y-97904800D02*
X423922100Y-97904800D01*
X447040000Y-53340000D02*
X445913100Y-53340000D01*
X447040000Y-190500000D02*
X448166900Y-190500000D01*
X423927100Y-189339800D02*
X422776900Y-190490000D01*
X419491200Y-143738100D02*
X420523100Y-144770000D01*
X444752900Y-143619800D02*
X423927100Y-143619800D01*
X447040000Y-144780000D02*
X445913100Y-144780000D01*
X419272900Y-191740200D02*
X398522100Y-191740200D01*
X449322100Y-97914800D02*
X448166900Y-99070000D01*
X472440000Y-53340000D02*
X471313100Y-53340000D01*
X472480000Y-190500000D02*
X471353100Y-190500000D01*
X420513100Y-53340000D02*
X421640000Y-53340000D01*
X396240000Y-53340000D02*
X397402100Y-52177900D01*
X398522100Y-191740200D02*
X397376900Y-190595000D01*
X471353100Y-190500000D02*
X470202900Y-189349800D01*
X421640000Y-53340000D02*
X422766900Y-53340000D01*
X471343100Y-99060000D02*
X470197900Y-97914800D01*
X473596900Y-99060000D02*
X472470000Y-99060000D01*
X563570500Y-54635400D02*
X543333000Y-34397900D01*
X419351000Y-52177900D02*
X420513100Y-53340000D01*
X447040000Y-53340000D02*
X448166900Y-53340000D01*
X543333000Y-34397900D02*
X543333000Y-33087900D01*
X470202900Y-189349800D02*
X449317100Y-189349800D01*
X540318700Y-30073600D02*
X523011400Y-30073600D01*
X515620000Y-102235000D02*
X513787400Y-100402400D01*
X472470000Y-99060000D02*
X471343100Y-99060000D01*
X566623200Y-55905400D02*
X565353200Y-54635400D01*
X445913100Y-53340000D02*
X444757900Y-52184800D01*
X421650000Y-190490000D02*
X420523100Y-190490000D01*
X421640000Y-99060000D02*
X422766900Y-99060000D01*
X447040000Y-99070000D02*
X445913100Y-99070000D01*
X471343100Y-144780000D02*
X470192900Y-143629800D01*
X421640000Y-99060000D02*
X420513100Y-99060000D01*
X396250000Y-190595000D02*
X397376900Y-190595000D01*
X470197900Y-97914800D02*
X449322100Y-97914800D01*
X397376900Y-144865000D02*
X398503800Y-143738100D01*
X449317100Y-143629800D02*
X448166900Y-144780000D01*
X420523100Y-190490000D02*
X419272900Y-191740200D01*
X449317100Y-52189800D02*
X448166900Y-53340000D01*
X445913100Y-190500000D02*
X444752900Y-189339800D01*
X447040000Y-190500000D02*
X445913100Y-190500000D01*
X444757900Y-52184800D02*
X423922100Y-52184800D01*
X471313100Y-53340000D02*
X470162900Y-52189800D01*
X398522000Y-98009900D02*
X419463000Y-98009900D01*
X419463000Y-98009900D02*
X420513100Y-99060000D01*
X398503800Y-143738100D02*
X419491200Y-143738100D01*
X423922100Y-97904800D02*
X422766900Y-99060000D01*
X421650000Y-144770000D02*
X422776900Y-144770000D01*
X445913100Y-144780000D02*
X444752900Y-143619800D01*
X470192900Y-143629800D02*
X449317100Y-143629800D01*
X423922100Y-52184800D02*
X422766900Y-53340000D01*
X397376900Y-99155000D02*
X398522000Y-98009900D01*
X396250000Y-144865000D02*
X397376900Y-144865000D01*
X396250000Y-99155000D02*
X397376900Y-99155000D01*
X470162900Y-52189800D02*
X449317100Y-52189800D01*
X397402100Y-52177900D02*
X419351000Y-52177900D01*
X449317100Y-189349800D02*
X448166900Y-190500000D01*
X421650000Y-144770000D02*
X420523100Y-144770000D01*
X472470000Y-144780000D02*
X471343100Y-144780000D01*
X523011400Y-30073600D02*
X520065000Y-33020000D01*
X445913100Y-99070000D02*
X444747900Y-97904800D01*
X513787400Y-100402400D02*
X474939300Y-100402400D01*
X447040000Y-144780000D02*
X448166900Y-144780000D01*
X474939300Y-100402400D02*
X473596900Y-99060000D01*
X565353200Y-54635400D02*
X563570500Y-54635400D01*
%TO.N,2ol1*%
X473596900Y-96520000D02*
X474866900Y-97790000D01*
X423922100Y-49644800D02*
X422766900Y-50800000D01*
X542202600Y-36273400D02*
X548148100Y-42218900D01*
X492854700Y-99062400D02*
X514987400Y-99062400D01*
X449317100Y-141089800D02*
X448166900Y-142240000D01*
X421650000Y-187950000D02*
X422776900Y-187950000D01*
X472470000Y-96520000D02*
X471343100Y-96520000D01*
X398522100Y-189200200D02*
X397376900Y-188055000D01*
X396250000Y-188055000D02*
X396250000Y-186928100D01*
X420523100Y-187950000D02*
X419272900Y-189200200D01*
X542202600Y-33243800D02*
X542202600Y-36273400D01*
X421640000Y-50800000D02*
X420513100Y-50800000D01*
X444752900Y-141079800D02*
X423927100Y-141079800D01*
X394466200Y-144954000D02*
X394466200Y-185377800D01*
X447040000Y-50800000D02*
X445913100Y-50800000D01*
X564083200Y-58445400D02*
X562906300Y-58445400D01*
X472470000Y-142240000D02*
X471343100Y-142240000D01*
X420513100Y-96520000D02*
X419424600Y-95431500D01*
X474866900Y-97790000D02*
X491582300Y-97790000D01*
X526552600Y-30977400D02*
X539936200Y-30977400D01*
X471313100Y-50800000D02*
X470162900Y-49649800D01*
X447040000Y-187960000D02*
X445913100Y-187960000D01*
X447040000Y-142240000D02*
X445913100Y-142240000D01*
X396250000Y-143451900D02*
X395968300Y-143451900D01*
X447040000Y-187960000D02*
X448166900Y-187960000D01*
X449322100Y-95374800D02*
X448166900Y-96530000D01*
X420523100Y-142230000D02*
X419490300Y-141197200D01*
X419272900Y-189200200D02*
X398522100Y-189200200D01*
X539936200Y-30977400D02*
X542202600Y-33243800D01*
X396250000Y-188055000D02*
X397376900Y-188055000D01*
X394466200Y-185377800D02*
X396016500Y-186928100D01*
X421640000Y-50800000D02*
X422766900Y-50800000D01*
X445913100Y-50800000D02*
X444757900Y-49644800D01*
X445913100Y-187960000D02*
X444752900Y-186799800D01*
X397395200Y-49644800D02*
X396240000Y-50800000D01*
X449317100Y-49649800D02*
X448166900Y-50800000D01*
X470202900Y-186809800D02*
X449317100Y-186809800D01*
X471343100Y-142240000D02*
X470192900Y-141089800D01*
X472440000Y-50800000D02*
X471313100Y-50800000D01*
X396016500Y-186928100D02*
X396250000Y-186928100D01*
X398504700Y-141197200D02*
X397376900Y-142325000D01*
X422213500Y-142230000D02*
X422776900Y-142230000D01*
X421640000Y-96520000D02*
X420513100Y-96520000D01*
X447603500Y-96530000D02*
X447040000Y-96530000D01*
X471343100Y-96520000D02*
X470197900Y-95374800D01*
X395968300Y-143451900D02*
X394466200Y-144954000D01*
X396250000Y-142325000D02*
X396250000Y-143451900D01*
X470162900Y-49649800D02*
X449317100Y-49649800D01*
X447040000Y-50800000D02*
X448166900Y-50800000D01*
X471353100Y-187960000D02*
X470202900Y-186809800D01*
X421650000Y-142230000D02*
X420523100Y-142230000D01*
X447040000Y-142240000D02*
X448166900Y-142240000D01*
X444757900Y-49644800D02*
X423922100Y-49644800D01*
X449317100Y-186809800D02*
X448166900Y-187960000D01*
X423927100Y-186799800D02*
X422776900Y-187950000D01*
X447603500Y-96530000D02*
X448166900Y-96530000D01*
X444752900Y-186799800D02*
X423927100Y-186799800D01*
X470192900Y-141089800D02*
X449317100Y-141089800D01*
X421640000Y-96520000D02*
X422766900Y-96520000D01*
X470197900Y-95374800D02*
X449322100Y-95374800D01*
X396250000Y-96615000D02*
X397376900Y-96615000D01*
X524510000Y-33020000D02*
X526552600Y-30977400D01*
X419424600Y-95431500D02*
X398560400Y-95431500D01*
X419490300Y-141197200D02*
X398504700Y-141197200D01*
X445913100Y-96530000D02*
X444747900Y-95364800D01*
X421650000Y-187950000D02*
X420523100Y-187950000D01*
X396250000Y-142325000D02*
X397376900Y-142325000D01*
X548148100Y-43687200D02*
X562906300Y-58445400D01*
X472480000Y-187960000D02*
X471353100Y-187960000D01*
X420513100Y-50800000D02*
X419357900Y-49644800D01*
X491582300Y-97790000D02*
X492854700Y-99062400D01*
X444747900Y-95364800D02*
X423922100Y-95364800D01*
X548148100Y-42218900D02*
X548148100Y-43687200D01*
X419357900Y-49644800D02*
X397395200Y-49644800D01*
X423922100Y-95364800D02*
X422766900Y-96520000D01*
X422213500Y-142230000D02*
X421650000Y-142230000D01*
X447040000Y-96530000D02*
X445913100Y-96530000D01*
X514987400Y-99062400D02*
X518160000Y-102235000D01*
X423927100Y-141079800D02*
X422776900Y-142230000D01*
X445913100Y-142240000D02*
X444752900Y-141079800D01*
X398560400Y-95431500D02*
X397376900Y-96615000D01*
X472470000Y-96520000D02*
X473596900Y-96520000D01*
%TO.N,2ol0*%
X447040000Y-185420000D02*
X448166900Y-185420000D01*
X553364300Y-62245300D02*
X526733300Y-35614300D01*
X421650000Y-185410000D02*
X422776900Y-185410000D01*
X471930400Y-48260000D02*
X472440000Y-48260000D01*
X472440000Y-48260000D02*
X473566900Y-48260000D01*
X567808700Y-61536300D02*
X567099700Y-62245300D01*
X472470000Y-139700000D02*
X471343100Y-139700000D01*
X566623200Y-58445400D02*
X567820600Y-59642800D01*
X448166900Y-185420000D02*
X449297600Y-184289300D01*
X398517600Y-186655700D02*
X419277400Y-186655700D01*
X422766900Y-93980000D02*
X423899500Y-92847400D01*
X472470000Y-93980000D02*
X471343100Y-93980000D01*
X491654700Y-95322400D02*
X494279600Y-97947300D01*
X397376900Y-185515000D02*
X398517600Y-186655700D01*
X396250000Y-185515000D02*
X397376900Y-185515000D01*
X446476600Y-139700000D02*
X447040000Y-139700000D01*
X447040000Y-48260000D02*
X445913100Y-48260000D01*
X445913100Y-185420000D02*
X444771800Y-184278700D01*
X423909200Y-138557700D02*
X444770800Y-138557700D01*
X446520400Y-185420000D02*
X445913100Y-185420000D01*
X421640000Y-48260000D02*
X422766900Y-48260000D01*
X516412300Y-97947300D02*
X520700000Y-102235000D01*
X446520400Y-185420000D02*
X447040000Y-185420000D01*
X449297000Y-138569900D02*
X470213000Y-138569900D01*
X422776900Y-139690000D02*
X423909200Y-138557700D01*
X494279600Y-97947300D02*
X516412300Y-97947300D01*
X474939300Y-95322400D02*
X491654700Y-95322400D01*
X470222400Y-184289300D02*
X471353100Y-185420000D01*
X449297600Y-184289300D02*
X470222400Y-184289300D01*
X567099700Y-62245300D02*
X553364300Y-62245300D01*
X474693800Y-47133100D02*
X492293200Y-47133100D01*
X444776400Y-47123300D02*
X445913100Y-48260000D01*
X472480000Y-185420000D02*
X471353100Y-185420000D01*
X528955000Y-33020000D02*
X526733300Y-35241700D01*
X567820600Y-59642800D02*
X567820600Y-60430100D01*
X470213000Y-138569900D02*
X471343100Y-139700000D01*
X396250000Y-139785000D02*
X397376900Y-139785000D01*
X449303700Y-92853200D02*
X470216300Y-92853200D01*
X444770500Y-92847400D02*
X445913100Y-93990000D01*
X449316000Y-47110900D02*
X448166900Y-48260000D01*
X397375000Y-47125000D02*
X419378100Y-47125000D01*
X421640000Y-93980000D02*
X420513100Y-93980000D01*
X471930400Y-48260000D02*
X471313100Y-48260000D01*
X473596900Y-93980000D02*
X474939300Y-95322400D01*
X421650000Y-139690000D02*
X420523100Y-139690000D01*
X420513100Y-48260000D02*
X421640000Y-48260000D01*
X447040000Y-93990000D02*
X445913100Y-93990000D01*
X567808700Y-60442000D02*
X567808700Y-61536300D01*
X420513100Y-93980000D02*
X419469100Y-92936000D01*
X497373200Y-42053100D02*
X520294500Y-42053100D01*
X448166900Y-139700000D02*
X449297000Y-138569900D01*
X419277400Y-186655700D02*
X420523100Y-185410000D01*
X526733300Y-35241700D02*
X526733300Y-35614300D01*
X473566900Y-48260000D02*
X474693800Y-47133100D01*
X492293200Y-47133100D02*
X497373200Y-42053100D01*
X448166900Y-93990000D02*
X449303700Y-92853200D01*
X472470000Y-93980000D02*
X473596900Y-93980000D01*
X397376900Y-139785000D02*
X398524000Y-138637900D01*
X419469100Y-92936000D02*
X398515900Y-92936000D01*
X423899500Y-92847400D02*
X444770500Y-92847400D01*
X447040000Y-93990000D02*
X448166900Y-93990000D01*
X471313100Y-48260000D02*
X470164000Y-47110900D01*
X444770800Y-138557700D02*
X445913100Y-139700000D01*
X423908200Y-184278700D02*
X422776900Y-185410000D01*
X423903600Y-47123300D02*
X444776400Y-47123300D01*
X421650000Y-185410000D02*
X420523100Y-185410000D01*
X444771800Y-184278700D02*
X423908200Y-184278700D01*
X421650000Y-139690000D02*
X422776900Y-139690000D01*
X398524000Y-138637900D02*
X419471000Y-138637900D01*
X447040000Y-48260000D02*
X448166900Y-48260000D01*
X446476600Y-139700000D02*
X445913100Y-139700000D01*
X567820600Y-60430100D02*
X567808700Y-60442000D01*
X396240000Y-48260000D02*
X397375000Y-47125000D01*
X447040000Y-139700000D02*
X448166900Y-139700000D01*
X470216300Y-92853200D02*
X471343100Y-93980000D01*
X419378100Y-47125000D02*
X420513100Y-48260000D01*
X422203500Y-93980000D02*
X422766900Y-93980000D01*
X398515900Y-92936000D02*
X397376900Y-94075000D01*
X520294500Y-42053100D02*
X526733300Y-35614300D01*
X419471000Y-138637900D02*
X420523100Y-139690000D01*
X422766900Y-48260000D02*
X423903600Y-47123300D01*
X470164000Y-47110900D02*
X449316000Y-47110900D01*
X422203500Y-93980000D02*
X421640000Y-93980000D01*
X396250000Y-94075000D02*
X397376900Y-94075000D01*
%TO.N,2Im5*%
X536265400Y-33020000D02*
X546657600Y-43412200D01*
X398564600Y-43252300D02*
X397366900Y-44450000D01*
X447030000Y-181610000D02*
X445903100Y-181610000D01*
X421650000Y-181600000D02*
X422776900Y-181600000D01*
X423964600Y-134672300D02*
X444695400Y-134672300D01*
X449364600Y-88972300D02*
X448166900Y-90170000D01*
X449354600Y-180412300D02*
X448156900Y-181610000D01*
X445903100Y-44450000D02*
X444705400Y-43252300D01*
X493781300Y-43323100D02*
X495917200Y-41187200D01*
X449354600Y-43252300D02*
X448156900Y-44450000D01*
X419315400Y-43252300D02*
X398564600Y-43252300D01*
X444695400Y-180402300D02*
X423974600Y-180402300D01*
X398503800Y-91391900D02*
X397376900Y-90265000D01*
X528428000Y-31885600D02*
X534805600Y-31885600D01*
X546657600Y-43412200D02*
X546657600Y-43559800D01*
X419488700Y-134845600D02*
X398506300Y-134845600D01*
X470206300Y-134753200D02*
X471333100Y-135880000D01*
X419491200Y-180568100D02*
X420523100Y-181600000D01*
X422766900Y-135870000D02*
X423964600Y-134672300D01*
X396250000Y-90265000D02*
X397376900Y-90265000D01*
X447040000Y-135890000D02*
X448166900Y-135890000D01*
X447040000Y-90170000D02*
X448166900Y-90170000D01*
X423974600Y-180402300D02*
X422776900Y-181600000D01*
X447040000Y-90170000D02*
X445913100Y-90170000D01*
X473556900Y-44450000D02*
X474683800Y-43323100D01*
X447030000Y-44450000D02*
X448156900Y-44450000D01*
X546657600Y-43559800D02*
X564083200Y-60985400D01*
X423964600Y-43252300D02*
X422766900Y-44450000D01*
X447030000Y-44450000D02*
X445903100Y-44450000D01*
X418642200Y-91391900D02*
X398503800Y-91391900D01*
X445903100Y-181610000D02*
X444695400Y-180402300D01*
X398503800Y-180568100D02*
X419491200Y-180568100D01*
X471343100Y-181610000D02*
X470145400Y-180412300D01*
X470115400Y-88972300D02*
X449364600Y-88972300D01*
X398506300Y-134845600D02*
X397376900Y-135975000D01*
X449303700Y-134753200D02*
X470206300Y-134753200D01*
X420513100Y-44450000D02*
X419315400Y-43252300D01*
X448166900Y-135890000D02*
X449303700Y-134753200D01*
X397376900Y-181695000D02*
X398503800Y-180568100D01*
X472430000Y-44450000D02*
X471303100Y-44450000D01*
X472440000Y-90170000D02*
X471313100Y-90170000D01*
X535940000Y-33020000D02*
X536265400Y-33020000D01*
X421076600Y-135870000D02*
X421640000Y-135870000D01*
X421640000Y-44450000D02*
X420513100Y-44450000D01*
X519126400Y-41187200D02*
X528428000Y-31885600D01*
X421630000Y-90170000D02*
X420503100Y-90170000D01*
X472470000Y-181610000D02*
X471343100Y-181610000D01*
X444695400Y-134672300D02*
X445913100Y-135890000D01*
X471303100Y-44450000D02*
X470105400Y-43252300D01*
X534805600Y-31885600D02*
X535940000Y-33020000D01*
X474683800Y-43323100D02*
X493781300Y-43323100D01*
X421650000Y-181600000D02*
X420523100Y-181600000D01*
X420513100Y-135870000D02*
X419488700Y-134845600D01*
X421640000Y-135870000D02*
X422766900Y-135870000D01*
X445913100Y-90170000D02*
X444757900Y-89014800D01*
X421630000Y-90170000D02*
X422756900Y-90170000D01*
X495917200Y-41187200D02*
X519126400Y-41187200D01*
X420503100Y-90170000D02*
X419864100Y-90170000D01*
X470145400Y-180412300D02*
X449354600Y-180412300D01*
X419864100Y-90170000D02*
X418642200Y-91391900D01*
X421640000Y-44450000D02*
X422766900Y-44450000D01*
X470105400Y-43252300D02*
X449354600Y-43252300D01*
X444757900Y-89014800D02*
X423912100Y-89014800D01*
X396250000Y-135975000D02*
X397376900Y-135975000D01*
X471313100Y-90170000D02*
X470115400Y-88972300D01*
X396250000Y-181695000D02*
X397376900Y-181695000D01*
X472430000Y-44450000D02*
X473556900Y-44450000D01*
X447040000Y-135890000D02*
X445913100Y-135890000D01*
X396240000Y-44450000D02*
X397366900Y-44450000D01*
X472460000Y-135880000D02*
X471333100Y-135880000D01*
X444705400Y-43252300D02*
X423964600Y-43252300D01*
X423912100Y-89014800D02*
X422756900Y-90170000D01*
X421076600Y-135870000D02*
X420513100Y-135870000D01*
X447030000Y-181610000D02*
X448156900Y-181610000D01*
%TO.N,2Im4*%
X421630000Y-87630000D02*
X420503100Y-87630000D01*
X446476600Y-87630000D02*
X447040000Y-87630000D01*
X444747900Y-40754800D02*
X423922100Y-40754800D01*
X398503800Y-178028100D02*
X419491200Y-178028100D01*
X396250000Y-87725000D02*
X397376900Y-87725000D01*
X449317100Y-86479800D02*
X448166900Y-87630000D01*
X419357900Y-40754800D02*
X398522100Y-40754800D01*
X419491200Y-132308100D02*
X420513100Y-133330000D01*
X447030000Y-41910000D02*
X445903100Y-41910000D01*
X472430000Y-41910000D02*
X471303100Y-41910000D01*
X421650000Y-179060000D02*
X422776900Y-179060000D01*
X547475300Y-43672900D02*
X547475300Y-42264700D01*
X449317100Y-132199800D02*
X448166900Y-133350000D01*
X423912100Y-132184800D02*
X422766900Y-133330000D01*
X447040000Y-133350000D02*
X448166900Y-133350000D01*
X527798800Y-31429300D02*
X538794300Y-31429300D01*
X423912100Y-86474800D02*
X422756900Y-87630000D01*
X444742900Y-177909800D02*
X423927100Y-177909800D01*
X470152900Y-40759800D02*
X449307100Y-40759800D01*
X398522100Y-40754800D02*
X397366900Y-41910000D01*
X473556900Y-41910000D02*
X474826900Y-40640000D01*
X445903100Y-41910000D02*
X444747900Y-40754800D01*
X449307100Y-177919800D02*
X448156900Y-179070000D01*
X423922100Y-40754800D02*
X422766900Y-41910000D01*
X547475300Y-42264700D02*
X540385000Y-35174400D01*
X539750000Y-102235000D02*
X539750000Y-101502600D01*
X566623200Y-60985400D02*
X565353200Y-59715400D01*
X563517800Y-59715400D02*
X547475300Y-43672900D01*
X447030000Y-179070000D02*
X445903100Y-179070000D01*
X471313100Y-87630000D02*
X470162900Y-86479800D01*
X396250000Y-133435000D02*
X397376900Y-133435000D01*
X471333100Y-133340000D02*
X470192900Y-132199800D01*
X446476600Y-87630000D02*
X445913100Y-87630000D01*
X397376900Y-133435000D02*
X398503800Y-132308100D01*
X396240000Y-41910000D02*
X397366900Y-41910000D01*
X419414600Y-86541500D02*
X398560400Y-86541500D01*
X539750000Y-101502600D02*
X537593900Y-99346500D01*
X445913100Y-133350000D02*
X444747900Y-132184800D01*
X445903100Y-179070000D02*
X444742900Y-177909800D01*
X398503800Y-132308100D02*
X419491200Y-132308100D01*
X472440000Y-87630000D02*
X471313100Y-87630000D01*
X471303100Y-41910000D02*
X470152900Y-40759800D01*
X398560400Y-86541500D02*
X397376900Y-87725000D01*
X421650000Y-179060000D02*
X420523100Y-179060000D01*
X419491200Y-178028100D02*
X420523100Y-179060000D01*
X444757900Y-86474800D02*
X423912100Y-86474800D01*
X474826900Y-40640000D02*
X518588100Y-40640000D01*
X472460000Y-133340000D02*
X471333100Y-133340000D01*
X470192900Y-132199800D02*
X449317100Y-132199800D01*
X472470000Y-179070000D02*
X471343100Y-179070000D01*
X447593500Y-41910000D02*
X448156900Y-41910000D01*
X420513100Y-41910000D02*
X419357900Y-40754800D01*
X421640000Y-133330000D02*
X420513100Y-133330000D01*
X470192900Y-177919800D02*
X449307100Y-177919800D01*
X447040000Y-133350000D02*
X445913100Y-133350000D01*
X444747900Y-132184800D02*
X423912100Y-132184800D01*
X396250000Y-179155000D02*
X397376900Y-179155000D01*
X518588100Y-40640000D02*
X527798800Y-31429300D01*
X397376900Y-179155000D02*
X398503800Y-178028100D01*
X447030000Y-179070000D02*
X448156900Y-179070000D01*
X445913100Y-87630000D02*
X444757900Y-86474800D01*
X421640000Y-41910000D02*
X422766900Y-41910000D01*
X447040000Y-87630000D02*
X448166900Y-87630000D01*
X423927100Y-177909800D02*
X422776900Y-179060000D01*
X420503100Y-87630000D02*
X419414600Y-86541500D01*
X540385000Y-35174400D02*
X540385000Y-33020000D01*
X447593500Y-41910000D02*
X447030000Y-41910000D01*
X421630000Y-87630000D02*
X422756900Y-87630000D01*
X471343100Y-179070000D02*
X470192900Y-177919800D01*
X538794300Y-31429300D02*
X540385000Y-33020000D01*
X449307100Y-40759800D02*
X448156900Y-41910000D01*
X472430000Y-41910000D02*
X473556900Y-41910000D01*
X421640000Y-41910000D02*
X420513100Y-41910000D01*
X470162900Y-86479800D02*
X449317100Y-86479800D01*
X565353200Y-59715400D02*
X563517800Y-59715400D01*
X421640000Y-133330000D02*
X422766900Y-133330000D01*
%TO.N,2Im3*%
X470152900Y-38219800D02*
X449307100Y-38219800D01*
X398503800Y-175488100D02*
X419491200Y-175488100D01*
X474827000Y-38099900D02*
X508946500Y-38099900D01*
X472470000Y-176530000D02*
X471343100Y-176530000D01*
X421650000Y-176520000D02*
X422776900Y-176520000D01*
X419489200Y-129766100D02*
X398505800Y-129766100D01*
X420513100Y-130790000D02*
X419489200Y-129766100D01*
X423912100Y-129644800D02*
X422766900Y-130790000D01*
X472440000Y-85090000D02*
X471313100Y-85090000D01*
X444747900Y-38214800D02*
X423922100Y-38214800D01*
X470192900Y-175379800D02*
X449307100Y-175379800D01*
X444747900Y-129644800D02*
X423912100Y-129644800D01*
X449317100Y-129659800D02*
X448166900Y-130810000D01*
X445913100Y-130810000D02*
X444747900Y-129644800D01*
X471313100Y-85090000D02*
X470162900Y-83939800D01*
X396250000Y-130895000D02*
X397376900Y-130895000D01*
X449307100Y-175379800D02*
X448156900Y-176530000D01*
X398560400Y-84001500D02*
X397376900Y-85185000D01*
X396250000Y-176615000D02*
X397376900Y-176615000D01*
X447040000Y-85090000D02*
X448166900Y-85090000D01*
X447040000Y-130810000D02*
X445913100Y-130810000D01*
X445913100Y-85090000D02*
X444757900Y-83934800D01*
X423912100Y-83934800D02*
X422756900Y-85090000D01*
X471303100Y-39370000D02*
X470152900Y-38219800D01*
X421640000Y-39370000D02*
X422766900Y-39370000D01*
X421640000Y-39370000D02*
X420513100Y-39370000D01*
X447040000Y-85090000D02*
X445913100Y-85090000D01*
X541430200Y-29620200D02*
X544830000Y-33020000D01*
X470162900Y-83939800D02*
X449317100Y-83939800D01*
X471343100Y-176530000D02*
X470192900Y-175379800D01*
X396250000Y-85185000D02*
X397376900Y-85185000D01*
X398529000Y-38207900D02*
X419351000Y-38207900D01*
X517426200Y-29620200D02*
X541430200Y-29620200D01*
X472430000Y-39370000D02*
X471303100Y-39370000D01*
X419414600Y-84001500D02*
X398560400Y-84001500D01*
X472460000Y-130800000D02*
X471333100Y-130800000D01*
X421066600Y-85090000D02*
X420503100Y-85090000D01*
X470192900Y-129659800D02*
X449317100Y-129659800D01*
X447030000Y-176530000D02*
X448156900Y-176530000D01*
X447030000Y-39370000D02*
X448156900Y-39370000D01*
X449317100Y-83939800D02*
X448166900Y-85090000D01*
X420503100Y-85090000D02*
X419414600Y-84001500D01*
X398505800Y-129766100D02*
X397376900Y-130895000D01*
X471333100Y-130800000D02*
X470192900Y-129659800D01*
X423927100Y-175369800D02*
X422776900Y-176520000D01*
X421066600Y-85090000D02*
X421630000Y-85090000D01*
X396240000Y-39370000D02*
X397366900Y-39370000D01*
X447030000Y-176530000D02*
X445903100Y-176530000D01*
X419491200Y-175488100D02*
X420523100Y-176520000D01*
X447030000Y-39370000D02*
X445903100Y-39370000D01*
X419351000Y-38207900D02*
X420513100Y-39370000D01*
X444742900Y-175369800D02*
X423927100Y-175369800D01*
X397366900Y-39370000D02*
X398529000Y-38207900D01*
X445903100Y-39370000D02*
X444747900Y-38214800D01*
X421630000Y-85090000D02*
X422756900Y-85090000D01*
X508946500Y-38099900D02*
X517426200Y-29620200D01*
X445903100Y-176530000D02*
X444742900Y-175369800D01*
X472430000Y-39370000D02*
X473556900Y-39370000D01*
X421650000Y-176520000D02*
X420523100Y-176520000D01*
X397376900Y-176615000D02*
X398503800Y-175488100D01*
X421640000Y-130790000D02*
X422766900Y-130790000D01*
X423922100Y-38214800D02*
X422766900Y-39370000D01*
X449307100Y-38219800D02*
X448156900Y-39370000D01*
X444757900Y-83934800D02*
X423912100Y-83934800D01*
X473556900Y-39370000D02*
X474827000Y-38099900D01*
X447040000Y-130810000D02*
X448166900Y-130810000D01*
X421640000Y-130790000D02*
X420513100Y-130790000D01*
%TO.N,2Im2*%
X444757900Y-81394800D02*
X445913100Y-82550000D01*
X398503800Y-172948100D02*
X419491200Y-172948100D01*
X447040000Y-128270000D02*
X448166900Y-128270000D01*
X472470000Y-173990000D02*
X471343100Y-173990000D01*
X447040000Y-128270000D02*
X445913100Y-128270000D01*
X423922100Y-35674800D02*
X422766900Y-36830000D01*
X544830000Y-102235000D02*
X544830000Y-99536100D01*
X423927100Y-172829800D02*
X422776900Y-173980000D01*
X397376900Y-128355000D02*
X398503800Y-127228100D01*
X447593500Y-36830000D02*
X447030000Y-36830000D01*
X473556900Y-36830000D02*
X473556900Y-36596500D01*
X421066600Y-82550000D02*
X420503100Y-82550000D01*
X470192900Y-127119800D02*
X449317100Y-127119800D01*
X444747900Y-127104800D02*
X423912100Y-127104800D01*
X447593500Y-36830000D02*
X448156900Y-36830000D01*
X423912100Y-81394800D02*
X444757900Y-81394800D01*
X445903100Y-36830000D02*
X444747900Y-35674800D01*
X396240000Y-36830000D02*
X397366900Y-36830000D01*
X471303100Y-36830000D02*
X470152900Y-35679800D01*
X396250000Y-82645000D02*
X397376900Y-82645000D01*
X421640000Y-128250000D02*
X422766900Y-128250000D01*
X470192900Y-172839800D02*
X449307100Y-172839800D01*
X445903100Y-173990000D02*
X444742900Y-172829800D01*
X396250000Y-174075000D02*
X397376900Y-174075000D01*
X473556900Y-36596500D02*
X482342300Y-27811100D01*
X472430000Y-36830000D02*
X471303100Y-36830000D01*
X544066100Y-27811100D02*
X549275000Y-33020000D01*
X447030000Y-173990000D02*
X445903100Y-173990000D01*
X449317100Y-127119800D02*
X448166900Y-128270000D01*
X471333100Y-128260000D02*
X470192900Y-127119800D01*
X419426800Y-81473700D02*
X398548200Y-81473700D01*
X421640000Y-36830000D02*
X420513100Y-36830000D01*
X398548200Y-81473700D02*
X397376900Y-82645000D01*
X397376900Y-174075000D02*
X398503800Y-172948100D01*
X544830000Y-99536100D02*
X541124200Y-95830300D01*
X471343100Y-173990000D02*
X470192900Y-172839800D01*
X398522100Y-35674800D02*
X397366900Y-36830000D01*
X421650000Y-173980000D02*
X420523100Y-173980000D01*
X398503800Y-127228100D02*
X419491200Y-127228100D01*
X419357900Y-35674800D02*
X398522100Y-35674800D01*
X444747900Y-35674800D02*
X423922100Y-35674800D01*
X447040000Y-82550000D02*
X445913100Y-82550000D01*
X421630000Y-82550000D02*
X422756900Y-82550000D01*
X419491200Y-172948100D02*
X420523100Y-173980000D01*
X449307100Y-172839800D02*
X448156900Y-173990000D01*
X472430000Y-36830000D02*
X473556900Y-36830000D01*
X396250000Y-128355000D02*
X397376900Y-128355000D01*
X420513100Y-36830000D02*
X419357900Y-35674800D01*
X419491200Y-127228100D02*
X420513100Y-128250000D01*
X444742900Y-172829800D02*
X423927100Y-172829800D01*
X420503100Y-82550000D02*
X419426800Y-81473700D01*
X482342300Y-27811100D02*
X544066100Y-27811100D01*
X422756900Y-82550000D02*
X423912100Y-81394800D01*
X421640000Y-128250000D02*
X420513100Y-128250000D01*
X423912100Y-127104800D02*
X422766900Y-128250000D01*
X421650000Y-173980000D02*
X422776900Y-173980000D01*
X421066600Y-82550000D02*
X421630000Y-82550000D01*
X447030000Y-36830000D02*
X445903100Y-36830000D01*
X445913100Y-128270000D02*
X444747900Y-127104800D01*
X421640000Y-36830000D02*
X422766900Y-36830000D01*
X470152900Y-35679800D02*
X449307100Y-35679800D01*
X472460000Y-128260000D02*
X471333100Y-128260000D01*
X447030000Y-173990000D02*
X448156900Y-173990000D01*
X449307100Y-35679800D02*
X448156900Y-36830000D01*
%TO.N,2Im1*%
X471333100Y-125720000D02*
X470192900Y-124579800D01*
X421650000Y-171440000D02*
X420523100Y-171440000D01*
X445903100Y-171450000D02*
X444702500Y-170249400D01*
X566194400Y-47017500D02*
X567098000Y-47017500D01*
X470086500Y-81236600D02*
X449393500Y-81236600D01*
X568744300Y-65623400D02*
X566939400Y-67428300D01*
X447040000Y-80010000D02*
X448166900Y-80010000D01*
X553720000Y-33020000D02*
X553720000Y-35031800D01*
X472430000Y-34290000D02*
X471303100Y-34290000D01*
X449393500Y-81236600D02*
X448166900Y-80010000D01*
X445903100Y-34290000D02*
X444747900Y-33134800D01*
X447030000Y-34290000D02*
X445903100Y-34290000D01*
X449317100Y-124579800D02*
X448166900Y-125730000D01*
X470202500Y-170309400D02*
X471343100Y-171450000D01*
X448156900Y-171450000D02*
X449297500Y-170309400D01*
X419491200Y-170408100D02*
X420523100Y-171440000D01*
X447593500Y-34290000D02*
X448156900Y-34290000D01*
X398505800Y-124686100D02*
X397376900Y-125815000D01*
X397376900Y-171535000D02*
X398503800Y-170408100D01*
X398560400Y-78921500D02*
X397376900Y-80105000D01*
X565353200Y-45267100D02*
X565353200Y-46176300D01*
X568744300Y-58235700D02*
X568744300Y-65623400D01*
X471303100Y-34290000D02*
X470152900Y-33139800D01*
X419489200Y-124686100D02*
X398505800Y-124686100D01*
X447593500Y-34290000D02*
X447030000Y-34290000D01*
X564558600Y-69830900D02*
X563624800Y-69830900D01*
X472440000Y-80010000D02*
X471313100Y-80010000D01*
X446510400Y-171450000D02*
X447030000Y-171450000D01*
X472460000Y-125720000D02*
X471333100Y-125720000D01*
X565353200Y-69036300D02*
X564558600Y-69830900D01*
X562891300Y-69097400D02*
X562891300Y-67257300D01*
X553720000Y-35031800D02*
X563163600Y-44475400D01*
X567800700Y-57292100D02*
X568744300Y-58235700D01*
X419414600Y-78921500D02*
X398560400Y-78921500D01*
X562891300Y-67257300D02*
X564083200Y-66065400D01*
X447030000Y-171450000D02*
X448156900Y-171450000D01*
X420503100Y-80010000D02*
X419414600Y-78921500D01*
X421640000Y-125710000D02*
X420513100Y-125710000D01*
X480487700Y-27359200D02*
X473556900Y-34290000D01*
X421630000Y-80010000D02*
X420503100Y-80010000D01*
X396250000Y-171535000D02*
X397376900Y-171535000D01*
X470152900Y-33139800D02*
X449307100Y-33139800D01*
X449307100Y-33139800D02*
X448156900Y-34290000D01*
X567800700Y-47720200D02*
X567800700Y-57292100D01*
X566939400Y-67428300D02*
X566121300Y-67428300D01*
X420513100Y-125710000D02*
X419489200Y-124686100D01*
X449297500Y-170309400D02*
X470202500Y-170309400D01*
X444747900Y-33134800D02*
X423922100Y-33134800D01*
X566121300Y-67428300D02*
X565353200Y-68196400D01*
X565353200Y-46176300D02*
X566194400Y-47017500D01*
X470192900Y-124579800D02*
X449317100Y-124579800D01*
X396250000Y-125815000D02*
X397376900Y-125815000D01*
X548059200Y-27359200D02*
X480487700Y-27359200D01*
X553720000Y-33020000D02*
X548059200Y-27359200D01*
X447040000Y-125730000D02*
X448166900Y-125730000D01*
X472430000Y-34290000D02*
X473556900Y-34290000D01*
X563624800Y-69830900D02*
X562891300Y-69097400D01*
X563163600Y-44475400D02*
X564561500Y-44475400D01*
X423967500Y-170249400D02*
X422776900Y-171440000D01*
X565353200Y-68196400D02*
X565353200Y-69036300D01*
X564561500Y-44475400D02*
X565353200Y-45267100D01*
X567098000Y-47017500D02*
X567800700Y-47720200D01*
X398503800Y-170408100D02*
X419491200Y-170408100D01*
X472470000Y-171450000D02*
X471343100Y-171450000D01*
X446510400Y-171450000D02*
X445903100Y-171450000D01*
X421650000Y-171440000D02*
X422776900Y-171440000D01*
X423922100Y-33134800D02*
X422766900Y-34290000D01*
X421640000Y-34290000D02*
X422766900Y-34290000D01*
X396250000Y-80105000D02*
X397376900Y-80105000D01*
X471313100Y-80010000D02*
X470086500Y-81236600D01*
X444702500Y-170249400D02*
X423967500Y-170249400D01*
%TO.N,2Im0*%
X471303100Y-31750000D02*
X470138600Y-30585500D01*
X472430000Y-31750000D02*
X471303100Y-31750000D01*
X422766900Y-123170000D02*
X423896600Y-122040300D01*
X419301200Y-32961900D02*
X420513100Y-31750000D01*
X423896600Y-122040300D02*
X444763400Y-122040300D01*
X419491200Y-122148100D02*
X398503800Y-122148100D01*
X421650000Y-168900000D02*
X420523100Y-168900000D01*
X471343100Y-168910000D02*
X470210700Y-167777600D01*
X419489800Y-167866700D02*
X420523100Y-168900000D01*
X447030000Y-31750000D02*
X445903100Y-31750000D01*
X421256700Y-123170000D02*
X420513100Y-123170000D01*
X423931400Y-30585500D02*
X444738600Y-30585500D01*
X397366900Y-31750000D02*
X398578800Y-32961900D01*
X422766900Y-31750000D02*
X423931400Y-30585500D01*
X421640000Y-31750000D02*
X422766900Y-31750000D01*
X447040000Y-77470000D02*
X445913100Y-77470000D01*
X421066600Y-77470000D02*
X420503100Y-77470000D01*
X397376900Y-168995000D02*
X398505200Y-167866700D01*
X470082500Y-78700600D02*
X449397500Y-78700600D01*
X471313100Y-77470000D02*
X470082500Y-78700600D01*
X421650000Y-168900000D02*
X422776900Y-168900000D01*
X421630000Y-77470000D02*
X422756900Y-77470000D01*
X398578800Y-32961900D02*
X419301200Y-32961900D01*
X447040000Y-123190000D02*
X445913100Y-123190000D01*
X423904700Y-76322200D02*
X444765300Y-76322200D01*
X396250000Y-123275000D02*
X397376900Y-123275000D01*
X396240000Y-31750000D02*
X397366900Y-31750000D01*
X472470000Y-168910000D02*
X471343100Y-168910000D01*
X470138600Y-30585500D02*
X449321400Y-30585500D01*
X398505200Y-167866700D02*
X419489800Y-167866700D01*
X470206300Y-122053200D02*
X471333100Y-123180000D01*
X449321400Y-30585500D02*
X448156900Y-31750000D01*
X472440000Y-77470000D02*
X471313100Y-77470000D01*
X444763400Y-122040300D02*
X445913100Y-123190000D01*
X398503800Y-122148100D02*
X397376900Y-123275000D01*
X422756900Y-77470000D02*
X423904700Y-76322200D01*
X396250000Y-168995000D02*
X397376900Y-168995000D01*
X447030000Y-31750000D02*
X448156900Y-31750000D01*
X421076600Y-31750000D02*
X421640000Y-31750000D01*
X396250000Y-77565000D02*
X397376900Y-77565000D01*
X447030000Y-168910000D02*
X448156900Y-168910000D01*
X398515200Y-76426700D02*
X397376900Y-77565000D01*
X472460000Y-123180000D02*
X471333100Y-123180000D01*
X421076600Y-31750000D02*
X420513100Y-31750000D01*
X420503100Y-77470000D02*
X419459800Y-76426700D01*
X447040000Y-123190000D02*
X448166900Y-123190000D01*
X445903100Y-168910000D02*
X444732200Y-167739100D01*
X444765300Y-76322200D02*
X445913100Y-77470000D01*
X447040000Y-77470000D02*
X448166900Y-77470000D01*
X444738600Y-30585500D02*
X445903100Y-31750000D01*
X449397500Y-78700600D02*
X448166900Y-77470000D01*
X423937800Y-167739100D02*
X422776900Y-168900000D01*
X449289300Y-167777600D02*
X448156900Y-168910000D01*
X449303700Y-122053200D02*
X470206300Y-122053200D01*
X420513100Y-123170000D02*
X419491200Y-122148100D01*
X448166900Y-123190000D02*
X449303700Y-122053200D01*
X419459800Y-76426700D02*
X398515200Y-76426700D01*
X446466600Y-168910000D02*
X445903100Y-168910000D01*
X421066600Y-77470000D02*
X421630000Y-77470000D01*
X444732200Y-167739100D02*
X423937800Y-167739100D01*
X470210700Y-167777600D02*
X449289300Y-167777600D01*
X446466600Y-168910000D02*
X447030000Y-168910000D01*
X421256700Y-123170000D02*
X421640000Y-123170000D01*
X421640000Y-123170000D02*
X422766900Y-123170000D01*
%TO.N,Net-(U1-E2)*%
X544405200Y-199390000D02*
X567833100Y-199390000D01*
X539325200Y-194310000D02*
X544405200Y-199390000D01*
X538480000Y-194310000D02*
X539325200Y-194310000D01*
X567833100Y-199390000D02*
X569103100Y-200660000D01*
X569103100Y-200660000D02*
X570230000Y-200660000D01*
%TO.N,Net-(U2-E2)*%
X567833000Y-191769900D02*
X569103100Y-193040000D01*
X506750000Y-194310000D02*
X507595200Y-194310000D01*
X507595200Y-194310000D02*
X510529700Y-191375500D01*
X510529700Y-191375500D02*
X547972100Y-191375500D01*
X569103100Y-193040000D02*
X570230000Y-193040000D01*
X548366500Y-191769900D02*
X567833000Y-191769900D01*
X547972100Y-191375500D02*
X548366500Y-191769900D01*
X506740000Y-194320000D02*
X506750000Y-194310000D01*
%TO.N,Net-(U5-Pad2)*%
X572290300Y-201139700D02*
X572290300Y-182342800D01*
X570230000Y-203200000D02*
X572290300Y-201139700D01*
X569338100Y-179390600D02*
X569338100Y-176461900D01*
X572290300Y-182342800D02*
X569338100Y-179390600D01*
X569338100Y-176461900D02*
X570465000Y-175335000D01*
%TO.N,Net-(U5-Pad4)*%
X570465000Y-166068400D02*
X568869800Y-167663600D01*
X571840300Y-195668300D02*
X571840300Y-196509700D01*
X571838400Y-195666400D02*
X571840300Y-195668300D01*
X568869800Y-167663600D02*
X568869800Y-180198200D01*
X571840300Y-196509700D02*
X570230000Y-198120000D01*
X568869800Y-180198200D02*
X571838400Y-183166800D01*
X571838400Y-183166800D02*
X571838400Y-195666400D01*
X570465000Y-165175000D02*
X570465000Y-166068400D01*
%TD*%
M02*
